<?xml version="1.0" encoding="UTF-8"?>
<svg id="Layer_1" xmlns="http://www.w3.org/2000/svg" version="1.1" viewBox="0 0 109.6 176.97">
  <!-- Generator: Adobe Illustrator 30.2.1, SVG Export Plug-In . SVG Version: 2.1.1 Build 1)  -->
  <defs>
    <style>
      .st0 {
        stroke: #fddb00;
      }

      .st0, .st1 {
        stroke-miterlimit: 10;
      }

      .st0, .st1, .st2 {
        fill: none;
      }

      .st0, .st2 {
        stroke-width: .78px;
      }

      .st3 {
        fill: #0e80c3;
      }

      .st4 {
        fill: #1d1c1a;
      }

      .st1 {
        stroke: #1d1c1a;
        stroke-width: 1.26px;
      }

      .st5 {
        fill: #d81f26;
      }

      .st6 {
        fill: #fff;
      }

      .st2 {
        stroke: #d81f26;
        stroke-linecap: round;
        stroke-linejoin: round;
      }

      .st7 {
        fill: #fddb00;
      }
    </style>
  </defs>
  <rect class="st6" x="-.54" y="-.07" width="110.69" height="177.1"/>
  <g>
    <path class="st4" d="M11.34,15.97c0,.23,0,.47.08.62,0,.16.08.23.16.31.08.08.16.16.31.23.16.08.31.08.55.08s.47.08.86.08v.62h-5.94v-.62c.47,0,.86-.08,1.09-.08s.39-.08.47-.16.23-.16.23-.31c.08-.16.08-.39.08-.7v-5c0-.16,0-.31-.08-.39s-.16-.16-.31-.16c-.08,0-.31.08-.47.16-.23.08-.55.31-1.02.62l-.39-.7,3.59-2.19h.86c0,.47-.08,1.02-.08,1.87v5.7Z"/>
    <path class="st4" d="M98.65,162.95c0-.23,0-.47-.08-.62,0-.16-.08-.23-.16-.31-.08-.08-.16-.16-.31-.23-.16-.08-.31-.08-.55-.08s-.47-.08-.86-.08v-.62h5.94v.62c-.55,0-.86.08-1.09.08-.23.08-.39.08-.47.16-.08.08-.23.16-.23.31-.08.16-.08.39-.08.7v5c0,.16,0,.31.08.39s.16.16.31.16c.08,0,.31-.08.47-.16.23-.08.55-.31,1.02-.62l.39.7-3.59,2.19h-.86c0-.47.08-1.02.08-1.87v-5.7Z"/>
    <polyline class="st1" points="19.23 171.54 3.69 171.54 3.69 5.43 18.68 5.43"/>
    <polyline class="st1" points="92.01 5.43 105.92 5.43 105.92 171.54 91.78 171.54"/>
    <line class="st1" x1="48.51" y1="171.54" x2="30.71" y2="171.54"/>
    <line class="st1" x1="48.51" y1="5.43" x2="30.71" y2="5.43"/>
    <line class="st1" x1="81.39" y1="171.54" x2="63.59" y2="171.54"/>
    <line class="st1" x1="81.39" y1="5.43" x2="63.59" y2="5.43"/>
    <path class="st5" d="M79.68,121.95c-1.25-.16-2.42-.7-3.67-.94-.47-.08-1.02-.31-1.72-.16,2.26,1.25,4.76,1.56,6.64,3.05-1.48-.16-2.89-.94-4.45-.86,2.11,1.48,4.92,1.48,6.72,3.44-1.72-.55-3.36-1.48-5.23-1.72.16.47.47.55.7.62,1.8.7,3.51,1.56,5.39,2.11.7.23,1.02.86,1.48,1.41.78.94,1.48,1.87,1.87,2.97-1.64-.55-3.05-1.72-4.84-1.64,1.48.78,2.97,1.41,4.53,1.95.23.08.31-.08.31-.31.47.39.62,1.02,1.02,1.64-1.87-.55-3.36-1.64-5.47-1.64,2.11,1.25,4.61,1.48,6.17,3.2-1.87-.39-3.51-1.48-5.54-1.41,1.17.47,2.34,1.02,3.44,1.48.7.31,1.41.62,2.19.94.39.16.62.47.62.94-1.87-.62-3.59-1.48-5.62-1.48,0,.08-.08.16-.08.23.94.31,1.8.7,2.73,1.02.86.31,1.72.7,2.58,1.02.23.08.55.23.78.39.31.23.62.47.47.86-.23.31-.47-.16-.7-.23-1.48-.62-2.89-1.33-4.45-1.64-.31-.08-.62-.08-1.09,0,.7.55,1.56.78,2.26,1.09,1.41.62,2.73,1.25,4.14,1.8.62.23.94.7,1.09,1.48-2.42-1.02-4.69-2.19-7.34-2.5.31.55.86.62,1.25.78,1.87.7,3.75,1.41,5.54,2.34.78.39,1.25.94,1.48,1.72.08.16.23.39,0,.55-.16.16-.39,0-.55-.16-1.41-.94-2.89-1.72-4.53-2.26-.7-.23-1.41-.47-2.26-.31.94.47,1.8,1.02,2.73,1.41,1.56.55,2.97,1.41,4.37,2.19.47.23.62.7.86,1.09,0,.08,0,.16-.08.23-.47,0-.78-.31-1.09-.55-1.48-.86-2.97-1.64-4.61-2.11-.62-.16-1.25-.23-2.11-.08.39.23.55.39.78.47,1.41.62,2.81,1.17,4.14,1.8,1.09.47,2.11.94,2.89,1.87.23.23.47.55.23.86-.23.31-.55-.08-.78-.23-.78-.47-1.64-1.09-2.42-1.48-1.25-.7-2.58-1.25-4.06-1.17q.31.55.7.7c2.19.86,4.3,1.8,6.09,3.28.31.23.62.47.62,1.02-1.8-1.17-3.51-2.26-5.39-3.12-.7-.31-1.41-.55-2.34-.08,2.89,1.33,5.7,2.34,7.81,4.45-1.33-.62-2.58-1.41-3.9-2.11-2.19-1.17-3.44-1.48-4.37-1.25,2.34,1.17,4.61,2.26,6.87,3.51.78.39,1.41.94,1.72,1.72-.16.23-.31,0-.39-.08-4.22-3.05-8.9-4.53-14.14-4.3-.55,0-.7-.08-.7-.7-.08-4.22-.86-8.36-2.97-12.03-.62-1.09-1.41-2.03-2.26-2.89-.39-.47-.55-.94-.55-1.48.16-4.69-1.64-8.43-5.15-11.4-1.02-.86-2.34-1.17-3.59-1.41-.7-.16-1.02-.47-1.25-1.09-.86-2.66-2.19-5.15-3.98-7.34-1.09-1.33-2.58-2.19-3.83-3.28-1.64-1.48-2.89-3.36-4.14-5.15-2.5-3.44-4.06-7.34-5.47-11.32-1.09-3.36-2.42-6.64-4.45-9.53-.7-1.02-1.09-2.11-1.41-3.2-1.02-3.59-2.26-7.11-4.45-10.15-.55-.78-.7-1.64-.94-2.5-.94-3.9-3.36-6.87-6.25-9.61-.55-.47-1.25-.7-2.03-.78-.16-.16-.39-.31-.62-.31h0c-1.87-1.25-3.83-2.26-5.54-3.59-3.12-2.34-6.17-4.69-8.12-8.2-2.26-3.98-3.44-8.36-3.28-12.96.39-8.9,7.11-14.21,14.6-14.6-2.19.7-4.37,1.48-6.25,2.89,1.87-.39,3.67-1.17,5.54-1.56,1.87-.47,3.75-.94,6.01-.39-2.89.47-5.54.7-8.04,1.8-.31.16-.62.39-.94.62-.08.08-.23.16-.23.55,3.98-1.41,8.04-2.26,12.34-1.72-2.03.23-4.06.47-6.01,1.02-1.56.47-3.05,1.02-4.3,2.11-.08,0-.16,0-.08.08v-.16c1.33-.39,2.66-.78,3.98-1.17,2.5-.7,5.08-.94,7.65-.86.7,0,1.41.08,2.26.7-3.98.39-7.81.31-11.17,2.5.55.23,1.02-.08,1.56-.16,2.42-.7,4.92-1.17,7.5-1.25,1.8-.08,3.51.08,5.15.86.23.16.55.23.78.55-4.45-.7-8.75-.39-12.81,1.48.62.16,1.17.08,1.72-.08s1.17-.23,1.72-.39c3.59-.7,7.18-.55,10.7.31.16,0,.31.08.39.16.08,0,.08.08.16.23-1.48-.08-2.89-.16-4.3-.23-1.41-.08-2.81.08-4.3.39-1.41.23-2.81.62-4.22,1.48.7.23,1.33,0,1.87-.16,4.22-1.02,8.36-.78,12.57,0,.55.08.94.47,1.41,1.17-5-1.33-9.76-1.17-14.45.62,1.8-.16,3.59-.39,5.47-.47,3.2-.08,6.4.16,9.45,1.17q.7.23,1.17.86c-3.51-1.02-6.95-1.64-10.54-1.09-.78.08-1.64.16-2.34.7,4.84-.23,9.68,0,14.14,2.11-4.06-.86-8.04-1.8-12.26-.86,4.37-.16,8.51.7,12.57,2.34.23.08.55.08.62.39h0c-1.17-.08-2.19-.47-3.36-.62-2.66-.47-5.31-1.09-8.04-.78-.16,0-.39-.08-.47.23.16.31.39.31.7.31,3.75-.08,7.34.86,10.93,1.95.55.16,1.09.23,1.33.86.08.16.16.39.16.47-.16.23-.39.08-.55,0-2.26-.7-4.53-1.33-6.87-1.64-1.25-.16-2.58-.31-3.98.08.47.55,1.02.31,1.48.39,2.89.39,5.78.78,8.59,1.72.7.23,1.48.55,2.11.94.16.08.47.31.39.55-.08.31-.39.16-.62.08-2.58-.78-5.15-1.17-7.73-1.72-.86-.16-1.72.08-2.66.08.62.47,1.33.47,1.95.55,2.89.39,5.7,1.09,8.43,2.03.47.16,1.09.23,1.25.94h0c-1.95-.47-3.9-.94-5.86-1.41-1.02-.23-2.03-.39-2.97-.62-.7-.16-1.33.08-2.26.31,1.09.39,2.03.62,2.97.7,2.58.31,5.08,1.09,7.5,1.87.31.08.7.23.94.39.31.16.47.47.31.78-.16.39-.55.08-.78,0-2.03-.86-4.14-1.72-6.33-2.19-1.09-.23-2.19-.39-3.36,0,.23.47.62.23.94.31,3.12.7,6.25,1.72,9.22,2.89.23.08.39.23.55.39.23.16.31.47.16.7-.16.23-.39,0-.55-.08-2.26-.7-4.45-1.48-6.79-2.03-.7-.16-1.33-.08-2.03-.08.16.47.55.47.86.55,2.89.7,5.78,1.41,8.36,2.97.16.08.47.16.47.55-2.97-.62-5.7-2.19-8.75-2.11l-.08.23c.78.23,1.48.55,2.26.78,2.19.55,4.37,1.33,6.4,2.26.16.08.23.16.39.23.23.16.31.47.23.7-.16.31-.39.08-.62,0-1.64-.62-3.2-1.33-4.84-1.72-.86-.23-1.72-.31-2.81-.16,1.02.55,1.95.7,2.81,1.02,1.72.55,3.36,1.09,5,1.87.23.08.39.23.62.31.23.16.23.39.16.62-.16.23-.31.08-.55,0-1.41-.55-2.89-1.09-4.37-1.56-.86-.31-1.72-.55-2.73-.31,1.17.39,2.26.86,3.44,1.25,1.17.47,2.34.86,3.51,1.33.16.08.31.16.47.23.31.16.47.47.31.7-.16.31-.47.08-.7,0-1.25-.47-2.5-1.02-3.75-1.48-.86-.31-1.8-.55-2.73-.39.62.23,1.17.47,1.8.7,1.56.62,3.2,1.33,4.76,1.95.62.23.86.62.94,1.33.31,1.87.23,3.75.39,5.62.39,4.76.55,9.61,1.64,14.29.7,3.05,1.64,6.09,2.42,9.06.08.23.31.47.08.7-.16.16-.47-.08-.62-.08-.78-.16-1.48-.55-2.5-.39.78.7,1.64.7,2.34,1.02s1.8.23,1.8,1.56c-1.25-.23-2.5-.78-3.9-.7.39.47.86.62,1.41.78.78.23,1.48.47,2.26.62.78.23,1.17.7,1.33,1.56-1.56-.23-2.97-1.02-4.53-.62.08.39.39.39.62.47,1.33.39,2.66.86,3.98,1.25.23.08.47.23.62.39.23.31.55.7.31,1.02-.23.31-.55-.08-.86-.16-.86-.31-1.72-.78-2.66-.86-.47-.08-1.02-.08-1.64.23,1.17.39,2.11.7,3.12,1.02.62.23,1.25.39,1.95.62.31.08.55.16.7.47.08.23.47.39.23.62-.16.23-.39,0-.62-.08-1.56-.55-3.12-1.25-5-.94.23.47.7.47,1.02.55,1.56.47,3.2.86,4.76,1.56.55.23.86.55.86,1.17-1.72-.47-3.28-1.33-5.08-1.09-.16,0-.31.08-.47.31.78.47,1.8.55,2.66.86.94.31,1.87.55,2.89.78.55.16.86.47.86,1.17-1.95-.55-3.83-1.72-5.94-1.09,0,.08,0,.16-.08.23,1.09.31,2.19.62,3.28.94.86.23,1.8.55,2.66.78.62.23.62.31.78,1.09-.7-.23-1.41-.55-2.03-.78-1.02-.39-2.03-.7-3.12-.55-.23,0-.55,0-.55.31,0,.23.31.23.47.31,1.72.62,3.44.94,5.15,1.41.7.16,1.02.55,1.25,1.25-2.11-.31-3.98-1.95-6.25-1.48,0,.08-.08.16-.08.23,1.33.39,2.66.78,3.98,1.17.55.16,1.02.39,1.56.47,1.02.16,1.48.86,1.72,1.72h0c-.39.08-.62-.16-.86-.31-1.56-.7-3.05-1.56-4.76-1.8-.62-.08-1.17-.16-1.8.23.08.08.08.23.16.23,2.26.78,4.61,1.48,6.87,2.19.23.08.55.08.55-.31h0c.39.7.78,1.41,1.25,2.26-2.73-.7-4.92-2.42-7.65-2.19.78.7,1.72.86,2.66,1.17,1.56.62,3.12,1.25,4.69,1.8.47.16.86.39,1.09.78.08.16.23.31.16.47-.16.16-.31.08-.47,0-.86-.39-1.8-.86-2.73-1.17-1.17-.39-2.42-.55-3.75-.55,2.58,1.41,5.54,1.87,7.89,3.59-2.11-.39-4.06-1.72-6.33-1.56,1.33.78,2.81,1.17,4.14,1.8,1.33.62,3.05.7,3.83,2.26-2.19-.7-4.22-2.03-6.64-2.03.08.47.47.47.7.62,1.95.78,3.98,1.56,5.94,2.26,1.02.39,1.64,1.09,2.19,2.03h0c-1.33-.31-2.42-1.02-3.67-1.48-1.02-.39-2.03-.78-3.36-.7.86.7,1.72.86,2.5,1.17,1.8.78,3.59,1.48,5.47,2.19.47.16.7.62.86,1.09-1.02-.39-2.03-.78-3.05-1.09-.7-.23-1.48-.47-2.26-.7-.47-.16-.86-.08-1.33.16.16.31.47.39.78.47,2.03.7,4.06,1.41,6.09,2.03.47.16.78.31.94.94-2.19-.62-4.06-2.03-6.48-1.41,1.02.7,2.26.86,3.36,1.33,1.09.39,2.26.7,3.44,1.09.23.08.47.16.62.31.23.23.62.55.47.86-.23.47-.55,0-.78-.08-1.17-.39-2.34-.86-3.51-1.25-.62-.16-1.17-.39-1.87-.31.16.47.55.47.86.62,1.64.55,3.2,1.17,4.84,1.72,1.25.16,1.8.62,2.11,1.41h0ZM53.9,61.11c-1.48-1.25-3.12-2.34-4.92-2.97-.16-.08-.39-.08-.47.16-.08.31.16.39.39.47,1.41.78,2.81,1.56,4.22,2.34.16.08.39.23.78,0M47.19,50.65c1.8.86,3.67,1.56,5.47,2.5.16.08.39.08.47-.08.08-.23-.16-.39-.31-.47-1.33-.7-2.66-1.56-4.14-2.03-.47-.08-.94-.16-1.48.08M53.43,56.89c-.7-.86-1.64-1.33-2.5-1.8-.7-.39-1.41-.78-2.19-.86-.23,0-.62-.16-.7.16-.08.23.31.31.47.39,1.41.62,2.81,1.25,4.14,1.95.23.23.39.39.78.16M47.73,56.19c1.95,1.25,3.75,2.11,5.7,3.05-.55-1.17-4.3-3.2-5.7-3.05M47.73,52.6l-.08.31c1.8.7,3.51,1.48,5.31,2.19,0-.08.08-.16.08-.23-1.48-1.33-3.28-2.11-5.31-2.26M53.36,63.06c-.78-1.09-3.67-2.58-4.61-2.34,1.48.94,2.89,1.87,4.61,2.34M52.89,64.55c-.86-.62-1.41-1.8-2.73-1.64.7.86,1.56,1.48,2.73,1.64M80.46,127.65c1.25.55,2.42,1.33,3.98,1.8-.94-.94-3.05-1.87-3.98-1.8"/>
    <path class="st2" d="M79.68,121.95c-1.25-.16-2.42-.7-3.67-.94-.47-.08-1.02-.31-1.72-.16,2.26,1.25,4.76,1.56,6.64,3.05-1.48-.16-2.89-.94-4.45-.86,2.11,1.48,4.92,1.48,6.72,3.44-1.72-.55-3.36-1.48-5.23-1.72.16.47.47.55.7.62,1.8.7,3.51,1.56,5.39,2.11.7.23,1.02.86,1.48,1.41.78.94,1.48,1.87,1.87,2.97-1.64-.55-3.05-1.72-4.84-1.64,1.48.78,2.97,1.41,4.53,1.95.23.08.31-.08.31-.31.47.39.62,1.02,1.02,1.64-1.87-.55-3.36-1.64-5.47-1.64,2.11,1.25,4.61,1.48,6.17,3.2-1.87-.39-3.51-1.48-5.54-1.41,1.17.47,2.34,1.02,3.44,1.48.7.31,1.41.62,2.19.94.39.16.62.47.62.94-1.87-.62-3.59-1.48-5.62-1.48,0,.08-.08.16-.08.23.94.31,1.8.7,2.73,1.02.86.31,1.72.7,2.58,1.02.23.08.55.23.78.39.31.23.62.47.47.86-.23.31-.47-.16-.7-.23-1.48-.62-2.89-1.33-4.45-1.64-.31-.08-.62-.08-1.09,0,.7.55,1.56.78,2.26,1.09,1.41.62,2.73,1.25,4.14,1.8.62.23.94.7,1.09,1.48-2.42-1.02-4.69-2.19-7.34-2.5.31.55.86.62,1.25.78,1.87.7,3.75,1.41,5.54,2.34.78.39,1.25.94,1.48,1.72.08.16.23.39,0,.55-.16.16-.39,0-.55-.16-1.41-.94-2.89-1.72-4.53-2.26-.7-.23-1.41-.47-2.26-.31.94.47,1.8,1.02,2.73,1.41,1.56.55,2.97,1.41,4.37,2.19.47.23.62.7.86,1.09,0,.08,0,.16-.08.23-.47,0-.78-.31-1.09-.55-1.48-.86-2.97-1.64-4.61-2.11-.62-.16-1.25-.23-2.11-.08.39.23.55.39.78.47,1.41.62,2.81,1.17,4.14,1.8,1.09.47,2.11.94,2.89,1.87.23.23.47.55.23.86-.23.31-.55-.08-.78-.23-.78-.47-1.64-1.09-2.42-1.48-1.25-.7-2.58-1.25-4.06-1.17q.31.55.7.7c2.19.86,4.3,1.8,6.09,3.28.31.23.62.47.62,1.02-1.8-1.17-3.51-2.26-5.39-3.12-.7-.31-1.41-.55-2.34-.08,2.89,1.33,5.7,2.34,7.81,4.45-1.33-.62-2.58-1.41-3.9-2.11-2.19-1.17-3.44-1.48-4.37-1.25,2.34,1.17,4.61,2.26,6.87,3.51.78.39,1.41.94,1.72,1.72-.16.23-.31,0-.39-.08-4.22-3.05-8.9-4.53-14.14-4.3-.55,0-.7-.08-.7-.7-.08-4.22-.86-8.36-2.97-12.03-.62-1.09-1.41-2.03-2.26-2.89-.39-.47-.55-.94-.55-1.48.16-4.69-1.64-8.43-5.15-11.4-1.02-.86-2.34-1.17-3.59-1.41-.7-.16-1.02-.47-1.25-1.09-.86-2.66-2.19-5.15-3.98-7.34-1.09-1.33-2.58-2.19-3.83-3.28-1.64-1.48-2.89-3.36-4.14-5.15-2.5-3.44-4.06-7.34-5.47-11.32-1.09-3.36-2.42-6.64-4.45-9.53-.7-1.02-1.09-2.11-1.41-3.2-1.02-3.59-2.26-7.11-4.45-10.15-.55-.78-.7-1.64-.94-2.5-.94-3.9-3.36-6.87-6.25-9.61-.55-.47-1.25-.7-2.03-.78-.16-.16-.39-.31-.62-.31h0c-1.87-1.25-3.83-2.26-5.54-3.59-3.12-2.34-6.17-4.69-8.12-8.2-2.26-3.98-3.44-8.36-3.28-12.96.39-8.9,7.11-14.21,14.6-14.6-2.19.7-4.37,1.48-6.25,2.89,1.87-.39,3.67-1.17,5.54-1.56,1.87-.47,3.75-.94,6.01-.39-2.89.47-5.54.7-8.04,1.8-.31.16-.62.39-.94.62-.08.08-.23.16-.23.55,3.98-1.41,8.04-2.26,12.34-1.72-2.03.23-4.06.47-6.01,1.02-1.56.47-3.05,1.02-4.3,2.11-.08,0-.16,0-.08.08v-.16c1.33-.39,2.66-.78,3.98-1.17,2.5-.7,5.08-.94,7.65-.86.7,0,1.41.08,2.26.7-3.98.39-7.81.31-11.17,2.5.55.23,1.02-.08,1.56-.16,2.42-.7,4.92-1.17,7.5-1.25,1.8-.08,3.51.08,5.15.86.23.16.55.23.78.55-4.45-.7-8.75-.39-12.81,1.48.62.16,1.17.08,1.72-.08s1.17-.23,1.72-.39c3.59-.7,7.18-.55,10.7.31.16,0,.31.08.39.16.08,0,.08.08.16.23-1.48-.08-2.89-.16-4.3-.23-1.41-.08-2.81.08-4.3.39-1.41.23-2.81.62-4.22,1.48.7.23,1.33,0,1.87-.16,4.22-1.02,8.36-.78,12.57,0,.55.08.94.47,1.41,1.17-5-1.33-9.76-1.17-14.45.62,1.8-.16,3.59-.39,5.47-.47,3.2-.08,6.4.16,9.45,1.17q.7.23,1.17.86c-3.51-1.02-6.95-1.64-10.54-1.09-.78.08-1.64.16-2.34.7,4.84-.23,9.68,0,14.14,2.11-4.06-.86-8.04-1.8-12.26-.86,4.37-.16,8.51.7,12.57,2.34.23.08.55.08.62.39h0c-1.17-.08-2.19-.47-3.36-.62-2.66-.47-5.31-1.09-8.04-.78-.16,0-.39-.08-.47.23.16.31.39.31.7.31,3.75-.08,7.34.86,10.93,1.95.55.16,1.09.23,1.33.86.08.16.16.39.16.47-.16.23-.39.08-.55,0-2.26-.7-4.53-1.33-6.87-1.64-1.25-.16-2.58-.31-3.98.08.47.55,1.02.31,1.48.39,2.89.39,5.78.78,8.59,1.72.7.23,1.48.55,2.11.94.16.08.47.31.39.55-.08.31-.39.16-.62.08-2.58-.78-5.15-1.17-7.73-1.72-.86-.16-1.72.08-2.66.08.62.47,1.33.47,1.95.55,2.89.39,5.7,1.09,8.43,2.03.47.16,1.09.23,1.25.94h0c-1.95-.47-3.9-.94-5.86-1.41-1.02-.23-2.03-.39-2.97-.62-.7-.16-1.33.08-2.26.31,1.09.39,2.03.62,2.97.7,2.58.31,5.08,1.09,7.5,1.87.31.08.7.23.94.39.31.16.47.47.31.78-.16.39-.55.08-.78,0-2.03-.86-4.14-1.72-6.33-2.19-1.09-.23-2.19-.39-3.36,0,.23.47.62.23.94.31,3.12.7,6.25,1.72,9.22,2.89.23.08.39.23.55.39.23.16.31.47.16.7-.16.23-.39,0-.55-.08-2.26-.7-4.45-1.48-6.79-2.03-.7-.16-1.33-.08-2.03-.08.16.47.55.47.86.55,2.89.7,5.78,1.41,8.36,2.97.16.08.47.16.47.55-2.97-.62-5.7-2.19-8.75-2.11l-.08.23c.78.23,1.48.55,2.26.78,2.19.55,4.37,1.33,6.4,2.26.16.08.23.16.39.23.23.16.31.47.23.7-.16.31-.39.08-.62,0-1.64-.62-3.2-1.33-4.84-1.72-.86-.23-1.72-.31-2.81-.16,1.02.55,1.95.7,2.81,1.02,1.72.55,3.36,1.09,5,1.87.23.08.39.23.62.31.23.16.23.39.16.62-.16.23-.31.08-.55,0-1.41-.55-2.89-1.09-4.37-1.56-.86-.31-1.72-.55-2.73-.31,1.17.39,2.26.86,3.44,1.25,1.17.47,2.34.86,3.51,1.33.16.08.31.16.47.23.31.16.47.47.31.7-.16.31-.47.08-.7,0-1.25-.47-2.5-1.02-3.75-1.48-.86-.31-1.8-.55-2.73-.39.62.23,1.17.47,1.8.7,1.56.62,3.2,1.33,4.76,1.95.62.23.86.62.94,1.33.31,1.87.23,3.75.39,5.62.39,4.76.55,9.61,1.64,14.29.7,3.05,1.64,6.09,2.42,9.06.08.23.31.47.08.7-.16.16-.47-.08-.62-.08-.78-.16-1.48-.55-2.5-.39.78.7,1.64.7,2.34,1.02s1.8.23,1.8,1.56c-1.25-.23-2.5-.78-3.9-.7.39.47.86.62,1.41.78.78.23,1.48.47,2.26.62.78.23,1.17.7,1.33,1.56-1.56-.23-2.97-1.02-4.53-.62.08.39.39.39.62.47,1.33.39,2.66.86,3.98,1.25.23.08.47.23.62.39.23.31.55.7.31,1.02-.23.31-.55-.08-.86-.16-.86-.31-1.72-.78-2.66-.86-.47-.08-1.02-.08-1.64.23,1.17.39,2.11.7,3.12,1.02.62.23,1.25.39,1.95.62.31.08.55.16.7.47.08.23.47.39.23.62-.16.23-.39,0-.62-.08-1.56-.55-3.12-1.25-5-.94.23.47.7.47,1.02.55,1.56.47,3.2.86,4.76,1.56.55.23.86.55.86,1.17-1.72-.47-3.28-1.33-5.08-1.09-.16,0-.31.08-.47.31.78.47,1.8.55,2.66.86.94.31,1.87.55,2.89.78.55.16.86.47.86,1.17-1.95-.55-3.83-1.72-5.94-1.09,0,.08,0,.16-.08.23,1.09.31,2.19.62,3.28.94.86.23,1.8.55,2.66.78.62.23.62.31.78,1.09-.7-.23-1.41-.55-2.03-.78-1.02-.39-2.03-.7-3.12-.55-.23,0-.55,0-.55.31,0,.23.31.23.47.31,1.72.62,3.44.94,5.15,1.41.7.16,1.02.55,1.25,1.25-2.11-.31-3.98-1.95-6.25-1.48,0,.08-.08.16-.08.23,1.33.39,2.66.78,3.98,1.17.55.16,1.02.39,1.56.47,1.02.16,1.48.86,1.72,1.72h0c-.39.08-.62-.16-.86-.31-1.56-.7-3.05-1.56-4.76-1.8-.62-.08-1.17-.16-1.8.23.08.08.08.23.16.23,2.26.78,4.61,1.48,6.87,2.19.23.08.55.08.55-.31h0c.39.7.78,1.41,1.25,2.26-2.73-.7-4.92-2.42-7.65-2.19.78.7,1.72.86,2.66,1.17,1.56.62,3.12,1.25,4.69,1.8.47.16.86.39,1.09.78.08.16.23.31.16.47-.16.16-.31.08-.47,0-.86-.39-1.8-.86-2.73-1.17-1.17-.39-2.42-.55-3.75-.55,2.58,1.41,5.54,1.87,7.89,3.59-2.11-.39-4.06-1.72-6.33-1.56,1.33.78,2.81,1.17,4.14,1.8,1.33.62,3.05.7,3.83,2.26-2.19-.7-4.22-2.03-6.64-2.03.08.47.47.47.7.62,1.95.78,3.98,1.56,5.94,2.26,1.02.39,1.64,1.09,2.19,2.03h0c-1.33-.31-2.42-1.02-3.67-1.48-1.02-.39-2.03-.78-3.36-.7.86.7,1.72.86,2.5,1.17,1.8.78,3.59,1.48,5.47,2.19.47.16.7.62.86,1.09-1.02-.39-2.03-.78-3.05-1.09-.7-.23-1.48-.47-2.26-.7-.47-.16-.86-.08-1.33.16.16.31.47.39.78.47,2.03.7,4.06,1.41,6.09,2.03.47.16.78.31.94.94-2.19-.62-4.06-2.03-6.48-1.41,1.02.7,2.26.86,3.36,1.33,1.09.39,2.26.7,3.44,1.09.23.08.47.16.62.31.23.23.62.55.47.86-.23.47-.55,0-.78-.08-1.17-.39-2.34-.86-3.51-1.25-.62-.16-1.17-.39-1.87-.31.16.47.55.47.86.62,1.64.55,3.2,1.17,4.84,1.72,1.25.16,1.8.62,2.11,1.41h0ZM53.9,61.11c-1.48-1.25-3.12-2.34-4.92-2.97-.16-.08-.39-.08-.47.16-.08.31.16.39.39.47,1.41.78,2.81,1.56,4.22,2.34.16.08.39.23.78,0ZM47.19,50.65c1.8.86,3.67,1.56,5.47,2.5.16.08.39.08.47-.08.08-.23-.16-.39-.31-.47-1.33-.7-2.66-1.56-4.14-2.03-.47-.08-.94-.16-1.48.08ZM53.43,56.89c-.7-.86-1.64-1.33-2.5-1.8-.7-.39-1.41-.78-2.19-.86-.23,0-.62-.16-.7.16-.08.23.31.31.47.39,1.41.62,2.81,1.25,4.14,1.95.23.23.39.39.78.16ZM47.73,56.19c1.95,1.25,3.75,2.11,5.7,3.05-.55-1.17-4.3-3.2-5.7-3.05ZM47.73,52.6l-.08.31c1.8.7,3.51,1.48,5.31,2.19,0-.08.08-.16.08-.23-1.48-1.33-3.28-2.11-5.31-2.26ZM53.36,63.06c-.78-1.09-3.67-2.58-4.61-2.34,1.48.94,2.89,1.87,4.61,2.34ZM52.89,64.55c-.86-.62-1.41-1.8-2.73-1.64.7.86,1.56,1.48,2.73,1.64ZM80.46,127.65c1.25.55,2.42,1.33,3.98,1.8-.94-.94-3.05-1.87-3.98-1.8Z"/>
    <path class="st7" d="M91.7,99.14c1.17,1.25,2.5,2.03,3.75,2.97,1.72,1.41,2.73,3.2,2.66,5.54-.08.94-.23,2.03-1.25,2.34-1.02.39-1.95-.16-2.66-.86-1.48-1.41-2.19-3.12-2.5-5.08-.39-1.56-.23-3.12,0-4.92M92.56,101.8c.31,2.11.7,4.14,1.87,5.86.55.78,1.48,1.17,1.87.86.7-.55.55-1.33.31-2.03-.7-2.11-2.42-3.44-4.06-4.69"/>
    <path class="st0" d="M91.7,99.14c1.17,1.25,2.5,2.03,3.75,2.97,1.72,1.41,2.73,3.2,2.66,5.54-.08.94-.23,2.03-1.25,2.34-1.02.39-1.95-.16-2.66-.86-1.48-1.41-2.19-3.12-2.5-5.08-.39-1.56-.23-3.12,0-4.92ZM92.56,101.8c.31,2.11.7,4.14,1.87,5.86.55.78,1.48,1.17,1.87.86.7-.55.55-1.33.31-2.03-.7-2.11-2.42-3.44-4.06-4.69Z"/>
    <path class="st7" d="M97.87,31.36c.47,0,.39.39.39.62.62,2.81.55,5.62,0,8.43-.23,1.33-.94,2.42-2.26,3.05-1.56.08-2.26-.86-2.11-2.66.23-2.81,1.25-5.31,2.58-7.65.47-.62.94-1.25,1.41-1.8h0ZM97.48,33.93c-1.25,1.87-2.26,3.83-2.42,6.09,0,.7-.16,1.64.78,1.8.86.16,1.09-.78,1.33-1.41.86-2.03.39-4.3.31-6.48"/>
    <path class="st0" d="M97.87,31.36c.47,0,.39.39.39.62.62,2.81.55,5.62,0,8.43-.23,1.33-.94,2.42-2.26,3.05-1.56.08-2.26-.86-2.11-2.66.23-2.81,1.25-5.31,2.58-7.65.47-.62.94-1.25,1.41-1.8h0ZM97.48,33.93c-1.25,1.87-2.26,3.83-2.42,6.09,0,.7-.16,1.64.78,1.8.86.16,1.09-.78,1.33-1.41.86-2.03.39-4.3.31-6.48Z"/>
    <path class="st7" d="M87.95,81.96c0-1.41-.08-2.81,0-4.37,2.66,1.87,5,3.9,6.48,6.79.62,1.17.94,2.34.47,3.67-.39,1.17-.7,1.48-1.95,1.56-2.42-.47-3.59-2.19-4.37-4.37-.31-1.09-.47-2.19-.62-3.28M93.73,86.26c-.08-.23-.16-.39-.16-.62-.7-2.26-2.58-3.51-4.06-5.15-.08-.08-.23-.16-.31-.08-.16.16-.08.31-.08.47.23,1.56.47,3.12,1.02,4.61.23.55.39,1.17.78,1.64.47.62,1.48.94,2.11.7.7-.23.47-1.02.7-1.56"/>
    <path class="st0" d="M87.95,81.96c0-1.41-.08-2.81,0-4.37,2.66,1.87,5,3.9,6.48,6.79.62,1.17.94,2.34.47,3.67-.39,1.17-.7,1.48-1.95,1.56-2.42-.47-3.59-2.19-4.37-4.37-.31-1.09-.47-2.19-.62-3.28ZM93.73,86.26c-.08-.23-.16-.39-.16-.62-.7-2.26-2.58-3.51-4.06-5.15-.08-.08-.23-.16-.31-.08-.16.16-.08.31-.08.47.23,1.56.47,3.12,1.02,4.61.23.55.39,1.17.78,1.64.47.62,1.48.94,2.11.7.7-.23.47-1.02.7-1.56Z"/>
    <path class="st7" d="M36.8,148.19c-1.87.08-3.67-.47-5.47-.55-.47,0-1.17.39-1.41-.16-.16-.39.47-.86.7-1.25,1.17-1.95,2.5-3.83,4.06-5.47,1.02-1.09,2.34-1.56,3.75-1.48,1.64.08,2.66,1.09,3.28,2.5.62,1.48.62,2.97-.39,4.3-1.09,1.64-2.73,2.11-4.53,2.11M32.58,146.7c1.48-.31,2.89-.08,4.37-.23,1.17-.16,2.11-.7,2.66-1.8.55-1.09.08-2.11-1.02-2.5-1.25-.47-2.42-.16-3.28,1.02s-1.72,2.34-2.73,3.51"/>
    <path class="st0" d="M36.8,148.19c-1.87.08-3.67-.47-5.47-.55-.47,0-1.17.39-1.41-.16-.16-.39.47-.86.7-1.25,1.17-1.95,2.5-3.83,4.06-5.47,1.02-1.09,2.34-1.56,3.75-1.48,1.64.08,2.66,1.09,3.28,2.5.62,1.48.62,2.97-.39,4.3-1.09,1.64-2.73,2.11-4.53,2.11ZM32.58,146.7c1.48-.31,2.89-.08,4.37-.23,1.17-.16,2.11-.7,2.66-1.8.55-1.09.08-2.11-1.02-2.5-1.25-.47-2.42-.16-3.28,1.02s-1.72,2.34-2.73,3.51Z"/>
    <path class="st7" d="M12.04,103.13c.08-2.5.39-5,1.87-7.11,1.33-1.87,3.28-2.81,5.62-2.5,2.42.31,3.36,2.58,2.11,4.92-.7,1.33-1.72,2.34-3.12,2.89-2.03.78-3.98,1.64-5.78,2.81-.16.16-.39.39-.62.23-.23-.16,0-.39-.08-.62,0-.16,0-.39,0-.62M13.29,102.27c.86-.55,1.8-.86,2.73-1.17,1.41-.47,2.66-1.17,3.51-2.42.62-.86.55-2.19-.08-2.73-.7-.62-1.87-.62-2.81.08s-1.56,1.64-1.95,2.73c-.47,1.09-.78,2.34-1.41,3.51"/>
    <path class="st0" d="M12.04,103.13c.08-2.5.39-5,1.87-7.11,1.33-1.87,3.28-2.81,5.62-2.5,2.42.31,3.36,2.58,2.11,4.92-.7,1.33-1.72,2.34-3.12,2.89-2.03.78-3.98,1.64-5.78,2.81-.16.16-.39.39-.62.23-.23-.16,0-.39-.08-.62,0-.16,0-.39,0-.62ZM13.29,102.27c.86-.55,1.8-.86,2.73-1.17,1.41-.47,2.66-1.17,3.51-2.42.62-.86.55-2.19-.08-2.73-.7-.62-1.87-.62-2.81.08s-1.56,1.64-1.95,2.73c-.47,1.09-.78,2.34-1.41,3.51Z"/>
    <path class="st7" d="M9.62,74.78c-.16-1.72-.94-2.97-1.72-4.3-1.09-1.72-1.48-3.59-1.48-5.54,0-1.48.78-2.5,2.11-3.2,1.02-.55,2.89.31,3.67,1.56.62,1.09.78,2.34.62,3.51-.23,2.73-1.41,5.23-2.73,7.58-.16.16-.31.23-.47.39M9.78,72.12c.94-2.03,1.8-4.06,1.41-6.4-.16-.86-.7-1.56-1.33-2.03-.47-.39-.94-.31-1.17.31-.47.94-.62,1.95-.31,2.97.47,1.56,1.09,3.12,1.17,4.84-.08.08,0,.23.23.31"/>
    <path class="st0" d="M9.62,74.78c-.16-1.72-.94-2.97-1.72-4.3-1.09-1.72-1.48-3.59-1.48-5.54,0-1.48.78-2.5,2.11-3.2,1.02-.55,2.89.31,3.67,1.56.62,1.09.78,2.34.62,3.51-.23,2.73-1.41,5.23-2.73,7.58-.16.16-.31.23-.47.39ZM9.78,72.12c.94-2.03,1.8-4.06,1.41-6.4-.16-.86-.7-1.56-1.33-2.03-.47-.39-.94-.31-1.17.31-.47.94-.62,1.95-.31,2.97.47,1.56,1.09,3.12,1.17,4.84-.08.08,0,.23.23.31Z"/>
    <path class="st7" d="M12.9,116.09c-.08-2.26.16-4.06.62-5.86.08-.16,0-.47.31-.47.23,0,.39.23.55.39.94,1.56,1.95,3.12,2.81,4.69.78,1.41,1.02,2.89.78,4.45-.16,1.25-.94,2.19-1.72,2.26-.78.08-1.95-.78-2.42-1.8-.7-1.25-.94-2.58-.94-3.67M14.54,112.5c-.23.94-.39,1.8-.47,2.73,0,.94,0,1.87.23,2.81.23,1.09.94,1.87,1.48,1.8.55-.08,1.02-1.17.94-2.26-.16-1.87-1.33-3.36-2.19-5.08"/>
    <path class="st0" d="M12.9,116.09c-.08-2.26.16-4.06.62-5.86.08-.16,0-.47.31-.47.23,0,.39.23.55.39.94,1.56,1.95,3.12,2.81,4.69.78,1.41,1.02,2.89.78,4.45-.16,1.25-.94,2.19-1.72,2.26-.78.08-1.95-.78-2.42-1.8-.7-1.25-.94-2.58-.94-3.67ZM14.54,112.5c-.23.94-.39,1.8-.47,2.73,0,.94,0,1.87.23,2.81.23,1.09.94,1.87,1.48,1.8.55-.08,1.02-1.17.94-2.26-.16-1.87-1.33-3.36-2.19-5.08Z"/>
    <path class="st7" d="M93.89,56.11c.55-.94,1.02-1.87,1.72-2.66.31-.39.7-.47.86.08.62,2.19,2.11,4.06,2.11,6.48,0,1.33-.08,2.66-.62,3.9-.78,1.56-1.56,1.87-3.12,1.33-1.87-1.64-1.95-3.83-1.72-6.17.08-1.02.47-2.03.78-2.97M95.76,55.64c0,.62-.47,1.09-.7,1.56-.78,1.72-1.33,3.51-.47,5.39.23.47.47,1.02,1.09,1.02.7,0,.94-.55,1.25-1.09.08-.16.16-.39.16-.55.08-2.26-.39-4.37-1.33-6.33"/>
    <path class="st0" d="M93.89,56.11c.55-.94,1.02-1.87,1.72-2.66.31-.39.7-.47.86.08.62,2.19,2.11,4.06,2.11,6.48,0,1.33-.08,2.66-.62,3.9-.78,1.56-1.56,1.87-3.12,1.33-1.87-1.64-1.95-3.83-1.72-6.17.08-1.02.47-2.03.78-2.97ZM95.76,55.64c0,.62-.47,1.09-.7,1.56-.78,1.72-1.33,3.51-.47,5.39.23.47.47,1.02,1.09,1.02.7,0,.94-.55,1.25-1.09.08-.16.16-.39.16-.55.08-2.26-.39-4.37-1.33-6.33Z"/>
    <path class="st3" d="M18.84,119.37c.31-2.34-.55-4.37-1.8-6.25-.31-.47-.7-.94-.78-1.48,2.42,1.48,5.08,2.19,7.89,2.5,5.15.7,10.15,0,15.07-1.56,3.36-1.09,6.72-2.5,10.23-3.2,1.02-.23,2.03-.39,3.05-.39,1.33.08,2.66.31,3.59,1.41.78.86,1.56,1.64,2.42,2.42.23.23.55.55.39.94-.31.78-.23,1.64-.47,2.5-.08.23,0,.62-.39.55-.31-.08-.08-.47,0-.7.23-.78.31-1.56.23-2.34,0-.23-.08-.47-.16-.7-.08-.16-.16-.39-.39-.39-.23.08-.16.31-.16.47,0,.86-.08,1.72-.23,2.5-.08.23-.08.55-.23.78-.08.16-.16.31-.39.23-.31-.08-.23-.23-.23-.47.23-1.02.31-2.03.16-3.05,0-.39-.08-.78-.39-1.02-.31.23-.31.47-.23.78.08,1.09-.16,2.11-.23,3.2,0,.39-.16.78-.7.62-.55-.08-.23-.47-.16-.7.23-1.09.23-2.11-.08-3.2-.08-.23-.08-.62-.39-.55s-.16.39-.16.62c.08,1.09-.08,2.19-.31,3.28-.08.39-.16.86-.7.78-.7-.16-.23-.62-.23-.94.16-1.09.31-2.11,0-3.2-.08-.23-.16-.55-.47-.55-.31.08-.23.39-.23.62.08,1.17-.16,2.34-.23,3.59,0,.47-.23.78-.7.7s-.23-.55-.16-.78c.23-1.09.16-2.11-.08-3.2-.08-.23-.08-.55-.39-.47-.39,0-.23.39-.23.55-.08,1.17-.16,2.34-.23,3.59,0,.16,0,.31-.08.39-.08.31-.31.47-.55.39-.39,0-.23-.31-.23-.55.08-1.17.16-2.26-.08-3.36-.08-.23,0-.62-.39-.55-.31.08-.16.39-.16.62.08,1.25-.08,2.58-.23,3.83,0,.31-.08.55-.31.7-.16.08-.39.23-.55.08s-.08-.31,0-.47c.31-1.02.16-2.11.08-3.12-.08-.39-.08-.78-.39-1.09-.47.47-.31,1.02-.23,1.48.16,1.09-.08,2.11-.23,3.2-.08.39-.16.78-.62.62-.39-.08-.16-.47-.16-.7.08-.94.08-1.95-.08-2.89-.08-.39-.08-.78-.47-1.02-.31.16-.16.39-.16.62.08,1.25,0,2.58,0,3.83,0,.62-.23.86-.94.86.23-1.72.16-3.36-.55-5-.39.31-.31.7-.31,1.02.08,1.25.16,2.42,0,3.67,0,.23-.08.55-.31.7-.16.16-.39.23-.62.16-.31-.08-.16-.39-.16-.62.16-1.02.16-1.95-.16-2.97-.08-.39-.16-.7-.62-.94-.23.31-.16.7-.08,1.02.08,1.09.16,2.19.08,3.28-.08.47-.31.78-.78.78-.55,0-.23-.47-.23-.78-.08-.78-.08-1.64-.16-2.42,0-.31-.08-.7-.39-.94-.39.23-.23.55-.23.86.08,1.02,0,1.95-.08,2.97,0,.39-.16.62-.55.62-.39-.08-.23-.39-.23-.62,0-.78.16-1.48-.08-2.26-.08-.31,0-.78-.39-.7s-.16.47-.16.7c.08.78,0,1.64-.08,2.42,0,.39-.08.86-.62.78-.47-.08-.23-.55-.23-.78-.08-.86.08-1.8-.39-2.73-.31.7-.31,1.33-.31,1.95,0,.55.08,1.02-.08,1.56-.08.31-.23.47-.55.47s-.31-.31-.31-.55c-.08-.94-.08-1.87-.23-2.89-.39.31-.39.7-.39,1.02,0,.7-.08,1.33-.08,2.03,0,.31-.16.7-.55.62-.47,0-.31-.39-.31-.7-.08-.78-.08-1.48-.16-2.26,0-.23,0-.55-.31-.55s-.23.39-.23.55v2.11c0,.39.08.86-.55.86-.55,0-.39-.47-.39-.78,0-.86,0-1.72-.23-2.58,0-.08-.16-.16-.23-.31-.47.55-.23,1.17-.31,1.72-.08.39-.08.78-.08,1.09,0,.47,0,1.02-.62,1.02-.7,0-.47-.62-.39-1.02.08-.94.08-1.8-.31-2.66-.08.62-.16,1.33-.31,1.95-.08.47-.08.86-.16,1.33-.08.23-.08.47-.39.47-.31-.08-.39-.31-.31-.55.16-.94.08-1.95-.08-2.89,0-.16,0-.31-.31-.55-.08.78-.16,1.48-.23,2.19-.08.47-.08.86-.16,1.33-.08.31-.23.47-.55.39-.31,0-.31-.31-.31-.55,0-1.02,0-2.03-.08-3.05,0-.23,0-.7-.23-.7-.39,0-.23.39-.31.7-.08.94-.16,1.87-.23,2.81,0,.39-.16.7-.62.62-.47-.08-.47-.39-.39-.7.08-1.02.08-1.95-.16-2.97-.08-.31-.08-.62-.47-.78-.31,1.09-.08,2.19-.23,3.2v.55c0,.23-.08.55-.47.55-.31,0-.39-.31-.39-.55.08-.86,0-1.72-.08-2.58-.08-.55-.16-1.09-.47-1.56-.08,1.25-.16,2.58-.23,3.83,0,.31.08.7-.47.7-.39,0-.31-.39-.31-.7,0-1.25-.16-2.58-.31-3.83-.08-.39-.16-.86-.39-1.17-.39.23-.31.62-.31.94,0,1.17.08,2.26.08,3.44,0,.23-.08.55-.08.78-.08.31-.16.47-.55.39-.31-.08-.39-.31-.39-.55.08-.94.16-1.87.08-2.81-.08-.78-.16-1.48-.31-2.26-.08-.31-.08-.62-.55-.78-.16.39-.08.7,0,1.09.39,1.56.23,3.05.08,4.61-.08.47-.31.62-.78.55-.55-.08-.23-.47-.23-.7-.16-.62,0-1.09-.08-1.48"/>
    <path class="st3" d="M21.88,93.68c-.55-.23-1.09-.55-1.64-.78-1.64-.78-3.2-.39-4.61.47-.39.23-.78.55-1.09.31-.39-.16-.16-.7-.16-1.02.08-3.9.55-7.73,1.72-11.4,1.17-3.67,2.81-7.11,5.86-9.53,3.36-2.73,7.26-3.44,11.4-2.66.16,0,.31.08.47.16.86.55,2.58,3.59,2.66,4.69-.7-.31-.94-1.17-1.72-1.41-.16.39.23.55.39.78,1.09,1.56,2.19,3.12,2.66,5.08.08.31.47.86-.08.94-.47.16-.7-.39-.86-.78-.62-2.5-1.87-4.53-4.06-5.86-.16-.08-.31-.16-.55-.31,0,.47.31.62.47.78,1.33,1.41,2.58,2.97,3.12,4.84.08.23.39.47,0,.7-.23.16-.55-.08-.7-.31-.23-.31-.39-.62-.55-.94-.78-1.56-1.87-2.89-3.28-3.9-.39-.31-.78-.55-1.48-.47,1.56,1.48,3.28,2.81,4.14,4.84-.7.08-1.17-.16-1.48-.7-1.02-1.8-2.34-3.12-4.45-3.67h-.62c1.87,1.17,3.36,2.34,4.37,4.14-.62.23-.94.16-1.33-.39-1.17-1.41-2.66-2.5-4.69-2.89.31.47.62.62.94.78.86.55,1.72,1.09,2.42,1.87.23.23.7.55.39.86-.31.39-.86.39-1.25-.16-.7-.86-1.72-1.48-2.81-1.87-.39-.16-.78-.23-1.17-.23.7.55,1.56.94,2.19,1.48.31.23.55.47.86.78.16.23.62.39.31.78-.31.31-.62.23-.94-.08-.7-.7-1.56-1.25-2.58-1.64-.39-.16-.78-.31-1.41-.16.62.39,1.25.7,1.8,1.02.47.31.94.62,1.33,1.09.16.16.39.39.16.62s-.47.16-.7,0c-.7-.47-1.48-.86-2.34-1.25-.47-.16-.94-.31-1.56-.31,1.09.62,2.03,1.17,2.97,1.8.23.16.62.31.39.7s-.55.16-.78-.08c-1.09-.7-2.26-1.25-3.67-1.02.7.39,1.56.55,2.26,1.02.31.23.62.39.94.62.23.16.39.39.23.7-.16.23-.39.16-.62.08-.7-.23-1.41-.39-2.11-.55-.55-.16-1.09-.16-1.64.16.78.23,1.56.39,2.34.62.47.16,1.33.16,1.17.78s-.86.08-1.33,0c-.94-.16-1.95-.55-2.97,0,.7.39,1.41.31,2.03.55.47.16.86.23,1.33.39.23.08.62.16.47.62-.16.39-.39.31-.7.23-.55-.16-1.09-.31-1.72-.39-.7-.16-1.41-.08-2.26.31.78.31,1.48.16,2.11.31.62.08,1.25.16,1.72.47.23.16.47.31.39.62-.16.31-.39.23-.7.16-1.02-.23-2.03-.39-3.12-.16-.23.08-.47.16-.62.39.86.08,1.72.16,2.58.31.31.08.7.16,1.02.23.23.08.62.23.55.55-.08.39-.47.39-.78.31-1.09-.31-2.26-.31-3.36.08-.16.08-.23.16-.55.31,1.17.16,2.19.23,3.28.31.31,0,.55.16.86.23.39.08.47.31.39.7s-.31.39-.62.31c-.78-.16-1.64-.23-2.42-.16-.39,0-.78.08-1.17.47.7.08,1.33.08,2.03.16.47.08.94.16,1.48.23.47.08.94.31.78.86s-.62.08-.94.08c-1.33-.23-2.66-.31-3.98.39,1.02.08,1.95-.08,2.97.16.31.08.55.16.86.23,1.25,0,1.41.16,1.41,1.56"/>
    <path class="st3" d="M63.98,161.47c2.89-2.89,5.62-5.7,9.06-7.81,3.12-1.87,6.48-3.12,10.23-2.58,3.12.47,6.09,1.33,8.67,3.2,1.64,1.17,2.81,2.73,2.5,4.84-.55,3.75-3.2,6.95-7.5,7.34-4.53.39-8.82-.78-13.04-2.34-2.73-1.02-5.47-1.95-8.36-2.5-.39-.08-1.02.08-1.56-.16M85.14,162.56c.94-.08,1.87-.31,2.73-.7,2.58-1.09,2.97-3.59.78-5.39-1.33-1.09-2.89-1.64-4.53-1.95-3.75-.7-7.03.55-10.07,2.66-1.25.86-2.26,2.03-3.59,2.73-.23.08-.55.16-.55.47.08.31.31.47.62.55.78.16,1.56.31,2.42.47,4.06.7,8.04,1.02,12.18,1.17"/>
    <path class="st3" d="M43.2,142.72c-.55-1.48-1.33-2.81-2.73-3.75-.47-.39-.94-.62-1.56-.62-.31,0-.78,0-.86-.31-.16-.39.31-.55.62-.7,1.64-1.02,3.2-2.19,4.37-3.67.86-1.09,1.72-2.11,2.5-3.28,1.48-2.34,3.28-4.37,5.15-6.4,1.02-1.09,2.42-1.64,3.83-2.03,3.44-1.02,6.87-1.17,10.39-.62,2.19.31,3.36,1.95,4.53,3.51.23.31.39.62.62.94.55.78.62,1.56.55,2.58-.16,1.09.08,2.19-.08,3.28-.39-.23-.31-.55-.31-.86,0-1.87-.23-3.75-1.09-5.54-.16-.39-.31-.78-1.02-.94.86,2.19,1.02,4.3,1.09,6.56-.7-.16-.94-.55-.94-1.25,0-1.48-.16-3.05-.7-4.45-.23-.55-.47-1.09-1.02-1.41-.31.16-.16.31-.08.47.7,1.56.7,3.2.86,4.84,0,.23.16.62-.16.62s-.47-.23-.55-.62c-.16-1.17-.23-2.34-.62-3.44-.31-.78-.55-1.72-1.41-2.19.55,1.56.94,3.2,1.02,4.84,0,.23.16.62-.23.62-.31,0-.78,0-.78-.55v-.31c-.16-1.41-.47-2.73-1.17-3.98-.08-.16-.23-.31-.31-.55-.16-.23-.31-.55-.62-.39s0,.47.08.7c.62,1.25.86,2.58,1.17,3.9.08.23.23.7-.23.78-.55.08-.55-.23-.55-.62-.23-1.48-.7-2.89-1.56-4.14-.23-.31-.39-.62-.86-.78-.16.39.08.7.31.94.7,1.17.94,2.58,1.25,3.9.08.23.23.62-.31.7-.47.08-.55-.16-.55-.55-.16-1.56-.94-2.81-1.87-3.98-.16-.23-.31-.55-.78-.39.78,1.17,1.25,2.5,1.64,3.83.08.23.16.47.16.7.08.31.08.62-.39.62-.31,0-.62.08-.7-.39-.23-1.17-.78-2.26-1.48-3.2-.16-.16-.31-.39-.47-.55s-.39-.39-.62-.16c-.23.16.08.39.16.55.7.94,1.09,2.03,1.41,3.05.08.31.31.78-.23.94-.47.16-.55-.31-.62-.62-.31-.86-.78-1.64-1.25-2.34-.23-.31-.47-.7-1.09-.78.47,1.02.94,1.95,1.33,2.89.16.47.78,1.09-.08,1.41-.78.23-.55-.62-.78-1.02-.31-.62-.62-1.25-1.09-1.72-.16-.16-.31-.55-.62-.23-.31.23,0,.47.16.62.47.7.86,1.48,1.09,2.34.08.16.08.39.08.62,0,.31-.16.47-.39.47-.31.08-.31-.23-.31-.39-.31-1.09-.94-2.03-1.72-2.73-.16-.08-.23-.23-.55-.16-.08.31.16.47.31.7.7.94,1.09,1.87,1.33,2.97.08.23.08.62-.16.7-.39.08-.31-.31-.39-.55-.47-1.09-1.09-2.03-2.11-2.81-.16.47.08.7.23.94.62,1.02,1.02,2.11,1.41,3.28.08.16.16.47-.08.55-.31.08-.31-.16-.39-.39-.47-1.02-1.25-1.87-2.03-2.58.47,1.02.94,2.11,1.33,3.2.08.23.16.47.23.7.08.31.16.78-.16.94-.31.08-.31-.39-.47-.62-.47-1.02-1.17-1.87-2.26-2.66.7,1.8,2.34,3.05,1.48,5.08-.47-1.41-1.33-2.5-2.58-3.36.7,1.17,1.17,2.5,1.64,3.75.08.23.16.47.16.7s-.16.39-.39.47c-.23,0-.23-.23-.31-.39-.47-1.25-1.33-2.26-2.34-3.05.47,1.17,1.02,2.26,1.48,3.44.16.31.31.7.23,1.09-.08.31-.23.47-.55.55-.23,0-.23-.31-.31-.47-.47-1.09-.94-2.11-1.8-2.97-.31-.31-.55-.55-1.17-.7,1.02,1.33,1.64,2.66,2.26,4.06.23.47.47,1.02-.23,1.48-.78-1.64-1.64-3.12-2.89-4.45-.23.39,0,.55.08.78.78,1.17,1.25,2.58,1.87,3.83,0,.08.08.16.08.23,0,.23.23.55-.16.7-.31.08-.39-.16-.47-.39-.55-.86-1.02-1.8-1.56-2.66-.23-.39-.39-.86-1.17-.94.94,1.09,1.41,2.34,1.87,3.51.08.16.16.31.23.47.08.39.31,1.02-.23,1.17-.47.16-.47-.47-.62-.78-.23-.08-.31-.08-.39-.16"/>
    <path class="st3" d="M13.84,66.97c.08-.47.08-1.02,0-1.48.08-.31.08-.55-.08-.86,0-.16-.08-.31-.08-.55,0-.16,0-.39-.16-.47-.31-1.02-1.25-1.56-2.11-2.03-.55-.47-1.25-.7-2.03-.86.08-.62.62-.62.94-.86,3.12-2.19,6.48-3.51,10.39-3.28,2.11.08,4.22.55,6.25,1.25.62.23,1.02.7,1.48,1.25,1.25,1.56,2.34,3.2,3.28,4.92.47.78-.16,3.36-.86,3.83-.08.08-.23.16-.31,0-.16-.16,0-.23.08-.39.47-1.09.47-2.19.47-3.36,0-.31,0-.62-.31-1.02-.16,1.02-.31,1.95-.55,2.81-.08.55-.23,1.09-.47,1.56-.08.23-.31.47-.55.39-.31-.08-.16-.39-.08-.62.39-1.33.62-2.66.47-4.06-.08-.55-.16-1.02-.7-1.64,0,.94.08,1.72.08,2.5,0,.94-.08,1.87-.47,2.73-.16.31-.31.7-.7.55-.31-.16-.16-.47-.08-.78.39-1.41.62-2.73.16-4.14-.23-.62-.39-1.17-.94-1.72-.23.23-.08.47,0,.7.47,1.64.39,3.28-.39,4.84-.08.16-.16.62-.55.47-.31-.16-.23-.47-.16-.7.31-1.56.31-3.2-.31-4.69-.16-.31-.23-.62-.62-.94.08.78.23,1.48.31,2.11.16.94.08,1.87-.08,2.81-.08.31-.08.78-.7.62-.55-.16-.39-.47-.31-.86.23-1.33.16-2.58-.23-3.9-.16-.47-.39-.86-.78-1.33-.16.78.08,1.33.16,1.95.16.94.16,1.87,0,2.81-.08.31-.08.78-.62.7-.47-.08-.47-.39-.47-.78.16-1.33.16-2.66-.62-3.9-.16-.31-.31-.55-.78-.7.16.86.39,1.72.55,2.5.16.7.16,1.41,0,2.11,0,0,0,.31-.31.31s-.31-.31-.31-.62c0-1.02-.08-2.03-.47-3.05-.23-.55-.47-1.09-1.17-1.48.39,1.25.78,2.34.78,3.51,0,.39,0,.78-.08,1.25,0,.31-.23.55-.55.47-.31,0-.39-.23-.39-.55,0-.86-.16-1.72-.39-2.58-.08-.23-.16-.47-.23-.62-.23-.47-.55-1.09-1.02-.94-.47.16.08.7.16,1.09.39,1.17.7,2.42.23,3.67-.39-.08-.39-.39-.39-.62-.16-.94-.39-1.8-.7-2.73-.16-.47-.39-.94-1.02-1.09.23,1.09.55,2.19.78,3.2.16.55.16,1.02.08,1.56-.08.23-.08.55-.39.47-.08.08-.08-.16-.08-.39-.23-1.17-.55-2.26-1.02-3.28-.16-.31-.23-.62-.62-.7-.16.47,0,.78.16,1.09.47.94.55,1.95.62,2.97.08.94-.16,1.8-1.02,2.34-.23-.08-.08-.31-.16-.47.08-.16.08-.23,0-.31"/>
    <path class="st3" d="M79.83,36.36c4.06-1.17,8.36-1.41,12.5-2.42.94-.23,1.95-.55,2.97-.86-1.02,1.72-1.95,3.44-2.34,5.31-.31,1.33-.47,2.58-.08,3.9.08.16.31.47-.08.55-.39.08-.47-.23-.47-.55,0-1.17-.16-2.34-.08-3.51.08-.62.08-1.25.16-1.87-.55.08-.62.47-.7.78-.47,1.56-1.17,3.05-.86,4.76.08.47-.23.55-.55.62-.39.08-.47-.23-.47-.62,0-1.48.16-2.97.47-4.45.08-.23.23-.55.08-.86-.23,0-.31.16-.39.31-.62,1.64-1.33,3.28-1.09,5.15.08.62-.39.47-.7.55-.47.08-.62-.16-.55-.55.08-1.41.39-2.81.62-4.22.08-.31.16-.62-.08-1.09-.7,1.33-1.25,2.66-1.41,4.06-.08.47-.08.94-.08,1.41,0,.23.08.62-.23.62-.39,0-.31-.39-.31-.7,0-1.17.08-2.26.31-3.36,0-.16.16-.31,0-.55-.47.08-.47.47-.55.78-.47,1.09-.62,2.26-.7,3.51,0,.39-.08.55-.47.55s-.39-.23-.39-.55c.08-.94.08-1.87.16-2.81,0-.31.16-.7,0-1.09-.55.47-.62,1.09-.7,1.64-.16.78-.23,1.64-.31,2.42-.08.31-.08.7-.47.7-.55,0-.31-.47-.31-.7.08-1.33.16-2.73.39-4.06-.62.16-.62.62-.7.94-.39,1.17-.62,2.42-.55,3.67,0,.39,0,.62-.47.62-.55,0-.39-.39-.39-.7.08-1.25.23-2.5.31-3.75,0-.23.16-.62-.16-.7-.31-.08-.31.39-.39.62-.31,1.33-.7,2.73-.62,4.14,0,.39-.08.78-.55.7-.39,0-.31-.39-.31-.7,0-1.17.08-2.42.31-3.59.08-.31.23-.62.08-1.09-.55.39-.7,1.09-.86,1.64-.39,1.17-.62,2.42-.55,3.67,0,.47-.08.78-.55.78-.62,0-.31-.55-.31-.78.08-1.41.23-2.73.31-4.22-.62.94-.86,1.95-1.02,3.05-.08.62-.16,1.33-.08,2.03,0,.23.08.47-.16.62-.16.16-.39.39-.55.31-.31-.08-.16-.39-.16-.55,0-1.25.16-2.42.23-3.67,0-.16.16-.47-.16-.47-.31-.08-.31.23-.31.39-.47,1.41-.62,2.81-.7,4.3v.31c0,.47-.39.62-.7.62-.39,0-.23-.39-.23-.62v-3.44c0-.31.08-.55-.16-.94-.47.47-.55,1.09-.55,1.64-.08,1.09-.23,2.26.08,3.36.16.62-.31.86-.7,1.02s-.31-.23-.31-.39c-.08-1.25-.08-2.5-.16-3.75,0-.31-.08-.62-.16-.94-.47.86-.55,1.87-.62,2.81,0,.78.08,1.56.08,2.34,0,.23.16.55-.08.78-.16.16-.31.31-.47.31-.23,0-.23-.31-.23-.47-.08-1.33-.08-2.66-.23-3.98-.55.47-.47,1.09-.55,1.64-.08.86-.16,1.72,0,2.5.08.23.08.55.08.78,0,.55-.47.86-.94.94-.55.08-.39-.55-.39-.78-.16-1.41-.23-2.81-.39-4.14,0-.23.08-.47-.23-.7-.55.62-.31,1.41-.39,2.03-.08,1.41-.16,2.81.39,4.14.23.47-.23.55-.55.78-.39-1.72-.55-3.36-.62-5-.31-.08-.47.08-.47.31-.23,1.64-.55,3.28.16,4.92q0,.08.08.16c.23.39,0,.7-.31.78s-.39-.31-.39-.55c-.39-1.41-.7-2.73-.86-4.22-.47.08-.47.39-.47.7,0,1.41-.08,2.73.62,3.98.39.78.08,1.25-.39,1.72h-.16c-.7-1.56-.86-3.36-1.25-5-.31.16-.31.31-.31.39.08,1.56,0,3.2.7,4.69.16.31.39.7.08,1.02-.23.08-.39.39-.7.31-.62-1.48-.94-3.05-1.33-4.61-.31.23-.31.47-.31.7-.23,1.8.31,3.36,1.17,4.92-.39.31-.31.94-.86,1.09-.7-1.48-1.17-2.97-1.33-4.69-.39.39-.31.78-.39,1.09-.16,1.8.39,3.36,1.25,4.84-.23.23-.23.62-.62.7-.94-1.33-1.33-2.97-2.03-4.37.08,1.72.16,3.44,1.33,4.84.08,0,.08.08.16.08.08.08.16.08.16.16s.08.16.08.16c-.08.16-.16.31-.23.55-.08.08-.23.16-.31.16-1.25-1.48-1.64-3.36-2.5-5.08.16,2.26.86,4.3,2.19,6.17h0c-.08.08-.08.23-.16.31s-.23.23-.39.23c-.94-1.17-1.72-2.42-2.19-3.9-.08,1.41.55,2.58,1.09,3.75.23.55.78,1.02.7,1.72-.08.16-.16.39-.39.39-.23-.39-.55-.78-.78-1.17-.16-.31-.31-.7-.55-.94-.78-1.02-.78-2.19-.86-3.36v-.86c0-.31,0-.62-.08-.94.08-.62.08-1.25-.16-1.87,0-.62-.08-1.17-.16-1.8-.16-.78.31-1.41.78-2.03,4.92-6.79,11.25-11.79,18.98-15.07.08,0,.08-.08.16-.08s.23-.08.39-.08c.08,0,.16-.08.16-.08h0c.47-.08.94-.16,1.41-.47.47-.16.94-.31,1.41-.39.47-.08.86-.16,1.25-.39-.55.23-.39.23-.31.16"/>
    <path class="st3" d="M62.1,78.68c-.86-1.41-1.87-2.73-2.34-4.37-.08-.31-.16-.7-.31-1.25-.31.7-.23,1.17-.08,1.64.47,1.8,1.17,3.44,2.26,4.92.31.47.39.86.08,1.48-1.48-2.03-2.66-3.98-3.05-6.64-.55.94-.39,1.64-.16,2.26.7,1.8,1.41,3.67,2.81,5.08.47.47.16.94.16,1.48-.55-.23-.7-.86-1.25-1.09-.94-.78-1.33-1.87-1.64-3.05-.39-1.33-.62-2.66-1.09-3.98-.31-1.02-.08-1.95.31-2.81,2.58-5.78,6.79-10,12.42-12.81.78-.39,1.56-.78,2.34-1.09.16,0,.23-.08.31-.16.16,0,.23-.08.39-.08.08,0,.08-.08.16-.08.39-.08.78-.23,1.25-.31.08,0,.08-.08.16-.08.7-.16,1.41-.31,2.11-.47.23,0,.47,0,.7-.16.08,0,.23,0,.31-.08.31,0,.62.08.86-.16.31,0,.7-.08,1.02-.08s.62,0,.94-.16c.47,0,.94-.08,1.41-.08,1.48-.08,2.97,0,4.37-.31.7-.08,1.41-.08,2.11-.16.23,0,.47,0,.7-.16h.31c.39,0,.86.08,1.25-.23.16,0,.31-.08.55-.08.08,0,.16-.08.23-.08.23,0,.47-.08.62-.23.62-.08.47.31.31.62-.55,1.17-.86,2.34-1.02,3.59-.23,2.26.23,4.3,1.95,5.94-.31.31-.62.08-.86.16-.39-.16-.62-.47-.86-.7-.62-1.56-.7-3.28-.94-5-.39.16-.39.47-.39.7-.08,1.33-.23,2.58.08,3.9.08.23.39.55-.08.7-.16-.16-.31-.23-.39-.39-.39-1.64-.62-3.28-.78-5.08-.39.39-.39.7-.39,1.09-.16,1.41.23,2.81.16,4.22-.23,0-.39,0-.55-.16-.62-1.41-.16-2.89-.7-4.3-.47.78-.31,1.64-.39,2.5,0,.62.23,1.25-.16,1.87-.16-.08-.31-.08-.55-.16-.39-1.33-.31-2.81-.62-4.14-.62,1.33-.39,2.81-.55,4.22h-.7c-.47-1.48-.23-3.05-.47-4.61-.47.39-.47.94-.55,1.33-.23,1.09,0,2.26-.47,3.28h-.16c-.47-1.41-.23-2.89-.47-4.37-.39.23-.39.55-.47.86-.16.86-.08,1.72-.08,2.58,0,.31.16.78-.47.86-.62,0-.47-.47-.47-.78-.08-1.17-.08-2.34-.16-3.59-.55.16-.55.47-.62.78-.16,1.02-.16,2.11-.23,3.12,0,.31.16.7-.31.78-.08,0-.16,0-.16-.08-.55-1.33-.39-2.73-.55-4.14-.47.16-.47.47-.55.78-.08.78,0,1.56,0,2.34,0,.39.16.86-.16,1.25-.16-.08-.31-.16-.47-.23-.31-1.17-.47-2.34-.55-3.51,0-.16.08-.47-.16-.55-.31-.08-.31.31-.31.47-.16,1.02-.08,2.03,0,3.05,0,.39.08.86-.55.86-.08,0-.08-.08-.16-.08-.16-1.25-.31-2.5-.55-3.75,0-.16.08-.47-.16-.47s-.31.23-.31.47c-.23,1.17-.16,2.34,0,3.51.08.55,0,.78-.55.78,0-.08-.08-.08-.16-.08-.39-1.41-.47-2.89-.62-4.45-.39.23-.39.47-.47.7-.16,1.25-.23,2.42.08,3.67.08.39.16.7-.31.94h-.16c-.78-1.48-.94-3.05-1.17-4.76-.47.31-.47.78-.39,1.17,0,1.17.16,2.34.39,3.44.08.31.16.55-.08.78h-.31c-.94-1.41-1.02-3.05-1.41-4.61-.39.31-.31.62-.31.86,0,1.17.23,2.42.7,3.51.23.62.08.94-.39,1.17h-.16c-.78-.86-.94-2.03-1.33-3.05-.16-.39-.16-.86-.62-1.17-.23.31-.08.62-.08.86.23,1.17.55,2.26,1.02,3.36.16.31.23.55-.08.78-.39.23-.55,0-.7-.23-.47-.55-.7-1.17-1.02-1.8-.39-.7-.55-1.56-.86-2.5-.31.7-.23,1.17-.08,1.64.39,1.17.78,2.26,1.33,3.28.23.39.31.7-.31.86,0-.08-.08-.08-.08-.08-1.02-1.33-1.72-2.81-2.26-4.37-.08.55-.08,1.02.08,1.56.31,1.09.7,2.19,1.25,3.12.16.31.47.7.08,1.02-.55.31-.55-.31-.7-.62-.7-1.02-1.09-2.19-1.48-3.44-.08-.16-.08-.39-.39-.39-.23.86.08,1.72.39,2.5.39.86.78,1.72,1.25,2.58.16.39.08.78-.16.94-.39.23-.47-.23-.62-.39-.62-1.17-1.33-2.26-1.64-3.59-.08-.23-.08-.62-.47-.78-.08.39-.08.7-.08,1.02.16,1.56.86,2.89,1.72,4.14.31.55.31.86,0,1.33h-.16c-1.17-1.41-1.95-3.05-2.5-4.76-.23.47-.16.94,0,1.41.39,1.33,1.02,2.5,1.72,3.67.16.31.47.55.39.94-.08.31-.08.62-.39.78s-.47-.23-.62-.47c-.78-1.25-1.56-2.5-1.95-3.98-.08-.23-.08-.55-.39-.62-.16.23-.08.47-.08.62.39,1.8,1.02,3.51,2.11,5,.39.47.47.94.23,1.41-.16,0-.31,0-.47-.08"/>
    <path class="st3" d="M69.76,104.69c-.16-.47-.23-.86,0-1.33,1.8-4.84,4.92-8.67,9.14-11.64,2.58-1.87,5-3.9,6.87-6.56.55-.78.86-1.64,1.33-2.58.31,1.33.47,2.58.94,3.75.62,1.41,1.25,2.81,2.66,3.75.23.16.39.31.23.55-.16.23-.39.16-.62,0-1.02-.55-1.8-1.41-2.66-2.19-.23-.23-.31-.55-.78-.55.31,1.09,1.09,1.87,1.8,2.66.39.39.78.78,1.25,1.09.31.23.31.55.08.86-.23.39-.47.16-.7,0-.94-.7-1.95-1.41-2.66-2.34-.23-.31-.39-.62-.94-.62.39,1.09,1.17,1.87,1.8,2.73.39.47.78.86,1.17,1.25.31.31.39.55.08.86s-.55.31-.86.08c-1.09-.86-2.19-1.8-2.89-2.97-.08-.16-.16-.23-.39-.23-.08.55.16.94.47,1.41.55.94,1.25,1.64,1.95,2.42.16.16.7.31.31.7-.31.39-.62.23-.94-.08-1.09-.94-2.19-1.87-3.05-3.05,0,.7.16,1.17.7,1.87.47.62,1.02,1.25,1.56,1.87.16.23.55.39.16.7-.31.23-.55.55-.94.16-.86-.78-1.8-1.56-2.42-2.66-.16-.31-.31-.62-.78-.7-.08.7.23,1.17.62,1.64.55.7,1.09,1.33,1.72,1.95.16.23.62.39.23.78-.31.31-.7.39-1.02,0-.78-.86-1.72-1.64-2.34-2.66-.16-.23-.31-.47-.62-.86-.16.7.08,1.09.31,1.48.55.94,1.09,1.8,1.8,2.58.23.31.47.55.08.86-.31.31-.55,0-.78-.16-1.17-1.09-2.26-2.19-2.97-3.83-.39.62-.08,1.09.16,1.48.55,1.09,1.25,2.11,2.11,2.97.23.31.55.55.16.94-.39.47-.7.08-.94-.16-.86-.86-1.72-1.72-2.34-2.81-.16-.31-.31-.78-.78-.94-.23.47.08.94.23,1.25.55,1.17,1.25,2.26,2.19,3.12.47.39.47.78,0,1.17s-.62-.16-.86-.39c-.94-1.02-1.8-2.11-2.58-3.51-.08,1.02.31,1.56.62,2.11.55.86,1.09,1.72,1.8,2.42.23.23.39.39.23.78-.23.47-.47.7-.86.16-.7-.94-1.41-1.8-2.03-2.73-.16-.31-.31-.7-.7-.94-.23.39-.08.7.08,1.02.55,1.25,1.41,2.34,2.26,3.36.16.16.23.31.39.47.31.31.08.55-.16.78-.23.31-.39,0-.55-.16-1.09-1.09-2.11-2.26-2.73-3.75-.16.62-.23.62,0,1.17.55,1.25,1.41,2.26,2.19,3.36.16.16.31.39.47.55.31.31.16.62-.08.86-.23.23-.39-.08-.55-.23-1.25-1.09-2.5-2.26-3.05-3.98-.23.62-.16,1.25.31,2.11.62,1.02,1.33,2.03,2.26,2.81.23.23.47.47.39.78-.08.23-.08.55-.23.62-.23.16-.39-.16-.55-.31-1.25-1.25-2.5-2.5-2.97-4.37-.23.7-.23.86.16,1.64.7,1.41,1.64,2.66,2.66,3.83.39.47.55.94,0,1.33-1.87-2.42-3.75-4.92-5.23-7.65-.23.08-.23-.08-.39-.16h0Z"/>
    <path class="st3" d="M93.19,112.89c-.39-.16-.78-.39-1.25-.55-1.09-.94-2.19-1.72-3.12-3.05-.08.7.16,1.09.47,1.56.7,1.02,1.48,1.95,2.5,2.66.31.23.55.47.16.78-.39-.16-.78-.31-1.17-.47-1.33-.86-2.26-2.11-3.44-3.28-.16.62.16.94.31,1.25.78,1.17,1.72,2.19,2.89,3.05.31.23.55.39.23.78-.23.16-.39.23-.62.39-1.48-1.09-2.89-2.34-3.98-3.9-.08.23,0,.31,0,.47.62,1.56,1.72,2.66,2.97,3.67.39.31.7.62.31,1.17h0c-.08.08-.08.16-.16.16h0c-.23,0-.39,0-.55-.16-1.17-.94-2.42-1.95-3.2-3.28-.08-.16-.16-.47-.55-.39-.08.47.16.86.39,1.25.78,1.09,1.72,2.11,2.73,3.05.39.39.55.7.31,1.17h0c-.08.08-.08.16-.16.16-.08.08-.16.08-.16.16-1.64-1.09-2.97-2.58-4.3-4.37v.55c.08.16.16.39.23.55.78,1.41,1.72,2.73,3.12,3.59.47.31.55.62.23,1.09-.16-.08-.31-.08-.47-.16-1.41-1.17-2.81-2.34-3.75-4.14-.23.55,0,.86.16,1.09.86,1.41,1.8,2.66,2.97,3.83.31.31.62.62.55,1.09l-.39.39c-1.64-1.33-2.73-3.2-4.22-4.92-.08.62.16,1.02.39,1.41.86,1.48,1.95,2.89,3.12,4.14.23.23.47.47.39.78-.16.16-.16.47-.39.55-1.33-1.56-2.81-3.12-4.06-4.84.7,2.26,1.95,4.14,3.67,5.7h0c.16.16.23.31.39.55v.47c-.08.08-.08.16-.16.23-2.34-1.95-3.98-4.37-5.54-6.95-.94-1.56-.7-2.81.23-4.3,1.95-3.05,4.53-5.62,7.03-8.2,1.02-1.02,1.87-2.11,2.81-3.28.39.86.62,1.56.94,2.34l.16.31c0,.08.08.16.08.16,0,.08.08.08.08.16.08.16.16.31.31.55,0,.08.08.08.08.16s.08.16.08.16c0,.08.08.08.08.16.08.31.23.47.39.7.62.86,1.48,1.33,2.5,1.64h0c.08.08.16.08.16.16h0q0,.08.08.16c-.16.16-.23.31-.39.39-.31,0-.62,0-.94-.16-1.17-.7-2.26-1.48-3.12-2.58-.23-.23-.39-.62-1.02-.7.7,1.72,1.87,2.89,3.36,3.83.23.16.7.16.62.47.31.55,0,.62-.39.62"/>
    <path class="st3" d="M82.1,155.22c1.56-.08,3.05.16,4.53.7.86.31,1.48.86,2.03,1.48.7.86.55,2.03-.31,2.81-.86.78-1.95,1.17-3.12,1.25-3.67.16-7.34-.23-10.93-.86-.39-.08-.86-.16-1.25-.23-.23-.08-.55.16-.62-.16-.08-.23.16-.39.31-.55,2.58-2.66,5.62-4.22,9.37-4.45M75.38,159.51c.7.08,1.41.08,2.03.16,2.19.31,4.37.78,6.56.47.62-.08,1.17-.23,1.72-.55.94-.62.94-1.64-.08-2.26-.94-.55-1.95-.62-2.97-.47-2.5.39-4.92,1.41-7.26,2.66"/>
    <path class="st4" d="M36.18,137.88c.94-.94,2.11-1.48,3.12-2.34,2.19-1.8,4.06-3.9,5.78-6.25,1.48-2.11,2.81-4.3,4.84-5.94,3.2-2.58,6.95-3.44,10.93-3.36.47,0,1.02.16,1.09-.39s-.16-1.17-.78-1.25c-.86-.16-1.8-.31-2.66-.47-4.92-.62-9.37.55-13.67,2.81-2.73,1.41-5.62,2.03-8.67,2.42-5.15.62-10.23.31-15.38-.55-1.33-.23-2.73-.16-4.06-.08-.31,0-.7.08-1.02-.16,1.41-.39,2.34-1.17,2.66-2.58.08-.31.23-.47.55-.47.08.47-.08.86-.16,1.33,0,.23-.31.62.23.7.47.08.7-.16.78-.55.16-1.56.31-3.05-.08-4.61-.08-.31-.16-.7,0-1.09.47.08.55.47.55.78.16.7.23,1.48.31,2.26.08.94.08,1.87-.08,2.81,0,.31,0,.55.39.55.31.08.47-.16.55-.39s.08-.55.08-.78c0-1.17-.08-2.26-.08-3.44,0-.31-.16-.62.31-.86.31.31.39.78.39,1.17.16,1.25.31,2.5.31,3.83,0,.23-.08.62.31.7.47.08.39-.39.47-.7.08-1.25.16-2.58.23-3.83.31.47.47,1.02.47,1.56.08.86.16,1.72.08,2.58,0,.31.08.55.39.55.39,0,.39-.23.47-.55v-.55c.23-1.02,0-2.11.23-3.2.47.16.47.47.47.78.16,1.02.23,1.95.16,2.97,0,.31,0,.7.39.7.47.08.62-.23.62-.62.08-.94.16-1.87.23-2.81,0-.23-.08-.7.31-.7.31,0,.23.39.23.7,0,1.02,0,2.03.08,3.05,0,.23,0,.47.31.55.31,0,.55-.08.55-.39.08-.39.08-.86.16-1.33.08-.7.16-1.41.23-2.19.31.16.23.39.31.55.16.94.23,1.87.08,2.89-.08.31,0,.55.31.55.31.08.39-.23.39-.47.08-.39.16-.86.16-1.33.08-.62.16-1.33.31-1.95.39.94.39,1.8.31,2.66,0,.39-.23,1.02.39,1.02.55,0,.62-.55.62-1.02,0-.39,0-.78.08-1.09.08-.55-.16-1.17.31-1.72.08.16.23.16.23.31.31.86.23,1.72.23,2.58,0,.31-.16.78.39.78s.55-.47.55-.86v-2.11c0-.23,0-.55.23-.55.31,0,.31.31.31.55.08.78.08,1.48.16,2.26,0,.23-.16.7.31.7.39,0,.55-.31.55-.62.08-.7.08-1.33.08-2.03,0-.39,0-.78.39-1.02.16.94.23,1.87.23,2.89,0,.23,0,.55.31.55s.47-.16.55-.47c.16-.55.08-1.02.08-1.56,0-.62-.08-1.25.31-1.95.47.94.39,1.87.39,2.73,0,.31-.23.7.23.78s.55-.47.62-.78c.08-.78.16-1.64.08-2.42,0-.23-.23-.7.16-.7.39-.08.31.47.39.7.23.78.08,1.48.08,2.26,0,.23-.23.62.23.62.39.08.55-.23.55-.62.08-1.02.16-1.95.08-2.97,0-.31-.16-.62.23-.86.31.23.39.62.39.94.08.78.08,1.64.16,2.42,0,.23-.31.7.23.78.47,0,.7-.31.78-.78.08-1.09.08-2.19-.08-3.28,0-.31-.08-.7.08-1.02.39.23.47.62.62.94.23.94.23,1.95.16,2.97,0,.23-.23.47.16.62.23.08.47-.08.62-.16.23-.16.23-.47.31-.7.16-1.25.08-2.42,0-3.67,0-.31-.16-.7.31-1.02.7,1.64.78,3.28.55,5,.62-.08.94-.31.94-.86,0-1.25.08-2.58,0-3.83,0-.23-.08-.47.16-.62.39.23.47.7.47,1.02.16.94.16,1.87.08,2.89,0,.23-.31.62.16.7.47.08.55-.31.62-.62.16-1.09.31-2.11.16-3.2-.08-.47-.16-1.02.23-1.48.39.31.39.7.39,1.09.16,1.02.23,2.11-.08,3.12-.08.16-.16.31,0,.47.16.16.39,0,.55-.08.23-.16.31-.39.31-.7.16-1.25.31-2.58.23-3.83,0-.23-.16-.55.16-.62s.31.31.39.55c.23,1.09.16,2.26.08,3.36,0,.23-.16.55.23.55.31,0,.55-.16.55-.39,0-.16.08-.31.08-.47.08-1.17.16-2.34.23-3.59,0-.23-.16-.55.23-.55.31,0,.31.31.39.47.23,1.09.31,2.11.08,3.2-.08.23-.31.7.16.78s.62-.23.7-.7c.08-1.17.31-2.34.23-3.59,0-.23-.08-.55.23-.62s.39.31.47.55c.31,1.09.16,2.11,0,3.2-.08.31-.47.78.23.94.55.08.62-.39.7-.78.23-1.09.31-2.19.31-3.28,0-.23-.16-.55.16-.62.31-.08.31.31.39.55.31,1.09.31,2.11.08,3.2-.08.23-.39.62.16.7.55.08.7-.23.7-.62.08-1.09.39-2.11.23-3.2,0-.31-.08-.55.23-.78.31.31.39.7.39,1.02.08,1.02.08,2.03-.16,3.05-.08.23-.08.39.23.47.23,0,.31-.08.39-.23.08-.23.16-.47.23-.78.16-.86.23-1.64.23-2.5,0-.16-.08-.39.16-.47.23-.08.31.16.39.39s.16.47.16.7c.08.78,0,1.56-.23,2.34-.08.23-.31.55,0,.7.31.08.31-.31.39-.55.23-.78.16-1.64.47-2.5.16-.39-.08-.62-.39-.94-.78-.78-1.64-1.56-2.42-2.42-.94-1.09-2.26-1.41-3.59-1.41-1.02,0-2.03.16-3.05.39-3.51.78-6.87,2.11-10.23,3.2-4.92,1.64-9.92,2.26-15.07,1.56-2.81-.39-5.47-1.09-7.89-2.5h0c0-.16-.16-.16-.23-.16-.08-.31-.55-.62-.16-1.09,3.51,1.87,7.26,2.81,11.17,2.89,4.53.16,8.98-.55,13.28-2.03,2.73-.94,5.31-2.19,8.12-2.97,1.33-.31,2.58-.78,3.98-.62.16,0,.31,0,.39-.16s-.08-.23-.16-.39c-3.12-3.12-4.84-7.11-6.64-11.09-1.02-2.26-1.64-4.69-2.58-6.95-.86-2.11-1.8-4.14-2.89-6.09-.31-.55-.7-.94-1.17-1.25-2.19-1.48-4.45-2.66-7.11-3.12-3.44-.55-6.48,1.48-7.89,4.06-1.02,1.87-1.48,3.83-1.48,6.01-.08,1.8.16,3.59-.16,5.39-.39-.08-.7-.16-.86-.47,0-1.33-.16-1.56-1.33-1.95-.31-.08-.55-.16-.86-.23-.94-.23-1.95-.08-2.97-.16,1.25-.62,2.66-.55,3.98-.39.31.08.78.55.94-.08.16-.55-.31-.78-.78-.86s-.94-.23-1.48-.23c-.62-.08-1.25-.08-2.03-.16.39-.39.78-.47,1.17-.47.78-.08,1.64,0,2.42.16.31.08.55.08.62-.31.08-.31,0-.55-.39-.7-.31-.08-.55-.23-.86-.23-1.02-.16-2.03-.23-3.28-.31.31-.16.39-.23.55-.31,1.09-.39,2.26-.31,3.36-.08.31.08.7.08.78-.31s-.23-.47-.55-.55c-.31-.16-.7-.23-1.02-.23-.86-.08-1.64-.16-2.58-.31.16-.23.39-.31.62-.39,1.02-.23,2.11-.08,3.12.16.23.08.55.16.7-.16.16-.31-.16-.47-.39-.62-.55-.31-1.17-.31-1.72-.47-.7-.16-1.41,0-2.11-.31.78-.31,1.48-.47,2.26-.31.55.16,1.17.23,1.72.39.31.08.55.16.7-.23.16-.39-.16-.55-.47-.62-.47-.16-.86-.23-1.33-.39-.62-.23-1.41-.16-2.03-.55,1.02-.47,2.03-.08,2.97,0,.47.08,1.17.62,1.33,0s-.7-.62-1.17-.78c-.78-.23-1.56-.39-2.34-.62.55-.23,1.09-.31,1.64-.16.7.16,1.41.39,2.11.55.23.08.47.16.62-.08.16-.31,0-.47-.23-.7-.31-.23-.62-.47-.94-.62-.7-.47-1.48-.62-2.26-1.02,1.33-.16,2.5.31,3.67,1.02.23.16.55.47.78.08.31-.39-.16-.55-.39-.7-.94-.62-1.95-1.17-2.97-1.8.62,0,1.09.16,1.56.31.78.31,1.56.78,2.34,1.25.23.16.47.23.7,0,.23-.31,0-.47-.16-.62-.39-.47-.86-.78-1.33-1.09-.55-.31-1.09-.62-1.8-1.02.62-.16,1.02.08,1.41.16,1.02.31,1.8.94,2.58,1.64.31.31.62.39.94.08.39-.39-.08-.55-.31-.78-.23-.31-.55-.55-.86-.78-.7-.62-1.56-.94-2.19-1.48.39,0,.78.16,1.17.23,1.09.39,2.03,1.02,2.81,1.87.39.55.94.55,1.25.16.31-.39-.16-.62-.39-.86-.7-.78-1.56-1.33-2.42-1.87-.31-.16-.62-.31-.94-.78,2.11.39,3.51,1.48,4.69,2.89.39.47.78.62,1.33.39-1.02-1.72-2.58-2.89-4.37-4.14h.62c2.03.55,3.44,1.87,4.45,3.67.31.62.78.78,1.48.7-.62-1.48-2.34-2.81-3.9-4.3.7-.08,1.09.23,1.48.47,1.41,1.02,2.5,2.34,3.28,3.9.16.31.31.7.55.94.16.23.39.39.7.31.39-.16.08-.47,0-.7-.62-1.95-1.8-3.44-3.12-4.84-.16-.23-.55-.39-.47-.78.23.16.39.16.55.31,2.19,1.41,3.44,3.36,4.06,5.86.08.47.39.94.86.78s.16-.62.08-.94c-.47-1.87-1.56-3.51-2.66-5.08-.16-.23-.55-.39-.39-.78.78.23.94,1.17,1.72,1.41-.16-1.09-1.87-4.06-2.66-4.69-.16-.08-.31-.16-.47-.16-4.22-.7-8.12,0-11.4,2.66-3.05,2.5-4.69,5.86-5.86,9.53-1.17,3.75-1.64,7.58-1.72,11.4,0,.39-.16.86.16,1.09.39.16.78-.16,1.09-.31,1.48-.86,2.97-1.25,4.61-.47-1.64-.16-3.2.08-4.61,1.02-.47.31-1.02.31-1.48.08-.39-.23-.78-.16-1.17-.16.55-2.42.55-4.92.94-7.34.55-4.37,1.8-8.51,4.3-12.1,1.95-2.89,4.53-5,7.97-5.94.16-.08.31-.08.47-.16.16-.08.31-.23.47-.31-2.97-2.19-7.73-3.12-11.01-1.25-.78.47-1.33,1.17-2.11,1.48,0-.16,0-.39-.08-.55.86-.55,1.02-1.41,1.02-2.34-.08-1.02-.16-2.03-.62-2.97-.16-.31-.39-.7-.16-1.09.31.16.47.47.62.7.55,1.02.78,2.19,1.02,3.28.08.23,0,.47.23.47.31,0,.31-.31.39-.47.08-.55.08-1.02-.08-1.56-.23-1.09-.47-2.11-.78-3.2.62.16.86.62,1.02,1.09.31.86.55,1.8.7,2.73,0,.23,0,.55.39.62.47-1.25.16-2.42-.23-3.67-.16-.39-.62-.94-.16-1.09.39-.16.78.47,1.02.94.08.23.16.47.23.62.23.86.31,1.72.39,2.58,0,.23.08.47.39.55.31,0,.47-.23.55-.47.08-.39.08-.78.08-1.25,0-1.17-.47-2.26-.78-3.51.7.39.94.94,1.17,1.48.31.94.47,1.95.47,3.05,0,.23,0,.62.31.62s.39-.31.39-.55c.16-.7.16-1.41,0-2.11-.16-.78-.31-1.56-.55-2.5.47.16.62.47.78.7.7,1.25.7,2.58.62,3.9,0,.47-.08.7.47.78s.62-.39.62-.7c.16-.94.16-1.87,0-2.81-.08-.55-.31-1.17-.16-1.95.39.47.62.86.78,1.33.47,1.25.47,2.58.23,3.9-.08.31-.23.7.31.78.62.16.62-.31.7-.62.16-.94.23-1.87.08-2.81-.08-.62-.16-1.33-.31-2.11.47.31.55.62.62.94.62,1.56.62,3.12.31,4.69-.08.23-.16.55.16.7.39.16.39-.23.55-.47.78-1.56.86-3.2.39-4.84-.08-.23-.23-.39,0-.7.55.55.7,1.09.94,1.72.47,1.41.16,2.81-.16,4.14-.08.31-.23.62.08.78.39.16.55-.23.7-.55.39-.86.55-1.8.47-2.73,0-.78-.08-1.48-.08-2.42.55.62.62,1.09.7,1.64.16,1.41-.08,2.73-.47,4.06-.08.23-.23.47.08.62.23.08.39-.16.55-.39.23-.47.39-1.02.47-1.56.16-.94.31-1.8.55-2.81.39.39.31.7.31,1.02,0,1.17,0,2.26-.47,3.36-.08.16-.16.23-.08.39.08.08.23.08.31,0,.7-.55,1.33-3.05.86-3.83-1.02-1.72-2.03-3.36-3.28-4.92-.39-.47-.78-1.02-1.48-1.25-2.03-.7-4.14-1.09-6.25-1.25-3.83-.23-7.26,1.09-10.31,3.28-.31.23-.94.23-.94.86.78.16,1.41.39,2.03.86-.16,0-.31.08-.39,0-1.02-.39-2.03-.62-3.12-.23-.08,0-.23-.16-.39-.31,1.56-.94,2.81-2.34,4.37-3.2,3.05-1.72,6.33-2.5,9.76-2.19.39,0,1.09.31,1.25-.16.08-.39-.62-.55-1.02-.7-2.5-1.25-4.76-2.73-6.64-4.84.16-1.09.62-.23.78-.08,2.19,2.03,4.69,3.83,7.42,5.08.7.31,1.33.86,2.19.7h0c0,.47.31.31.62.31.7.08,1.48.23,2.03.78,2.89,2.66,5.31,5.62,6.25,9.61.23.86.39,1.8.94,2.5,2.19,3.12,3.44,6.56,4.45,10.15.31,1.17.7,2.19,1.41,3.2,2.03,2.89,3.36,6.17,4.45,9.53,1.33,4.06,2.97,7.89,5.47,11.32,1.25,1.8,2.5,3.59,4.14,5.15,1.25,1.17,2.73,2.03,3.83,3.28,1.8,2.19,3.12,4.69,3.98,7.34.23.62.55,1.02,1.25,1.09,1.25.23,2.66.55,3.59,1.41,3.51,2.97,5.39,6.72,5.15,11.4,0,.55.16,1.02.55,1.48.86.86,1.64,1.8,2.26,2.89,2.19,3.75,2.97,7.81,2.97,12.03,0,.62.16.7.7.7,5.23-.23,9.92,1.17,14.14,4.3.16.08.23.31.39.08.55-.08.62-.47.39-.86-.16-.31-.31-.55-.16-.86.23-.39,0-.62-.16-1.02-.31-.7,0-1.48-.39-2.19,0,0,.08-.16.16-.23.47-.47.23-.86-.08-1.17s-.47-.7-.7-1.09c0-.08,0-.16.08-.23.31-.16.7-.31.47-.7-.39-.62-.47-1.25-.55-1.95-.08-1.02-.7-1.95-.94-3.05-.23-.86-.7-1.72-1.17-2.42-.62-.86-.86-1.87-1.33-2.81-.31-.62-.31-1.33-.7-1.95-.16-.23.08-.47.31-.55,1.33,2.34,2.34,4.84,3.28,7.34,1.48,3.98,2.73,7.97,2.66,12.26,0,2.5.31,5-.16,7.42-.7,3.36-3.28,5.86-6.48,6.87-4.37,1.25-8.51.16-12.5-1.33-3.9-1.41-7.81-2.97-11.95-3.59-.39-.08-.78-.16-.94-.55-.16-.47.23-.7.55-1.02,1.72-1.64,3.36-3.44,5.15-5,2.26-1.95,4.61-3.75,7.58-4.69.78-.23,1.17-.78,1.09-1.56-.23-5.08-1.41-9.92-4.45-14.14-1.56-2.19-3.9-3.28-6.25-4.3-1.72-.78-3.59-1.09-5.47-1.09-2.89,0-5.47.94-7.34,3.28-.94,1.25-1.48,2.73-2.5,3.9-2.11,2.5-4.06,5.08-6.56,7.26-.55.47-.86,1.09-1.48,1.48-.47-.78-.23-1.72-.55-2.58-.08-.23-.08-.39.23-.47.08.08.08.16.16.23.16.31.23.94.7.78.47-.16.31-.7.23-1.17,0-.16-.16-.31-.23-.47-.47-1.25-.94-2.42-1.87-3.51.7.08.94.55,1.17.94.55.86,1.02,1.72,1.56,2.66.16.23.23.47.47.39.39-.08.16-.47.16-.7,0-.08,0-.16-.08-.23-.62-1.25-1.09-2.66-1.87-3.83-.08-.16-.39-.39-.08-.78,1.33,1.33,2.19,2.81,2.89,4.45.7-.39.47-.94.23-1.48-.62-1.33-1.25-2.73-2.26-4.06.62.16.86.39,1.17.7.86.86,1.33,1.87,1.8,2.97.08.16.08.47.31.47s.47-.23.55-.55c.08-.39-.08-.7-.23-1.09-.55-1.17-1.02-2.26-1.48-3.44,1.09.86,1.87,1.8,2.34,3.05.08.16.08.39.31.39s.39-.23.39-.47-.08-.47-.16-.7c-.47-1.25-.94-2.5-1.64-3.75,1.17.78,2.03,1.95,2.58,3.36.86-2.03-.78-3.36-1.48-5.08,1.09.78,1.8,1.64,2.26,2.66.08.23.08.7.47.62.39-.16.31-.62.16-.94-.08-.23-.16-.47-.23-.7-.39-1.09-.78-2.11-1.33-3.2.86.78,1.56,1.56,2.03,2.58.08.16.08.47.39.39.23-.08.16-.31.08-.55-.31-1.17-.78-2.26-1.41-3.28-.16-.23-.39-.47-.23-.94,1.02.78,1.64,1.72,2.11,2.81.08.23.08.62.39.55s.23-.47.16-.7c-.23-1.09-.7-2.11-1.33-2.97-.16-.23-.39-.39-.31-.7.23-.08.39.08.55.16.86.78,1.41,1.72,1.72,2.73.08.16,0,.47.31.39.23-.08.39-.23.39-.47s0-.39-.08-.62c-.31-.78-.62-1.64-1.09-2.34-.16-.16-.47-.39-.16-.62s.47.16.62.23c.47.47.78,1.09,1.09,1.72.23.39,0,1.25.78,1.02.86-.31.23-.94.08-1.41-.39-.94-.86-1.87-1.33-2.89.62.08.86.47,1.09.78.55.7.94,1.56,1.25,2.34.16.31.16.78.62.62.55-.16.31-.62.23-.94-.31-1.09-.7-2.19-1.41-3.05-.08-.16-.39-.31-.16-.55s.39,0,.62.16c.16.16.31.31.47.55.78.94,1.25,2.03,1.48,3.2.08.47.39.47.7.39.39,0,.47-.31.39-.62-.08-.23-.08-.47-.16-.7-.31-1.33-.86-2.66-1.64-3.83.47-.16.62.16.78.39.94,1.17,1.72,2.42,1.87,3.98.08.39.16.62.55.55.47-.08.31-.39.31-.7-.23-1.33-.47-2.66-1.25-3.9-.16-.31-.39-.55-.31-.94.39.08.62.47.86.78.86,1.25,1.33,2.66,1.56,4.14.08.39,0,.7.55.62.55-.08.31-.55.23-.78-.31-1.33-.47-2.66-1.17-3.9-.08-.23-.39-.55-.08-.7.23-.16.47.16.62.39.08.16.23.31.31.55.7,1.25,1.09,2.58,1.17,3.98v.31c0,.55.47.55.78.55.39,0,.23-.39.23-.62-.08-1.64-.47-3.28-1.02-4.84.86.47,1.09,1.33,1.41,2.19.39,1.09.47,2.26.62,3.44.08.31.23.62.55.62.31-.08.23-.47.16-.62-.16-1.64-.16-3.36-.86-4.84-.08-.16-.23-.31.08-.47.55.31.78.86,1.02,1.41.55,1.41.7,2.97.7,4.45,0,.62.23,1.02.94,1.25-.08-2.26-.23-4.45-1.09-6.56.62.08.78.55,1.02.94.78,1.72,1.02,3.59,1.09,5.54,0,.31-.08.62.31.86.08-1.09-.08-2.26.08-3.28.08-.94,0-1.8-.55-2.58-.23-.31-.39-.62-.62-.94-1.17-1.56-2.42-3.2-4.53-3.51-3.51-.55-6.95-.39-10.39.62-1.41.47-2.81.94-3.83,2.03-1.87,2.03-3.67,4.06-5.15,6.4-.7,1.17-1.64,2.19-2.5,3.28-1.25,1.48-2.81,2.66-4.37,3.67-.23.16-.7.31-.62.7.08.31.55.23.86.31.62,0,1.17.23,1.56.62-1.09-.23-2.11-.39-3.12-.62-.7.16-1.02-.23-1.48-.16M63.98,161.47c.55.31,1.09.16,1.64.23,2.89.47,5.62,1.41,8.36,2.5,4.22,1.56,8.43,2.81,13.04,2.34,4.3-.39,6.95-3.59,7.5-7.34.31-2.11-.86-3.67-2.5-4.84-2.58-1.87-5.54-2.73-8.67-3.2-3.75-.55-7.03.7-10.23,2.58-3.51,1.95-6.25,4.84-9.14,7.73M71.47,132.26h.23c.08-1.09,0-2.11-.39-3.2.08,1.09.16,2.11.16,3.2M59.53,114.76c-.16.62-.23,1.17-.39,1.8,0,.08,0,.23.08.31.08.08.23,0,.31,0,.47-.31.47-1.72,0-2.11M32.43,66.11c-.16.39-.31.78-.47,1.17-.08.16-.16.39.08.55s.31-.16.47-.31c.39-.47.31-.94-.08-1.41"/>
    <path class="st4" d="M25.63,55.49c-.86.16-1.48-.39-2.19-.7-2.73-1.25-5.15-2.97-7.42-5.08-.16-.16-.62-1.02-.78.08-2.19-2.03-3.75-4.45-5-7.11-1.8-3.67-2.66-7.65-2.66-11.71,0-8.43,5.78-14.37,13.2-15.85,4.45-.86,8.67.08,12.73,1.95,4.92,2.34,9.14,5.7,12.65,9.84,2.58,3.12,4.53,6.64,5.94,10.46,1.56,4.14,2.42,8.43,2.73,12.81v1.25c0,.16-.08.39.08.47.23.08.31-.08.47-.23,2.03-2.58,4.14-5.08,6.64-7.18,2.42-2.03,4.92-3.83,7.73-5.23.08-.08.23-.16.31-.16,2.03-1.09,4.14-2.03,6.4-2.73.16,0,.39,0,.47-.16.47-.23,1.02-.39,1.56-.47.08-.08.23-.08.31-.16l.39-.08c.16,0,.39,0,.47-.16.16,0,.23,0,.39-.08.16,0,.39,0,.47-.16.16,0,.39-.08.55-.08.23,0,.47.08.7-.16.16,0,.39,0,.55-.08.62.47,0,.39-.23.55-.7.31-1.64.08-2.19.94-.08,0-.23.08-.31.08-.55-.31-.94-.23-1.25.39l-1.41.39c-.47.08-1.17-.55-1.41.47h0c-.08,0-.16.08-.16.08-.16,0-.23.08-.39.08-.08,0-.08.08-.16.08-7.73,3.28-14.06,8.28-18.98,15.07-.39.62-.86,1.25-.78,2.03.08.62.16,1.17.16,1.8.08.62-.08,1.25.16,1.87,0,.31,0,.62.08.94v.08s0,.08.08.08v.55l-.08.08s0,.08.08.08c.08,1.17.08,2.34.86,3.36.23.31.39.62.55.94-.23.08-.39.23-.62.16-.31-.16-.39.08-.31.31,0,1.02.47,1.87,1.17,2.58.08.08.16.08.16,0h0c.08-.08.08-.16.16-.23v-.16c.31-.39-.08-.94.23-1.41.23,0,.31-.23.39-.39.55-.08.78-.31.39-.78-.23-.31-.16-.55,0-.78.16,0,.23-.08.39-.23.16-.08.16-.23.16-.31h0c.62-.23.16-.7.31-1.09.08-.08.23-.16.31-.16.16,0,.39.08.47-.16.08-.16-.08-.31-.23-.39,0-.08-.08-.16-.08-.16-.08-.08-.16-.08-.16-.16-.08,0-.08-.08-.16-.08l.7-.47c.39-.08.39-.47.62-.7.62-.23.47-.78.47-1.25.62-.08.55-.78.86-1.09.23.16.47.23.7,0,.23-.31-.16-.39-.23-.47-.16-.16-.08-.31.08-.39.31.08.47-.23.7-.31.78,0,.23-.94.78-1.09h.16c.62-.08,1.09-.39,1.41-.94.16-.39.55-.78,1.02-.23-2.26,2.42-4.3,5.08-5.86,8.04-.86,1.72-1.64,3.44-2.26,5.23-.16.47-.08.86-.16,1.41.7-.47.94-1.25,1.41-1.8.08,0,.08-.08.08-.16,3.2-4.61,7.58-7.58,12.81-9.45.16,0,.39,0,.47-.16.23-.08.47-.23.7-.23.16,0,.39,0,.47-.16.39-.08.7-.31,1.02-.23.16,0,.39,0,.55-.16h.23c.23,0,.47.08.62-.16.16,0,.23,0,.39-.08.23,0,.47.08.7-.16.16,0,.39,0,.55-.08.31-.08.62.08.86-.16l.86-.08c1.72-.08,3.44-.16,5.08-.23.47,0,.94.08,1.33-.16l1.41-.08c.55-.08,1.09.08,1.56-.23l1.25-.08c.47.08,1.02-.39,1.41.23-.23.16-.39.23-.62.23-.08,0-.16.08-.23.08-.16,0-.31.08-.55.08-.47-.23-.94-.39-1.25.23-.08,0-.23,0-.31.08-.23,0-.47-.08-.7.16-.7.08-1.41.08-2.11.16-1.41-.16-2.73-.08-4.14,0-.16,0-.23.16-.23.31-.47,0-.94.08-1.41.08-.31.08-.7-.47-.94.16-.31,0-.7.08-1.02.08-.31-.23-.7-.39-.86.16-.08,0-.23,0-.31.08-.23.08-.62-.39-.7.16-.7.16-1.41.31-2.11.47-.08,0-.08.08-.16.08l-1.25.31c-.08,0-.08.08-.16.08-.16,0-.23.08-.39.08.08,0,0,.08-.16.08-.78.39-1.56.7-2.34,1.09-5.62,2.89-9.84,7.03-12.42,12.81-.39.94-.62,1.8-.31,2.81.39,1.33.7,2.66,1.09,3.98.31,1.17.7,2.19,1.64,3.05.23.47-.55.78-.16,1.25.39.7.55,1.64,1.17,2.19.23,0,.47.16.62.08.78-.39.7.16.7.55v.55s-.08,0-.08.08,0,.08.08.16v.55c-.16.23-.16.47.08.7.08.31.16.7.23,1.02,0,.16,0,.39.16.55h0c.08.08.08.23.16.31,0,.31.31.55.23.86,0,.08.08.08.08.16,1.41,3.67,3.12,7.26,5,10.7,0,.7.39,1.33.39,2.03,0,.55.31.7.78.7h0c0,.16,0,.31.16.39,1.48,2.73,3.36,5.15,5.23,7.65-.08.94.55,1.33,1.33,1.56.08.08.08.16.16.23,0,.08.08.08.08.16s.08.16.08.16q.08.08.16.16c.31.55.7,1.09,1.02,1.72.31.55.62.55.86,0,2.58-4.61,6.64-7.97,10.23-11.71,1.02-1.02,1.95-2.19,1.8-3.98-.08-1.25.08-2.5,0-3.75,1.02,1.41,2.34,2.34,3.59,3.36.39.31.94.55,1.33.94,1.95,1.48,3.05,3.36,3.12,5.86,0,1.33-.39,2.34-1.41,3.28-1.95,1.8-4.22,3.44-5.86,5.62-2.42,3.28-4.61,6.64-4.61,10.93,0,1.17.47,2.11.94,3.12.16.39.31.78.47,1.09-.31.62,0,.86.55,1.02h0c.08.08.08.16.16.16h0q0,.08.08.16c.08.16.08.23.16.39-.23.16-.39.31-.31.55.39.62.39,1.33.7,1.95.47.94.7,1.95,1.33,2.81.47.7,1.02,1.56,1.17,2.42.23,1.02.86,1.95.94,3.05.08.7.16,1.33.55,1.95.23.39-.16.55-.47.7-.23-.39-.39-.86-.86-1.09-1.41-.78-2.81-1.64-4.37-2.19-.94-.31-1.8-.94-2.73-1.41.86-.16,1.56.08,2.26.31,1.64.55,3.12,1.25,4.53,2.26.16.08.39.31.55.16s0-.39,0-.55c-.23-.78-.7-1.33-1.48-1.72-1.8-.94-3.67-1.64-5.54-2.34-.39-.16-.94-.23-1.25-.78,2.66.31,4.92,1.56,7.34,2.5-.16-.78-.47-1.25-1.09-1.48-1.41-.55-2.81-1.17-4.14-1.8-.7-.31-1.48-.55-2.26-1.09.47-.16.78-.08,1.09,0,1.56.31,2.97,1.09,4.45,1.64.23.08.55.55.7.23.23-.31-.16-.62-.47-.86-.23-.16-.47-.31-.78-.39-.86-.31-1.72-.7-2.58-1.02-.94-.31-1.8-.7-2.73-1.02,0-.08.08-.16.08-.23,1.95.08,3.75.94,5.62,1.48.08-.55-.16-.78-.62-.94-.7-.31-1.48-.62-2.19-.94-1.17-.47-2.34-1.02-3.44-1.48,2.03-.08,3.67,1.02,5.54,1.41-1.56-1.8-3.98-1.95-6.17-3.2,2.11,0,3.67,1.09,5.47,1.64-.39-.62-.55-1.25-1.02-1.64h0c-.39-1.17-1.17-2.11-1.87-2.97-.39-.55-.78-1.25-1.48-1.41-1.87-.55-3.59-1.41-5.39-2.11-.23-.08-.62-.16-.7-.62,1.95.23,3.51,1.17,5.23,1.72-1.8-1.95-4.69-1.95-6.72-3.44,1.56,0,2.89.78,4.45.86-1.87-1.56-4.37-1.8-6.64-3.12.78-.16,1.25.08,1.72.16,1.25.23,2.42.86,3.67.94,0,0,0,.08.08.08v-.08h-.08c-.31-.78-.94-1.33-1.72-1.56-1.64-.55-3.28-1.09-4.84-1.72-.31-.08-.7-.16-.86-.62.7-.16,1.25.08,1.87.31,1.17.39,2.34.86,3.51,1.25.23.08.62.47.78.08.16-.31-.16-.62-.47-.86-.16-.16-.39-.23-.62-.31-1.09-.39-2.26-.7-3.44-1.09-1.09-.39-2.34-.62-3.36-1.33,2.34-.55,4.3.86,6.48,1.41-.16-.62-.47-.78-.94-.94-2.03-.7-4.06-1.41-6.09-2.03-.31-.08-.62-.16-.78-.47.47-.23.86-.23,1.33-.16.78.23,1.48.39,2.26.7,1.02.31,2.03.78,3.05,1.09-.16-.47-.39-.94-.86-1.09-1.8-.7-3.67-1.41-5.47-2.19-.78-.31-1.64-.55-2.5-1.17,1.33-.08,2.34.31,3.36.7,1.25.47,2.34,1.17,3.67,1.48,0,.08,0,.16.08.08l-.08-.08c-.55-.86-1.17-1.64-2.19-2.03-1.95-.78-3.98-1.48-5.94-2.26-.23-.08-.62-.08-.7-.62,2.42-.08,4.45,1.25,6.64,2.03-.78-1.56-2.5-1.64-3.83-2.26-1.33-.62-2.81-1.02-4.14-1.8,2.26-.16,4.14,1.17,6.33,1.56-2.34-1.8-5.31-2.26-7.89-3.59,1.25,0,2.5.16,3.75.55.94.31,1.8.78,2.73,1.17.16.08.31.23.47,0,.16-.16,0-.31-.16-.47-.31-.39-.7-.62-1.09-.78-1.56-.62-3.12-1.17-4.69-1.8-.86-.39-1.87-.55-2.66-1.17,2.73-.23,4.92,1.48,7.65,2.19-.47-.86-.86-1.56-1.25-2.26-.08-.08-.16-.08-.16-.16-.23-.94-.7-1.56-1.72-1.72-.55-.08-1.09-.31-1.56-.47-1.33-.39-2.66-.78-3.98-1.17,0-.08.08-.16.08-.23,2.26-.39,4.06,1.17,6.25,1.48-.16-.7-.55-1.09-1.25-1.25-1.72-.47-3.51-.78-5.15-1.41-.16-.08-.47-.08-.47-.31,0-.31.31-.23.55-.31,1.09-.16,2.11.16,3.12.55.7.23,1.33.47,2.03.78-.16-.86-.16-.94-.78-1.09-.86-.31-1.8-.55-2.66-.78-1.09-.31-2.19-.62-3.28-.94,0-.08,0-.16.08-.23,2.11-.62,3.98.55,5.94,1.09-.08-.7-.31-1.02-.86-1.17-.94-.23-1.87-.55-2.89-.78-.86-.23-1.8-.31-2.66-.86.08-.23.31-.31.47-.31,1.8-.23,3.36.62,5.08,1.09,0-.7-.31-1.02-.86-1.17-1.56-.62-3.12-1.09-4.76-1.56-.39-.08-.78-.16-1.02-.55,1.87-.31,3.36.39,5,.94.23.08.47.31.62.08.23-.23-.16-.47-.23-.62-.16-.31-.47-.39-.7-.47-.62-.23-1.25-.39-1.95-.62-1.02-.31-2.03-.62-3.12-1.02.62-.39,1.09-.31,1.64-.31.94.16,1.8.55,2.66.86.31.08.62.55.86.16.23-.31-.08-.7-.31-1.02-.16-.23-.39-.31-.62-.39-1.33-.39-2.66-.86-3.98-1.25-.23-.08-.55-.08-.62-.47,1.56-.39,2.97.39,4.53.62-.16-.86-.55-1.33-1.33-1.48-.78-.23-1.48-.39-2.26-.62-.47-.16-1.02-.31-1.41-.78,1.33-.08,2.58.47,3.9.7,0-1.33-1.02-1.17-1.8-1.56-.7-.31-1.56-.31-2.34-1.02,1.02-.16,1.72.23,2.5.39.23.08.47.23.62.08.23-.23,0-.47-.08-.7-.86-3.05-1.8-6.01-2.42-9.06-1.02-4.69-1.17-9.53-1.64-14.29-.16-1.87-.16-3.75-.39-5.62-.08-.62-.31-1.09-.94-1.33-1.56-.86-3.12-1.48-4.69-2.19-.62-.23-1.17-.47-1.8-.7,1.02-.16,1.87,0,2.73.39,1.25.47,2.5,1.02,3.75,1.48.23.08.47.39.7,0,.16-.31-.08-.55-.31-.7l-.47-.23c-1.17-.47-2.34-.94-3.51-1.33s-2.26-.86-3.44-1.25c1.02-.23,1.87,0,2.73.31,1.48.55,2.89,1.02,4.37,1.56.23.08.39.16.55,0,.16-.23.08-.47-.16-.62-.16-.16-.39-.23-.62-.31-1.64-.78-3.28-1.33-5-1.87-.86-.31-1.8-.47-2.81-1.02,1.09-.16,1.95,0,2.81.16,1.72.39,3.28,1.09,4.84,1.72.23.08.47.31.62,0,.16-.23.08-.55-.23-.7-.08-.08-.23-.16-.39-.23-2.03-.94-4.22-1.72-6.4-2.26-.78-.16-1.48-.47-2.26-.78l.08-.23c3.05-.08,5.86,1.48,8.75,2.11-.08-.39-.31-.39-.47-.55-2.58-1.56-5.47-2.26-8.36-2.97-.31-.08-.7-.08-.86-.55.7,0,1.41-.08,2.03.08,2.34.47,4.53,1.25,6.79,2.03.16.08.39.31.55.08.16-.23.08-.55-.16-.7-.16-.16-.39-.31-.55-.39-2.97-1.17-6.09-2.19-9.22-2.89-.31-.08-.7.23-.94-.31,1.09-.39,2.26-.23,3.36,0,2.19.47,4.3,1.33,6.33,2.19.23.08.55.39.78,0,.16-.31,0-.62-.31-.78s-.62-.23-.94-.39c-2.42-.78-4.92-1.56-7.5-1.87-.94-.08-1.87-.31-2.97-.7.86-.31,1.56-.47,2.26-.31,1.02.23,2.03.39,2.97.62,1.95.47,3.9.94,5.86,1.41v.08s0-.08.08-.08h-.08c-.08-.7-.7-.78-1.25-.94-2.73-.94-5.54-1.64-8.43-2.03-.62-.16-1.33-.16-1.95-.62.94-.08,1.8-.31,2.66-.08,2.58.55,5.23.94,7.73,1.72.23.08.47.23.62-.08.08-.23-.16-.47-.39-.55-.62-.39-1.41-.7-2.11-.94-2.81-.94-5.7-1.33-8.59-1.72-.39-.08-1.02.16-1.48-.39,1.41-.39,2.66-.23,3.98-.08,2.34.31,4.61.86,6.87,1.64.16.08.39.23.55,0,.08-.08-.08-.31-.16-.47-.23-.62-.78-.7-1.33-.86-3.59-1.09-7.18-2.03-10.93-1.95-.31,0-.55,0-.7-.31.08-.23.31-.16.47-.16,2.73-.31,5.39.31,8.04.78,1.09.23,2.19.62,3.36.62l.08.08v-.08h-.08c-.08-.31-.39-.31-.62-.39-4.06-1.56-8.2-2.5-12.57-2.34,4.14-.94,8.2,0,12.26.86-4.45-2.19-9.29-2.34-14.14-2.11.7-.47,1.56-.55,2.34-.7,3.51-.47,7.03.08,10.54,1.09q-.47-.7-1.17-.94c-3.12-1.02-6.25-1.17-9.45-1.17-1.8,0-3.59.31-5.47.47,4.69-1.8,9.45-1.87,14.45-.62-.39-.7-.78-1.09-1.41-1.17-4.22-.7-8.36-1.02-12.57,0-.55.16-1.09.39-1.87.16,1.41-.86,2.73-1.25,4.22-1.48,1.41-.23,2.81-.39,4.3-.39,1.41.08,2.81.16,4.3.23-.16-.16-.16-.23-.16-.23-.16-.08-.23-.08-.39-.16-3.59-.86-7.11-1.02-10.7-.31-.55.08-1.17.23-1.72.39s-1.17.23-1.72.08c4.06-1.87,8.36-2.19,12.81-1.48-.23-.39-.55-.47-.78-.55-1.64-.86-3.44-.94-5.15-.86-2.58.08-5,.62-7.5,1.25-.47.16-1.02.39-1.56.16,3.28-2.03,7.18-1.87,11.09-2.34-.78-.55-1.56-.62-2.26-.7-2.58-.08-5.15.23-7.65.86-1.33.39-2.66.78-3.98,1.17h0c1.25-1.09,2.73-1.64,4.3-2.11,1.95-.55,3.98-.78,6.01-1.02-4.22-.55-8.28.23-12.34,1.72,0-.39.08-.47.23-.55.31-.23.62-.47.94-.62,2.5-1.09,5.15-1.33,8.04-1.8-2.19-.47-4.14,0-6.01.39-1.87.47-3.67,1.17-5.54,1.56,1.87-1.41,4.06-2.11,6.25-2.89-7.5.39-14.21,5.7-14.6,14.6-.23,4.76.94,9.14,3.2,13.12,1.95,3.44,5,5.86,8.12,8.2,1.8,1.33,3.75,2.34,5.54,3.51M95.37,111.01h0c-.08-.08-.16-.16-.23-.16h0c-.31-.7-1.17-.7-1.56-1.33-.23-.31-.55-.39-.94-.31-.16-.23-.39-.39-.39-.7,0-.08-.08-.08-.08-.16s-.08-.16-.08-.16c0-.08-.08-.08-.08-.16-.08-.16-.16-.31-.31-.55,0-.08-.08-.08-.08-.16s-.08-.16-.08-.23c-.08-.08-.08-.23-.16-.31-.31-.7-.62-1.48-.94-2.34-.94,1.17-1.8,2.26-2.81,3.28-2.58,2.58-5.08,5.08-7.03,8.2-.94,1.48-1.17,2.73-.23,4.3,1.56,2.58,3.2,5.08,5.54,6.95.31,0,.08-.16.16-.23v-.47c.16-.08.31-.23.23-.39-.16-.23-.39-.08-.62-.16h0c0-.31.08-.62.31-.86.23-.08.23-.39.39-.55.23-.47.31-.94.23-1.41l.39-.39c.78-.23.47-.62.16-1.17-.08-.16-.86-.47-.08-.78.16.08.31.08.47.16.39.39.55-.08.62-.23.23-.39.16-.78,0-1.17.08-.08.16-.08.16-.16.08-.08.08-.16.16-.16h0c.55-.08.47-.55.47-.86s.16-.55.31-.7h0c.08-.08.08-.16.16-.16h0c.94-.16.86-.78.7-1.41.23-.16.39-.23.62-.39.31-.08.7.16.86-.23s-.39-.47-.39-.78c-.08-.31-.86-.23-.39-.78.39.16.78.31,1.17.47.31-.08.7.16.86-.23s-.23-.62-.47-.86c-.16-.23-.78-.31-.39-.86l1.25.55c.94.23,1.25,0,1.41-.86,0-.31.39-.23.47-.47.16-.16.23-.31.39-.39l.08-.08q-.16-.08-.23-.16M91.7,99.14c-.23,1.8-.39,3.36-.08,4.92.31,1.95,1.02,3.67,2.5,5.08.7.7,1.64,1.17,2.66.86,1.09-.39,1.25-1.41,1.25-2.34.08-2.26-.86-4.14-2.66-5.54-1.17-.94-2.5-1.72-3.67-2.97"/>
    <path class="st4" d="M79.83,36.36c.55-.78,1.48-.62,2.19-.94.23-.08.86-.08.23-.55,1.56-.31,3.12-.55,4.69-.94,2.97-.7,6.01-.86,8.82-2.26.94-.47,1.64-.94,2.11-1.87.08-.23.31-.47.47-.7h.47v.7c-.08.47-.16.94-.78,1.09-.16,0-.16.23-.16.39h0c-.94.08-1.56.86-1.33,1.8-1.33,2.42-2.34,4.92-2.58,7.65-.16,1.8.55,2.73,2.11,2.66l.55.55c-.47.31-1.02.47-1.64.31-1.8-.62-3.67-.31-5.47-.16-3.12.31-6.25.94-9.22,1.87-5.08,1.72-9.53,4.3-13.35,8.04l-.23.23c-.47-.55-.78-.16-1.02.23-.31.55-.78.86-1.41.94.47-.47.78-.94.39-1.72-.62-1.25-.62-2.66-.62-3.98,0-.23,0-.62.47-.7.23,1.41.47,2.81.86,4.22.08.23.08.62.39.55.31-.08.55-.39.31-.78q0-.08-.08-.16c-.62-1.64-.31-3.28-.16-4.92,0-.16.16-.39.47-.31.08,1.64.16,3.28.62,5,.31-.23.78-.31.55-.78-.55-1.33-.39-2.73-.39-4.14,0-.7-.16-1.41.39-2.03.31.23.23.47.23.7.16,1.41.23,2.81.39,4.14,0,.31-.08.86.39.78.39-.08.86-.31.94-.94,0-.23,0-.55-.08-.78-.16-.86-.16-1.72,0-2.5.08-.55,0-1.17.55-1.64.16,1.33.23,2.66.23,3.98,0,.16,0,.47.23.47.16,0,.31-.16.47-.31.23-.23.16-.47.08-.78-.08-.78-.16-1.56-.08-2.34,0-.94.16-1.87.62-2.81.16.31.16.62.16.94.08,1.25.08,2.5.16,3.75,0,.16-.08.62.31.39.39-.16.86-.39.7-1.02-.31-1.09-.08-2.26-.08-3.36,0-.55.08-1.17.55-1.64.23.39.16.62.16.94v3.44c0,.23-.16.62.23.62.31,0,.7-.23.7-.62v-.31c.08-1.48.31-2.89.7-4.3.08-.16,0-.47.31-.39s.16.31.16.47c-.16,1.25-.31,2.42-.23,3.67,0,.23-.16.55.16.55.23.08.39-.16.55-.31s.16-.47.16-.62c-.08-.7,0-1.33.08-2.03.16-1.09.47-2.11,1.02-3.05,0,1.41-.16,2.81-.31,4.22,0,.23-.23.78.31.78.47,0,.55-.39.55-.78-.08-1.25.16-2.5.55-3.67.16-.55.31-1.25.86-1.64.16.39,0,.78-.08,1.09-.23,1.17-.31,2.34-.31,3.59,0,.23-.16.7.31.7s.55-.31.55-.7c0-1.41.31-2.73.62-4.14.08-.23.08-.62.39-.62.31.08.23.39.16.7-.08,1.25-.23,2.5-.31,3.75,0,.23-.16.7.39.7.47,0,.47-.31.47-.62-.08-1.25.16-2.5.55-3.67.08-.31.16-.78.7-.94-.23,1.41-.31,2.73-.39,4.06,0,.23-.23.7.31.7.47,0,.47-.39.47-.7.08-.78.16-1.64.31-2.42.08-.55.23-1.17.7-1.64.16.39.08.78,0,1.09-.08.94-.08,1.87-.16,2.81,0,.31,0,.55.39.55s.47-.16.47-.55c.08-1.17.31-2.34.7-3.51.08-.31.16-.7.55-.78.16.23.08.39,0,.55-.23,1.09-.31,2.26-.31,3.36,0,.31-.08.7.31.7s.23-.39.23-.62c0-.47,0-.94.08-1.41.23-1.41.7-2.66,1.41-4.06.31.47.16.78.08,1.09-.23,1.41-.55,2.81-.62,4.22,0,.39.08.7.55.55.31-.08.78.08.7-.55-.23-1.87.47-3.51,1.09-5.15.08-.16.08-.31.39-.31.16.31,0,.55-.08.86-.31,1.48-.47,2.97-.47,4.45,0,.31.08.62.47.62.31,0,.62-.16.55-.62-.39-1.72.39-3.2.86-4.76.08-.31.16-.7.7-.78-.08.62-.08,1.25-.16,1.87-.16,1.17,0,2.34.08,3.51,0,.31.16.62.47.55.39-.08.08-.39.08-.55-.31-1.33-.23-2.58.08-3.9.39-1.87,1.33-3.59,2.34-5.31-1.09.31-2.03.62-2.97.86-3.67.7-7.97.94-12.03,2.11"/>
    <path class="st4" d="M76.47,114.22c-.78-.23-1.33-.62-1.33-1.56.55-.47.39-.86,0-1.33-1.02-1.17-1.95-2.42-2.66-3.83-.39-.78-.39-1.02-.16-1.64.47,1.87,1.72,3.12,2.97,4.37.16.16.23.47.55.31.16-.08.23-.39.23-.62.08-.39-.08-.62-.39-.78-.94-.78-1.64-1.8-2.26-2.81-.47-.78-.62-1.48-.31-2.11.55,1.72,1.72,2.89,3.05,3.98.16.16.31.47.55.23.23-.23.39-.55.08-.86-.16-.16-.31-.39-.47-.55-.78-1.09-1.64-2.11-2.19-3.36q-.23-.55,0-1.17c.62,1.56,1.72,2.66,2.73,3.75.16.16.31.47.55.16.16-.23.39-.47.16-.78-.16-.16-.23-.31-.39-.47-.86-1.09-1.72-2.11-2.26-3.36-.16-.31-.23-.7-.08-1.02.39.23.55.62.7.94.55,1.02,1.33,1.8,2.03,2.73.39.55.62.31.86-.16.16-.39,0-.55-.23-.78-.7-.78-1.25-1.56-1.8-2.42-.31-.55-.7-1.17-.62-2.11.78,1.41,1.64,2.5,2.58,3.51.23.23.39.78.86.39s.39-.78,0-1.17c-.94-.94-1.64-1.95-2.19-3.12-.16-.39-.47-.78-.23-1.25.47.23.62.62.78.94.62,1.09,1.41,1.95,2.34,2.81.23.23.55.55.94.16s.16-.62-.16-.94c-.78-.94-1.56-1.87-2.11-2.97-.16-.39-.55-.86-.16-1.48.7,1.64,1.8,2.73,2.97,3.83.23.23.47.55.78.16.31-.31.16-.62-.08-.86-.7-.78-1.25-1.64-1.8-2.58-.23-.39-.47-.78-.31-1.48.23.39.47.62.62.86.62,1.02,1.56,1.8,2.34,2.66.31.39.62.31,1.02,0,.39-.39,0-.55-.23-.78-.55-.7-1.17-1.33-1.72-1.95-.31-.47-.7-.94-.62-1.64.47.08.62.39.78.7.62,1.02,1.48,1.8,2.42,2.66.39.39.7.08.94-.16.39-.31,0-.47-.16-.7-.55-.62-1.09-1.25-1.56-1.87-.55-.7-.7-1.17-.7-1.87.86,1.17,1.95,2.19,3.05,3.05.31.23.62.47.94.08.39-.47-.16-.55-.31-.7-.7-.78-1.41-1.56-1.95-2.42-.23-.39-.47-.86-.47-1.41.23,0,.39.08.39.23.7,1.25,1.8,2.11,2.89,2.97.31.31.55.31.86-.08s.23-.62-.08-.86c-.39-.39-.86-.78-1.17-1.25-.7-.86-1.48-1.64-1.8-2.73.55,0,.7.39.94.62.78.94,1.72,1.64,2.66,2.34.23.16.47.39.7,0,.16-.31.23-.55-.08-.86-.39-.39-.86-.7-1.25-1.09-.7-.78-1.48-1.56-1.8-2.66.47,0,.55.39.78.55.86.78,1.56,1.64,2.66,2.19.23.08.47.23.62,0,.16-.23,0-.47-.23-.55-1.33-.86-2.03-2.26-2.66-3.75-.47-1.17-.62-2.42-.94-3.75-.55.94-.86,1.8-1.33,2.58-1.87,2.66-4.22,4.69-6.87,6.56-4.22,2.97-7.26,6.79-9.14,11.64-.16.47-.16.86,0,1.33-.47,0-.7-.16-.78-.7-.08-.7-.47-1.33-.39-2.03.23.39.39.16.55-.08.94-1.8,1.95-3.59,3.28-5.15,2.26-2.81,5-5.08,7.73-7.34,2.81-2.26,5.23-4.76,6.72-8.12.16.62.62.62,1.09.7.23,1.09.31,2.26.7,3.28.7,2.19,1.87,3.9,4.37,4.37.16.7.94.23,1.25.78-.23.16-.47.23-.7.23-1.09,0-1.72.62-2.19,1.56-1.25,2.73-3.28,4.76-5.78,6.33-3.98,2.5-6.64,6.01-7.89,10.54-.39,1.41-.78,2.81-1.25,4.14,0,.31.08.55.23.86"/>
    <path class="st4" d="M36.18,137.88c.47-.08.78.31,1.17.39,1.02.31,2.11.47,3.12.62,1.33.94,2.11,2.26,2.73,3.75-.31.08-.31.16-.23.47.31.78.08,1.72.55,2.58-1.17,1.17-2.03,2.58-3.75,3.05-1.56.39-3.28.55-4.84.16-2.5-.62-4.92-.7-7.65-.47.78-.78,1.48-1.41,2.11-2.19,1.64-2.03,2.89-4.37,4.69-6.25.7-.78,1.33-1.56,2.11-2.11M36.8,148.19c1.8,0,3.44-.47,4.61-2.11,1.02-1.33,1.02-2.81.39-4.3-.62-1.41-1.64-2.42-3.28-2.5-1.48-.08-2.73.39-3.75,1.48-1.56,1.64-2.89,3.51-4.06,5.47-.23.39-.86.86-.7,1.25.23.55.94.16,1.41.16,1.72.08,3.51.7,5.39.55"/>
    <path class="st4" d="M77.02,66.58c-.16,0-.39.08-.55.08l-.31.08c-.39.08-.86.23-1.25.31-.16,0-.39,0-.55.16-1.56.62-3.12,1.33-4.45,2.34-2.97,2.34-4.84,5.39-5.94,8.9-.08.39-.23.7-.31,1.09-.08.16-.08.23-.16.39v.16c-.16.16-.16.31-.16.55-.08.39-.16.86-.23,1.25,0,.08-.08.08-.08.16-.08.47-.16.94-.16,1.41,0,.08-.08.23-.08.31v.55s-.08,0-.08.08v.55c0,.08-.08.08-.08.16v.16c-.16-.16-.23-.31-.39-.47-.31-.47-.94-.86-.16-1.48.23-.23.47-.86,0-1.25-.16-.16-.23-.47,0-.62.7-.55.55-1.09.08-1.72-.23-.23-.16-.62-.16-.94h.47c.55-.16,1.02-.31.78-1.02-.08-.31,0-.47.31-.62.55-.23.7-.78.62-1.33-.08-.39-.16-.7-.23-1.09h.16c.47,0,.78-.23.86-.7,0-.31.16-.47.47-.55.7-.16.78-.7.78-1.33,0-.31,0-.47.31-.47.86,0,.94-.47.7-1.17-.08-.23-.08-.39.16-.55q.08,0,.08.08c.55.23.94.16,1.09-.47.08-.23.16-.47.47-.47.62,0,.94-.55,1.25-.94h.16c.7.08,1.33.08,1.41-.94h.31c.7.39.78-.55,1.25-.62h.16c.7.16,1.02-.23,1.25-.86.08,0,.08.08.16.08.78.62,1.17.16,1.56-.47.08,0,.16.08.16.08.62.16,1.17.23,1.56-.39.16.08.31.16.47.23.47.23.86-.08,1.25-.23.08,0,.16,0,.16.08.16.08.47.23.55.23.86-.62,1.8,0,2.66-.39h.16l1.48-.08h.7c.39.39.78,0,1.17-.08l.55.16c.39.08.78.23,1.17,0,.16.16.31.16.55.16.39.08.7-.08,1.09-.23.16.16.31.23.39.39.62.47,1.02.08,1.41-.31.31.23.47.55.86.7,0,.16.08.39-.16.47h-1.09c-.23-.23-.55-.08-.86-.08h-.86c-.47-.31-.94-.08-1.41-.08h-1.09c-.31-.23-.7-.08-1.02-.08h-1.09c-.78-.31-1.48,0-2.26-.08-.62,0-1.17.08-1.8.08-.55.08-1.09-.08-1.56.23l-.86.08c-.23,0-.47-.08-.7.16-.23,0-.47.08-.7.08l-.39.16Z"/>
    <path class="st4" d="M12.98,93.83c.39,0,.78-.08,1.17.16.47.31,1.02.23,1.48-.08,1.41-.94,2.97-1.17,4.61-1.02.55.23,1.09.55,1.64.78.16.31.55.47.86.47.23,2.11.16,4.06-1.17,5.78-.7.94-1.56,1.56-2.66,2.03-2.34.94-4.53,2.26-6.79,3.44-.31.16-.55.47-.86.78-.31-.16-.16-.47-.16-.7-.16-3.83.23-7.65,1.72-11.25.16-.08.16-.23.16-.39M12.04,103.13v.62c.08.23-.16.47.08.62.23.16.39-.16.62-.23,1.8-1.17,3.75-2.03,5.78-2.81,1.41-.55,2.5-1.56,3.12-2.89,1.25-2.42.31-4.61-2.11-4.92-2.34-.31-4.22.62-5.62,2.5-1.48,2.11-1.8,4.61-1.87,7.11"/>
    <path class="st4" d="M7.44,61.03c.16.08.31.31.39.31,1.09-.39,2.11-.16,3.12.23.16.08.31,0,.39-.08.86.55,1.8,1.02,2.11,2.03,0,.16,0,.39.16.47,0,.16.08.31.08.55,0,.31-.08.55.08.86.08.47.16,1.02,0,1.48v.31c.08.16-.08.39.16.47v.55c-.86,1.09-1.25,2.42-1.95,3.67-.94,1.56-1.64,3.2-3.2,4.37-.16-.78-.31-1.48-.47-2.19-.31-1.8-1.33-3.2-2.11-4.84-.86-1.87-1.33-3.9-.7-6.01.55-.94,1.02-1.72,1.95-2.19M9.62,74.78c.23-.16.31-.23.39-.31,1.33-2.34,2.5-4.84,2.73-7.58.16-1.17,0-2.42-.62-3.51-.7-1.25-2.66-2.11-3.67-1.56-1.25.7-2.03,1.72-2.11,3.2,0,1.95.39,3.9,1.48,5.54.86,1.25,1.64,2.5,1.8,4.22"/>
    <path class="st4" d="M18.84,119.37c-.31,0-.47.23-.55.47-.31,1.48-1.33,2.19-2.66,2.58-2.11-.62-2.97-2.34-3.44-4.22-.7-2.58-.31-5.08.47-7.58.39-1.17.55-2.42.78-3.83.78,1.33,1.64,2.42,2.5,3.51-.39.39.08.7.16,1.09.08.08.08.23.23.16h0c.08.62.47,1.02.78,1.48,1.17,1.95,2.03,3.98,1.72,6.33M12.9,116.09c0,1.02.23,2.42.86,3.75.47.94,1.64,1.87,2.42,1.8.78-.08,1.56-1.02,1.72-2.26.23-1.56,0-3.12-.78-4.45-.94-1.56-1.87-3.12-2.81-4.69-.16-.16-.23-.47-.55-.39-.23,0-.23.31-.31.47-.39,1.72-.62,3.51-.55,5.78"/>
    <path class="st4" d="M92.56,66.19c.16-.16.16-.31.16-.47.23-.08.55.16.86-.16-1.72-1.64-2.19-3.67-1.95-5.94.16-1.25.47-2.42,1.02-3.59.16-.31.39-.7-.31-.62-.39-.62-.94-.16-1.41-.23.55-.23,1.09-.16,1.64-.23.55-.08,1.09-.23,1.48-.78,0,.7-.08,1.41-.08,2.11-.31.94-.7,1.87-.86,2.89-.23,2.26-.16,4.45,1.72,6.17.16,1.09,1.02,1.02,1.72,1.09-1.33.16-2.66-.16-3.98-.23"/>
    <path class="st4" d="M94.2,90.4c-.31-.47-1.09-.08-1.25-.78,1.25-.08,1.56-.39,1.95-1.56.39-1.33.16-2.5-.47-3.67-1.48-2.89-3.83-4.92-6.48-6.79-.16,1.56-.08,2.97,0,4.37-.47,0-.94-.08-1.09-.7.23-1.41.55-2.73.39-4.22,0-.16,0-.39.16-.47.39-.16.47.31.78.39.23.23.39.55.78.47h0c.47.78,1.25,1.25,2.03,1.64h0c.08.23.16.47.55.39h0c0,.39.31.47.62.62h0c.08.16.16.31.39.31h0c.08.16.16.31.39.39h0c0,.16.08.16.16.16h0c0,.16.08.23.23.23,1.48,1.72,2.73,3.59,2.66,6.01-.23,1.41-.47,2.58-1.8,3.2"/>
    <path class="st4" d="M62.1,78.68c0,.31-.08.62.16.94.47.62.62,1.17-.08,1.72-.23.16-.16.39,0,.62.39.47.23,1.02,0,1.25-.78.62-.23,1.02.16,1.48.16.16.23.31.39.47,0,.39.16.86-.08,1.25,0-.47.08-.94-.7-.55-.16.08-.39-.08-.62-.08.23-.94-.23-1.87-1.17-2.19-.39-.47.39-.78.16-1.25.47.23.62.94,1.25,1.09,0-.55.31-1.02-.16-1.48-1.33-1.48-2.11-3.28-2.81-5.08-.23-.62-.47-1.41.16-2.26.39,2.58,1.56,4.61,3.05,6.64.31-.62.23-1.02-.08-1.48-1.09-1.48-1.87-3.12-2.26-4.92-.08-.47-.23-.94.08-1.64.16.62.23.94.31,1.25.39,1.56,1.41,2.89,2.26,4.22"/>
    <path class="st4" d="M96.54,66.27c-.78-.08-1.64,0-1.72-1.09,1.56.55,2.42.23,3.12-1.33.62-1.25.62-2.58.62-3.9.08-2.42-1.41-4.3-2.11-6.48-.16-.47-.55-.39-.86-.08-.7.78-1.17,1.8-1.72,2.66,0-.7.08-1.41.08-2.11h0c.08-.08.08-.16.16-.16.47-.55.94-1.09,1.41-1.64.31-.39.55-.78.7-1.33.62.55.23,1.33.62,1.95-.08.23.08.47.16.78.7,2.03,1.8,3.9,2.19,6.09.08,1.72,0,3.51-.86,5.08-.31.78-.86,1.33-1.8,1.56"/>
    <path class="st4" d="M97.87,31.36c0-.16,0-.31.16-.39.62-.16.62-.62.78-1.09.23,1.64.47,3.36.62,5,.23,2.81,0,5.62-1.72,8.04-.31.39-.55.86-1.09,1.02-.16-.16-.39-.31-.55-.55,1.33-.55,1.95-1.72,2.26-3.05.55-2.81.62-5.62,0-8.43-.08-.16,0-.55-.47-.55"/>
    <path class="st4" d="M86.7,55.41c-.39.31-.86.16-1.33.16-1.72.08-3.44.16-5.08.23.39-.23.94-.16,1.33-.23,1.72,0,3.36-.08,5.08-.16"/>
    <path class="st4" d="M89.05,132.41c-.55-.16-.86-.39-.55-1.02.31.31.47.62.55,1.02"/>
    <path class="st4" d="M82.96,65.88c.78.08,1.48-.23,2.26.08-.78,0-1.56.08-2.26-.08"/>
    <path class="st4" d="M79.6,66.11c.47-.31,1.02-.08,1.56-.23-.55.16-1.02.16-1.56.23"/>
    <path class="st4" d="M89.67,55.1c-.47.31-1.02.08-1.56.23.55-.16,1.02-.23,1.56-.23"/>
    <path class="st4" d="M88.34,65.95c.47.08.94-.16,1.41.08-.47.08-.94.08-1.41-.08"/>
    <path class="st4" d="M86.24,65.88c.31,0,.7-.16,1.02.08-.31.08-.62.16-1.02-.08"/>
    <path class="st4" d="M90.61,66.11c.31,0,.62-.08.86.08-.23,0-.55.08-.86-.08"/>
    <path class="st4" d="M79.36,55.88c-.23.23-.55.16-.86.16.31-.16.55-.16.86-.16"/>
    <path class="st4" d="M98.81,29.17h-.47c.08-.23.23-.55.47,0"/>
    <path class="st4" d="M78.04,66.34c.16-.23.47-.16.7-.16-.23.16-.47.16-.7.16"/>
    <path class="st4" d="M62.57,88.37c-.16-.23-.16-.47-.08-.7.08.23.08.47.08.7"/>
    <path class="st4" d="M77.96,56.11c-.16.23-.47.16-.7.16.23-.16.47-.16.7-.16"/>
    <path class="st4" d="M81.71,34.95c-.16.23-.47.16-.7.16.23-.16.47-.16.7-.16"/>
    <path class="st4" d="M76.94,56.35c-.16.23-.47.16-.62.16.16-.16.39-.16.62-.16"/>
    <path class="st4" d="M73.27,57.36c-.16.16-.31.16-.47.16.16-.16.31-.16.47-.16"/>
    <path class="st4" d="M74.52,56.97c-.16.16-.31.16-.47.16.08-.16.23-.16.47-.16"/>
    <path class="st4" d="M76.08,56.58c-.16.16-.31.16-.55.16.16-.23.31-.23.55-.16"/>
    <path class="st4" d="M74.44,67.2c.16-.16.31-.16.55-.16-.23.16-.39.23-.55.16"/>
    <path class="st4" d="M63.35,80.64c0-.16-.08-.39.16-.55,0,.23,0,.39-.16.55"/>
    <path class="st4" d="M63.04,89.93c-.23-.16-.16-.31-.16-.55.16.16.16.39.16.55"/>
    <path class="st4" d="M80.46,35.18c-.16.16-.31.16-.47.16.16-.08.31-.16.47-.16"/>
    <path class="st4" d="M76.86,36.2c-.16.16-.31.16-.47.16.08-.08.23-.16.47-.16"/>
    <path class="st4" d="M79.6,35.42c-.16.16-.31.16-.47.16.16-.16.31-.16.47-.16"/>
    <path class="st4" d="M63.51,79.93c.08-.16.08-.23.16-.39,0,.16,0,.31-.16.39"/>
    <path class="st4" d="M76.16,66.73l.31-.08-.31.08Z"/>
    <path class="st4" d="M77.02,66.58l.31-.16-.31.16Z"/>
    <path class="st4" d="M62.81,83.84c0-.08.08-.23.08-.31.08.08,0,.16-.08.31"/>
    <path class="st4" d="M78.74,35.65c-.08.08-.23.08-.31.16.08-.08.23-.16.31-.16"/>
    <path class="st4" d="M69.99,39.09c-.08.08-.23.16-.31.16.08,0,.16-.08.31-.16"/>
    <path class="st4" d="M63.2,90.24c-.08-.08-.08-.23-.16-.31.16.08.16.23.16.31"/>
    <path class="st4" d="M89.28,132.8s-.08-.08-.08-.16c.08,0,.08.08.08.16"/>
    <path class="st4" d="M89.2,132.65c-.08-.08-.08-.16-.16-.16.08,0,.08.08.16.16"/>
    <path class="st4" d="M94.2,53.85c-.08.08-.08.16-.16.16,0-.08,0-.16.16-.16"/>
    <path class="st4" d="M63.04,82.04q0-.08.08-.16,0,.08-.08.16.08,0,0,0"/>
    <path class="st4" d="M62.73,84.54v-.16l.08-.08c0,.08,0,.16-.08.23"/>
    <path class="st4" d="M62.65,85.01q0-.08.08-.16c0,.08,0,.16-.08.16q.08,0,0,0"/>
    <path class="st4" d="M62.49,87.12q0-.08-.08-.16l.08-.08c.08.16.08.23,0,.23"/>
    <path class="st4" d="M63.59,91.33c0-.08-.08-.08-.08-.16,0,0,0,.08.08.16"/>
    <path class="st4" d="M60.07,66.97c0,.08-.08.08-.08.16q0-.08.08-.16"/>
    <path class="st4" d="M76.71,114.61c-.08,0-.08-.08-.08-.16,0,0,.08.08.08.16"/>
    <path class="st4" d="M76.94,114.92q-.08-.08-.16-.16.08.08.16.16"/>
    <path class="st4" d="M94.28,154.12c-.31-.86-1.02-1.33-1.72-1.72-2.26-1.25-4.53-2.34-6.87-3.51.94-.23,2.19.16,4.37,1.25,1.33.7,2.58,1.48,3.9,2.11-2.11-2.19-4.92-3.2-7.81-4.45,1.02-.39,1.72-.23,2.34.16,1.87.86,3.51,1.95,5.39,3.12,0-.55-.31-.78-.62-1.02-1.8-1.56-3.98-2.42-6.09-3.28q-.39-.16-.7-.7c1.56-.08,2.81.55,4.06,1.17.86.47,1.64,1.02,2.42,1.48.23.16.55.47.78.23.23-.31-.08-.62-.23-.86-.78-.94-1.8-1.41-2.89-1.87-1.41-.62-2.81-1.17-4.14-1.8-.23-.08-.39-.23-.78-.47.86-.16,1.48-.08,2.11.08,1.64.47,3.12,1.25,4.61,2.11.31.23.62.47,1.09.55.23.39.39.78.7,1.09.31.39.55.78.08,1.17-.08.08-.16.16-.16.23.39.7.08,1.48.39,2.19.16.39.31.62.16,1.02-.16.31,0,.62.16.86.08.39,0,.78-.55.86"/>
    <path class="st4" d="M25.63,55.57c.23,0,.47.16.62.31-.31,0-.55.08-.62-.31"/>
    <path class="st4" d="M93.19,112.89c.39,0,.7-.16.78-.47.08-.39-.39-.31-.62-.47-1.48-.94-2.58-2.11-3.36-3.83.55.08.78.39,1.02.7.86,1.02,1.95,1.87,3.12,2.58.31.16.62.16.94.16-.16.16-.47.08-.47.47-.16.94-.47,1.09-1.41.86"/>
    <path class="st4" d="M87.56,120.93c.23-.47.23-.78-.23-1.09-1.33-.94-2.34-2.19-3.12-3.59-.08-.16-.16-.39-.23-.55v-.55c1.41,1.72,2.66,3.2,4.3,4.37.16.39.16.78,0,1.17-.23.23-.39.62-.7.23"/>
    <path class="st4" d="M85.61,125.93c-1.8-1.56-2.97-3.44-3.67-5.7,1.25,1.72,2.66,3.2,4.06,4.84-.31.23-.39.55-.39.86"/>
    <path class="st4" d="M86.31,124.53c0-.39-.16-.55-.39-.78-1.17-1.25-2.26-2.66-3.12-4.14-.23-.39-.47-.7-.39-1.41,1.48,1.72,2.5,3.59,4.22,4.92,0,.47-.08.94-.31,1.41"/>
    <path class="st4" d="M89.52,117.42c.31-.55.08-.78-.31-1.17-1.25-1.02-2.34-2.19-2.97-3.67-.08-.16-.08-.23,0-.47,1.09,1.56,2.5,2.73,3.98,3.9.16.62.16,1.25-.7,1.41"/>
    <path class="st4" d="M86.94,122.73c.08-.47-.23-.78-.55-1.09-1.17-1.17-2.19-2.42-2.97-3.83-.16-.31-.39-.62-.16-1.09.94,1.72,2.26,2.97,3.75,4.14-.7.31,0,.62.08.78.31.47.62.86-.16,1.09"/>
    <path class="st4" d="M62.18,57.75c-.86-1.48-1.41-3.12-1.17-4.92,0-.23,0-.47.31-.7.39,1.56.62,3.2,1.33,4.61-.16.08-.23.23-.08.39.16.16.47.16.23.47-.16.39-.39.31-.62.16"/>
    <path class="st4" d="M90.76,115.54c.31-.39.08-.55-.23-.78-1.17-.86-2.11-1.87-2.89-3.05-.23-.31-.47-.62-.31-1.25,1.17,1.17,2.19,2.42,3.44,3.28-.47.55.31.47.39.78s.55.39.39.78c-.08.39-.47.23-.78.23"/>
    <path class="st4" d="M60.85,60.1c-.86-1.48-1.41-3.12-1.25-4.84,0-.31-.08-.7.39-1.09.16,1.72.7,3.2,1.33,4.69,0,.47.16,1.02-.47,1.25"/>
    <path class="st4" d="M59.06,63.53c-1.33-1.8-2.03-3.9-2.19-6.17.86,1.72,1.25,3.59,2.5,5.08-.16.31.31.86-.31,1.09"/>
    <path class="st4" d="M88.5,119.14c.23-.47.08-.78-.31-1.17-1.02-.86-1.95-1.87-2.73-3.05-.23-.39-.55-.78-.39-1.25.39,0,.39.23.55.39.78,1.33,2.03,2.34,3.2,3.28.16.16.39.16.55.16-.23.23-.31.39-.31.7-.08.47,0,.86-.55.94"/>
    <path class="st4" d="M92.01,114.3c.39-.39.08-.62-.16-.78-1.02-.78-1.8-1.64-2.5-2.66-.31-.39-.55-.78-.47-1.56.86,1.33,2.03,2.19,3.12,3.05-.31.55.23.55.39.86.16.23.62.47.47.86-.23.39-.62.23-.86.23"/>
    <path class="st4" d="M63.35,56.5c.23-.39.08-.7-.08-1.02-.7-1.48-.7-3.05-.7-4.69,0-.16.08-.31.31-.39.39,1.72.62,3.44,1.25,5-.55.16,0,1.09-.78,1.09"/>
    <path class="st4" d="M59.53,61.27c-1.17-1.41-1.25-3.12-1.33-4.84.78,1.41,1.09,3.05,2.03,4.37-.23.16-.47.31-.7.47"/>
    <path class="st4" d="M58.12,65.64c.08-.7-.39-1.17-.7-1.72-.55-1.17-1.17-2.34-1.09-3.75.47,1.48,1.17,2.73,2.19,3.9-.16.23-.16.55,0,.78.39.47.16.7-.39.78"/>
    <path class="st4" d="M57.5,67.44c-.23-.94-.7-1.64-1.48-2.19,0-.23.08-.39.31-.31s.47,0,.62-.16c.23.39.55.78.78,1.17-.31.47.08,1.02-.23,1.48"/>
    <path class="st4" d="M86.63,56.27c-1.48.31-2.89.23-4.37.31,0-.16.08-.23.23-.31,1.33-.08,2.73-.16,4.14,0"/>
    <path class="st4" d="M95.22,110.86c-1.02-.31-1.87-.78-2.5-1.64.39,0,.7,0,.94.31.39.62,1.25.62,1.56,1.33"/>
    <path class="st4" d="M76.86,37.21c-.39.23-.86.39-1.41.47.31-.94.94-.39,1.41-.47"/>
    <path class="st4" d="M79.52,36.43c-.39.23-.78.31-1.25.39.23-.62.7-.7,1.25-.39"/>
    <path class="st4" d="M90.92,55.72c-.39.23-.78.23-1.25.23.39-.55.78-.39,1.25-.23"/>
    <path class="st4" d="M55.23,56.82c.16.62.16,1.25.16,1.87-.16-.62-.08-1.25-.16-1.87"/>
    <path class="st4" d="M78.89,56.97c-.23.23-.55.16-.86.16.23-.55.55-.39.86-.16"/>
    <path class="st4" d="M86,126.48c-.16-.16-.23-.31-.39-.55.23,0,.47-.16.62.16.16.16-.08.31-.23.39"/>
    <path class="st4" d="M80.85,56.66c-.31.16-.62.16-.94.16.23-.62.62-.08.94-.16"/>
    <path class="st4" d="M59.68,62.2c.08-.16.16-.31.23-.55.16.08.31.16.23.39-.16.23-.31.16-.47.16"/>
    <path class="st4" d="M77.72,57.13c-.23.16-.47.16-.7.16.08-.55.47-.08.7-.16"/>
    <path class="st4" d="M89.36,55.96c-.23.16-.47.16-.7.16.23-.16.47-.08.7-.16"/>
    <path class="st4" d="M85.84,127.18c.08-.08.08-.16.16-.23,0,.08.16.31-.16.23"/>
    <path class="st4" d="M72.96,58.38c-.08.16-.16.23-.31.16.16,0,.23-.08.31-.16"/>
    <path class="st4" d="M91.55,107.11l-.16-.31c.08.16.16.23.16.31"/>
    <path class="st4" d="M69.76,104.69c.16.08.16.23.16.39-.16-.08-.16-.23-.16-.39"/>
    <path class="st4" d="M58.9,63.84c.08-.08.08-.23.16-.31,0,.08-.08.23-.16.31"/>
    <path class="st4" d="M74.99,37.84c-.08,0-.08.08-.16.08.08,0,.08-.08.16-.08"/>
    <path class="st4" d="M88.42,119.37c.08-.08.08-.16.16-.16-.08,0-.16.08-.16.16"/>
    <path class="st4" d="M91.7,55.57c-.08,0-.16.08-.23.08.08,0,.16-.08.23-.08"/>
    <path class="st4" d="M75.54,37.68c-.08,0-.16.08-.16.08,0,0,.08-.08.16-.08"/>
    <path class="st4" d="M57.11,67.83h.16c0,.08-.08.08-.16,0"/>
    <path class="st4" d="M57.26,67.75c.08-.08.08-.16.16-.23,0,.08-.08.16-.16.23"/>
    <path class="st4" d="M59.84,61.5c-.08-.08-.16-.08-.16-.16,0,.08.08.16.16.16"/>
    <path class="st4" d="M55.54,60.33v.16q-.08-.08,0-.16-.08,0,0,0"/>
    <path class="st4" d="M91.7,107.5c0-.08-.08-.08-.08-.16,0,.08.08.08.08.16"/>
    <path class="st4" d="M55.47,59.63c0,.08.08.08,0,.16v-.16c-.08,0,0,0,0,0"/>
    <path class="st4" d="M92.09,108.2c0-.08-.08-.08-.08-.16,0,0,.08.08.08.16"/>
    <path class="st4" d="M92.33,108.52c0-.08-.08-.08-.08-.16q0,.08.08.16"/>
    <path class="st4" d="M73.51,58.22c-.08,0-.08.08-.16.08.08,0,.16-.08.16-.08"/>
    <path class="st4" d="M74.91,57.75c-.08,0-.08.08-.16.08q.08,0,.16-.08"/>
    <path class="st4" d="M95.37,111.01c-.08-.08-.16-.08-.16-.16q.08.08.16.16"/>
    <path class="st4" d="M95.45,111.17c0-.08-.08-.08-.08-.16q.08.08.08.16h0"/>
    <path class="st4" d="M89.36,117.58c.08-.08.08-.16.16-.16-.08,0-.08.08-.16.16"/>
    <path class="st4" d="M97.87,31.36c-.47.62-.94,1.17-1.33,1.8-.23-.94.39-1.72,1.33-1.8"/>
    <path class="st4" d="M64.21,74.7c.31-.47.39-.78,0-1.33-.78-1.25-1.56-2.58-1.72-4.14,0-.31,0-.62.08-1.02.39.16.39.55.47.78.31,1.33,1.02,2.42,1.64,3.59.16.23.23.7.62.39.31-.16.39-.55.16-.94-.39-.86-.86-1.72-1.25-2.58-.31-.78-.62-1.64-.39-2.5.31,0,.31.23.39.39.39,1.17.78,2.42,1.48,3.44.16.23.23.86.7.62.47-.23.16-.62-.08-1.02-.55-1.02-.94-2.03-1.25-3.12-.16-.47-.16-1.02-.08-1.56.55,1.56,1.25,3.05,2.26,4.37-.23.16-.23.31-.16.55.31.7.16,1.17-.7,1.17-.31,0-.31.16-.31.47,0,.55-.08,1.17-.78,1.33-.31.08-.39.31-.47.55.16.31-.16.55-.62.55"/>
    <path class="st4" d="M62.57,78.76c.23-.55.16-.94-.23-1.41-1.09-1.48-1.72-3.2-2.11-5-.08-.23-.16-.47.08-.62.31.08.31.39.39.62.31,1.48,1.09,2.73,1.95,3.98.16.23.23.62.62.47.23-.08.31-.47.39-.78.08-.39-.16-.62-.39-.94-.7-1.17-1.33-2.34-1.72-3.67-.16-.47-.23-.94,0-1.41.55,1.8,1.33,3.36,2.5,4.76.08.39.16.7.23,1.09.08.55-.08,1.09-.62,1.33-.31.16-.39.31-.31.62.23.55-.31.78-.78.94"/>
    <path class="st4" d="M67.49,70.01c.62-.08.47-.47.31-.86-.62-1.02-1.02-2.19-1.33-3.28-.16-.47-.23-.94.08-1.64.31,1.02.47,1.8.86,2.5.31.62.62,1.25,1.02,1.8.16.23.39.47.7.23.31-.23.23-.47.08-.78-.47-1.09-.78-2.19-1.02-3.36-.08-.23-.16-.55.08-.86.47.31.47.78.62,1.17.47,1.02.55,2.19,1.33,3.05-.31.47-.55.94-1.25.94-.31,0-.39.23-.47.47-.08.78-.47.86-1.02.62"/>
    <path class="st4" d="M80.07,65.17c.47-.08.31-.47.31-.78.08-1.02,0-2.11.23-3.12.08-.31.08-.55.62-.78.08,1.25.08,2.42.16,3.59,0,.31-.16.86.47.78.62,0,.39-.47.47-.86,0-.86-.08-1.72.08-2.58.08-.31.08-.62.47-.86.23,1.48,0,2.97.47,4.37-.86.39-1.8-.16-2.66.39-.16.08-.39-.08-.62-.16"/>
    <path class="st4" d="M90.45,65.25c.47-.16.16-.47.08-.7-.31-1.33-.16-2.58-.08-3.9,0-.23,0-.55.39-.7.23,1.72.31,3.44.94,5-.31.47-.7.86-1.33.31"/>
    <path class="st4" d="M74.91,65.88c.55,0,.62-.23.55-.78-.16-1.17-.23-2.34,0-3.51,0-.16.08-.47.31-.47.31,0,.16.31.16.47.16,1.25.31,2.5.55,3.75-.39.7-.86,1.17-1.56.55"/>
    <path class="st4" d="M72.1,67.2c.23-.23.16-.55.08-.78-.23-1.09-.39-2.26-.39-3.44,0-.39-.08-.78.39-1.17.16,1.72.39,3.36,1.17,4.76-.47.08-.55,1.02-1.25.62"/>
    <path class="st4" d="M73.43,66.58c.47-.23.39-.55.31-.94-.31-1.17-.23-2.42-.08-3.67,0-.23.08-.47.47-.7.16,1.48.23,2.97.62,4.45-.23.62-.62,1.02-1.33.86"/>
    <path class="st4" d="M70.3,68.06c.47-.31.62-.62.39-1.17-.47-1.09-.62-2.26-.7-3.51,0-.31-.08-.62.31-.86.39,1.64.47,3.28,1.41,4.61,0,1.02-.7,1.02-1.41.94"/>
    <path class="st4" d="M83.35,64.94c.47-1.09.23-2.19.47-3.28.08-.47,0-.94.55-1.33.31,1.56.08,3.12.47,4.61h-1.48Z"/>
    <path class="st4" d="M88.97,65.09c.08-1.41-.31-2.81-.16-4.22,0-.31,0-.7.39-1.09.16,1.8.39,3.44.78,5.08-.31.08-.62.31-1.02.23"/>
    <path class="st4" d="M76.63,65.48c.62,0,.55-.47.55-.86-.08-1.02-.16-2.03,0-3.05,0-.23,0-.55.31-.47.23,0,.16.31.16.55.08,1.17.23,2.34.55,3.51-.39.47-.94.47-1.56.31"/>
    <path class="st4" d="M85.53,64.86c.23-1.41,0-2.81.55-4.22.39,1.41.23,2.81.62,4.14-.39.16-.78.47-1.17.08"/>
    <path class="st4" d="M78.66,65.33c.31-.39.16-.86.16-1.25v-2.34c0-.31,0-.62.55-.78.16,1.41,0,2.81.55,4.14-.39.16-.78.47-1.25.23"/>
    <path class="st4" d="M87.25,65.02c.39-.62.08-1.25.16-1.87,0-.86-.08-1.64.39-2.5.55,1.41.16,2.97.7,4.3-.47.23-.86.16-1.25.08"/>
    <path class="st4" d="M13.76,64.55c.16.23.16.55.08.86-.16-.23-.08-.55-.08-.86"/>
    <path class="st4" d="M13.53,63.61c.16.16.16.31.16.47-.16-.16-.16-.31-.16-.47"/>
    <path class="st4" d="M13.84,66.97c.08.08.08.23,0,.31v-.31"/>
    <path class="st4" d="M66.87,101.64c0,.16.08.16.16.16,0,.39-.23.39-.55.31-2.34-.62-4.61-1.33-6.87-2.19-.08,0-.08-.16-.16-.23.55-.39,1.17-.31,1.8-.23,1.72.23,3.2,1.09,4.76,1.8.23.23.47.55.86.39"/>
    <path class="st4" d="M53.9,61.11c-.39.23-.62.08-.86,0-1.41-.78-2.81-1.56-4.22-2.34-.16-.08-.47-.23-.39-.47.08-.16.31-.16.47-.16,1.95.62,3.51,1.72,5,2.97"/>
    <path class="st4" d="M47.19,50.65c.47-.31,1.02-.23,1.48-.08,1.48.47,2.81,1.25,4.14,2.03.16.08.39.23.31.47-.08.16-.31.16-.47.08-1.8-.94-3.67-1.56-5.47-2.5"/>
    <path class="st4" d="M53.43,56.89c-.31.16-.55.08-.7,0-1.33-.78-2.81-1.33-4.14-1.95-.23-.08-.55-.16-.47-.39.08-.31.39-.23.7-.16.78.08,1.48.47,2.19.86.78.31,1.72.78,2.42,1.64"/>
    <path class="st4" d="M47.73,56.19c1.41-.16,5.15,1.87,5.7,3.05-1.95-.94-3.75-1.8-5.7-3.05"/>
    <path class="st4" d="M47.73,52.6c2.03.16,3.83.94,5.31,2.26,0,.08-.08.16-.08.23-1.8-.7-3.59-1.48-5.31-2.19l.08-.31Z"/>
    <path class="st4" d="M87.48,132.02c0,.16-.08.39-.31.31-1.56-.55-3.05-1.17-4.53-1.95,1.8-.08,3.2,1.09,4.84,1.64h0Z"/>
    <path class="st4" d="M53.36,63.06c-1.8-.55-3.12-1.48-4.61-2.34.94-.16,3.83,1.33,4.61,2.34"/>
    <path class="st4" d="M52.89,64.55c-1.17-.16-2.03-.78-2.73-1.64,1.25-.16,1.87.94,2.73,1.64"/>
    <path class="st4" d="M80.46,127.65c.94-.08,3.05.86,3.98,1.8-1.56-.47-2.66-1.25-3.98-1.8"/>
    <path class="st4" d="M21.49,21.44v.16c-.16-.16-.08-.16,0-.16h0Z"/>
    <path class="st4" d="M85.14,162.56c-4.14-.16-8.12-.47-12.1-1.17-.78-.16-1.56-.31-2.42-.47-.31-.08-.55-.23-.62-.55-.08-.39.31-.39.55-.47,1.33-.7,2.42-1.87,3.59-2.73,3.05-2.11,6.33-3.36,10.07-2.66,1.64.31,3.2.86,4.53,1.95,2.11,1.8,1.72,4.3-.78,5.39-.94.39-1.87.62-2.81.7M82.1,155.22c-3.75.16-6.79,1.8-9.37,4.45-.16.16-.39.31-.31.55.08.31.39.16.62.16.39.08.86.16,1.25.23,3.59.62,7.26,1.02,10.93.86,1.17-.08,2.19-.47,3.12-1.25.86-.78,1.02-1.95.31-2.81-.55-.62-1.17-1.17-2.03-1.48-1.48-.47-2.97-.7-4.53-.7"/>
    <path class="st4" d="M92.56,101.8c1.72,1.33,3.44,2.58,4.14,4.76.23.7.31,1.48-.31,2.03-.47.31-1.33-.08-1.87-.86-1.33-1.87-1.72-3.9-1.95-5.94"/>
    <path class="st4" d="M97.48,33.93c0,2.19.47,4.37-.31,6.56-.23.62-.39,1.56-1.33,1.41-.86-.16-.78-1.09-.78-1.8.16-2.34,1.17-4.3,2.42-6.17"/>
    <path class="st4" d="M93.73,86.26c-.23.55,0,1.33-.78,1.64-.62.31-1.64-.08-2.11-.7-.39-.47-.55-1.09-.78-1.64-.55-1.48-.78-3.05-1.02-4.61,0-.16-.08-.39.08-.47.08-.08.23,0,.31.08,1.48,1.64,3.36,2.89,4.06,5.15.08.16.16.31.23.55"/>
    <path class="st4" d="M32.58,146.7c.94-1.17,1.87-2.34,2.73-3.51s2.03-1.48,3.28-1.02c1.09.39,1.56,1.48,1.02,2.5-.55,1.09-1.48,1.64-2.66,1.8-1.48.16-2.89-.08-4.37.23"/>
    <path class="st4" d="M13.29,102.27c.62-1.17.94-2.42,1.41-3.59.39-1.09,1.02-2.03,1.95-2.73s2.11-.78,2.81-.08c.62.55.7,1.87.08,2.73-.86,1.25-2.11,1.95-3.51,2.42-.94.31-1.87.7-2.73,1.25"/>
    <path class="st4" d="M9.78,72.12c-.23-.08-.31-.23-.31-.39,0-1.72-.7-3.2-1.17-4.84-.31-1.02-.16-2.03.31-2.97.31-.62.7-.62,1.17-.31.7.55,1.17,1.17,1.33,2.03.47,2.42-.39,4.45-1.33,6.48"/>
    <path class="st4" d="M14.54,112.5c.86,1.64,2.03,3.12,2.19,5.08.08,1.09-.31,2.19-.94,2.26-.55.08-1.25-.7-1.48-1.8-.23-.94-.31-1.8-.23-2.81.08-.94.23-1.8.47-2.73"/>
    <path class="st4" d="M95.76,55.64c1.02,2.03,1.41,4.06,1.33,6.33,0,.23-.08.39-.16.55-.23.55-.55,1.09-1.25,1.09-.62,0-.86-.55-1.09-1.02-.86-1.87-.31-3.59.47-5.39.23-.47.62-.94.7-1.56"/>
    <path class="st4" d="M75.38,159.51c2.34-1.25,4.76-2.19,7.34-2.58,1.02-.16,2.03-.08,2.97.47,1.02.55,1.02,1.64.08,2.26-.55.39-1.09.47-1.72.55-2.26.31-4.37-.23-6.56-.47-.78-.16-1.41-.23-2.11-.23"/>
  </g>
</svg>