<?xml version="1.0" encoding="UTF-8"?>
<svg id="Layer_1" xmlns="http://www.w3.org/2000/svg" version="1.1" viewBox="0 0 109.6 176.97">
  <!-- Generator: Adobe Illustrator 30.2.1, SVG Export Plug-In . SVG Version: 2.1.1 Build 1)  -->
  <defs>
    <style>
      .st0 {
        fill: #0e80c3;
      }

      .st1 {
        fill: #1d1c1a;
      }

      .st2 {
        fill: none;
        stroke: #1d1c1a;
        stroke-miterlimit: 10;
        stroke-width: 1.26px;
      }

      .st3 {
        fill: #d81f26;
      }

      .st4 {
        fill: #fff;
      }

      .st5 {
        fill: #fddb00;
      }
    </style>
  </defs>
  <rect class="st4" x="-.5" y="-.07" width="110.69" height="177.1"/>
  <g>
    <polyline class="st2" points="47.03 171.42 3.77 171.42 3.77 5.55 46.49 5.55"/>
    <polyline class="st2" points="57.89 5.55 105.92 5.55 105.92 171.42 58.59 171.42"/>
    <path class="st1" d="M10.1,15.31c.31,0,.55,0,.62-.08.16-.08.23-.16.31-.23.08-.08.16-.23.23-.47h.78l-.08,2.5h-6.25v-.47c.16-.47.47-.94.86-1.41.39-.55.78-1.09,1.33-1.72.47-.55.86-1.09,1.09-1.41.23-.39.47-.7.55-1.09.16-.31.16-.7.16-1.02,0-.47-.08-.94-.31-1.17-.23-.31-.55-.47-.94-.47s-.7.16-.94.39-.39.7-.55,1.25h-1.09v-1.64c.55-.23,1.02-.39,1.33-.47s.62-.16.94-.23.62-.08,1.02-.08c.7,0,1.25.08,1.64.23s.7.39.94.7c.16.31.31.7.31,1.09s-.08.7-.23,1.02c-.16.31-.39.7-.7,1.09s-.86.94-1.64,1.72c-.31.31-.7.7-1.02,1.02-.31.39-.55.62-.7.86v.08h2.34Z"/>
    <path class="st1" d="M98.42,161.74c-.31,0-.55,0-.62.08-.16.08-.23.16-.31.23s-.16.23-.23.47h-.78l.16-2.5h6.25v.47c-.16.47-.47.94-.86,1.41-.39.55-.78,1.09-1.33,1.72-.47.55-.86,1.09-1.09,1.41-.23.39-.47.7-.55,1.09-.16.31-.16.7-.16,1.02,0,.47.08.94.31,1.17.23.31.55.47.94.47s.7-.16.94-.39.39-.7.55-1.25h1.25v1.64c-.55.23-1.02.39-1.33.47s-.62.16-.94.23-.62.08-1.02.08c-.7,0-1.25-.08-1.64-.23s-.7-.39-.94-.7c-.16-.31-.31-.7-.31-1.09s.08-.7.23-1.02.39-.7.7-1.09.86-.94,1.64-1.72l1.02-1.02c.31-.39.55-.62.7-.86v-.08h-2.58Z"/>
    <path class="st5" d="M10.25,74.35c-.78-.31-1.33-.47-1.87-.7-.16-.08-.39,0-.62,0,0,.23,0,.55.08.7,1.17,2.58,2.26,5.08,3.44,7.58v.31c-.55.16-1.09.23-1.64.39-2.42.78-3.05,2.66-2.11,4.84.31.78.78.78,1.33.16.47-.47,1.09-1.02,1.72-1.17,1.95-.47,3.67.55,5.39,1.17q-.55,1.25-1.64,1.17h-1.09c-1.17.08-1.8.7-1.95,1.87,0,.23-.16.55-.31.7-.78.7-1.72,1.33-2.5,2.03-1.48,1.41-2.26,3.12-2.03,5.31.23,2.19,1.8,3.59,3.51,2.89.94-.39,1.09-.08,1.33.7.47,1.64,1.56,2.19,3.2,1.64.47-.16.94-.39,1.48-.62.7,1.17,1.64,2.11,3.12,1.72,1.41-.31,1.95-1.56,2.58-2.73,1.09.39,2.11.55,2.97-.39.7-.78,1.02-1.72.94-2.73-.39-2.89-1.72-5.08-4.3-6.48-.23-.16-.55-.39-.62-.62-.31-1.41-1.25-2.11-2.42-2.66-.23-.08-.39-.39-.62-.62.31-.16.7-.47.94-.39,2.34.62,4.69.62,7.11.55,1.33-.08,2.66.16,4.06.23-.16.39-.23.62-.39.7-1.17,1.17-1.56,2.73-1.8,4.3-.08.39.08.7.08,1.09.31-.16.62-.23.94-.47,1.17-.78,2.42-1.33,3.83-1.48,1.02-.08,2.03-.31,3.05-.62.47-.16.62-.08.94.31.62.7,1.41,1.33,2.19,2.11.31-2.26,2.03-4.37,3.67-4.61,1.72-.23,3.36-.31,5,1.02-.31.16-.47.16-.62.23-1.33.62-2.11,1.64-2.19,3.12-.08,1.56.47,2.97,2.03,3.67,2.58,1.25,4.69.78,6.72-1.64.86-1.02,1.02-1.41,1.72,0,.08.23.23.39.39.55,1.48,1.95,4.22,2.58,6.25,1.41,2.26-1.33,2.89-3.51,1.87-5.94-.08-.23-.16-.47-.31-.86,2.81.94,4.84,2.42,4.84,5.62,2.73-.7,2.26-2.81,2.26-4.76,2.42,2.5,5.54,2.97,8.59,3.51.08-.08.16-.16.16-.23-1.25-1.8-2.5-3.51-3.83-5.31l.23-.23c.23,0,.47.08.7.16,3.9,1.09,7.58.7,11.17-1.25.16-.08.39-.23.62-.23,1.17.16,2.26.23,3.44.47.39.08.62.62.86,1.02,0,.08-.39.39-.62.62-.55.39-1.09.78-1.64,1.17-.47.31-.94.7-1.41.94-2.89,1.09-4.84,3.05-5.39,6.17-.39,2.34.62,3.75,3.12,3.83.23,0,.55.08.7.23.86,1.09,1.95,1.25,3.12.78.94-.47,1.17-.08,1.56.62,1.09,1.8,2.81,1.87,4.14.16.08-.08.16-.16.16-.16.23-.39.55-.47,1.02-.23,2.26,1.02,4.37-.23,4.76-2.73.39-2.81-.86-5-2.73-6.87-.47-.47-.78-.86-.78-1.56,0-.39-.23-.94-.55-1.17-.55-.39-1.25-.7-1.87-.86-1.02-.31-1.41-.62-1.56-1.72,0-.23.16-.62.39-.78,2.03-1.33,4.14-2.66,6.25-3.98-.31-.16-.62-.31-.86-.47-.47-.23-1.02-.47-1.48-.7.23-.47.55-.94.78-1.48.86-2.03,1.64-4.06,2.5-6.09-.08-.08-.23-.16-.31-.23-.78.39-1.56.78-2.34,1.17.16-2.42.23-4.76.39-7.42-.55.55-1.02.86-1.33,1.33-1.25,2.19-2.5,4.37-3.67,6.56-.62,1.17-1.17,2.34-2.34,3.12.31-1.48.62-2.89,1.02-4.45-.94.7-1.64,1.33-2.42,1.72-.78.47-1.48,1.09-2.42,1.17.39-1.48.7-2.89,1.09-4.22-.08,0-.16-.08-.23-.08-2.26,2.58-5.08,4.14-8.12,5.54-.16-1.56-.31-3.05-.55-4.53-.08,0-.23,0-.31-.08-1.25,3.05-3.51,5-6.56,6.17.08-.39.23-.78.39-1.09,1.09-1.87,1.8-3.83,1.17-6.01-.16-.47-.47-.86-.7-1.33-.23.23-.31.23-.31.31-.7,2.03-2.19,3.28-3.9,4.45-1.64,1.09-3.51,1.09-5.31,1.64-.55.16-.94,0-1.33-.39-2.66-2.42-5.62-3.98-9.22-3.9-3.51.08-6.4,1.56-8.9,3.9-.47.39-.86.47-1.33.23-1.25-.62-2.58-1.17-3.9-1.72-2.26-.86-3.9-2.42-5.31-4.37-.16-.16-.31-.31-.55-.55-.78,3.59,1.09,6.17,2.81,8.82-1.56-.39-2.11-1.02-6.09-6.87-.94,1.33-.62,2.97-.86,4.37-3.05-2.11-5.94-4.14-8.9-6.17.16,1.09.39,2.11.55,3.12-.16.08-.23.16-.39.16-1.25-1.48-2.5-3.05-3.83-4.69-.78,2.03-.08,3.83,0,5.7-.39-.39-.7-.86-1.02-1.33-2.03-2.5-3.12-5.62-5.47-7.89-.94-.94-1.95-1.8-2.97-2.73-.08.08-.16.16-.23.16,1.48,2.5,1.8,5.23,2.26,8.2"/>
    <path class="st1" d="M10.25,74.35c-.47-2.89-.7-5.62-2.19-8.12.08-.08.16-.16.23-.16,1.02.94,1.95,1.8,2.97,2.73,2.34,2.26,3.44,5.31,5.08,8.04.31.47.62.94,1.02,1.33-.08-1.87-.78-3.75,0-5.7,1.33,1.64,2.58,3.2,3.83,4.69.16-.08.23-.16.39-.16-.16-1.02-.31-1.95-.55-3.12,2.97,2.03,5.94,4.06,8.9,6.17.23-1.41-.16-2.97.86-4.37,3.98,5.86,4.53,6.56,6.09,6.87-1.72-2.73-3.59-5.31-2.81-8.82.23.31.47.39.55.55,1.33,1.95,3.05,3.51,5.31,4.37,1.33.55,2.58,1.09,3.9,1.72.55.23.86.23,1.33-.23,2.5-2.34,5.39-3.83,8.9-3.9,3.67-.08,6.64,1.56,9.22,3.9.39.39.78.55,1.33.39,1.8-.55,3.67-.55,5.31-1.64,1.72-1.17,3.2-2.42,3.9-4.45,0-.08.08-.16.31-.31.23.47.55.86.7,1.33.62,2.19-.08,4.14-1.17,6.01-.16.31-.31.7-.39,1.09,3.05-1.17,5.31-3.12,6.56-6.17.08,0,.23,0,.31.08.16,1.48.31,2.97.55,4.53,3.05-1.41,5.94-2.97,8.12-5.54.08,0,.16.08.23.08-.31,1.33-.7,2.73-1.09,4.22,1.02-.08,1.72-.78,2.42-1.17.78-.47,1.48-1.02,2.42-1.72-.39,1.64-.62,2.97-1.02,4.45,1.17-.86,1.72-1.95,2.34-3.12,1.17-2.19,2.42-4.37,3.67-6.56.23-.47.78-.78,1.33-1.33-.16,2.58-.23,4.92-.39,7.42.78-.39,1.56-.78,2.34-1.17.08.08.23.16.31.23-.78,2.03-1.64,4.06-2.5,6.09-.23.55-.47,1.02-.78,1.48.47.23,1.02.47,1.48.7.31.16.55.31.86.47-2.11,1.33-4.22,2.66-6.25,3.98-.23.16-.39.55-.39.78.08,1.09.55,1.41,1.56,1.72.62.23,1.33.47,1.87.86.31.23.55.78.55,1.17,0,.7.31,1.17.78,1.56,1.87,1.87,3.12,4.06,2.73,6.87-.31,2.5-2.5,3.75-4.76,2.73-.47-.23-.78-.16-1.02.23-.08.08-.08.16-.16.16-1.25,1.72-3.05,1.64-4.14-.16-.39-.7-.7-1.02-1.56-.62-1.09.55-2.26.39-3.12-.78-.16-.16-.47-.23-.7-.23-2.5-.08-3.51-1.48-3.12-3.83.47-3.12,2.42-5.08,5.39-6.17.55-.16.94-.62,1.41-.94.55-.39,1.09-.78,1.64-1.17.23-.16.62-.55.62-.62-.23-.39-.47-.94-.86-1.02-1.09-.23-2.26-.39-3.44-.47-.23,0-.47.08-.62.23-3.51,1.95-7.26,2.34-11.17,1.25-.23-.08-.47-.08-.7-.16l-.23.23c1.25,1.8,2.5,3.51,3.83,5.31-.08.08-.16.16-.16.23-3.05-.55-6.17-1.02-8.59-3.51.08,1.95.47,4.06-2.26,4.76,0-3.2-2.03-4.69-4.84-5.62.16.39.23.62.31.86,1.02,2.5.39,4.69-1.87,5.94-2.03,1.17-4.76.55-6.25-1.41-.16-.16-.31-.39-.39-.55-.7-1.41-.86-1.02-1.72,0-2.03,2.42-4.06,2.89-6.72,1.64-1.48-.7-2.11-2.11-1.95-3.67.08-1.48.94-2.5,2.19-3.12.16-.08.23-.08.62-.23-1.56-1.33-3.28-1.25-5-1.02-1.64.23-3.36,2.34-3.67,4.61-.78-.78-1.56-1.41-2.19-2.11-.31-.39-.47-.39-.94-.31-1.02.31-2.03.47-3.05.62-1.41.16-2.66.62-3.83,1.48-.31.16-.62.31-.94.47,0-.39-.16-.78-.08-1.09.23-1.56.62-3.12,1.8-4.3.16-.16.16-.39.39-.7-1.48-.08-2.81-.31-4.06-.23-2.42.08-4.76.08-7.11-.55-.23-.08-.62.23-.94.39.23.23.39.47.62.62,1.17.55,2.11,1.25,2.42,2.66.08.23.31.47.62.62,2.66,1.33,3.98,3.59,4.3,6.48.16,1.02-.23,1.95-.94,2.73-.86.94-1.87.78-2.97.39-.62,1.17-1.09,2.42-2.58,2.73-1.56.31-2.42-.62-3.12-1.72-.55.23-1.02.47-1.48.62-1.64.55-2.73,0-3.2-1.64-.23-.78-.39-1.09-1.33-.7-1.64.7-3.2-.7-3.51-2.89-.23-2.11.62-3.83,2.03-5.31.78-.78,1.64-1.33,2.5-2.03.16-.16.23-.47.31-.7.16-1.17.78-1.8,1.95-1.87h1.09q1.17.08,1.64-1.17c-1.72-.7-3.44-1.72-5.39-1.17-.62.16-1.25.62-1.72,1.17-.55.62-1.02.62-1.33-.16-.94-2.19-.31-4.14,2.11-4.84.55-.16,1.09-.23,1.64-.39v-.31c-1.17-2.5-2.34-5.08-3.44-7.58-.08-.23-.08-.47-.08-.7.23,0,.47-.08.62,0,.78-.08,1.33.16,2.11.47M33.76,83.8c2.26,2.5,5.15,2.89,8.28,2.42-2.26-.78-4.53-1.56-6.33-3.12-1.72-1.56-3.28-3.36-5-5.08-.31,1.72,0,3.44,1.02,4.92,1.02,1.48,2.19,2.81,3.2,3.98-1.25.86-2.81,1.72-4.06,2.81-1.8,1.56-2.66,3.59-2.26,4.45,1.41-1.09,3.12-1.25,4.84-1.33,1.02-.08,1.95-.39,2.66-1.17.16-.16.31-.23.55-.47.08,1.25.39,2.19,1.48,2.81,1.56-3.12,3.98-5.15,7.34-6.17-.55-.39-1.09-.62-1.56-.62-4.22,0-7.89,1.33-11.09,4.06-.23.23-.55.47-.78.62l-.16-.23c2.03-2.5,4.84-3.51,7.73-4.61-2.42-.62-4.69-1.02-5.86-3.28M23.76,83.72c-.62,0-1.02.16-1.41,0-.47-.16-.94-.47-1.41-.78-2.89-2.03-5-4.84-6.72-7.89-1.02-1.87-2.34-3.59-3.44-5.39-.16-.16-.23-.39-.31-.62-.08.08-.16.16-.23.23,0,.08-.08.23,0,.31.47,5.31,2.81,9.76,6.48,13.51,3.12,3.2,7.11,4.61,11.4,5.08.7.08,1.48,0,2.19-.08v-.31c-3.28-.47-6.56-1.09-9.22-3.36,2.58,1.64,5.47,2.42,8.51,2.66,0-.08.08-.16.08-.23-2.11-1.02-4.14-2.11-5.94-3.12M68.59,96.92c.86-1.02,1.17-2.03.94-3.12s-.86-1.87-1.8-2.42c-1.17-.7-2.34-1.17-3.59-1.72-.23-.16-.47-.31-.78-.47.23-.23.39-.47.62-.62.86-.31,1.72-.62,2.66-.78,3.12-.39,6.09-1.09,8.75-2.73,1.87-1.17,3.44-2.66,3.98-4.92.08-.31.08-.7.08-1.17-1.41,1.17-2.66,2.19-3.9,3.2-.94.7-1.95,1.33-3.28,1.33-.23,0-.55.16-.7.39-1.48,1.41-3.28,2.11-5.23,2.58-2.5.55-4.84,1.33-6.56,3.36-.31.39-.62.94-1.02,1.48,5.15-.86,8.2,1.25,9.84,5.62M96.86,77.63l.16.16c-.94,3.28-2.73,5.94-5.39,8.04,2.81-1.25,4.69-3.36,5.54-6.33.7-2.11,1.25-4.3.7-6.72-.23,0-.23.16-.23.23-.78,1.48-1.56,2.97-2.26,4.53-1.33,2.73-3.2,5-5.86,6.48-2.66,1.48-5.39,2.42-8.43,2.11-.55-.08-1.17.23-1.8.31,0,.08.08.23.08.31.39,0,.7-.08,1.09,0,1.41.08,2.89.31,4.3.31,4.76.08,8.12-2.34,10.46-6.33.55-.94,1.09-2.03,1.64-3.12M22.12,75.99c.08.31.08.55.16.78,1.64,4.3,4.37,7.58,8.59,9.53.23.08.55.08.78.08l.08-.23c-1.25-1.02-2.5-1.95-3.75-3.05-1.17-1.09-2.26-2.26-2.89-3.75,2.03,2.5,4.14,4.76,7.03,6.09-1.64-4.76-5.62-7.18-10-9.45M53.91,77.08c-.55.08-1.17.23-1.72.31-2.26.31-4.14,1.25-5.86,2.73-.39.31-.31.94.23,1.17.62.31,1.02.16,1.48-.39.39-.39.86-.78,1.41-1.02.55-.31,1.17-.39,1.72-.62,1.64-.62,3.36-.7,4.92-.23,1.25.31,2.34,1.09,3.44,1.72.7.39,1.25.86,2.11.31.62-.39.7-.55.16-1.02-2.26-1.72-4.84-2.89-7.89-2.97M74.91,89.81c2.42,1.87,10.7,1.09,11.56-.55-1.64-1.95-11.87-2.11-13.82-.08,3.51,0,6.95.08,10.31.08v.23l-8.04.31ZM77.18,95.67c-1.33-4.06-8.36-8.28-11.64-6.95,1.33.55,2.58,1.09,3.83,1.72,1.17.62,2.26,1.48,3.44,2.19l-.08.08c-1.72-.86-3.36-1.8-5.08-2.66-.08.08-.16.16-.16.31,1.56,1.25,3.05,2.66,4.69,3.75,1.48,1.09,3.12,1.56,5,1.56M14.86,100.51h-.16c-.16-.16-.39-.39-.39-.55,0-.7.16-1.41.16-2.11,0-1.09,0-2.19-.08-3.36,0-.31-.39-.62-.55-.86-.23.23-.55.39-.7.62-.39.7-.78,1.48-1.02,2.26-.62,1.95-.7,3.9.08,5.86.47,1.17,1.41,1.48,2.34.7.55-.47.86-1.17,1.33-1.8l-.23-.16c-.23.16-.47.31-.86.62.08-.55.08-.86.08-1.25M79.13,85.91c2.97-.39,8.28-5.31,8.12-7.81-.16.08-.31.23-.39.31-2.03,1.41-3.98,2.89-6.48,3.28-.16,0-.39.23-.55.39-.94,1.64-2.5,2.66-3.98,3.67-.31.23-.7.47-1.02.7.08.08.08.16.16.23,1.64-.7,3.28-1.33,4.84-2.19,1.56-.86,3.05-1.87,4.53-2.89l.16.16c-1.87,1.41-3.75,2.81-5.39,4.14M92.88,97h-.39c-.55,1.8-.94,3.59-.78,5.47.08,1.02.31,2.03,1.02,2.81.23.23.7.47,1.09.47.86-.08,1.17-.78,1.56-1.41.31-.47.16-.78-.23-1.17-.16-.16-.08-.47-.16-.7-.08-.16-.08-.55-.16-.55-.78-.08-.62-.7-.78-1.17-.47-1.17-.78-2.5-1.17-3.75M25.79,84.19c-2.11-3.67-4.92-6.4-7.81-9.06-.7,2.42,2.58,7.65,5.15,8.04-.7-.86-1.41-1.72-2.03-2.5,1.48,1.09,2.66,2.66,4.69,3.51M18.92,86.38c-1.09-1.09-2.11-2.11-3.2-3.2-2.11-2.19-4.06-4.37-5-7.34-.23-.7-.94-.86-1.8-1.02,1.09,2.58,1.64,5.15,3.36,7.18,1.72,2.11,3.98,3.51,6.64,4.37M7.91,86.92h.31c.47-.39.86-.78,1.41-1.09,1.33-.78,2.58-.55,3.9.08,2.34,1.02,4.61,1.95,7.18,2.34.62.08,1.33.16,1.95.16-.08-.23-.16-.31-.23-.31-3.59-.47-6.72-2.26-9.61-4.37-1.56-1.17-4.06-.16-4.61,1.33-.23.62-.23,1.25-.31,1.87M86.32,87.78l-.08.16c1.17.62,2.26,1.48,3.67,1.48,3.36,0,5.94-1.64,8.43-3.59.16-.08.23-.31.39-.55-.78-.08-1.33-.08-1.95.39-1.8,1.48-3.9,2.11-6.09,1.87-1.33-.16-2.5-.23-3.67.23-.23,0-.47,0-.7,0M10.1,96.68l-.16-.08c-.23.94-.39,1.87-.62,2.81-.16,0-.23,0-.39-.08,0-.39-.08-.7,0-1.09.23-1.95,1.09-3.67,2.03-5.31.16-.23.23-.47.47-.86-2.66,1.09-4.69,4.53-4.14,7.18.08.62.55,1.17,1.02,1.64.55.55,1.25.39,1.87-.31.47-.55.86-1.09.08-1.72-.16-.16-.16-.39-.16-.62-.08-.55,0-1.02,0-1.56M99.36,101.92c-.08,0-.16,0-.23.08-.23-.62-.47-1.17-.7-1.72-.55-1.17-1.09-2.34-1.64-3.44-.08-.16-.47-.23-.62-.31,0,.23,0,.55.08.78.62,1.09,1.09,2.11.94,3.36-.08,1.02-.16,1.95-.16,2.97,0,.31.16.78.39.94.94.55,2.5.08,2.89-.94.31-.78.31-1.64.47-2.42h-.23l-.16,1.25h-.23c-.16-.47-.31-.94-.47-1.48-.16.31-.23.62-.31.94M91.31,79.03c-1.33.55-2.66,1.17-3.9,1.72-.16.08-.31.31-.47.47-.62.7-1.25,1.41-1.87,2.11l-1.41,1.41c2.34-.39,3.9-1.95,5.54-3.36-.7,1.48-2.03,2.26-3.28,3.44,2.5-.31,5.62-3.83,5.39-5.78M91.55,86.84c4.3-.08,8.43-5.15,8.2-8.75-.86.55-1.56,1.02-1.95,2.03-.86,2.42-2.5,4.3-4.69,5.7-.47.31-.94.62-1.56,1.02M17.9,96.37h-.31c0,.16-.08.31-.08.47.31,1.8,0,3.51-.7,5.15-.39.86-.16,1.33.7,1.95.94.62,1.64.62,2.19-.08.62-.62.78-1.41.7-2.34-.23.39-.39.62-.55.86l-.23-.08c0-.7-.08-1.48-.08-2.19h-.08c-.16.47-.31.94-.47,1.41-.08,0-.16,0-.23-.08-.23-1.64-.55-3.36-.86-5.08M88.19,99.96c-.86.86-1.09,3.05-.31,3.83.39.39,1.02.55,1.56.55.31,0,.78-.55.86-.86.16-1.17.08-2.26.16-3.44h-.16c-.16.55-.31,1.09-.55,1.87-.23-.55-.39-.86-.7-1.41-.23.47-.39.86-.55,1.17-.08-.08-.23-.08-.31-.16-.08-.55,0-1.02,0-1.56M85.69,96.84c-1.41,1.33-2.03,3.05-1.56,4.76.16.55.78,1.02,1.25,1.41.08.08.62-.23.62-.31.16-2.03.78-3.9,1.87-5.7-.62.7-1.17,1.48-1.64,2.26-.23.47-.47.7-.86.23-.23.23-.39.47-.7.78q-.31-1.09,1.02-3.44M58.28,82.71c-.16-.08-.31-.23-.55-.31-1.41-.78-2.89-1.09-4.45-.94-.94.08-1.8.47-2.66.78-.23.08-.31.55-.47.86.31,0,.62.08.94.08,1.41-.31,2.81-.62,4.22-.86.08,0,.23.08.39.16.47.23.94.47,1.41.78.55.23.78,0,1.17-.55M21.11,95.9c-.08.08-.16.16-.31.16.7,1.56,1.17,3.2,1.17,4.92,0,.23.31.62.55.78.7.31,1.56-.23,1.87-1.02.16-.47-.47-1.72-.86-1.87-.08.16-.16.39-.31.7-.78-1.33-1.41-2.5-2.11-3.67M53.99,89.42c.62-1.17,1.09-2.19,1.56-3.2.23-.47.08-.94-.47-.94-.86,0-1.8.16-2.66.31-.16,0-.47.55-.39.7.62,1.02,1.25,1.95,1.95,3.12M43.44,89.89c1.72.16,3.12.86,4.45,1.8.23.16.7.08,1.09.16,0-.31.16-.7,0-.94-.7-2.11-3.83-2.73-5.54-1.02M53.83,83.49c-.7.16-1.48.39-2.34.62-.16.08-.23.31-.31.47.23.08.47.31.62.31,1.17-.08,2.34-.31,3.59-.47.16,0,.31-.16.47-.31-.16-.16-.23-.39-.39-.39-.47,0-1.02-.08-1.64-.23M73.67,87.78c0-.16-.08-.23-.08-.39-1.09-.08-2.19.08-3.28.47,0,.08,0,.23.08.31,1.09-.16,2.19-.23,3.28-.39"/>
    <path class="st5" d="M33.76,83.8c1.17,2.26,3.44,2.66,5.7,3.2-2.89,1.09-5.78,2.19-7.73,4.61l.16.23c.23-.23.55-.47.78-.62,3.2-2.66,6.95-4.06,11.09-4.06.55,0,1.02.23,1.56.62-3.36,1.02-5.78,3.05-7.34,6.17-1.02-.62-1.41-1.48-1.48-2.81-.23.23-.47.31-.55.47-.7.78-1.56,1.09-2.66,1.17-1.72.08-3.36.31-4.84,1.33-.39-.86.55-2.89,2.26-4.45,1.25-1.09,2.81-1.95,4.06-2.81-1.02-1.25-2.19-2.58-3.2-3.98-1.02-1.48-1.33-3.2-1.02-4.92,1.64,1.72,3.2,3.51,5,5.08,1.8,1.64,4.06,2.42,6.33,3.12-2.97.47-5.86.16-8.12-2.34M36.1,89.66c-.23.31-.47.47-.47.55.08.16.23.39.47.47.08,0,.47-.23.39-.39,0-.16-.23-.31-.39-.62"/>
    <path class="st5" d="M23.76,83.72c1.8.94,3.83,2.03,5.86,3.12,0,.08-.08.16-.08.23-3.05-.23-5.86-.94-8.51-2.66,2.66,2.26,5.86,2.89,9.22,3.36v.31c-.7,0-1.48.16-2.19.08-4.37-.47-8.28-1.87-11.4-5.08-3.67-3.75-6.01-8.2-6.48-13.51v-.31c.08-.08.16-.16.23-.23.08.23.16.39.31.62,1.17,1.8,2.42,3.51,3.44,5.39,1.72,3.12,3.83,5.86,6.64,7.89.47.31.94.62,1.41.78.47.16.94.08,1.56,0"/>
    <path class="st5" d="M68.59,96.92c-1.72-4.37-4.76-6.48-9.68-5.62.39-.62.62-1.09,1.02-1.48,1.72-2.03,4.06-2.81,6.56-3.36,1.95-.47,3.75-1.17,5.23-2.58.16-.16.47-.39.7-.39,1.25,0,2.34-.62,3.28-1.33,1.33-1.02,2.58-2.11,3.9-3.2,0,.39,0,.78-.08,1.17-.62,2.26-2.11,3.75-3.98,4.92-2.73,1.64-5.7,2.34-8.75,2.73-.94.08-1.8.47-2.66.78-.23.08-.47.39-.62.62.23.16.47.31.78.47,1.17.55,2.42,1.09,3.59,1.72.86.55,1.56,1.33,1.8,2.42.08,1.09-.23,2.11-1.09,3.12"/>
    <path class="st5" d="M96.86,77.63c-.55,1.09-1.02,2.19-1.64,3.28-2.34,3.98-5.7,6.4-10.46,6.33-1.41,0-2.89-.23-4.3-.31h-1.09c0-.08-.08-.23-.08-.31.62-.16,1.17-.39,1.8-.31,3.05.31,5.78-.7,8.43-2.11,2.66-1.48,4.53-3.75,5.86-6.48.7-1.48,1.48-3.05,2.26-4.53.08-.08.08-.23.23-.23.55,2.34,0,4.53-.7,6.72-.94,2.89-2.73,5.08-5.54,6.33,2.66-2.11,4.45-4.76,5.39-8.04l-.16-.31Z"/>
    <path class="st5" d="M22.12,75.99c4.37,2.26,8.36,4.69,10.07,9.53-2.89-1.41-5-3.67-7.03-6.09.7,1.48,1.72,2.66,2.89,3.75s2.5,2.03,3.75,3.05l-.08.23c-.31,0-.55,0-.78-.08-4.22-1.95-6.95-5.23-8.59-9.53-.16-.31-.16-.55-.23-.86"/>
    <path class="st0" d="M53.91,77.08c2.97.08,5.54,1.25,7.89,3.05.62.47.55.62-.16,1.02-.86.47-1.41.08-2.11-.31-1.09-.62-2.26-1.41-3.44-1.72-1.64-.39-3.28-.31-4.92.23-.55.23-1.17.39-1.72.62s-1.02.55-1.41,1.02c-.47.55-.94.62-1.48.39-.47-.23-.62-.86-.23-1.17,1.72-1.48,3.59-2.5,5.86-2.73.55-.16,1.17-.31,1.72-.39"/>
    <path class="st5" d="M74.91,89.81l8.04-.23v-.23c-3.36,0-6.72-.08-10.31-.08,1.95-2.03,12.18-1.87,13.82.08-.94,1.48-9.22,2.26-11.56.47"/>
    <path class="st5" d="M77.18,95.67c-1.87,0-3.59-.55-5-1.56-1.64-1.17-3.12-2.5-4.69-3.75.08-.08.16-.16.16-.31,1.72.86,3.36,1.8,5.08,2.66l.08-.08c-1.17-.7-2.26-1.56-3.44-2.19-1.17-.62-2.5-1.09-3.83-1.72,3.28-1.33,10.31,2.89,11.64,6.95"/>
    <path class="st0" d="M14.86,100.51c0,.39-.08.7-.08,1.25.39-.31.62-.47.86-.62l.23.16c-.39.62-.78,1.33-1.33,1.8-.94.78-1.87.47-2.34-.7-.78-1.95-.7-3.9-.08-5.86.23-.78.62-1.48,1.02-2.26.16-.23.47-.47.7-.62.16.31.55.62.55.86.08,1.09.08,2.19.08,3.36,0,.7-.16,1.41-.16,2.11,0,.16.23.39.39.55h.16Z"/>
    <path class="st5" d="M79.13,85.91c1.72-1.33,3.51-2.66,5.31-4.06l-.16-.16c-1.48.94-2.97,2.03-4.53,2.89s-3.2,1.48-4.84,2.19c-.08-.08-.08-.16-.16-.23.31-.23.7-.47,1.02-.7,1.56-1.02,3.05-2.03,3.98-3.67.08-.16.31-.39.55-.39,2.5-.39,4.45-1.87,6.48-3.28.16-.08.23-.23.39-.31.16,2.34-5.08,7.34-8.04,7.73"/>
    <path class="st0" d="M92.88,97c.39,1.25.7,2.58,1.09,3.83.16.47,0,1.09.78,1.17.08,0,.16.31.16.55.08.23,0,.62.16.7.39.31.55.62.23,1.17-.39.62-.7,1.41-1.56,1.41-.39,0-.86-.16-1.09-.47-.78-.78-.94-1.8-1.02-2.81-.16-1.87.23-3.75.78-5.47.23-.08.31-.08.47-.08"/>
    <path class="st5" d="M25.79,84.19c-1.95-.86-3.2-2.34-4.76-3.51.7.78,1.33,1.64,2.03,2.5-2.5-.39-5.78-5.62-5.15-8.04,2.97,2.66,5.78,5.31,7.89,9.06"/>
    <path class="st5" d="M18.92,86.38c-2.66-.86-4.92-2.26-6.64-4.37-1.72-2.03-2.26-4.69-3.36-7.18.86.16,1.56.31,1.8,1.02.94,2.97,2.97,5.15,5,7.34,1.02,1.02,2.11,2.11,3.2,3.2"/>
    <path class="st5" d="M7.91,86.92c.08-.62,0-1.25.23-1.87.55-1.56,3.05-2.5,4.61-1.33,2.89,2.11,5.94,3.9,9.61,4.37.08,0,.23.08.23.31-.62-.08-1.33-.08-1.95-.16-2.5-.31-4.84-1.33-7.18-2.34-1.33-.55-2.66-.78-3.9-.08-.47.31-.94.7-1.41,1.09,0,.08-.08,0-.23,0"/>
    <path class="st5" d="M86.32,87.78c.23,0,.47.08.7,0,1.25-.55,2.42-.39,3.67-.23,2.19.23,4.37-.47,6.09-1.87.62-.47,1.17-.39,1.95-.39-.16.31-.23.47-.39.55-2.5,2.03-5.08,3.59-8.43,3.59-1.41,0-2.5-.78-3.67-1.48l.08-.16Z"/>
    <path class="st0" d="M10.1,96.68c0,.47-.08,1.02-.08,1.48,0,.23.08.47.16.62.7.62.31,1.17-.08,1.72-.62.7-1.33.86-1.87.31-.47-.47-.86-1.02-1.02-1.64-.55-2.66,1.48-6.09,4.14-7.18-.23.39-.31.62-.47.86-1.02,1.64-1.87,3.36-2.03,5.31v1.09c.16,0,.23,0,.39.08.23-.94.39-1.87.62-2.81l.23.16Z"/>
    <path class="st0" d="M99.36,101.92c.08-.31.16-.7.23-1.09.16.55.31,1.02.47,1.48h.23l.16-1.25h.23c-.16.78-.16,1.64-.47,2.42-.39,1.02-1.95,1.48-2.89.94-.23-.16-.39-.62-.39-.94,0-1.02.16-1.95.16-2.97.08-1.25-.39-2.34-.94-3.36-.08-.23-.08-.47-.08-.78.23.08.55.16.62.31.55,1.17,1.09,2.26,1.64,3.44.23.55.47,1.17.7,1.72.16.16.23.08.31.08"/>
    <path class="st5" d="M91.31,79.03c.23,1.95-2.89,5.47-5.39,5.86,1.25-1.09,2.66-1.95,3.28-3.44-1.64,1.41-3.2,2.97-5.54,3.36.47-.47.94-.94,1.41-1.41.62-.7,1.25-1.41,1.87-2.11.16-.16.31-.39.47-.47,1.25-.62,2.58-1.25,3.9-1.8"/>
    <path class="st5" d="M91.55,86.84c.62-.39,1.09-.7,1.48-1.02,2.19-1.41,3.83-3.28,4.69-5.7.39-1.09,1.09-1.56,1.95-2.03.31,3.59-3.83,8.67-8.12,8.75"/>
    <path class="st0" d="M17.9,96.37c.31,1.72.55,3.44.86,5.15.08,0,.16,0,.23.08.16-.47.31-.94.47-1.41h.08c0,.7.08,1.48.08,2.19l.23.08c.16-.23.31-.55.55-.86.08.94-.08,1.72-.7,2.34s-1.33.62-2.19.08c-.86-.55-1.09-1.02-.7-1.95.7-1.64,1.02-3.36.7-5.15,0-.16,0-.31.08-.47.16-.08.23-.08.31-.08"/>
    <path class="st0" d="M88.19,99.96c0,.55,0,1.02-.08,1.48.08.08.23.08.31.16.16-.31.31-.62.55-1.17.31.62.47.86.7,1.41.23-.78.39-1.33.55-1.87h.16c0,1.17,0,2.34-.16,3.44,0,.31-.55.86-.86.86-.55,0-1.17-.16-1.56-.55-.78-.62-.55-2.81.39-3.75"/>
    <path class="st0" d="M85.69,96.84q-1.33,2.34-1.02,3.44c.23-.31.47-.55.7-.78.39.47.62.23.86-.23.47-.78,1.02-1.56,1.64-2.26-1.09,1.72-1.72,3.59-1.87,5.7,0,.16-.55.39-.62.31-.47-.47-1.09-.86-1.25-1.41-.47-1.72.16-3.44,1.56-4.76"/>
    <path class="st1" d="M58.28,82.71c-.31.55-.62.78-1.09.55s-.94-.55-1.41-.78c-.16-.08-.23-.16-.39-.16-1.41.31-2.81.62-4.22.86-.31.08-.62,0-.94-.08.16-.31.23-.78.47-.86.86-.31,1.72-.7,2.66-.78,1.56-.16,3.05.16,4.45.94.08.08.23.23.47.31"/>
    <path class="st0" d="M21.11,95.9c.7,1.17,1.33,2.34,2.11,3.67.16-.31.23-.55.31-.7.47.16,1.02,1.41.86,1.87-.31.78-1.17,1.33-1.87,1.02-.23-.08-.55-.47-.55-.78,0-1.72-.47-3.36-1.17-4.92.16,0,.23-.08.31-.16"/>
    <path class="st4" d="M53.99,89.42c-.7-1.17-1.33-2.11-1.87-3.12-.08-.16.16-.62.39-.7.86-.16,1.72-.31,2.66-.31.55,0,.7.39.47.94-.55,1.02-1.02,2.03-1.64,3.2"/>
    <path class="st5" d="M43.44,89.89c1.72-1.72,4.76-1.09,5.54,1.02.08.31,0,.62,0,.94-.39-.08-.78.08-1.09-.16-1.25-.94-2.66-1.64-4.45-1.8"/>
    <path class="st1" d="M53.83,83.49c.62.08,1.17.16,1.64.31.16.08.23.23.39.39-.16.08-.31.23-.47.31-1.17.16-2.34.31-3.59.47-.23,0-.39-.16-.62-.31.08-.16.16-.47.31-.47.78-.31,1.64-.47,2.34-.7"/>
    <path class="st5" d="M73.67,87.78c-1.09.16-2.19.31-3.28.39,0-.08,0-.23-.08-.31,1.02-.47,2.11-.62,3.28-.47.08.16.08.23.08.39"/>
    <path class="st3" d="M62.03,86.61s3.67-.39,7.97-2.42c4.3-1.95,3.83-8.28,3.83-8.28,0,0-2.73,4.06-5.86,4.61-3.2.55-8.51,1.17-11.64,5.54-3.12,4.3-2.26,11.32,1.02,12.65,3.28,1.33,5.31-1.8,5.15-3.36-.08-1.56-1.09-4.45-4.22-2.19-.31.86-1.25-.47-.78-2.26.47-1.8,1.17-3.9,7.03-6.33s7.34-4.69,7.34-4.69c0,0-.16,2.11-3.12,3.59-3.12,1.41-6.72,3.12-6.72,3.12"/>
    <path class="st3" d="M38.52,80.83s1.87,2.11,5,3.36c3.2,1.25,8.59,4.06,6.95,10-1.48-2.26-4.22-1.8-4.76.39-.62,2.26,1.17,4.45,3.51,4.06s5.62-3.75,3.83-8.9c-1.87-5.15-5.39-6.33-6.95-7.18s-6.64-2.89-8.59-4.37c-1.95-1.48-3.05-2.58-3.05-2.58,0,0,.31,5.08,3.9,7.26,3.67,2.19,8.82,4.61,9.68,5.39.86.78.86-.39-.23-1.09-1.17-.7-7.5-3.67-8.82-5-1.41-1.33-1.09-1.95-.47-1.33"/>
    <path class="st3" d="M16.81,88.41s-.55.31-1.02,1.33l-.55,1.02s-.62-.16-.78,0c-.08.16.16.86.86,1.09s1.56.23,1.48-.23c0-.47-.62-.31-.78-.78s.62-1.56.78-1.87c.16-.39.08-.62,0-.55"/>
    <path class="st3" d="M17.83,90.98s1.87.78,1.48,1.87c-.39,1.02-2.73.86-4.06.39-1.33-.47-3.9-1.56-3.28-2.73s1.95-.47,1.95-.47c0,0,.16.23-.39.62-.47.39.62,1.33,1.8,1.72,1.09.39,2.34-.08,2.5-1.41"/>
    <path class="st3" d="M92.95,90.44s.47.39.78,1.48l.31,1.09s.7,0,.7.16c.08.16-.31.78-1.09.86-.7.08-1.56-.08-1.41-.55s.7-.16.86-.62c.23-.39-.31-1.64-.39-1.95,0-.31.16-.55.23-.47"/>
    <path class="st3" d="M91.47,92.78s-2.03.39-1.87,1.48,2.5,1.41,3.9,1.17c1.41-.23,4.14-.7,3.75-1.95s-1.8-.86-1.8-.86c0,0-.16.23.23.7s-.94,1.17-2.11,1.33c-1.17.16-2.19-.55-2.11-1.87"/>
    <path class="st0" d="M54.06,81.14c1.72.08,3.2.7,4.53,1.72.31.23.31.39-.08.55-.47.31-.78,0-1.17-.23-.62-.39-1.25-.78-1.95-1.02-.94-.23-1.87-.23-2.81.16-.31.16-.7.23-1.02.39s-.62.31-.78.55c-.23.31-.55.39-.86.23s-.31-.47-.16-.7c.94-.86,2.03-1.41,3.36-1.56.23.08.55,0,.94-.08"/>
    <path class="st0" d="M53.91,83.72c.94,0,1.8.39,2.58,1.02.16.16.16.23-.08.31-.23.16-.47,0-.7-.08-.39-.23-.7-.47-1.09-.55-.55-.16-1.09-.08-1.64.08-.16.08-.39.08-.55.23-.16.08-.31.16-.47.31-.16.16-.31.23-.47.16-.16-.08-.16-.31-.08-.39.55-.47,1.17-.78,1.87-.86.23-.16.47-.16.62-.23"/>
    <path class="st1" d="M32.98,63.02c-.08.55-.55.23-.7.23-2.03,0-4.14,0-6.17-.08-.7,0-1.33.08-1.87.47-.08-.86.62-.62,1.02-.62h7.73"/>
    <path class="st1" d="M24.07,71.77c2.34,0,4.61.08,6.95.08-2.26.23-4.45.08-6.72.16-.08,0-.16-.16-.23-.23"/>
    <path class="st1" d="M24.07,65.21c.39,1.17.08,2.34.16,3.51,0,.7.47,1.41-.23,2.03.08-1.87.08-3.75.08-5.54"/>
    <path class="st1" d="M60.94,62.95c2.73-.08,5.47-.08,8.12-.16.31.08.55.16.86.23v.08c-2.97,0-5.94-.08-8.98-.16"/>
    <path class="st5" d="M52.58,46.31c-3.51.08-7.11-.16-10.62-.55-5.62-.62-11.17-1.56-16.56-3.36-1.25-.47-1.72-1.41-1.41-2.73.16-.62.55-.23.78-.16,4.84,1.33,9.76,2.26,14.76,2.97,7.58.94,15.15,1.09,22.73.39,6.56-.62,12.96-1.87,19.21-3.83.78-.23,1.02-.08,1.02.78q.08,2.11-1.8,2.66c-9.22,2.42-18.59,3.83-28.11,3.83"/>
    <path class="st5" d="M52.58,46.31v-.31h-1.09c-3.2,0-6.33-.16-9.53-.55-5.62-.62-11.17-1.56-16.48-3.36-.47-.16-.78-.39-1.02-.62s-.31-.55-.31-.94c0-.23,0-.47.08-.7,0-.08.08-.16.08-.16l-.08-.08v.08h.08l-.08-.08v.08h0l.16.08c.08,0,.16.08.23.08,4.84,1.33,9.76,2.34,14.76,2.97,4.45.55,8.82.86,13.28.86,3.2,0,6.33-.16,9.53-.47,6.56-.62,12.96-1.87,19.21-3.9.23-.08.31-.08.39-.08h.08l.08.08c0,.08.08.23.08.47v.86c0,.31,0,.55-.08.7,0,.08-.08.16-.08.23-.08.08-.16.16-.39.23s-.55.16-1.02.31c-9.06,2.5-18.35,3.9-27.88,3.9h0v.62c9.61,0,18.98-1.41,28.19-3.9.78-.23,1.25-.31,1.64-.62.16-.16.31-.39.31-.62.08-.23.08-.47.08-.86v-.86c0-.31,0-.55-.16-.78-.08-.08-.16-.23-.23-.31-.16-.08-.23-.08-.39-.08s-.39.08-.62.16c-6.25,2.03-12.57,3.2-19.13,3.83-3.12.31-6.33.47-9.45.47-4.37,0-8.82-.31-13.2-.86-5-.62-9.84-1.56-14.68-2.97,0,0-.08,0-.16-.08-.08-.08-.23-.08-.39-.08s-.31.08-.39.16c-.08.08-.16.23-.23.39-.08.31-.16.62-.16.86,0,.47.16,1.02.47,1.33.31.39.7.7,1.25.86,5.39,1.87,11.01,2.73,16.56,3.44,3.2.39,6.4.55,9.61.55h1.09v-.31Z"/>
    <path class="st5" d="M52.42,28.35c-9.06,0-17.96-1.25-26.71-3.75-.78-.23-1.95-.23-1.72-1.64.08-.7.16-.94.94-.7,3.83,1.09,7.81,1.87,11.71,2.5,14.29,2.19,28.51,1.87,42.48-2.26.62-.16,1.25-.47,1.95-.62.39-.08,1.02-.86,1.17.08.16.62.47,1.48-.7,1.8-1.64.39-3.2,1.02-4.84,1.48-7.97,2.03-16.01,3.05-24.29,3.12"/>
    <path class="st5" d="M52.42,28.35v-.31c-9.06,0-17.96-1.25-26.63-3.75-.39-.08-.86-.16-1.09-.31-.16-.08-.23-.16-.31-.23-.08-.08-.16-.23-.16-.47v-.23c0-.23.08-.47.08-.47h.08c.08,0,.23,0,.39.08,3.9,1.09,7.81,1.87,11.79,2.5,5.7.86,11.4,1.33,17.02,1.33,8.59,0,17.1-1.09,25.62-3.59.7-.23,1.33-.47,1.87-.62.23-.08.39-.16.55-.23.08-.08.16-.08.16-.08h.08v-.08.08h0v-.08.08-.08h0v-.08h0v.08s0,.08.08.16c.08.23.16.55.16.78,0,.16,0,.31-.08.39s-.23.23-.55.31c-1.64.39-3.28,1.02-4.84,1.48-7.89,2.11-16.01,3.2-24.21,3.2v.16-.31.62c8.28-.08,16.4-1.09,24.37-3.28,1.64-.47,3.2-1.09,4.84-1.48.39-.08.7-.23.86-.47.16-.23.23-.55.23-.78,0-.31-.08-.62-.16-.86-.08-.16-.08-.31-.23-.47-.08-.16-.31-.23-.47-.23-.23,0-.47.16-.62.23-.16.08-.31.16-.31.16-.7.16-1.33.47-1.95.62-8.28,2.5-16.79,3.59-25.3,3.59-5.62,0-11.25-.47-16.95-1.33-3.98-.62-7.89-1.41-11.71-2.42-.23-.08-.39-.16-.55-.16s-.23,0-.39.08-.31.31-.31.47c-.08.16-.08.31-.08.55v.31c0,.31.08.62.23.86.23.31.55.47.86.62.31.08.62.16.86.23,8.75,2.58,17.73,3.75,26.79,3.83h0v-.39Z"/>
    <path class="st0" d="M62.03,47.41c.94-.16,1.41.39,1.87.78,1.87,1.8,4.22,2.66,6.72,3.28,1.48.39,2.97.94,4.37,1.56,1.17.55,2.11,1.33,2.81,2.5,1.17,1.87.78,3.83-1.09,4.92-2.81,1.64-5.62,1.64-8.59.23-4.37-2.19-6.87-5.86-8.59-10.23-.23-.62-.55-1.25-.78-1.87-.16-.31-.55-.78,0-1.09.39-.16.78,0,1.02.47,1.87,2.89,4.22,5.23,6.64,7.65,1.64,1.64,3.59,2.66,5.86,2.97,1.02.16,1.8-.16,2.11-1.09.31-.86-.23-1.56-.86-2.03-.94-.78-2.11-1.25-3.28-1.48-2.11-.47-3.9-1.56-5.62-2.73-1.25-.94-1.95-2.26-2.58-3.83"/>
    <path class="st0" d="M62.03,47.41l.08.31h.23c.31,0,.55.08.78.23s.39.31.62.47c1.95,1.87,4.37,2.73,6.87,3.36,1.48.39,2.97.86,4.3,1.56,1.09.55,2.03,1.33,2.66,2.34.39.62.62,1.33.62,1.95,0,1.02-.55,1.95-1.56,2.58-1.41.78-2.81,1.25-4.3,1.25-1.33,0-2.66-.31-3.98-1.02-4.3-2.11-6.72-5.7-8.43-10-.23-.62-.55-1.25-.78-1.87-.08-.16-.16-.31-.16-.39-.16-.16-.16-.23-.16-.23h0s0-.08.08-.08l.16-.08c.08,0,.16,0,.23.08.08.08.16.16.23.31,1.87,2.89,4.3,5.31,6.64,7.73,1.64,1.72,3.67,2.73,6.01,3.05.16,0,.31.08.55.08.47,0,.86-.08,1.17-.31s.62-.62.78-1.02c.08-.23.08-.39.08-.55,0-.39-.16-.7-.31-1.02-.16-.31-.47-.55-.7-.78-1.02-.86-2.19-1.33-3.44-1.56-2.03-.47-3.83-1.48-5.54-2.66-1.17-.86-1.95-2.11-2.5-3.59l-.23-.16.08.31-.08-.31-.31.16c.62,1.56,1.41,2.89,2.73,3.9,1.72,1.25,3.59,2.34,5.78,2.81,1.17.23,2.26.7,3.2,1.48.23.16.47.39.62.62.16.23.23.47.23.7,0,.16,0,.23-.08.39-.08.39-.31.55-.47.7-.23.16-.47.23-.86.23h-.39c-2.26-.31-4.14-1.25-5.7-2.89-2.34-2.42-4.76-4.76-6.56-7.58-.08-.16-.23-.31-.39-.47-.16-.16-.39-.23-.62-.23-.16,0-.31,0-.39.08-.16.08-.23.16-.39.23-.08.08-.16.23-.16.39,0,.23.08.39.16.47.08.16.16.23.16.31.23.62.55,1.25.78,1.87,1.72,4.45,4.3,8.2,8.75,10.39,1.41.7,2.89,1.09,4.3,1.09,1.56,0,3.05-.47,4.61-1.33,1.25-.7,1.87-1.87,1.87-3.12,0-.7-.23-1.48-.7-2.26-.7-1.17-1.72-2.03-2.97-2.58-1.41-.7-2.89-1.25-4.45-1.64-2.5-.62-4.76-1.48-6.56-3.2-.16-.16-.39-.39-.7-.55s-.62-.31-1.09-.31h-.31c-.08,0-.16.08-.23.16-.08.08-.08.16,0,.23l.16-.08Z"/>
    <path class="st0" d="M32.74,58.18c.08-2.58,1.25-4.22,3.2-5.15,3.28-1.56,6.72-2.73,9.37-5.39.31-.31.7-.39,1.02-.08.31.31-.08.62-.16.94-1.02,3.51-4.14,4.53-7.03,5.7-1.41.55-2.73,1.09-3.59,2.42-.47.7-.62,1.48-.23,2.26.39.7,1.17.94,1.95.94,1.02-.08,1.95-.39,2.81-1.02,3.2-2.11,5.39-5.08,6.79-8.59.23-.62.7-1.33.78-1.95.08-.94.7-.7,1.17-.7.62.08.47.7.31,1.02-.23.86-.55,1.8-.86,2.66-.86,2.03-1.72,4.14-2.81,6.09-1.8,3.2-4.84,4.76-8.2,5.54-2.03.39-4.84-1.8-4.53-4.69"/>
    <path class="st0" d="M32.74,58.18h.31c0-1.25.31-2.26.86-3.05.55-.78,1.25-1.41,2.19-1.8,3.28-1.56,6.72-2.73,9.45-5.39.16-.16.31-.16.39-.16s.16,0,.23.08h0v.08c0,.08-.08.16-.08.23-.08.08-.08.16-.16.31-.47,1.64-1.48,2.73-2.73,3.59-1.25.78-2.73,1.41-4.14,1.95-1.33.55-2.81,1.09-3.75,2.5-.31.47-.55.94-.55,1.48,0,.39.08.7.31,1.09.23.39.55.7.94.86s.78.23,1.17.23h.16c1.09-.08,2.11-.47,2.97-1.02,3.2-2.19,5.47-5.15,6.95-8.75.23-.62.7-1.25.78-2.03,0-.23.08-.31.16-.39.08,0,.08-.08.23-.08s.31,0,.47.08c.16,0,.16.08.16.08v.08c0,.16-.08.31-.08.47-.23.86-.55,1.72-.86,2.58-.94,2.03-1.72,4.14-2.81,6.01-1.72,3.12-4.69,4.61-8.04,5.39-.16,0-.31.08-.47.08-.78,0-1.72-.39-2.42-1.17-.7-.7-1.25-1.72-1.25-2.81v-.31h0l-.39-.23h-.31v.39c0,1.33.62,2.42,1.41,3.28.86.78,1.87,1.33,2.89,1.33.23,0,.39,0,.62-.08,3.44-.78,6.64-2.34,8.43-5.7,1.09-1.95,1.95-4.06,2.81-6.09.39-.86.7-1.8.94-2.66,0-.16.08-.39.08-.62,0-.16,0-.31-.16-.47-.16-.16-.31-.23-.55-.23-.16,0-.31-.08-.55-.08-.16,0-.47,0-.62.23-.23.16-.31.47-.39.78-.08.55-.47,1.17-.78,1.87-1.41,3.51-3.59,6.33-6.72,8.43-.86.55-1.72.94-2.66.94h-.16c-.31,0-.62-.08-.94-.16-.23-.16-.47-.31-.62-.62-.16-.23-.23-.55-.23-.78,0-.39.16-.78.39-1.17.78-1.17,2.11-1.72,3.44-2.26,1.41-.62,2.97-1.17,4.3-2.03,1.33-.86,2.42-2.03,2.97-3.9,0-.08.08-.16.16-.23.08-.16.16-.23.16-.47,0-.16-.08-.39-.23-.47-.16-.16-.39-.23-.62-.23-.31,0-.62.16-.86.39-2.58,2.58-6.01,3.75-9.29,5.31-1.02.47-1.87,1.17-2.42,2.03-.55.94-.94,2.03-.94,3.36l.47-.08h-.31.31Z"/>
    <path class="st5" d="M49.22,42.17c-2.11-.16-4.3-.31-6.4-.47-.39,0-.62-.23-.78-.47-3.12-4.45-6.25-8.9-9.29-13.35-.08-.08,0-.16-.08-.31,1.48-.08,2.89.62,4.3.62,2.19,0,3.44,1.09,4.61,2.81,2.5,3.67,5.15,7.26,7.81,10.86-.08.08-.16.23-.16.31"/>
    <path class="st5" d="M49.22,42.17v-.31c-2.11-.16-4.3-.31-6.4-.47-.16,0-.23-.08-.31-.08l-.23-.23c-3.12-4.45-6.25-8.9-9.29-13.35l-.08.08h.16v-.08l-.08.08h.16s0-.16-.08-.23l-.31.08v.31h.16c1.33,0,2.66.62,4.14.62,1.02,0,1.8.23,2.5.7.7.47,1.25,1.17,1.87,1.95,2.5,3.67,5.23,7.26,7.81,10.86l.23-.16-.31-.08c-.08.08-.08.23-.16.31h.23v-.31.31l.31.08c.08-.08.08-.23.16-.31.08-.08,0-.23,0-.31-2.66-3.59-5.31-7.18-7.81-10.86-.62-.86-1.25-1.64-2.03-2.19s-1.72-.86-2.89-.86c-1.25,0-2.58-.62-4.14-.62h-.23c-.08,0-.16.08-.23.16-.08.16-.08.23-.08.31v.16c0,.08,0,.16.08.23,3.12,4.45,6.25,8.9,9.29,13.35.16.16.23.31.47.47.16.08.39.16.62.16,2.11.16,4.3.31,6.4.47.16,0,.23-.08.31-.23h-.23Z"/>
    <path class="st5" d="M60.94,29.05c.7-.16,1.17.08,1.56.62,2.42,3.36,4.76,6.72,7.18,10.07.62.86.47,1.02-.55,1.17-1.64.23-3.36.47-5,.78-.55.08-.78-.16-1.02-.55-2.58-3.67-5.15-7.26-7.73-10.93-.39-.55-.47-.86.39-.86,1.72-.08,3.51-.23,5.15-.31"/>
    <path class="st5" d="M60.94,29.05l.08.31c.16,0,.23-.08.31-.08.16,0,.31.08.47.16.16.08.23.23.39.39,2.42,3.36,4.76,6.72,7.26,10.07.16.16.23.31.23.39.08.08.08.16.08.16h.08-.08s.08,0,.08,0h-.08c-.08.08-.31.08-.62.16-1.72.23-3.36.47-5,.78h-.16q-.16,0-.31-.08c-.08-.08-.16-.16-.31-.31-2.58-3.67-5.15-7.26-7.73-10.93-.08-.08-.16-.23-.16-.31v-.08h-.08l.08.08v-.08h-.08l.08.08-.08-.08.08.08h0l-.08-.08.08.08h0s.16-.08.39-.08c1.72-.08,3.44-.23,5.15-.31h.08l-.16-.31v-.31c-1.72.08-3.44.23-5.08.31-.23,0-.47.08-.62.16-.08.08-.16.08-.23.23-.08.08-.08.23-.08.31,0,.16.08.23.08.39.08.16.16.23.23.39,2.58,3.59,5.15,7.26,7.73,10.93.08.16.23.31.39.47.16.16.39.23.7.23h.23c1.64-.31,3.28-.62,4.92-.78.31,0,.55-.08.78-.16.08-.08.23-.08.31-.23.08-.08.16-.23.16-.39s-.08-.31-.16-.47c-.08-.16-.16-.31-.31-.47-2.42-3.28-4.84-6.72-7.18-10.07-.16-.23-.39-.47-.62-.62s-.47-.23-.78-.23c-.16,0-.31,0-.47.08v.23s0-.31,0-.31v.31Z"/>
    <path class="st5" d="M80.77,38.19c-2.11.55-4.06,1.09-6.01,1.64-.55.16-.78-.08-1.02-.47-2.42-3.36-4.76-6.72-7.18-10.07-.39-.55-.47-.86.39-.94,1.8-.31,3.59-.62,5.31-1.02.47-.08.7,0,1.02.31,2.42,3.44,4.92,6.87,7.5,10.54"/>
    <path class="st5" d="M80.77,38.19l-.08-.31c-2.11.55-4.06,1.09-6.01,1.64h-.23c-.08,0-.16,0-.23-.08-.08-.08-.16-.16-.23-.31-2.42-3.36-4.76-6.72-7.18-10.07-.08-.08-.16-.16-.16-.23v-.08h-.08.08-.08.08-.16c.08,0,.16-.08.39-.08,1.8-.31,3.59-.62,5.31-1.02h.23c.08,0,.16,0,.23.08.08,0,.16.08.23.16,2.5,3.44,4.92,6.87,7.58,10.54l.31-.23-.08-.31.08.31.23-.16c-2.66-3.67-5.08-7.11-7.58-10.54-.08-.16-.23-.31-.39-.39s-.31-.16-.55-.16c-.16,0-.23,0-.39.08-1.8.39-3.51.7-5.31,1.02-.23.08-.47.08-.62.16-.08.08-.16.16-.23.23-.08.08-.08.23-.08.31,0,.16.08.31.08.39.08.16.16.23.23.39,2.42,3.36,4.76,6.72,7.18,10.07.08.16.23.31.39.47.16.16.39.23.62.23.16,0,.23,0,.39-.08,1.95-.55,3.9-1.09,6.01-1.64.08,0,.16-.08.23-.23,0-.08,0-.23-.08-.31l-.16.16Z"/>
    <path class="st5" d="M37.43,41.16c-2.19-.39-3.98-.78-5.86-1.09-.55-.08-.78-.39-1.09-.78-1.87-2.5-3.67-5.08-5.62-7.5-.62-.78-.94-1.64-.86-2.66.08-.47-.08-1.02,0-1.48.08-.78-.39-2.11.31-2.11,1.02-.08,2.42.08,3.12,1.09,3.28,4.61,6.48,9.45,10,14.53"/>
    <path class="st5" d="M37.43,41.16l.08-.31c-2.19-.39-3.98-.78-5.86-1.09-.23,0-.31-.08-.47-.23-.16-.08-.23-.23-.39-.47-1.87-2.5-3.67-5.08-5.62-7.5-.55-.7-.78-1.33-.78-2.11v-.62c0-.31-.08-.7-.08-.94v-.47c0-.47-.08-.94-.08-1.25,0-.16,0-.23.08-.31h.39c.47,0,.94.08,1.33.23s.78.39,1.02.78c3.28,4.76,6.48,9.53,10,14.6l.39-.31.08-.31-.08.31.23-.16c-3.44-5.08-6.64-9.84-10-14.6-.31-.47-.86-.78-1.33-.94-.55-.16-1.09-.23-1.56-.23h-.47c-.16,0-.23.08-.31.08-.16.08-.31.23-.31.39-.08.16-.08.31-.08.47,0,.39.08.94.08,1.25v.47c0,.31.08.7.08.94v.62c0,.94.39,1.72.94,2.5,1.87,2.5,3.75,5,5.62,7.5.16.16.31.39.47.55.23.16.47.31.78.39,1.8.31,3.67.62,5.78,1.09.16,0,.23,0,.31-.16.08-.08.08-.23,0-.31l-.23.16Z"/>
    <path class="st0" d="M59.3,56.15v1.02c-.31,4.53-4.92,6.79-8.67,4.3-1.41-.94-1.8-2.66-2.11-4.3-.31-1.72-.16-3.28.62-4.84.7-1.41,1.17-2.81,1.8-4.22.47-1.09,1.33-.7,2.03-.62.55.08.16.55.08.78-1.09,2.34-1.48,4.84-2.03,7.26-.23,1.17.08,2.19.55,3.12.55,1.09,1.41,1.48,2.58,1.41,1.09-.08,1.56-.86,1.95-1.8.94-2.03.47-4.14,0-6.17-.23-1.09-.62-2.11-.86-3.2-.08-.39-.78-.94,0-1.25.55-.16,1.33-.31,1.8.47,1.17,2.66,2.34,5.15,2.26,8.04"/>
    <path class="st0" d="M59.3,56.15h-.31v1.02c-.23,3.05-2.5,5.08-5.15,5.08-1.02,0-2.11-.31-3.05-.94-.62-.47-1.02-1.02-1.33-1.72-.31-.7-.47-1.56-.62-2.34-.08-.55-.16-1.02-.16-1.48,0-1.09.23-2.11.78-3.12.7-1.41,1.25-2.89,1.8-4.3.08-.23.23-.39.31-.47s.23-.08.39-.08c.31,0,.62.08,1.02.16h.08v-.08h0v-.08h0l.08-.08-.08.08v.08l.08-.08-.08.08h.08-.08.08-.08s0,.08-.08.16c-.08.08-.08.16-.16.31-1.09,2.34-1.56,4.92-2.03,7.34-.08.31-.08.62-.08.86,0,.86.23,1.72.62,2.5.23.55.62.94,1.02,1.17.47.23.94.39,1.48.39h.39c.62-.08,1.09-.31,1.41-.7s.55-.78.78-1.25c.39-.94.55-1.87.55-2.73,0-1.25-.23-2.42-.55-3.67-.23-1.09-.62-2.11-.86-3.2-.08-.23-.16-.39-.23-.55-.08-.16-.16-.23-.16-.31h0s.08-.08.16-.08c.23-.08.47-.16.62-.16s.31,0,.39.08.23.16.31.39c1.17,2.42,2.26,4.84,2.26,7.5v.31h0l.39-.08h.31v-.31c0-2.89-1.17-5.31-2.34-7.73-.16-.31-.31-.55-.55-.62-.23-.16-.47-.16-.7-.16-.31,0-.62.08-.86.16-.16.08-.31.16-.39.23s-.16.31-.16.39c0,.23.16.47.23.62l.16.31c.23,1.09.62,2.11.86,3.12.23,1.17.55,2.34.55,3.51,0,.86-.16,1.64-.55,2.5-.16.39-.39.78-.62,1.09-.23.23-.55.47-1.02.47h-.31c-.47,0-.86-.08-1.17-.31s-.62-.47-.78-.94c-.39-.7-.62-1.41-.62-2.19,0-.23,0-.47.08-.78.55-2.5.94-4.92,2.03-7.18,0-.08.08-.16.16-.31s.08-.23.08-.39c0-.08-.08-.31-.16-.39s-.23-.16-.39-.16c-.31,0-.62-.16-1.09-.16-.23,0-.55.08-.78.16-.23.16-.47.39-.55.7-.55,1.41-1.09,2.89-1.8,4.22-.55,1.09-.78,2.26-.78,3.44,0,.55.08,1.09.16,1.64.16.86.31,1.72.62,2.5.31.78.78,1.56,1.56,2.03,1.09.7,2.26,1.09,3.44,1.09,2.89,0,5.47-2.26,5.78-5.62v-1.02l-.39.08h.31-.31Z"/>
    <path class="st5" d="M45,29.29c1.64,0,3.28.08,4.84.08.39,0,.7.16.94.47,2.73,3.98,5.47,7.89,8.2,11.87,0,.08,0,.16.08.55-1.64,0-3.28-.08-4.92-.08-.31,0-.55-.23-.7-.47-2.81-4.06-5.62-8.12-8.43-12.1,0-.08,0-.16,0-.31"/>
    <path class="st5" d="M45,29.29v.31c1.64,0,3.28.08,4.84.08.16,0,.31,0,.39.08s.16.16.31.31c2.73,3.98,5.47,7.89,8.2,11.87l.16-.08h-.16v.08l.16-.08h-.16v.47h.31v-.31c-1.64,0-3.28-.08-4.92-.08-.08,0-.16,0-.23-.08-.08-.08-.16-.16-.23-.23-2.81-4.06-5.62-8.12-8.43-12.1l-.16.16.23-.08v-.08l-.16.16.23-.08h-.08.08-.08.08v-.23l-.39-.08v.31-.31h-.31v.16c0,.08,0,.16.08.23,2.81,4.06,5.62,8.12,8.43,12.1.08.16.23.31.39.39.16.16.39.23.62.23,1.64,0,3.28.08,4.92.08.08,0,.16,0,.23-.08.08-.08.08-.16.08-.23v-.55l-.08-.16c-2.73-3.98-5.47-7.89-8.2-11.87-.16-.23-.31-.39-.55-.47-.23-.08-.47-.16-.7-.16-1.56,0-3.2-.08-4.84-.08-.08,0-.16,0-.23.08s-.08.16-.08.23l.23.08Z"/>
    <path class="st3" d="M42.58,24.29c1.33-1.48,2.5-2.89,3.75-4.22,2.26-2.5,4.61-5,6.79-7.5.7-.78,1.41-1.17,2.42-1.02,1.02.16,2.03,0,3.05.47-2.66,2.97-5.31,5.94-7.97,8.9-.94,1.09-1.95,2.11-2.89,3.2-.23.23-.47.62-.94.55-1.33-.16-2.66-.23-4.22-.39"/>
    <path class="st3" d="M42.58,24.29l.23.23c1.33-1.48,2.5-2.89,3.75-4.22,2.26-2.5,4.61-5,6.79-7.5.55-.62,1.02-.94,1.72-.94h.39c1.02.16,2.03,0,2.97.47l.16-.31-.23-.23c-2.66,2.97-5.31,5.94-7.97,8.9-.94,1.09-1.95,2.11-2.89,3.2-.16.16-.23.23-.31.31-.08.08-.16.08-.31.08h-.08c-1.33-.16-2.66-.23-4.22-.39v.39s.23.23.23.23l-.23-.23v.31c1.56.16,2.89.23,4.22.39h.16c.31,0,.55-.16.7-.23.16-.16.31-.31.39-.39.94-1.09,1.95-2.11,2.89-3.2,2.66-2.97,5.31-5.86,7.97-8.9.08-.08.08-.16.08-.31,0-.08-.08-.16-.16-.23-1.17-.55-2.26-.31-3.12-.47-.16,0-.31-.08-.55-.08-.86,0-1.56.47-2.19,1.09-2.26,2.5-4.53,5-6.79,7.5-1.17,1.33-2.42,2.66-3.75,4.22-.08.08-.08.23-.08.31.08.08.16.16.23.23v-.23Z"/>
    <path class="st3" d="M37.04,23.59c1.64-1.87,3.2-3.51,4.69-5.23,1.8-2.03,3.67-3.98,5.47-6.09.55-.62,1.17-.78,1.87-.78,1.09,0,2.19,0,3.36.08-3.75,4.14-7.42,8.2-11.09,12.18-.16.23-.39.31-.62.31-1.09-.08-2.26-.31-3.67-.47"/>
    <path class="st3" d="M37.04,23.59l.23.23c1.64-1.87,3.2-3.51,4.69-5.23,1.8-2.03,3.67-3.98,5.47-6.09.23-.23.47-.39.7-.55.23-.08.55-.16.86-.16h.08c1.09,0,2.19,0,3.36.08v-.31l-.23-.23c-3.75,4.14-7.42,8.2-11.09,12.18-.08.08-.16.16-.16.16l-.08.16h-.08c-1.17-.16-2.34-.31-3.75-.55v.31s.23.23.23.23l-.23-.23-.08.31c1.41.23,2.58.39,3.75.55h.16c.16,0,.31-.08.47-.16.16-.08.23-.16.31-.31,3.67-4.06,7.34-8.12,11.09-12.18.08-.08.08-.23.08-.31-.08-.08-.16-.16-.31-.16-1.25,0-2.26,0-3.36-.08h-.16c-.39,0-.7.08-1.09.16-.31.16-.62.39-.94.7-1.8,2.03-3.67,4.06-5.47,6.09-1.48,1.64-3.05,3.36-4.69,5.23-.08.08-.08.23-.08.31s.16.16.23.23l.08-.39Z"/>
    <path class="st3" d="M64.06,12.89c-3.05,3.44-6.01,6.72-8.9,10l-.08.08c-1.25,2.42-3.44,1.95-5.47,1.87-.23,0-.47,0-.55-.23-.08-.16.08-.31.16-.39,3.75-3.67,7.03-7.73,10.54-11.48.23-.23.39-.47.7-.47,1.17.08,2.34.16,3.59.62"/>
    <path class="st3" d="M64.06,12.89l-.23-.23c-3.05,3.44-5.94,6.72-8.9,10l.23.23-.23-.23-.08.08-.08.08c-.39.78-.86,1.17-1.41,1.48-.55.23-1.17.31-1.87.31-.62,0-1.25-.08-1.95-.08h-.31.08-.08.08-.08.08-.08.08s.08-.08.16-.16c3.75-3.67,7.03-7.73,10.54-11.56.08-.08.16-.23.23-.23q.08-.08.16-.08h0c1.17.08,2.26.23,3.51.62l.16-.23-.23-.23.23.23.08-.31c-1.33-.39-2.5-.55-3.67-.62h-.08c-.23,0-.47.08-.55.23-.16.08-.23.23-.31.31-3.59,3.83-6.87,7.89-10.54,11.48-.08,0-.08.08-.16.16-.08.08-.16.23-.16.39,0,.08,0,.16.08.23.08.23.31.31.47.39h.39c.62,0,1.33.08,1.95.08.7,0,1.48-.08,2.11-.39.7-.31,1.25-.86,1.72-1.72l-.31-.16.23.23.08-.08h0c2.97-3.28,5.86-6.56,8.9-10,.08-.08.08-.16.08-.31,0-.08-.08-.16-.23-.23l-.08.31Z"/>
    <path class="st3" d="M69.21,14.06c-2.42,2.73-4.61,5.23-6.87,7.73-.16.16-.39.31-.55.55-1.48,2.66-3.98,2.73-6.56,2.5-.16-.23,0-.39.16-.55,3.2-3.51,6.33-7.11,9.53-10.62.31-.39.62-.55,1.09-.39,1.02.16,1.95.39,3.2.78"/>
    <path class="st3" d="M69.21,14.06l-.23-.23c-2.42,2.73-4.61,5.23-6.87,7.73-.16.16-.39.31-.55.62-.55,1.02-1.25,1.56-2.03,1.95s-1.64.47-2.58.47c-.55,0-1.09,0-1.64-.08v.31l.31-.16v-.16l.08-.16c3.2-3.51,6.33-7.11,9.53-10.62.08-.16.23-.23.31-.23.08-.08.16-.08.23-.08h.23c.94.31,1.95.55,3.12.86l.08-.23-.23-.23.23.23.08-.31c-1.17-.31-2.19-.55-3.12-.86-.16,0-.23-.08-.39-.08-.23,0-.39.08-.62.16-.16.08-.31.23-.47.39-3.2,3.59-6.33,7.11-9.53,10.62-.08.08-.08.16-.16.23-.08.08-.08.23-.08.39,0,.08,0,.23.08.31.08.08.16.16.23.16.55.08,1.17.08,1.72.08,1.02,0,1.95-.16,2.89-.55.86-.39,1.72-1.09,2.26-2.19.08-.16.23-.31.47-.47,2.26-2.5,4.45-5.08,6.87-7.73.08-.08.08-.16.08-.31,0-.08-.08-.16-.23-.23l-.08.39Z"/>
    <path class="st3" d="M31.65,22.65c3.05-3.28,6.01-6.48,8.98-9.68.31-.31.62-.62,1.02-.62,1.33-.23,2.73-.39,4.45-.62-1.8,2.03-3.36,3.83-5,5.62-1.56,1.72-3.2,3.44-4.76,5.23-.62.7-1.25.94-2.11.7-.78-.31-1.64-.47-2.58-.62"/>
    <path class="st3" d="M31.65,22.65l.23.23c3.05-3.28,6.01-6.48,8.98-9.68.31-.31.55-.55.86-.55,1.33-.23,2.73-.39,4.45-.62l-.08-.31-.23-.23c-1.8,2.03-3.36,3.83-5,5.54-1.56,1.72-3.2,3.44-4.76,5.23-.39.47-.78.62-1.25.62-.16,0-.31,0-.55-.08-.86-.23-1.72-.39-2.66-.55v.39l.23.23-.23-.23-.08.31c.94.16,1.8.31,2.58.55.23.08.47.08.7.08.62,0,1.25-.31,1.72-.86,1.56-1.8,3.2-3.44,4.76-5.23,1.64-1.8,3.2-3.59,5-5.62.08-.08.08-.23.08-.39-.08-.08-.16-.16-.31-.16-1.72.23-3.05.39-4.45.62-.55.08-.94.47-1.25.78-2.97,3.2-5.94,6.4-8.98,9.68-.08.08-.08.23-.08.31s.16.16.23.23l.08-.31Z"/>
    <path class="st3" d="M61.64,24.45c2.03-2.26,3.83-4.37,5.7-6.4.78-.94,1.64-1.8,2.42-2.73.62-.7,2.97-.62,3.51.16.23.31,0,.55-.23.78-2.11,2.5-4.22,4.92-6.33,7.42-.23.23-.47.47-.78.55-1.33.08-2.66.39-4.3.23"/>
    <path class="st3" d="M61.64,24.45l.23.23c2.03-2.26,3.83-4.37,5.62-6.4.78-.94,1.64-1.8,2.42-2.73.08-.08.31-.23.55-.31.23-.08.55-.08.86-.08.39,0,.7.08,1.02.16s.55.23.62.39v.08l-.08.08c-.08.08-.08.16-.16.23-2.11,2.5-4.22,4.92-6.33,7.42-.08.16-.23.23-.31.31s-.16.08-.31.16c-1.09.16-2.11.39-3.36.39-.31,0-.55,0-.86-.08l.08.16.23.23-.23-.23v.31c.31,0,.62.08.94.08,1.25,0,2.34-.23,3.44-.39.23,0,.47-.16.62-.23.16-.16.31-.23.39-.39,2.11-2.5,4.22-4.92,6.33-7.42.08-.08.16-.16.23-.23.08-.08.16-.23.16-.47,0-.16-.08-.31-.16-.47-.23-.31-.55-.47-.94-.62-.39-.16-.78-.16-1.25-.16-.39,0-.7.08-1.02.16s-.62.23-.86.47c-.78.94-1.64,1.8-2.42,2.73-1.87,2.11-3.67,4.14-5.7,6.4-.08.08-.08.23-.08.31.08.08.16.16.23.23l.08-.31Z"/>
    <path class="st3" d="M38.83,13.12c-2.73,3.05-5.54,6.01-8.28,9.06-.31.31-2.5,0-2.81-.39-.31-.39.08-.62.23-.86,1.87-2.11,3.67-4.3,5.7-6.25,1.33-1.33,3.28-1.25,5.15-1.56"/>
    <path class="st3" d="M38.83,13.12l-.23-.23c-2.73,3.05-5.54,6.01-8.28,9.06l.08.08-.08-.08h0l.08.08-.08-.08h0s-.23.08-.39.08c-.39,0-.86-.08-1.25-.16-.23-.08-.39-.08-.55-.16l-.16-.08h0l-.08-.08.08-.08c.08-.08.16-.16.23-.23,1.87-2.11,3.67-4.3,5.7-6.25.62-.55,1.41-.86,2.26-1.02.86-.16,1.8-.23,2.81-.39l-.16-.47-.23-.23.23.23-.08-.31c-.94.16-1.87.23-2.81.39-.94.16-1.8.47-2.58,1.17-2.03,1.95-3.83,4.22-5.7,6.33-.08.08-.16.16-.23.23-.08.08-.23.31-.23.47s.08.39.23.55.31.23.47.31c.55.23,1.33.31,1.95.31h.47c.16,0,.31-.08.39-.23,2.73-2.97,5.54-6.01,8.28-9.06.08-.08.08-.23.08-.39-.08-.08-.16-.16-.31-.16l.08.39Z"/>
    <path class="st3" d="M68.2,23.66c2.19-2.5,4.22-4.84,6.17-7.26.62-.7,1.09-.16,1.56.08q1.72.78.62,2.26c-.31.47-.78.78-1.02,1.25-1.48,2.97-4.14,3.51-7.34,3.67"/>
    <path class="st3" d="M68.2,23.66l.23.23c2.19-2.5,4.22-4.84,6.17-7.26.16-.23.31-.23.39-.23s.16,0,.31.08c.16.08.31.16.47.23.47.23.78.39,1.02.47.08.08.16.08.16.16v.08s0,.16-.16.31c-.16.16-.31.47-.55.78-.31.39-.78.78-1.09,1.33-.7,1.41-1.64,2.19-2.81,2.73-1.17.47-2.58.7-4.22.78l.08.31.23.23-.23-.23v.31c1.64-.08,3.12-.23,4.37-.78,1.33-.55,2.42-1.48,3.12-3.05.16-.39.62-.78,1.02-1.25.23-.31.47-.55.62-.78.16-.23.23-.39.23-.7,0-.16-.08-.31-.16-.39-.16-.16-.31-.31-.55-.39-.23-.16-.55-.23-.86-.39-.16-.08-.23-.16-.47-.23-.16-.08-.39-.16-.62-.16-.31,0-.62.16-.86.47-1.95,2.34-3.98,4.69-6.17,7.26-.08.08-.08.23-.08.31.08.08.16.16.31.16l.08-.39Z"/>
    <path class="st5" d="M40.32,41.31c-1.25.16-1.95-.23-2.66-1.17-2.89-4.37-5.86-8.67-8.75-12.96-.08-.08-.08-.23-.23-.39.86-.08,1.48,0,2.03.7,3.12,4.53,6.25,8.98,9.37,13.43.16.08.16.23.23.39"/>
    <path class="st5" d="M40.32,41.31l-.08-.31c-.16,0-.39.08-.55.08-.39,0-.7-.08-1.02-.23-.31-.16-.55-.47-.78-.86-2.89-4.37-5.86-8.67-8.75-12.96,0-.08-.08-.16-.16-.39l-.31.16v.31h.39c.31,0,.55,0,.78.16.23.08.39.23.55.47,3.12,4.53,6.25,8.98,9.37,13.43,0,0,.08.16.16.39l.39-.23-.08-.31.08.31.31-.16c-.08-.16-.08-.31-.23-.47-3.12-4.45-6.25-8.98-9.37-13.43-.23-.31-.55-.55-.86-.7-.31-.16-.62-.16-1.02-.16h-.47c-.08,0-.23.08-.23.16-.08.08-.08.23,0,.31.08.23.16.31.23.47,2.89,4.3,5.86,8.67,8.75,12.96.31.47.62.78,1.02,1.02s.86.39,1.33.39c.16,0,.39,0,.62-.08.08,0,.16-.08.23-.16.08-.08.08-.16,0-.31l-.31.16Z"/>
    <path class="st5" d="M82.33,33.58c-1.8-2.5-3.36-4.69-4.92-6.87-.23-.39-.23-.55.23-.7.94-.31,1.95-.62,2.89-.86.31-.08.47-.08.62.23.55,1.02,1.33,1.95,1.25,3.2-.08,1.48-.08,3.05-.08,5"/>
    <path class="st5" d="M82.33,33.58l.23-.16c-1.8-2.5-3.36-4.69-4.92-6.87l-.08-.16h-.08.08-.08.08s.08-.08.23-.08c1.02-.31,1.95-.62,2.89-.86h.23l.08.08c.23.55.55.94.86,1.41.23.47.39.94.39,1.48v.16c-.08,1.56-.08,3.12-.08,5.08l.16-.08.23-.16-.23.16h.31c0-1.95,0-3.51.08-5v-.23c0-.7-.23-1.25-.47-1.72-.23-.47-.62-.94-.78-1.41-.08-.16-.16-.23-.31-.31-.16-.08-.23-.08-.39-.08s-.23,0-.31.08c-.94.31-1.95.62-2.89.86-.16.08-.31.08-.39.23-.16.08-.23.23-.23.47s.08.39.23.55c1.56,2.19,3.2,4.45,4.92,6.87.08.08.23.16.31.08.16-.08.23-.16.23-.31l-.31-.08Z"/>
    <path class="st5" d="M41.1,28.98c1.33-.31,2.03.23,2.66,1.17,2.5,3.67,5.08,7.26,7.58,10.86.23.31.55.62.62,1.17-.7.16-1.25.16-1.72-.55-2.89-4.06-5.86-8.12-8.82-12.18-.08-.08-.16-.23-.31-.47"/>
    <path class="st5" d="M41.1,28.98l.08.31c.23-.08.47-.08.62-.08.39,0,.7.08.94.31.23.16.47.47.78.86,2.5,3.67,5.08,7.26,7.58,10.86.16.16.23.31.39.47.08.16.16.31.16.47h.31l-.08-.31c-.23.08-.39.08-.55.08s-.31,0-.39-.08c-.16-.08-.23-.16-.39-.39-2.97-4.06-5.94-8.12-8.9-12.18-.08-.08-.16-.23-.31-.47l-.23.16.08.31-.08-.31-.23.16c.16.23.23.39.31.55,2.97,4.06,5.86,8.12,8.82,12.18.16.23.39.47.62.55.23.08.47.16.7.16s.47,0,.7-.08c.16,0,.23-.16.23-.31,0-.31-.16-.62-.23-.78-.16-.23-.31-.39-.39-.55-2.5-3.59-5.08-7.18-7.58-10.86-.23-.39-.55-.78-.94-1.02s-.78-.39-1.25-.39c-.23,0-.47,0-.78.08-.08,0-.16.08-.23.16v.31l.23-.16Z"/>
    <path class="st5" d="M51.64,29.52c1.09-.31,1.72,0,2.19.78,2.42,3.44,4.84,6.87,7.26,10.31.23.31,1.02.78.39,1.17-.55.31-1.25.23-1.72-.47-1.8-2.66-3.67-5.23-5.47-7.89-.86-1.25-1.72-2.5-2.66-3.9"/>
    <path class="st5" d="M51.64,29.52l.08.31c.31-.08.55-.08.7-.08.23,0,.47.08.62.16.16.16.39.31.55.55,2.42,3.44,4.84,6.87,7.26,10.31.16.16.31.31.39.47l.16.16v.08h0l-.08.08c-.16.08-.31.16-.47.16-.23,0-.55-.16-.86-.55-1.8-2.66-3.67-5.23-5.47-7.89-.86-1.25-1.72-2.5-2.73-3.9l-.16.16.08.31-.08-.31-.23.16c.94,1.41,1.8,2.66,2.73,3.9,1.8,2.66,3.67,5.23,5.47,7.89.39.55.86.78,1.33.78.31,0,.55-.08.78-.23s.39-.39.39-.62c0-.16-.08-.31-.08-.39-.08-.16-.23-.31-.31-.39s-.23-.23-.23-.23c-2.42-3.44-4.92-6.87-7.26-10.31-.23-.31-.47-.55-.7-.78-.31-.16-.62-.31-1.02-.31-.23,0-.55.08-.86.16-.08,0-.16.08-.23.16v.31l.23-.08Z"/>
    <path class="st5" d="M73.9,27.1c1.25-.78,1.95-.39,2.58.62,1.72,2.58,3.59,5,5.39,7.5.16.23.47.47.47.7,0,.55.39,1.41-.31,1.72-.62.31-.86-.47-1.17-.86-2.26-3.2-4.61-6.4-6.95-9.68"/>
    <path class="st5" d="M73.9,27.1l.16.23c.39-.23.7-.31,1.02-.31.23,0,.39.08.62.23s.39.39.62.7c1.72,2.58,3.59,5,5.39,7.5.08.16.23.23.31.39.08.08.08.16.08.23,0,.39.16.7.16,1.02,0,.08,0,.16-.08.23,0,.08-.08.08-.16.16-.08,0-.16.08-.16.08l-.08-.08c-.08-.08-.16-.16-.23-.31-.08-.16-.16-.31-.31-.47-2.34-3.2-4.61-6.4-7.03-9.68l-.31.08.16.23-.16-.23-.23.16c2.34,3.28,4.69,6.48,7.03,9.68.08.16.23.39.39.62.08.08.16.23.31.31s.31.16.47.16.31,0,.39-.08c.23-.08.39-.23.47-.47.08-.16.16-.39.16-.55,0-.39-.16-.78-.16-1.02s-.16-.39-.23-.55c-.08-.16-.23-.23-.31-.39-1.8-2.5-3.67-4.92-5.39-7.5-.23-.31-.47-.62-.78-.86s-.62-.31-.94-.31c-.39,0-.86.16-1.33.47-.08.08-.16.16-.16.23s0,.16.08.23l.23-.16Z"/>
    <path class="st5" d="M63.04,28.98c1.02-.39,1.64-.16,2.19.7,2.19,3.2,4.45,6.33,6.72,9.45.23.31.86.7.39,1.09-.55.39-1.09.23-1.56-.47-1.87-2.66-3.83-5.31-5.78-7.97-.62-.94-1.33-1.87-1.95-2.81"/>
    <path class="st5" d="M63.04,28.98l.08.31c.31-.16.55-.16.78-.16s.39.08.55.16c.16.08.31.31.55.55,2.19,3.2,4.45,6.33,6.72,9.53.16.16.23.31.39.39l.16.16v.08h-.16c-.16.08-.23.16-.39.16-.23,0-.47-.16-.78-.55-1.87-2.73-3.83-5.31-5.78-7.97-.62-.94-1.33-1.8-1.95-2.81l-.16.16.08.31-.08-.31-.31.16c.7.94,1.33,1.87,1.95,2.81,1.95,2.66,3.83,5.31,5.7,7.97.31.47.78.78,1.25.78.23,0,.55-.08.78-.23.16-.16.31-.31.31-.55,0-.16-.08-.23-.08-.39-.08-.16-.23-.23-.31-.39-.08-.08-.16-.16-.23-.23-2.26-3.2-4.53-6.33-6.72-9.45-.23-.31-.39-.55-.7-.7-.23-.16-.55-.31-.86-.31s-.62.08-1.02.23c-.08,0-.16.08-.16.23,0,.08,0,.16.08.23l.31-.16Z"/>
    <path class="st3" d="M75.46,22.18c.7-1.41,1.95-2.5,2.81-3.83.23-.31.55-.31.86-.16,1.02.55,1.95,1.09,2.97,1.95-2.19.94-4.3,1.72-6.64,2.03h0Z"/>
    <path class="st3" d="M75.46,22.18l.31.16c.7-1.41,1.87-2.42,2.81-3.75.08-.16.16-.16.23-.16s.16,0,.23.08c1.02.55,1.95,1.09,2.89,1.95l.23-.23-.16-.31c-2.19.94-4.3,1.72-6.56,1.95v.31s.23-.23.23-.23h0l-.23.23.31.16-.31-.16-.23.16h0c.08.08.16.08.23.08,2.34-.31,4.53-1.09,6.72-2.03.08-.08.16-.16.16-.23s0-.23-.08-.31c-1.02-.94-2.03-1.48-2.97-2.03-.16-.08-.39-.16-.55-.16-.31,0-.55.16-.78.39-.86,1.25-2.11,2.34-2.89,3.83-.08.16,0,.23.08.39l.31-.08Z"/>
    <path class="st3" d="M30.71,16.09c-1.48,1.64-2.97,3.36-4.45,4.92-.7.7-1.41.08-2.11-.16-.31-.08,0-.47.16-.62,1.8-1.87,3.75-3.44,6.17-4.37l.23.23Z"/>
    <path class="st3" d="M30.71,16.09l-.23-.23c-1.48,1.64-2.97,3.36-4.45,4.92-.16.16-.31.23-.47.23s-.39-.08-.55-.16c-.23-.08-.47-.23-.7-.31v.08-.08h0v.08-.08l-.08.08h.16l-.08-.08-.08.08h.16-.08.08-.08.08s.08-.16.16-.23c1.72-1.87,3.67-3.36,6.01-4.3l-.08-.31-.23.23c.08.08.16.16.23.23l.23-.16-.23-.23.23.23.23-.23c-.08-.08-.16-.16-.23-.23-.08-.08-.23-.08-.31-.08-2.42.94-4.45,2.58-6.25,4.45l-.23.23c-.08.08-.16.23-.16.39,0,.08,0,.16.08.31.08.08.16.16.23.16.16.08.39.16.62.31.23.08.55.23.86.23s.62-.16.94-.39c1.56-1.64,2.97-3.28,4.45-4.92.08-.16.08-.31,0-.47l-.23.23Z"/>
    <path class="st5" d="M28.92,39.28c-2.34-.23-5.08-3.9-4.69-6.33,1.56,2.19,3.12,4.22,4.69,6.33"/>
    <path class="st5" d="M28.92,39.28v-.31c-.94-.08-2.11-.86-2.97-1.95-.86-1.09-1.48-2.42-1.48-3.51v-.39l-.31-.08-.23.16c1.56,2.11,3.12,4.14,4.69,6.33l.31-.23v-.31.31l.23-.16c-1.56-2.11-3.12-4.14-4.69-6.33-.08-.08-.23-.08-.31-.08-.16,0-.23.16-.23.23,0,.16-.08.31-.08.55,0,1.33.7,2.73,1.64,3.9.94,1.17,2.19,2.11,3.36,2.19.16,0,.23-.08.31-.16s.08-.23,0-.31l-.23.16Z"/>
    <path class="st5" d="M24.07,36.24c.47.62.62.94.86,1.25.16.23.47.47.31.78-.16.31-.55.08-.78.08-.47,0-.39-.39-.39-.62-.08-.47,0-.86,0-1.48"/>
    <path class="st5" d="M24.07,36.24l-.23.16c.47.62.62.94.86,1.25.08.16.16.23.23.31l.08.08h-.16c-.08,0-.16-.08-.31-.08h-.08v.08h.08v.08h.08-.08.08-.08.08v-.31h0v-1.41l-.55-.16-.23.16.23-.16h-.31v1.41h.31-.31v.23c0,.16,0,.31.16.47.08.08.16.16.23.16s.23.08.31.08h.23c.08,0,.23.08.31.08s.16,0,.31-.08l.23-.23c.08-.08.08-.23.08-.39,0-.23-.08-.39-.16-.47-.08-.08-.16-.23-.23-.23-.23-.31-.47-.62-.86-1.25-.08-.08-.23-.16-.31-.08-.16.08-.23.16-.23.31h.23Z"/>
    <path class="st3" d="M75.46,22.18l-.08.08.08-.08Z"/>
    <path class="st3" d="M75.46,22.18l-.16-.23-.16.08.16.23.23.23.08-.16-.16-.16-.23.16h0l.23-.16-.16-.23.16.23.23-.23h0c-.08-.08-.16-.08-.23-.08s-.16,0-.23.08l-.08.16c-.08.16-.16.31,0,.39.08.16.31.16.39.08l.16-.08c.08-.08.08-.16.16-.23,0-.08,0-.16-.08-.23l-.31.16Z"/>
    <rect class="st3" x="25.17" y="64.27" width="57.01" height="5.7"/>
    <path class="st3" d="M82.18,69.98v-.31H25.48v-5.08h56.39v5.39h.31v-.31.31h.31v-5.7c0-.08,0-.16-.08-.23-.08-.08-.16-.08-.23-.08H25.17c-.08,0-.16,0-.23.08s-.08.16-.08.23v5.7c0,.08,0,.16.08.23.08.08.16.08.23.08h57.01c.08,0,.16,0,.23-.08.08-.08.08-.16.08-.23h-.31Z"/>
    <path class="st1" d="M32.98,63.02c-1.33-1.72-2.03-3.67-1.72-5.7.47-3.05,2.58-4.84,5.39-5.86,2.19-.78,4.3-1.72,6.01-3.28.31-.31.78-.55.62-1.02-.08-.47-.62-.23-1.02-.23-6.17-.7-12.26-1.8-18.12-3.83-.94-.31-1.25-.78-1.25-1.8,0-6.09,0-12.18-.08-18.35,0-.23.08-.47.08-.78,0-.55.23-1.02-.16-1.48v-.23c.08-.16.16-.31.23-.47h0c.31,0,.47-.23.47-.55,1.33-1.95,3.28-3.12,5.31-4.14,2.66-1.41,5.31-2.66,8.28-3.28.86-.16,1.72-.55,2.66-.62.31,0,.7.08,1.02-.23h0c.47,0,.94.08,1.25-.23h0c.86,0,1.72.08,2.5-.39,1.41-.16,2.89.16,4.37-.23h2.11c2.81,0,5.54.08,8.36.62,7.73.55,14.84,3.05,21.63,6.72.47.23.78.55,1.17.86.86.7,1.33,1.48,1.33,2.73-.08,6.72.08,13.51.16,20.23,0,.94-.23,1.33-1.17,1.56-5.78,1.56-11.64,2.89-17.57,3.51-.16,0-.39.16-.55.23.39.78,1.02,1.25,1.8,1.56,2.81,1.25,5.78,1.87,8.59,2.89,2.42.86,4.14,2.42,4.69,5.08.47,2.19-.31,3.83-2.03,5.15-.47.31-.94.7-1.48,1.09.55.31,1.02.23,1.48.23h5.86c1.17,0,1.8.31,1.64,1.72-.16,2.11-.08,4.22,0,6.33,0,.7-.16.94-.86.94-2.5-.08-5,.08-7.5.08-10.46,0-20.93-.08-31.39,0-4.61,0-9.29.08-13.9,0-2.34,0-4.61-.08-6.95-.08v-1.02c.62-.62.23-1.33.23-2.03-.08-1.17.23-2.42-.16-3.51v-1.56c.55-.39,1.17-.47,1.87-.47,2.03.08,4.14.08,6.17.08.08,0,.55.31.62-.23M75.46,22.18c2.26-.31,4.45-1.02,6.64-2.03-.94-.86-1.95-1.41-2.97-1.95-.31-.16-.62-.16-.86.16-.86,1.25-2.11,2.34-2.81,3.83-.08,0-.08.08-.16.08.08,0,.16-.08.16-.08M69.14,62.79c-3.12-1.48-5.54-3.83-7.97-6.25-.23,1.25-.47,2.42-.7,3.51-.31,1.17-1.25,1.87-2.34,2.89,1.17,0,2.03,0,2.89.08,2.97.08,6.01.08,8.98.16v-.08c-.31-.16-.62-.23-.86-.31M41.33,64.66c0,.23,0-.16,0,0-4.92-.08-9.84-.16-14.84-.23-1.02,0-1.17.47-1.09,1.25,0,.94.16,1.87.08,2.81-.08,1.02.16,1.41,1.33,1.33,6.25-.08,12.57-.08,18.82-.16,3.98,0,7.97,0,11.87.08,7.58,0,15.23-.31,22.8.08,1.41.08,1.72-.16,1.72-1.64,0-.86-.08-1.72,0-2.5.08-.94-.23-1.33-1.25-1.33-6.72.08-13.51.16-20.23.08-6.4-.08-12.81.39-19.21.23M52.58,46.31c9.53,0,18.9-1.41,28.11-3.9,1.87-.55,1.87-.47,1.8-2.66,0-.78-.23-1.02-1.02-.78-6.25,2.03-12.65,3.2-19.21,3.83-7.58.7-15.15.55-22.73-.39-5-.62-9.92-1.64-14.76-2.97-.23-.08-.62-.47-.78.16-.39,1.25.16,2.26,1.41,2.73,5.39,1.8,10.93,2.73,16.56,3.36,3.51.47,7.03.7,10.62.62M52.42,28.35c8.2-.08,16.32-1.09,24.29-3.2,1.64-.47,3.2-1.02,4.84-1.48,1.17-.31.86-1.17.7-1.8-.23-.86-.78-.08-1.17-.08-.62.08-1.25.39-1.95.62-13.98,4.14-28.19,4.37-42.48,2.26-3.98-.62-7.89-1.41-11.71-2.5-.78-.23-.86,0-.94.7-.16,1.48.94,1.41,1.72,1.64,8.75,2.66,17.65,3.83,26.71,3.83M62.03,47.41c.62,1.56,1.33,2.81,2.66,3.75,1.72,1.25,3.51,2.26,5.62,2.73,1.17.23,2.34.7,3.28,1.48.62.55,1.09,1.25.86,2.03-.31.94-1.09,1.25-2.11,1.09-2.26-.31-4.22-1.33-5.86-2.97-2.34-2.42-4.76-4.76-6.64-7.65-.23-.31-.62-.55-1.02-.31-.62.31-.16.7,0,1.09.23.62.47,1.25.78,1.87,1.72,4.37,4.22,8.04,8.59,10.23,2.89,1.41,5.78,1.41,8.59-.23,1.87-1.09,2.26-3.05,1.09-4.92-.7-1.09-1.64-1.87-2.81-2.5-1.41-.7-2.89-1.25-4.37-1.56-2.5-.62-4.84-1.48-6.72-3.28-.55-.47-1.02-.94-1.95-.86M32.74,58.18c-.23,2.89,2.58,5.08,4.53,4.61,3.44-.78,6.48-2.34,8.2-5.54,1.09-1.95,1.95-4.06,2.81-6.09.39-.86.62-1.72.86-2.66.08-.31.31-.94-.31-1.02-.47-.08-1.09-.23-1.17.7-.08.7-.55,1.33-.78,1.95-1.41,3.51-3.67,6.4-6.79,8.59-.86.55-1.8.94-2.81,1.02-.78,0-1.56-.16-1.95-.94s-.31-1.56.23-2.26c.86-1.33,2.26-1.8,3.59-2.42,2.89-1.25,6.01-2.26,7.03-5.7.08-.31.47-.62.16-.94-.31-.31-.7-.16-1.02.08-2.66,2.66-6.09,3.83-9.37,5.39-2.03,1.02-3.2,2.66-3.2,5.23M49.22,42.17c.08-.08.08-.23.16-.31-2.58-3.59-5.31-7.18-7.81-10.86-1.17-1.72-2.5-2.81-4.61-2.81-1.41,0-2.81-.7-4.3-.62,0,.16,0,.23.08.31,3.12,4.45,6.25,8.9,9.29,13.35.23.31.47.47.78.47,2.11.16,4.22.31,6.4.47M60.94,29.05c-1.64.08-3.44.23-5.15.31-.86,0-.78.31-.39.86,2.58,3.59,5.15,7.26,7.73,10.93.23.39.47.62,1.02.55,1.64-.31,3.28-.62,5-.78.94-.08,1.17-.23.55-1.17-2.42-3.36-4.84-6.72-7.18-10.07-.39-.55-.86-.78-1.56-.62M80.77,38.19c-2.66-3.67-5.08-7.11-7.58-10.54-.23-.39-.55-.39-1.02-.31-1.8.39-3.51.7-5.31,1.02-.86.16-.78.39-.39.94,2.42,3.36,4.76,6.72,7.18,10.07.23.39.47.62,1.02.47,2.03-.62,3.98-1.09,6.09-1.64M37.43,41.16c-3.44-5.08-6.64-9.84-10-14.6-.7-1.02-2.11-1.17-3.12-1.09-.7.08-.23,1.41-.31,2.11-.08.47.08,1.02,0,1.48-.08,1.02.23,1.87.86,2.66,1.87,2.5,3.75,5,5.62,7.5.31.39.55.7,1.09.78,1.8.39,3.67.7,5.86,1.17M59.3,56.15c.08-2.89-1.09-5.39-2.34-7.89-.39-.86-1.17-.7-1.8-.55-.78.23-.08.86,0,1.25.23,1.09.62,2.11.86,3.2.47,2.03.94,4.14,0,6.17-.39.86-.86,1.64-1.95,1.8-1.17.08-2.03-.31-2.58-1.41-.47-1.02-.78-2.03-.55-3.12.55-2.5.94-5,2.03-7.26.16-.23.47-.78-.08-.78-.7-.08-1.64-.47-2.03.62-.55,1.41-1.09,2.89-1.8,4.22-.78,1.56-.94,3.2-.62,4.84.31,1.64.62,3.36,2.11,4.3,3.75,2.5,8.36.16,8.67-4.3.08-.39.08-.7.08-1.09M45,29.29v.31c2.81,4.06,5.62,8.12,8.43,12.1.16.23.39.47.7.47,1.64,0,3.28.08,4.92.08-.08-.39,0-.55-.08-.55-2.73-3.98-5.47-7.89-8.2-11.87-.23-.39-.55-.47-.94-.47-1.56,0-3.2-.08-4.84-.08M42.58,24.29c1.56.16,2.89.23,4.22.39.47.08.7-.31.94-.55.94-1.09,1.95-2.11,2.89-3.2,2.66-2.97,5.31-5.86,7.97-8.9-1.02-.47-2.11-.31-3.05-.47-1.02-.16-1.72.23-2.42,1.02-2.26,2.5-4.53,5-6.79,7.5-1.17,1.33-2.34,2.73-3.75,4.22M37.04,23.59c1.41.23,2.58.39,3.75.55.31.08.47-.08.62-.31,3.67-4.06,7.34-8.12,11.09-12.18-1.25,0-2.26,0-3.36-.08-.7,0-1.33.08-1.87.78-1.8,2.03-3.67,4.06-5.47,6.09-1.56,1.64-3.12,3.28-4.76,5.15M64.06,12.89c-1.25-.39-2.42-.55-3.59-.62-.31,0-.55.23-.7.47-3.59,3.83-6.87,7.89-10.54,11.48-.16.08-.23.23-.16.39.08.23.31.23.55.23,2.11.08,4.3.55,5.47-1.87l.08-.08c2.89-3.36,5.86-6.64,8.9-10M69.21,14.06c-1.17-.31-2.19-.55-3.12-.86-.47-.16-.78.08-1.09.39-3.2,3.59-6.33,7.11-9.53,10.62-.16.16-.23.31-.16.55,2.58.23,5.08.16,6.56-2.5.16-.23.31-.39.55-.55,2.19-2.5,4.37-5,6.79-7.65M31.65,22.65c.94.16,1.8.31,2.66.55.86.23,1.48,0,2.11-.7,1.56-1.8,3.2-3.44,4.76-5.23,1.56-1.8,3.2-3.59,5-5.62-1.72.23-3.05.39-4.45.62-.47.08-.78.31-1.02.62-3.05,3.28-6.01,6.48-9.06,9.76M61.64,24.45c1.64.16,2.97-.16,4.3-.31.39-.08.62-.31.78-.55,2.11-2.5,4.22-4.92,6.33-7.42.16-.23.47-.39.23-.78-.55-.78-2.89-.86-3.59-.16-.78.94-1.64,1.8-2.42,2.73-1.8,2.11-3.67,4.22-5.62,6.48M38.83,13.12c-1.87.31-3.83.23-5.15,1.48-2.03,1.95-3.83,4.14-5.7,6.25-.16.23-.55.47-.23.86s2.5.7,2.81.39c2.73-2.97,5.54-5.94,8.28-8.98M68.2,23.66c3.2-.16,5.86-.7,7.26-3.67.23-.47.7-.86,1.02-1.25q1.09-1.48-.62-2.26c-.47-.23-.94-.78-1.56-.08-1.87,2.42-3.9,4.76-6.09,7.26M40.32,41.31c-.08-.16-.16-.31-.16-.39-3.12-4.45-6.25-8.98-9.37-13.43-.47-.7-1.17-.78-2.03-.7.08.23.16.31.23.39,2.89,4.3,5.86,8.67,8.75,12.96.62,1.02,1.33,1.41,2.58,1.17M82.33,33.58c0-1.95,0-3.51.08-5.08.08-1.33-.78-2.19-1.25-3.2-.16-.31-.39-.31-.62-.23-.94.31-1.95.62-2.89.86-.47.16-.55.31-.23.7,1.56,2.26,3.12,4.53,4.92,6.95M41.1,28.98c.16.23.23.39.31.47,2.97,4.06,5.94,8.12,8.82,12.18.47.7,1.02.62,1.72.55,0-.55-.39-.78-.62-1.17-2.5-3.59-5.08-7.18-7.58-10.86-.62-.94-1.33-1.48-2.66-1.17M51.64,29.52c.94,1.41,1.8,2.66,2.73,3.9,1.8,2.66,3.67,5.23,5.47,7.89.47.7,1.25.86,1.72.47.62-.39-.16-.86-.39-1.17-2.42-3.44-4.92-6.87-7.26-10.31-.55-.78-1.09-1.09-2.26-.78M73.9,27.1c2.34,3.28,4.69,6.48,7.03,9.68.31.39.55,1.17,1.17.86.7-.31.31-1.09.31-1.72,0-.23-.31-.47-.47-.7-1.8-2.5-3.67-4.92-5.39-7.5-.78-1.02-1.41-1.41-2.66-.62M49.3,62.95c-1.02-1.48-1.64-2.81-2.11-4.3-.23-.78-.62-.78-1.09-.16-1.09,1.41-2.42,2.58-3.9,3.51-.31.23-.86.31-.94.78,2.58.08,5.15.16,8.04.16M63.04,28.98c.7.94,1.33,1.87,1.95,2.81,1.95,2.66,3.83,5.31,5.78,7.97.47.7,1.02.86,1.56.47.47-.39-.16-.78-.39-1.09-2.26-3.2-4.53-6.33-6.72-9.45-.55-.86-1.17-1.09-2.19-.7M30.71,16.09c-.08-.08-.16-.16-.23-.23-2.42.94-4.37,2.5-6.17,4.37-.16.16-.39.55-.16.62.62.23,1.41.94,2.11.16,1.56-1.64,2.97-3.28,4.45-4.92M28.92,39.28c-1.56-2.11-3.12-4.14-4.69-6.33-.39,2.5,2.34,6.09,4.69,6.33M24.07,36.24v1.41c0,.23-.08.62.39.62.31,0,.62.23.78-.08.16-.31-.16-.55-.31-.78-.23-.31-.47-.62-.86-1.17"/>
    <path class="st1" d="M60.94,156.12c2.73-.08,5.47-.08,8.12-.16.31.08.55.16.86.23v.08c-2.97-.08-5.94-.16-8.98-.16"/>
    <path class="st5" d="M52.58,139.4c-3.51.08-7.11-.16-10.62-.55-5.62-.62-11.17-1.56-16.56-3.36-1.25-.47-1.72-1.41-1.41-2.73.16-.62.55-.23.78-.16,4.84,1.33,9.76,2.26,14.76,2.97,7.58.94,15.15,1.09,22.73.39,6.56-.62,12.96-1.87,19.21-3.83.78-.23,1.02-.08,1.02.78q.08,2.11-1.8,2.66c-9.22,2.42-18.59,3.83-28.11,3.83"/>
    <path class="st5" d="M52.58,139.4v-.31h-1.09c-3.2,0-6.33-.16-9.53-.55-5.62-.62-11.17-1.56-16.48-3.36-.47-.16-.78-.39-1.02-.62s-.31-.55-.31-.94c0-.23,0-.47.08-.7,0-.08.08-.16.08-.16l-.08-.08v.08h.08l-.08-.08v.08h0l.16.08c.08,0,.16.08.23.08,4.84,1.33,9.76,2.34,14.76,2.97,4.45.55,8.82.86,13.28.86,3.2,0,6.33-.16,9.53-.47,6.56-.62,12.96-1.87,19.21-3.9.23-.08.31-.08.39-.08h.08l.08.08c0,.08.08.23.08.47v.86c0,.31,0,.55-.08.7,0,.08-.08.16-.08.23-.08.08-.16.16-.39.23s-.55.16-1.02.31c-9.22,2.5-18.51,3.83-28.04,3.9h0l.16.31v.31c9.61,0,18.98-1.41,28.19-3.9.78-.23,1.25-.31,1.64-.62.16-.16.31-.39.31-.62.08-.23.08-.47.08-.86v-.86c0-.31,0-.55-.16-.78-.08-.08-.16-.23-.23-.31-.16-.08-.23-.08-.39-.08s-.39.08-.62.16c-6.25,2.03-12.57,3.2-19.13,3.83-3.12.31-6.33.47-9.45.47-4.37,0-8.82-.31-13.2-.86-5-.62-9.84-1.64-14.68-2.97,0,0-.08,0-.16-.08-.08-.08-.23-.08-.39-.08s-.31.08-.39.16c-.08.08-.16.23-.23.39-.08.31-.16.62-.16.86,0,.47.16,1.02.47,1.33.31.39.7.7,1.25.86,5.39,1.87,11.01,2.73,16.56,3.44,3.2.39,6.4.55,9.61.55h1.09v-.31Z"/>
    <path class="st5" d="M52.42,121.44c-9.06,0-17.96-1.25-26.71-3.75-.78-.23-1.95-.23-1.72-1.64.08-.7.16-.94.94-.7,3.83,1.09,7.81,1.87,11.71,2.5,14.29,2.19,28.51,1.87,42.48-2.26.62-.16,1.25-.47,1.95-.62.39-.08,1.02-.86,1.17.08.16.62.47,1.48-.7,1.8-1.64.39-3.2,1.02-4.84,1.48-7.97,2.03-16.01,3.12-24.29,3.12"/>
    <path class="st5" d="M52.42,121.44v-.31c-9.06,0-17.96-1.25-26.63-3.75-.39-.08-.86-.16-1.09-.31-.16-.08-.23-.16-.31-.23s-.16-.23-.16-.47v-.23c0-.23.08-.47.08-.47h.08c.08,0,.23,0,.39.08,3.9,1.09,7.81,1.87,11.79,2.5,5.7.86,11.4,1.33,17.02,1.33,8.59,0,17.1-1.09,25.62-3.59.7-.23,1.33-.47,1.87-.62.23-.08.39-.16.55-.23.08-.08.16-.08.16-.08h.08v-.08.08h0v-.08.08-.08h0v-.08h0v.08s0,.08.08.16c.08.23.16.55.16.78,0,.16,0,.31-.08.39s-.23.23-.55.31c-1.64.39-3.28,1.02-4.84,1.48-7.89,2.11-16.01,3.2-24.21,3.2v.16-.31.62c8.28-.08,16.4-1.09,24.37-3.28,1.64-.47,3.2-1.09,4.84-1.48.39-.08.7-.23.86-.47s.23-.55.23-.78c0-.31-.08-.62-.16-.86-.08-.16-.08-.31-.23-.47-.08-.16-.31-.23-.47-.23-.23,0-.47.16-.62.23-.16.08-.31.16-.31.16-.7.16-1.33.47-1.95.62-8.43,2.5-16.87,3.59-25.38,3.59-5.62,0-11.25-.47-16.95-1.33-3.98-.62-7.89-1.41-11.71-2.42-.23-.08-.39-.08-.55-.08s-.23,0-.39.08-.31.31-.31.47c-.08.16-.08.31-.08.55v.31c0,.31.08.62.23.86.23.31.55.47.86.62.31.08.62.16.86.23,8.75,2.58,17.73,3.75,26.79,3.83h0l.08-.47Z"/>
    <path class="st0" d="M62.03,140.5c.94-.16,1.41.39,1.87.78,1.87,1.8,4.22,2.66,6.72,3.28,1.48.39,2.97.94,4.37,1.56,1.17.55,2.11,1.33,2.81,2.5,1.17,1.87.78,3.83-1.09,4.92-2.81,1.64-5.62,1.64-8.59.23-4.37-2.19-6.87-5.86-8.59-10.23-.23-.62-.55-1.25-.78-1.87-.16-.31-.55-.78,0-1.09.39-.16.78,0,1.02.47,1.87,2.89,4.22,5.23,6.64,7.65,1.64,1.64,3.59,2.66,5.86,2.97,1.02.16,1.8-.16,2.11-1.09.31-.86-.23-1.56-.86-2.03-.94-.78-2.11-1.25-3.28-1.48-2.11-.47-3.9-1.56-5.62-2.73-1.25-.94-1.95-2.26-2.58-3.83"/>
    <path class="st0" d="M62.03,140.5l.08.31h.23c.31,0,.55.08.78.23s.39.31.62.47c1.95,1.87,4.37,2.73,6.87,3.36,1.48.39,2.97.86,4.3,1.56,1.09.55,2.03,1.33,2.66,2.34.39.62.62,1.33.62,1.95,0,1.02-.55,1.95-1.56,2.58-1.41.78-2.81,1.25-4.3,1.25-1.33,0-2.66-.31-3.98-1.02-4.3-2.11-6.72-5.7-8.43-10-.23-.62-.55-1.25-.78-1.87-.08-.16-.16-.31-.16-.39-.08-.08-.08-.16-.08-.23h0l.08-.08.16-.08c.08,0,.16,0,.23.08.08.08.16.16.23.31,1.87,2.89,4.3,5.31,6.64,7.73,1.64,1.72,3.67,2.73,6.01,3.05.16,0,.31.08.55.08.47,0,.86-.08,1.17-.31.31-.23.62-.62.78-1.02.08-.23.08-.39.08-.55,0-.39-.16-.7-.31-1.02s-.47-.55-.7-.78c-1.02-.86-2.19-1.33-3.44-1.56-2.03-.47-3.83-1.48-5.54-2.66-1.17-.86-1.95-2.11-2.5-3.59l-.31-.16.08.31-.08-.31-.31.08c.62,1.56,1.41,2.89,2.73,3.9,1.72,1.25,3.59,2.34,5.78,2.81,1.17.23,2.26.7,3.2,1.48.23.16.47.39.62.62.16.23.23.47.23.7,0,.16,0,.23-.08.39-.08.39-.31.55-.47.7-.23.16-.47.23-.86.23h-.39c-2.26-.31-4.14-1.25-5.7-2.89-2.34-2.42-4.76-4.76-6.56-7.58-.08-.16-.23-.31-.39-.47-.16-.16-.39-.23-.62-.23-.16,0-.31,0-.39.08-.16.08-.23.16-.39.23-.08.08-.16.23-.16.39,0,.23.08.39.16.47.08.16.16.23.16.31.23.62.55,1.25.78,1.87,1.72,4.45,4.3,8.2,8.75,10.39,1.41.7,2.89,1.09,4.3,1.09,1.56,0,3.05-.47,4.61-1.33,1.25-.7,1.87-1.87,1.87-3.12,0-.78-.23-1.48-.7-2.26-.7-1.17-1.72-2.03-2.97-2.58-1.41-.7-2.89-1.25-4.45-1.64-2.5-.62-4.76-1.48-6.56-3.2-.16-.16-.39-.39-.7-.55s-.62-.31-1.09-.31h-.31c-.08,0-.16.08-.23.16-.08.08-.08.16,0,.23h.16Z"/>
    <path class="st0" d="M32.74,151.27c.08-2.58,1.25-4.22,3.2-5.15,3.28-1.56,6.72-2.73,9.37-5.39.31-.31.7-.39,1.02-.08.31.31-.08.62-.16.94-1.02,3.51-4.14,4.53-7.03,5.7-1.41.55-2.73,1.09-3.59,2.42-.47.7-.62,1.48-.23,2.26.39.7,1.17.94,1.95.94,1.02-.08,1.95-.39,2.81-1.02,3.2-2.11,5.39-5.08,6.79-8.59.23-.62.7-1.33.78-1.95.08-.94.7-.7,1.17-.7.62.08.47.7.31,1.02-.23.86-.55,1.8-.86,2.66-.86,2.03-1.72,4.14-2.81,6.09-1.8,3.2-4.84,4.76-8.2,5.54-2.03.39-4.84-1.8-4.53-4.69"/>
    <path class="st0" d="M32.74,151.27h.31c0-1.25.31-2.26.86-3.05.55-.78,1.25-1.41,2.19-1.8,3.28-1.56,6.72-2.73,9.45-5.39.16-.16.31-.16.39-.16s.16,0,.23.08h0v.08c0,.08-.08.16-.08.23-.08.08-.08.16-.16.31-.47,1.64-1.48,2.73-2.73,3.59-1.25.78-2.73,1.41-4.14,1.95-1.33.55-2.81,1.09-3.75,2.5-.31.47-.55.94-.55,1.48,0,.39.08.7.31,1.09.23.39.55.7.94.86.39.16.78.23,1.17.23h.16c1.09-.08,2.11-.47,2.97-1.02,3.2-2.19,5.47-5.15,6.95-8.75.23-.62.7-1.25.78-2.03,0-.23.08-.31.16-.39.08,0,.08-.08.23-.08s.31,0,.47.08c.16,0,.16.08.16.08v.08c0,.16-.08.31-.08.47-.23.86-.55,1.72-.86,2.58-.94,2.03-1.72,4.14-2.81,6.01-1.72,3.12-4.69,4.61-8.04,5.39-.16,0-.31.08-.47.08-.78,0-1.72-.39-2.42-1.17-.7-.7-1.25-1.72-1.25-2.81v-.31h0l-.39-.23h-.31v.39c0,1.33.62,2.42,1.41,3.28.86.78,1.87,1.33,2.89,1.33.23,0,.39,0,.62-.08,3.44-.78,6.64-2.34,8.43-5.7,1.09-1.95,1.95-4.06,2.81-6.09.39-.86.7-1.8.94-2.66,0-.16.08-.39.08-.62,0-.16,0-.31-.16-.47-.16-.16-.31-.23-.55-.23-.16,0-.31-.08-.55-.08-.16,0-.47,0-.62.23-.23.16-.31.47-.39.78-.08.55-.47,1.17-.78,1.87-1.41,3.51-3.59,6.33-6.72,8.43-.86.55-1.72.94-2.66.94h-.16c-.31,0-.62-.08-.94-.16-.23-.16-.47-.31-.62-.62-.16-.23-.23-.55-.23-.78,0-.39.16-.78.39-1.17.78-1.17,2.11-1.72,3.44-2.26,1.41-.62,2.97-1.17,4.3-2.03,1.33-.86,2.42-2.11,2.97-3.9,0-.08.08-.16.16-.23.08-.16.16-.23.16-.47,0-.16-.08-.39-.23-.47-.16-.16-.39-.23-.62-.23-.31,0-.62.16-.86.39-2.58,2.58-6.01,3.75-9.29,5.31-1.02.47-1.87,1.17-2.42,2.03-.55.94-.94,2.03-.94,3.36l.47-.08h-.31.31Z"/>
    <path class="st5" d="M49.22,135.26c-2.11-.16-4.3-.31-6.4-.47-.39,0-.62-.23-.78-.47-3.12-4.45-6.25-8.9-9.29-13.35-.08-.08,0-.16-.08-.31,1.48-.08,2.89.62,4.3.62,2.19,0,3.44,1.09,4.61,2.81,2.5,3.67,5.15,7.26,7.81,10.86-.08.16-.16.23-.16.31"/>
    <path class="st5" d="M49.22,135.26v-.31c-2.11-.16-4.3-.31-6.4-.47-.16,0-.23-.08-.31-.08-.08-.08-.16-.16-.23-.23-3.12-4.45-6.25-8.9-9.29-13.35l-.08.08h.16v-.08l-.08.08h.16s0-.16-.08-.23l-.31.08v.31h.16c1.33,0,2.66.62,4.14.62,1.02,0,1.8.23,2.5.7.7.47,1.25,1.17,1.87,1.95,2.5,3.67,5.23,7.26,7.81,10.86l.23-.16-.31-.08c-.08.08-.08.23-.16.31h.23s0-.31,0-.31v.31l.31.08c.08-.08.08-.23.16-.31.08-.08,0-.23,0-.31-2.66-3.59-5.31-7.18-7.81-10.86-.62-.86-1.25-1.64-2.03-2.19-.78-.55-1.72-.86-2.89-.86-1.25,0-2.58-.62-4.14-.62h-.23c-.08,0-.16.08-.23.16-.08.08-.08.16-.08.23v.16c0,.08,0,.16.08.23,3.12,4.45,6.25,8.9,9.29,13.35.16.16.23.31.47.47.16.08.39.16.62.16,2.11.16,4.3.31,6.4.47.16,0,.23-.08.31-.23l-.23.08Z"/>
    <path class="st5" d="M60.94,122.14c.7-.16,1.17.08,1.56.62,2.42,3.36,4.76,6.72,7.18,10.07.62.86.47,1.02-.55,1.17-1.64.23-3.36.47-5,.78-.55.08-.78-.16-1.02-.55-2.58-3.67-5.15-7.26-7.73-10.93-.39-.55-.47-.86.39-.86,1.72-.08,3.51-.16,5.15-.31"/>
    <path class="st5" d="M60.94,122.14l.08.31c.16,0,.23-.08.31-.08.16,0,.31.08.47.16.16.08.23.23.39.39,2.42,3.36,4.76,6.72,7.26,10.07.16.16.23.31.23.39.08.08.08.16.08.16h.08l-.08-.08h.08l-.08-.08h0c-.08.08-.31.08-.62.16-1.72.23-3.36.47-5,.78h-.16q-.16,0-.31-.08c-.08-.08-.16-.16-.31-.31-2.58-3.67-5.15-7.26-7.73-10.93-.08-.08-.16-.23-.16-.31v-.08h-.08l.08.08v-.08h-.08l.08.08-.08-.08.08.08h0l-.08-.08.08.08h0s.16-.08.39-.08c1.72-.08,3.44-.23,5.15-.31h.08l-.16-.16v-.31c-1.72.08-3.44.23-5.08.31-.23,0-.47.08-.62.16-.08.08-.16.08-.23.23-.08.08-.08.23-.08.31,0,.16.08.23.08.39.08.16.16.23.23.39,2.58,3.59,5.15,7.26,7.73,10.93.08.16.23.31.39.47.16.16.39.23.7.23h.23c1.64-.31,3.28-.62,4.92-.78.31,0,.55-.08.78-.16.08-.08.23-.08.31-.23.08-.08.16-.23.16-.39s-.08-.31-.16-.47c-.08-.16-.16-.31-.31-.47-2.42-3.28-4.84-6.72-7.18-10.07-.16-.23-.39-.47-.62-.62s-.47-.23-.78-.23c-.16,0-.31,0-.47.08v.23s0-.31,0-.31v.31Z"/>
    <path class="st5" d="M80.77,131.28c-2.11.55-4.06,1.09-6.01,1.64-.55.16-.78-.08-1.02-.47-2.42-3.36-4.76-6.72-7.18-10.07-.39-.55-.47-.86.39-.94,1.8-.31,3.59-.62,5.31-1.02.47-.08.7,0,1.02.31,2.42,3.44,4.92,6.87,7.5,10.54"/>
    <path class="st5" d="M80.77,131.28l-.08-.31c-2.11.55-4.06,1.09-6.01,1.64h-.23c-.08,0-.16,0-.23-.08-.08-.08-.16-.16-.23-.31-2.42-3.36-4.76-6.72-7.18-10.07-.08-.08-.16-.23-.16-.31v-.08h-.08.08-.08.08-.16c.08,0,.16-.08.39-.08,1.8-.31,3.59-.62,5.31-1.02h.23c.08,0,.16,0,.23.08.08,0,.16.08.23.16,2.5,3.44,4.92,6.87,7.58,10.54l.31-.16-.08-.31.08.31.23-.16c-2.66-3.67-5.08-7.11-7.58-10.54-.08-.16-.23-.31-.39-.39s-.31-.16-.55-.16c-.16,0-.23,0-.39.08-1.8.39-3.51.7-5.31,1.02-.23.08-.47.08-.62.16-.08.08-.16.16-.23.23-.08.08-.08.23-.08.31,0,.16.08.31.08.39.08.16.16.23.23.39,2.42,3.36,4.76,6.72,7.18,10.07.08.16.23.31.39.47.16.16.39.23.62.23.16,0,.23,0,.39-.08,1.95-.55,3.9-1.09,6.01-1.64.08,0,.16-.08.23-.23,0-.08,0-.23-.08-.31l-.16.16Z"/>
    <path class="st5" d="M37.43,134.25c-2.19-.39-3.98-.78-5.86-1.09-.55-.08-.78-.39-1.09-.78-1.87-2.5-3.67-5.08-5.62-7.5-.62-.78-.94-1.64-.86-2.66.08-.47-.08-1.02,0-1.48.08-.78-.39-2.11.31-2.11,1.02-.08,2.42.08,3.12,1.09,3.28,4.61,6.48,9.45,10,14.53"/>
    <path class="st5" d="M37.43,134.25l.08-.31c-2.19-.39-3.98-.78-5.86-1.09-.23,0-.31-.08-.47-.23-.16-.08-.23-.23-.39-.47-1.87-2.5-3.67-5.08-5.62-7.5-.55-.7-.78-1.33-.78-2.11v-.62c0-.31-.08-.7-.08-.94v-.47c0-.47-.08-.94-.08-1.25,0-.16,0-.31.08-.31h.39c.47,0,.94.08,1.33.23s.78.39,1.02.78c3.28,4.76,6.48,9.53,10,14.6l.39-.31.08-.31-.08.31.23-.16c-3.44-5.08-6.64-9.84-10-14.6-.31-.47-.86-.78-1.33-.94-.55-.16-1.09-.23-1.56-.23h-.47c-.16,0-.23.08-.31.08-.16.08-.23.23-.23.39-.08.16-.08.31-.08.47,0,.39.08.94.08,1.25v.47c0,.31.08.7.08.94v.62c0,.94.39,1.72.94,2.5,1.87,2.5,3.75,5,5.62,7.5.16.16.31.39.47.55.23.16.47.31.78.39,1.8.31,3.67.62,5.78,1.09.16,0,.23,0,.31-.16.08-.08.08-.23,0-.31l-.31.16Z"/>
    <path class="st0" d="M59.3,149.24v1.02c-.31,4.53-4.92,6.79-8.67,4.3-1.41-.94-1.8-2.66-2.11-4.3-.31-1.72-.16-3.28.62-4.84.7-1.41,1.17-2.81,1.8-4.22.47-1.09,1.33-.7,2.03-.62.55.08.16.55.08.78-1.09,2.34-1.48,4.84-2.03,7.26-.23,1.17.08,2.19.55,3.12.55,1.09,1.41,1.48,2.58,1.41,1.09-.08,1.56-.86,1.95-1.8.94-2.03.47-4.14,0-6.17-.23-1.09-.62-2.11-.86-3.2-.08-.39-.78-.94,0-1.25.55-.16,1.33-.31,1.8.55,1.17,2.58,2.34,5.08,2.26,7.97"/>
    <path class="st0" d="M59.3,149.24h-.31v1.02c-.23,3.05-2.5,5.08-5.15,5.08-1.02,0-2.11-.31-3.05-.94-.62-.47-1.02-1.02-1.33-1.72-.31-.7-.47-1.56-.62-2.34-.08-.55-.16-1.02-.16-1.48,0-1.09.23-2.11.78-3.12.7-1.41,1.25-2.89,1.8-4.3.08-.23.23-.39.31-.47s.23-.08.39-.08c.31,0,.62.08,1.02.16h.08v-.08h0v-.08h0l.08-.08-.08.08v.08l.08-.08-.08.08h.08-.08.08-.08s0,.08-.08.16c-.08.08-.08.16-.16.31-1.09,2.34-1.56,4.92-2.03,7.34-.08.31-.08.62-.08.86,0,.86.23,1.72.62,2.5.23.55.62.94,1.02,1.17.47.23.94.39,1.48.39h.39c.62-.08,1.09-.31,1.41-.7s.55-.78.78-1.25c.39-.94.55-1.87.55-2.73,0-1.25-.23-2.42-.55-3.67-.23-1.09-.62-2.11-.86-3.2-.08-.23-.16-.39-.23-.55-.08-.16-.16-.23-.16-.31h0s.08-.08.16-.08c.23-.08.47-.16.62-.16s.31,0,.39.08.23.16.31.39c1.17,2.42,2.26,4.84,2.26,7.5v.31h0l.39-.08h.31v-.31c0-2.89-1.17-5.31-2.34-7.73-.16-.31-.31-.55-.55-.62-.23-.16-.47-.16-.7-.16-.31,0-.62.08-.86.16-.16.08-.31.16-.39.23s-.16.31-.16.39c0,.23.16.47.23.62l.16.31c.23,1.09.62,2.11.86,3.12.23,1.17.55,2.34.55,3.51,0,.86-.16,1.64-.55,2.5-.16.39-.39.78-.62,1.09-.23.23-.55.47-1.02.47h-.31c-.47,0-.86-.08-1.17-.31-.31-.23-.62-.47-.78-.94-.39-.7-.62-1.41-.62-2.19,0-.23,0-.47.08-.78.55-2.5.94-4.92,2.03-7.18,0-.08.08-.16.16-.31s.08-.23.08-.39c0-.08-.08-.31-.16-.39s-.23-.16-.39-.16c-.31,0-.62-.16-1.09-.16-.23,0-.55.08-.78.16-.23.16-.47.39-.55.7-.55,1.41-1.09,2.89-1.8,4.22-.55,1.09-.78,2.26-.78,3.44,0,.55.08,1.09.16,1.64.16.86.31,1.72.62,2.5.31.78.78,1.56,1.56,2.03,1.09.7,2.26,1.09,3.44,1.09,2.89,0,5.47-2.26,5.78-5.62v-1.02l-.39.08h.31-.31Z"/>
    <path class="st5" d="M45,122.38c1.64,0,3.28.08,4.84.08.39,0,.7.16.94.47,2.73,3.98,5.47,7.89,8.2,11.87,0,.08,0,.16.08.55-1.64,0-3.28-.08-4.92-.08-.31,0-.55-.23-.7-.47-2.81-4.06-5.62-8.12-8.43-12.1,0-.08,0-.16,0-.31"/>
    <path class="st5" d="M45,122.38v.31c1.64,0,3.28.08,4.84.08.16,0,.31,0,.39.08s.16.16.31.31c2.73,3.98,5.47,7.89,8.2,11.87l.16-.08h-.16v.08l.16-.08h-.16v.47h.31v-.31c-1.64,0-3.28-.08-4.92-.08-.08,0-.16,0-.23-.08-.08-.08-.16-.16-.23-.23-2.81-4.06-5.62-8.12-8.43-12.1l-.16.16.23-.08v-.08l-.16.16.23-.08h-.08.08-.08.08v-.23l-.39-.08v.31-.31h-.31v.16c0,.08,0,.16.08.23,2.81,4.06,5.62,8.12,8.43,12.1.08.16.23.31.39.39.16.16.39.23.62.23,1.64,0,3.28.08,4.92.08.08,0,.16,0,.23-.08.08-.08.08-.16.08-.23v-.55l-.08-.16c-2.73-3.98-5.47-7.89-8.2-11.87-.16-.23-.31-.39-.55-.47-.23-.08-.47-.16-.7-.16-1.56,0-3.2-.08-4.84-.08-.08,0-.16,0-.23.08s-.08.16-.08.23l.23.08Z"/>
    <path class="st3" d="M42.58,117.38c1.33-1.48,2.5-2.89,3.75-4.22,2.26-2.5,4.61-5,6.79-7.5.7-.78,1.41-1.17,2.42-1.02,1.02.16,2.03,0,3.05.47-2.66,2.97-5.31,5.94-7.97,8.9-.94,1.09-1.95,2.11-2.89,3.2-.23.23-.47.62-.94.55-1.33-.08-2.66-.23-4.22-.39"/>
    <path class="st3" d="M42.58,117.38l.23.23c1.33-1.48,2.5-2.89,3.75-4.22,2.26-2.5,4.61-5,6.79-7.5.55-.62,1.02-.94,1.72-.94h.39c1.02.16,2.03,0,2.97.47l.16-.31-.23-.23c-2.66,2.97-5.31,5.94-7.97,8.9-.94,1.09-1.95,2.11-2.89,3.2-.16.16-.23.23-.31.31-.08.08-.16.08-.31.08h-.08c-1.33-.16-2.66-.23-4.22-.39v.39s.23.23.23.23l-.23-.23v.31c1.56.16,2.89.23,4.22.39h.16c.31,0,.55-.16.7-.23.16-.16.31-.31.39-.39.94-1.09,1.95-2.11,2.89-3.2,2.66-2.97,5.31-5.86,7.97-8.9.08-.08.08-.16.08-.31,0-.08-.08-.16-.16-.23-1.17-.55-2.26-.31-3.12-.47-.16,0-.31-.08-.55-.08-.86,0-1.56.47-2.19,1.09-2.26,2.5-4.53,5-6.79,7.5-1.17,1.33-2.42,2.66-3.75,4.22-.08.08-.08.23-.08.31.08.08.16.16.23.23v-.23Z"/>
    <path class="st3" d="M37.04,116.68c1.64-1.87,3.2-3.51,4.69-5.23,1.8-2.03,3.67-3.98,5.47-6.09.55-.62,1.17-.78,1.87-.78,1.09,0,2.19,0,3.36.08-3.75,4.14-7.42,8.2-11.09,12.18-.16.23-.39.31-.62.31-1.09-.08-2.26-.23-3.67-.47"/>
    <path class="st3" d="M37.04,116.68l.23.23c1.64-1.87,3.2-3.51,4.69-5.23,1.8-2.03,3.67-3.98,5.47-6.09.23-.23.47-.39.7-.55s.55-.16.86-.16h.08c1.09,0,2.19,0,3.36.08v-.31l-.23-.23c-3.75,4.14-7.42,8.2-11.09,12.18-.08.08-.16.16-.16.16l-.16.08h-.08c-1.17-.16-2.34-.31-3.75-.55l.08.39.23.23-.23-.23-.08.31c1.41.23,2.58.39,3.75.55h.16c.16,0,.31-.08.47-.16.16-.08.23-.16.31-.31,3.67-4.06,7.34-8.12,11.09-12.18.08-.08.08-.23.08-.31-.08-.08-.16-.16-.31-.16-1.25,0-2.26,0-3.36-.08h-.16c-.39,0-.7.08-1.09.16-.31.16-.62.39-.94.7-1.8,2.03-3.67,4.06-5.47,6.09-1.48,1.64-3.05,3.36-4.69,5.23-.08.08-.08.23-.08.31s.16.16.23.23l.08-.39Z"/>
    <path class="st3" d="M64.06,105.98c-3.05,3.44-6.01,6.72-8.9,10l-.08.08c-1.25,2.42-3.44,1.95-5.47,1.87-.23,0-.47,0-.55-.23-.08-.16.08-.31.16-.39,3.75-3.67,7.03-7.73,10.54-11.48.23-.23.39-.47.7-.47,1.17.08,2.34.16,3.59.62"/>
    <path class="st3" d="M64.06,105.98l-.23-.23c-3.05,3.44-5.94,6.72-8.9,10l.23.23-.23-.23-.08.08-.08.08c-.39.78-.86,1.17-1.41,1.48-.55.23-1.17.31-1.87.31-.62,0-1.25-.08-1.95-.08h-.31.08-.08.08-.08.08-.08.08s.08-.08.16-.16c3.75-3.67,7.03-7.73,10.54-11.56.08-.08.16-.23.23-.23q.08-.08.16-.08h0c1.17.08,2.26.23,3.51.62l.16-.23-.23-.23.23.23.08-.31c-1.33-.39-2.5-.55-3.67-.62h-.08c-.23,0-.47.08-.55.23-.16.08-.23.23-.31.31-3.59,3.83-6.87,7.89-10.54,11.48-.08,0-.08.08-.16.16-.08.08-.16.23-.16.39,0,.08,0,.16.08.23.08.23.31.31.47.39h.39c.62,0,1.33.08,1.95.08.7,0,1.48-.08,2.11-.39.7-.31,1.25-.86,1.72-1.72l-.31-.16.23.23.08-.08h0c2.97-3.28,5.86-6.56,8.9-10,.08-.08.08-.16.08-.31,0-.08-.08-.16-.23-.23l-.08.31Z"/>
    <path class="st3" d="M69.21,107.15c-2.42,2.73-4.61,5.23-6.87,7.73-.16.16-.39.31-.55.55-1.48,2.66-3.98,2.73-6.56,2.5-.16-.23,0-.39.16-.55,3.2-3.51,6.33-7.11,9.53-10.62.31-.39.62-.55,1.09-.39,1.02.16,1.95.47,3.2.78"/>
    <path class="st3" d="M69.21,107.15l-.23-.23c-2.42,2.73-4.61,5.23-6.87,7.73-.16.16-.39.31-.55.62-.55,1.02-1.25,1.56-2.03,1.95s-1.64.47-2.58.47c-.55,0-1.09,0-1.64-.08v.31l.31-.16v-.16l.08-.16c3.2-3.51,6.33-7.11,9.53-10.62.08-.16.23-.23.31-.23.08-.08.16-.08.23-.08h.23c.94.31,1.95.55,3.12.86l.08-.23-.23-.23.23.23.08-.31c-1.17-.31-2.19-.55-3.12-.86-.16,0-.23-.08-.39-.08-.23,0-.39.08-.62.16-.16.08-.31.23-.47.39-3.2,3.59-6.33,7.11-9.53,10.62-.08.08-.08.16-.16.23s-.08.23-.08.39c0,.08,0,.23.08.31.08.08.16.16.23.16.55.08,1.17.08,1.72.08,1.02,0,1.95-.16,2.89-.55.86-.39,1.72-1.09,2.26-2.19.08-.16.23-.31.47-.47,2.26-2.5,4.45-5.08,6.87-7.73.08-.08.08-.16.08-.31,0-.08-.08-.16-.23-.23l-.08.39Z"/>
    <path class="st3" d="M31.65,115.74c3.05-3.28,6.01-6.48,8.98-9.68.31-.31.62-.62,1.02-.62,1.33-.23,2.73-.39,4.45-.62-1.8,2.03-3.36,3.83-5,5.62-1.56,1.72-3.2,3.44-4.76,5.23-.62.7-1.25.94-2.11.7-.78-.31-1.64-.47-2.58-.62"/>
    <path class="st3" d="M31.65,115.74l.23.23c3.05-3.28,6.01-6.48,8.98-9.68.31-.31.55-.55.86-.55,1.33-.23,2.73-.39,4.45-.62l-.08-.31-.23-.23c-1.8,2.03-3.36,3.83-5,5.54-1.56,1.72-3.2,3.44-4.76,5.23-.39.47-.78.62-1.25.62-.16,0-.31,0-.55-.08-.86-.23-1.72-.39-2.66-.55v.39l.23.23-.23-.23-.08.31c.94.16,1.8.31,2.58.55.23.08.47.08.7.08.62,0,1.25-.31,1.72-.86,1.56-1.8,3.2-3.44,4.76-5.23,1.64-1.8,3.2-3.59,5-5.62.08-.08.08-.23.08-.39-.08-.08-.16-.16-.31-.16-1.72.23-3.05.39-4.45.62-.55.08-.94.47-1.25.78-2.97,3.2-5.94,6.4-8.98,9.68-.08.08-.08.23-.08.31s.16.16.23.23l.08-.31Z"/>
    <path class="st3" d="M61.64,117.54c2.03-2.26,3.83-4.37,5.7-6.4.78-.94,1.64-1.8,2.42-2.73.62-.7,2.97-.62,3.51.16.23.31,0,.55-.23.78-2.11,2.5-4.22,4.92-6.33,7.42-.23.23-.47.47-.78.55-1.33.08-2.66.39-4.3.23"/>
    <path class="st3" d="M61.64,117.54l.23.23c2.03-2.26,3.83-4.37,5.62-6.4.78-.94,1.64-1.8,2.42-2.73.08-.08.31-.23.55-.31.23-.08.55-.08.86-.08.39,0,.7.08,1.02.16.31.08.55.23.62.39v.08l-.08.08c-.08.08-.08.16-.16.23-2.11,2.5-4.22,4.92-6.33,7.42-.08.16-.23.23-.31.31-.08.08-.16.08-.31.16-1.09.16-2.11.39-3.36.39-.31,0-.55,0-.86-.08l.08.16.23.23-.23-.23v.31c.31,0,.62.08.94.08,1.25,0,2.34-.23,3.44-.39.23,0,.47-.16.62-.23.16-.16.31-.23.39-.39,2.11-2.5,4.22-4.92,6.33-7.42.08-.08.16-.16.23-.23.08-.08.16-.23.16-.47,0-.16-.08-.31-.16-.47-.23-.31-.55-.47-.94-.62s-.78-.16-1.25-.16c-.39,0-.7.08-1.02.16-.31.08-.62.23-.86.47-.78.94-1.64,1.8-2.42,2.73-1.87,2.11-3.67,4.14-5.7,6.4-.08.08-.08.23-.08.31.08.08.16.16.23.23l.08-.31Z"/>
    <path class="st3" d="M38.83,106.21c-2.73,3.05-5.54,6.01-8.28,9.06-.31.31-2.5,0-2.81-.39-.31-.39.08-.62.23-.86,1.87-2.11,3.67-4.3,5.7-6.25,1.33-1.25,3.28-1.25,5.15-1.56"/>
    <path class="st3" d="M38.83,106.21l-.23-.23c-2.73,3.05-5.54,6.01-8.28,9.06l.08.08-.08-.08h0l.08.08-.08-.08h0s-.23.08-.39.08c-.39,0-.86-.08-1.25-.16-.23-.08-.39-.08-.55-.16l-.16-.08h0l-.08-.08.08-.08c.08-.08.16-.16.23-.23,1.87-2.11,3.67-4.3,5.7-6.25.62-.55,1.41-.86,2.26-1.02.86-.16,1.8-.23,2.81-.39l-.16-.47-.23-.23.23.23-.08-.31c-.94.16-1.87.23-2.81.39-.94.16-1.8.47-2.58,1.17-2.03,1.95-3.83,4.22-5.7,6.33-.08.08-.16.16-.23.23s-.23.31-.23.47.08.39.23.55.31.23.47.31c.55.23,1.33.31,1.95.31h.47c.16,0,.31-.08.39-.23,2.73-2.97,5.54-6.01,8.28-9.06.08-.08.08-.23.08-.39-.08-.08-.16-.16-.31-.16l.08.39Z"/>
    <path class="st3" d="M68.2,116.76c2.19-2.5,4.22-4.84,6.17-7.26.62-.7,1.09-.16,1.56.08q1.72.78.62,2.26c-.31.47-.78.78-1.02,1.25-1.48,2.97-4.14,3.51-7.34,3.67"/>
    <path class="st3" d="M68.2,116.76l.23.23c2.19-2.5,4.22-4.84,6.17-7.26.16-.23.31-.23.39-.23s.16,0,.31.08c.16.08.31.16.47.23.47.23.78.39,1.02.47.08.08.16.08.16.16v.08s0,.16-.16.31-.31.47-.55.78c-.31.39-.78.78-1.09,1.33-.7,1.41-1.64,2.19-2.81,2.73s-2.58.7-4.22.78l.08.31.23.23-.23-.23v.31c1.64-.08,3.12-.23,4.37-.78,1.33-.55,2.42-1.48,3.12-3.05.16-.39.62-.78,1.02-1.25.23-.31.47-.55.62-.78.16-.23.23-.39.23-.7,0-.16-.08-.31-.16-.39-.16-.16-.31-.31-.55-.39-.23-.16-.55-.23-.86-.39-.16-.08-.23-.16-.47-.23-.16-.08-.39-.16-.62-.16-.31,0-.62.16-.86.47-1.95,2.34-3.98,4.69-6.17,7.26-.08.08-.08.23-.08.31.08.08.16.16.31.16l.08-.39Z"/>
    <path class="st5" d="M40.32,134.48c-1.25.16-1.95-.23-2.66-1.17-2.89-4.37-5.86-8.67-8.75-12.96-.08-.08-.08-.23-.23-.39.86-.08,1.48,0,2.03.7,3.12,4.53,6.25,8.98,9.37,13.43.16,0,.16.16.23.39"/>
    <path class="st5" d="M40.32,134.48l-.08-.31c-.16,0-.39.08-.55.08-.39,0-.7-.08-1.02-.23-.31-.16-.55-.47-.78-.86-2.89-4.37-5.86-8.67-8.75-12.96,0-.08-.08-.16-.16-.39l-.31.16v.31h.39c.31,0,.55,0,.78.16.23.08.39.23.55.47,3.12,4.53,6.25,8.98,9.37,13.43,0,0,.08.16.16.39l.39-.23-.08-.31.08.31.31-.16c-.08-.16-.08-.31-.23-.47-3.12-4.45-6.25-8.98-9.37-13.43-.23-.31-.55-.55-.86-.7-.31-.16-.62-.16-1.02-.16h-.47c-.08,0-.23.08-.23.16-.08.08-.08.23,0,.31.08.23.16.31.23.47,2.89,4.3,5.86,8.67,8.75,12.96.31.47.62.78,1.02,1.02s.86.39,1.33.39c.16,0,.39,0,.62-.08.08,0,.16-.08.23-.16.08-.08.08-.16,0-.31l-.31.16Z"/>
    <path class="st5" d="M82.33,126.67c-1.8-2.5-3.36-4.69-4.92-6.87-.23-.39-.23-.55.23-.7.94-.31,1.95-.62,2.89-.86.31-.08.47-.08.62.23.55,1.02,1.33,1.95,1.25,3.2-.08,1.56-.08,3.12-.08,5"/>
    <path class="st5" d="M82.33,126.67l.23-.16c-1.8-2.5-3.36-4.69-4.92-6.87l-.08-.16h-.08.08-.08.08s.08-.08.23-.08c1.02-.31,1.95-.62,2.89-.86h.23l.08.08c.23.55.55.94.86,1.41.23.47.39.94.39,1.48v.16c-.08,1.56-.08,3.12-.08,5.08l.16-.08.23-.16-.23.16h.31c0-1.95,0-3.51.08-5v-.23c0-.7-.23-1.25-.47-1.72s-.62-.94-.78-1.41c-.08-.16-.16-.23-.31-.31-.16-.08-.23-.08-.39-.08s-.23,0-.31.08c-.94.31-1.95.62-2.89.86-.16.08-.31.08-.39.23-.16.08-.23.23-.23.47s.08.39.23.55c1.56,2.19,3.2,4.45,4.92,6.87.08.08.23.16.31.08.16-.08.23-.16.23-.31l-.31-.08Z"/>
    <path class="st5" d="M41.1,122.07c1.33-.31,2.03.23,2.66,1.17,2.5,3.67,5.08,7.26,7.58,10.86.23.31.55.62.62,1.17-.7.16-1.25.16-1.72-.55-2.89-4.06-5.86-8.12-8.82-12.18-.08-.08-.16-.23-.31-.47"/>
    <path class="st5" d="M41.1,122.07l.08.31c.23-.08.47-.08.62-.08.39,0,.7.08.94.31.23.16.47.47.78.86,2.5,3.67,5.08,7.26,7.58,10.86.16.16.23.31.39.47.08.16.16.31.16.47h.31l-.08-.31c-.23.08-.39.08-.55.08s-.31,0-.39-.08c-.16-.08-.23-.16-.39-.39-2.89-4.06-5.86-8.12-8.82-12.18-.08-.08-.16-.23-.31-.47l-.31.16.08.31-.08-.31-.23.16c.16.23.23.39.31.55,2.97,4.06,5.86,8.12,8.82,12.18.16.23.39.47.62.55.23.08.47.16.7.16s.47,0,.7-.08c.16,0,.23-.16.23-.31,0-.31-.16-.62-.23-.78-.16-.23-.31-.39-.39-.55-2.5-3.59-5.08-7.18-7.58-10.86-.23-.39-.55-.78-.94-1.02s-.78-.39-1.25-.39c-.23,0-.47,0-.78.08-.08,0-.16.08-.23.16v.31l.23-.16Z"/>
    <path class="st5" d="M51.64,122.69c1.09-.31,1.72,0,2.19.78,2.42,3.44,4.84,6.87,7.26,10.31.23.31,1.02.78.39,1.17-.55.31-1.25.23-1.72-.47-1.8-2.66-3.67-5.23-5.47-7.89-.86-1.33-1.72-2.58-2.66-3.9"/>
    <path class="st5" d="M51.64,122.69l.08.31c.31-.08.55-.08.7-.08.23,0,.47.08.62.16.16.16.39.31.55.55,2.42,3.44,4.84,6.87,7.26,10.31.16.16.31.31.39.47l.16.16v.08h0l-.08.08c-.16.08-.31.16-.47.16-.23,0-.55-.16-.86-.55-1.8-2.66-3.67-5.23-5.47-7.89-.86-1.25-1.72-2.5-2.73-3.9l-.16.16.08.31-.08-.31-.23.16c.94,1.41,1.8,2.66,2.73,3.9,1.8,2.66,3.67,5.23,5.47,7.89.39.55.86.78,1.33.78.31,0,.55-.08.78-.23s.39-.39.39-.62c0-.16-.08-.31-.08-.39-.08-.16-.23-.31-.31-.39s-.23-.23-.23-.23c-2.42-3.44-4.92-6.87-7.26-10.31-.23-.31-.47-.55-.7-.78-.31-.16-.62-.31-1.02-.31-.23,0-.55.08-.86.16-.08,0-.16.08-.23.16v.31l.23-.08Z"/>
    <path class="st5" d="M73.9,120.19c1.25-.78,1.95-.39,2.58.62,1.72,2.58,3.59,5,5.39,7.5.16.23.47.47.47.7,0,.55.39,1.41-.31,1.72-.62.31-.86-.47-1.17-.86-2.26-3.2-4.61-6.4-6.95-9.68"/>
    <path class="st5" d="M73.9,120.19l.16.23c.39-.23.7-.31,1.02-.31.23,0,.39.08.62.23s.39.39.62.7c1.72,2.58,3.59,5,5.39,7.5.08.16.23.23.31.39.08.08.08.16.08.23,0,.39.16.7.16,1.02,0,.08,0,.16-.08.23,0,.08-.08.08-.16.16-.08,0-.16.08-.16.08l-.08-.08c-.08-.08-.16-.16-.23-.31-.08-.16-.16-.31-.31-.47-2.34-3.2-4.61-6.4-7.03-9.68l-.31.08.16.23-.16-.23-.23.16c2.34,3.28,4.69,6.48,7.03,9.68.08.16.23.39.39.62.08.08.16.23.31.31.16.08.31.16.47.16s.31,0,.39-.08c.23-.08.39-.23.47-.47.08-.16.16-.39.16-.55,0-.39-.16-.78-.16-1.02s-.16-.39-.23-.55c-.08-.16-.23-.23-.31-.39-1.8-2.5-3.67-5-5.39-7.5-.23-.31-.47-.62-.78-.86s-.62-.31-.94-.31c-.39,0-.86.16-1.33.47-.08.08-.16.16-.16.23s0,.16.08.23l.23-.16Z"/>
    <path class="st5" d="M63.04,122.07c1.02-.39,1.64-.16,2.19.7,2.19,3.2,4.45,6.33,6.72,9.45.23.31.86.7.39,1.09-.55.39-1.09.23-1.56-.47-1.87-2.66-3.83-5.31-5.78-7.97-.62-.94-1.33-1.8-1.95-2.81"/>
    <path class="st5" d="M63.04,122.07l.08.31c.31-.16.55-.16.78-.16s.39.08.55.16c.16.08.31.31.55.55,2.19,3.2,4.45,6.33,6.72,9.45.16.16.23.31.39.39l.16.16v.08h0l-.08.08c-.16.08-.23.16-.39.16-.23,0-.47-.16-.78-.55-1.87-2.73-3.83-5.31-5.78-7.97-.62-.94-1.33-1.8-1.95-2.81l-.23.16.08.31-.08-.31-.23.16c.7.94,1.33,1.87,1.95,2.81,1.95,2.66,3.83,5.31,5.7,7.97.31.47.78.78,1.25.78.23,0,.55-.08.78-.23.16-.16.31-.31.31-.55,0-.16-.08-.23-.08-.39-.08-.16-.23-.23-.31-.39-.08-.08-.16-.16-.23-.23-2.26-3.2-4.53-6.33-6.72-9.45-.23-.31-.39-.55-.7-.7-.23-.16-.55-.31-.86-.31s-.62.08-1.02.23c-.08,0-.16.08-.16.23,0,.08,0,.16.08.23l.23-.16Z"/>
    <path class="st3" d="M75.46,115.27c.7-1.41,1.95-2.5,2.81-3.83.23-.31.55-.31.86-.16,1.02.55,1.95,1.09,2.97,1.95-2.19,1.02-4.3,1.72-6.64,2.03h0Z"/>
    <path class="st3" d="M75.46,115.27l.31.16c.7-1.41,1.87-2.42,2.81-3.75.08-.16.16-.16.23-.16s.16,0,.23.08c1.02.55,1.95,1.09,2.89,1.95l.23-.23-.16-.31c-2.19.94-4.3,1.72-6.56,1.95v.31s.23-.23.23-.23h0l-.23.23.31.16-.31-.16-.23.23h0c.08.08.16.08.23.08,2.34-.31,4.53-1.09,6.72-2.03.08-.08.16-.16.16-.23s0-.23-.08-.31c-1.02-.94-2.03-1.48-2.97-2.03-.16-.08-.39-.16-.55-.16-.31,0-.55.16-.78.39-.86,1.25-2.11,2.34-2.89,3.83-.08.16,0,.23.08.39l.31-.16Z"/>
    <path class="st3" d="M30.71,109.18c-1.48,1.64-2.97,3.36-4.45,4.92-.7.7-1.41.08-2.11-.16-.31-.08,0-.47.16-.62,1.8-1.87,3.75-3.44,6.17-4.37.08.08.16.16.23.23"/>
    <path class="st3" d="M30.71,109.18l-.23-.23c-1.48,1.64-2.97,3.36-4.45,4.92-.16.16-.31.23-.47.23s-.39-.08-.55-.16c-.23-.08-.47-.23-.7-.31v.08-.08h0v.08-.08l-.08.08h.16l-.08-.08-.08.08h.16-.08.08-.08.08s.08-.16.16-.23c1.72-1.87,3.67-3.36,6.01-4.3l-.08-.31-.23.23c.08.08.16.16.23.23l.23-.16-.23-.23.23.23.23-.23c-.08-.08-.16-.16-.23-.23s-.23-.08-.31-.08c-2.42.94-4.45,2.58-6.25,4.45-.08.08-.16.16-.23.23-.08.08-.16.23-.16.39,0,.08,0,.16.08.31.08.08.16.16.23.16.16.08.39.16.62.31.23.08.55.23.86.23s.62-.16.94-.39c1.56-1.64,2.97-3.28,4.45-4.92.08-.16.08-.31,0-.47l-.23.23Z"/>
    <path class="st5" d="M28.92,132.45c-2.34-.23-5.08-3.9-4.69-6.33,1.56,2.11,3.12,4.14,4.69,6.33"/>
    <path class="st5" d="M28.92,132.45v-.31c-.94-.08-2.11-.86-2.97-1.95s-1.48-2.42-1.48-3.51v-.39l-.31-.08-.23.16c1.56,2.11,3.12,4.14,4.69,6.33l.31-.23v-.31.31l.23-.16c-1.56-2.11-3.12-4.14-4.69-6.33-.08-.08-.23-.16-.31-.16-.16,0-.23.16-.23.23,0,.16-.08.31-.08.55,0,1.33.7,2.73,1.64,3.9.94,1.17,2.19,2.11,3.36,2.19.16,0,.23-.08.31-.16.08-.08.08-.23,0-.31l-.23.23Z"/>
    <path class="st5" d="M24.07,129.33c.47.62.62.94.86,1.25.16.23.47.47.31.78-.16.31-.55.08-.78.08-.47,0-.39-.39-.39-.62-.08-.47,0-.78,0-1.48"/>
    <path class="st5" d="M24.07,129.33l-.23.16c.47.62.62.94.86,1.25.08.16.16.23.23.31l.08.08h-.16c-.08,0-.16-.08-.31-.08h-.08v.08h.08v.08h.08-.08.08-.08.08v-.31h0v-1.41l-.55-.16-.23.16.23-.16h-.31v1.41h.31-.31v.23c0,.16,0,.31.16.47.08.08.16.16.23.16s.23.08.31.08h.23c.08,0,.23.08.31.08s.16,0,.31-.08c.08-.08.16-.16.23-.23s.08-.23.08-.39c0-.23-.08-.39-.16-.47-.08-.08-.16-.23-.23-.23-.23-.31-.47-.62-.86-1.25-.08-.08-.23-.16-.31-.08-.16.08-.23.16-.23.31h.23Z"/>
    <path class="st3" d="M75.46,115.27l-.08.08.08-.08Z"/>
    <path class="st3" d="M75.46,115.27l-.16-.23-.16.08.16.23.23.23.08-.16-.16-.16-.23.23h0l.23-.23-.16-.23.16.23.23-.23h0c-.08-.08-.16-.08-.23-.08s-.16,0-.23.08l-.08.16c-.08.08-.16.31,0,.39.08.16.31.16.39.08l.16-.08c.08-.08.08-.16.16-.23,0-.08,0-.16-.08-.23l-.31.16Z"/>
    <rect class="st3" x="25.17" y="157.36" width="57.01" height="5.7"/>
    <path class="st3" d="M82.18,163.07v-.31H25.48v-5.08h56.39v5.39h.31v-.31.31h.31v-5.7c0-.08,0-.16-.08-.23s-.16-.08-.23-.08H25.17c-.08,0-.16,0-.23.08s-.08.16-.08.23v5.7c0,.08,0,.16.08.23s.16.08.23.08h57.01c.08,0,.16,0,.23-.08.08-.08.08-.16.08-.23h-.31Z"/>
    <path class="st1" d="M32.98,156.12c-1.33-1.72-2.03-3.67-1.72-5.7.47-3.05,2.58-4.84,5.39-5.86,2.19-.78,4.3-1.72,6.01-3.28.31-.31.78-.55.62-1.02-.08-.47-.62-.23-1.02-.23-6.17-.7-12.26-1.8-18.12-3.83-.94-.31-1.25-.78-1.25-1.8,0-6.09,0-12.18-.08-18.35,0-.23.08-.47.08-.78,0-.47.23-1.02-.16-1.48v-.23c.08-.16.16-.31.23-.47h0c.31,0,.47-.23.47-.55,1.33-1.95,3.28-3.12,5.31-4.14,2.66-1.41,5.31-2.66,8.28-3.28.86-.16,1.72-.55,2.66-.62.31,0,.7.08,1.02-.23h0c.47,0,.94.08,1.25-.23h0c.86,0,1.72.08,2.5-.39,1.41-.16,2.89.16,4.37-.23h2.11c2.81,0,5.54.08,8.36.62,7.73.55,14.84,3.05,21.63,6.72.47.23.78.55,1.17.86.86.7,1.33,1.48,1.33,2.73-.08,6.72.08,13.51.16,20.23,0,.94-.23,1.33-1.17,1.56-5.78,1.56-11.64,2.89-17.57,3.51-.16,0-.39.16-.55.23.39.78,1.02,1.17,1.8,1.56,2.81,1.25,5.78,1.87,8.59,2.89,2.42.86,4.14,2.42,4.69,5.08.47,2.19-.31,3.83-2.03,5.15-.47.31-.94.7-1.48,1.09.55.31,1.02.23,1.48.23h5.86c1.17,0,1.8.31,1.64,1.72-.16,2.11-.08,4.22,0,6.33,0,.7-.16.94-.86.94-2.5-.08-5,.08-7.5.08-10.46,0-20.93-.08-31.39,0-4.61,0-9.29.08-13.9,0-2.34,0-4.61-.08-6.95-.08v-1.02c.62-.62.23-1.33.23-2.03-.08-1.17.23-2.42-.16-3.51v-1.56c.55-.39,1.17-.47,1.87-.47,2.03.08,4.14.08,6.17.08.08,0,.55.39.62-.23M75.46,115.27c2.26-.31,4.45-1.02,6.64-2.03-.94-.86-1.95-1.41-2.97-1.95-.31-.16-.62-.16-.86.16-.86,1.33-2.11,2.34-2.81,3.83-.08,0-.08.08-.16.08.08,0,.16-.08.16-.08M69.14,155.88c-3.12-1.48-5.54-3.83-7.97-6.25-.23,1.25-.47,2.42-.7,3.51-.31,1.17-1.25,1.87-2.34,2.89,1.17,0,2.03,0,2.89.08,2.97.08,6.01.08,8.98.16v-.08c-.31-.16-.62-.23-.86-.31M41.33,157.83c0,.16,0-.23,0,0-4.92-.08-9.84-.16-14.84-.23-1.02,0-1.17.47-1.09,1.25,0,.94.16,1.87.08,2.81-.08,1.02.16,1.41,1.33,1.33,6.25-.08,12.57-.08,18.82-.16,3.98,0,7.97,0,11.87.08,7.58,0,15.23-.31,22.8.08,1.41.08,1.72-.16,1.72-1.64,0-.86-.08-1.72,0-2.5.08-.94-.23-1.33-1.25-1.33-6.72.08-13.51.16-20.23.08-6.4-.08-12.81.31-19.21.23M52.58,139.4c9.53,0,18.9-1.41,28.11-3.9,1.87-.55,1.87-.47,1.8-2.66,0-.78-.23-1.02-1.02-.78-6.25,2.03-12.65,3.2-19.21,3.83-7.58.7-15.15.55-22.73-.39-5-.62-9.92-1.64-14.76-2.97-.23-.08-.62-.47-.78.16-.39,1.25.16,2.26,1.41,2.73,5.39,1.8,10.93,2.73,16.56,3.36,3.51.47,7.03.7,10.62.62M52.42,121.44c8.2-.08,16.32-1.09,24.29-3.2,1.64-.47,3.2-1.02,4.84-1.48,1.17-.31.86-1.17.7-1.8-.23-.86-.78-.08-1.17-.08-.62.08-1.25.39-1.95.62-13.98,4.14-28.19,4.37-42.48,2.26-3.98-.62-7.89-1.41-11.71-2.5-.78-.23-.86,0-.94.7-.16,1.48.94,1.41,1.72,1.64,8.75,2.66,17.65,3.83,26.71,3.83M62.03,140.5c.62,1.56,1.33,2.81,2.66,3.75,1.72,1.25,3.51,2.26,5.62,2.73,1.17.23,2.34.7,3.28,1.48.62.55,1.09,1.25.86,2.11-.31.94-1.09,1.25-2.11,1.09-2.26-.31-4.22-1.33-5.86-2.97-2.34-2.42-4.76-4.76-6.64-7.65-.23-.39-.62-.62-1.02-.47-.62.31-.16.7,0,1.09.23.62.47,1.25.78,1.87,1.72,4.37,4.22,8.04,8.59,10.23,2.89,1.41,5.78,1.41,8.59-.23,1.87-1.09,2.26-3.05,1.09-4.92-.7-1.09-1.64-1.87-2.81-2.5-1.41-.7-2.89-1.25-4.37-1.56-2.5-.62-4.84-1.48-6.72-3.28-.55-.39-1.02-.86-1.95-.78M32.74,151.27c-.23,2.89,2.58,5.08,4.53,4.61,3.44-.78,6.48-2.34,8.2-5.54,1.09-1.95,1.95-4.06,2.81-6.09.39-.86.62-1.72.86-2.66.08-.31.31-.94-.31-1.02-.47-.08-1.09-.23-1.17.7-.08.7-.55,1.33-.78,1.95-1.41,3.51-3.67,6.4-6.79,8.59-.86.55-1.8.94-2.81,1.02-.78,0-1.56-.16-1.95-.94s-.31-1.56.23-2.26c.86-1.33,2.26-1.8,3.59-2.42,2.89-1.25,6.01-2.26,7.03-5.7.08-.31.47-.62.16-.94-.31-.31-.7-.16-1.02.08-2.66,2.66-6.09,3.83-9.37,5.39-2.03,1.02-3.2,2.66-3.2,5.23M49.22,135.26c.08-.08.08-.23.16-.31-2.58-3.59-5.31-7.18-7.81-10.86-1.17-1.72-2.5-2.81-4.61-2.81-1.41,0-2.81-.7-4.3-.62,0,.16,0,.23.08.31,3.12,4.45,6.25,8.9,9.29,13.35.23.31.47.47.78.47,2.11.16,4.22.31,6.4.47M60.94,122.14c-1.64.08-3.44.23-5.15.31-.86,0-.78.31-.39.86,2.58,3.59,5.15,7.26,7.73,10.93.23.39.47.62,1.02.55,1.64-.31,3.28-.62,5-.78.94-.08,1.17-.23.55-1.17-2.42-3.36-4.84-6.72-7.18-10.07-.39-.55-.86-.78-1.56-.62M80.77,131.28c-2.66-3.67-5.08-7.11-7.58-10.54-.23-.39-.55-.39-1.02-.31-1.8.39-3.51.78-5.31,1.02-.86.16-.78.39-.39.94,2.42,3.36,4.76,6.72,7.18,10.07.23.39.47.62,1.02.47,2.03-.55,3.98-1.09,6.09-1.64M37.43,134.25c-3.44-5.08-6.64-9.84-10-14.6-.7-1.02-2.11-1.17-3.12-1.09-.7.08-.23,1.41-.31,2.11-.08.47.08,1.02,0,1.48-.08,1.02.23,1.87.86,2.66,1.87,2.5,3.75,5,5.62,7.5.31.39.55.7,1.09.78,1.8.39,3.67.78,5.86,1.17M59.3,149.24c.08-2.89-1.09-5.39-2.34-7.89-.39-.86-1.17-.7-1.8-.47-.78.23-.08.86,0,1.25.23,1.09.62,2.11.86,3.2.47,2.03.94,4.14,0,6.17-.39.86-.86,1.64-1.95,1.8-1.17.08-2.03-.31-2.58-1.41-.47-1.02-.78-2.03-.55-3.12.55-2.5.94-5,2.03-7.26.16-.23.47-.78-.08-.78-.7-.08-1.64-.47-2.03.62-.55,1.41-1.09,2.89-1.8,4.22-.78,1.56-.94,3.2-.62,4.84.31,1.64.62,3.36,2.11,4.3,3.75,2.5,8.36.16,8.67-4.3.08-.47.08-.78.08-1.17M45,122.38v.31c2.81,4.06,5.62,8.12,8.43,12.1.16.23.39.47.7.47,1.64,0,3.28.08,4.92.08-.08-.39,0-.55-.08-.55-2.73-3.98-5.47-7.89-8.2-11.87-.23-.39-.55-.47-.94-.47-1.56,0-3.2-.08-4.84-.08M42.58,117.38c1.56.16,2.89.23,4.22.39.47.08.7-.31.94-.55.94-1.09,1.95-2.11,2.89-3.2,2.66-2.97,5.31-5.86,7.97-8.9-1.02-.47-2.11-.31-3.05-.47-1.02-.16-1.72.23-2.42,1.02-2.26,2.5-4.53,5-6.79,7.5-1.17,1.41-2.34,2.73-3.75,4.22M37.04,116.68c1.41.23,2.58.39,3.75.55.31.08.47-.08.62-.31,3.67-4.06,7.34-8.12,11.09-12.18-1.25,0-2.26,0-3.36-.08-.7,0-1.33.08-1.87.78-1.8,2.03-3.67,4.06-5.47,6.09-1.56,1.64-3.12,3.28-4.76,5.15M64.06,105.98c-1.25-.39-2.42-.55-3.59-.62-.31,0-.55.23-.7.47-3.59,3.83-6.87,7.89-10.54,11.48-.16.08-.23.23-.16.39.08.23.31.23.55.23,2.11.08,4.3.55,5.47-1.87l.08-.08c2.89-3.28,5.86-6.64,8.9-10M69.21,107.15c-1.17-.31-2.19-.55-3.12-.86-.47-.16-.78.08-1.09.39-3.2,3.59-6.33,7.11-9.53,10.62-.16.16-.23.31-.16.55,2.58.23,5.08.16,6.56-2.5.16-.23.31-.39.55-.55,2.19-2.42,4.37-5,6.79-7.65M31.65,115.74c.94.16,1.8.31,2.66.55.86.23,1.48,0,2.11-.7,1.56-1.8,3.2-3.44,4.76-5.23,1.56-1.8,3.2-3.59,5-5.62-1.72.23-3.05.39-4.45.62-.47.08-.78.31-1.02.62-3.05,3.28-6.01,6.48-9.06,9.76M61.64,117.54c1.64.16,2.97-.16,4.3-.31.39-.08.62-.31.78-.55,2.11-2.5,4.22-4.92,6.33-7.42.16-.23.47-.39.23-.78-.55-.78-2.89-.86-3.59-.16-.78.94-1.64,1.8-2.42,2.73-1.8,2.11-3.67,4.22-5.62,6.48M38.83,106.21c-1.87.31-3.83.23-5.15,1.48-2.03,1.95-3.83,4.14-5.7,6.25-.16.23-.55.47-.23.86s2.5.7,2.81.39c2.73-2.89,5.54-5.94,8.28-8.98M68.2,116.76c3.2-.16,5.86-.7,7.26-3.67.23-.47.7-.86,1.02-1.25q1.09-1.48-.62-2.26c-.47-.23-.94-.78-1.56-.08-1.87,2.42-3.9,4.76-6.09,7.26M40.32,134.48c-.08-.16-.16-.31-.16-.39-3.12-4.45-6.25-8.98-9.37-13.43-.47-.7-1.17-.78-2.03-.7.08.23.16.31.23.39,2.89,4.3,5.86,8.67,8.75,12.96.62.94,1.33,1.33,2.58,1.17M82.33,126.67c0-1.95,0-3.51.08-5.08.08-1.33-.78-2.19-1.25-3.2-.16-.31-.39-.31-.62-.23-.94.31-1.95.62-2.89.86-.47.16-.55.31-.23.7,1.56,2.26,3.12,4.53,4.92,6.95M41.1,122.07c.16.23.23.39.31.47,2.97,4.06,5.86,8.12,8.82,12.18.47.7,1.02.62,1.72.55,0-.55-.39-.78-.62-1.17-2.5-3.59-5.08-7.18-7.58-10.86-.62-.94-1.33-1.41-2.66-1.17M51.64,122.69c.94,1.41,1.8,2.66,2.73,3.9,1.8,2.66,3.67,5.23,5.47,7.89.47.7,1.25.86,1.72.47.62-.39-.16-.86-.39-1.17-2.42-3.44-4.92-6.87-7.26-10.31-.55-.86-1.09-1.17-2.26-.78M73.9,120.19c2.34,3.28,4.69,6.48,7.03,9.68.31.39.55,1.17,1.17.86.7-.31.31-1.09.31-1.72,0-.23-.31-.47-.47-.7-1.8-2.5-3.67-4.92-5.39-7.5-.78-1.02-1.41-1.33-2.66-.62M49.3,156.12c-1.02-1.48-1.64-2.81-2.11-4.3-.23-.78-.62-.78-1.09-.16-1.09,1.41-2.42,2.58-3.9,3.51-.31.23-.86.31-.94.78,2.58,0,5.15.08,8.04.16M63.04,122.07c.7.94,1.33,1.87,1.95,2.81,1.95,2.66,3.83,5.31,5.78,7.97.47.7,1.02.86,1.56.47.47-.39-.16-.78-.39-1.09-2.26-3.2-4.53-6.33-6.72-9.45-.55-.86-1.17-1.09-2.19-.7M30.71,109.18c-.08-.08-.16-.16-.23-.23-2.42.94-4.37,2.5-6.17,4.37-.16.16-.39.55-.16.62.62.23,1.41.94,2.11.16,1.56-1.64,2.97-3.28,4.45-4.92M28.92,132.45c-1.56-2.11-3.12-4.14-4.69-6.33-.39,2.42,2.34,6.09,4.69,6.33M24.07,129.33v1.41c0,.23-.08.62.39.62.31,0,.62.23.78-.08.16-.31-.16-.55-.31-.78-.23-.31-.47-.55-.86-1.17"/>
  </g>
</svg>