<?xml version="1.0" encoding="UTF-8"?>
<svg id="Layer_1" xmlns="http://www.w3.org/2000/svg" version="1.1" viewBox="0 0 109.6 176.97">
  <!-- Generator: Adobe Illustrator 30.2.1, SVG Export Plug-In . SVG Version: 2.1.1 Build 1)  -->
  <defs>
    <style>
      .st0 {
        fill: #0e80c3;
      }

      .st1 {
        fill: #1d1c1a;
      }

      .st2 {
        stroke: #1d1c1a;
        stroke-width: 1.26px;
      }

      .st2, .st3 {
        fill: none;
        stroke-miterlimit: 10;
      }

      .st4 {
        fill: #d81f26;
      }

      .st5 {
        fill: #fff;
      }

      .st3 {
        stroke: #d81f26;
        stroke-width: .78px;
      }

      .st6 {
        fill: #fddb00;
      }
    </style>
  </defs>
  <rect class="st5" x="-.54" y=".2" width="110.69" height="177.1"/>
  <g>
    <path class="st1" d="M11.42,16.24c0,.23,0,.47.08.62,0,.16.08.23.16.31.08.08.16.16.31.23.16.08.31.08.55.08s.47.08.86.08v.62h-5.94v-.62c.47,0,.86-.08,1.09-.08.23-.08.39-.08.47-.16s.23-.16.23-.31c.08-.16.08-.39.08-.7v-5c0-.16,0-.31-.08-.39s-.16-.16-.31-.16c-.08,0-.31.08-.47.16-.23.08-.55.31-1.02.62l-.39-.7,3.59-2.19h.86c0,.47-.08,1.09-.08,1.87v5.7Z"/>
    <path class="st1" d="M98.5,163.22c0-.23,0-.47-.08-.62,0-.16-.08-.23-.16-.31-.08-.08-.16-.16-.31-.23-.16-.08-.31-.08-.55-.08s-.47-.08-.86-.08v-.62h5.94v.62c-.47,0-.86.08-1.09.08-.23.08-.39.08-.47.16-.08.08-.23.16-.23.31-.08.16-.08.39-.08.7v5c0,.16,0,.31.08.39s.16.16.31.16c.08,0,.31-.08.47-.16.23-.08.55-.31,1.02-.62l.39.7-3.59,2.19h-.86c0-.47.08-1.02.08-1.87v-5.7Z"/>
    <polyline class="st2" points="29.69 171.81 3.77 171.81 3.77 5.7 29.15 5.7"/>
    <polyline class="st2" points="79.44 5.7 105.84 5.7 105.84 171.81 79.28 171.81"/>
    <line class="st2" x1="68.59" y1="171.81" x2="40.55" y2="171.81"/>
    <line class="st2" x1="68.59" y1="5.7" x2="40.55" y2="5.7"/>
    <path class="st6" d="M12.98,160.72c-1.48,0-2.73-1.25-2.73-2.73s1.25-2.73,2.73-2.73,2.73,1.25,2.73,2.73c.08,1.48-1.17,2.73-2.73,2.73"/>
    <path class="st0" d="M53.59,102.54c1.02-1.41,2.11-1.64,2.11-1.64L98.96,28.74l1.09-12.73-11.01,6.4-45.76,76.53s4.45-1.17,5.94,1.8c.86-.31,3.98,0,4.37,1.8"/>
    <path class="st6" d="M53.83,80.59l-.94,1.56-8.98,14.92s4.53-13.2-3.59-31.39c-8.51-17.81-18.27-27.41-18.27-27.41,0,0,4.14-3.9,5.62-5.78,5.62,4.76,23.12,23.35,26.16,48.11"/>
    <path class="st0" d="M28.6,24.83s2.03,2.58,0,5.78c-2.03,3.2-5.47,5.54-6.95,7.65-1.41,2.11-2.34,3.75-2.34,3.75,0,0-1.64-6.48,1.56-9.68,3.44-3.12,6.17-4.3,6.72-6.17.47-1.87,1.02-1.33,1.02-1.33"/>
    <path class="st4" d="M23.52,29.91s-4.22,2.97-4.92,6.64c-2.97-2.73-6.33-8.82-1.17-15.46,1.48-1.87,6.95-1.87,6.09,2.58-1.02,4.3-.7,5.7,0,6.25"/>
    <path class="st3" d="M23.52,29.91s-4.22,2.97-4.92,6.64c-2.97-2.73-6.33-8.82-1.17-15.46,1.48-1.87,6.95-1.87,6.09,2.58-1.02,4.3-.7,5.7,0,6.25Z"/>
    <path class="st6" d="M33.44,91.84s-7.26-.55-8.43,8.43c.39,2.11.62,2.89.62,2.89,0,0-.78-4.76-4.76-5.94-3.98-1.17-6.17,1.72-6.17,1.72,0,0,3.83.31,5.7,2.66,1.8,2.34,5.31,9.84,5.31,9.84l6.4.62s-3.05-8.12-1.02-14.21c1.95-6.01,2.34-6.01,2.34-6.01"/>
    <path class="st6" d="M50,111.6l-4.37-1.17-1.8.94-.39-1.64-5.08-1.48.39,3.98s-12.5-.39-14.37-.78-7.18-2.42-9.14-4.61c-1.87-2.11-2.26-2.97-2.26-2.97,0,0-2.34,2.81,0,6.17,1.87,2.19,3.9,2.89,3.9,2.89,0,0-4.45,1.87-4.53,5.39,0,2.73.62,3.44.62,3.44,0,0,2.26-3.83,7.03-5.39,5.15-1.17,8.98-.86,8.98-.86,0,0,2.97,3.2,4.45,3.98s5.86,2.73,7.73,2.89c1.8.16,2.34-.16,3.75.62,1.33.7,4.84,3.28,5.7,3.12.78-.16.62,4.3-.23,5.31-.86.94-2.97,3.59-4.92,3.98.39,1.25,2.34,2.26,3.75,2.26,1.33,0,5.23-1.09,5.62-5,2.19,1.95,4.14,2.66,5.54,2.26,1.41-.39,3.28-1.56,3.28-1.56,0,0-5.47-3.59-6.09-5.7,1.56-.86,2.5-.78,3.98-1.33s1.56-.7,3.51-.62c1.95.08,4.22,1.48,5.31,2.26,1.17.78,1.56,1.02,1.56-.47s-.62-4.92-4.76-6.01c-2.03.08-2.58.7-2.58.7,0,0,1.56-1.56,1.02-4.76-.55-3.2-2.19-4.69-2.19-4.69l-1.02.16s1.25,5.39-.31,6.79-2.34,2.66-3.59,2.97c-1.33.39-3.12.86-3.51,0s-3.83-5.78-5.62-6.48c-1.8-.78-.62-2.5-.62-2.5l1.25-2.11Z"/>
    <path class="st4" d="M43.13,123s-6.4.08-13.43-6.17c-.47-.47-2.26.62-3.36,1.64s-5.08,6.95-6.17,8.59-4.37,13.59-4.3,15.62.47,2.5.47,2.5c0,0,1.25-.08,2.34.31,1.09.47,3.05,1.56,3.51,3.28,1.41-.23,2.89-1.25,2.89-1.25,0,0,2.42-2.03,3.2-2.42s2.34-2.03,2.66-2.26c.31-.23,1.87-1.56,1.87-1.72.08-.16.94-1.25.94-1.25l.86-.94.94-.86s.94-1.02,1.25-1.48,1.41-3.28,1.41-3.28l1.64-1.95s.55-.86.55-.94.31-.94.31-.94l.39-1.09.39-1.25s.62-.62.86-.94c.16-.39.7-1.25.7-1.25v-1.95h.08Z"/>
    <path class="st3" d="M43.13,123s-6.4.08-13.43-6.17c-.47-.47-2.26.62-3.36,1.64s-5.08,6.95-6.17,8.59-4.37,13.59-4.3,15.62.47,2.5.47,2.5c0,0,1.25-.08,2.34.31,1.09.47,3.05,1.56,3.51,3.28,1.41-.23,2.89-1.25,2.89-1.25,0,0,2.42-2.03,3.2-2.42s2.34-2.03,2.66-2.26c.31-.23,1.87-1.56,1.87-1.72.08-.16.94-1.25.94-1.25l.86-.94.94-.86s.94-1.02,1.25-1.48,1.41-3.28,1.41-3.28l1.64-1.95s.55-.86.55-.94.31-.94.31-.94l.39-1.09.39-1.25s.62-.62.86-.94c.16-.39.7-1.25.7-1.25v-1.95h.08Z"/>
    <path class="st6" d="M16.73,156.58c-3.2,0-5.78-2.58-5.78-5.78s2.58-5.78,5.78-5.78,5.78,2.58,5.78,5.78-2.58,5.78-5.78,5.78"/>
    <path class="st6" d="M99.51,109.65c-.47.86-1.02,1.72-1.95,2.11-.39.16-1.48.31-1.17.78.08,2.34-.23,4.14-2.66,4.92-.31.47-1.72.31-2.11.23-.94-.16-1.56-.39-2.26.31-1.17,1.17-2.66,1.72-4.14,1.33-.16-.08-1.09-.23-1.17-.47-1.25-.62-1.48-1.56-1.72-2.89-.16-.7-.47-.7-1.02-.47-1.17.47-2.42,0-3.44-.78-1.25-.94-1.02-2.42-.62-3.9.08-.31.23-.62.31-.94.08-.08.16-.16.23-.23.62-.94-.23-.39-1.33-.78-2.11-.78-1.87-4.14-.31-5.7.55-.55,1.02-.78,1.8-.62.7.16.31-.08.23-.62-.08-.78-.16-1.48,0-2.26.31-2.11,3.2-3.44,5.15-2.58,1.09.47,1.25.47,1.8-.7.62-.55,1.09-1.33,2.03-1.33,2.26-.08,3.59.86,4.37,3.05.08.23.08.55.55.47h.55c.7.08,1.48.08,2.19.39,1.25.47,2.73.78,2.5,2.73,0,.16-.08.47-.08.62-.08.16.16.62,0,.7-.62.55-1.02.94-.39,1.17,0,.16.08.23.16.23,1.48.7,2.66,1.72,2.66,3.36,0,.31,0,.55.08.86-.08.39-.16.7-.23,1.02"/>
    <path class="st4" d="M64.06,86.69l4.84-7.65s9.45,6.95,15.38,16.71c.31.94-.39.62-.39.62,0,0-2.58-.31-3.12-.16-.55.16-2.5,2.03-2.66,3.36-.23,1.33.47,1.8-.86,2.19s-2.81,2.66-2.66,4.06c.16,1.41,2.34,3.44,2.34,3.44,0,0-.7,3.98.39,5.15,1.41,1.56,4.06,1.25,4.61,1.17q.08,0,.16.08c.55.39,1.17,3.2,2.89,3.83,1.87.7,4.22-.78,4.69-1.17.47-.31-.08-.7,3.51-.86.7,1.72,3.2,14.37,2.19,22.8-.23,1.02-3.67,2.81-3.67,2.81l-4.3-3.2-.55-11.87-1.8-7.73s-2.26-2.11-3.05-4.3c-.16-.08-.16-.31-.78-.23-.62.08-5.15-.16-4.76-4.37,0,0,0-.62-.47-.39s-6.01,1.17-7.11,1.25-4.45.47-5.08.47c-.7,0-4.53,0-4.84-.08-.31-.08-8.28-.94-8.28-.94l-5.08-1.41-7.34-2.19.39,3.98-4.53-.16,1.33-2.42-1.64-2.5,3.67-5.08,9.61,2.73,6.79,1.56,6.09.55s6.95.23,7.97,0,6.25-1.17,6.25-1.17c0,0,.55-2.66,3.12-4.14l-1.33-2.03c-.16,0-8.9-11.32-11.95-12.73"/>
    <path class="st3" d="M64.06,86.69l4.84-7.65s9.45,6.95,15.38,16.71c.31.94-.39.62-.39.62,0,0-2.58-.31-3.12-.16-.55.16-2.5,2.03-2.66,3.36-.23,1.33.47,1.8-.86,2.19s-2.81,2.66-2.66,4.06c.16,1.41,2.34,3.44,2.34,3.44,0,0-.7,3.98.39,5.15,1.41,1.56,4.06,1.25,4.61,1.17q.08,0,.16.08c.55.39,1.17,3.2,2.89,3.83,1.87.7,4.22-.78,4.69-1.17.47-.31-.08-.7,3.51-.86.7,1.72,3.2,14.37,2.19,22.8-.23,1.02-3.67,2.81-3.67,2.81l-4.3-3.2-.55-11.87-1.8-7.73s-2.26-2.11-3.05-4.3c-.16-.08-.16-.31-.78-.23-.62.08-5.15-.16-4.76-4.37,0,0,0-.62-.47-.39s-6.01,1.17-7.11,1.25-4.45.47-5.08.47c-.7,0-4.53,0-4.84-.08-.31-.08-8.28-.94-8.28-.94l-5.08-1.41-7.34-2.19.39,3.98-4.53-.16,1.33-2.42-1.64-2.5,3.67-5.08,9.61,2.73,6.79,1.56,6.09.55s6.95.23,7.97,0,6.25-1.17,6.25-1.17c0,0,.55-2.66,3.12-4.14l-1.33-2.03c-.16,0-8.9-11.32-11.95-12.73Z"/>
    <path class="st0" d="M95.68,140.42s2.89-1.09,5.08-.39c-.16.7-2.89,3.36-4.14,5.62-1.33,2.11-4.45,9.14-5.31,12.03-.78-3.2-2.58-8.51-5.86-13.74-3.28-5.23-3.28-5.62-3.28-5.62,0,0,4.37.55,8.98,4.53l.47.31,4.06-2.73Z"/>
    <path class="st6" d="M97.17,145.49s4.84,4.61,1.17,9.92c-2.19,2.11-4.84,3.05-7.81,2.89s-6.64-3.75-6.87-5.94-.16-4.53,2.26-6.72l.23-.16s1.56,1.41,1.33,2.81c-.7.86-1.56,2.58-.94,4.76,1.41,1.95,2.97,2.34,3.59,2.34s2.11.23,3.59-.23,4.45-2.81,1.8-6.48"/>
    <path class="st6" d="M40.31,100.98c-1.48,0-2.73-1.25-2.73-2.89s1.25-2.89,2.73-2.89,2.73,1.25,2.73,2.89-1.25,2.89-2.73,2.89"/>
    <path class="st6" d="M45.63,103.79c-1.48,0-2.73-1.25-2.73-2.89s1.25-2.89,2.73-2.89,2.73,1.25,2.73,2.89-1.17,2.89-2.73,2.89"/>
    <path class="st6" d="M50.7,105.66c-1.48,0-2.73-1.25-2.73-2.89s1.25-2.89,2.73-2.89,2.73,1.25,2.73,2.89-1.17,2.89-2.73,2.89"/>
    <path class="st6" d="M56.17,106.37c-1.48,0-2.73-1.25-2.73-2.89s1.25-2.89,2.73-2.89,2.73,1.25,2.73,2.89-1.17,2.89-2.73,2.89"/>
    <path class="st1" d="M11.89,158.46c0-.31.23-.62.62-.94s.78-.08,1.02.31.47.31.62.23c.16-.08.08-.39.08-.39,0-.23-.62-1.41-1.56-1.41-.94.08-1.41.78-1.41,1.72,0,.94.55.78.62.47"/>
    <path class="st1" d="M85.69,108.71c0,.78.62,1.48,1.33,1.48.78,0,1.33-.62,1.33-1.48,0-.78-.62-1.48-1.33-1.48-.78,0-1.33.7-1.33,1.48M87.72,108.71c0,.47-.31.78-.78.78-.39,0-.78-.39-.78-.78,0-.47.31-.78.78-.78.39,0,.78.31.78.78"/>
    <path class="st1" d="M14.23,149.32c.47-1.41,3.9-2.66,5.39.31l.47-.31s-.62-2.5-3.9-2.03c-2.73.47-3.75,3.36-2.34,5.47.78.94,1.87,1.48,2.73,1.48l-.08-.39c0,.08-3.59-.62-2.26-4.53"/>
    <path class="st1" d="M87.64,101.05c-.16,1.41-.55,2.73-.7,2.73s0-1.33-.08-2.03c-.08-.78-.47-1.33-.47-.78.31,2.5-.55,2.81-1.17,2.5-.7-.23-1.56-2.66-1.87-2.26s.55,1.41.94,2.03c.39.7.23.78-.23.62-.47-.16-1.8-3.44-2.11-2.89-.39.62.23,1.25,1.09,2.58.86,1.33.78,1.25.39,1.02s-2.19-2.42-2.19-2.11c-.08.39.23,1.02,1.25,1.87,1.02.94,1.25,1.25,1.17,1.64s-1.33.16-2.03-.23-1.48-.55-1.33-.23c.16.31,2.5,1.09,2.5,1.41s-.55.31-1.41.16c-.86-.16-3.12-1.02-3.05-.62,0,.39,2.58,1.17,3.44,1.41s.7.7.39.86c-.39.08-2.42-.39-2.42-.16,0,.16.7.47,1.64.62.94.08,1.48.31,1.41.7s-2.34,1.33-2.26,1.56.94-.16,1.33-.31.94-.23.78,0-1.8,1.33-1.72,1.48c.08.16,1.02-.62,1.72-1.09.7-.47,1.48-.62,1.17-.31-.23.31-2.11,1.95-2.03,2.11.08.23.31-.08.86-.47s2.26-2.34,2.58-1.72-.16,2.66-.39,3.05c-.16.39-.16.55.16.31.31-.23.62-1.02.78-1.02s.39.23.23.62-.78,1.8-.62,2.03.31-.16.39-.47c.16-.31.47-1.17.78-1.17.23,0,.16,1.48.08,1.95,0,.55.16.62.47.55.23-.08.08-1.87,0-2.66,0-.7.16-.7.55-.62.31.08.47,1.72.47,2.26,0,.62.16,1.09.47.62.31-.47-.31-2.97-.31-2.97,0,0,.39-.47.62-.86s.55-.23.78.23,1.41,1.64,1.72,1.87c.31.23.55-.08.23-.39-.23-.23-1.41-1.33-1.72-2.19-.39-.86.08-1.02.31-.55s1.95,2.26,2.34,2.66c.47.39,1.09.16.86.08-.23-.08-1.02-.86-1.95-1.95-.94-1.09-.39-1.87-.08-1.33.31.47,1.02,1.41,1.64,1.8.55.39,1.25.47.94.16-.62-.31-1.8-1.72-2.19-2.58-.31-.78-.16-1.02,1.09-.94,1.17.08.78-.31,0-.39s-1.25-.55-.62-.62c.86,0,3.59,0,3.98-.47.39-.39-.31-.31-1.8,0s-3.05-.31-3.05-.31c.08-.31.7-.55,1.48-.62s1.48-.62,1.09-.62-1.72.31-2.26.39c-.47.08-.31-.39-.31-.55s.94-1.02,1.72-1.64c.78-.62.78-.78.23-.62s-1.8,1.41-1.95,1.41.16-.94.78-1.48,1.8-1.95,2.03-2.34c.23-.39-1.33,1.02-1.72,1.33s-1.48,1.56-1.87,1.56c-.39.08-.16-.39.23-.78s1.17-1.41.94-1.48c-.23-.08-.62.39-.94.94-.31.62-.78.78-1.56.78-.7,0-.08-.86.23-1.48.23-.62,0-1.48-.16-.86-.16.7-.94,2.11-1.09,2.03-.23,0,.23-2.89.23-3.9-.23-.86-.78-.31-.86,1.17M86,104.26c.94.23,1.56.78,1.33,1.17-.16.39.7-.55,1.17-.55s1.87.31,1.95,1.17c.08.94-.23,1.56-1.02,1.33-.31-.08,0,.39,0,.39,0,0,1.72,1.09,1.17,2.11-.55,1.02-1.41,1.33-2.34.7.47,1.48-.16,2.58-1.41,2.66-1.25,0-1.64-1.41-1.09-2.66-1.72,0-2.81-.7-2.73-1.87s.62-1.64,1.64-1.48c.23-.31-.47-.7-.55-1.17.08-.39.94-1.95,1.87-1.8"/>
    <path class="st1" d="M13.53,160.8c3.36-.7,2.19-4.14,2.19-4.14,0,0,1.09.39,3.2-.31,5-2.26,3.9-6.72,3.9-6.72,0,0,2.26-1.17,3.83-3.05,2.11-.55,2.73-1.87,3.28-2.42.55-.55,3.59-.78,4.84-4.76.94-.47,3.05-2.19,3.83-5.78,1.09-.39,2.89-2.42,3.28-5.78,1.09-1.09,2.73-4.84,2.73-4.84,0,0,2.5,2.73,6.09,3.9-.08,6.17-2.5,6.72-6.09,8.67,4.3,5.7,9.14,1.95,11.09-1.8,2.58,2.58,7.81,2.11,8.82-.86-3.98-.39-6.48-5.15-6.48-5.15,0,0,.86-.23,4.45-1.25,3.67-1.02,6.25-.23,9.37,3.75,3.12-7.34-3.51-9.76-5.94-9.37.78-1.02,1.09-4.37-1.25-7.73,3.05-.23,7.58-.39,11.48-1.64-.31,4.84,3.67,5,5.62,4.37-.31,1.48.86,3.51,2.5,3.98,2.58,6.4,2.26,15.7,2.42,19.76-2.03-1.72-5.7-1.95-5.7-1.95l4.69,7.81s-2.73,2.19-2.5,5.7c0,5.62,5.31,7.5,7.65,7.65s3.9.16,7.18-2.58,2.58-9.29-.7-10.78c1.17-1.95,4.37-5.39,4.37-5.39,0,0-2.26-1.33-5.78,0,.39-6.72-.62-16.63-2.42-22.1,1.72-.16,4.61-2.81,3.12-5.23,4.84-1.8,4.14-8.36.7-8.98,1.41-4.3-2.34-7.81-5.31-5.78-1.33-3.75-3.67-4.92-7.81-2.66-6.01-9.68-14.92-16.17-14.92-16.17l30.15-50.45,1.56-14.29-12.42,7.18s-20.77,34.99-34.75,57.95c-3.75-28.27-23.82-45.22-25.85-47.25,3.83-5.7.39-9.61-.08-8.98-.23,1.25-.7,2.26-1.56,3.28-.86,1.09-1.56,1.41-3.05,2.66-.47-.55-.31-2.42,0-3.28.31-.86,1.09-2.66.62-3.9-1.64-4.45-6.17-2.81-7.5-.78-5.08,8.51.23,14.6,1.95,15.62-.39,1.02.08,2.97.39,4.45.31,1.56.94,1.95,1.25,1.17.39-1.95,1.48-3.28,1.48-3.28,23.19,25.15,23.04,43.73,23.04,43.73.39,8.75-.08,9.84-1.25,13.59-1.41-2.26-6.09-2.42-6.09,1.41s3.51,3.28,3.51,3.28l-.62.94-3.12-.86s-3.28,4.06-3.51,5.08c-.31,1.02.86,2.81.86,2.81l-1.64,2.5c-4.69-11.09.78-19.29,2.19-20.62-1.17-.39-3.67.31-3.67.31-6.56,2.26-6.56,7.81-6.56,7.81,0,0-3.9-4.14-7.34-2.97-3.44,1.17-4.3,3.9-3.75,3.9,4.61-.78,9.22,4.3,11.64,10.86-4.84,0-9.61-3.44-11.87-7.81-4.76,4.92,2.11,9.76,2.11,9.76-3.75,2.73-4.14,8.75-2.34,9.84,1.56-3.9,5.15-5.15,7.58-6.17,3.28-1.41,7.81-.62,7.81-.62-6.4,4.84-7.97,8.67-10.46,14.6-2.5,5.94-2.58,13.67-2.58,13.67,0,0-2.66.16-4.37,3.36-2.26,4.06,1.33,7.26,1.33,7.26,0,0-.78,0-1.95,1.09-1.48,1.64-.23,5.54,3.12,4.76M35.08,138.31c-.62.16-.31-1.09-.31-2.42s-.55-2.73-1.33-5.62c-.78-2.89-1.87-4.84-2.26-6.25-.39-1.41-.86-3.12-1.02-4.14-.16-.94-.31-2.11-.47-2.42s.86.31.94,1.72c.16,1.41,1.48,5.47,1.72,6.25s1.64,4.3,1.72,5.08c.08.78.47.94.39-.16,0-1.17-1.25-3.28-1.95-5.86-.7-2.58-1.02-4.69-1.09-5.47-.08-.78.55-.23.62.7.16.94,1.09,5.94,1.95,7.89.86,1.87,1.56,2.97,1.56,2.97,0,0,.23-.55-.23-1.95-.55-1.41-1.8-3.9-2.03-5.62-.23-1.72-.23-2.97-.23-2.97,0,0,.39-.7.7,1.56s3.51,9.53,3.83,11.25c.23,1.64-1.48,4.76-2.5,5.47M39.92,130.65c-1.33,2.26-1.72,2.34-1.95.55-.23-1.87-2.26-7.03-3.51-9.92-.39-.78.39-.78.86.55.55,1.41,3.05,7.97,3.05,7.97,0,0,.47.31.16-1.56-.47-1.87-2.34-5.86-2.19-6.4s.86.86,1.25,2.03,1.64,4.37,1.8,4.61c.16.16.47.23,0-1.25-.47-1.41-1.56-4.06-1.56-4.69-.08-.7.62-.39.78-.16,0-.08,2.66,6.01,1.33,8.28M40.94,123.08l1.25.23c.31,2.97-1.02,4.45-1.09,4.06-.08-.39-1.41-4.53-1.09-4.61.23-.08,1.02,2.89,1.48,2.81.47,0-.55-2.5-.55-2.5M49.84,125.58c-1.33-.62-6.87-3.28-8.98-9.84l2.81-.7s6.25,5.62,6.01,8.04c-1.33-1.17-4.69-4.22-5.31-5.08l-.39.08s3.9,5.78,6.72,6.64c.23.23.47,1.41-.86.86M41.25,119.33s-4.61-2.19-4.76-2.5c-.23-.23-.08-.78-.08-.78l-.08-.16,3.05-.23,1.87,3.67ZM60.46,131.75l2.42,1.41s.16.78-1.48,1.02-4.53.94-6.79-3.2c0,2.19-.16,4.53-2.19,5.54-2.11,1.02-4.84.86-6.4-.47,6.17-4.06,7.81-9.84,3.9-15.31-3.12-3.9-3.36-3.98-3.36-3.98,0,0,0-.55.78-.08.7.47,1.09,1.02,1.33.7.16-.23-.47-1.17-.47-1.17,0,0,3.9,2.11,6.25,6.4,2.34,4.45,3.59,7.73,6.01,9.14M64.6,122.45c.94-.31,3.2-1.48,5.54.94,2.34,2.5,1.72,4.84,1.72,4.84,0,0-2.5-1.48-3.83-2.26-1.33-.7-3.98-.86-6.09-.31-2.34,1.25-4.45,1.02-4.45,1.02l-1.25-2.97s1.33-.08,2.73-.7c1.48-.62,2.19-1.09,3.98-3.36,1.87-2.34-.31-6.4-.31-6.4l.78-.08c2.73,2.66,2.19,6.01,1.17,9.29M55.62,122.92c-2.19-5.08-6.64-7.5-6.64-7.5l1.8-3.28c2.42.62,6.09.94,11.25.94,3.2,7.81-4.61,10.46-6.4,9.84M47.66,114.88l-1.25-.16v-.78s1.41-.47,1.72-.23l-.47,1.17ZM90.37,118.47c2.73,7.18,2.19,21.94,2.26,22.41.08.47-.39.47-.39.47.08-.62.23-3.36-.31-3.36-.62.08-.39,1.56-.39,2.58s-.39,1.48-.39,1.48c0,0,0-2.5.08-3.59.08-1.09-.47-1.09-.47,0-.23,3.2-.62,2.73-.62,2.73,0,0-.08-.16-.08-3.2,0-6.25-1.56-17.1-2.19-18.2.31,0,1.33-.55,2.5-1.33M88.73,139.56s0-1.09.08-1.64c.08-.55-.31-1.25-.47-.62-.23.62-.08,1.8-.23,2.03-.16.31-.39-.55-.39-1.17.08-.62-.39-5.39-.55-8.28-.16-2.97-1.64-9.84-1.64-9.84.16.08.86,0,1.56,0,.23.7,1.41,6.4,1.64,8.43.23,1.95.55,8.9.55,10.31.08,1.33-.55.78-.55.78M84.13,151.74c-.7-3.59,2.19-5.54,2.19-5.54l1.17,2.03s-1.87,1.95-1.02,4.69c.86,2.73,3.9,2.89,3.9,2.89l.62,2.19c-3.59-.39-6.17-2.58-6.87-6.25M87.64,148.77c.86,2.5,2.34,6.17,2.34,6.17,0,0-2.19-.16-2.81-1.56-.62-1.41-.62-3.2.47-4.61M99.12,153.38c-1.72,3.2-5,4.84-7.18,4.69.39-1.56.7-2.19.7-2.19,0,0,2.81-.55,3.9-2.58,1.17-2.03.23-4.61-.86-5.15,0,0,1.48-2.58,1.48-2.5.08.23,3.67,4.53,1.95,7.73M92.8,155.18c0-.86,1.48-3.83,2.73-6.17,1.25,2.97.39,3.75-.23,4.69-.55,1.02-2.5,1.48-2.5,1.48M100.45,140.57s-3.28,3.36-4.61,6.09c-1.33,2.73-3.44,7.03-4.14,9.92-.78-1.87-2.42-6.25-3.36-8.28-.94-1.95-4.06-7.97-5.47-9.53.62-.16,5.39,2.19,6.33,3.05,1.02.86,2.42,1.87,2.42,1.87,0,0,1.87-2.03,4.37-2.81,2.5-.78,4.06-.47,4.45-.31M94.98,139.79s-.31.62-.31.23.23-2.81-.16-2.42-.55,2.5-.94,2.81c.16-2.26-.23-11.56-.47-13.51-.31-1.95-1.48-8.9-1.48-8.9h1.41c2.5,7.58,1.95,21.79,1.95,21.79M91.47,98.87l.47.23s2.81-.7,4.3,1.02c.7,1.09,1.09,2.89-.31,4.06,0,0,4.69,1.95,2.81,6.17-1.17,1.72-2.5,1.72-2.81,1.8.39,1.48.31,4.53-2.66,5.15-2.03.31-3.44-.78-3.44-.78,0,0-.7,2.73-3.59,2.66s-3.75-3.36-3.59-4.06c-2.03.62-3.51.55-4.53-.39s-2.03-2.42.23-5.31l-.08-.39s-3.75-.16-3.05-3.98c.55-2.5,3.67-1.95,3.67-1.95,0,0-1.64-4.3,1.95-5.7,1.64-.47,2.89.55,2.89.55h.7s.47-2.58,3.51-2.58c1.8.08,3.2,2.26,3.51,3.51M41.02,105.43l.62.23-.62,1.41-.62-.08.62-1.56ZM39.85,106.52l-.62-.08.62-1.48.62.23-.62,1.33ZM41.95,105.74l1.02.08-.62,1.41-.86-.08.47-1.41ZM43.44,106.13l.86.08-.62,1.48-.86-.08.62-1.48ZM44.69,106.44l.86.23-.55,1.48-.94-.16.62-1.56ZM46.25,106.91s11.09,2.34,18.2,1.95c7.11-.47,10.23-1.02,10.23-1.02l1.25,1.41s-4.61.94-6.48,1.09-4.22.94-12.34,0-11.56-2.19-11.56-2.19l.7-1.25ZM53.9,103.71c0-1.33,1.09-2.42,2.42-2.42s2.42,1.09,2.42,2.42-1.09,2.42-2.42,2.42-2.42-1.09-2.42-2.42M50.78,105.27c-1.33,0-2.42-1.09-2.42-2.42s1.09-2.42,2.42-2.42,2.42,1.09,2.42,2.42c-.08,1.33-1.09,2.42-2.42,2.42M59.53,103.55c.08-2.58-2.81-2.97-2.81-2.97l7.65-12.96c7.97,7.42,10.46,11.56,12.42,14.06-1.25.16-2.42,2.34-2.97,3.67-3.59,1.17-15.78.86-15.78.86,0,0,1.41,0,1.48-2.66M78.43,97.7c-1.09-1.87-7.42-10.31-12.1-13.2.86-2.26,1.25-2.5,1.25-2.5,0,0,9.68,7.42,13.59,14.06-.08,0-1.64-.23-2.73,1.64M78.11,98.17s-.7,1.95-.62,2.97c-1.41-2.11-9.29-12.1-12.65-14.14l1.09-1.95c.08,0,8.36,7.03,12.18,13.12M81,91.76l2.81,3.59-.23,1.09-1.17-.31s-6.64-10.23-14.14-15.07l.86-1.33s8.28,6.87,11.87,12.03M98.5,28.89l-43.03,71.69s-.94.08-1.87,1.41c-.55-1.41-2.58-2.42-3.75-1.87v-.39L99.75,17.18l-1.25,11.71ZM33.29,38.34c6.17,6.56,13.82,18.2,16.63,26.71,2.81,8.59,3.44,15.23,3.44,15.23l-.7,1.17s-.16-.47-1.48-7.81c-2.81-10.7-7.5-18.51-11.87-25.54s-12.42-14.21-12.42-14.21l.78-1.25s.23.23,5.62,5.7M51.95,82.86l-4.45,7.5s-.16-.16-.16-3.2c1.25-14.45-8.51-29.99-11.95-35.53s-11.95-14.6-11.95-14.6l2.97-2.5s7.26,6.87,9.84,10.78c2.58,3.9,6.25,7.42,10.31,17.73,4.14,10.31,5.39,19.84,5.39,19.84M15.25,27.18c.7-5.23,3.44-6.87,5.23-6.95,1.8,0,3.44,2.42,2.34,4.61-1.02,2.19-.08,5-.08,5l-.78.62s-1.87-1.56-.86-4.76c.94-3.2-1.8-3.59-2.81-1.8-1.02,1.8-2.73,5,.55,10.62l-.39,1.17c0,.08-3.9-3.28-3.2-8.51M21.34,31.24s-1.95,1.8-2.03,2.42-1.8-2.97-1.72-4.45c.08-1.48.31-4.22,2.5-5.7.78.23-.16,2.03-.39,2.73-.16.7.86,4.53,1.64,5M19.54,41.23c-.55-.55-1.09-4.53.86-7.81,1.95-3.2,4.3-3.59,5.15-4.61.94-1.02,2.66-2.26,2.73-3.67,0,0,1.64,2.42,0,5.15-1.64,2.73-5,5.47-5.78,6.4-.7.94-2.73,3.51-2.97,4.53M44.06,75.52c-3.75-13.67-8.82-19.84-11.32-23.66-2.19-4.53-10.78-13.28-10.78-13.28l1.17-1.17s8.59,8.98,12.89,16.01,7.65,14.6,9.37,20.62,1.41,16.87,1.33,17.42l-2.03,3.12c0,.08,2.34-5.47-.62-19.06M89.2,23.04l8.98-5.23-49.51,82.24s-.16-.7-1.64-1.56c-1.48-.86-2.89.16-2.89.16L89.2,23.04ZM37.97,98.4c0-1.33,1.09-2.42,2.42-2.42s2.42,1.09,2.42,2.42-1.09,2.42-2.42,2.42-2.42-1.09-2.42-2.42M43.36,101.21c0-1.33,1.09-2.42,2.42-2.42s2.42,1.09,2.42,2.42-1.09,2.42-2.42,2.42c-1.33,0-2.42-1.09-2.42-2.42M37.19,102.69s10.39,3.28,16.71,3.98c6.33.7,15.15,1.02,20.23-.47l.23.86s-3.75.94-6.72,1.09c-3.05.16-12.57-.08-19.76-1.56s-11.01-3.28-11.01-3.28l.31-.62ZM35.55,105.35l.62-1.48.62.23-.62,1.41-.62-.16ZM36.72,105.74l.62-1.48.62.23-.62,1.41-.62-.16ZM38.6,104.57l.62.23-.62,1.41-.62-.08.62-1.56ZM34.54,106.91l.31-.78s8.75,2.89,12.57,3.51c3.83.62,10.39,1.87,13.74,1.87s6.56-.16,8.51-.47,6.4-1.09,6.4-1.09l.31.78s-1.33.23-4.22.78c-2.89.55-8.98.86-11.4.86s-1.25.16-3.9-.16-10-1.87-10-1.87l-12.34-3.44ZM43.91,110.27l1.41.31-1.41.7v-1.02ZM43.52,111.68l-4.3.7-.16-3.83,4.53,1.25v1.87h-.08ZM34.07,107.46l1.56.55-.62.94-.94-1.48ZM37.43,108.4l1.02.16v3.44h-3.67l2.66-3.59ZM30.08,109.25v.7h-.23l-.16-.94h-.62l.16,1.64h-.31l-.47-1.33-.39.16.31,1.64-.31-.08-.55-1.56-.62.23h-.55v1.09l-.47.08s-.16-3.12-3.44-6.95c-3.28-3.83-4.61-5-6.64-4.92h-.55v-.31s3.12-2.19,6.01-.78c2.89,1.41,4.53,5.15,4.53,5.23s-1.95-6.09,3.12-9.22c3.36-2.03,4.06-1.8,4.06-1.8,0,0-2.97,4.53-2.97,9.84.08,4.45,1.41,8.36,1.8,9.61h-.55l-.7-2.66-.47.31ZM13.37,121.13c-.39-1.72-1.33-5.54,4.69-7.89l-.23-.55s-5.23-1.48-5.31-5.7c-.08-1.95.62-2.58.62-2.58,0,0,1.41,4.76,7.97,6.64,6.56,1.87,13.28,1.72,13.28,1.72h6.4c.94,0,4.69-.94,5.31-2.03l3.44.94s-3.75,2.66-6.79,3.12c-3.05.47-11.4.47-12.42.55-1.02,0-4.45-.31-7.03.23-2.73.47-6.79,1.17-9.92,5.54M30.16,115.74c1.72.16,4.37,0,4.37,0,0,0,2.5,2.66,6.48,4.53l-1.25.16s1.17,1.33,1.8,1.56c.55.23-.23.31-1.41.08-1.33-.31-8.36-3.05-10-6.33M27.43,118.7c.16.78,1.72,7.26,2.26,8.51.47,1.33,1.72,4.53,1.95,4.84s.23-.7-.23-2.19c-.47-1.56-1.95-5.47-2.26-7.34-.39-1.95-1.02-4.61-.62-5.08,0,0,.55.31.55,1.09s1.56,5.94,2.42,8.12c.78,2.19,3.75,10.78,2.26,12.96-1.48,2.19-2.42,2.73-2.42,2.73v-2.42c0-1.33-.47-3.83-1.09-5.31-.55-1.48-1.25-3.9-1.95-6.25-.7-2.34-2.11-6.79-1.72-7.26.39.55.62,2.11.86,3.05.23.86,2.11,6.4,2.58,7.03s.39-.39,0-1.17-2.42-7.65-2.66-9.14c-.39-1.64-.08-3.05.08-2.19M23.21,123.62c.86-.16,1.8,6.87,2.34,8.28.47,1.41,1.02,2.03.62.55-.47-1.48-2.58-9.45-1.87-10.31,1.17,5,2.66,10.23,3.28,10.54.16-.86-2.19-7.58-2.34-9.53-.16-1.95.16-2.26.16-2.26,0,0,.16-.23.55,1.95.39,2.19,2.34,8.75,2.66,10,.31,1.25,2.89,7.73.7,10.93-1.56,2.03-2.26,1.8-2.26,1.8,0,0,.62-4.69-.86-8.2-.94-3.28-2.19-9.06-2.5-10.31-.47-1.25-1.25-3.28-.47-3.44M20.24,129.4c.55,1.25,2.11,6.56,2.5,8.67.39.31.78-.31.39-1.64-.62-1.09-1.95-5.78-1.56-6.87.94,3.12,1.95,7.11,2.58,7.18.08-.7-.7-2.42-.86-3.2s-1.8-6.95-1.09-7.89c0,0,1.56,6.64,2.11,8.28.55,1.72,2.34,10.78,1.48,12.34-.86,1.48-2.81,1.95-2.81,1.95,0,0,.23-3.44.16-5.08-.08-1.64-.78-3.83-1.17-5.54-.31-1.72-2.26-7.26-1.72-8.2M16.65,143.93c-.08-.7-.16-1.72.23-1.41.31.31.47,1.72.47,1.72,0,0-.62.47-.7-.31M17.9,144.16c-.08-.31-1.33-5-.94-5.47.31-.47.47.39,1.02,2.5.62,2.11.31,3.28.31,3.28,0,0-.31,0-.39-.31M19.07,144.71c.16-1.33-.55-4.61-1.33-6.48-.31-2.11.7-3.59.7-3.59,0,0,1.25,6.87,1.95,8.04.47.62.55-1.02.31-2.03-.31-1.02-1.09-3.05-1.33-3.98-.23-.94-.55-5.08,0-4.45.55.62,1.41,4.45,1.87,6.17.47,1.72,1.17,8.67.86,8.9v-.08c-.31-.31-1.95-2.34-3.05-2.5M11.89,149.47c.47,2.26.23,4.22,3.44,5.78,1.17.31,1.48,0,.55-.31-.94-.31-3.83-1.72-2.89-5.62.86-3.9,8.67-3.67,7.81,2.34h.47s.94-2.58-1.72-5.23c0,0,1.09-.08,2.03,2.03.86,2.11.62,5.15-2.03,6.72-2.58,1.56-5,.62-5.86-.16-.78-.78-2.66-2.81-1.8-5.54M10.64,158.46c-.23-1.25.7-2.66,1.72-2.89,1.02-.23,2.66.94,2.81,1.8,0,0,.62,1.41-.94,2.34-1.48.94-3.28,0-3.59-1.25"/>
    <path class="st1" d="M56.48,104.96s-1.56-.39-1.25-1.56c.23-1.17,2.42-1.17,2.26.7,0,0,.62.31.62-.31s-.55-1.64-1.64-1.8-2.03,1.02-1.72,2.19c.31,1.17,1.09,1.25,1.72,1.41,0-.47,0-.62,0-.62"/>
    <path class="st1" d="M91.62,146.19s-2.03-2.42-2.89-3.2c-.86-.86-2.34-1.48-1.48-.16,1.02,1.8,3.67,8.12,3.9,8.67.23.55.55.62.86.31.62-1.87,4.61-8.43,4.61-8.43.08-.16.55-.78-.31-.39-2.19.62-4.69,3.2-4.69,3.2M91.7,150.72c-.31-.47-2.34-5.23-3.2-6.72,1.17.78,2.89,3.05,2.89,3.05,0,0,2.81-2.11,3.36-2.34.08,0-2.81,5.23-3.05,6.01"/>
    <path class="st1" d="M50.86,101.05c-1.09-.16-2.03,1.02-1.72,2.19.31,1.17,1.09,1.25,1.72,1.41.08-.39,0-.55,0-.55,0,0-1.56-.39-1.25-1.56.23-1.17,2.42-1.17,2.26.7,0,0,.62.31.62-.31,0-.7-.55-1.72-1.64-1.87"/>
    <path class="st1" d="M40.47,99.57s-1.56-.39-1.25-1.56c.23-1.17,2.42-1.17,2.26.7,0,0,.62.31.62-.31s-.55-1.64-1.64-1.8c-1.09-.16-2.03,1.02-1.72,2.19.31,1.17,1.09,1.25,1.72,1.41.08-.39,0-.62,0-.62"/>
    <path class="st1" d="M45.86,102.38s-1.56-.39-1.25-1.56c.23-1.17,2.42-1.17,2.26.7,0,0,.62.31.62-.31s-.55-1.64-1.64-1.8c-1.09-.16-2.03,1.02-1.72,2.19.31,1.17,1.09,1.25,1.72,1.41.08-.39,0-.62,0-.62"/>
    <path class="st1" d="M91.94,110.74s.23.62.55.62c.23,0,.39-.55,0-.62-.47-.08-.55-.16-.55,0"/>
  </g>
</svg>