<?xml version="1.0" encoding="UTF-8"?>
<svg id="Layer_1" xmlns="http://www.w3.org/2000/svg" version="1.1" viewBox="0 0 109.6 176.97">
  <!-- Generator: Adobe Illustrator 30.2.1, SVG Export Plug-In . SVG Version: 2.1.1 Build 1)  -->
  <defs>
    <style>
      .st0 {
        fill: #0e80c3;
      }

      .st1 {
        fill: #1d1c1a;
      }

      .st2 {
        stroke: #1d1c1a;
        stroke-width: 1.26px;
      }

      .st2, .st3 {
        fill: none;
        stroke-miterlimit: 10;
      }

      .st4 {
        fill: #d81f26;
      }

      .st5 {
        fill: #fff;
      }

      .st3 {
        stroke: #d81f26;
        stroke-width: .78px;
      }

      .st6 {
        fill: #fddb00;
      }
    </style>
  </defs>
  <rect class="st5" x="-.54" y="-.07" width="110.69" height="177.1"/>
  <g>
    <path class="st1" d="M10.09,15.27c.31,0,.55,0,.7-.08s.23-.16.31-.23c.08-.08.16-.23.23-.47h.78l-.16,2.5h-6.25v-.47c.16-.47.39-.94.78-1.41.39-.55.78-1.09,1.33-1.72.47-.55.86-1.09,1.09-1.41.23-.39.47-.7.55-1.09.16-.31.16-.7.16-1.02,0-.47-.08-.94-.31-1.17-.23-.31-.55-.47-.94-.47s-.7.16-.94.39-.39.7-.55,1.25h-1.09v-1.64c.55-.23,1.02-.39,1.33-.47s.62-.16.94-.23.62-.08,1.02-.08c.7,0,1.25.08,1.64.23.39.16.7.39.94.7.16.31.31.7.31,1.09s-.08.7-.23,1.02c-.16.31-.39.7-.7,1.09s-.86.94-1.64,1.72c-.39.31-.7.7-1.02,1.02-.31.39-.55.62-.7.86v.08h2.42Z"/>
    <path class="st1" d="M99.75,161.86c-.31,0-.55,0-.7.08-.16.08-.23.16-.31.23s-.16.23-.23.47h-.78l.16-2.5h6.25v.47c-.16.47-.47.94-.86,1.41-.39.55-.78,1.09-1.33,1.72-.47.55-.86,1.09-1.09,1.41-.23.39-.47.7-.55,1.09-.16.31-.16.7-.16,1.02,0,.47.08.94.31,1.17.23.31.55.47.94.47s.7-.16.94-.39.39-.7.55-1.25h1.25v1.64c-.55.23-1.02.39-1.33.47s-.62.16-.94.23-.62.08-1.02.08c-.7,0-1.25-.08-1.64-.23-.39-.16-.7-.39-.94-.7-.16-.31-.31-.7-.31-1.09s.08-.7.23-1.02.39-.7.7-1.09.86-.94,1.64-1.72c.39-.31.7-.7,1.02-1.02.31-.39.55-.62.7-.86v-.08h-2.5Z"/>
    <polyline class="st2" points="29.69 171.54 3.69 171.54 3.69 5.43 29.15 5.43"/>
    <polyline class="st2" points="79.52 5.43 105.92 5.43 105.92 171.54 79.28 171.54"/>
    <line class="st2" x1="68.59" y1="171.54" x2="40.47" y2="171.54"/>
    <line class="st2" x1="68.59" y1="5.43" x2="40.47" y2="5.43"/>
    <path class="st4" d="M30.47,141.86s-.08,0,0,0c-.08,0,0,0,0,0Z"/>
    <path class="st3" d="M30.47,141.86s-.08,0,0,0c-.08,0,0,0,0,0Z"/>
    <polygon class="st4" points="30.08 142.1 30.63 141.55 30.71 141.63 30.16 142.18 30.08 142.1"/>
    <polygon class="st3" points="30.08 142.1 30.63 141.55 30.71 141.63 30.16 142.18 30.08 142.1"/>
    <path class="st6" d="M9.86,116.4c-.39-.78-.08-1.48.78-1.64.23-.08.55.08.78-.16-.86-.62-2.03-.47-2.58.31-.47.62-.31,1.41.39,1.95.23.16.55.47.78.31.23-.23,0-.55-.16-.78"/>
    <path class="st6" d="M24.7,161.23c-.7-.39-.94-.86-.55-1.41.31-.47.78-.62,1.33-.23q-1.02.39-.78,1.64"/>
    <path class="st0" d="M28.13,23.08c.47,1.09.86,2.19,1.48,3.12,1.48,2.42,1.56,5.08,1.48,7.81-.08,4.22-.08,8.43-.16,12.65-.08,5.94-.16,11.95-.16,17.88-.08,8.12-.16,16.24-.23,24.37-.08,7.73-.16,15.38-.23,23.12,0,1.33-.08,2.66-.08,3.98h-.16c-.16,0-.23,0-.39-.08-1.17-.7-2.34-1.33-3.51-2.03-.31-.23-.39-.55-.39-.86.08-6.01.16-12.03.23-18.04.08-5.78.16-11.56.23-17.26.08-7.58.16-15.07.23-22.65.08-7.97.23-15.93.31-23.9.08-3.2.08-6.4.08-9.61,0-.16-.08-.31.16-.55.47.7.78,1.33,1.09,2.03"/>
    <path class="st0" d="M25.48,113.12h0c.08-3.51.08-6.95.16-10.31l.08-7.81c0-2.81.08-5.7.08-8.51.08-2.89.08-5.86.08-8.75.08-3.2.08-6.4.08-9.61.08-4.37.08-8.67.16-13.04.08-4.61.16-9.29.16-13.9l.16-10c0-1.8.08-3.51.08-5.31,0-1.41,0-2.89.08-4.3v-.16c0-.23.08-.47.31-.62l.39-.31,1.17,2.5c.16.31.31.7.47,1.02.31.7.62,1.48,1.02,2.11,1.33,2.26,1.56,4.61,1.56,6.79v1.25c-.08,2.89-.08,5.78-.08,8.67v4.06l-.08,7.97c0,3.28-.08,6.64-.08,9.92l-.31,24.21c-.08,7.65-.16,15.38-.23,23.12,0,.94,0,1.8-.08,2.73v1.56l-.47.08c-.31.08-.55-.08-.7-.16l-3.44-1.95c-.47-.39-.55-.86-.55-1.25M27.43,22.38c0,1.17,0,2.34-.08,3.44,0,1.8,0,3.51-.08,5.31l-.16,10c-.08,4.61-.16,9.29-.16,13.9-.08,4.37-.08,8.67-.16,13.04,0,3.2-.08,6.4-.08,9.61,0,2.89-.08,5.86-.08,8.75s-.08,5.7-.08,8.51l-.08,7.81c-.08,3.44-.08,6.87-.16,10.31l-.39.08h.39c0,.31.08.47.16.55l3.44,1.95v-.78c0-.94.08-1.8.08-2.73.08-7.73.16-15.38.23-23.12l.23-24.37c0-3.28.08-6.64.08-9.92l.08-7.97v-4.06c0-2.81,0-5.78.08-8.67v-1.17c0-2.11-.16-4.3-1.41-6.4-.39-.7-.78-1.48-1.09-2.19-.16-.31-.31-.7-.47-1.02l-.31-.86Z"/>
    <path class="st0" d="M19.54,115.54c.08-1.33.16-2.66.16-3.98.16-8.12.31-16.24.47-24.37.16-5.94.23-11.79.39-17.73.08-4.92.23-9.84.31-14.84.16-7.11.31-14.14.47-21.24,0-1.17.08-2.34.08-3.59,0-.47.08-.94.31-1.41,1.33-2.34,2.73-4.76,4.06-7.11.08-.08.16-.23.16-.23.08,2.34.16,4.69.16,7.03s-.08,4.84-.16,7.26c-.16,7.5-.23,15.07-.39,22.57-.08,4.69-.16,9.37-.23,14.06-.08,6.72-.23,13.43-.31,20.07-.08,5.15-.16,10.31-.31,15.38,0,1.95-.08,3.83-.08,5.78,0,.39-.16.7-.47.94-1.33,1.09-2.81,1.64-4.53,1.87-.16-.08,0-.31-.08-.47"/>
    <path class="st0" d="M19.15,115.62l.08-1.33c0-.94.08-1.8.08-2.73.08-3.75.16-7.5.23-11.25.08-4.37.16-8.75.23-13.04.08-3.44.16-6.79.23-10.23.08-2.5.08-5,.16-7.5.08-2.58.08-5.15.16-7.73.08-2.34.08-4.76.16-7.11l.08-3.28c.16-6.01.23-11.95.39-17.96v-.94c0-.78.08-1.56.08-2.42v-.23h0c0-.62.16-1.17.39-1.56.78-1.41,1.64-2.89,2.42-4.3l1.64-2.81c.23-.47.47-.39.62-.39l.31.08v.31c0,.7.08,1.41.08,2.11.08,1.56.08,3.2.08,4.84v.39c0,1.56,0,3.12-.08,4.61,0,.78,0,1.48-.08,2.26l-.08,6.33c-.08,5.39-.16,10.86-.31,16.24-.08,2.5-.08,4.92-.08,7.42,0,2.19-.08,4.45-.08,6.64-.08,6.72-.23,13.43-.31,20.07-.08,4.14-.16,8.2-.23,12.34l-.08,5.08c0,1.25-.08,2.5-.08,3.83,0,.47-.16.86-.62,1.25-1.25,1.09-2.81,1.72-4.69,2.03h-.16l-.16-.08c-.31-.16-.31-.55-.31-.62l-.08-.31h0ZM21.81,30.11c0,.78,0,1.64-.08,2.42v.94c-.16,6.01-.31,11.95-.39,17.96l-.08,3.2c-.08,2.34-.08,4.76-.16,7.11-.08,2.58-.08,5.15-.16,7.73-.08,2.5-.08,5-.16,7.5-.08,3.44-.16,6.79-.23,10.23-.08,4.37-.16,8.75-.23,13.04-.08,3.75-.16,7.5-.23,11.25,0,.94-.08,1.8-.08,2.73l-.08,1.25v.16c1.64-.31,2.97-.86,3.98-1.8.23-.23.31-.39.31-.7,0-1.25.08-2.58.08-3.83l.08-5.08c.08-4.14.16-8.2.23-12.34.08-6.72.23-13.43.31-20.07,0-2.19.08-4.45.08-6.64,0-2.5.08-4.92.08-7.42.08-5.39.16-10.86.31-16.24l.08-6.33c0-.78,0-1.48.08-2.26,0-1.48.08-3.05.08-4.61v-.39c0-1.64-.08-3.2-.08-4.84v-.78l-1.09,1.87c-.78,1.41-1.64,2.89-2.42,4.3-.16.31-.31.7-.31,1.17l.08.47Z"/>
    <path class="st6" d="M7.98,115.94c0-1.33,1.09-2.5,2.34-2.58s2.42,1.09,2.5,2.42c0,1.33-1.02,2.58-2.34,2.58-1.33.16-2.5-1.02-2.5-2.42"/>
    <path class="st6" d="M26.49,155.61c-.16,0-.31-.08-.39-.31,0-.23.16-.16.31-.23.47-.16.78-.47.7-1.02,0-.23-.39-.47.08-.62.31-.08.55.16.7.39.08.08.08.23.08.31,0,.86-.86,1.56-1.48,1.48"/>
    <path class="st6" d="M24.62,153.66c-.16.08-.39,0-.55-.16-.39-.31-.39-.7-.23-1.09.08-.47.7-.86,1.25-.86.23,0,.47,0,.55.23.08.31-.23.23-.39.31-.47.23-.78.55-.55,1.09,0,.16.08.31-.08.47"/>
    <path class="st6" d="M25.87,150.3c.23.08.55.16.55.47,0,.39-.39.23-.62.23-.94-.08-1.8.08-2.34.86-.62.78-.62,1.64-.31,2.58.08.31.31.62.23,1.09-1.02-.62-1.25-1.56-1.17-2.58.08-1.09.47-1.95,1.56-2.42.62-.31,1.33-.39,2.11-.23"/>
    <path class="st4" d="M30.24,144.67c-.16.62-.31,1.25-.94,1.64-.7.39-1.33.86-2.03,1.41.47.31.86.08,1.17-.08.39-.16.47,0,.39.31-.16.62-.7.86-1.33.62-.7-.31-1.48-.39-2.26-.55-.47-.08-.62-.23-.16-.55,1.48-1.17,3.2-2.03,4.84-3.12.31-.23.39.08.31.31"/>
    <path class="st3" d="M30.24,144.67c-.16.62-.31,1.25-.94,1.64-.7.39-1.33.86-2.03,1.41.47.31.86.08,1.17-.08.39-.16.47,0,.39.31-.16.62-.7.86-1.33.62-.7-.31-1.48-.39-2.26-.55-.47-.08-.62-.23-.16-.55,1.48-1.17,3.2-2.03,4.84-3.12.31-.23.39.08.31.31Z"/>
    <path class="st4" d="M24.46,147.72c0-.31.23-.47.39-.62.94-.78,1.95-1.33,2.97-1.95.62-.39,1.25-.78,1.87-1.17.31-.16.55-.16.62-.08.23.16.39.47.23.86l-.08.16c-.16.62-.31,1.25-1.09,1.72-.23.16-.55.31-.78.55.08,0,.23,0,.31.08.08.08.31.23.23.78-.08.39-.31.7-.7.94-.31.16-.78.16-1.17,0-.55-.23-1.09-.31-1.72-.47l-.31-.16c-.47-.08-.78-.31-.78-.62M29.77,144.91c-.55.31-1.02.62-1.56.94-.94.55-1.87,1.17-2.81,1.8l.31.08c.39.08.78.16,1.17.23l-.39-.23.47-.31c.23-.16.47-.31.62-.47.47-.31.94-.62,1.41-.94.55-.23.62-.62.78-1.09M28.37,148.03c-.16.08-.39.16-.62.16.16.08.31.08.47,0,0,0,.08-.08.16-.16"/>
    <path class="st3" d="M24.46,147.72c0-.31.23-.47.39-.62.94-.78,1.95-1.33,2.97-1.95.62-.39,1.25-.78,1.87-1.17.31-.16.55-.16.62-.08.23.16.39.47.23.86l-.08.16c-.16.62-.31,1.25-1.09,1.72-.23.16-.55.31-.78.55.08,0,.23,0,.31.08.08.08.31.23.23.78-.08.39-.31.7-.7.94-.31.16-.78.16-1.17,0-.55-.23-1.09-.31-1.72-.47l-.31-.16c-.47-.08-.78-.31-.78-.62ZM29.77,144.91c-.55.31-1.02.62-1.56.94-.94.55-1.87,1.17-2.81,1.8l.31.08c.39.08.78.16,1.17.23l-.39-.23.47-.31c.23-.16.47-.31.62-.47.47-.31.94-.62,1.41-.94.55-.23.62-.62.78-1.09ZM28.37,148.03c-.16.08-.39.16-.62.16.16.08.31.08.47,0,0,0,.08-.08.16-.16Z"/>
    <path class="st4" d="M29.07,142.57c.47-.23.86-.55,1.33-.78l.08-.08q0,.08-.08.16h0c-.08.7-.7,1.02-1.17,1.41-1.56,1.41-3.44,2.34-5,3.75-.7.62-1.41,1.25-2.03,1.95-.55.55-.7.47-1.09-.16-.7-1.09-.47-1.8.39-2.73,1.95-2.11,4.14-3.83,6.48-5.39.86-.55,1.72-1.25,2.58-1.87.23-.16.47-.47.94-.55-.78,2.03-2.42,3.28-3.83,4.76q.55.08,1.41-.47"/>
    <path class="st3" d="M29.07,142.57c.47-.23.86-.55,1.33-.78l.08-.08q0,.08-.08.16h0c-.08.7-.7,1.02-1.17,1.41-1.56,1.41-3.44,2.34-5,3.75-.7.62-1.41,1.25-2.03,1.95-.55.55-.7.47-1.09-.16-.7-1.09-.47-1.8.39-2.73,1.95-2.11,4.14-3.83,6.48-5.39.86-.55,1.72-1.25,2.58-1.87.23-.16.47-.47.94-.55-.78,2.03-2.42,3.28-3.83,4.76q.55.08,1.41-.47Z"/>
    <path class="st4" d="M20.32,147.64c0-.78.47-1.41.86-1.8,1.8-1.95,3.98-3.75,6.56-5.47.55-.39,1.17-.78,1.72-1.25.31-.23.55-.39.86-.62q.08-.08.16-.16c.23-.16.47-.39.94-.55l.7-.16-.23.62c-.62,1.64-1.72,2.73-2.81,3.83l-.08.08,2.19-1.33-.31,1.09c-.08.62-.55,1.02-.94,1.33-.08.08-.23.16-.31.23-.86.78-1.8,1.41-2.66,2.03-.78.55-1.56,1.09-2.34,1.72-.55.47-1.02.94-1.48,1.41l-.47.47c-.31.31-.55.55-.94.47-.39,0-.62-.39-.78-.7-.47-.39-.62-.78-.62-1.25M30.47,139.36c-.16.16-.31.23-.55.39-.55.47-1.17.86-1.72,1.25-2.58,1.64-4.69,3.36-6.4,5.31-.86.94-.94,1.41-.39,2.26.08.08.16.23.23.31.08,0,.16-.08.31-.23l.47-.47c.47-.47,1.02-1.02,1.56-1.48.78-.62,1.56-1.25,2.42-1.8.78-.55,1.64-1.09,2.34-1.72-.47.23-.7.23-1.17.08l-.62-.16.39-.47c.31-.39.7-.7,1.09-1.09.78-.7,1.48-1.41,2.03-2.19"/>
    <path class="st3" d="M20.32,147.64c0-.78.47-1.41.86-1.8,1.8-1.95,3.98-3.75,6.56-5.47.55-.39,1.17-.78,1.72-1.25.31-.23.55-.39.86-.62q.08-.08.16-.16c.23-.16.47-.39.94-.55l.7-.16-.23.62c-.62,1.64-1.72,2.73-2.81,3.83l-.08.08,2.19-1.33-.31,1.09c-.08.62-.55,1.02-.94,1.33-.08.08-.23.16-.31.23-.86.78-1.8,1.41-2.66,2.03-.78.55-1.56,1.09-2.34,1.72-.55.47-1.02.94-1.48,1.41l-.47.47c-.31.31-.55.55-.94.47-.39,0-.62-.39-.78-.7-.47-.39-.62-.78-.62-1.25ZM30.47,139.36c-.16.16-.31.23-.55.39-.55.47-1.17.86-1.72,1.25-2.58,1.64-4.69,3.36-6.4,5.31-.86.94-.94,1.41-.39,2.26.08.08.16.23.23.31.08,0,.16-.08.31-.23l.47-.47c.47-.47,1.02-1.02,1.56-1.48.78-.62,1.56-1.25,2.42-1.8.78-.55,1.64-1.09,2.34-1.72-.47.23-.7.23-1.17.08l-.62-.16.39-.47c.31-.39.7-.7,1.09-1.09.78-.7,1.48-1.41,2.03-2.19Z"/>
    <path class="st4" d="M31.02,134.37c-.78,1.87-2.42,3.05-3.75,4.45,1.48-.39,2.58-1.56,3.83-2.34q.08.08.16.16c-.47,1.02-1.41,1.56-2.26,2.19-2.19,1.72-4.69,3.05-6.64,5-.7.62-1.33,1.33-1.87,2.11-.39.55-.55.39-.86-.16-.86-1.33-.55-2.26.55-3.36,1.8-1.72,3.75-3.2,5.86-4.45,1.64-1.02,3.2-2.11,4.69-3.36-.08-.16,0-.31.31-.23"/>
    <path class="st3" d="M31.02,134.37c-.78,1.87-2.42,3.05-3.75,4.45,1.48-.39,2.58-1.56,3.83-2.34q.08.08.16.16c-.47,1.02-1.41,1.56-2.26,2.19-2.19,1.72-4.69,3.05-6.64,5-.7.62-1.33,1.33-1.87,2.11-.39.55-.55.39-.86-.16-.86-1.33-.55-2.26.55-3.36,1.8-1.72,3.75-3.2,5.86-4.45,1.64-1.02,3.2-2.11,4.69-3.36-.08-.16,0-.31.31-.23Z"/>
    <path class="st4" d="M18.68,144.28c0-.7.39-1.41,1.09-2.19,1.64-1.56,3.51-3.05,5.86-4.53,1.72-1.09,3.2-2.11,4.61-3.28.16-.16.39-.31.78-.23l.39.16-.16.39c-.39,1.02-1.09,1.87-1.8,2.66.08,0,.08-.08.16-.08.39-.31.78-.62,1.25-.86l.23-.16.55.47-.08.23c-.39.94-1.09,1.41-1.8,1.95-.16.16-.39.23-.55.39-.78.62-1.64,1.17-2.42,1.72-1.41.94-2.89,1.95-4.14,3.2-.78.78-1.41,1.41-1.87,2.03-.23.23-.47.47-.78.47-.39,0-.55-.31-.78-.62-.39-.7-.55-1.25-.55-1.72M29.85,135.54c-1.17.94-2.42,1.8-3.75,2.66-2.26,1.41-4.14,2.89-5.78,4.45-1.02,1.02-1.17,1.8-.47,2.89,0,.08.08.16.16.23l.08-.08c.55-.62,1.17-1.33,1.95-2.11,1.33-1.33,2.81-2.34,4.3-3.28.62-.39,1.25-.86,1.8-1.25-.23.08-.47.23-.78.31l-1.25.39.86-.94c.39-.39.78-.86,1.25-1.25.62-.78,1.17-1.41,1.64-2.03"/>
    <path class="st3" d="M18.68,144.28c0-.7.39-1.41,1.09-2.19,1.64-1.56,3.51-3.05,5.86-4.53,1.72-1.09,3.2-2.11,4.61-3.28.16-.16.39-.31.78-.23l.39.16-.16.39c-.39,1.02-1.09,1.87-1.8,2.66.08,0,.08-.08.16-.08.39-.31.78-.62,1.25-.86l.23-.16.55.47-.08.23c-.39.94-1.09,1.41-1.8,1.95-.16.16-.39.23-.55.39-.78.62-1.64,1.17-2.42,1.72-1.41.94-2.89,1.95-4.14,3.2-.78.78-1.41,1.41-1.87,2.03-.23.23-.47.47-.78.47-.39,0-.55-.31-.78-.62-.39-.7-.55-1.25-.55-1.72ZM29.85,135.54c-1.17.94-2.42,1.8-3.75,2.66-2.26,1.41-4.14,2.89-5.78,4.45-1.02,1.02-1.17,1.8-.47,2.89,0,.08.08.16.16.23l.08-.08c.55-.62,1.17-1.33,1.95-2.11,1.33-1.33,2.81-2.34,4.3-3.28.62-.39,1.25-.86,1.8-1.25-.23.08-.47.23-.78.31l-1.25.39.86-.94c.39-.39.78-.86,1.25-1.25.62-.78,1.17-1.41,1.64-2.03Z"/>
    <path class="st4" d="M27.12,134.37c1.25-.7,2.34-1.64,3.51-2.5.16-.08.31-.39.47-.23.23.16.16.47.08.7-.08.16-.23.31-.39.47-1.33,1.17-2.66,2.42-4.22,3.36-2.66,1.64-5.15,3.36-7.42,5.54-.16.16-.31.55-.7.39-.31-.16-.23-.47-.31-.78-.16-.62-.16-1.25-.31-1.87-.08-.55.08-1.02.55-1.48,2.19-2.42,5-3.98,7.73-5.62,1.64-1.02,3.12-2.11,4.45-3.44.08-.08.16-.08.39-.16-1.09,2.5-3.28,3.83-5,5.54.55.39.86.23,1.17.08"/>
    <path class="st3" d="M27.12,134.37c1.25-.7,2.34-1.64,3.51-2.5.16-.08.31-.39.47-.23.23.16.16.47.08.7-.08.16-.23.31-.39.47-1.33,1.17-2.66,2.42-4.22,3.36-2.66,1.64-5.15,3.36-7.42,5.54-.16.16-.31.55-.7.39-.31-.16-.23-.47-.31-.78-.16-.62-.16-1.25-.31-1.87-.08-.55.08-1.02.55-1.48,2.19-2.42,5-3.98,7.73-5.62,1.64-1.02,3.12-2.11,4.45-3.44.08-.08.16-.08.39-.16-1.09,2.5-3.28,3.83-5,5.54.55.39.86.23,1.17.08Z"/>
    <path class="st4" d="M17.51,139.21c0-.62.31-1.09.62-1.41,1.87-2.11,4.3-3.59,6.64-5,.39-.23.78-.47,1.17-.7,1.87-1.17,3.28-2.19,4.37-3.36.08-.08.23-.16.31-.16s.16,0,.23-.08l.86-.31-.39.78c-.86,1.87-2.26,3.12-3.59,4.3-.23.16-.47.39-.7.62.78-.47,1.48-1.02,2.19-1.56.31-.23.62-.55,1.02-.78l.08-.08c.31-.31.62-.39.94-.16.16.16.31.39.31.62s-.08.39-.16.55c-.16.23-.31.47-.47.55-.23.23-.47.39-.7.62-1.09.94-2.26,1.95-3.51,2.73-3.12,1.95-5.39,3.59-7.34,5.47l-.08.08c-.16.16-.47.62-1.02.39-.47-.16-.47-.62-.47-.86v-.16c-.08-.39-.16-.78-.16-1.09,0-.23-.08-.47-.08-.78-.08,0-.08-.08-.08-.23M29.46,130.62c-.86.7-1.87,1.41-3.12,2.19-.39.23-.78.47-1.17.7-2.26,1.41-4.69,2.81-6.48,4.84-.39.39-.47.7-.39,1.17.08.23.08.55.08.78.08.39.08.7.16,1.09v.47s.08-.08.08-.16c.08-.08.08-.16.16-.16,1.95-1.87,4.22-3.67,7.42-5.62,1.25-.78,2.34-1.72,3.44-2.66.23-.23.47-.39.7-.62.08-.08.23-.23.23-.31-.31.23-.62.47-.94.7-.78.62-1.64,1.25-2.58,1.8-.39.23-.86.47-1.48.08l-.39-.23.31-.31c.47-.47,1.02-.94,1.56-1.41,1.02-.94,1.8-1.64,2.42-2.34"/>
    <path class="st3" d="M17.51,139.21c0-.62.31-1.09.62-1.41,1.87-2.11,4.3-3.59,6.64-5,.39-.23.78-.47,1.17-.7,1.87-1.17,3.28-2.19,4.37-3.36.08-.08.23-.16.31-.16s.16,0,.23-.08l.86-.31-.39.78c-.86,1.87-2.26,3.12-3.59,4.3-.23.16-.47.39-.7.62.78-.47,1.48-1.02,2.19-1.56.31-.23.62-.55,1.02-.78l.08-.08c.31-.31.62-.39.94-.16.16.16.31.39.31.62s-.08.39-.16.55c-.16.23-.31.47-.47.55-.23.23-.47.39-.7.62-1.09.94-2.26,1.95-3.51,2.73-3.12,1.95-5.39,3.59-7.34,5.47l-.08.08c-.16.16-.47.62-1.02.39-.47-.16-.47-.62-.47-.86v-.16c-.08-.39-.16-.78-.16-1.09,0-.23-.08-.47-.08-.78-.08,0-.08-.08-.08-.23ZM29.46,130.62c-.86.7-1.87,1.41-3.12,2.19-.39.23-.78.47-1.17.7-2.26,1.41-4.69,2.81-6.48,4.84-.39.39-.47.7-.39,1.17.08.23.08.55.08.78.08.39.08.7.16,1.09v.47s.08-.08.08-.16c.08-.08.08-.16.16-.16,1.95-1.87,4.22-3.67,7.42-5.62,1.25-.78,2.34-1.72,3.44-2.66.23-.23.47-.39.7-.62.08-.08.23-.23.23-.31-.31.23-.62.47-.94.7-.78.62-1.64,1.25-2.58,1.8-.39.23-.86.47-1.48.08l-.39-.23.31-.31c.47-.47,1.02-.94,1.56-1.41,1.02-.94,1.8-1.64,2.42-2.34Z"/>
    <path class="st4" d="M30.01,125.15c-.16.47-.47.86-.78,1.17-1.02.94-2.03,1.87-3.05,2.73-.23.16-.47.31-.55.62.47.23.86,0,1.17-.23,1.09-.55,2.03-1.41,2.97-2.19.16-.16.31-.31.55-.39l.08-.08q.08.08,0,.16l-.08-.08.08.08c-.23,1.25-1.41,1.8-2.26,2.5-3.2,2.58-6.79,4.61-9.92,7.26-.39.31-.55.23-.55-.23,0-.7-.08-1.48-.08-2.19,0-.62.31-1.02.78-1.41,2.11-1.72,4.3-3.2,6.56-4.69,1.25-.86,2.42-1.8,3.67-2.66.31-.23.7-.55,1.09-.7.23-.16.47-.08.31.31"/>
    <path class="st3" d="M30.01,125.15c-.16.47-.47.86-.78,1.17-1.02.94-2.03,1.87-3.05,2.73-.23.16-.47.31-.55.62.47.23.86,0,1.17-.23,1.09-.55,2.03-1.41,2.97-2.19.16-.16.31-.31.55-.39l.08-.08q.08.08,0,.16l-.08-.08.08.08c-.23,1.25-1.41,1.8-2.26,2.5-3.2,2.58-6.79,4.61-9.92,7.26-.39.31-.55.23-.55-.23,0-.7-.08-1.48-.08-2.19,0-.62.31-1.02.78-1.41,2.11-1.72,4.3-3.2,6.56-4.69,1.25-.86,2.42-1.8,3.67-2.66.31-.23.7-.55,1.09-.7.23-.16.47-.08.31.31Z"/>
    <path class="st4" d="M17.2,134.52v-.16c0-.86.55-1.41.94-1.72,2.03-1.64,4.14-3.12,6.56-4.69.86-.55,1.72-1.17,2.5-1.8.39-.31.78-.55,1.09-.86l.16-.08c.31-.23.62-.47.94-.62s.55-.08.7,0c.23.16.31.47.23.78-.16.47-.47.94-.94,1.33-.78.78-1.64,1.48-2.42,2.26l-.39.39h0c.94-.47,1.64-1.09,2.5-1.8l.39-.31.08-.08c.16-.16.31-.23.55-.31.23-.23.39-.16.55-.08.23.16.23.31.23.39s0,.23-.08.31c-.23,1.09-1.09,1.64-1.8,2.19-.23.16-.39.31-.55.47-1.48,1.17-3.05,2.26-4.61,3.36-1.8,1.25-3.59,2.5-5.31,3.9-.16.08-.47.39-.86.23s-.39-.62-.39-.78v-.62c0-.78-.08-1.25-.08-1.72M29.46,125.38c-.16.08-.31.23-.47.31l-.16.16c-.39.31-.78.55-1.09.86-.86.62-1.72,1.25-2.58,1.87-2.34,1.56-4.53,3.05-6.48,4.69-.47.39-.7.7-.7,1.17v2.03c1.64-1.41,3.51-2.66,5.23-3.9,1.33-.86,2.58-1.8,3.9-2.73-.08,0-.08.08-.16.08l-.08.08c-.39.23-.86.47-1.48.16l-.23-.16.08-.31c.08-.39.31-.62.55-.78.08,0,.08-.08.16-.08l.62-.55c.78-.78,1.64-1.48,2.42-2.26.16-.16.31-.39.47-.62"/>
    <path class="st3" d="M17.2,134.52v-.16c0-.86.55-1.41.94-1.72,2.03-1.64,4.14-3.12,6.56-4.69.86-.55,1.72-1.17,2.5-1.8.39-.31.78-.55,1.09-.86l.16-.08c.31-.23.62-.47.94-.62s.55-.08.7,0c.23.16.31.47.23.78-.16.47-.47.94-.94,1.33-.78.78-1.64,1.48-2.42,2.26l-.39.39h0c.94-.47,1.64-1.09,2.5-1.8l.39-.31.08-.08c.16-.16.31-.23.55-.31.23-.23.39-.16.55-.08.23.16.23.31.23.39s0,.23-.08.31c-.23,1.09-1.09,1.64-1.8,2.19-.23.16-.39.31-.55.47-1.48,1.17-3.05,2.26-4.61,3.36-1.8,1.25-3.59,2.5-5.31,3.9-.16.08-.47.39-.86.23s-.39-.62-.39-.78v-.62c0-.78-.08-1.25-.08-1.72ZM29.46,125.38c-.16.08-.31.23-.47.31l-.16.16c-.39.31-.78.55-1.09.86-.86.62-1.72,1.25-2.58,1.87-2.34,1.56-4.53,3.05-6.48,4.69-.47.39-.7.7-.7,1.17v2.03c1.64-1.41,3.51-2.66,5.23-3.9,1.33-.86,2.58-1.8,3.9-2.73-.08,0-.08.08-.16.08l-.08.08c-.39.23-.86.47-1.48.16l-.23-.16.08-.31c.08-.39.31-.62.55-.78.08,0,.08-.08.16-.08l.62-.55c.78-.78,1.64-1.48,2.42-2.26.16-.16.31-.39.47-.62Z"/>
    <path class="st4" d="M26.57,122.5c.39.31.08.7-.08,1.02-.62,1.02-1.48,1.72-2.42,2.42-.16.08-.23.23-.39.31.31.31.55.08.78,0,1.33-.78,2.73-1.56,3.75-2.81.16-.16.23-.39.47-.23.31.16.16.39.08.62-.16.39-.47.62-.78.86-2.89,2.11-5.78,4.22-8.67,6.25-.47.31-.86.86-1.41,1.09l-.08.08s0-.08.08-.08h.08l-.08-.08v-.16c-.08-1.95.39-3.59,2.19-4.69,1.09-.7,2.11-1.64,3.28-2.26.94-.47,1.64-1.17,2.42-1.87.23-.31.47-.7.78-.47"/>
    <path class="st3" d="M26.57,122.5c.39.31.08.7-.08,1.02-.62,1.02-1.48,1.72-2.42,2.42-.16.08-.23.23-.39.31.31.31.55.08.78,0,1.33-.78,2.73-1.56,3.75-2.81.16-.16.23-.39.47-.23.31.16.16.39.08.62-.16.39-.47.62-.78.86-2.89,2.11-5.78,4.22-8.67,6.25-.47.31-.86.86-1.41,1.09l-.08.08s0-.08.08-.08h.08l-.08-.08v-.16c-.08-1.95.39-3.59,2.19-4.69,1.09-.7,2.11-1.64,3.28-2.26.94-.47,1.64-1.17,2.42-1.87.23-.31.47-.7.78-.47Z"/>
    <path class="st4" d="M16.81,133.12l.7-1.33v-.47c0-2.11.78-3.59,2.42-4.61.47-.31.86-.62,1.25-.94.62-.47,1.33-1.02,2.03-1.41.78-.39,1.41-.94,2.03-1.56l.31-.31s.08-.08.08-.16c.16-.16.62-.62,1.17-.23.23.16.31.39.31.62,0,.31-.16.55-.31.78-.23.39-.55.78-.86,1.09.7-.47,1.33-1.02,1.87-1.64.16-.16.47-.55.94-.31.23.16.39.31.39.62,0,.16-.08.31-.08.39-.16.55-.55.86-.86,1.09l-1.8,1.33c-2.34,1.64-4.61,3.36-6.95,5-.16.16-.31.23-.47.39-.31.31-.62.55-1.02.7h0l-1.17.94ZM26.41,122.89c-.08,0-.08.08-.16.16-.08.08-.08.16-.16.16l-.31.23c-.7.62-1.41,1.25-2.19,1.64-.7.31-1.33.86-1.95,1.33-.39.31-.86.62-1.33.94-1.41.86-2.03,2.11-2.03,3.98.08-.08.23-.16.31-.31.16-.16.31-.31.55-.47,1.95-1.41,3.98-2.81,5.94-4.3h-.08l-.39.23c-.16.16-.7.47-1.17-.08l-.31-.31.47-.31c.08-.08.16-.16.23-.23l.16-.08c.86-.7,1.64-1.33,2.19-2.19.08-.16.23-.31.23-.39h0"/>
    <path class="st3" d="M16.81,133.12l.7-1.33v-.47c0-2.11.78-3.59,2.42-4.61.47-.31.86-.62,1.25-.94.62-.47,1.33-1.02,2.03-1.41.78-.39,1.41-.94,2.03-1.56l.31-.31s.08-.08.08-.16c.16-.16.62-.62,1.17-.23.23.16.31.39.31.62,0,.31-.16.55-.31.78-.23.39-.55.78-.86,1.09.7-.47,1.33-1.02,1.87-1.64.16-.16.47-.55.94-.31.23.16.39.31.39.62,0,.16-.08.31-.08.39-.16.55-.55.86-.86,1.09l-1.8,1.33c-2.34,1.64-4.61,3.36-6.95,5-.16.16-.31.23-.47.39-.31.31-.62.55-1.02.7h0l-1.17.94ZM26.41,122.89c-.08,0-.08.08-.16.16-.08.08-.08.16-.16.16l-.31.23c-.7.62-1.41,1.25-2.19,1.64-.7.31-1.33.86-1.95,1.33-.39.31-.86.62-1.33.94-1.41.86-2.03,2.11-2.03,3.98.08-.08.23-.16.31-.31.16-.16.31-.31.55-.47,1.95-1.41,3.98-2.81,5.94-4.3h-.08l-.39.23c-.16.16-.7.47-1.17-.08l-.31-.31.47-.31c.08-.08.16-.16.23-.23l.16-.08c.86-.7,1.64-1.33,2.19-2.19.08-.16.23-.31.23-.39h0Z"/>
    <path class="st4" d="M24.93,122.5c-1.95,1.33-3.98,2.58-5.94,3.9q-.08-.08-.16-.16c.31-.94.62-1.95.94-2.89.08-.31.39-.39.62-.47,1.41-.31,2.73-.62,3.98-1.33.39-.23.78-.23,1.02.16.23.47-.23.62-.47.78"/>
    <path class="st3" d="M24.93,122.5c-1.95,1.33-3.98,2.58-5.94,3.9q-.08-.08-.16-.16c.31-.94.62-1.95.94-2.89.08-.31.39-.39.62-.47,1.41-.31,2.73-.62,3.98-1.33.39-.23.78-.23,1.02.16.23.47-.23.62-.47.78Z"/>
    <path class="st4" d="M18.37,126.48v-.31l.23-.78c.23-.7.47-1.41.7-2.11.16-.55.62-.62.94-.7,1.25-.31,2.66-.62,3.83-1.33.62-.31,1.25-.23,1.56.31.08.16.16.31.16.47,0,.39-.39.62-.62.78l-.08.08c-1.48,1.02-3.05,1.95-4.53,2.97l-1.64,1.09-.55-.47ZM25.09,121.95c-.16-.16-.39-.08-.55,0-1.33.7-2.81,1.09-4.06,1.41q-.31.08-.39.16c-.23.7-.47,1.41-.7,2.11v.08l.78-.47c1.48-1.02,3.05-1.95,4.53-2.97.08,0,.08-.08.16-.08.08-.08.16-.16.23-.23"/>
    <path class="st3" d="M18.37,126.48v-.31l.23-.78c.23-.7.47-1.41.7-2.11.16-.55.62-.62.94-.7,1.25-.31,2.66-.62,3.83-1.33.62-.31,1.25-.23,1.56.31.08.16.16.31.16.47,0,.39-.39.62-.62.78l-.08.08c-1.48,1.02-3.05,1.95-4.53,2.97l-1.64,1.09-.55-.47ZM25.09,121.95c-.16-.16-.39-.08-.55,0-1.33.7-2.81,1.09-4.06,1.41q-.31.08-.39.16c-.23.7-.47,1.41-.7,2.11v.08l.78-.47c1.48-1.02,3.05-1.95,4.53-2.97.08,0,.08-.08.16-.08.08-.08.16-.16.23-.23Z"/>
    <path class="st6" d="M38.36,118.82c-1.87,2.03-4.22,3.05-6.95,3.12-2.03,0-3.9-.39-5.78-1.25-.62-.23-1.02-.23-1.64,0-2.5,1.02-5.15,1.48-7.81.78-1.64-.47-3.05-1.25-4.22-2.5-.16-.16-.62-.39-.23-.7.31-.23.55-.7,1.17-.39,1.33.86,2.89,1.33,4.37,1.64,2.66.47,5.15.08,7.5-1.17.47-.31.86-.23,1.33,0,3.05,1.48,6.17,2.03,9.53.94.7-.23,1.48-.55,2.11-1.02.23-.16.47-.31.7,0,.31.23.08.39-.08.55"/>
    <path class="st6" d="M37.58,115.86c0-1.41,1.02-2.5,2.34-2.58s2.5,1.09,2.5,2.5c0,1.33-1.09,2.5-2.42,2.5-1.33,0-2.34-1.02-2.42-2.42"/>
    <path class="st6" d="M36.8,116.95c.23-.08.39-.39.62,0s0,.47-.31.62c-1.41.86-2.97,1.25-4.69,1.33-2.26,0-4.45-.55-6.4-1.64-.39-.23-.7-.23-1.09,0-3.51,2.19-7.11,1.95-10.78.31-.31-.16-.62-.23-.86-.47-.16-.08-.62.31-.39-.31.16-.39.23-.47.7-.31,1.02.47,2.19.7,3.28.86,2.89.31,5.54-.47,7.81-2.19.55-.39.78-.39,1.33,0,2.26,1.48,4.69,2.5,7.5,2.42,1.17.08,2.26-.16,3.28-.62"/>
    <path class="st6" d="M39.69,116.4c-.47-.86-.16-1.56.86-1.72.23,0,.47.08.7-.23-.86-.62-2.03-.47-2.58.31-.47.7-.31,1.48.47,2.03.23.16.47.39.7.16.23-.08-.08-.31-.16-.55"/>
    <path class="st6" d="M25.48,148.66c2.5,0,4.61,1.95,4.61,4.37s-2.03,4.37-4.61,4.37-4.61-1.95-4.61-4.37c.08-2.42,2.11-4.37,4.61-4.37"/>
    <path class="st6" d="M25.63,157.72c1.41,0,2.58,1.09,2.58,2.5s-1.17,2.5-2.58,2.5-2.58-1.09-2.58-2.5,1.17-2.5,2.58-2.5"/>
    <path class="st1" d="M30.79,141.86q-.08,0,0,0-.08,0,0,0ZM10.17,116.4c-.39-.78-.08-1.48.78-1.64.23-.08.55.08.78-.16-.86-.62-2.03-.47-2.58.31-.47.62-.31,1.41.39,1.95.23.16.55.47.78.31.23-.23,0-.55-.16-.78M31.88,116.4s2.97.7,4.92-.7c.08-.86,1.17-4.69,4.61-3.36,2.5,1.17,3.2,4.22.55,6.4-1.64.47-2.5.16-2.5.16,0,0-1.8,3.83-8.67,3.75,2.5,5.62,2.89,14.53,1.48,19.76-1.41,5.15-2.97,7.11-2.97,7.11,0,0,2.26,2.03.86,5.78,0,0-.7,1.33-2.58,2.26v.16s2.34,2.11.47,4.37c-1.87,2.34-5.23.39-5.39-1.56-.16-1.95,1.25-2.73,1.33-2.73s0-.39,0-.39c0,0-3.12-.78-3.28-3.83-.16-3.05.94-3.12.94-3.12,0,0-4.37-4.3-4.76-14.99.23-9.37,1.95-12.73,1.95-12.73,0,0-4.76,0-7.5-3.44-3.51,0-4.61-2.73-3.83-4.69.7-1.95,3.12-2.81,4.37-2.19s2.19,1.64,2.34,3.12c2.11.86,4.22,1.09,5.08.86,0-7.58,1.56-88.17,1.56-88.17l5.94-10.62,5.47,10.78-.39,88.01ZM25.79,159.59c-.55-.39-1.02-.23-1.33.23-.39.55-.16,1.09.55,1.41q-.23-1.25.78-1.64M27.51,21.05c-.23.16-.16.39-.16.55-.08,3.2-.08,6.4-.08,9.61-.08,7.97-.23,15.93-.31,23.9-.08,7.58-.16,15.07-.23,22.65-.08,5.78-.16,11.56-.23,17.26-.08,6.01-.16,12.03-.23,18.04,0,.39,0,.7.39.86,1.17.7,2.34,1.33,3.51,2.03.08.16.23.16.39.08h.16c0-1.33.08-2.66.08-3.98.08-7.73.16-15.38.23-23.12.08-8.12.16-16.24.23-24.37.08-5.94.16-11.95.16-17.88.08-4.22,0-8.43.16-12.65.08-2.73,0-5.39-1.48-7.81-.62-1.02-1.02-2.11-1.48-3.12-.47-.7-.78-1.33-1.09-2.03M20.01,116.01c1.64-.23,3.2-.78,4.53-1.87.31-.23.47-.55.47-.94,0-1.95.08-3.83.08-5.78.08-5.15.23-10.31.31-15.38.16-6.72.23-13.43.31-20.07.08-4.69.16-9.37.23-14.06.16-7.5.23-15.07.39-22.57.08-2.42.16-4.84.08-7.26,0-2.34-.08-4.61-.16-6.87,0,0-.08.08-.16.23-1.33,2.34-2.73,4.76-4.06,7.11-.23.47-.31.94-.31,1.41,0,1.17-.08,2.42-.08,3.59-.16,6.95-.31,14.06-.47,21.09-.08,4.92-.16,9.84-.31,14.84-.16,5.94-.23,11.79-.39,17.73-.16,8.12-.31,16.24-.47,24.37,0,1.33-.08,2.66-.16,3.98.08.16-.08.39.16.47M10.79,118.43c1.25-.08,2.34-1.25,2.34-2.58s-1.17-2.5-2.5-2.42c-1.33.08-2.42,1.25-2.34,2.58,0,1.33,1.17,2.5,2.5,2.42M28.29,154.2c0-.08,0-.23-.08-.31-.16-.23-.39-.47-.7-.39-.47.08-.08.39-.08.62.08.55-.23.86-.7,1.02-.16.08-.31,0-.31.23,0,.16.16.23.39.31.62,0,1.48-.7,1.48-1.48M24.93,153.19c-.23-.62.16-.86.55-1.09.16-.08.47,0,.39-.31-.08-.23-.31-.23-.55-.23-.55,0-1.09.39-1.25.86-.08.39-.08.78.23,1.09.16.16.39.23.55.16.23-.16.16-.31.08-.47M23.99,150.53c-1.09.47-1.48,1.33-1.56,2.42-.08,1.02.16,1.87,1.17,2.58.08-.47-.08-.78-.23-1.09-.31-.94-.31-1.8.31-2.58s1.41-.94,2.34-.86c.23,0,.55.16.62-.23,0-.31-.23-.39-.55-.47-.7-.16-1.41-.08-2.11.23M30.24,144.36c-1.56,1.09-3.28,1.95-4.84,3.12-.39.31-.23.47.16.55.78.16,1.48.23,2.26.55.55.23,1.17-.08,1.33-.62.08-.31,0-.47-.39-.31-.31.16-.7.39-1.17.08.7-.47,1.41-1.02,2.03-1.41s.78-1.02.94-1.64c.08-.23,0-.55-.31-.31M27.98,142.96c1.33-1.48,3.05-2.66,3.83-4.76-.47.08-.7.39-.94.55-.86.62-1.64,1.33-2.58,1.87-2.42,1.56-4.61,3.28-6.48,5.39-.86.94-1.09,1.64-.39,2.73.39.62.55.7,1.09.16.7-.62,1.33-1.33,2.03-1.95,1.56-1.33,3.44-2.34,5-3.75.47-.39,1.09-.7,1.17-1.41h0q0-.08.08-.16l-.08.08c-.47.23-.86.55-1.33.78q-.86.62-1.41.47M30.87,134.52c-1.48,1.25-3.05,2.34-4.69,3.36-2.11,1.33-4.06,2.73-5.86,4.45-1.09,1.02-1.33,2.03-.55,3.36.31.55.47.62.86.16.62-.7,1.25-1.41,1.87-2.11,1.95-1.95,4.45-3.28,6.64-5,.86-.62,1.8-1.09,2.26-2.19q-.08-.08-.16-.16c-1.25.78-2.26,1.87-3.83,2.34,1.33-1.41,2.97-2.58,3.75-4.45-.16,0-.23.16-.31.23M26.34,134.37c1.72-1.72,3.9-3.12,5-5.54-.23.08-.39.08-.39.16-1.33,1.33-2.81,2.42-4.45,3.44-2.73,1.64-5.54,3.2-7.73,5.62-.39.47-.62.86-.55,1.48s.16,1.25.31,1.87c.08.23,0,.62.31.78s.47-.23.7-.39c2.19-2.19,4.76-3.9,7.42-5.54,1.56-.94,2.81-2.19,4.22-3.36.16-.16.31-.31.39-.47.16-.23.16-.55-.08-.7-.16-.16-.31.08-.47.23-1.17.86-2.26,1.8-3.51,2.5-.47.08-.78.23-1.17-.08M30.01,124.84c-.39.23-.7.47-1.09.7-1.25.86-2.42,1.8-3.67,2.66-2.26,1.48-4.45,2.97-6.56,4.69-.47.39-.78.78-.78,1.41,0,.7,0,1.48.08,2.19,0,.47.16.55.55.23,3.12-2.66,6.72-4.69,9.92-7.26.86-.7,2.03-1.25,2.26-2.5l-.08-.08.08.08c.08-.08.16-.08,0-.16l-.08.08c-.23,0-.39.23-.55.39-.94.78-1.87,1.64-2.97,2.19-.39.16-.7.39-1.17.23.08-.31.31-.47.55-.62,1.02-.94,2.03-1.87,3.05-2.73.39-.31.62-.7.78-1.17.16-.31-.08-.47-.31-.31M26.1,122.89c-.78.7-1.48,1.41-2.42,1.87-1.25.62-2.19,1.56-3.28,2.26-1.8,1.17-2.26,2.73-2.19,4.69v.23h0s0,.08-.08.08l.08-.08c.55-.23.94-.78,1.41-1.09,2.89-2.11,5.78-4.14,8.67-6.25.31-.23.7-.47.78-.86.08-.23.16-.47-.08-.62-.23-.08-.39.08-.47.23-1.02,1.25-2.42,1.95-3.75,2.81-.23.16-.47.39-.78,0,.16-.08.31-.23.39-.31.94-.7,1.8-1.41,2.42-2.42.16-.31.47-.7.08-1.02-.31-.16-.55.23-.78.47M25.63,121.79c-.23-.31-.62-.31-1.02-.16-1.25.7-2.58,1.02-3.98,1.33-.31.08-.55.16-.62.47-.31.94-.62,1.95-.94,2.89q.08.08.16.16c1.95-1.33,3.98-2.58,5.94-3.9.31-.23.78-.39.47-.78M38.75,118.2c-.23-.31-.47-.16-.7,0-.62.47-1.33.78-2.11,1.02-3.28,1.09-6.48.55-9.53-.94-.47-.23-.86-.23-1.33,0-2.34,1.33-4.84,1.72-7.5,1.17-1.56-.31-3.05-.78-4.37-1.64-.62-.39-.86.16-1.17.39-.39.31.08.55.23.7,1.09,1.25,2.58,2.11,4.22,2.5,2.73.7,5.31.23,7.81-.78.55-.23,1.02-.23,1.64,0,1.8.86,3.75,1.25,5.78,1.25,2.73-.16,5.08-1.09,6.95-3.12.16-.08.39-.23.08-.55M40.31,118.28c1.33,0,2.42-1.17,2.42-2.5,0-1.41-1.17-2.5-2.5-2.5-1.33.08-2.34,1.17-2.34,2.58,0,1.41,1.09,2.42,2.42,2.42M33.83,117.73c-2.81.08-5.23-.94-7.5-2.42-.47-.31-.78-.39-1.33,0-2.26,1.72-4.92,2.5-7.81,2.19-1.17-.16-2.26-.39-3.28-.86-.39-.16-.55-.08-.7.31-.23.62.31.16.39.31.23.16.55.31.86.47,3.67,1.64,7.26,1.8,10.78-.31.39-.23.7-.23,1.09,0,2.03,1.09,4.14,1.64,6.4,1.64,1.64,0,3.2-.47,4.69-1.33.23-.16.47-.31.31-.62-.23-.39-.47-.16-.62,0-1.02.31-2.11.55-3.28.62M40,116.4c-.47-.86-.16-1.56.86-1.72.23,0,.47.08.7-.23-.86-.62-2.03-.47-2.58.31-.47.7-.31,1.48.47,2.03.23.16.47.39.7.16.23-.08-.08-.31-.16-.55M23.45,160.22c0,1.17,1.02,2.11,2.19,2.11s2.19-.94,2.19-2.11-1.02-2.11-2.19-2.11c-1.25,0-2.19.94-2.19,2.11M21.42,153.11c0,2.26,1.87,4.06,4.14,4.06s4.14-1.8,4.14-4.06-1.87-4.06-4.14-4.06-4.14,1.87-4.14,4.06"/>
    <path class="st4" d="M76.55,38.07h0Z"/>
    <path class="st3" d="M76.55,38.07h0Z"/>
    <polygon class="st4" points="76.86 37.84 76.32 38.39 76.24 38.31 76.79 37.76 76.86 37.84"/>
    <polygon class="st3" points="76.86 37.84 76.32 38.39 76.24 38.31 76.79 37.76 76.86 37.84"/>
    <path class="st6" d="M97.09,63.53c.39.78.08,1.48-.78,1.64-.23.08-.55-.08-.78.16.86.62,2.03.47,2.58-.31.47-.62.31-1.41-.39-1.95-.23-.16-.55-.47-.78-.31-.23.23.08.55.16.78"/>
    <path class="st6" d="M82.33,18.71c.7.39.94.86.55,1.41-.31.47-.78.62-1.33.23q.94-.39.78-1.64"/>
    <path class="st0" d="M78.89,156.86c-.47-1.09-.86-2.19-1.48-3.12-1.48-2.42-1.56-5.08-1.48-7.81.08-4.22.08-8.43.16-12.65.08-5.94.16-11.95.16-17.88.08-8.12.16-16.24.23-24.37.08-7.65.16-15.38.23-23.12,0-1.33.08-2.66.08-3.98h.16c.16,0,.23,0,.39.08,1.17.7,2.34,1.33,3.51,2.03.31.23.39.55.39.86-.08,6.01-.16,12.03-.23,18.04-.08,5.78-.16,11.56-.23,17.26-.08,7.58-.16,15.07-.23,22.65-.08,7.97-.23,15.93-.31,23.9-.08,3.2-.08,6.4-.08,9.61,0,.16.08.31-.16.55-.47-.62-.78-1.33-1.09-2.03"/>
    <path class="st0" d="M81.55,66.81h0c-.08,3.51-.08,6.95-.16,10.31l-.08,7.81c0,2.81-.08,5.7-.08,8.51-.08,2.89-.08,5.86-.08,8.75-.08,3.2-.08,6.4-.08,9.61-.08,4.37-.08,8.67-.16,13.04-.08,4.61-.16,9.29-.16,13.9l-.16,10c0,1.8-.08,3.51-.08,5.31,0,1.41,0,2.89-.08,4.3v.16c0,.23-.08.47-.31.62l-.39.31-1.17-2.5c-.16-.31-.31-.7-.47-1.02-.31-.7-.62-1.48-1.02-2.11-1.33-2.26-1.56-4.61-1.56-6.79v-1.25c.08-2.89.08-5.78.08-8.67v-4.06l.08-7.97c0-3.28.08-6.64.08-9.92l.23-24.37c.08-7.65.16-15.38.23-23.12,0-.94,0-1.8.08-2.73v-1.56l.47-.08c.31-.08.55.08.7.16l3.44,1.95c.55.55.62,1.02.62,1.41M79.6,157.56v-3.44c0-1.8,0-3.51.08-5.31l.16-10c.08-4.61.16-9.29.16-13.9.08-4.37.08-8.67.16-13.04,0-3.2.08-6.4.08-9.61,0-2.89.08-5.86.08-8.75s.08-5.7.08-8.51l.08-7.81c.08-3.44.08-6.87.16-10.31l.39-.08h-.39c0-.31-.08-.47-.16-.55l-3.44-1.95v.78c0,.94-.08,1.8-.08,2.73-.08,7.73-.16,15.38-.23,23.12l-.23,24.37c0,3.28-.08,6.64-.08,9.92l-.08,7.97v4.06c0,2.81,0,5.78-.08,8.67v1.17c0,2.11.16,4.3,1.41,6.4.39.7.78,1.48,1.09,2.19.16.31.31.7.47,1.02l.39.86Z"/>
    <path class="st0" d="M87.41,64.47c-.08,1.33-.16,2.66-.16,3.98-.16,8.12-.31,16.24-.47,24.37-.16,5.94-.23,11.79-.39,17.73-.08,4.92-.23,9.84-.31,14.84-.16,7.03-.31,14.14-.47,21.24,0,1.17-.08,2.34-.08,3.59,0,.47-.08.94-.31,1.41-1.33,2.34-2.73,4.76-4.06,7.11-.08.08-.16.23-.16.23-.08-2.26-.16-4.61-.16-6.87,0-2.42.08-4.84.16-7.26.16-7.5.23-15.07.39-22.57.08-4.69.16-9.37.23-14.06.08-6.72.23-13.43.31-20.07.08-5.15.16-10.31.31-15.38,0-1.95.08-3.83.08-5.78,0-.39.16-.7.47-.94,1.33-1.09,2.81-1.64,4.53-1.87.16-.16.08.08.08.31"/>
    <path class="st0" d="M87.8,64.39l-.08,1.33c0,.94-.08,1.8-.08,2.73-.08,3.75-.16,7.5-.23,11.25-.08,4.37-.16,8.75-.23,13.04-.08,3.44-.16,6.79-.23,10.23-.08,2.5-.08,5-.16,7.5-.08,2.58-.08,5.15-.16,7.73-.08,2.34-.08,4.76-.16,7.11l-.08,3.28c-.16,6.01-.23,11.95-.39,17.96v.94c0,.78-.08,1.56-.08,2.42v.23h0c0,.62-.16,1.17-.39,1.56-.78,1.41-1.64,2.89-2.42,4.3l-1.64,2.81c-.23.47-.47.39-.62.39l-.31-.08v-.31c0-.7-.08-1.41-.08-2.11-.08-1.56-.08-3.2-.08-4.84v-.39c0-1.56,0-3.12.08-4.61,0-.78,0-1.48.08-2.26l.08-6.33c.08-5.39.16-10.86.31-16.24.08-2.5.08-4.92.08-7.42,0-2.19.08-4.45.08-6.64.08-6.72.23-13.43.31-20.07.08-4.14.16-8.2.23-12.34l.08-5.08c0-1.25.08-2.5.08-3.83,0-.47.16-.86.62-1.25,1.25-1.09,2.81-1.72,4.69-2.03h.16l.16.08c.31.16.31.55.31.62l.08.31h0ZM85.22,149.83c0-.78,0-1.64.08-2.42v-.94c.16-6.01.31-11.95.39-17.96l.08-3.28c.08-2.34.08-4.76.16-7.11.08-2.58.08-5.15.16-7.73.08-2.5.08-5,.16-7.5.08-3.44.16-6.79.23-10.23.08-4.37.16-8.75.23-13.04.08-3.75.16-7.5.23-11.25,0-.94.08-1.8.08-2.73l.08-1.25v-.16c-1.64.31-2.97.86-3.98,1.8-.23.23-.31.39-.31.7,0,1.25-.08,2.58-.08,3.83l-.08,5.08c-.08,4.14-.16,8.2-.23,12.34-.16,6.72-.23,13.43-.31,20.07,0,2.19-.08,4.45-.08,6.64,0,2.5-.08,4.92-.08,7.42-.08,5.39-.16,10.86-.31,16.24l-.08,6.33c0,.78,0,1.48-.08,2.26,0,1.48-.08,3.05-.08,4.61v.39c0,1.64.08,3.2.08,4.84v.78l1.09-1.87c.78-1.41,1.64-2.89,2.42-4.3.16-.31.31-.7.31-1.17v-.39h-.08Z"/>
    <path class="st6" d="M99.04,64c0,1.33-1.09,2.5-2.34,2.58-1.25.08-2.42-1.09-2.5-2.42,0-1.33,1.02-2.58,2.34-2.58,1.33-.08,2.5,1.02,2.5,2.42"/>
    <path class="st6" d="M80.53,24.33c.16,0,.31.08.39.31,0,.23-.16.16-.31.23-.47.16-.78.47-.7,1.02,0,.23.39.47-.08.62-.31.08-.55-.16-.7-.39-.08-.08-.08-.23-.08-.31-.08-.86.78-1.56,1.48-1.48"/>
    <path class="st6" d="M82.41,26.36c.16-.08.39,0,.55.16.39.31.39.7.23,1.09-.08.47-.7.86-1.25.86-.23,0-.47,0-.55-.23-.08-.31.23-.23.39-.31.47-.23.78-.55.55-1.09,0-.23-.08-.39.08-.47"/>
    <path class="st6" d="M81.16,29.64c-.23-.08-.55-.16-.55-.47,0-.39.39-.23.62-.23.94.08,1.8-.08,2.34-.86.62-.78.62-1.64.31-2.58-.08-.31-.31-.62-.23-1.09,1.02.62,1.25,1.56,1.17,2.58-.08,1.09-.47,1.95-1.56,2.42-.62.31-1.41.39-2.11.23"/>
    <path class="st4" d="M76.79,35.26c.16-.62.31-1.25.94-1.64.7-.39,1.33-.86,2.03-1.41-.47-.31-.86-.08-1.17.08-.39.16-.47,0-.39-.31.16-.62.7-.86,1.33-.62.7.31,1.48.39,2.26.55.47.08.62.23.16.55-1.48,1.17-3.2,2.03-4.84,3.12-.39.23-.39-.08-.31-.31"/>
    <path class="st3" d="M76.79,35.26c.16-.62.31-1.25.94-1.64.7-.39,1.33-.86,2.03-1.41-.47-.31-.86-.08-1.17.08-.39.16-.47,0-.39-.31.16-.62.7-.86,1.33-.62.7.31,1.48.39,2.26.55.47.08.62.23.16.55-1.48,1.17-3.2,2.03-4.84,3.12-.39.23-.39-.08-.31-.31Z"/>
    <path class="st4" d="M82.49,32.22c0,.31-.23.47-.39.62-.94.78-1.95,1.33-2.97,1.95-.62.39-1.25.78-1.87,1.17-.31.23-.55.16-.62.08-.23-.16-.39-.47-.23-.86l.08-.16c.16-.62.31-1.25,1.09-1.72.23-.16.55-.31.78-.55-.08,0-.23,0-.31-.08s-.31-.31-.23-.78c.08-.39.31-.7.7-.94.31-.16.78-.16,1.17,0,.55.23,1.09.31,1.72.47l.39.08c.47.16.7.39.7.7M77.25,35.03c.55-.31,1.02-.62,1.56-.94.94-.55,1.87-1.17,2.81-1.8l-.31-.08c-.39-.08-.78-.16-1.17-.23l.39.23-.47.31c-.23.16-.47.31-.62.47-.47.31-.94.62-1.41.94-.55.23-.7.62-.78,1.09M78.66,31.9c.16-.08.39-.16.62-.16-.16-.08-.31-.08-.47,0-.08,0-.16.08-.16.16"/>
    <path class="st3" d="M82.49,32.22c0,.31-.23.47-.39.62-.94.78-1.95,1.33-2.97,1.95-.62.39-1.25.78-1.87,1.17-.31.23-.55.16-.62.08-.23-.16-.39-.47-.23-.86l.08-.16c.16-.62.31-1.25,1.09-1.72.23-.16.55-.31.78-.55-.08,0-.23,0-.31-.08s-.31-.31-.23-.78c.08-.39.31-.7.7-.94.31-.16.78-.16,1.17,0,.55.23,1.09.31,1.72.47l.39.08c.47.16.7.39.7.7ZM77.25,35.03c.55-.31,1.02-.62,1.56-.94.94-.55,1.87-1.17,2.81-1.8l-.31-.08c-.39-.08-.78-.16-1.17-.23l.39.23-.47.31c-.23.16-.47.31-.62.47-.47.31-.94.62-1.41.94-.55.23-.7.62-.78,1.09ZM78.66,31.9c.16-.08.39-.16.62-.16-.16-.08-.31-.08-.47,0-.08,0-.16.08-.16.16Z"/>
    <path class="st4" d="M77.96,37.37c-.47.23-.86.55-1.33.78l-.08.08q0-.08.08-.16h0c.08-.7.7-1.02,1.17-1.41,1.56-1.41,3.44-2.34,5-3.75.7-.62,1.41-1.25,2.03-1.95.55-.55.7-.47,1.09.16.7,1.09.47,1.8-.39,2.73-1.95,2.11-4.14,3.83-6.48,5.39-.86.55-1.72,1.25-2.58,1.87-.23.16-.47.47-.94.55.78-2.03,2.42-3.28,3.83-4.76q-.62-.08-1.41.47"/>
    <path class="st3" d="M77.96,37.37c-.47.23-.86.55-1.33.78l-.08.08q0-.08.08-.16h0c.08-.7.7-1.02,1.17-1.41,1.56-1.41,3.44-2.34,5-3.75.7-.62,1.41-1.25,2.03-1.95.55-.55.7-.47,1.09.16.7,1.09.47,1.8-.39,2.73-1.95,2.11-4.14,3.83-6.48,5.39-.86.55-1.72,1.25-2.58,1.87-.23.16-.47.47-.94.55.78-2.03,2.42-3.28,3.83-4.76q-.62-.08-1.41.47Z"/>
    <path class="st4" d="M86.63,32.29c0,.78-.47,1.41-.86,1.87-1.8,1.95-3.98,3.75-6.56,5.47-.55.39-1.17.78-1.72,1.25-.31.23-.55.39-.86.62q-.08.08-.16.16c-.23.16-.47.39-.94.55l-.7.16.23-.62c.62-1.64,1.72-2.73,2.81-3.83l.08-.08-2.11,1.17.31-1.09c.08-.62.55-1.02.94-1.33.08-.08.23-.16.31-.23.86-.78,1.8-1.41,2.66-2.03.78-.55,1.56-1.09,2.34-1.72.55-.47,1.02-.94,1.48-1.41l.47-.47c.31-.31.55-.55.94-.47.39,0,.62.39.78.7.47.47.55.86.55,1.33M76.47,40.65c.16-.16.31-.23.55-.39.55-.47,1.17-.86,1.72-1.25,2.58-1.64,4.69-3.36,6.4-5.31.86-.94.94-1.41.39-2.26-.08-.08-.16-.23-.23-.31-.08,0-.16.08-.31.23l-.47.47c-.47.47-1.02,1.02-1.56,1.48-.78.62-1.56,1.25-2.42,1.8-.78.55-1.64,1.09-2.34,1.72.47-.23.7-.23,1.17-.08l.62.16-.39.47c-.31.39-.7.7-1.09,1.09-.7.62-1.48,1.33-2.03,2.19"/>
    <path class="st3" d="M86.63,32.29c0,.78-.47,1.41-.86,1.87-1.8,1.95-3.98,3.75-6.56,5.47-.55.39-1.17.78-1.72,1.25-.31.23-.55.39-.86.62q-.08.08-.16.16c-.23.16-.47.39-.94.55l-.7.16.23-.62c.62-1.64,1.72-2.73,2.81-3.83l.08-.08-2.11,1.17.31-1.09c.08-.62.55-1.02.94-1.33.08-.08.23-.16.31-.23.86-.78,1.8-1.41,2.66-2.03.78-.55,1.56-1.09,2.34-1.72.55-.47,1.02-.94,1.48-1.41l.47-.47c.31-.31.55-.55.94-.47.39,0,.62.39.78.7.47.47.55.86.55,1.33ZM76.47,40.65c.16-.16.31-.23.55-.39.55-.47,1.17-.86,1.72-1.25,2.58-1.64,4.69-3.36,6.4-5.31.86-.94.94-1.41.39-2.26-.08-.08-.16-.23-.23-.31-.08,0-.16.08-.31.23l-.47.47c-.47.47-1.02,1.02-1.56,1.48-.78.62-1.56,1.25-2.42,1.8-.78.55-1.64,1.09-2.34,1.72.47-.23.7-.23,1.17-.08l.62.16-.39.47c-.31.39-.7.7-1.09,1.09-.7.62-1.48,1.33-2.03,2.19Z"/>
    <path class="st4" d="M76,45.57c.78-1.87,2.42-3.05,3.75-4.45-1.48.39-2.58,1.56-3.83,2.34q-.08-.08-.16-.16c.47-1.02,1.41-1.56,2.26-2.19,2.19-1.72,4.69-3.05,6.64-5,.7-.7,1.33-1.33,1.87-2.11.39-.55.55-.39.86.16.86,1.33.55,2.26-.55,3.36-1.8,1.72-3.75,3.2-5.86,4.45-1.64,1.02-3.2,2.11-4.69,3.36,0,.16-.08.31-.31.23"/>
    <path class="st3" d="M76,45.57c.78-1.87,2.42-3.05,3.75-4.45-1.48.39-2.58,1.56-3.83,2.34q-.08-.08-.16-.16c.47-1.02,1.41-1.56,2.26-2.19,2.19-1.72,4.69-3.05,6.64-5,.7-.7,1.33-1.33,1.87-2.11.39-.55.55-.39.86.16.86,1.33.55,2.26-.55,3.36-1.8,1.72-3.75,3.2-5.86,4.45-1.64,1.02-3.2,2.11-4.69,3.36,0,.16-.08.31-.31.23Z"/>
    <path class="st4" d="M88.27,35.73c0,.7-.39,1.41-1.09,2.19-1.64,1.56-3.51,3.05-5.86,4.53-1.72,1.09-3.2,2.11-4.61,3.28-.16.16-.39.31-.78.23l-.39-.08.16-.39c.39-1.02,1.09-1.87,1.8-2.66-.08,0-.08.08-.16.08-.39.31-.78.62-1.25.86l-.23.16-.55-.47.08-.23c.39-.94,1.09-1.41,1.8-1.95.16-.16.39-.23.55-.39.78-.62,1.64-1.17,2.42-1.72,1.41-.94,2.89-1.95,4.14-3.2.78-.78,1.41-1.41,1.87-2.03.23-.23.47-.47.78-.47.39,0,.55.31.78.62.39.55.55,1.09.55,1.64M77.1,44.4c1.17-.94,2.42-1.8,3.75-2.66,2.26-1.41,4.14-2.89,5.78-4.45,1.02-1.02,1.17-1.8.47-2.89,0-.08-.08-.16-.16-.23l-.08.08c-.55.62-1.17,1.33-1.95,2.11-1.33,1.25-2.81,2.34-4.3,3.28-.62.39-1.25.86-1.8,1.25.23-.08.47-.23.78-.31l1.25-.39-.86.94c-.39.47-.78.86-1.25,1.25-.55.86-1.17,1.41-1.64,2.03"/>
    <path class="st3" d="M88.27,35.73c0,.7-.39,1.41-1.09,2.19-1.64,1.56-3.51,3.05-5.86,4.53-1.72,1.09-3.2,2.11-4.61,3.28-.16.16-.39.31-.78.23l-.39-.08.16-.39c.39-1.02,1.09-1.87,1.8-2.66-.08,0-.08.08-.16.08-.39.31-.78.62-1.25.86l-.23.16-.55-.47.08-.23c.39-.94,1.09-1.41,1.8-1.95.16-.16.39-.23.55-.39.78-.62,1.64-1.17,2.42-1.72,1.41-.94,2.89-1.95,4.14-3.2.78-.78,1.41-1.41,1.87-2.03.23-.23.47-.47.78-.47.39,0,.55.31.78.62.39.55.55,1.09.55,1.64ZM77.1,44.4c1.17-.94,2.42-1.8,3.75-2.66,2.26-1.41,4.14-2.89,5.78-4.45,1.02-1.02,1.17-1.8.47-2.89,0-.08-.08-.16-.16-.23l-.08.08c-.55.62-1.17,1.33-1.95,2.11-1.33,1.25-2.81,2.34-4.3,3.28-.62.39-1.25.86-1.8,1.25.23-.08.47-.23.78-.31l1.25-.39-.86.94c-.39.47-.78.86-1.25,1.25-.55.86-1.17,1.41-1.64,2.03Z"/>
    <path class="st4" d="M79.91,45.65c-1.25.7-2.34,1.64-3.51,2.5-.16.08-.31.39-.47.23-.23-.16-.16-.47-.08-.7.08-.16.23-.31.39-.47,1.33-1.17,2.66-2.42,4.22-3.36,2.66-1.64,5.15-3.36,7.42-5.54.16-.16.31-.55.7-.39.31.16.23.47.31.78.16.62.16,1.25.31,1.87.08.55-.08,1.02-.55,1.48-2.19,2.42-5,3.98-7.73,5.62-1.64,1.02-3.12,2.11-4.45,3.44-.08.08-.16.08-.39.16,1.09-2.5,3.28-3.83,5-5.54-.55-.47-.86-.31-1.17-.08"/>
    <path class="st3" d="M79.91,45.65c-1.25.7-2.34,1.64-3.51,2.5-.16.08-.31.39-.47.23-.23-.16-.16-.47-.08-.7.08-.16.23-.31.39-.47,1.33-1.17,2.66-2.42,4.22-3.36,2.66-1.64,5.15-3.36,7.42-5.54.16-.16.31-.55.7-.39.31.16.23.47.31.78.16.62.16,1.25.31,1.87.08.55-.08,1.02-.55,1.48-2.19,2.42-5,3.98-7.73,5.62-1.64,1.02-3.12,2.11-4.45,3.44-.08.08-.16.08-.39.16,1.09-2.5,3.28-3.83,5-5.54-.55-.47-.86-.31-1.17-.08Z"/>
    <path class="st4" d="M89.52,40.73c0,.62-.31,1.09-.62,1.41-1.87,2.11-4.3,3.59-6.64,5-.39.23-.78.47-1.17.7-1.87,1.17-3.2,2.19-4.37,3.36-.08.08-.23.16-.31.16s-.16,0-.23.08l-.94.31.39-.78c.86-1.87,2.26-3.05,3.59-4.3.23-.16.47-.39.7-.62-.78.47-1.48,1.02-2.19,1.56-.31.23-.62.55-1.02.78l-.08.08c-.31.31-.62.39-.94.16-.16-.16-.31-.39-.31-.62s.08-.39.16-.55c.16-.23.31-.47.47-.55.23-.23.47-.39.7-.62,1.09-.94,2.26-1.95,3.51-2.73,3.12-1.95,5.39-3.59,7.34-5.47l.08-.08c.16-.16.47-.62,1.02-.39.47.16.47.62.47.86v.16c.08.39.16.78.16,1.09,0,.23.08.47.08.78.08,0,.16.16.16.23M77.57,49.4c.86-.7,1.87-1.41,3.12-2.19.39-.23.78-.47,1.17-.7,2.26-1.41,4.69-2.81,6.48-4.84.39-.39.47-.7.39-1.17-.08-.23-.08-.55-.08-.78-.08-.39-.08-.7-.16-1.09v-.47s-.08.08-.08.16c-.08.08-.08.16-.16.16-1.95,1.87-4.22,3.67-7.42,5.62-1.25.78-2.34,1.72-3.44,2.66-.23.23-.47.39-.7.62-.08.08-.23.23-.23.31.31-.23.62-.47.94-.7.78-.62,1.64-1.25,2.58-1.8.39-.23.86-.47,1.48-.08l.39.23-.31.31c-.47.47-1.02.94-1.56,1.41-1.02.86-1.8,1.56-2.42,2.34"/>
    <path class="st3" d="M89.52,40.73c0,.62-.31,1.09-.62,1.41-1.87,2.11-4.3,3.59-6.64,5-.39.23-.78.47-1.17.7-1.87,1.17-3.2,2.19-4.37,3.36-.08.08-.23.16-.31.16s-.16,0-.23.08l-.94.31.39-.78c.86-1.87,2.26-3.05,3.59-4.3.23-.16.47-.39.7-.62-.78.47-1.48,1.02-2.19,1.56-.31.23-.62.55-1.02.78l-.08.08c-.31.31-.62.39-.94.16-.16-.16-.31-.39-.31-.62s.08-.39.16-.55c.16-.23.31-.47.47-.55.23-.23.47-.39.7-.62,1.09-.94,2.26-1.95,3.51-2.73,3.12-1.95,5.39-3.59,7.34-5.47l.08-.08c.16-.16.47-.62,1.02-.39.47.16.47.62.47.86v.16c.08.39.16.78.16,1.09,0,.23.08.47.08.78.08,0,.16.16.16.23ZM77.57,49.4c.86-.7,1.87-1.41,3.12-2.19.39-.23.78-.47,1.17-.7,2.26-1.41,4.69-2.81,6.48-4.84.39-.39.47-.7.39-1.17-.08-.23-.08-.55-.08-.78-.08-.39-.08-.7-.16-1.09v-.47s-.08.08-.08.16c-.08.08-.08.16-.16.16-1.95,1.87-4.22,3.67-7.42,5.62-1.25.78-2.34,1.72-3.44,2.66-.23.23-.47.39-.7.62-.08.08-.23.23-.23.31.31-.23.62-.47.94-.7.78-.62,1.64-1.25,2.58-1.8.39-.23.86-.47,1.48-.08l.39.23-.31.31c-.47.47-1.02.94-1.56,1.41-1.02.86-1.8,1.56-2.42,2.34Z"/>
    <path class="st4" d="M76.94,54.79c.16-.47.47-.86.78-1.17,1.02-.94,2.03-1.87,3.05-2.73.23-.16.47-.31.55-.62-.47-.23-.86,0-1.17.23-1.09.55-2.03,1.41-2.97,2.19-.16.16-.31.31-.55.39l-.08.08c-.08-.08-.08-.16,0-.16l.08.08-.08-.08c.23-1.25,1.41-1.8,2.26-2.5,3.2-2.58,6.79-4.61,9.92-7.26.39-.31.55-.23.55.23,0,.7.08,1.48.08,2.19,0,.62-.31,1.02-.78,1.41-2.11,1.72-4.3,3.2-6.56,4.69-1.25.86-2.42,1.8-3.67,2.66-.31.23-.7.55-1.09.7-.23.16-.39.08-.31-.31"/>
    <path class="st3" d="M76.94,54.79c.16-.47.47-.86.78-1.17,1.02-.94,2.03-1.87,3.05-2.73.23-.16.47-.31.55-.62-.47-.23-.86,0-1.17.23-1.09.55-2.03,1.41-2.97,2.19-.16.16-.31.31-.55.39l-.08.08c-.08-.08-.08-.16,0-.16l.08.08-.08-.08c.23-1.25,1.41-1.8,2.26-2.5,3.2-2.58,6.79-4.61,9.92-7.26.39-.31.55-.23.55.23,0,.7.08,1.48.08,2.19,0,.62-.31,1.02-.78,1.41-2.11,1.72-4.3,3.2-6.56,4.69-1.25.86-2.42,1.8-3.67,2.66-.31.23-.7.55-1.09.7-.23.16-.39.08-.31-.31Z"/>
    <path class="st4" d="M89.75,45.41v.16c0,.86-.55,1.41-.94,1.72-2.03,1.64-4.14,3.12-6.56,4.69-.86.55-1.72,1.17-2.5,1.8-.39.31-.78.55-1.09.86l-.16.08c-.31.23-.62.47-.94.62-.31.16-.55.08-.7,0-.23-.16-.31-.47-.23-.78.16-.47.47-.94.94-1.33.78-.7,1.64-1.48,2.42-2.26l.39-.39h0c-.94.47-1.64,1.09-2.5,1.8l-.39.31-.08.08c-.16.08-.31.23-.55.31-.23.23-.39.16-.55.08-.23-.16-.23-.31-.23-.39s0-.23.08-.31c.23-1.09,1.09-1.64,1.8-2.19.23-.16.39-.31.55-.39,1.48-1.17,3.05-2.26,4.61-3.36,1.8-1.25,3.59-2.5,5.31-3.9.16-.08.47-.39.86-.23s.39.62.39.78v.62c.08.7.08,1.17.08,1.64M77.49,54.55c.16-.08.31-.23.47-.31l.16-.16c.39-.31.78-.55,1.09-.86.86-.62,1.64-1.25,2.58-1.87,2.34-1.56,4.53-3.05,6.48-4.69.47-.39.7-.7.7-1.17v-2.03c-1.64,1.41-3.51,2.66-5.23,3.9-1.33.86-2.58,1.8-3.9,2.73.08,0,.08-.08.16-.08l.08-.08c.39-.23.86-.47,1.48-.16l.23.16-.08.31c-.08.39-.31.62-.55.78-.08,0-.08.08-.16.08l-.62.55c-.78.78-1.64,1.48-2.42,2.26-.16.16-.31.39-.47.62"/>
    <path class="st3" d="M89.75,45.41v.16c0,.86-.55,1.41-.94,1.72-2.03,1.64-4.14,3.12-6.56,4.69-.86.55-1.72,1.17-2.5,1.8-.39.31-.78.55-1.09.86l-.16.08c-.31.23-.62.47-.94.62-.31.16-.55.08-.7,0-.23-.16-.31-.47-.23-.78.16-.47.47-.94.94-1.33.78-.7,1.64-1.48,2.42-2.26l.39-.39h0c-.94.47-1.64,1.09-2.5,1.8l-.39.31-.08.08c-.16.08-.31.23-.55.31-.23.23-.39.16-.55.08-.23-.16-.23-.31-.23-.39s0-.23.08-.31c.23-1.09,1.09-1.64,1.8-2.19.23-.16.39-.31.55-.39,1.48-1.17,3.05-2.26,4.61-3.36,1.8-1.25,3.59-2.5,5.31-3.9.16-.08.47-.39.86-.23s.39.62.39.78v.62c.08.7.08,1.17.08,1.64ZM77.49,54.55c.16-.08.31-.23.47-.31l.16-.16c.39-.31.78-.55,1.09-.86.86-.62,1.64-1.25,2.58-1.87,2.34-1.56,4.53-3.05,6.48-4.69.47-.39.7-.7.7-1.17v-2.03c-1.64,1.41-3.51,2.66-5.23,3.9-1.33.86-2.58,1.8-3.9,2.73.08,0,.08-.08.16-.08l.08-.08c.39-.23.86-.47,1.48-.16l.23.16-.08.31c-.08.39-.31.62-.55.78-.08,0-.08.08-.16.08l-.62.55c-.78.78-1.64,1.48-2.42,2.26-.16.16-.31.39-.47.62Z"/>
    <path class="st4" d="M80.38,57.44c-.39-.31-.08-.7.08-1.02.62-1.02,1.48-1.72,2.42-2.42.16-.08.23-.23.39-.31-.31-.31-.55-.08-.78,0-1.33.78-2.73,1.56-3.75,2.81-.16.16-.23.39-.47.23-.31-.16-.16-.39-.08-.62.16-.39.47-.62.78-.86,2.89-2.11,5.78-4.22,8.67-6.25.47-.31.86-.86,1.41-1.09l.08-.08s0,.08-.08.08l-.08-.08.08.08v.16c.08,1.95-.39,3.59-2.19,4.69-1.09.7-2.11,1.64-3.28,2.26-.94.47-1.64,1.17-2.42,1.87-.23.39-.47.78-.78.55"/>
    <path class="st3" d="M80.38,57.44c-.39-.31-.08-.7.08-1.02.62-1.02,1.48-1.72,2.42-2.42.16-.08.23-.23.39-.31-.31-.31-.55-.08-.78,0-1.33.78-2.73,1.56-3.75,2.81-.16.16-.23.39-.47.23-.31-.16-.16-.39-.08-.62.16-.39.47-.62.78-.86,2.89-2.11,5.78-4.22,8.67-6.25.47-.31.86-.86,1.41-1.09l.08-.08s0,.08-.08.08l-.08-.08.08.08v.16c.08,1.95-.39,3.59-2.19,4.69-1.09.7-2.11,1.64-3.28,2.26-.94.47-1.64,1.17-2.42,1.87-.23.39-.47.78-.78.55Z"/>
    <path class="st4" d="M90.22,46.82l-.7,1.33v.47c0,2.11-.78,3.59-2.42,4.61-.47.31-.86.62-1.25.94-.62.47-1.33,1.02-2.03,1.41-.78.39-1.41.94-2.03,1.56l-.31.31-.08.08c-.16.16-.62.62-1.17.23-.23-.16-.31-.39-.31-.62,0-.31.16-.55.31-.78.23-.39.55-.78.86-1.09-.7.47-1.33,1.02-1.87,1.64-.16.16-.47.55-.94.31-.23-.16-.39-.31-.39-.62,0-.16.08-.31.08-.39.16-.55.55-.86.86-1.09l1.8-1.33c2.34-1.64,4.61-3.36,6.95-5,.16-.16.31-.23.47-.39.31-.31.62-.55,1.02-.7h0l1.17-.86ZM80.61,57.13l.16-.16c.08-.08.08-.16.16-.16l.31-.23c.7-.62,1.41-1.25,2.19-1.64.7-.31,1.33-.86,1.95-1.33.39-.31.86-.62,1.33-.94,1.41-.86,2.03-2.11,2.03-3.98-.08.08-.23.16-.31.31-.16.16-.31.31-.55.47-1.95,1.41-3.98,2.81-5.94,4.3h.08l.39-.23c.16-.16.7-.47,1.17.08l.31.31-.47.31c-.08.08-.16.16-.31.23l-.16.08c-.86.7-1.64,1.33-2.19,2.19-.08.08-.16.23-.16.39h0"/>
    <path class="st3" d="M90.22,46.82l-.7,1.33v.47c0,2.11-.78,3.59-2.42,4.61-.47.31-.86.62-1.25.94-.62.47-1.33,1.02-2.03,1.41-.78.39-1.41.94-2.03,1.56l-.31.31-.08.08c-.16.16-.62.62-1.17.23-.23-.16-.31-.39-.31-.62,0-.31.16-.55.31-.78.23-.39.55-.78.86-1.09-.7.47-1.33,1.02-1.87,1.64-.16.16-.47.55-.94.31-.23-.16-.39-.31-.39-.62,0-.16.08-.31.08-.39.16-.55.55-.86.86-1.09l1.8-1.33c2.34-1.64,4.61-3.36,6.95-5,.16-.16.31-.23.47-.39.31-.31.62-.55,1.02-.7h0l1.17-.86ZM80.61,57.13l.16-.16c.08-.08.08-.16.16-.16l.31-.23c.7-.62,1.41-1.25,2.19-1.64.7-.31,1.33-.86,1.95-1.33.39-.31.86-.62,1.33-.94,1.41-.86,2.03-2.11,2.03-3.98-.08.08-.23.16-.31.31-.16.16-.31.31-.55.47-1.95,1.41-3.98,2.81-5.94,4.3h.08l.39-.23c.16-.16.7-.47,1.17.08l.31.31-.47.31c-.08.08-.16.16-.31.23l-.16.08c-.86.7-1.64,1.33-2.19,2.19-.08.08-.16.23-.16.39h0Z"/>
    <path class="st4" d="M82.1,57.44c1.95-1.33,3.98-2.58,5.94-3.9l.16.16c-.31.94-.62,1.95-.94,2.89-.08.31-.39.39-.62.47-1.41.31-2.73.62-3.98,1.33-.39.23-.78.23-1.02-.16-.23-.47.23-.62.47-.78"/>
    <path class="st3" d="M82.1,57.44c1.95-1.33,3.98-2.58,5.94-3.9l.16.16c-.31.94-.62,1.95-.94,2.89-.08.31-.39.39-.62.47-1.41.31-2.73.62-3.98,1.33-.39.23-.78.23-1.02-.16-.23-.47.23-.62.47-.78Z"/>
    <path class="st4" d="M88.58,53.46v.31l-.23.78c-.23.7-.47,1.41-.7,2.11-.16.55-.62.62-.94.7-1.25.31-2.66.62-3.83,1.33-.62.31-1.25.23-1.56-.31-.08-.16-.16-.31-.16-.47,0-.39.39-.62.62-.78l.08-.08c1.48-1.02,3.05-1.95,4.53-2.97l1.64-1.09.55.47ZM81.94,57.99c.16.16.39.08.55,0,1.33-.7,2.81-1.09,4.06-1.41q.31-.08.39-.16c.23-.7.47-1.41.7-2.11v-.08l-.78.47c-1.48,1.02-3.05,1.95-4.53,2.97-.08,0-.08.08-.16.08-.08.16-.23.16-.23.23"/>
    <path class="st3" d="M88.58,53.46v.31l-.23.78c-.23.7-.47,1.41-.7,2.11-.16.55-.62.62-.94.7-1.25.31-2.66.62-3.83,1.33-.62.31-1.25.23-1.56-.31-.08-.16-.16-.31-.16-.47,0-.39.39-.62.62-.78l.08-.08c1.48-1.02,3.05-1.95,4.53-2.97l1.64-1.09.55.47ZM81.94,57.99c.16.16.39.08.55,0,1.33-.7,2.81-1.09,4.06-1.41q.31-.08.39-.16c.23-.7.47-1.41.7-2.11v-.08l-.78.47c-1.48,1.02-3.05,1.95-4.53,2.97-.08,0-.08.08-.16.08-.08.16-.23.16-.23.23Z"/>
    <path class="st6" d="M68.66,61.11c1.87-2.03,4.22-3.05,6.95-3.12,2.03,0,3.9.39,5.78,1.25.62.31,1.02.23,1.64,0,2.5-1.02,5.15-1.48,7.81-.78,1.64.47,3.05,1.25,4.22,2.5.16.16.62.39.23.7-.31.23-.55.7-1.17.39-1.33-.86-2.89-1.33-4.37-1.64-2.66-.47-5.15-.08-7.5,1.17-.47.31-.86.23-1.33,0-3.05-1.48-6.17-2.03-9.53-.94-.7.23-1.48.55-2.11,1.02-.23.16-.47.31-.7,0-.39-.23-.08-.39.08-.55"/>
    <path class="st6" d="M69.37,64.08c0,1.41-1.02,2.5-2.34,2.58-1.33.08-2.5-1.09-2.5-2.5,0-1.33,1.09-2.5,2.42-2.5,1.33,0,2.42,1.02,2.42,2.42"/>
    <path class="st6" d="M70.23,62.99c-.23.08-.39.39-.62,0s0-.47.31-.62c1.41-.86,2.97-1.25,4.69-1.33,2.26,0,4.45.55,6.4,1.64.39.23.7.23,1.09,0,3.51-2.19,7.11-1.95,10.78-.31.31.16.62.23.86.47.16.08.62-.31.39.31-.16.39-.23.47-.7.31-1.02-.47-2.19-.7-3.28-.86-2.89-.31-5.54.47-7.81,2.19-.55.39-.78.39-1.33,0-2.26-1.48-4.69-2.5-7.5-2.42-1.17-.08-2.26.16-3.28.62"/>
    <path class="st6" d="M67.34,63.53c.47.86.16,1.56-.86,1.72-.23,0-.47-.08-.7.23.86.62,2.03.47,2.58-.31.47-.7.31-1.48-.47-2.03-.23-.16-.47-.39-.7-.16-.23.08,0,.31.16.55"/>
    <path class="st6" d="M81.47,31.28c-2.5,0-4.61-1.95-4.61-4.37s2.03-4.37,4.61-4.37,4.61,1.95,4.61,4.37-2.03,4.37-4.61,4.37"/>
    <path class="st6" d="M81.32,22.22c-1.41,0-2.58-1.09-2.58-2.5s1.17-2.5,2.58-2.5,2.58,1.09,2.58,2.5c.08,1.41-1.09,2.5-2.58,2.5"/>
    <path class="st1" d="M76.24,38.07s.08.08,0,0c.08.08,0,0,0,0ZM96.78,63.53c.39.78.08,1.48-.78,1.64-.23.08-.55-.08-.78.16.86.62,2.03.47,2.58-.31.47-.62.31-1.41-.39-1.95-.23-.16-.55-.47-.78-.31-.23.23.08.55.16.78M75.15,63.53s-2.97-.7-4.92.7c-.08.86-1.17,4.69-4.61,3.36-2.5-1.17-3.2-4.22-.55-6.4,1.64-.47,2.5-.16,2.5-.16,0,0,1.8-3.83,8.67-3.75-2.5-5.62-2.89-14.53-1.48-19.76,1.41-5.15,2.97-7.11,2.97-7.11,0,0-2.26-2.03-.86-5.78,0,0,.7-1.33,2.58-2.26v-.16s-2.34-2.11-.47-4.37c1.87-2.34,5.23-.39,5.39,1.56.16,1.95-1.25,2.73-1.33,2.73s0,.39,0,.39c0,0,3.12.78,3.28,3.83.16,3.05-.94,3.12-.94,3.12,0,0,4.37,4.3,4.76,14.99-.23,9.37-1.95,12.73-1.95,12.73,0,0,4.76,0,7.5,3.44,3.51,0,4.61,2.73,3.83,4.69-.7,1.95-3.12,2.81-4.37,2.19-1.25-.62-2.19-1.64-2.34-3.12-2.11-.86-4.22-1.09-5.08-.86,0,7.58-1.56,88.17-1.56,88.17l-6.01,10.62-5.47-10.78.47-88.01ZM81.24,20.35c.55.39,1.02.23,1.33-.23.39-.55.16-1.09-.55-1.41q.16,1.25-.78,1.64M79.52,158.97c.23-.16.16-.39.16-.55.08-3.2.08-6.4.08-9.61.08-7.97.23-15.93.31-23.9.08-7.58.16-15.07.23-22.65.08-5.78.16-11.56.23-17.26.08-6.01.16-12.03.23-18.04,0-.39,0-.7-.39-.86-1.17-.7-2.34-1.33-3.51-2.03-.08-.16-.23-.16-.39-.08h-.16c0,1.33-.08,2.66-.08,3.98-.08,7.73-.16,15.38-.23,23.12-.08,8.12-.16,16.24-.23,24.37-.08,5.94-.16,11.95-.16,17.88-.08,4.22,0,8.43-.16,12.65-.08,2.73,0,5.39,1.48,7.81.62,1.02,1.02,2.11,1.48,3.12.47.62.78,1.33,1.09,2.03M87.02,63.92c-1.64.23-3.2.78-4.53,1.87-.31.23-.47.55-.47.94,0,1.95-.08,3.83-.08,5.78-.08,5.15-.23,10.31-.31,15.38-.08,6.72-.23,13.43-.31,20.07-.08,4.69-.16,9.37-.23,14.06-.16,7.5-.23,15.07-.39,22.57-.08,2.42-.16,4.84-.08,7.26,0,2.34.08,4.61.16,6.87,0,0,.08-.08.16-.23,1.33-2.34,2.73-4.76,4.06-7.11.23-.47.31-.94.31-1.41,0-1.17.08-2.42.08-3.59.16-7.03.31-14.14.47-21.24.08-4.92.16-9.84.31-14.84.16-5.94.23-11.79.39-17.73.16-8.12.31-16.24.47-24.37,0-1.33.08-2.66.16-3.98-.08,0,0-.23-.16-.31M96.23,61.5c-1.25.08-2.34,1.25-2.34,2.58s1.17,2.5,2.5,2.42,2.42-1.25,2.34-2.58c0-1.33-1.17-2.42-2.5-2.42M78.74,25.73c0,.08,0,.23.08.31.16.23.39.47.7.39.47-.08.08-.39.08-.62-.08-.55.23-.86.7-1.02.16-.08.31,0,.31-.23,0-.16-.16-.23-.39-.31-.7,0-1.48.7-1.48,1.48M82.1,26.75c.23.62-.16.86-.55,1.09-.16.08-.47,0-.39.31.08.23.31.23.55.23.55,0,1.09-.39,1.25-.86.08-.39.08-.78-.23-1.09-.16-.16-.39-.23-.55-.16-.23.16-.16.31-.08.47M83.03,29.4c1.09-.47,1.48-1.33,1.56-2.42.08-1.02-.16-1.87-1.17-2.58-.08.47.08.78.23,1.09.31.94.31,1.8-.31,2.58s-1.41.94-2.34.86c-.23,0-.55-.16-.62.23,0,.31.23.39.55.47.7.16,1.41.08,2.11-.23M76.79,35.65c1.56-1.09,3.28-1.95,4.84-3.12.39-.31.23-.47-.16-.55-.78-.16-1.48-.23-2.26-.55-.55-.23-1.17.08-1.33.62-.08.31,0,.47.39.31.31-.16.7-.47,1.17-.08-.7.47-1.41,1.02-2.03,1.41-.62.39-.78,1.02-.94,1.64-.08.16-.08.47.31.31M78.97,36.98c-1.33,1.48-3.05,2.66-3.83,4.76.47-.08.7-.39.94-.55.86-.62,1.64-1.33,2.58-1.87,2.42-1.56,4.61-3.28,6.48-5.39.86-.94,1.09-1.64.39-2.73-.39-.62-.55-.7-1.09-.16-.7.62-1.33,1.33-2.03,1.95-1.56,1.33-3.44,2.34-5,3.75-.47.39-1.09.7-1.17,1.41h0q0,.08-.08.16l.08-.08c.47-.23.86-.55,1.33-.78q.86-.62,1.41-.47M76.16,45.41c1.48-1.25,3.05-2.34,4.69-3.36,2.11-1.33,4.06-2.73,5.86-4.45,1.09-1.02,1.33-2.03.55-3.36-.31-.55-.47-.62-.86-.16-.62.7-1.25,1.41-1.87,2.11-1.95,1.95-4.45,3.28-6.64,5-.86.62-1.8,1.09-2.26,2.19q.08.08.16.16c1.25-.78,2.26-1.87,3.83-2.34-1.33,1.41-2.97,2.58-3.75,4.45.08,0,.16-.16.31-.23M80.69,45.57c-1.72,1.72-3.9,3.12-5,5.54.23-.08.39-.08.39-.16,1.33-1.33,2.81-2.42,4.45-3.44,2.73-1.64,5.54-3.2,7.73-5.62.39-.47.62-.86.55-1.48-.08-.62-.16-1.25-.31-1.87-.08-.23,0-.62-.31-.78s-.47.23-.7.39c-2.19,2.19-4.76,3.9-7.42,5.54-1.56.94-2.89,2.19-4.22,3.36-.16.16-.31.31-.39.47-.16.23-.16.55.08.7.16.16.31-.08.47-.23,1.17-.86,2.26-1.8,3.51-2.5.39-.08.7-.23,1.17.08M77.02,55.1c.39-.23.7-.47,1.09-.7,1.25-.86,2.42-1.8,3.67-2.66,2.26-1.48,4.45-2.97,6.56-4.69.47-.39.78-.78.78-1.41,0-.7,0-1.48-.08-2.19,0-.47-.16-.55-.55-.23-3.12,2.66-6.72,4.69-9.92,7.26-.86.7-2.03,1.25-2.26,2.5l.08.08-.08-.08c-.08.08-.16.08,0,.16l.08-.08c.23,0,.39-.23.55-.39.94-.78,1.87-1.64,2.97-2.19.39-.16.7-.39,1.17-.23-.08.31-.31.47-.55.62-1.02.94-2.03,1.87-3.05,2.73-.39.31-.62.7-.78,1.17-.16.39,0,.47.31.31M80.85,57.05c.78-.7,1.48-1.41,2.42-1.87,1.25-.62,2.19-1.56,3.28-2.26,1.8-1.17,2.26-2.73,2.19-4.69v-.16h-.08.08s0-.08.08-.08l-.08.08c-.55.23-.94.78-1.41,1.09-2.89,2.11-5.78,4.14-8.67,6.25-.31.23-.7.47-.78.86-.08.23-.16.47.08.62.23.08.39-.08.47-.23,1.02-1.25,2.42-1.95,3.75-2.81.23-.16.47-.39.78,0-.16.08-.31.23-.39.31-.94.7-1.8,1.41-2.42,2.42-.16.31-.47.7-.08,1.02.31.08.55-.31.78-.55M81.32,58.14c.23.31.62.31,1.02.16,1.25-.7,2.58-1.02,3.98-1.33.31-.08.55-.16.62-.47.31-.94.62-1.95.94-2.89l-.16-.16c-1.95,1.33-3.98,2.58-5.94,3.9-.23.23-.7.39-.47.78M68.19,61.74c.23.31.47.16.7,0,.62-.47,1.33-.78,2.11-1.02,3.28-1.09,6.48-.55,9.53.94.47.23.86.23,1.33,0,2.34-1.33,4.84-1.72,7.5-1.17,1.56.31,3.05.78,4.37,1.64.62.39.86-.16,1.17-.39.39-.31-.08-.55-.23-.7-1.09-1.25-2.58-2.11-4.22-2.5-2.73-.7-5.31-.23-7.81.78-.55.23-1.02.23-1.64,0-1.8-.86-3.75-1.25-5.78-1.25-2.73.16-5.08,1.09-6.95,3.12-.08.08-.39.23-.08.55M66.63,61.66c-1.33,0-2.42,1.17-2.42,2.5,0,1.41,1.17,2.5,2.5,2.5,1.33-.08,2.34-1.17,2.34-2.58s-1.02-2.42-2.42-2.42M73.11,62.28c2.81-.08,5.23.94,7.5,2.42.47.31.78.39,1.33,0,2.26-1.72,4.92-2.5,7.81-2.19,1.17.16,2.26.39,3.28.86.39.16.55.08.7-.31.23-.62-.31-.16-.39-.31-.23-.16-.55-.31-.86-.47-3.67-1.64-7.26-1.8-10.78.31-.39.23-.7.23-1.09,0-2.03-1.09-4.14-1.64-6.4-1.64-1.64,0-3.2.47-4.69,1.33-.23.16-.47.31-.31.62.23.39.47.16.62,0,1.09-.39,2.19-.62,3.28-.62M67.02,63.53c.47.86.16,1.56-.86,1.72-.23,0-.47-.08-.7.23.86.62,2.03.47,2.58-.31.47-.7.31-1.48-.47-2.03-.23-.16-.47-.39-.7-.16-.23.08.08.31.16.55M83.58,19.72c0-1.17-1.02-2.11-2.19-2.11s-2.19.94-2.19,2.11,1.02,2.11,2.19,2.11,2.19-.94,2.19-2.11M85.53,26.83c0-2.26-1.87-4.06-4.14-4.06s-4.14,1.8-4.14,4.06,1.87,4.06,4.14,4.06c2.26,0,4.14-1.87,4.14-4.06"/>
  </g>
</svg>