<?xml version="1.0" encoding="UTF-8"?>
<svg id="Layer_1" xmlns="http://www.w3.org/2000/svg" version="1.1" viewBox="0 0 109.6 176.97">
  <!-- Generator: Adobe Illustrator 30.2.1, SVG Export Plug-In . SVG Version: 2.1.1 Build 1)  -->
  <defs>
    <style>
      .st0 {
        fill: #0e80c3;
      }

      .st1 {
        fill: #1d1c1a;
      }

      .st2 {
        fill: none;
        stroke: #1d1c1a;
        stroke-miterlimit: 10;
        stroke-width: 1.26px;
      }

      .st3 {
        fill: #d81f26;
      }

      .st4 {
        fill: #fff;
      }

      .st5 {
        fill: #fddb00;
      }
    </style>
  </defs>
  <rect class="st4" x="-.54" y="-.07" width="110.69" height="177.1"/>
  <g>
    <path class="st1" d="M11.46,7.89v.39c-1.02,0-1.8.31-2.42.94s-1.02,1.48-1.25,2.58h.08c.39-.23.7-.47,1.09-.55.39-.08.78-.16,1.17-.16.55,0,.94.08,1.33.31.39.23.62.55.86,1.02.16.39.31.94.31,1.48,0,.62-.16,1.17-.39,1.64s-.62.86-1.17,1.09-1.17.39-1.95.39c-.7,0-1.33-.16-1.8-.39-.55-.31-.94-.7-1.17-1.25-.39-.55-.47-1.25-.47-2.03,0-1.09.23-2.03.7-2.89.47-.86,1.09-1.56,1.95-2.11s1.8-.86,2.81-.94l.31.47ZM9.27,12.11c-.23,0-.47,0-.62.08-.23.08-.39.16-.55.23-.16.08-.23.23-.31.31-.08.08-.08.16-.08.31v.7c0,.86.08,1.48.31,1.87.23.39.62.62,1.09.62.31,0,.47-.08.7-.16.16-.08.31-.23.47-.47.08-.16.23-.39.23-.7.08-.23.08-.55.08-.86,0-.62-.08-1.17-.31-1.48-.31-.31-.62-.47-1.02-.47"/>
    <path class="st1" d="M98.38,169.16v-.39c1.02,0,1.8-.31,2.42-.94.62-.62,1.02-1.48,1.25-2.58h-.08c-.39.23-.7.47-1.09.55-.39.08-.78.16-1.17.16-.55,0-.94-.08-1.33-.31-.39-.23-.62-.55-.86-1.02-.16-.39-.31-.94-.31-1.48,0-.62.16-1.17.39-1.64s.62-.86,1.17-1.09c.55-.23,1.17-.39,1.95-.39.7,0,1.33.16,1.8.39.55.31.94.7,1.17,1.25.23.55.39,1.25.39,2.03,0,1.09-.23,2.03-.7,2.89-.47.86-1.09,1.56-1.95,2.11s-1.8.86-2.81.94l-.23-.47ZM100.49,164.94c.23,0,.47,0,.62-.08.23-.08.39-.16.55-.23s.23-.23.31-.31.08-.16.08-.31v-.7c0-.86-.08-1.48-.31-1.87-.23-.39-.62-.62-1.09-.62-.23,0-.47.08-.7.16-.16.08-.31.23-.47.47-.08.16-.23.39-.23.7-.08.23-.08.55-.08.86,0,.62.08,1.17.31,1.48.31.31.62.47,1.02.47"/>
    <polyline class="st2" points="29.65 171.5 3.73 171.5 3.73 5.47 29.11 5.47"/>
    <polyline class="st2" points="79.48 5.47 105.88 5.47 105.88 171.5 79.25 171.5"/>
    <line class="st2" x1="68.55" y1="171.5" x2="40.43" y2="171.5"/>
    <line class="st2" x1="68.55" y1="5.47" x2="40.43" y2="5.47"/>
    <path class="st5" d="M89.79,139.64c-.7-.08-1.41-.16-2.03.08-2.03.7-3.9.23-5.78-.47-.23-.08-.47-.47-.7-.16-.31.39,0,.62.31.78,1.17.86,2.5,1.17,3.98,1.09,1.56-.08,2.89-.62,4.3-1.25.47.23.86.47,1.41.62,2.42.86,4.84.86,7.11-.62.31-.16.55-.39.31-.7-.23-.47-.55-.08-.7,0-1.64.78-3.36,1.09-5.15.86-1.09-.08-2.03-.39-3.05-.23"/>
    <path class="st5" d="M80.65,139.32h0c0-.16.08-.39.23-.55.23-.23.55-.47,1.17-.08l.08.08c1.72.62,3.51,1.17,5.47.47.62-.23,1.25-.16,1.87-.08h.31c.78-.16,1.56,0,2.26.16.23.08.55.08.78.16,1.72.23,3.36-.08,4.92-.78.16-.16.47-.31.78-.23.23.08.39.16.55.39.08.16.08.31.08.39,0,.47-.39.7-.55.86-2.19,1.48-4.69,1.72-7.5.7-.39-.16-.7-.31-1.02-.47-.08-.08-.16-.08-.23-.16-1.41.62-2.73,1.17-4.3,1.17-1.64.08-3.05-.31-4.22-1.17-.31-.16-.7-.39-.7-.86M88.07,140.03c-.08,0-.16,0-.23.08-2.19.78-4.22.23-6.01-.47,1.02.7,2.19,1.02,3.59,1.02.94-.08,1.8-.31,2.66-.62M97.83,139.56c-1.64.7-3.36,1.02-5.15.78-.31,0-.55-.08-.86-.16-.08,0-.16,0-.23-.08,2.34.78,4.37.62,6.25-.55"/>
    <path class="st0" d="M86.43,113.71v-.23c.16-1.17.08-2.34.08-3.51v-.39c.08-2.73.08-5.54.16-8.28v-2.89c0-.78.62-1.33.94-1.95,0-.08.08-.16.08-.16.16-.23.31-.47.39-.62.31-.31.55-.7.62-1.09.08,0,.08-.08.08-.16.08,0,.08-.08.16-.08.08-.08.23-.08.31-.16v2.89c0,10.54,0,21.16.08,31.71,0,3.28,0,6.56.08,9.84-.39.55-1.17.47-1.8.78-.31.16-.7.23-1.02.39h-.23c0-.08-.08-.08-.08-.16h0v-.31c.08-2.03.16-4.06.08-6.09h0c.08-.31.08-.55,0-.86h0c.16-1.41.16-2.73.08-4.06h0c.08-.47.08-.94.08-1.41v-.62c-.08-4.3,0-8.43-.08-12.57"/>
    <path class="st0" d="M85.73,139.17h0c.08-2.11.16-4.06.08-6.09v-.23c.08-.16.08-.31,0-.55v-.16c.08-1.33.16-2.66.08-4.06v-.16h0c.08-.39.08-.86,0-1.25v-.55h0v-.16c.16-3.9.16-8.2.16-12.42v-.23c.08-.62.08-1.17.08-1.87v-2.03l.08-2.5c0-1.95.08-3.9.08-5.86v-2.97c0-.62.39-1.09.62-1.56.16-.16.23-.39.31-.55l.08-.16.47-.7s0-.08.08-.08c.23-.23.47-.55.55-.94,0-.08.08-.16.16-.23,0-.08.08-.08.08-.16l.16-.08s.08,0,.08-.08l.31-.16c.16-.08.31-.08.39,0,.16.08.23.23.23.31v44.44c0,.08,0,.16-.08.23-.39.47-.94.62-1.33.7-.23.08-.39.08-.55.16-.23.16-.55.23-.78.31-.08,0-.23.08-.31.08h-.55c-.08,0-.23-.08-.23-.16l-.08-.16c-.08-.08-.08-.16-.08-.23v-.23h0q-.08.39-.08.31M86.66,135.5c0,1.17,0,2.42-.08,3.59v.08l.16-.08c.23-.08.47-.16.62-.23.23-.16.55-.16.78-.23.31-.08.55-.16.78-.31v-43.11c-.16.23-.23.39-.47.55l-.39.7c-.16.23-.23.47-.39.7-.23.39-.47.7-.47,1.09v2.89c0,1.95-.08,3.9-.08,5.86l-.08,2.5v.39c.08,1.25.08,2.5-.08,3.51v.16c.08,4.3,0,8.51-.16,12.42v.62c.08.39.08,1.02,0,1.48.08,1.41.08,2.73-.08,4.06.08.31.08.62,0,.94-.08.86-.08,1.64-.08,2.42"/>
    <path class="st0" d="M91.12,94.97c.08.16.16.31.23.47,0,.31.23.55.39.7.31.47.39,1.02.39,1.56.16,13.59.31,27.26.47,40.84,0,.55,0,.94-.78.55-.55-.23-1.09-.39-1.72-.62-.16-.31-.08-.62-.08-.86v-8.43c0-10.31-.08-20.54-.08-30.85,0-1.72-.08-3.44.16-5.15.23.39.55.86.78,1.25,0,.31.08.47.23.55"/>
    <path class="st0" d="M89.48,95.83c0-1.09.08-1.87.16-2.66,0-.16.16-.31.31-.39.16,0,.39.08.47.23l.78,1.25c.08.08.08.16.08.23,0,0,0,.08.08.08s.08.08.08.16l.23.47c0,.08.08.08.08.16,0,.16.08.31.31.47.39.55.47,1.09.55,1.8.16,13.59.31,27.26.47,40.84v.16c0,.23,0,.7-.39.94-.31.16-.78,0-1.02-.16-.31-.16-.7-.31-1.09-.39-.16-.08-.39-.08-.55-.16-.08,0-.16-.08-.23-.16-.23-.39-.23-.62-.16-.94v-15.54c0-7.89-.08-15.85-.08-23.74v-1.41c0-.39-.08-.78-.08-1.25M90.41,94.65v3.9c0,7.89,0,15.85.08,23.74v15.38h0v.55c.08,0,.23.08.31.08.39.16.86.23,1.25.47.08,0,.08.08.16.08v-.23c-.16-13.59-.31-27.26-.47-40.84,0-.55-.08-1.02-.31-1.33-.16-.16-.39-.47-.47-.78l-.16-.31c-.23-.23-.39-.47-.39-.7h0Z"/>
    <path class="st5" d="M98.69,141.28c-2.5,1.64-5.15,1.8-7.89.94-.7-.23-1.33-.16-2.03,0-3.05.94-5.94.78-8.51-1.09-.16-.16-.55-.23-.23-.55.23-.23.39-.55.86-.23,2.5,1.8,5.15,1.64,7.89.55.62-.23,1.02-.23,1.64,0,2.73,1.09,5.39,1.09,8.04-.47.16-.08.31-.23.55-.31.31-.16.47.08.55.23.16.16-.08.31-.23.39-.16.23-.39.39-.62.55"/>
    <path class="st5" d="M79.56,140.81c0-.16.08-.39.23-.55l.08-.08c.16-.16.62-.62,1.33-.16,2.11,1.48,4.45,1.64,7.42.47.7-.31,1.25-.31,1.95,0,2.73,1.17,5.23,1.02,7.65-.39.16-.08.39-.23.62-.31.55-.23.94.16,1.02.31.16.16.16.31.16.39,0,.31-.23.47-.39.55-.23.16-.39.31-.55.39l-.23.16c-2.42,1.64-5.23,1.95-8.28,1.02-.55-.16-1.09-.16-1.72,0-3.44,1.09-6.4.62-8.9-1.17-.08-.08-.39-.31-.39-.62M80.65,140.65l-.08.08s.08,0,.08.08c2.26,1.72,4.92,2.03,8.12,1.09.86-.23,1.48-.23,2.26,0,2.73.86,5.23.55,7.42-.86-2.5,1.41-5.23,1.48-8.04.31-.47-.16-.78-.16-1.25,0-3.28,1.33-5.94,1.09-8.28-.55l-.23-.16h0"/>
    <path class="st5" d="M87.45,159.71c-.78-1.02-.55-2.34.55-3.05,1.02-.7,2.5-.39,3.2.55.7.94.47,2.34-.55,3.05-.94.62-2.42.39-3.2-.55"/>
    <path class="st5" d="M86.82,158.38c0-.78.39-1.48,1.09-1.95.55-.39,1.17-.47,1.8-.39.7.08,1.33.47,1.72,1.02.31.39.47.86.47,1.33,0,.78-.39,1.48-1.02,1.95-.47.39-1.17.47-1.8.39-.7-.08-1.33-.47-1.72-1.02-.39-.31-.55-.78-.55-1.33M91.35,158.46c0-.39-.16-.78-.39-1.09-.31-.47-.86-.7-1.41-.86-.55-.08-1.09,0-1.48.31-.55.39-.86.94-.86,1.56,0,.39.16.78.39,1.17.31.47.86.7,1.41.78.55.08,1.09,0,1.48-.31.55-.31.86-.94.86-1.56"/>
    <path class="st3" d="M86.04,151.51c.47-1.41,1.48-2.34,2.58-3.28,1.09-.94,2.19-1.87,3.28-2.89.16-.16.23-.31.47-.23.23.08.16.31.08.55-.23.94-.7,1.87-1.33,2.66-1.41,1.72-3.36,2.89-4.84,4.61.7-2.58,3.44-3.67,4.69-5.86-1.48,1.56-3.59,2.66-4.92,4.45"/>
    <path class="st3" d="M85.81,151.51q0-.08,0,0c.47-1.48,1.56-2.5,2.66-3.44.23-.23.55-.47.78-.7.86-.7,1.64-1.41,2.42-2.19l.08-.08c.08-.16.39-.39.7-.23.16.08.31.23.31.47,0,.08,0,.23-.08.31-.23,1.02-.7,1.95-1.41,2.81s-1.64,1.64-2.42,2.34c-.86.7-1.64,1.41-2.34,2.26-.08.08-.16.08-.23.08-.08-.08-.16-.16-.08-.23.39-1.48,1.48-2.5,2.58-3.44-.86.7-1.72,1.41-2.42,2.26,0,.08-.08.16-.23.16-.16-.23-.31-.31-.31-.39h0ZM91.27,146.98v.08c-.55.94-1.33,1.72-2.19,2.42-.78.7-1.56,1.41-2.03,2.26.47-.47,1.02-.94,1.56-1.41.86-.7,1.72-1.48,2.42-2.26.62-.78,1.09-1.64,1.33-2.58.08-.16.08-.23,0-.31,0,0-.08,0-.16.16l-.08.08c-.78.78-1.64,1.56-2.5,2.26-.23.23-.55.47-.78.7-.62.55-1.25,1.17-1.72,1.8.55-.47,1.09-.94,1.64-1.33.78-.55,1.56-1.17,2.19-1.87.08-.08.23-.08.31,0-.08-.08,0-.08,0,0"/>
    <path class="st5" d="M77.29,139.64c-.55-.78-.39-1.72.39-2.34.78-.55,1.95-.39,2.5.31.55.7.31,1.8-.47,2.34-.78.62-1.87.47-2.42-.31"/>
    <path class="st5" d="M76.51,138.7c0-.7.31-1.25.94-1.72.47-.31,1.09-.47,1.64-.39s1.09.39,1.41.78c.62.86.39,2.26-.55,2.89-1.02.7-2.34.47-3.05-.47-.23-.23-.39-.7-.39-1.09M80.03,138.62c0-.23-.08-.47-.23-.7-.16-.23-.47-.39-.86-.47s-.7,0-1.02.23c-.62.39-.7,1.17-.31,1.72.47.55,1.25.7,1.87.31.31-.31.55-.7.55-1.09"/>
    <path class="st5" d="M100.02,136.98c.78-.55,1.87-.39,2.42.39.55.78.31,1.8-.47,2.34s-1.87.31-2.42-.39c-.55-.78-.31-1.72.47-2.34"/>
    <path class="st5" d="M98.85,138.39c0-.7.39-1.33.94-1.72.47-.31,1.09-.47,1.64-.39.55.08,1.02.39,1.41.86.62.94.39,2.26-.55,2.89-1.02.62-2.34.39-3.05-.47-.31-.31-.39-.78-.39-1.17M102.36,138.31c0-.23-.08-.47-.23-.7-.16-.23-.47-.47-.78-.47-.31-.08-.7,0-1.02.23-.62.39-.78,1.17-.39,1.72s1.25.7,1.87.31c.31-.23.55-.62.55-1.09"/>
    <path class="st3" d="M86.27,149.24c1.64-1.8,3.44-3.44,5-5.39q-.08-.08-.16-.16c-1.64,1.56-3.36,3.12-5.08,4.69.62-1.25,1.48-2.26,2.58-3.12.7-.62,1.56-1.02,2.19-1.64.39-.39.94-.16,1.33-.08.39.16,0,.47-.16.55-.78,1.02-1.8,1.95-2.89,2.81-1.02.78-1.8,1.72-2.81,2.34"/>
    <path class="st3" d="M85.81,148.38v-.08c.55-1.17,1.41-2.19,2.58-3.2.31-.23.62-.47.94-.7.47-.31.86-.62,1.25-.94.47-.47,1.02-.31,1.41-.16h.08c.31.08.31.31.31.39,0,.16-.16.31-.23.47l-.08.08c-.7.94-1.72,1.87-2.89,2.81-.39.31-.7.62-1.09.94-.55.47-1.09.94-1.72,1.41q-.08.08-.16.08c-.16,0-.23-.08-.23-.23q0-.08.08-.16c.62-.7,1.33-1.41,1.95-2.03s1.25-1.25,1.8-1.87l-3.67,3.44c-.08.08-.16.08-.31,0,0-.08,0-.16,0-.23M89.63,144.79h0c-.31.23-.62.39-.86.62-.7.62-1.25,1.17-1.72,1.8l2.58-2.42ZM91.43,143.85q0,.08-.08.16c-.78,1.02-1.72,1.95-2.58,2.89q.08-.08.16-.08c1.17-.94,2.11-1.8,2.81-2.73l.08-.08c0-.08.08-.08.16-.16h-.08c-.23-.08-.47-.16-.62-.16l.16.16c0-.08,0,0,0,0"/>
    <path class="st3" d="M87.29,154.79c.47-2.03,2.81-2.81,3.67-4.61-1.25.7-2.19,1.72-3.28,2.58,1.17-1.87,3.2-3.05,4.53-4.92.31.55.16,1.02-.08,1.41-.31.78-.94,1.48-1.48,2.11-1.02,1.25-2.26,2.26-3.36,3.44"/>
    <path class="st3" d="M87.06,154.79h0c.31-1.25,1.17-2.03,2.03-2.73.47-.39.86-.78,1.17-1.17-.55.39-1.02.86-1.56,1.25-.31.23-.55.47-.86.78-.08.08-.23.08-.31,0s-.08-.16-.08-.23c.62-.94,1.48-1.8,2.34-2.58.78-.7,1.56-1.48,2.26-2.42q.08-.08.16-.08c.08,0,.16.08.16.08.16.23.23.47.23.7,0,.31-.16.62-.23.86-.39.86-.94,1.56-1.56,2.19-.55.62-1.17,1.17-1.8,1.8-.55.55-1.09,1.09-1.64,1.64,0,.08-.08.08-.16.08-.08.08-.16,0-.16-.16h0ZM91.19,150.18v.08c-.39.86-1.09,1.48-1.8,2.11-.55.47-1.02.86-1.41,1.41.31-.23.55-.55.86-.78.62-.55,1.17-1.09,1.72-1.72s1.09-1.25,1.48-2.03c.16-.31.23-.62.23-.94-.62.78-1.33,1.48-2.03,2.11-.08.08-.23.23-.31.31.31-.23.7-.47,1.02-.7.08-.08.16,0,.23,0-.08.08,0,.08,0,.16"/>
    <path class="st3" d="M91.04,152.99c-1.09.62-1.95,1.56-2.97,2.34,1.02-1.56,2.5-2.66,3.83-4.14.23,1.64-.94,3.28-2.81,4.06.62-.94,1.56-1.41,1.95-2.26"/>
    <path class="st3" d="M87.91,155.33v-.08c.7-1.09,1.56-1.87,2.5-2.81.47-.47.94-.86,1.33-1.33.08-.08.16-.08.23-.08s.16.08.16.16c.23,1.72-.94,3.44-2.89,4.3,0,0-.08.08-.16.08-.16,0-.23-.08-.23-.23h0v-.08c.16-.31.39-.55.62-.78l-.08.08c-.39.31-.78.7-1.25,1.02-.08.08-.23.08-.31,0,.08-.16.08-.23.08-.23M91.74,151.66c-.31.31-.7.7-1.02,1.02-.39.39-.78.7-1.09,1.09.39-.31.86-.7,1.33-.94.08-.08.16,0,.23,0,.08.08.08.16.08.23-.23.47-.55.86-.94,1.17-.08.08-.23.23-.31.31,1.02-.7,1.72-1.72,1.72-2.89"/>
    <path class="st5" d="M88.3,162.13c.16.31.16.62.47.78.16-.08.08-.16.16-.31,0-.7.55-.94,1.09-1.09.39-.16.55.23.7.47.23.47.16,1.02-.23,1.41-.55.55-1.17.62-1.8.23-.55-.39-.78-.86-.39-1.48"/>
    <path class="st5" d="M87.91,162.75c0-.23.08-.47.23-.7l.23-.31.16.39c.08.08.08.16.08.23s.08.23.08.23c.08-.86.78-1.09,1.25-1.25.55-.16.78.31.94.55s.16.47.16.7c0,.39-.16.7-.47,1.02-.62.62-1.41.7-2.11.23-.31-.31-.55-.7-.55-1.09M88.3,162.68q0,.08,0,0c0,.31.16.55.47.7.55.31,1.09.23,1.56-.16.31-.31.39-.78.16-1.17-.16-.39-.23-.47-.39-.39-.62.23-.94.47-.94.94v.08c0,.23-.16.31-.23.39h-.16c-.23-.08-.31-.23-.47-.39"/>
    <path class="st3" d="M85.65,147.21c-.23-.39-.08-.7.16-.86,1.09-1.02,2.19-2.11,3.2-3.12.23-.23.47-.47.78-.16.31.31-.16.47-.31.62-1.33,1.02-2.58,2.19-3.83,3.51"/>
    <path class="st3" d="M85.34,146.82c0-.23.08-.47.31-.62.86-.86,1.72-1.72,2.58-2.5l.62-.62c.16-.16.39-.39.7-.39.16,0,.31.08.47.23.08.08.16.23.16.31,0,.23-.23.39-.39.47-.08,0-.08.08-.08.08-1.33,1.09-2.58,2.19-3.83,3.51-.08.08-.16.08-.16.08-.08,0-.16-.08-.16-.16-.16-.08-.23-.23-.23-.39M89.71,143.31l-.08-.08q-.08-.08-.16-.08c-.08,0-.23.16-.31.23l-.62.62c-.86.86-1.72,1.72-2.58,2.5-.08.08-.16.16-.16.31,1.17-1.17,2.34-2.26,3.59-3.2.08,0,.08-.08.16-.08,0-.16.16-.23.16-.23"/>
    <path class="st3" d="M85.96,145.18c.47-.86,1.25-1.33,2.03-1.8-.31.94-1.33,1.25-2.03,1.8"/>
    <path class="st3" d="M85.73,145.18v-.08c.55-.94,1.41-1.41,2.19-1.87.08-.08.16,0,.23,0,.08.08.08.16.08.23-.23.7-.86,1.09-1.48,1.41-.23.16-.47.23-.62.39,0,.08-.08.08-.16.08-.16.08-.23-.08-.23-.16h0Z"/>
    <path class="st3" d="M85.96,144.01c-.23.16-.39.16-.55.08-.16-.16-.08-.39.08-.55s.39-.16.55.08c.16.16,0,.31-.08.39"/>
    <path class="st3" d="M86.12,149.56c-.08.23-.08.47-.39.55,0-.31.08-.47.39-.55"/>
    <path class="st3" d="M85.49,150.02c0-.39.16-.62.55-.7.08,0,.16,0,.23.08.08.08.08.16.08.23v.08c-.08.23-.16.47-.55.55h-.16c-.08-.08-.16-.08-.16-.23,0,.08,0,0,0,0"/>
    <path class="st1" d="M89.48,91.06c-1.09,2.03-2.19,3.98-3.28,6.01-.23.39-.39.78-.23,1.25-.16,3.75-.23,7.42-.23,11.17-.16,2.19-.16,4.37-.16,6.56v2.42c-.08.94-.08,1.8-.08,2.73,0,2.42-.08,4.92-.16,7.34-.08,1.48,0,2.89-.16,4.37-.16,1.56-.16,3.12-.08,4.69.08,1.56-.08,1.8-1.64,1.33-1.09-.31-2.26-.55-2.89-1.72-.55-.94-1.87-1.17-2.81-.78-1.09.47-1.72,1.48-1.56,2.81.08.78,1.02,1.56,2.03,1.72.39.08.7.08,1.02.31,1.25,1.09,2.73,1.8,4.45,2.03.55.08.78.31.7.86-.16,2.03,0,4.14.23,6.17.23,1.95.7,3.9,2.03,5.54.31.39.31.47.08.86-.94,1.41-.7,2.97.62,3.98.47.31.39.47.16.86-.55.94-.16,2.19.78,2.66.94.47,1.95.31,2.66-.47.62-.7.7-1.64.08-2.5-.16-.23-.31-.31,0-.62,1.56-1.41,1.56-3.05,0-4.45-.23-.16-.31-.31-.08-.47,1.02-1.02,1.33-2.19,1.64-3.51.55-2.58.7-5.23.62-7.89,0-.7.16-.94.94-.94,2.19-.08,4.14-.86,5.78-2.26.31-.31.62-.39,1.09-.47,1.48-.16,2.11-.94,2.34-2.26.16-1.02-.7-2.11-1.72-2.34-1.33-.31-2.5.23-3.05,1.33-.16.23-.16.55-.47.62-1.41.78-2.89,1.17-4.45,1.17-.39,0-.47-.16-.47-.47v-2.11c-.16-9.61-.31-19.21-.47-28.82-.08-3.59-.16-7.18-.23-10.78v-.16c-.08-.16-.16-.31-.23-.47.08-.16,0-.23-.08-.31s-.16-.16-.16-.31c.08-.16,0-.23-.08-.31s-.08-.23-.16-.31c0-.16-.08-.31-.16-.47-.16-.31-.16-.7-.47-.94v-.16c-.08-.16-.16-.31-.23-.47,0-.23-.08-.47-.31-.62-.08-.31-.16-.55-.31-.78.08-.16,0-.23-.08-.31s-.08-.23-.16-.31c0-.23-.08-.55-.31-.55-.16.16-.31.39-.31.55M88.93,162.6c0-.7.55-.94,1.09-1.09.39-.16.55.23.7.47.23.47.16,1.02-.23,1.41-.55.55-1.17.62-1.8.23-.55-.39-.78-.86-.39-1.48.16.31.16.62.47.78.23-.16.16-.23.16-.31M86.2,133.08h0c.08-.31.08-.55,0-.86h0c.16-1.41.16-2.73.08-4.06h0c.08-.47.08-.94.08-1.41v-.62c.16-4.14.16-8.28.16-12.5v-.23c.16-1.17.08-2.34.08-3.51v-.39c.08-2.73.08-5.54.16-8.28v-2.89c0-.78.62-1.33.94-1.95,0-.08.08-.16.08-.16.16-.23.31-.47.39-.62.31-.31.55-.7.62-1.09.08,0,.08-.08.08-.16.08,0,.08-.08.16-.08.08-.08.23-.08.31-.16v2.89c0,10.54,0,21.16.08,31.71,0,3.28,0,6.56.08,9.84-.47.55-1.17.47-1.8.78-.31.16-.7.23-1.02.39h-.23c0-.08-.08-.08-.08-.16h0v-.31c-.08-2.11-.08-4.14-.16-6.17M77.29,139.64c-.55-.78-.39-1.72.39-2.34.78-.55,1.95-.39,2.5.31.55.7.31,1.8-.47,2.34-.78.62-1.87.47-2.42-.31M85.49,144.09c-.16-.16-.08-.39.08-.55s.39-.16.55.08c.16.16,0,.31-.08.39-.23.16-.47.23-.55.08M85.96,145.18c.47-.86,1.25-1.33,2.03-1.8-.31.94-1.33,1.25-2.03,1.8M85.81,146.35c1.09-1.02,2.19-2.11,3.2-3.12.23-.23.47-.47.78-.16.31.39-.16.47-.31.62-1.33,1.09-2.58,2.19-3.83,3.51-.16-.47-.08-.7.16-.86M85.73,150.1c0-.31.08-.47.39-.55-.08.23-.08.47-.39.55M91.19,157.21c.7.94.47,2.34-.55,3.05-.94.7-2.5.39-3.2-.55-.78-1.02-.55-2.34.55-3.05,1.02-.7,2.5-.47,3.2.55M89.16,155.26c.55-.94,1.48-1.41,1.87-2.26-1.09.62-1.95,1.56-2.97,2.34,1.02-1.56,2.5-2.66,3.83-4.14.23,1.64-.86,3.28-2.73,4.06M92.21,149.24c-.31.78-.94,1.48-1.48,2.11-1.09,1.17-2.34,2.19-3.44,3.44.47-2.03,2.81-2.81,3.67-4.61-1.25.7-2.19,1.72-3.28,2.58,1.17-1.87,3.2-3.05,4.53-4.92.39.55.16,1.02,0,1.41M92.37,145.03c.23.08.16.31.08.55-.23.94-.7,1.87-1.33,2.66-1.41,1.72-3.36,2.89-4.84,4.61.7-2.58,3.44-3.67,4.69-5.86-1.56,1.64-3.59,2.66-5,4.45.47-1.41,1.48-2.34,2.58-3.28,1.09-.94,2.19-1.87,3.28-2.89.16-.08.31-.31.55-.23M89.09,146.98c-.94.78-1.8,1.64-2.81,2.34,1.64-1.8,3.44-3.44,5-5.39q-.08-.08-.16-.16c-1.64,1.56-3.36,3.12-5.08,4.69.62-1.25,1.48-2.26,2.58-3.12.7-.62,1.56-1.02,2.19-1.64.39-.39.94-.16,1.33-.08.39.16,0,.47-.16.55-.86,1.02-1.87,1.95-2.89,2.81M90.8,142.21c-.7-.23-1.33-.16-2.03,0-3.05.94-5.94.78-8.51-1.09-.16-.16-.55-.23-.23-.55.23-.23.39-.55.86-.23,2.5,1.8,5.15,1.64,7.89.55.62-.23,1.02-.23,1.64,0,2.73,1.09,5.39,1.09,8.04-.47.16-.08.31-.23.55-.31.31-.16.47.08.55.23.16.16-.08.31-.23.39-.23.16-.47.31-.7.47-2.34,1.72-5,1.87-7.81,1.02M102.44,137.37c.55.78.31,1.8-.47,2.34s-1.87.31-2.42-.39c-.55-.78-.31-1.72.47-2.26.86-.55,1.87-.39,2.42.31M92.76,139.87c1.8.23,3.51-.08,5.15-.86.16-.08.47-.47.7,0,.16.39-.08.55-.31.7-2.26,1.48-4.69,1.48-7.11.62-.47-.16-.94-.47-1.41-.62-1.41.62-2.73,1.17-4.3,1.25-1.48.08-2.81-.31-3.98-1.09-.31-.23-.55-.47-.31-.78.23-.31.55.08.7.16,1.87.7,3.75,1.17,5.78.47.62-.23,1.41-.08,2.03-.08,1.09-.16,2.03.16,3.05.23M90.88,94.58c0,.23.08.31.23.47.08.16.16.31.23.47,0,.31.23.55.39.7.31.47.39,1.02.39,1.56.16,13.59.31,27.26.47,40.84,0,.55,0,.94-.78.55-.55-.23-1.09-.39-1.72-.62-.16-.31-.08-.62-.08-.86v-8.43c0-10.31-.08-20.54-.08-30.85,0-1.72-.08-3.44.16-5.15.23.47.47.86.78,1.33"/>
    <path class="st1" d="M87.45,158.54c.08.55.31.94,1.02,1.02-.39-.55-.7-1.02-.23-1.72.47-.62,1.17-.47,1.87-.7-.7-.39-1.33-.47-1.87-.08-.55.39-.86.86-.78,1.48"/>
    <path class="st5" d="M21.3,139.64c-.7-.08-1.41-.16-2.03.08-2.03.7-3.9.23-5.78-.47-.23-.08-.47-.47-.7-.16-.31.39,0,.62.31.78,1.17.86,2.5,1.17,3.98,1.09,1.56-.08,2.89-.62,4.3-1.25.47.23.86.47,1.41.62,2.42.86,4.84.86,7.11-.62.31-.16.55-.39.31-.7-.23-.47-.55-.08-.7,0-1.64.78-3.36,1.09-5.15.86-1.09-.08-2.03-.39-3.05-.23"/>
    <path class="st5" d="M12.16,139.32h0c0-.16.08-.39.23-.55.23-.23.55-.47,1.17-.08l.08.08c1.72.62,3.51,1.17,5.47.47.62-.23,1.25-.16,1.87-.08h.31c.78-.16,1.56,0,2.26.16.23.08.55.08.78.16,1.72.23,3.36-.08,4.92-.78.16-.16.47-.31.78-.23.23.08.39.16.55.39.08.16.08.31.08.39,0,.47-.39.7-.55.86-2.19,1.48-4.69,1.72-7.5.7-.39-.16-.7-.31-1.02-.47-.08-.08-.16-.08-.23-.16-1.41.62-2.73,1.17-4.3,1.17-1.64.08-3.05-.31-4.22-1.17-.31-.16-.7-.39-.7-.86M19.58,140.03c-.08,0-.16,0-.23.08-2.19.78-4.22.23-6.01-.47,1.02.7,2.19,1.02,3.59,1.02,1.02-.08,1.87-.31,2.66-.62M29.34,139.56c-1.64.7-3.36,1.02-5.15.78-.31,0-.55-.08-.86-.16-.08,0-.16,0-.23-.08,2.34.78,4.45.62,6.25-.55"/>
    <path class="st0" d="M17.94,113.71v-.23c.16-1.17.08-2.34.08-3.51v-.39c.08-2.73.08-5.54.16-8.28v-2.89c0-.78.62-1.33.94-1.95,0-.08.08-.16.08-.16.16-.23.31-.47.39-.62.31-.31.55-.7.62-1.09.08,0,.08-.08.08-.16.08,0,.08-.08.16-.08.08-.08.23-.08.31-.16v2.89c0,10.54,0,21.16.08,31.71,0,3.28,0,6.56.08,9.84-.47.55-1.17.47-1.8.78-.31.16-.7.23-1.02.39h-.23c0-.08-.08-.08-.08-.16h0v-.31c.08-2.03.16-4.06.08-6.09h0c.08-.31.08-.55,0-.86h0c.16-1.41.16-2.73.08-4.06h0c.16-.47.08-.94.08-1.41v-.62c-.08-4.3,0-8.43-.08-12.57"/>
    <path class="st0" d="M17.24,139.17h0c.08-2.11.16-4.06.08-6.09v-.23c.08-.16.08-.31,0-.55v-.16c.16-1.33.16-2.66.08-4.06v-.16h0c.08-.39.08-.86,0-1.25v-.55h0v-.16c.16-3.9.16-8.2.16-12.42v-.23c.08-.62.08-1.17.08-1.87v-2.03l.08-2.5c0-1.95.08-3.9.08-5.86v-2.97c0-.62.39-1.09.62-1.56.16-.16.23-.39.31-.55l.08-.16.47-.7s0-.08.08-.08c.23-.23.47-.55.55-.94,0-.08.08-.16.16-.23,0-.08.08-.08.08-.16l.16-.08s.08,0,.08-.08l.31-.16c.16-.08.31-.08.39,0,.16.08.23.23.23.31v44.44c0,.08,0,.16-.08.23-.39.47-.94.62-1.33.7-.23.08-.39.08-.55.16-.23.16-.55.23-.78.31-.08,0-.23.08-.31.08h-.55c-.08,0-.23-.08-.23-.16l-.08-.16c-.08-.08-.08-.16-.08-.23v-.23h0q-.08.39-.08.31M18.25,135.5c0,1.17,0,2.42-.08,3.59v.08l.16-.08c.23-.08.47-.16.62-.23.23-.16.55-.16.78-.23.31-.08.55-.16.78-.31v-43.11c-.16.23-.23.39-.47.55l-.39.7c-.16.23-.23.47-.39.7-.23.39-.47.7-.47,1.09v2.89c0,1.95-.08,3.9-.08,5.86l-.08,2.5v.39c.08,1.25.08,2.5-.08,3.51v.16c.08,4.3,0,8.51-.16,12.42v.62c.08.39.08,1.02-.08,1.48.08,1.41.08,2.73-.08,4.06.08.31.08.62,0,.94-.08.86,0,1.64,0,2.42"/>
    <path class="st0" d="M22.63,94.97c.08.16.16.31.23.47,0,.31.23.55.39.7.31.47.39,1.02.39,1.56.16,13.59.31,27.26.47,40.84,0,.55,0,.94-.78.55-.55-.23-1.09-.39-1.72-.62-.16-.31-.08-.62-.08-.86v-8.43c0-10.31-.08-20.54-.08-30.85,0-1.72-.08-3.44.08-5.15.23.39.55.86.78,1.25.08.31.16.47.31.55"/>
    <path class="st0" d="M21.06,95.83c0-1.09.08-1.87.16-2.66,0-.16.16-.31.31-.39.16,0,.39.08.47.23l.78,1.25c.08.08.08.16.08.23,0,0,0,.08.08.08s.08.08.08.16l.23.47c0,.08.08.08.08.16,0,.16.08.31.31.47.39.55.47,1.09.55,1.8.16,13.59.31,27.26.47,40.84v.16c0,.23,0,.7-.39.94-.31.16-.78,0-1.02-.16-.31-.16-.7-.31-1.09-.39-.16-.08-.39-.08-.55-.16-.08,0-.16-.08-.23-.16-.23-.39-.23-.62-.16-.94v-15.54c0-7.89-.08-15.85-.08-23.74v-1.41c-.08-.39-.08-.78-.08-1.25M21.92,94.65v3.9c0,7.89,0,15.85.08,23.74v15.38h0v.55c.08,0,.23.08.31.08.39.16.86.23,1.25.47.08,0,.08.08.16.08v-.23c-.16-13.59-.31-27.26-.47-40.84,0-.55-.08-1.02-.31-1.33-.16-.16-.39-.47-.47-.78l-.16-.31c-.23-.23-.31-.47-.39-.7h0Z"/>
    <path class="st5" d="M30.2,141.28c-2.5,1.64-5.15,1.8-7.89.94-.7-.23-1.33-.16-2.03,0-3.05.94-5.94.78-8.51-1.09-.16-.16-.55-.23-.23-.55.23-.23.39-.55.86-.23,2.5,1.8,5.15,1.64,7.89.55.62-.23,1.02-.23,1.64,0,2.73,1.09,5.39,1.09,8.04-.47.16-.08.31-.23.55-.31.31-.16.47.08.55.23.16.16-.08.31-.23.39-.08.23-.39.39-.62.55"/>
    <path class="st5" d="M11.07,140.81c0-.16.08-.39.23-.55l.08-.08c.16-.16.62-.62,1.33-.16,2.11,1.48,4.45,1.64,7.42.47.7-.31,1.25-.31,1.95,0,2.73,1.17,5.23,1.02,7.65-.39.16-.08.39-.23.62-.31.55-.23.94.16,1.02.31.16.16.16.31.16.39,0,.31-.23.47-.39.55-.23.16-.39.31-.55.39l-.23.16c-2.42,1.64-5.23,1.95-8.28,1.02-.55-.16-1.09-.16-1.72,0-3.44,1.09-6.4.62-8.9-1.17-.08-.08-.39-.31-.39-.62M12.16,140.65l-.08.08s.08,0,.08.08c2.26,1.72,4.92,2.03,8.12,1.09.86-.23,1.48-.23,2.26,0,2.73.86,5.23.55,7.42-.86-2.5,1.41-5.23,1.48-8.04.31-.47-.16-.78-.16-1.25,0-3.28,1.33-5.94,1.09-8.28-.55l-.23-.16h0"/>
    <path class="st5" d="M18.96,159.71c-.78-1.02-.55-2.34.55-3.05,1.02-.7,2.5-.39,3.2.55s.47,2.34-.55,3.05c-.94.62-2.42.39-3.2-.55"/>
    <path class="st5" d="M18.33,158.38c0-.78.39-1.48,1.09-1.95.55-.39,1.17-.47,1.8-.39.7.08,1.33.47,1.72,1.02.31.39.47.86.47,1.33,0,.78-.39,1.48-1.02,1.95-.47.39-1.17.47-1.8.39-.7-.08-1.33-.47-1.72-1.02-.39-.31-.55-.78-.55-1.33M22.86,158.46c0-.39-.16-.78-.39-1.09-.31-.47-.86-.7-1.41-.86-.55-.08-1.09,0-1.48.31-.55.39-.86.94-.86,1.56,0,.39.16.78.39,1.17.31.47.86.7,1.41.78.55.08,1.09,0,1.48-.31.62-.31.86-.94.86-1.56"/>
    <path class="st3" d="M17.55,151.51c.47-1.41,1.48-2.34,2.58-3.28s2.19-1.87,3.28-2.89c.16-.16.23-.31.47-.23.23.08.16.31.08.55-.23.94-.7,1.87-1.33,2.66-1.41,1.72-3.36,2.89-4.84,4.61.7-2.58,3.44-3.67,4.69-5.86-1.48,1.56-3.51,2.66-4.92,4.45"/>
    <path class="st3" d="M17.39,151.51q0-.08,0,0c.47-1.48,1.56-2.5,2.66-3.44.23-.23.55-.47.78-.7.86-.7,1.64-1.41,2.42-2.19l.08-.08c.08-.16.39-.39.7-.23.16.08.31.23.31.47,0,.08,0,.23-.08.31-.23,1.02-.7,1.95-1.41,2.81s-1.64,1.64-2.42,2.34c-.86.7-1.64,1.41-2.34,2.26-.08.08-.16.08-.23.08-.08-.08-.16-.16-.08-.23.39-1.48,1.48-2.5,2.58-3.44-.86.7-1.72,1.41-2.42,2.26,0,.08-.08.16-.23.16-.23-.23-.31-.31-.31-.39h0ZM22.78,146.98v.08c-.55.94-1.33,1.72-2.19,2.42-.78.7-1.56,1.41-2.03,2.26.47-.47,1.02-.94,1.56-1.41.86-.7,1.72-1.48,2.42-2.26.62-.78,1.09-1.64,1.33-2.58.08-.16.08-.23,0-.31,0,0-.08,0-.16.16l-.08.08c-.78.78-1.64,1.56-2.5,2.26-.23.23-.55.47-.78.7-.62.55-1.25,1.17-1.72,1.8.55-.47,1.09-.94,1.64-1.33.78-.55,1.56-1.17,2.19-1.87.08-.08.23-.08.31,0-.08-.08,0-.08,0,0"/>
    <path class="st5" d="M8.8,139.64c-.55-.78-.39-1.72.39-2.34.78-.55,1.95-.39,2.5.31s.31,1.8-.47,2.34c-.78.62-1.87.47-2.42-.31"/>
    <path class="st5" d="M8.02,138.7c0-.7.31-1.25.94-1.72.47-.31,1.09-.47,1.64-.39s1.09.39,1.41.78c.62.86.39,2.26-.55,2.89-1.02.7-2.34.47-3.05-.47-.23-.23-.39-.7-.39-1.09M11.54,138.62c0-.23-.08-.47-.23-.7-.16-.23-.47-.39-.86-.47s-.7,0-1.02.23c-.62.39-.7,1.17-.31,1.72.47.55,1.25.7,1.87.31.31-.31.55-.7.55-1.09"/>
    <path class="st5" d="M31.53,136.98c.78-.55,1.87-.39,2.42.39.55.78.31,1.8-.47,2.34s-1.87.31-2.42-.39c-.55-.78-.31-1.72.47-2.34"/>
    <path class="st5" d="M30.36,138.39c0-.7.39-1.33.94-1.72.47-.31,1.09-.47,1.64-.39.55.08,1.02.39,1.41.86.62.94.39,2.26-.55,2.89-1.02.62-2.34.39-3.05-.47-.31-.31-.39-.78-.39-1.17M33.87,138.31c0-.23-.08-.47-.23-.7-.16-.23-.47-.47-.78-.47-.31-.08-.7,0-1.02.23-.62.39-.78,1.17-.39,1.72s1.25.7,1.87.31c.31-.23.55-.62.55-1.09"/>
    <path class="st3" d="M17.78,149.24c1.64-1.8,3.44-3.44,5-5.39q-.08-.08-.16-.16l-5.08,4.69c.62-1.25,1.48-2.26,2.58-3.12.7-.62,1.56-1.02,2.19-1.64.39-.39.94-.16,1.33-.08.39.16,0,.47-.16.55-.78,1.02-1.8,1.95-2.89,2.81-.94.78-1.8,1.72-2.81,2.34"/>
    <path class="st3" d="M17.32,148.38v-.08c.55-1.17,1.41-2.19,2.58-3.2.31-.23.62-.47.94-.7.47-.31.86-.62,1.25-.94.47-.47,1.02-.31,1.41-.16h.08c.31.08.31.31.31.39,0,.16-.16.31-.23.47l-.08.08c-.7.94-1.72,1.87-2.89,2.81-.39.31-.7.62-1.09.94-.55.47-1.09.94-1.72,1.41q-.08.08-.16.08c-.16,0-.23-.08-.23-.23q0-.08.08-.16c.62-.7,1.33-1.41,1.95-2.03s1.25-1.25,1.8-1.87l-3.67,3.44c-.08.08-.16.08-.31,0,.08-.08,0-.16,0-.23M21.14,144.79h0c-.31.23-.62.39-.86.62-.7.62-1.25,1.17-1.72,1.8l2.58-2.42ZM22.94,143.85q0,.08-.08.16c-.78,1.02-1.72,1.95-2.58,2.89q.08-.08.16-.08c1.17-.94,2.11-1.8,2.81-2.73l.08-.08c0-.08.08-.08.16-.16h-.08c-.23-.08-.47-.16-.62-.16l.16.16c0-.08,0,0,0,0"/>
    <path class="st3" d="M18.8,154.79c.47-2.03,2.81-2.81,3.67-4.61-1.25.7-2.19,1.72-3.28,2.58,1.17-1.87,3.2-3.05,4.53-4.92.31.55.16,1.02-.08,1.41-.31.78-.94,1.48-1.48,2.11-1.02,1.25-2.26,2.26-3.36,3.44"/>
    <path class="st3" d="M18.56,154.79h0c.31-1.25,1.17-2.03,2.03-2.73.47-.39.86-.78,1.17-1.17-.55.39-1.02.86-1.56,1.25-.31.23-.55.47-.86.78-.08.08-.23.08-.31,0s-.08-.16-.08-.23c.62-.94,1.48-1.8,2.34-2.58.78-.7,1.56-1.48,2.26-2.42q.08-.08.16-.08c.08,0,.16.08.16.08.16.23.23.47.23.7,0,.31-.16.62-.23.86-.39.86-.94,1.56-1.56,2.19-.55.62-1.17,1.17-1.8,1.8-.55.55-1.09,1.09-1.64,1.64,0,.08-.08.08-.16.08-.08.08-.16,0-.16-.16h0ZM22.7,150.18v.08c-.39.86-1.09,1.48-1.8,2.11-.55.47-1.02.86-1.41,1.41.23-.23.55-.55.86-.78.62-.55,1.17-1.09,1.72-1.72s1.09-1.25,1.48-2.03c.16-.31.23-.62.23-.94-.62.78-1.33,1.48-2.03,2.11-.08.08-.23.23-.31.31.31-.23.7-.47,1.02-.7.08-.08.16,0,.23,0v.16"/>
    <path class="st3" d="M22.55,152.99c-1.09.62-1.95,1.56-2.97,2.34,1.02-1.56,2.5-2.66,3.83-4.14.23,1.64-.94,3.28-2.81,4.06.62-.94,1.64-1.41,1.95-2.26"/>
    <path class="st3" d="M19.42,155.33v-.08c.7-1.09,1.56-1.87,2.5-2.81.47-.47.94-.86,1.33-1.33.08-.08.16-.08.23-.08s.16.08.16.16c.23,1.72-.94,3.44-2.89,4.3,0,0-.08.08-.16.08-.16,0-.23-.08-.23-.23h0v-.08c.16-.31.39-.55.62-.78l-.08.08c-.39.31-.78.7-1.25,1.02-.08.08-.23.08-.31,0,.08-.16.08-.23.08-.23M23.25,151.66c-.31.31-.7.7-1.02,1.02-.39.39-.78.7-1.09,1.09.39-.31.86-.7,1.33-.94.08-.08.16,0,.23,0,.08.08.08.16.08.23-.23.47-.55.86-.94,1.17-.08.08-.23.23-.31.31,1.02-.7,1.72-1.72,1.72-2.89"/>
    <path class="st5" d="M19.89,162.13c.16.31.16.62.47.78.16-.08.08-.16.16-.31,0-.7.55-.94,1.09-1.09.39-.16.55.23.7.47.23.47.16,1.02-.23,1.41-.55.55-1.17.62-1.8.23-.62-.39-.78-.86-.39-1.48"/>
    <path class="st5" d="M19.42,162.75c0-.23.08-.47.23-.7l.23-.31.16.39c.08.08.08.16.08.23s.08.23.08.23c.08-.86.78-1.09,1.25-1.25.55-.16.78.31.94.55s.16.47.16.7c0,.39-.16.7-.47,1.02-.62.62-1.41.7-2.11.23-.31-.31-.55-.7-.55-1.09M19.89,162.68q0,.08,0,0c0,.31.16.55.47.7.55.31,1.09.23,1.56-.16.31-.31.39-.78.16-1.17-.16-.39-.23-.47-.39-.39-.62.23-.94.47-.94.94v.08c0,.23-.16.31-.23.39h-.16c-.31-.08-.39-.23-.47-.39"/>
    <path class="st3" d="M17.16,147.21c-.23-.39-.08-.7.16-.86,1.09-1.02,2.19-2.11,3.2-3.12.23-.23.47-.47.78-.16.31.31-.16.47-.31.62-1.33,1.02-2.58,2.19-3.83,3.51"/>
    <path class="st3" d="M16.85,146.82c0-.23.08-.47.31-.62.86-.86,1.72-1.72,2.58-2.5l.62-.62c.16-.16.39-.39.7-.39.16,0,.31.08.47.23.08.08.16.23.16.31,0,.23-.23.39-.39.47-.08,0-.08.08-.08.08-1.33,1.09-2.58,2.19-3.83,3.51-.08.08-.16.08-.16.08-.08,0-.16-.08-.16-.16-.16-.08-.23-.23-.23-.39M21.22,143.31l-.08-.08q-.08-.08-.16-.08c-.08,0-.23.16-.31.23l-.62.62c-.86.86-1.72,1.72-2.58,2.5-.08.08-.16.16-.16.31,1.17-1.17,2.34-2.26,3.59-3.2.08,0,.08-.08.16-.08,0-.16.16-.23.16-.23"/>
    <path class="st3" d="M17.47,145.18c.47-.86,1.25-1.33,2.03-1.8-.31.94-1.33,1.25-2.03,1.8"/>
    <path class="st3" d="M17.24,145.18v-.08c.55-.94,1.41-1.41,2.19-1.87.08-.08.16,0,.23,0,.08.08.08.16.08.23-.23.7-.86,1.09-1.48,1.41-.23.16-.47.23-.62.39q-.08.08-.16.08c-.16.08-.23-.08-.23-.16h0Z"/>
    <path class="st3" d="M17.55,144.01c-.23.16-.39.16-.55.08-.16-.16-.08-.39.08-.55s.39-.16.55.08c.08.16-.08.31-.08.39"/>
    <path class="st3" d="M17.63,149.56c-.08.23-.08.47-.39.55,0-.31.08-.47.39-.55"/>
    <path class="st3" d="M17,150.02c0-.39.16-.62.55-.7.08,0,.16,0,.23.08.08.08.08.16.08.23v.08c-.08.23-.16.47-.55.55h-.16c-.08-.08-.16-.08-.16-.23,0,.08,0,0,0,0"/>
    <path class="st1" d="M20.99,91.06c-1.09,2.03-2.19,3.98-3.28,6.01-.23.39-.39.78-.23,1.25-.16,3.75-.23,7.42-.23,11.17-.16,2.19-.16,4.37-.16,6.56v2.42c-.08.94-.08,1.8-.08,2.73,0,2.42-.08,4.92-.16,7.34-.08,1.48,0,2.89-.16,4.37-.08,1.56-.16,3.12-.08,4.69.08,1.56-.08,1.8-1.64,1.33-1.09-.31-2.26-.55-2.89-1.72-.55-.94-1.87-1.17-2.81-.78-1.09.47-1.72,1.48-1.56,2.81.08.78,1.02,1.56,2.03,1.72.39.08.7.08,1.02.31,1.25,1.09,2.73,1.8,4.45,2.03.55.08.78.31.7.86-.16,2.03,0,4.14.23,6.17.23,1.95.7,3.9,2.03,5.54.31.39.31.47.08.86-.94,1.41-.7,2.97.62,3.98.47.31.39.47.16.86-.55.94-.16,2.19.78,2.66.94.47,1.95.31,2.66-.47.62-.7.7-1.64.08-2.5-.16-.23-.31-.31,0-.62,1.56-1.41,1.56-3.05,0-4.45-.23-.16-.31-.31-.08-.47,1.02-1.02,1.33-2.19,1.64-3.51.55-2.58.7-5.23.62-7.89,0-.7.16-.94.94-.94,2.19-.08,4.14-.86,5.78-2.26.31-.31.62-.39,1.09-.47,1.48-.16,2.11-.94,2.34-2.26.16-1.02-.7-2.11-1.72-2.34-1.33-.31-2.5.23-3.05,1.33-.16.23-.16.55-.47.62-1.41.78-2.89,1.17-4.45,1.17-.39,0-.47-.16-.47-.47v-2.11c-.16-9.61-.31-19.21-.47-28.82-.08-3.59-.16-7.18-.23-10.78v-.16c-.08-.16-.16-.31-.23-.47.08-.16,0-.23-.08-.31s-.16-.16-.16-.31c.08-.16,0-.23-.08-.31s-.08-.23-.16-.31c0-.16-.08-.31-.16-.47-.16-.31-.16-.7-.47-.94v-.16c-.08-.16-.16-.31-.23-.47,0-.23-.08-.47-.31-.62-.08-.31-.16-.55-.31-.78.08-.16,0-.23-.08-.31s-.08-.23-.16-.31c0-.23-.08-.55-.31-.55-.16.16-.23.39-.31.55M20.52,162.6c0-.7.55-.94,1.09-1.09.39-.16.55.23.7.47.23.47.16,1.02-.23,1.41-.55.55-1.17.62-1.8.23-.55-.39-.78-.86-.39-1.48.16.31.16.62.47.78.16-.16.08-.23.16-.31M17.71,133.08h0c.08-.31.08-.55,0-.86h0c.16-1.41.16-2.73.08-4.06h0c.08-.47.08-.94.08-1.41v-.62c.16-4.14.16-8.28.16-12.5v-.23c.16-1.17.08-2.34.08-3.51v-.39c.08-2.73.08-5.54.16-8.28v-2.89c0-.78.62-1.33.94-1.95,0-.08.08-.16.08-.16.16-.23.31-.47.39-.62.31-.31.55-.7.62-1.09.08,0,.08-.08.08-.16.08,0,.08-.08.16-.08.08-.08.23-.08.31-.16v2.89c0,10.54,0,21.16.08,31.71,0,3.28,0,6.56.08,9.84-.47.55-1.17.47-1.8.78-.31.16-.7.23-1.02.39h-.23c0-.08-.08-.08-.08-.16h0v-.31c-.08-2.11-.08-4.14-.16-6.17M8.8,139.64c-.55-.78-.39-1.72.39-2.34.78-.55,1.95-.39,2.5.31s.31,1.8-.47,2.34c-.78.62-1.87.47-2.42-.31M17,144.09c-.16-.16-.08-.39.08-.55s.39-.16.55.08c.16.16,0,.31-.08.39-.23.16-.47.23-.55.08M17.47,145.18c.47-.86,1.25-1.33,2.03-1.8-.31.94-1.33,1.25-2.03,1.8M17.32,146.35c1.09-1.02,2.19-2.11,3.2-3.12.23-.23.47-.47.78-.16.31.39-.16.47-.31.62-1.33,1.09-2.58,2.19-3.83,3.51-.16-.47-.08-.7.16-.86M17.24,150.1c0-.31.08-.47.39-.55-.08.23-.08.47-.39.55M22.7,157.21c.7.94.47,2.34-.55,3.05-.94.7-2.5.39-3.2-.55-.78-1.02-.55-2.34.55-3.05,1.02-.7,2.5-.47,3.2.55M20.67,155.26c.55-.94,1.48-1.41,1.87-2.26-1.09.62-1.95,1.56-2.97,2.34,1.02-1.56,2.5-2.66,3.83-4.14.31,1.64-.86,3.28-2.73,4.06M23.72,149.24c-.31.78-.94,1.48-1.48,2.11-1.09,1.17-2.34,2.19-3.44,3.44.47-2.03,2.81-2.81,3.67-4.61-1.25.7-2.19,1.72-3.28,2.58,1.17-1.87,3.2-3.05,4.53-4.92.39.55.16,1.02,0,1.41M23.88,145.03c.23.08.16.31.08.55-.23.94-.7,1.87-1.33,2.66-1.41,1.72-3.36,2.89-4.84,4.61.7-2.58,3.44-3.67,4.69-5.86-1.56,1.64-3.59,2.66-5,4.45.47-1.41,1.48-2.34,2.58-3.28s2.19-1.87,3.28-2.89c.23-.08.31-.31.55-.23M20.6,146.98c-.94.78-1.8,1.64-2.81,2.34,1.64-1.8,3.44-3.44,5-5.39q-.08-.08-.16-.16c-1.64,1.56-3.36,3.12-5.08,4.69.62-1.25,1.48-2.26,2.58-3.12.7-.62,1.56-1.02,2.19-1.64.39-.39.94-.16,1.33-.08.39.16,0,.47-.16.55-.86,1.02-1.8,1.95-2.89,2.81M22.39,142.21c-.7-.23-1.33-.16-2.03,0-3.05.94-5.94.78-8.51-1.09-.16-.16-.55-.23-.23-.55.23-.23.39-.55.86-.23,2.5,1.8,5.15,1.64,7.89.55.62-.23,1.02-.23,1.64,0,2.73,1.09,5.39,1.09,8.04-.47.16-.08.31-.23.55-.31.31-.16.47.08.55.23.16.16-.08.31-.23.39-.23.16-.47.31-.7.47-2.42,1.72-5.08,1.87-7.81,1.02M34.03,137.37c.55.78.31,1.8-.47,2.34-.78.55-1.87.31-2.42-.39-.55-.78-.31-1.72.47-2.26.78-.55,1.87-.39,2.42.31M24.27,139.87c1.8.23,3.51-.08,5.15-.86.16-.08.47-.47.7,0,.16.39-.08.55-.31.7-2.26,1.48-4.69,1.48-7.11.62-.47-.16-.94-.47-1.41-.62-1.41.62-2.73,1.17-4.3,1.25-1.48.08-2.81-.31-3.98-1.09-.31-.23-.55-.47-.31-.78.23-.31.55.08.7.16,1.87.7,3.75,1.17,5.78.47.62-.23,1.41-.08,2.03-.08,1.09-.16,2.03.16,3.05.23M22.39,94.58c0,.23.08.31.23.47.08.16.16.31.23.47,0,.31.23.55.39.7.31.47.39,1.02.39,1.56.16,13.59.31,27.26.47,40.84,0,.55,0,.94-.78.55-.55-.23-1.09-.39-1.72-.62-.16-.31-.08-.62-.08-.86v-8.43c0-10.31-.08-20.54-.08-30.85,0-1.72-.08-3.44.08-5.15.31.47.62.86.86,1.33"/>
    <path class="st1" d="M18.96,158.54c.08.55.31.94,1.02,1.02-.39-.55-.7-1.02-.23-1.72.47-.62,1.17-.47,1.87-.7-.7-.39-1.33-.47-1.87-.08-.55.39-.86.86-.78,1.48"/>
    <path class="st5" d="M55.89,62.56c-.7-.08-1.41-.16-2.03.08-2.03.7-3.9.23-5.78-.47-.23-.08-.47-.47-.7-.16-.31.39,0,.62.31.78,1.17.86,2.5,1.17,3.98,1.09,1.56-.08,2.89-.62,4.3-1.25.47.23.86.47,1.41.62,2.42.86,4.84.86,7.11-.62.31-.16.55-.39.31-.7-.23-.47-.55-.08-.7,0-1.64.78-3.36,1.09-5.15.86-1.09-.08-2.03-.39-3.05-.23"/>
    <path class="st5" d="M46.84,62.32h0c0-.16.08-.39.23-.55.23-.23.55-.47,1.17-.08l.08.08c1.72.62,3.51,1.17,5.47.47.62-.23,1.25-.16,1.87-.08h.31c.78-.16,1.56,0,2.26.16.23.08.55.08.78.16,1.72.23,3.36-.08,4.92-.78.16-.16.47-.31.78-.23.23.08.39.16.55.39.08.16.08.31.08.39,0,.47-.39.7-.55.86-2.19,1.48-4.69,1.72-7.5.7-.39-.16-.7-.31-1.02-.47-.08-.08-.16-.08-.23-.16-1.41.62-2.73,1.17-4.3,1.17-1.64.08-3.05-.31-4.22-1.17-.39-.16-.7-.39-.7-.86M54.25,62.95c-.08,0-.16,0-.23.08-2.19.78-4.22.23-6.01-.47,1.02.7,2.19,1.02,3.59,1.02.94-.08,1.8-.31,2.66-.62M63.94,62.56c-1.64.7-3.36,1.02-5.15.78-.31,0-.55-.08-.86-.16-.08,0-.16,0-.23-.08,2.42.78,4.45.55,6.25-.55"/>
    <path class="st0" d="M52.54,36.63v-.23c.16-1.17.08-2.34.08-3.51v-.39c.08-2.73.08-5.54.16-8.28v-2.89c0-.78.62-1.33.94-1.95,0-.08.08-.16.08-.16.16-.23.31-.47.39-.62.31-.31.55-.7.62-1.09.08,0,.08-.08.08-.16.08,0,.08-.08.16-.08.08-.08.23-.08.31-.16v2.89c0,10.54,0,21.16.08,31.71,0,3.28,0,6.56.08,9.84-.39.55-1.17.47-1.8.78-.31.16-.7.23-1.02.39h-.23c0-.08-.08-.08-.08-.16h0v-.31c.08-2.03.16-4.06.08-6.09h0c.08-.31.08-.55,0-.86h0c.16-1.41.16-2.73.08-4.06h0c.16-.47.08-.94.08-1.41v-.62c-.08-4.22,0-8.43-.08-12.57"/>
    <path class="st0" d="M51.83,62.17s0-.08,0,0c.08-2.11.16-4.06.08-6.09v-.23c.08-.16.08-.31,0-.55v-.16c.16-1.33.16-2.66.08-4.06v-.16h0c.08-.39.08-.86,0-1.25v-.55h0v-.16c.16-3.9.16-8.2.16-12.42v-.23c.08-.62.08-1.17.08-1.87v-2.03l.08-2.5c0-1.95.08-3.9.08-5.86v-2.97c0-.62.39-1.09.62-1.56.16-.16.23-.39.31-.55l.08-.16.47-.7s0-.08.08-.08c.23-.23.47-.55.55-.94,0-.08.08-.16.16-.23,0-.08.08-.08.08-.16l.16-.08s.08,0,.08-.08l.31-.16c.16-.08.31-.08.39,0,.16.08.23.23.23.31v44.44c0,.08,0,.16-.08.23-.39.47-.94.62-1.33.7-.23.08-.39.08-.55.16-.23.16-.55.23-.78.31-.08,0-.23.08-.31.08h-.55c-.08,0-.23-.08-.23-.16l-.08-.16c-.08-.08-.08-.16-.08-.23v-.23h0c-.08.39-.08.31-.08.31M52.85,58.5c0,1.17,0,2.42-.08,3.59v.08q.08,0,.16-.08c.23-.08.47-.16.62-.23.23-.16.55-.16.78-.23.31-.08.55-.16.78-.31V18.2c-.16.23-.23.39-.47.55l-.55.78c-.16.23-.23.47-.39.7-.23.39-.47.7-.47,1.09v2.89c0,1.95-.08,3.9-.08,5.86l-.08,2.5v.39c.08,1.25.08,2.5-.08,3.51v.16c.08,4.3,0,8.51-.16,12.42v.62c.08.39.08,1.02,0,1.48.08,1.41.08,2.73-.08,4.06.08.31.08.62,0,.94,0,.7.08,1.48.08,2.34"/>
    <path class="st0" d="M57.22,17.96c.08.16.16.31.23.47,0,.31.23.55.39.7.31.47.39,1.02.39,1.56.23,13.59.39,27.26.55,40.84,0,.55,0,.94-.78.55-.55-.23-1.09-.39-1.72-.62-.16-.31-.08-.62-.08-.86v-8.43c0-10.31-.08-20.54-.08-30.85,0-1.72-.08-3.44.08-5.15.23.39.55.86.78,1.25,0,.31.08.39.23.55"/>
    <path class="st0" d="M55.66,18.82c0-1.09.08-1.87.16-2.66,0-.16.16-.31.31-.39.16,0,.39.08.47.23l.78,1.25c.08.08.08.16.08.23,0,0,0,.08.08.08s.08.08.08.16l.23.47c0,.08.08.08.08.16,0,.16.08.31.31.47.39.55.47,1.09.55,1.8.16,13.59.31,27.26.47,40.84v.16c0,.23,0,.7-.39.94-.31.16-.78,0-1.09-.16s-.7-.31-1.09-.39c-.16-.08-.39-.08-.55-.16-.08,0-.16-.08-.23-.16-.23-.39-.23-.62-.16-.94v-15.54c-.08-7.89-.08-15.78-.08-23.66v-2.73M56.52,17.57v3.9c0,7.89,0,15.85.08,23.74v15.38h0v.55c.08,0,.23.08.31.08.39.16.86.23,1.25.47.08,0,.08.08.16.08v-.23c-.16-13.59-.31-27.26-.47-40.84,0-.55-.08-1.02-.31-1.33-.16-.16-.39-.47-.47-.78l-.16-.31c-.23-.23-.31-.39-.39-.7h0Z"/>
    <path class="st5" d="M64.88,64.27c-2.5,1.64-5.15,1.8-7.89.94-.7-.23-1.33-.16-2.03,0-3.05.94-5.94.78-8.51-1.09-.16-.16-.55-.23-.23-.55.23-.23.39-.55.86-.23,2.5,1.8,5.15,1.64,7.89.55.62-.23,1.02-.23,1.64,0,2.73,1.09,5.39,1.09,8.04-.47.16-.08.31-.23.55-.31.31-.16.47.08.55.23.16.16-.08.31-.23.39-.16.23-.39.39-.62.55"/>
    <path class="st5" d="M45.66,63.81c0-.16.08-.39.23-.55l.08-.08c.16-.16.62-.62,1.33-.16,2.11,1.48,4.45,1.64,7.42.47.7-.31,1.25-.31,1.95,0,2.73,1.17,5.23,1.02,7.65-.39.16-.08.39-.23.62-.31.55-.23.94.16,1.02.31.16.16.16.31.16.39,0,.31-.23.47-.39.55-.23.16-.39.31-.55.39l-.23.16c-2.42,1.64-5.23,1.95-8.28,1.02-.55-.16-1.09-.16-1.72,0-3.44,1.09-6.4.62-8.9-1.17-.08-.16-.39-.31-.39-.62M46.76,63.65l-.08.08s.08,0,.08.08c2.26,1.72,4.92,2.03,8.12,1.09.86-.23,1.48-.23,2.26,0,2.73.86,5.23.55,7.42-.86-2.5,1.41-5.23,1.48-8.04.31-.47-.16-.78-.16-1.25,0-3.28,1.33-5.94,1.09-8.28-.55l-.23-.16h0"/>
    <path class="st5" d="M53.63,82.63c-.78-1.02-.55-2.34.55-3.05,1.02-.7,2.5-.39,3.2.55s.47,2.34-.55,3.05c-1.02.7-2.5.47-3.2-.55"/>
    <path class="st5" d="M52.93,81.38c0-.78.39-1.48,1.09-1.95.55-.39,1.17-.47,1.8-.39.7.08,1.33.47,1.72,1.02.31.39.47.86.47,1.33,0,.78-.39,1.48-1.02,1.95-.47.39-1.17.47-1.8.39-.7-.08-1.33-.47-1.72-1.02-.39-.39-.55-.86-.55-1.33M57.53,81.38c0-.39-.16-.78-.39-1.09-.31-.47-.86-.7-1.41-.86-.55-.08-1.09,0-1.48.31-.55.39-.86.94-.86,1.56,0,.39.16.78.39,1.17.31.47.86.7,1.41.78.55.08,1.09,0,1.48-.31.55-.31.86-.86.86-1.56"/>
    <path class="st3" d="M52.15,74.43c.47-1.41,1.48-2.34,2.58-3.28,1.09-.94,2.19-1.87,3.28-2.89.16-.16.23-.31.47-.23.23.08.16.31.08.55-.23.94-.7,1.87-1.33,2.66-1.41,1.72-3.36,2.89-4.84,4.61.7-2.58,3.44-3.67,4.69-5.86-1.41,1.64-3.51,2.66-4.92,4.45"/>
    <path class="st3" d="M51.99,74.43h0c.47-1.48,1.56-2.5,2.66-3.44.23-.23.55-.47.78-.7.86-.7,1.64-1.41,2.42-2.19l.08-.08c.08-.16.39-.39.7-.23.16.08.31.23.31.47,0,.08,0,.23-.08.31-.23,1.02-.7,1.95-1.41,2.81-.7.86-1.64,1.64-2.42,2.34-.86.7-1.64,1.41-2.34,2.26-.08.08-.16.08-.23.08-.08-.08-.16-.16-.08-.23.39-1.48,1.48-2.5,2.58-3.44-.86.7-1.72,1.41-2.42,2.26,0,.08-.08.16-.23.16-.23-.16-.31-.23-.31-.39h0ZM57.38,69.98v.08c-.55.94-1.41,1.72-2.19,2.42s-1.56,1.41-2.03,2.26c.47-.47,1.02-.94,1.56-1.41.86-.7,1.72-1.48,2.42-2.26.62-.78,1.09-1.64,1.33-2.58.08-.16.08-.23,0-.31,0,0-.08,0-.16.16l-.08.08c-.78.78-1.64,1.56-2.5,2.26-.23.23-.55.47-.78.7-.62.55-1.25,1.17-1.72,1.8.55-.47,1.09-.94,1.64-1.33.78-.55,1.56-1.17,2.19-1.87.08-.08.23-.08.31,0-.08-.16,0-.08,0,0"/>
    <path class="st5" d="M43.4,62.63c-.55-.78-.39-1.72.39-2.34.78-.55,1.95-.39,2.5.31s.31,1.8-.47,2.34-1.8.39-2.42-.31"/>
    <path class="st5" d="M42.62,61.62c0-.7.31-1.25.94-1.72.47-.31,1.09-.47,1.64-.39.55.08,1.09.39,1.41.78.62.86.39,2.26-.55,2.89-1.02.7-2.34.47-3.05-.47-.23-.23-.39-.62-.39-1.09M46.13,61.54c0-.23-.08-.47-.23-.7s-.47-.39-.86-.47-.7,0-1.02.23c-.62.39-.7,1.17-.31,1.72.47.55,1.25.7,1.87.31.39-.23.55-.62.55-1.09"/>
    <path class="st5" d="M66.2,59.98c.78-.55,1.87-.39,2.42.39s.31,1.8-.47,2.34c-.78.55-1.87.31-2.42-.39-.62-.78-.39-1.8.47-2.34"/>
    <path class="st5" d="M64.95,61.38c0-.7.39-1.33.94-1.72.47-.31,1.09-.47,1.64-.39s1.02.39,1.41.86c.62.94.39,2.26-.55,2.89-1.02.62-2.34.39-3.05-.47-.23-.39-.39-.78-.39-1.17M68.47,61.31c0-.23-.08-.47-.23-.7-.16-.23-.47-.47-.78-.47-.31-.08-.7,0-1.02.23-.62.39-.78,1.17-.39,1.72s1.25.7,1.87.31c.31-.31.55-.7.55-1.09"/>
    <path class="st3" d="M52.38,72.24c1.64-1.8,3.44-3.44,5-5.39l-.16-.16-5.08,4.69c.62-1.25,1.48-2.26,2.58-3.12.7-.62,1.56-1.02,2.19-1.64.39-.39.94-.16,1.33-.08.39.16,0,.47-.16.55-.78,1.02-1.8,1.95-2.89,2.81-.94.78-1.8,1.64-2.81,2.34"/>
    <path class="st3" d="M51.91,71.38v-.08c.55-1.17,1.41-2.19,2.58-3.2.31-.23.62-.47.94-.7.47-.31.86-.62,1.25-.94.47-.47,1.02-.31,1.41-.16h.08c.31.08.31.31.31.39,0,.16-.16.31-.23.47l-.08.08c-.7.94-1.72,1.87-2.89,2.81-.39.31-.7.62-1.09.94-.55.47-1.09.94-1.72,1.41q-.08.08-.16.08c-.16,0-.23-.08-.23-.23q0-.08.08-.16c.62-.7,1.33-1.41,1.95-2.03.62-.62,1.25-1.25,1.8-1.87l-3.67,3.44c-.08.08-.16.08-.31,0,.08-.08,0-.16,0-.23M55.74,67.79h0c-.31.23-.62.39-.86.62-.7.62-1.25,1.17-1.72,1.8l2.58-2.42ZM57.53,66.85q0,.08-.08.16c-.78,1.02-1.72,1.95-2.58,2.89q.08-.08.16-.08c1.17-.94,2.11-1.8,2.81-2.73l.08-.08c0-.08.08-.08.16-.16h-.08c-.23-.08-.47-.16-.62-.16l.16.16q0-.08,0,0"/>
    <path class="st3" d="M53.4,77.79c.47-2.03,2.81-2.81,3.67-4.61-1.25.7-2.19,1.72-3.28,2.58,1.17-1.87,3.2-3.05,4.53-4.92.31.55.16,1.02-.08,1.41-.31.78-.94,1.48-1.48,2.11-1.02,1.17-2.26,2.19-3.36,3.44"/>
    <path class="st3" d="M53.16,77.79s0-.08,0,0c.31-1.25,1.17-2.03,2.03-2.73.47-.39.86-.78,1.17-1.17-.55.39-1.02.86-1.56,1.25-.31.23-.55.47-.86.78-.08.08-.23.08-.31,0s-.08-.16-.08-.23c.62-.94,1.48-1.8,2.34-2.58.78-.7,1.56-1.48,2.26-2.42q.08-.08.16-.08c.08,0,.16.08.16.08.16.23.23.47.23.7,0,.31-.16.62-.23.86-.39.86-.94,1.56-1.56,2.19-.55.62-1.17,1.17-1.8,1.8-.55.55-1.09,1.09-1.64,1.64,0,.08-.08.08-.16.08,0,.08-.16-.08-.16-.16h0ZM57.3,73.18v.08c-.39.86-1.09,1.48-1.8,2.11-.55.47-1.02.86-1.41,1.41.23-.23.55-.55.86-.78.62-.55,1.17-1.09,1.72-1.72.55-.62,1.09-1.25,1.48-2.03.16-.31.23-.62.23-.94-.62.78-1.33,1.48-2.03,2.11l-.31.31c.31-.23.7-.47,1.02-.7.08-.08.16,0,.23,0v.16"/>
    <path class="st3" d="M57.22,75.99c-1.09.62-1.95,1.56-2.97,2.34,1.02-1.56,2.5-2.66,3.83-4.14.23,1.64-.94,3.28-2.81,4.06.55-1.02,1.56-1.41,1.95-2.26"/>
    <path class="st3" d="M54.02,78.25v-.08c.7-1.09,1.56-1.87,2.5-2.81.47-.47.94-.86,1.33-1.33.08-.08.16-.08.23-.08s.16.08.16.16c.23,1.72-.94,3.44-2.89,4.3,0,0-.08.08-.16.08-.16,0-.23-.08-.23-.23h0v-.08c.16-.31.39-.55.62-.78l-.08.08c-.39.31-.78.7-1.25,1.02-.08.08-.23.08-.31,0,.08-.08.08-.16.08-.23M57.85,74.66l-1.02,1.02c-.39.39-.78.7-1.09,1.09.39-.31.86-.7,1.33-.94.08-.08.16,0,.23,0,.08.08.08.16.08.23-.23.47-.55.86-.94,1.17l-.31.31c1.09-.7,1.72-1.8,1.72-2.89"/>
    <path class="st5" d="M54.49,85.05c.16.31.16.62.47.78.16-.08.08-.16.16-.31,0-.7.55-.94,1.09-1.09.39-.16.55.23.7.47.23.47.16,1.02-.23,1.41-.55.55-1.17.62-1.8.23-.62-.31-.78-.86-.39-1.48"/>
    <path class="st5" d="M54.02,85.67c0-.23.08-.47.23-.7l.23-.31.16.39c.08.08.08.16.08.23s.08.23.08.23c.08-.86.78-1.09,1.25-1.25.55-.16.78.31.94.55.16.23.16.47.16.7,0,.39-.16.7-.47,1.02-.62.62-1.41.7-2.11.23-.31-.31-.55-.62-.55-1.09M54.49,85.67h0c0,.31.16.55.47.7.55.31,1.09.23,1.56-.16.31-.31.39-.78.16-1.17-.16-.39-.23-.47-.39-.39-.62.23-.94.47-.94.94v.08c0,.23-.16.31-.23.39h-.16c-.31-.16-.39-.23-.47-.39"/>
    <path class="st3" d="M51.76,70.13c-.23-.39-.08-.7.16-.86,1.09-1.02,2.19-2.11,3.2-3.12.23-.23.47-.47.78-.16.31.39-.16.47-.31.62-1.33,1.09-2.58,2.26-3.83,3.51"/>
    <path class="st3" d="M51.44,69.74c0-.23.08-.47.31-.62.86-.86,1.72-1.72,2.58-2.5l.62-.62c.16-.16.39-.39.7-.39.16,0,.31.08.47.23.08.08.16.23.16.31,0,.23-.23.39-.39.47-.08,0-.08.08-.08.08-1.33,1.09-2.58,2.19-3.83,3.51-.08.08-.16.08-.16.08-.08,0-.16-.08-.16-.16-.16-.08-.23-.23-.23-.39M55.82,66.23l-.08-.08q-.08-.08-.16-.08c-.08,0-.23.16-.31.23l-.62.62c-.86.86-1.72,1.72-2.58,2.5-.08.08-.16.16-.16.31,1.17-1.17,2.34-2.26,3.59-3.2.08,0,.08-.08.16-.08,0-.08.16-.16.16-.23"/>
    <path class="st3" d="M52.07,68.18c.47-.86,1.25-1.33,2.03-1.8-.31.94-1.33,1.25-2.03,1.8"/>
    <path class="st3" d="M51.83,68.18v-.08c.55-.94,1.41-1.41,2.19-1.87.08-.08.16,0,.23,0,.08.08.08.16.08.23-.23.7-.86,1.09-1.48,1.41-.23.16-.47.23-.62.39,0,.08-.08.08-.16.08-.16.08-.23-.08-.23-.16h0Z"/>
    <path class="st3" d="M52.15,67.01c-.23.16-.39.16-.55.08-.16-.16-.08-.39.08-.55s.39-.16.55.08c.08.16-.08.31-.08.39"/>
    <path class="st3" d="M52.22,72.55c-.08.23-.08.47-.39.55,0-.31.08-.55.39-.55"/>
    <path class="st3" d="M51.6,73.02c0-.39.16-.62.55-.7.08,0,.16,0,.23.08.08.08.08.16.08.23v.08c-.08.23-.16.47-.55.55h-.16c-.08-.08-.16-.16-.16-.23h0"/>
    <path class="st1" d="M55.66,14.06c-1.09,2.03-2.19,3.98-3.28,6.01-.23.39-.39.78-.23,1.25-.16,3.75-.23,7.42-.23,11.17-.16,2.19-.16,4.37-.16,6.56v2.42c-.08.94-.08,1.8-.08,2.73,0,2.42-.08,4.92-.16,7.34-.08,1.48,0,2.89-.16,4.37-.08,1.56-.16,3.12-.08,4.69.08,1.56-.08,1.8-1.64,1.33-1.09-.31-2.26-.55-2.89-1.72-.55-.94-1.87-1.17-2.81-.78-1.09.47-1.72,1.48-1.56,2.81.08.78,1.02,1.56,2.03,1.72.39.08.7.08,1.02.31,1.25,1.09,2.73,1.8,4.45,2.03.55.08.78.31.7.86-.16,2.03,0,4.14.23,6.17.23,1.95.7,3.9,2.03,5.54.31.39.31.47.08.86-.94,1.41-.7,2.97.62,3.98.47.31.39.47.16.86-.55.94-.16,2.19.78,2.66.94.47,1.95.31,2.66-.47.62-.7.7-1.64.08-2.5-.16-.23-.31-.31,0-.62,1.56-1.41,1.56-3.05,0-4.45-.23-.16-.31-.31-.08-.47,1.02-1.02,1.33-2.19,1.64-3.51.55-2.58.7-5.23.62-7.89,0-.7.16-.94.94-.94,2.19-.08,4.14-.86,5.78-2.26.31-.31.62-.39,1.09-.47,1.48-.16,2.11-.94,2.34-2.26.16-1.02-.7-2.11-1.72-2.34-1.33-.31-2.5.23-3.05,1.33-.16.23-.16.55-.47.62-1.41.78-2.89,1.17-4.45,1.17-.39,0-.47-.16-.47-.47v-2.11c-.16-9.61-.31-19.21-.47-28.82-.08-3.59-.16-7.18-.23-10.78v-.16c-.08-.16-.16-.31-.23-.47.08-.16,0-.23-.08-.31s-.16-.16-.16-.31c.08-.16,0-.23-.08-.31s-.08-.23-.16-.31c0-.16-.08-.31-.16-.47-.16-.31-.16-.7-.47-.94v-.16c-.08-.16-.16-.31-.23-.47,0-.23-.08-.39-.31-.62-.08-.31-.16-.55-.31-.78.08-.16,0-.23-.08-.31s-.08-.23-.16-.31c0-.23-.08-.55-.31-.55-.23.16-.31.39-.31.55M55.11,85.52c0-.7.55-.94,1.09-1.09.39-.16.55.23.7.47.23.47.16,1.02-.23,1.41-.55.55-1.17.62-1.8.23-.55-.39-.78-.86-.39-1.48.16.31.16.62.47.78.16-.08.16-.23.16-.31M52.3,56h0c.08-.31.08-.55,0-.86h0c.16-1.41.16-2.73.08-4.06h0c.08-.47.08-.94.08-1.41v-.62c.16-4.14.16-8.28.16-12.5v-.23c.16-1.17.08-2.34.08-3.51v-.39c.08-2.73.08-5.54.16-8.28v-2.89c0-.78.62-1.33.94-1.95,0-.08.08-.16.08-.16.16-.23.31-.47.39-.62.31-.31.55-.7.62-1.09.08,0,.08-.08.08-.16.08,0,.08-.08.16-.08.08-.08.23-.08.31-.16v2.89c0,10.54,0,21.16.08,31.71,0,3.28,0,6.56.08,9.84-.39.55-1.17.47-1.8.78-.31.16-.7.23-1.02.39h-.23c0-.08-.08-.08-.08-.16h0v-.31c-.08-2.11,0-4.14-.16-6.17M43.4,62.63c-.55-.78-.39-1.72.39-2.34.78-.55,1.95-.39,2.5.31s.31,1.8-.47,2.34-1.8.39-2.42-.31M51.6,67.09c-.16-.16-.08-.39.08-.55s.39-.16.55.08c.16.16,0,.31-.08.39-.23.16-.39.16-.55.08M52.07,68.18c.47-.86,1.25-1.33,2.03-1.8-.31.94-1.33,1.25-2.03,1.8M51.91,69.27c1.09-1.02,2.19-2.11,3.2-3.12.23-.23.47-.47.78-.16s-.16.47-.31.62c-1.33,1.09-2.58,2.19-3.83,3.51-.16-.39,0-.62.16-.86M51.83,73.02c0-.31.08-.47.39-.55-.08.23-.08.47-.39.55M57.3,80.21c.7.94.47,2.34-.55,3.05-.94.7-2.5.39-3.2-.55-.78-1.02-.55-2.34.55-3.05,1.02-.7,2.5-.47,3.2.55M55.27,78.25c.55-.94,1.48-1.41,1.87-2.26-1.09.62-1.95,1.56-2.97,2.34,1.02-1.56,2.5-2.66,3.83-4.14.31,1.56-.86,3.2-2.73,4.06M58.32,72.24c-.31.78-.94,1.48-1.48,2.11-1.09,1.17-2.34,2.19-3.44,3.44.47-2.03,2.81-2.81,3.67-4.61-1.25.7-2.19,1.72-3.28,2.58,1.17-1.87,3.2-3.05,4.53-4.92.39.47.16.94,0,1.41M58.47,68.02c.23.08.16.31.08.55-.23.94-.7,1.87-1.33,2.66-1.41,1.72-3.36,2.89-4.84,4.61.7-2.58,3.44-3.67,4.69-5.86-1.56,1.64-3.59,2.66-5,4.45.47-1.41,1.48-2.34,2.58-3.28s2.19-1.87,3.28-2.89c.23-.16.31-.39.55-.23M55.19,69.9c-.94.78-1.8,1.64-2.81,2.34,1.64-1.8,3.44-3.44,5-5.39l-.16-.16c-1.64,1.56-3.36,3.12-5.08,4.69.62-1.25,1.48-2.26,2.58-3.12.7-.62,1.56-1.02,2.19-1.64.39-.39.94-.16,1.33-.08.39.16,0,.47-.16.55-.86,1.09-1.8,2.03-2.89,2.81M56.99,65.21c-.7-.23-1.33-.16-2.03,0-3.05.94-5.94.78-8.51-1.09-.16-.16-.55-.23-.23-.55.23-.23.39-.55.86-.23,2.5,1.8,5.15,1.64,7.89.55.62-.23,1.02-.23,1.64,0,2.73,1.09,5.39,1.09,8.04-.47.16-.08.31-.23.55-.31.31-.16.47.08.55.23.16.16-.08.31-.23.39-.23.16-.47.31-.7.47-2.42,1.72-5.08,1.87-7.81,1.02M68.62,60.37c.55.78.31,1.8-.47,2.34-.78.55-1.87.31-2.42-.39-.55-.78-.31-1.72.47-2.26.78-.62,1.87-.47,2.42.31M58.86,62.87c1.8.23,3.51-.08,5.15-.86.16-.08.47-.47.7,0,.16.39-.08.55-.31.7-2.26,1.48-4.69,1.48-7.11.62-.47-.16-.94-.47-1.41-.62-1.41.62-2.73,1.17-4.3,1.25-1.48.08-2.81-.31-3.98-1.09-.31-.23-.55-.47-.31-.78s.55.08.7.16c1.87.7,3.75,1.17,5.78.47.62-.23,1.41-.08,2.03-.08,1.09-.23,2.03.08,3.05.23M56.99,17.49c0,.23.08.31.23.47.08.16.16.31.23.47,0,.31.23.55.39.7.31.47.39,1.02.39,1.56.23,13.59.39,27.26.55,40.84,0,.55,0,.94-.78.55-.55-.23-1.09-.39-1.72-.62-.16-.31-.08-.62-.08-.86v-8.43c0-10.31-.08-20.54-.08-30.85,0-1.72-.08-3.44.08-5.15.23.47.55.94.78,1.33"/>
    <path class="st1" d="M53.55,81.53c.08.55.31.94,1.02,1.02-.39-.55-.7-1.02-.23-1.72.47-.62,1.17-.47,1.87-.7-.7-.39-1.33-.47-1.87-.08-.55.31-.86.86-.78,1.48"/>
    <path class="st5" d="M92.76,37.57c1.8-.23,3.51.08,5.15.86.16.08.47.47.7,0,.16-.39-.08-.55-.31-.7-2.26-1.48-4.69-1.48-7.11-.62-.47.16-.94.47-1.41.62-1.41-.62-2.73-1.17-4.3-1.25-1.48-.08-2.81.31-3.98,1.09-.31.23-.55.47-.31.78.23.31.55-.08.7-.16,1.87-.7,3.75-1.17,5.78-.47.62.23,1.41.08,2.03.08,1.09.23,2.03-.08,3.05-.23"/>
    <path class="st5" d="M81.28,37.25c1.17-.86,2.58-1.25,4.22-1.17,1.56.08,2.89.62,4.3,1.17.08-.08.16-.08.23-.16.31-.16.62-.31,1.02-.47,2.81-1.02,5.31-.78,7.5.7.23.16.55.39.55.86,0,.16-.08.31-.08.39-.16.23-.31.39-.55.39-.31.08-.55-.16-.78-.23-1.56-.78-3.2-1.02-4.92-.78-.23,0-.55.08-.78.16-.7.16-1.48.23-2.26.16h-.31c-.62.08-1.25.08-1.87-.08-1.95-.62-3.75-.16-5.47.47,0,0-.08,0-.08.08-.55.39-.94.16-1.17-.08-.16-.16-.23-.31-.23-.55.08-.39.47-.7.7-.86M85.49,36.94c-1.41-.08-2.58.31-3.59,1.02,1.8-.7,3.83-1.25,6.01-.47.08,0,.16.08.23.08-.94-.39-1.8-.62-2.66-.62M91.58,37.41c.08,0,.16,0,.23-.08.31-.08.55-.08.86-.16,1.8-.23,3.51,0,5.15.78-1.87-1.17-3.9-1.33-6.25-.55"/>
    <path class="st0" d="M86.43,63.81v.23c.16,1.17.08,2.34.08,3.51v.39c.08,2.73.08,5.54.16,8.28v2.89c0,.78.62,1.33.94,1.95,0,.08.08.16.08.16.16.23.31.47.39.62.31.31.55.7.62,1.09.08,0,.08.08.08.16.08,0,.08.08.16.08.08.08.23.08.31.16v-2.89c0-10.54,0-21.16.08-31.71,0-3.28,0-6.56.08-9.84-.39-.55-1.17-.47-1.8-.78-.31-.16-.7-.23-1.02-.39h-.23c0,.08-.08.08-.08.16h0v.31c.08,2.03.16,4.06.08,6.09h0c.08.31.08.55,0,.86h0c.16,1.41.16,2.73.08,4.06h0c.08.47.08.94.08,1.41v.62c-.08,4.3,0,8.43-.08,12.57"/>
    <path class="st0" d="M85.73,38.19h0v-.23c0-.08,0-.16.08-.23l.08-.16c.08-.08.16-.16.23-.16h.55c.08,0,.23.08.31.08.23.08.55.16.78.31.16.08.39.16.55.16.47.08.94.23,1.33.7.08.08.08.16.08.23v44.44c0,.16-.08.31-.23.31-.16.08-.31.08-.39,0l-.31-.16s-.08,0-.08-.08l-.16-.08c-.08,0-.08-.08-.08-.16-.08-.08-.16-.16-.16-.23-.08-.39-.31-.62-.55-.94l-.08-.08-.47-.7-.08-.16c-.08-.16-.23-.39-.31-.55-.31-.39-.62-.94-.62-1.56v-2.97c0-1.95-.08-3.9-.08-5.86l-.08-2.5v-2.03c0-.7,0-1.25-.08-1.87v-.23c.08-4.3,0-8.51-.16-12.42v-.16h0v-.55c.08-.47.08-.86,0-1.25h0v-.16c.08-1.33.08-2.73-.08-4.06v-.16c.08-.23.08-.39,0-.55v-.23c.08-1.95.08-3.98-.08-6.01h0q.08.31.08.23M86.66,44.36c.08.31.08.62,0,.94.08,1.25.16,2.66.08,4.06.08.47.08,1.02,0,1.48v.62c.16,3.9.16,8.12.16,12.42v.16c.08,1.02.08,2.34.08,3.51v.39l.08,2.5c0,1.95.08,3.9.08,5.86v2.89c0,.39.23.7.47,1.09.16.23.31.39.39.7l.39.7c.16.16.31.39.47.55v-43.11c-.16-.16-.39-.23-.78-.31-.23-.08-.55-.16-.78-.23-.16-.08-.39-.16-.62-.23q-.08,0-.16-.08v.08c.08,1.25.08,2.42.08,3.59.08.86.08,1.64.08,2.42"/>
    <path class="st0" d="M91.12,82.47c.08-.16.16-.31.23-.47,0-.31.23-.55.39-.7.31-.47.39-1.02.39-1.56.16-13.59.31-27.26.47-40.84,0-.55,0-.94-.78-.55-.55.23-1.09.39-1.72.62-.16.31-.08.62-.08.86v8.43c0,10.31-.08,20.54-.08,30.85,0,1.72-.08,3.44.16,5.15.23-.39.55-.86.78-1.25,0-.23.08-.39.23-.55"/>
    <path class="st0" d="M89.55,80.36v-1.41c0-7.89,0-15.85.08-23.74v-15.54c0-.23-.08-.55.16-.94.08-.08.16-.16.23-.16.16-.08.39-.16.55-.16.39-.16.78-.23,1.09-.39s.7-.31,1.02-.16c.39.23.39.62.39.94v.16c-.16,13.59-.31,27.26-.47,40.84,0,.7-.16,1.25-.55,1.8-.16.16-.31.31-.31.47,0,.08,0,.16-.08.16l-.23.47c0,.08-.08.08-.08.16l-.08.08c0,.08,0,.16-.08.23l-.78,1.25c-.08.16-.31.23-.47.23s-.31-.16-.31-.39c-.08-.78-.16-1.56-.16-2.66,0-.39.08-.78.08-1.25M90.41,82.86c0-.23.16-.39.31-.62l.16-.31c.08-.39.31-.62.47-.78.23-.31.31-.78.31-1.33.16-13.59.31-27.26.47-40.84v-.23s-.08,0-.16.08c-.39.23-.78.31-1.25.47-.08,0-.23.08-.31.08v.55h0v15.38c0,7.89-.08,15.85-.08,23.74v1.41c.08.86,0,1.72.08,2.42h0Z"/>
    <path class="st5" d="M98.69,36.24c-2.5-1.64-5.15-1.8-7.89-.94-.7.23-1.33.16-2.03,0-3.05-.94-5.94-.78-8.51,1.09-.16.16-.55.23-.23.55.23.23.39.55.86.23,2.5-1.8,5.15-1.64,7.89-.55.62.23,1.02.23,1.64,0,2.73-1.09,5.39-1.09,8.04.47.16.08.31.23.55.31.31.16.47-.08.55-.23.16-.16-.08-.31-.23-.39-.16-.23-.39-.39-.62-.55"/>
    <path class="st5" d="M80.03,36c2.5-1.87,5.47-2.26,8.9-1.17.62.23,1.17.23,1.72,0,3.05-.94,5.78-.62,8.28,1.02l.23.16c.16.16.39.23.55.39.08.08.39.23.39.55,0,.08,0,.23-.16.39s-.47.55-1.02.31c-.23-.08-.39-.23-.62-.31-2.34-1.41-4.84-1.56-7.65-.47-.7.31-1.25.31-1.95,0-2.97-1.17-5.39-1.02-7.42.47-.7.47-1.17,0-1.33-.16l-.08-.08c-.16-.16-.23-.31-.23-.55-.08-.23.23-.39.39-.55M80.65,36.86l.08-.08c2.34-1.64,5.08-1.87,8.28-.55.47.16.78.16,1.25,0,2.89-1.17,5.54-1.09,8.04.31-2.19-1.41-4.69-1.72-7.42-.86-.78.23-1.41.23-2.26,0-3.2-1.02-5.86-.62-8.12,1.09,0,0-.08,0-.08.08.16-.08.23-.08.23,0h0"/>
    <path class="st5" d="M90.65,17.26c.94.7,1.17,2.03.55,3.05-.7,1.02-2.19,1.25-3.2.55-1.02-.7-1.25-2.03-.55-3.05.78-.94,2.26-1.17,3.2-.55"/>
    <path class="st5" d="M87.29,17.73c.39-.55,1.02-.86,1.72-1.02.62-.08,1.33.08,1.8.39.62.47,1.02,1.17,1.02,1.95,0,.47-.16.94-.47,1.33-.39.55-1.02.86-1.72,1.02-.7.08-1.33,0-1.8-.39-.7-.47-1.09-1.17-1.09-1.95.08-.47.23-.94.55-1.33M90.57,17.42c-.39-.31-.94-.39-1.48-.31-.55.08-1.09.39-1.41.78-.23.39-.39.78-.39,1.17,0,.62.31,1.17.86,1.56.39.31.94.39,1.48.31.55-.08,1.09-.39,1.41-.86.23-.31.39-.7.39-1.09-.08-.55-.39-1.17-.86-1.56"/>
    <path class="st3" d="M86.04,26.01c.47,1.41,1.48,2.34,2.58,3.28s2.19,1.87,3.28,2.89c.16.16.23.31.47.23.23-.08.16-.31.08-.55-.23-.94-.7-1.87-1.33-2.66-1.41-1.72-3.36-2.89-4.84-4.61.7,2.58,3.44,3.67,4.69,5.86-1.48-1.56-3.59-2.66-4.92-4.45"/>
    <path class="st3" d="M85.81,26.01c0-.08.08-.23.23-.23.08,0,.16.08.23.16.7.86,1.56,1.56,2.42,2.26-1.09-.94-2.11-1.95-2.58-3.44,0-.08,0-.16.08-.23.08-.08.23,0,.23.08.7.86,1.56,1.56,2.34,2.26.86.7,1.72,1.48,2.42,2.34.7.78,1.09,1.72,1.41,2.81,0,.08.08.16.08.31,0,.23-.08.39-.31.47-.31.16-.55-.08-.7-.23l-.08-.08c-.78-.78-1.64-1.48-2.42-2.19-.23-.23-.55-.47-.78-.7-1.02-1.09-2.03-2.11-2.58-3.59,0,.08,0,0,0,0h0ZM91.12,30.69c-.08.08-.23.08-.31,0-.62-.7-1.41-1.33-2.19-1.87-.55-.47-1.09-.86-1.64-1.33.47.62,1.09,1.25,1.72,1.8.23.23.55.47.78.7.86.7,1.72,1.48,2.5,2.26l.08.08.16.16c.08,0,0-.08,0-.31-.23-.94-.7-1.8-1.33-2.58-.7-.86-1.56-1.56-2.42-2.26-.55-.47-1.09-.94-1.56-1.41.55.86,1.25,1.56,2.03,2.26s1.64,1.48,2.19,2.42v.08c.16-.16.08-.08,0,0"/>
    <path class="st5" d="M77.29,37.88c-.55.78-.39,1.72.39,2.34.78.55,1.95.39,2.5-.31.55-.7.31-1.8-.47-2.34-.78-.62-1.87-.47-2.42.31"/>
    <path class="st5" d="M76.9,37.64c.7-.94,2.03-1.17,3.05-.47.94.62,1.17,2.03.55,2.89-.31.47-.86.7-1.41.78-.62.08-1.17-.08-1.64-.39-.62-.39-.94-1.02-.94-1.72,0-.39.16-.78.39-1.09M79.48,37.8c-.62-.39-1.41-.31-1.87.31-.39.55-.31,1.33.31,1.72.31.16.62.31,1.02.23.31-.08.62-.23.86-.47.16-.16.23-.39.23-.7,0-.39-.23-.86-.55-1.09"/>
    <path class="st5" d="M100.02,40.46c.78.55,1.87.39,2.42-.39.55-.78.31-1.8-.47-2.34s-1.87-.31-2.42.39c-.55.86-.31,1.8.47,2.34"/>
    <path class="st5" d="M99.24,37.96c.7-.94,2.03-1.17,3.05-.47.94.62,1.25,1.95.55,2.89-.31.47-.78.78-1.41.86-.55.08-1.17,0-1.64-.39-.62-.39-.94-1.02-.94-1.72,0-.47.08-.86.39-1.17M101.74,38.11c-.62-.39-1.48-.23-1.87.31s-.23,1.33.39,1.72c.31.23.62.31,1.02.23.31-.08.62-.23.78-.47s.23-.47.23-.7c.08-.47-.16-.86-.55-1.09"/>
    <path class="st3" d="M86.27,28.27c1.64,1.8,3.44,3.44,5,5.39q-.08.08-.16.16c-1.64-1.56-3.36-3.12-5.08-4.69.62,1.25,1.48,2.26,2.58,3.12.7.62,1.56,1.02,2.19,1.64.39.39.94.16,1.33.08.39-.16,0-.47-.16-.55-.78-1.02-1.8-1.95-2.89-2.81-1.02-.78-1.8-1.72-2.81-2.34"/>
    <path class="st3" d="M85.88,28.9c.08-.08.23-.08.31,0l3.67,3.44c-.62-.62-1.17-1.33-1.8-1.87-.62-.7-1.33-1.33-1.95-2.03,0-.08-.08-.08-.08-.16s.08-.23.23-.23c.08,0,.16,0,.16.08.62.39,1.17.94,1.72,1.41.31.31.7.62,1.09.94,1.17.94,2.19,1.87,2.89,2.81l.08.08c.08.16.23.31.23.47,0,.08,0,.23-.31.39h-.08c-.39.16-1.02.31-1.41-.16-.39-.39-.78-.7-1.25-.94-.31-.23-.62-.39-.94-.7-1.25-1.02-2.03-2.03-2.58-3.2v-.08c-.08-.08-.08-.16,0-.23M86.98,30.3c.47.62,1.02,1.17,1.72,1.8.31.23.62.47.86.62h0l-2.58-2.42ZM91.35,33.74l-.16.16c.16,0,.39-.08.62-.16h.08c0-.08-.08-.16-.16-.16,0-.08-.08-.08-.08-.08-.7-.94-1.64-1.8-2.81-2.73q-.08-.08-.16-.16c.86.94,1.8,1.87,2.58,2.89,0,0,.08.08.08.16.08,0,.08.08,0,.08"/>
    <path class="st3" d="M87.29,22.73c.47,2.03,2.81,2.81,3.67,4.61-1.25-.7-2.19-1.72-3.28-2.58,1.17,1.87,3.2,3.05,4.53,4.92.31-.55.16-1.02-.08-1.41-.31-.78-.94-1.48-1.48-2.11-1.02-1.25-2.26-2.26-3.36-3.44"/>
    <path class="st3" d="M87.06,22.73c0-.08.08-.23.23-.23.08,0,.16.08.16.08.55.55,1.09,1.09,1.64,1.64.62.55,1.17,1.17,1.8,1.8.55.62,1.17,1.33,1.56,2.19.16.31.23.55.23.86,0,.23-.08.47-.23.7,0,.08-.08.08-.16.08s-.16,0-.16-.08c-.62-.94-1.41-1.64-2.26-2.42-.86-.78-1.72-1.56-2.34-2.58-.08-.08,0-.23.08-.23.08-.08.23-.08.31,0,.31.23.62.47.86.78.47.47,1.02.86,1.56,1.25-.31-.39-.78-.78-1.17-1.17-.94-.7-1.8-1.48-2.11-2.66h0ZM91.12,27.49c-.08.08-.16.08-.23,0-.39-.23-.7-.47-1.02-.7.08.08.23.23.31.31.7.62,1.41,1.33,2.03,2.11.08-.31-.08-.62-.23-.94-.31-.78-.86-1.41-1.48-2.03-.55-.62-1.17-1.17-1.72-1.72-.23-.23-.55-.55-.86-.78.39.55.86.94,1.41,1.41.7.62,1.41,1.25,1.8,2.11v.08c.08,0,0,.08,0,.16"/>
    <path class="st3" d="M91.04,24.52c-1.09-.62-1.95-1.56-2.97-2.34,1.02,1.56,2.5,2.66,3.83,4.14.23-1.64-.94-3.28-2.81-4.06.62.94,1.56,1.41,1.95,2.26"/>
    <path class="st3" d="M87.91,22.02c.08-.08.16-.08.31,0,.47.31.86.7,1.25,1.02l.08.08c-.23-.23-.47-.47-.62-.78v-.08h0c0-.08.08-.23.23-.23q.08,0,.16.08c1.95.86,3.12,2.5,2.89,4.3,0,.08-.08.16-.16.16s-.16,0-.23-.08c-.47-.47-.94-.94-1.33-1.33-.94-.86-1.8-1.72-2.5-2.81v-.08q-.08-.16-.08-.23M89.94,22.88c.08.08.23.23.31.31.39.39.78.7.94,1.17,0,.08,0,.16-.08.23-.08.08-.16.08-.23,0-.47-.31-.94-.62-1.33-.94.39.39.7.7,1.09,1.09.31.31.7.62,1.02,1.02.08-1.09-.62-2.11-1.72-2.89"/>
    <path class="st5" d="M88.3,15.39c.16-.31.16-.62.47-.78.16.08.08.16.16.31,0,.7.55.94,1.09,1.09.39.16.55-.23.7-.47.23-.47.16-1.02-.23-1.41-.55-.55-1.17-.62-1.8-.23-.55.39-.78.86-.39,1.48"/>
    <path class="st5" d="M88.62,13.75c.7-.47,1.48-.31,2.11.23.31.31.47.62.47,1.02,0,.23-.08.47-.16.7s-.39.7-.94.55c-.55-.16-1.17-.47-1.25-1.25-.08.08-.08.16-.08.23s-.08.16-.08.23l-.16.39-.23-.31c-.16-.23-.23-.47-.23-.7-.16-.47.08-.86.55-1.09M88.77,14.45h.16c.16.08.23.16.23.39v.08c0,.47.31.7.94.94.16.08.23,0,.39-.39.23-.47.16-.86-.16-1.17-.47-.47-1.02-.55-1.56-.16-.31.23-.47.47-.47.7h0c.16-.16.23-.31.47-.39"/>
    <path class="st3" d="M85.65,30.3c-.23.39-.08.7.16.86,1.09,1.02,2.19,2.11,3.2,3.12.23.23.47.47.78.16.31-.39-.16-.47-.31-.62-1.33-1.09-2.58-2.19-3.83-3.51"/>
    <path class="st3" d="M85.49,30.22c0-.08.08-.08.16-.16.08,0,.16,0,.16.08,1.25,1.33,2.5,2.42,3.83,3.51l.08.08c.16.08.39.23.39.47,0,.08-.08.23-.16.31-.16.16-.31.23-.47.23-.23,0-.47-.16-.7-.39l-.62-.62c-.86-.86-1.72-1.72-2.58-2.5-.23-.16-.31-.39-.31-.62.08-.08.16-.23.23-.39M89.48,34.05c-.08,0-.08-.08-.16-.08-1.25-1.02-2.42-2.03-3.59-3.2,0,.08.08.16.16.31.86.86,1.72,1.72,2.58,2.5l.62.62c.08.08.23.23.31.23,0,0,.08,0,.16-.08l.08-.08c.08-.08-.08-.16-.16-.23"/>
    <path class="st3" d="M85.96,32.33c.47.86,1.25,1.33,2.03,1.8-.31-1.02-1.33-1.25-2.03-1.8"/>
    <path class="st3" d="M85.73,32.33v.08c.55.94,1.41,1.41,2.19,1.87.08.08.16,0,.23,0,.08-.08.08-.16.08-.23-.23-.7-.86-1.09-1.48-1.41-.23-.16-.47-.23-.62-.39,0-.08-.08-.08-.16-.08-.16-.08-.23,0-.23.16h0Z"/>
    <path class="st3" d="M85.96,33.5c-.23-.16-.39-.16-.55-.08-.16.16-.08.39.08.55s.39.16.55-.08c.16-.23,0-.31-.08-.39"/>
    <path class="st3" d="M86.12,27.96c-.08-.23-.08-.47-.39-.55,0,.31.08.47.39.55"/>
    <path class="st3" d="M85.49,27.41c0,.39.16.62.55.7.08,0,.16,0,.23-.08.08-.08.08-.16.08-.23v-.08c-.08-.23-.16-.47-.55-.55h-.16c-.08.08-.16.16-.16.23h0"/>
    <path class="st1" d="M89.71,86.84c.31-.08.31-.31.31-.55.08-.08.08-.23.16-.31s.16-.16.08-.31c.23-.23.31-.47.31-.78.16-.16.31-.31.31-.62.08-.16.16-.31.23-.47v-.16c.31-.23.31-.62.47-.94.16-.16.23-.23.16-.47.08-.08.16-.23.16-.31.08-.08.16-.16.08-.31.08-.08.16-.16.16-.31.16-.08.16-.23.08-.31.08-.16.16-.31.23-.47v-.16c.08-3.59.16-7.18.23-10.78.16-9.61.31-19.21.47-28.82v-2.11c0-.31.08-.47.47-.47,1.56,0,3.05.39,4.45,1.17.31.16.31.39.47.62.55,1.17,1.72,1.64,3.05,1.33,1.02-.23,1.87-1.25,1.72-2.34-.23-1.33-.86-2.11-2.34-2.26-.47-.08-.78-.16-1.09-.47-1.64-1.48-3.59-2.26-5.78-2.26-.78,0-.94-.23-.94-.94.08-2.66,0-5.31-.62-7.89-.31-1.25-.62-2.5-1.64-3.51-.23-.23-.16-.31.08-.47,1.56-1.41,1.56-3.05,0-4.45-.31-.31-.16-.39,0-.62.62-.78.55-1.8-.08-2.5-.7-.78-1.72-.94-2.66-.47-.94.47-1.33,1.72-.78,2.66.23.39.23.55-.16.86-1.33,1.02-1.56,2.66-.62,3.98.23.39.23.47-.08.86-1.25,1.64-1.72,3.51-2.03,5.54-.23,2.03-.39,4.14-.23,6.17,0,.55-.23.78-.7.86-1.72.23-3.2.94-4.45,2.03-.31.31-.62.31-1.02.31-.86.23-1.72,1.02-1.87,1.8-.16,1.33.39,2.34,1.56,2.81.94.39,2.34.16,2.81-.78.62-1.17,1.8-1.41,2.89-1.72,1.56-.47,1.72-.23,1.64,1.33-.08,1.56-.08,3.12.08,4.69.08,1.48.08,2.89.16,4.37.08,2.42.16,4.92.16,7.34,0,.94-.08,1.8.08,2.73v.23c-.08,0-.08.08,0,.16v2.03c0,2.19,0,4.37.16,6.56,0,3.75.08,7.42.23,11.17-.08.47.08.86.23,1.25,1.09,2.03,2.19,3.98,3.28,6.01-.08.23.08.47.16.47M88.85,14.68c-.39.16-.39.47-.47.78-.39-.62-.23-1.17.39-1.48.62-.39,1.25-.31,1.8.23.39.39.47.94.23,1.41-.16.23-.31.62-.7.47-.55-.16-1.09-.47-1.09-1.09-.08-.16,0-.31-.16-.31M86.12,38.35v-.31h0c0-.08.08-.08.08-.16h.23c.39.16.7.23,1.02.39.55.31,1.33.16,1.8.78,0,3.28-.08,6.56-.08,9.84,0,10.54,0,21.16-.08,31.71v2.89c-.08-.08-.23-.08-.31-.16-.08,0-.08-.08-.16-.08,0-.08-.08-.08-.08-.16-.16-.39-.31-.78-.62-1.09-.16-.23-.31-.47-.39-.62,0-.08-.08-.16-.08-.16-.31-.62-.94-1.17-.94-1.95v-2.89c-.08-2.73-.08-5.54-.16-8.28v-.39c.08-1.17.08-2.34-.08-3.51v-.23c.08-4.14,0-8.28-.16-12.5v-.62c.08-.47.08-.94-.08-1.41h0c.08-1.33.08-2.73-.08-4.06h0c.08-.23.08-.55,0-.86h0c.31-2.11.31-4.14.16-6.17M79.71,37.49c.78.55,1.02,1.64.47,2.34-.55.7-1.72.86-2.5.31-.78-.55-1.02-1.56-.39-2.34.55-.7,1.64-.86,2.42-.31M85.96,33.5c.08.08.23.23.08.39-.16.16-.39.16-.55.08-.16-.16-.23-.31-.08-.47.16-.23.39-.23.55,0M87.99,34.05c-.86-.47-1.64-.94-2.03-1.8.7.62,1.72.86,2.03,1.8M85.65,30.3c1.25,1.33,2.5,2.42,3.83,3.51.16.16.62.23.31.62s-.55.08-.78-.16c-1.09-1.02-2.19-2.11-3.2-3.12-.23-.16-.31-.47-.16-.86M86.12,27.96c-.31-.08-.39-.23-.39-.55.31.08.31.31.39.55M87.99,20.85c-1.02-.7-1.25-2.03-.55-3.05.7-.94,2.26-1.25,3.2-.55.94.7,1.17,2.03.55,3.05-.7.94-2.19,1.25-3.2.55M91.98,26.32c-1.33-1.41-2.81-2.58-3.83-4.14,1.02.7,1.87,1.72,2.97,2.34-.39-.86-1.33-1.33-1.87-2.26,1.8.78,2.89,2.42,2.73,4.06M92.21,29.68c-1.33-1.87-3.36-3.05-4.53-4.92,1.09.86,2.03,1.87,3.28,2.58-.86-1.8-3.2-2.58-3.67-4.61,1.09,1.17,2.34,2.19,3.44,3.44.55.62,1.17,1.33,1.48,2.11.16.39.39.86,0,1.41M91.9,32.26c-1.02-1.02-2.19-1.95-3.28-2.89-1.09-.94-2.11-1.87-2.58-3.28,1.33,1.8,3.44,2.81,5,4.45-1.25-2.19-3.98-3.28-4.69-5.86,1.41,1.72,3.44,2.89,4.84,4.61.62.78,1.09,1.72,1.33,2.66.08.16.16.39-.08.55-.31.08-.47-.16-.55-.23M91.9,33.35c.08.16.47.47.16.55-.39.16-.94.39-1.33-.08-.62-.7-1.48-1.09-2.19-1.64-1.02-.86-1.95-1.87-2.58-3.12,1.64,1.56,3.36,3.12,5.08,4.69q.08-.08.16-.16c-1.48-1.87-3.36-3.59-5-5.39,1.02.7,1.87,1.56,2.81,2.34,1.09.86,2.11,1.72,2.89,2.81M98.69,36.24c.23.16.47.31.7.47.08.08.39.16.23.39-.16.16-.31.39-.55.23-.16-.08-.39-.16-.55-.31-2.66-1.56-5.31-1.56-8.04-.47-.55.23-1.02.23-1.64,0-2.73-1.09-5.39-1.25-7.89.55-.47.31-.62,0-.86-.23-.31-.31.08-.39.23-.55,2.58-1.87,5.47-2.11,8.51-1.09.7.23,1.25.23,2.03,0,2.73-.86,5.39-.62,7.81,1.02M100.02,40.46c-.86-.55-1.02-1.56-.47-2.26s1.64-.94,2.42-.39c.78.47,1.02,1.56.47,2.34-.55.7-1.56.86-2.42.31M89.79,37.88c-.7.08-1.41.16-2.03-.08-2.03-.7-3.9-.23-5.78.47-.23.08-.47.47-.7.16-.31-.39,0-.62.31-.78,1.17-.86,2.5-1.17,3.98-1.09,1.56.08,2.89.62,4.3,1.25.47-.23.86-.47,1.41-.62,2.42-.86,4.84-.86,7.11.62.31.16.55.39.31.7-.23.47-.55.08-.7,0-1.64-.78-3.36-1.09-5.15-.86-1.09.08-2.03.39-3.05.23M90.1,84.27c-.23-1.72-.08-3.44-.08-5.15,0-10.31,0-20.54.08-30.85v-8.43c0-.31-.08-.62.08-.86.55-.23,1.17-.31,1.72-.62.78-.39.78,0,.78.55-.16,13.59-.31,27.26-.47,40.84,0,.55-.08,1.09-.39,1.56-.16.23-.39.47-.39.7-.08.16-.16.31-.23.47-.16.16-.23.23-.23.47-.39.47-.62.86-.86,1.33"/>
    <path class="st1" d="M87.45,18.98c.08-.55.31-.94,1.02-1.02-.39.55-.7,1.02-.23,1.72.47.62,1.17.47,1.87.7-.7.39-1.33.47-1.87.08-.55-.39-.86-.86-.78-1.48"/>
    <path class="st5" d="M24.27,37.57c1.8-.23,3.51.08,5.15.86.16.08.47.47.7,0,.16-.39-.08-.55-.31-.7-2.26-1.48-4.69-1.48-7.11-.62-.47.16-.94.47-1.41.62-1.41-.62-2.73-1.17-4.3-1.25-1.48-.08-2.81.31-3.98,1.09-.31.23-.55.47-.31.78.23.31.55-.08.7-.16,1.87-.7,3.75-1.17,5.78-.47.62.23,1.41.08,2.03.08,1.09.23,2.03-.08,3.05-.23"/>
    <path class="st5" d="M12.79,37.25c1.17-.86,2.58-1.25,4.22-1.17,1.56.08,2.89.62,4.3,1.17.08-.08.16-.08.23-.16.31-.16.62-.31,1.02-.47,2.81-1.02,5.31-.78,7.5.7.23.16.55.39.55.86,0,.16-.08.31-.08.39-.16.23-.31.39-.55.39-.31.08-.55-.16-.78-.23-1.56-.78-3.2-1.02-4.92-.78-.23,0-.55.08-.78.16-.7.16-1.48.23-2.26.16h-.31c-.62.08-1.25.08-1.87-.08-1.95-.62-3.75-.16-5.47.47,0,0-.08,0-.08.08-.55.39-.94.16-1.17-.08-.16-.16-.23-.31-.23-.55.08-.39.47-.7.7-.86M17,36.94c-1.41-.08-2.58.31-3.59,1.02,1.8-.7,3.83-1.25,6.01-.47.08,0,.16.08.23.08-.86-.39-1.72-.62-2.66-.62M23.09,37.41c.08,0,.16,0,.23-.08.31-.08.55-.08.86-.16,1.8-.23,3.51,0,5.15.78-1.8-1.17-3.9-1.33-6.25-.55"/>
    <path class="st0" d="M17.94,63.81v.23c.16,1.17.08,2.34.08,3.51v.39c.08,2.73.08,5.54.16,8.28v2.89c0,.78.62,1.33.94,1.95,0,.08.08.16.08.16.16.23.31.47.39.62.31.31.55.7.62,1.09.08,0,.08.08.08.16.08,0,.08.08.16.08.08.08.23.08.31.16v-2.89c0-10.54,0-21.16.08-31.71,0-3.28,0-6.56.08-9.84-.47-.55-1.17-.47-1.8-.78-.31-.16-.7-.23-1.02-.39h-.23c0,.08-.08.08-.08.16h0v.31c.08,2.03.16,4.06.08,6.09h0c.08.31.08.55,0,.86h0c.16,1.41.16,2.73.08,4.06h0c.16.47.08.94.08,1.41v.62c-.08,4.3,0,8.43-.08,12.57"/>
    <path class="st0" d="M17.24,38.19h0v-.23c0-.08,0-.16.08-.23l.08-.16c.08-.08.16-.16.23-.16h.55c.08,0,.23.08.31.08.23.08.55.16.78.31.16.08.39.16.55.16.47.08.94.23,1.33.7.16.16.16.23.16.31v44.44c0,.16-.08.31-.23.31-.16.08-.31.08-.39,0l-.31-.16s-.08,0-.08-.08l-.16-.08c-.08,0-.08-.08-.08-.16-.08-.08-.16-.16-.16-.23-.08-.39-.31-.62-.55-.94l-.08-.08-.47-.7-.08-.16c-.08-.16-.23-.39-.31-.55-.31-.39-.62-.94-.62-1.56v-2.97c0-1.95-.08-3.9-.08-5.86l-.16-2.34v-.39c0-.55.08-1.09.08-1.64,0-.7,0-1.25-.08-1.87v-.23c.08-4.3,0-8.51-.16-12.42v-.16h0v-.55c.08-.47.08-.86,0-1.25h0v-.16c.08-1.33.08-2.73-.08-4.06v-.16c.08-.23.08-.39,0-.55v-.23c.08-1.95.08-3.98-.08-6.01h0q0,.08,0,0M18.17,44.36c.08.31.08.62,0,.94.08,1.25.16,2.66.08,4.06.08.47.08,1.02.08,1.48v.62c.16,3.9.16,8.12.16,12.42v.16c.08,1.02.08,2.34.08,3.51v.39l.08,2.5c0,1.95.08,3.9.08,5.86v2.89c0,.39.23.7.47,1.09.16.23.31.39.39.7l.39.7c.16.16.31.39.47.55v-43.11c-.16-.16-.39-.23-.78-.31-.23-.08-.55-.16-.78-.23-.16-.08-.39-.16-.62-.23q-.08,0-.16-.08v.08c.08,1.25.08,2.42.08,3.59.08.86,0,1.64,0,2.42"/>
    <path class="st0" d="M22.63,82.47c.08-.16.16-.31.23-.47,0-.31.23-.55.39-.7.31-.47.39-1.02.39-1.56.16-13.59.31-27.26.47-40.84,0-.55,0-.94-.78-.55-.55.23-1.09.39-1.72.62-.16.31-.08.62-.08.86v8.43c0,10.31-.08,20.54-.08,30.85,0,1.72-.08,3.44.08,5.15.23-.39.55-.86.78-1.25.08-.23.16-.39.31-.55"/>
    <path class="st0" d="M21.06,80.36v-1.41c0-7.89,0-15.85.08-23.74v-15.54c0-.23-.08-.55.16-.94.08-.08.16-.16.23-.16.16-.08.39-.16.55-.16.39-.16.78-.23,1.09-.39s.7-.31,1.02-.16c.39.23.39.62.39.94v.16c-.16,13.59-.31,27.26-.47,40.84,0,.7-.16,1.25-.55,1.8-.16.16-.31.31-.31.47,0,.08,0,.16-.08.16l-.23.47c0,.08-.08.08-.08.16l-.08.08c0,.08,0,.16-.08.23l-.78,1.25c-.08.16-.31.23-.47.23s-.31-.16-.31-.39c-.08-.78-.16-1.56-.16-2.66.08-.39.08-.78.08-1.25M21.92,82.86c0-.23.16-.39.31-.62l.16-.31c.08-.39.31-.62.47-.78.23-.31.31-.78.31-1.33.16-13.59.31-27.26.47-40.84v-.23s-.08,0-.16.08c-.39.23-.78.31-1.25.47-.08,0-.23.08-.31.08v.55h0v15.38c0,7.89-.08,15.85-.08,23.74v1.41c.08.86.08,1.72.08,2.42h0Z"/>
    <path class="st5" d="M30.2,36.24c-2.5-1.64-5.15-1.8-7.89-.94-.7.23-1.33.16-2.03,0-3.05-.94-5.94-.78-8.51,1.09-.16.16-.55.23-.23.55.23.23.39.55.86.23,2.5-1.8,5.15-1.64,7.89-.55.62.23,1.02.23,1.64,0,2.73-1.09,5.39-1.09,8.04.47.16.08.31.23.55.31.31.16.47-.08.55-.23.16-.16-.08-.31-.23-.39-.08-.23-.39-.39-.62-.55"/>
    <path class="st5" d="M11.61,36c2.5-1.87,5.47-2.26,8.9-1.17.62.23,1.17.23,1.72,0,3.05-.94,5.78-.62,8.28,1.02l.23.16c.16.16.39.23.55.39.08.08.39.23.39.55,0,.08,0,.23-.16.39-.08.16-.47.55-1.02.31-.23-.08-.39-.23-.62-.31-2.34-1.41-4.84-1.56-7.65-.47-.7.31-1.25.31-1.95,0-2.97-1.17-5.39-1.02-7.42.47-.7.47-1.17,0-1.33-.16l-.08-.08c-.16-.16-.23-.31-.23-.55-.16-.23.16-.39.39-.55M12.16,36.86l.08-.08c2.34-1.64,5.08-1.87,8.28-.55.47.16.78.16,1.25,0,2.89-1.17,5.54-1.09,8.04.31-2.19-1.41-4.69-1.72-7.42-.86-.78.23-1.41.23-2.26,0-3.2-1.02-5.86-.62-8.12,1.09,0,0-.08,0-.08.08.16-.08.23-.08.23,0h0"/>
    <path class="st5" d="M22.24,17.26c.94.7,1.17,2.03.55,3.05-.7,1.02-2.19,1.25-3.2.55-1.02-.7-1.25-2.03-.55-3.05.7-.94,2.19-1.17,3.2-.55"/>
    <path class="st5" d="M18.8,17.73c.39-.55,1.02-.86,1.72-1.02.62-.08,1.33.08,1.8.39.62.47,1.02,1.17,1.02,1.95,0,.47-.16.94-.47,1.33-.39.55-1.02.86-1.72,1.02-.7.08-1.33,0-1.8-.39-.7-.47-1.09-1.17-1.09-1.95.08-.47.23-.94.55-1.33M22.08,17.42c-.39-.31-.94-.39-1.48-.31-.55.08-1.09.39-1.41.78-.23.39-.39.78-.39,1.17,0,.62.31,1.17.86,1.56.39.31.94.39,1.48.31.55-.08,1.09-.39,1.41-.86.23-.31.39-.7.39-1.09-.08-.55-.31-1.17-.86-1.56"/>
    <path class="st3" d="M17.55,26.01c.47,1.41,1.48,2.34,2.58,3.28s2.19,1.87,3.28,2.89c.16.16.23.31.47.23.23-.08.16-.31.08-.55-.23-.94-.7-1.87-1.33-2.66-1.41-1.72-3.36-2.89-4.84-4.61.7,2.58,3.44,3.67,4.69,5.86-1.48-1.56-3.51-2.66-4.92-4.45"/>
    <path class="st3" d="M17.39,26.01c0-.08.08-.23.23-.23.08,0,.16.08.23.16.7.86,1.56,1.56,2.42,2.26-1.09-.94-2.11-1.95-2.58-3.44,0-.08,0-.16.08-.23.08-.08.23,0,.23.08.7.86,1.56,1.56,2.34,2.26.86.7,1.72,1.48,2.42,2.34.7.78,1.09,1.72,1.41,2.81,0,.08.08.16.08.31,0,.23-.08.39-.31.47-.31.16-.55-.08-.7-.23l-.08-.08c-.78-.78-1.64-1.48-2.42-2.19-.23-.23-.55-.47-.78-.7-1.09-1.09-2.11-2.11-2.58-3.59,0,.08,0,0,0,0h0ZM22.7,30.69c-.08.08-.23.08-.31,0-.62-.7-1.41-1.33-2.19-1.87-.55-.47-1.09-.86-1.64-1.33.47.62,1.09,1.25,1.72,1.8.23.23.55.47.78.7.86.7,1.72,1.48,2.5,2.26l.08.08.16.16c.08,0,0-.08,0-.31-.23-.94-.7-1.8-1.33-2.58-.7-.86-1.56-1.56-2.42-2.26-.55-.47-1.09-.94-1.56-1.41.55.86,1.25,1.56,2.03,2.26s1.64,1.48,2.19,2.42v.08c.08-.16,0-.08,0,0"/>
    <path class="st5" d="M8.8,37.88c-.55.78-.39,1.72.39,2.34.78.55,1.95.39,2.5-.31s.31-1.8-.47-2.34c-.78-.62-1.87-.47-2.42.31"/>
    <path class="st5" d="M8.49,37.64c.7-.94,2.03-1.17,3.05-.47.94.62,1.17,2.03.55,2.89-.31.47-.86.7-1.41.78-.62.08-1.17-.08-1.64-.39-.62-.39-.94-1.02-.94-1.72-.08-.39.08-.78.39-1.09M10.99,37.8c-.62-.39-1.41-.31-1.87.31-.39.55-.31,1.33.31,1.72.31.16.62.31,1.02.23.31-.08.62-.23.86-.47.16-.16.23-.39.23-.7,0-.39-.23-.86-.55-1.09"/>
    <path class="st5" d="M31.53,40.46c.78.55,1.87.39,2.42-.39.55-.78.31-1.8-.47-2.34s-1.87-.31-2.42.39c-.55.86-.31,1.8.47,2.34"/>
    <path class="st5" d="M30.75,37.96c.7-.94,2.03-1.17,3.05-.47.94.62,1.25,1.95.55,2.89-.31.47-.78.78-1.41.86-.55.08-1.17,0-1.64-.39-.62-.39-.94-1.02-.94-1.72,0-.47.08-.86.39-1.17M33.33,38.11c-.62-.39-1.41-.23-1.87.31-.39.55-.23,1.33.39,1.72.31.23.62.31,1.02.23.31-.08.62-.23.78-.47s.23-.47.23-.7c0-.47-.23-.86-.55-1.09"/>
    <path class="st3" d="M17.78,28.27c1.64,1.8,3.44,3.44,5,5.39q-.08.08-.16.16l-5.08-4.69c.62,1.25,1.48,2.26,2.58,3.12.7.62,1.56,1.02,2.19,1.64.39.39.94.16,1.33.08.39-.16,0-.47-.16-.55-.78-1.02-1.8-1.95-2.89-2.81-.94-.78-1.8-1.72-2.81-2.34"/>
    <path class="st3" d="M17.39,28.9c.08-.08.23-.08.31,0l3.67,3.44c-.62-.62-1.17-1.33-1.8-1.87-.62-.7-1.33-1.33-1.95-2.03,0-.08-.08-.08-.08-.16s.08-.23.23-.23c.08,0,.16,0,.16.08.62.39,1.17.94,1.72,1.41.31.31.7.62,1.09.94,1.17.94,2.19,1.87,2.89,2.81l.08.08c.08.16.23.31.23.47,0,.08,0,.23-.31.39h-.08c-.39.16-.94.31-1.41-.16-.39-.39-.78-.7-1.25-.94-.31-.23-.62-.39-.94-.7-1.25-1.02-2.03-2.03-2.58-3.2v-.08c-.08-.08,0-.16,0-.23M18.56,30.3c.47.62,1.02,1.17,1.72,1.8.31.23.62.47.86.62h0l-2.58-2.42ZM22.86,33.74l-.16.16c.16,0,.39-.08.62-.16h.08c0-.08-.08-.16-.16-.16,0-.08-.08-.08-.08-.08-.7-.94-1.64-1.8-2.81-2.73q-.08-.08-.16-.16c.86.94,1.8,1.87,2.58,2.89,0,0,.08.08.08.16.08,0,.08.08,0,.08"/>
    <path class="st3" d="M18.8,22.73c.47,2.03,2.81,2.81,3.67,4.61-1.25-.7-2.19-1.72-3.28-2.58,1.17,1.87,3.2,3.05,4.53,4.92.31-.55.16-1.02-.08-1.41-.31-.78-.94-1.48-1.48-2.11-1.02-1.25-2.26-2.26-3.36-3.44"/>
    <path class="st3" d="M18.56,22.73c0-.08.08-.23.23-.23.08,0,.16.08.16.08l1.64,1.64c.62.55,1.17,1.17,1.8,1.8.55.62,1.17,1.33,1.56,2.19.16.31.23.55.23.86,0,.23-.08.47-.23.7,0,.08-.08.08-.16.08s-.16,0-.16-.08c-.62-.94-1.41-1.64-2.26-2.42s-1.72-1.56-2.34-2.58c-.08-.08,0-.23.08-.23.08-.08.23-.08.31,0,.31.23.62.47.86.78.47.47,1.02.86,1.56,1.25-.31-.39-.78-.78-1.17-1.17-.94-.7-1.8-1.48-2.11-2.66h0ZM22.63,27.49c-.08.08-.16.08-.23,0-.39-.23-.7-.47-1.02-.7.08.08.23.23.31.31.7.62,1.41,1.33,2.03,2.11.08-.31-.08-.62-.23-.94-.31-.78-.86-1.41-1.48-2.03-.55-.62-1.17-1.17-1.72-1.72-.23-.23-.55-.55-.86-.78.39.55.86.94,1.41,1.41.7.62,1.41,1.25,1.8,2.11v.08c.08,0,.08.08,0,.16"/>
    <path class="st3" d="M22.55,24.52c-1.09-.62-1.95-1.56-2.97-2.34,1.02,1.56,2.5,2.66,3.83,4.14.23-1.64-.94-3.28-2.81-4.06.62.94,1.64,1.41,1.95,2.26"/>
    <path class="st3" d="M19.5,22.02c.08-.08.16-.08.31,0,.47.31.86.7,1.25,1.02l.08.08c-.23-.23-.47-.47-.62-.78v-.08h0c0-.08.08-.23.23-.23q.08,0,.16.08c1.95.86,3.12,2.5,2.89,4.3,0,.08-.08.16-.16.16s-.16,0-.23-.08c-.47-.47-.94-.94-1.33-1.33-.94-.86-1.8-1.72-2.5-2.81v-.08q-.16-.16-.08-.23M21.45,22.88l.31.31c.39.39.78.7.94,1.17,0,.08,0,.16-.08.23-.08.08-.16.08-.23,0-.47-.31-.94-.62-1.33-.94l1.09,1.09c.31.31.7.62,1.02,1.02.08-1.09-.62-2.11-1.72-2.89"/>
    <path class="st5" d="M19.89,15.39c.16-.31.16-.62.47-.78.16.08.08.16.16.31,0,.7.55.94,1.09,1.09.39.16.55-.23.7-.47.23-.47.16-1.02-.23-1.41-.55-.55-1.17-.62-1.8-.23-.62.39-.78.86-.39,1.48"/>
    <path class="st5" d="M20.13,13.75c.7-.47,1.48-.31,2.11.23.31.31.47.62.47,1.02,0,.23-.08.47-.16.7s-.39.7-.94.55c-.55-.16-1.17-.47-1.25-1.25-.08.08-.08.16-.08.23s-.08.16-.08.23l-.16.39-.39-.31c-.16-.23-.23-.47-.23-.7,0-.47.23-.86.7-1.09M20.28,14.45h.16c.16.08.23.16.23.39v.08c0,.47.31.7.94.94.16.08.23,0,.39-.39.23-.47.16-.86-.16-1.17-.47-.47-1.02-.55-1.56-.16-.31.23-.47.47-.47.7h0c.16-.16.23-.31.47-.39"/>
    <path class="st3" d="M17.16,30.3c-.23.39-.08.7.16.86,1.09,1.02,2.19,2.11,3.2,3.12.23.23.47.47.78.16.31-.39-.16-.47-.31-.62-1.33-1.09-2.58-2.19-3.83-3.51"/>
    <path class="st3" d="M17,30.22c0-.08.08-.08.16-.16.08,0,.16,0,.16.08,1.25,1.33,2.5,2.42,3.83,3.51l.08.08c.16.08.39.23.39.47,0,.08-.08.23-.16.31-.16.16-.31.23-.47.23-.23,0-.47-.16-.7-.39l-.55-.47c-.86-.86-1.72-1.72-2.58-2.5-.23-.16-.31-.39-.31-.62,0-.23.08-.39.16-.55M21.06,34.05c-.08,0-.08-.08-.16-.08-1.25-1.02-2.42-2.03-3.59-3.2,0,.08.08.16.16.31.86.86,1.72,1.72,2.58,2.5l.62.62c.08.08.23.23.31.23,0,0,.08,0,.16-.08l.08-.08c0-.08-.16-.16-.16-.23"/>
    <path class="st3" d="M17.47,32.33c.47.86,1.25,1.33,2.03,1.8-.31-1.02-1.33-1.25-2.03-1.8"/>
    <path class="st3" d="M17.24,32.33v.08c.55.94,1.41,1.41,2.19,1.87.08.08.16,0,.23,0,.08-.08.08-.16.08-.23-.23-.7-.86-1.09-1.48-1.41-.23-.16-.47-.23-.62-.39q-.08-.08-.16-.08c-.16-.08-.23,0-.23.16h0Z"/>
    <path class="st3" d="M17.55,33.5c-.23-.16-.39-.16-.55-.08-.16.16-.08.39.08.55s.39.16.55-.08c.08-.23-.08-.31-.08-.39"/>
    <path class="st3" d="M17.63,27.96c-.08-.23-.08-.47-.39-.55,0,.31.08.47.39.55"/>
    <path class="st3" d="M17,27.41c0,.39.16.62.55.7.08,0,.16,0,.23-.08.08-.08.08-.16.08-.23v-.08c-.08-.23-.16-.47-.55-.55h-.16c-.08.08-.16.16-.16.23h0"/>
    <path class="st1" d="M21.22,86.84c.31-.08.31-.31.31-.55.08-.08.08-.23.16-.31s.16-.16.08-.31c.23-.23.31-.47.31-.78.16-.16.31-.31.31-.62.08-.16.16-.31.23-.47v-.16c.31-.23.31-.62.47-.94.16-.16.23-.23.16-.47.08-.08.08-.23.16-.31s.16-.16.08-.31c.08-.08.16-.16.16-.31.16-.08.16-.23.08-.31.08-.16.16-.31.23-.47v-.16c.08-3.59.16-7.18.23-10.78.16-9.61.31-19.21.47-28.82v-2.11c0-.31.08-.47.47-.47,1.56,0,3.05.39,4.45,1.17.31.16.31.39.47.62.55,1.17,1.72,1.64,3.05,1.33,1.02-.23,1.87-1.25,1.72-2.34-.23-1.33-.86-2.11-2.34-2.26-.47-.08-.78-.16-1.09-.47-1.64-1.48-3.59-2.26-5.78-2.26-.78,0-.94-.23-.94-.94.08-2.66,0-5.31-.62-7.89-.31-1.25-.62-2.5-1.64-3.51-.23-.23-.16-.31.08-.47,1.56-1.41,1.56-3.05,0-4.45-.31-.31-.16-.39,0-.62.62-.78.55-1.8-.08-2.5-.7-.78-1.72-.94-2.66-.47-.94.47-1.33,1.72-.78,2.66.23.39.23.55-.16.86-1.33,1.02-1.56,2.66-.62,3.98.23.39.23.47-.08.86-1.25,1.64-1.72,3.51-2.03,5.54-.23,2.03-.39,4.14-.23,6.17,0,.55-.23.78-.7.86-1.72.23-3.2.94-4.45,2.03-.31.31-.62.31-1.02.31-.86.23-1.72,1.02-1.8,1.8-.16,1.33.39,2.34,1.56,2.81.94.39,2.34.16,2.81-.78.62-1.17,1.8-1.41,2.89-1.72,1.56-.47,1.72-.23,1.64,1.33s-.08,3.12.08,4.69c.08,1.48.08,2.89.16,4.37.08,2.42.16,4.92.16,7.34,0,.94-.08,1.8.08,2.73v.23c-.08,0-.08.08,0,.16v2.03c0,2.19,0,4.37.16,6.56,0,3.75.08,7.42.23,11.17-.08.47.08.86.23,1.25,1.09,2.03,2.19,3.98,3.28,6.01-.08.23,0,.47.08.47M20.36,14.68c-.39.16-.39.47-.47.78-.39-.62-.23-1.17.39-1.48.62-.39,1.25-.31,1.8.23.39.39.47.94.23,1.41-.16.23-.31.62-.7.47-.55-.16-1.09-.47-1.09-1.09-.08-.16,0-.31-.16-.31M17.71,38.35v-.31h0c0-.08.08-.08.08-.16h.23c.39.16.7.23,1.02.39.55.31,1.33.16,1.8.78,0,3.28-.08,6.56-.08,9.84,0,10.54,0,21.16-.08,31.71v2.89c-.08-.08-.23-.08-.31-.16-.08,0-.08-.08-.16-.08,0-.08-.08-.08-.08-.16-.16-.39-.31-.78-.62-1.09-.16-.23-.31-.47-.39-.62,0-.08-.08-.16-.08-.16-.31-.62-.94-1.17-.94-1.95v-2.89c-.08-2.73-.08-5.54-.16-8.28v-.39c.08-1.17.08-2.34-.08-3.51v-.23c.08-4.14,0-8.28-.16-12.5v-.62c.08-.47.08-.94-.08-1.41h0c.08-1.33.08-2.73-.08-4.06h0c.08-.23.08-.55,0-.86h0c.23-2.11.23-4.14.16-6.17M11.22,37.49c.78.55,1.02,1.64.47,2.34-.55.7-1.72.86-2.5.31-.78-.55-1.02-1.56-.39-2.34.55-.7,1.64-.86,2.42-.31M17.55,33.5c.08.08.23.23.08.39-.16.16-.39.16-.55.08-.16-.16-.23-.31-.08-.47.16-.23.31-.23.55,0M19.5,34.05c-.86-.47-1.64-.94-2.03-1.8.7.62,1.72.86,2.03,1.8M17.16,30.3c1.25,1.33,2.5,2.42,3.83,3.51.16.16.62.23.31.62s-.55.08-.78-.16c-1.09-1.02-2.19-2.11-3.2-3.12-.23-.16-.31-.47-.16-.86M17.63,27.96c-.31-.08-.39-.23-.39-.55.31.08.31.31.39.55M19.5,20.85c-1.02-.7-1.25-2.03-.55-3.05.7-.94,2.26-1.25,3.2-.55s1.17,2.03.55,3.05c-.7.94-2.19,1.25-3.2.55M23.48,26.32c-1.33-1.41-2.81-2.58-3.83-4.14,1.02.7,1.87,1.72,2.97,2.34-.39-.86-1.33-1.33-1.87-2.26,1.8.78,2.97,2.42,2.73,4.06M23.72,29.68c-1.33-1.87-3.36-3.05-4.53-4.92,1.09.86,2.03,1.87,3.28,2.58-.86-1.8-3.2-2.58-3.67-4.61,1.09,1.17,2.34,2.19,3.44,3.44.55.62,1.17,1.33,1.48,2.11.16.39.39.86,0,1.41M23.41,32.26c-1.02-1.02-2.19-1.95-3.28-2.89-1.09-.94-2.11-1.87-2.58-3.28,1.33,1.8,3.44,2.81,5,4.45-1.25-2.19-3.98-3.28-4.69-5.86,1.41,1.72,3.44,2.89,4.84,4.61.62.78,1.09,1.72,1.33,2.66.08.16.16.39-.08.55-.31.08-.39-.16-.55-.23M23.48,33.35c.08.16.47.47.16.55-.39.16-.94.39-1.33-.08-.62-.7-1.48-1.09-2.19-1.64-1.02-.86-1.95-1.87-2.58-3.12,1.64,1.56,3.36,3.12,5.08,4.69q.08-.08.16-.16c-1.48-1.87-3.36-3.59-5-5.39,1.02.7,1.87,1.56,2.81,2.34,1.09.86,2.03,1.72,2.89,2.81M30.2,36.24c.23.16.47.31.7.47.08.08.39.16.23.39-.16.16-.31.39-.55.23-.16-.08-.39-.16-.55-.31-2.66-1.56-5.31-1.56-8.04-.47-.55.23-1.02.23-1.64,0-2.73-1.09-5.39-1.25-7.89.55-.47.31-.62,0-.86-.23-.31-.31.08-.39.23-.55,2.58-1.87,5.47-2.11,8.51-1.09.7.23,1.25.23,2.03,0,2.73-.86,5.39-.62,7.81,1.02M31.53,40.46c-.86-.55-1.02-1.56-.47-2.26s1.64-.94,2.42-.39c.78.47,1.02,1.56.47,2.34-.47.7-1.56.86-2.42.31M21.3,37.88c-.7.08-1.41.16-2.03-.08-2.03-.7-3.9-.23-5.78.47-.23.08-.47.47-.7.16-.31-.39,0-.62.31-.78,1.17-.86,2.5-1.17,3.98-1.09,1.56.08,2.89.62,4.3,1.25.47-.23.86-.47,1.41-.62,2.42-.86,4.84-.86,7.11.62.31.16.55.39.31.7-.23.47-.55.08-.7,0-1.64-.78-3.36-1.09-5.15-.86-1.09.08-2.03.39-3.05.23M21.61,84.27c-.23-1.72-.16-3.44-.16-5.15,0-10.31,0-20.54.08-30.85v-8.43c0-.31-.08-.62.08-.86.55-.23,1.17-.31,1.72-.62.78-.39.78,0,.78.55-.16,13.59-.31,27.26-.47,40.84,0,.55-.08,1.09-.39,1.56-.16.23-.39.47-.39.7-.08.16-.16.31-.23.47-.16.16-.23.23-.23.47-.23.47-.55.86-.78,1.33"/>
    <path class="st1" d="M18.96,18.98c.08-.55.31-.94,1.02-1.02-.39.55-.7,1.02-.23,1.72.47.62,1.17.47,1.87.7-.7.39-1.33.47-1.87.08-.55-.39-.86-.86-.78-1.48"/>
    <path class="st5" d="M58.47,115.27c1.8-.23,3.51.08,5.15.86.16.08.47.47.7,0,.16-.39-.08-.55-.31-.7-2.26-1.48-4.69-1.48-7.11-.62-.47.16-.94.47-1.41.62-1.41-.62-2.73-1.17-4.3-1.25-1.48-.08-2.81.31-3.98,1.09-.31.23-.55.47-.31.78s.55-.08.7-.16c1.87-.7,3.75-1.17,5.78-.47.62.23,1.41.08,2.03.08,1.09.23,2.03-.08,3.05-.23"/>
    <path class="st5" d="M46.99,114.96c1.17-.86,2.58-1.25,4.22-1.17,1.56.08,2.89.62,4.3,1.17.08-.08.16-.08.23-.16.31-.16.62-.31,1.02-.47,2.81-1.02,5.31-.78,7.5.7.23.16.55.39.55.86,0,.16-.08.31-.08.39-.16.23-.31.39-.55.39-.31.08-.55-.16-.78-.23-1.56-.78-3.2-1.02-4.92-.78-.23,0-.55.08-.78.16-.7.16-1.48.23-2.26.16h-.31c-.62.08-1.25.08-1.87-.08-1.95-.62-3.75-.16-5.47.47,0,0-.08,0-.08.08-.55.39-.94.16-1.17-.08-.16-.16-.23-.31-.23-.55.16-.39.47-.7.7-.86M51.21,114.65c-1.41-.08-2.58.31-3.59,1.02,1.8-.7,3.83-1.25,6.01-.47.08,0,.16.08.23.08-.86-.39-1.72-.62-2.66-.62M57.3,115.12c.08,0,.16,0,.23-.08.31-.08.55-.08.86-.16,1.8-.23,3.51,0,5.15.78-1.8-1.17-3.83-1.33-6.25-.55"/>
    <path class="st0" d="M52.15,141.51v.23c.16,1.17.08,2.34.08,3.51v.39c.08,2.73.08,5.54.16,8.28v2.89c0,.78.62,1.33.94,1.95,0,.08.08.16.08.16.16.23.31.47.39.62.31.31.55.7.62,1.09.08,0,.08.08.08.16.08,0,.08.08.16.08.08.08.23.08.31.16v-2.89c0-10.54,0-21.16.08-31.71,0-3.28,0-6.56.08-9.84-.39-.55-1.17-.47-1.8-.78-.31-.16-.7-.23-1.02-.39h-.23c0,.08-.08.08-.08.16h0v.31c.08,2.03.16,4.06.08,6.09h0c.08.31.08.55,0,.86h0c.16,1.41.16,2.73.08,4.06h0c.16.47.08.94.08,1.41v.62c-.08,4.3,0,8.43-.08,12.57"/>
    <path class="st0" d="M51.44,115.9h0v-.23c0-.08,0-.16.08-.23l.08-.16c.08-.08.16-.16.23-.16h.55c.08,0,.23.08.31.08.23.08.55.16.78.31.16.08.39.16.55.16.47.08.94.23,1.33.7.08.08.08.16.08.23v44.44c0,.16-.08.31-.23.31-.16.08-.31.08-.39,0l-.31-.16s-.08,0-.08-.08l-.16-.08c-.08,0-.08-.08-.08-.16-.08-.08-.16-.16-.16-.23-.08-.39-.31-.62-.55-.94l-.08-.08-.47-.7-.08-.16c-.08-.16-.23-.39-.31-.55-.31-.39-.62-.94-.62-1.56v-2.97c0-1.95-.08-3.9-.08-5.86l-.08-2.5v-2.03c0-.7,0-1.25-.08-1.87v-.23c.08-4.3,0-8.51-.16-12.42v-.16h0v-.55c.08-.47.08-.86,0-1.25h0v-.16c.08-1.33.08-2.73-.08-4.06v-.16c.08-.23.08-.39,0-.55v-.23c.08-1.95.08-3.98-.08-6.01h0q.08.31.08.23M52.38,122.07c.08.31.08.62,0,.94.08,1.25.16,2.66.08,4.06.08.47.08,1.02,0,1.48v.62c.16,3.9.16,8.12.16,12.42v.16c.08,1.02.08,2.34.08,3.51v.39l.08,2.5c0,1.95.08,3.9.08,5.86v2.89c0,.39.23.7.47,1.09.16.23.31.39.39.7l.39.7c.16.16.31.39.47.55v-43.11c-.16-.16-.39-.23-.78-.31-.23-.08-.55-.16-.78-.23-.16-.08-.39-.16-.62-.23l-.16-.08v.08c.08,1.25.08,2.42.08,3.59.16.86.08,1.64.08,2.42"/>
    <path class="st0" d="M56.83,160.18l.23-.47c0-.31.23-.55.39-.7.31-.47.39-1.02.39-1.56.16-13.59.31-27.26.47-40.84,0-.55,0-.94-.78-.55-.55.23-1.09.39-1.72.62-.16.31-.08.62-.08.86v8.43c0,10.31-.08,20.54-.08,30.85,0,1.72-.08,3.44.16,5.15.23-.39.55-.86.78-1.25,0-.23.08-.39.23-.55"/>
    <path class="st0" d="M55.27,158.07v-1.41c0-7.89,0-15.85.08-23.74v-15.54c0-.23-.08-.55.16-.94.08-.08.16-.16.23-.16.16-.08.39-.16.55-.16.39-.16.78-.23,1.09-.39s.7-.31,1.02-.16c.39.23.39.62.39.94v.16c-.16,13.59-.31,27.26-.47,40.84,0,.7-.16,1.25-.55,1.8-.16.16-.31.31-.31.47,0,.08,0,.16-.08.16l-.23.47c0,.08-.08.08-.08.16l-.08.08c0,.08,0,.16-.08.23l-.78,1.25c-.08.16-.31.23-.47.23s-.31-.16-.31-.39c-.08-.78-.16-1.56-.16-2.66.08-.39.08-.78.08-1.25M56.21,160.57c0-.23.16-.39.31-.62l.16-.31c.08-.39.31-.62.47-.78.23-.31.31-.78.31-1.33.16-13.59.31-27.26.47-40.84v-.23s-.08,0-.16.08c-.39.23-.78.31-1.25.47-.08,0-.23.08-.31.08v.55h0v15.38c0,7.89-.08,15.85-.08,23.74v1.41c0,.86,0,1.72.08,2.42h0Z"/>
    <path class="st5" d="M64.49,113.94c-2.5-1.64-5.15-1.8-7.89-.94-.7.23-1.33.16-2.03,0-3.05-.94-5.94-.78-8.51,1.09-.16.16-.55.23-.23.55.23.23.39.55.86.23,2.5-1.8,5.15-1.64,7.89-.55.62.23,1.02.23,1.64,0,2.73-1.09,5.39-1.09,8.04.47.16.08.31.23.55.31.31.16.47-.08.55-.23.16-.16-.08-.31-.23-.39-.16-.23-.39-.39-.62-.55"/>
    <path class="st5" d="M45.82,113.71c2.5-1.87,5.47-2.26,8.9-1.17.62.23,1.17.23,1.72,0,3.05-.94,5.78-.62,8.28,1.02l.23.16c.16.16.39.23.55.39.16.08.39.23.39.55,0,.08,0,.23-.16.39-.08.16-.47.55-1.02.31-.23-.08-.39-.23-.62-.31-2.34-1.41-4.84-1.56-7.65-.47-.7.31-1.25.31-1.95,0-2.97-1.17-5.39-1.02-7.42.47-.7.47-1.17,0-1.33-.16l-.08-.08c-.16-.16-.23-.31-.23-.55-.16-.23.16-.39.39-.55M46.37,114.57l.08-.08c2.34-1.64,5.08-1.87,8.28-.55.47.16.78.16,1.25,0,2.89-1.17,5.54-1.09,8.04.31-2.19-1.41-4.69-1.72-7.42-.86-.78.23-1.41.23-2.26,0-3.2-1.02-5.86-.62-8.12,1.09,0,0-.08,0-.08.08.16-.08.23-.08.23,0h0"/>
    <path class="st5" d="M56.44,94.97c.94.7,1.17,2.03.55,3.05-.7,1.02-2.19,1.25-3.2.55-1.02-.7-1.25-2.03-.55-3.05.7-.94,2.19-1.17,3.2-.55"/>
    <path class="st5" d="M53.01,95.43c.39-.55,1.02-.86,1.72-1.02.62-.08,1.33.08,1.8.39.62.47,1.02,1.17,1.02,1.95,0,.47-.16.94-.47,1.33-.39.55-1.02.86-1.72,1.02-.7.08-1.33,0-1.8-.39-.7-.47-1.09-1.17-1.09-1.95.08-.47.23-.94.55-1.33M56.29,95.12c-.39-.31-.94-.39-1.48-.31-.55.08-1.09.39-1.41.78-.23.39-.39.78-.39,1.17,0,.62.31,1.17.86,1.56.39.31.94.39,1.48.31.55-.08,1.09-.39,1.41-.86.23-.31.39-.7.39-1.09,0-.55-.31-1.17-.86-1.56"/>
    <path class="st3" d="M51.76,103.71c.47,1.41,1.48,2.34,2.58,3.28,1.09.94,2.19,1.87,3.28,2.89.16.16.23.31.47.23.23-.08.16-.31.08-.55-.23-.94-.7-1.87-1.33-2.66-1.41-1.72-3.36-2.89-4.84-4.61.7,2.58,3.44,3.67,4.69,5.86-1.41-1.56-3.51-2.66-4.92-4.45"/>
    <path class="st3" d="M51.6,103.71c0-.08.08-.23.23-.23.08,0,.16.08.23.16.7.86,1.56,1.56,2.42,2.26-1.09-.94-2.11-1.95-2.58-3.44,0-.08,0-.16.08-.23s.23,0,.23.08c.7.86,1.56,1.56,2.34,2.26.86.7,1.72,1.48,2.42,2.34.7.78,1.09,1.72,1.41,2.81,0,.08.08.16.08.31,0,.23-.08.39-.31.47-.31.16-.55-.08-.7-.23l-.08-.08c-.78-.78-1.64-1.48-2.42-2.19-.23-.23-.55-.47-.78-.7-1.09-1.09-2.11-2.11-2.58-3.59,0,.08,0,0,0,0h0ZM56.91,108.4c-.08.08-.23.08-.31,0-.62-.7-1.41-1.33-2.19-1.87-.55-.47-1.09-.86-1.64-1.33.47.62,1.09,1.25,1.72,1.8.23.23.55.47.78.7.86.7,1.72,1.48,2.5,2.26l.08.08.16.16c.08,0,0-.08,0-.31-.23-.94-.7-1.8-1.33-2.58-.7-.86-1.56-1.56-2.42-2.26-.55-.47-1.09-.94-1.56-1.41.55.86,1.25,1.56,2.03,2.26s1.64,1.48,2.19,2.42v.08c.08-.16,0-.08,0,0"/>
    <path class="st5" d="M43.01,115.58c-.55.78-.39,1.72.39,2.34.78.55,1.95.39,2.5-.31s.31-1.8-.47-2.34c-.78-.62-1.8-.47-2.42.31"/>
    <path class="st5" d="M42.7,115.35c.7-.94,2.03-1.17,3.05-.47.94.62,1.17,2.03.55,2.89-.31.47-.86.7-1.41.78-.62.08-1.17-.08-1.64-.39-.62-.39-.94-1.02-.94-1.72-.08-.39.08-.78.39-1.09M45.2,115.51c-.62-.39-1.41-.31-1.87.31-.39.55-.31,1.33.31,1.72.31.16.62.31,1.02.23.31-.08.62-.23.86-.47.16-.16.23-.39.23-.7,0-.39-.16-.86-.55-1.09"/>
    <path class="st5" d="M65.81,118.16c.78.55,1.87.39,2.42-.39s.31-1.8-.47-2.34-1.87-.31-2.42.39c-.62.86-.39,1.8.47,2.34"/>
    <path class="st5" d="M64.95,115.66c.7-.94,2.03-1.17,3.05-.47.94.62,1.25,1.95.55,2.89-.31.47-.78.78-1.41.86-.55.08-1.17,0-1.64-.39-.62-.39-.94-1.02-.94-1.72,0-.47.16-.86.39-1.17M67.53,115.82c-.62-.39-1.48-.23-1.87.31s-.23,1.33.39,1.72c.31.23.62.31,1.02.23.31-.08.62-.23.78-.47s.23-.47.23-.7c0-.47-.23-.86-.55-1.09"/>
    <path class="st3" d="M51.99,105.98c1.64,1.8,3.44,3.44,5,5.39q-.08.08-.16.16c-1.72-1.56-3.36-3.12-5.08-4.69.62,1.25,1.48,2.26,2.58,3.12.7.62,1.56,1.02,2.19,1.64.39.39.94.16,1.33.08.39-.16,0-.47-.16-.55-.78-1.02-1.8-1.95-2.89-2.81-.94-.78-1.8-1.72-2.81-2.34"/>
    <path class="st3" d="M51.6,106.6c.08-.08.23-.08.31,0l3.67,3.44c-.62-.62-1.25-1.33-1.8-1.87-.62-.7-1.33-1.33-1.95-2.03,0-.08-.08-.08-.08-.16s.08-.23.23-.23c.08,0,.16,0,.16.08.62.39,1.17.94,1.72,1.41.31.31.7.62,1.09.94,1.17.94,2.19,1.87,2.89,2.81l.08.08c.08.16.23.31.23.47,0,.08,0,.23-.31.39h-.08c-.39.16-1.02.31-1.41-.16-.39-.39-.78-.7-1.25-.94-.31-.23-.62-.39-.94-.7-1.25-1.02-2.03-2.03-2.58-3.2v-.08c-.08-.08,0-.16,0-.23M52.77,108.01c.47.62,1.02,1.17,1.72,1.8.31.23.62.47.86.62h0l-2.58-2.42ZM57.07,111.44l-.16.16c.16,0,.39,0,.62-.16h.08c0-.08-.08-.16-.16-.16l-.08-.08c-.7-.94-1.64-1.8-2.81-2.73-.08,0-.08-.08-.16-.08.86.94,1.8,1.87,2.58,2.89,0,0,.08.08.08.16.08-.08.08,0,0,0"/>
    <path class="st3" d="M53.01,100.43c.47,2.03,2.81,2.81,3.67,4.61-1.25-.7-2.19-1.72-3.28-2.58,1.17,1.87,3.2,3.05,4.53,4.92.31-.55.16-1.02-.08-1.41-.31-.78-.94-1.48-1.48-2.11-1.02-1.25-2.26-2.26-3.36-3.44"/>
    <path class="st3" d="M52.77,100.43c0-.08.08-.23.23-.23.08,0,.16.08.16.08.55.55,1.09,1.09,1.64,1.64.62.55,1.17,1.17,1.8,1.8.55.62,1.17,1.33,1.56,2.19.16.31.23.55.23.86,0,.23-.08.47-.23.7,0,.08-.08.08-.16.08s-.16,0-.16-.08c-.62-.94-1.41-1.64-2.26-2.42s-1.72-1.56-2.34-2.58c-.08-.08,0-.23.08-.23.08-.08.23-.08.31,0,.31.23.62.47.86.78.47.47,1.02.86,1.56,1.25-.31-.39-.78-.78-1.17-1.17-.94-.7-1.8-1.48-2.11-2.66h0ZM56.83,105.2c-.08.08-.16.08-.23,0-.39-.23-.7-.47-1.02-.7.08.08.23.23.31.31.7.62,1.41,1.33,2.03,2.11.08-.31-.08-.62-.23-.94-.31-.78-.86-1.41-1.48-2.03-.55-.62-1.17-1.17-1.72-1.72-.23-.23-.55-.55-.86-.78.39.55.86.94,1.41,1.41.7.62,1.41,1.25,1.8,2.11v.08c.08,0,.08.08,0,.16"/>
    <path class="st3" d="M56.83,102.23c-1.09-.62-1.95-1.56-2.97-2.34,1.02,1.56,2.5,2.66,3.83,4.14.23-1.64-.94-3.28-2.81-4.06.55.94,1.56,1.41,1.95,2.26"/>
    <path class="st3" d="M53.71,99.73c.08-.08.16-.08.31,0,.47.31.86.7,1.25,1.02l.08.08c-.23-.23-.47-.47-.62-.78v-.08h0c0-.08.08-.23.23-.23q.08,0,.16.08c1.95.86,3.12,2.5,2.89,4.3,0,.08-.08.16-.16.16s-.16,0-.23-.08c-.47-.47-.94-.94-1.33-1.33-.94-.86-1.8-1.72-2.5-2.81v-.08q-.16-.16-.08-.23M55.74,100.59c.08.08.23.23.31.31.39.39.78.7.94,1.17,0,.08,0,.16-.08.23s-.16.08-.23,0c-.47-.31-.94-.62-1.33-.94.39.39.7.7,1.09,1.09.31.31.7.62,1.02,1.02,0-1.09-.62-2.11-1.72-2.89"/>
    <path class="st5" d="M54.1,93.09c.16-.31.16-.62.47-.78.16.08.08.16.16.31,0,.7.55.94,1.09,1.09.39.16.55-.23.7-.47.23-.47.16-1.02-.23-1.41-.55-.55-1.17-.62-1.8-.23-.62.39-.78.86-.39,1.48"/>
    <path class="st5" d="M54.33,91.45c.7-.47,1.48-.31,2.11.23.31.31.47.62.47,1.02,0,.23-.08.47-.16.7s-.39.7-.94.55c-.55-.16-1.17-.47-1.25-1.25-.08.08-.08.16-.08.23s-.08.16-.08.23l-.16.39-.23-.31c-.16-.23-.23-.47-.23-.7-.16-.47.08-.86.55-1.09M54.49,92.15h.16c.16.08.23.16.23.39v.08c0,.47.31.7.94.94.16.08.23,0,.39-.39.23-.47.16-.86-.16-1.17-.47-.47-1.02-.55-1.56-.16-.31.23-.47.47-.47.7h0c.16-.16.23-.31.47-.39"/>
    <path class="st3" d="M51.37,108.01c-.23.39-.08.7.16.86,1.09,1.02,2.19,2.11,3.2,3.12.23.23.47.47.78.16.31-.39-.16-.47-.31-.62-1.33-1.09-2.58-2.19-3.83-3.51"/>
    <path class="st3" d="M51.21,107.93c0-.08.08-.08.16-.16.08,0,.16,0,.16.08,1.25,1.33,2.5,2.42,3.83,3.51l.08.08c.16.08.39.23.39.47,0,.08-.08.23-.16.31-.16.16-.31.23-.47.23-.31,0-.47-.16-.7-.39l-.62-.62c-.86-.86-1.72-1.72-2.58-2.5-.23-.16-.31-.39-.31-.62.08-.08.16-.23.23-.39M55.27,111.76c-.08,0-.08-.08-.16-.08-1.25-1.02-2.42-2.03-3.59-3.2,0,.08.08.16.16.31.86.86,1.72,1.72,2.58,2.5l.62.62c.08.08.23.23.31.23,0,0,.08,0,.16-.08l.08-.08c0-.08-.16-.16-.16-.23"/>
    <path class="st3" d="M51.68,110.04c.47.86,1.25,1.33,2.03,1.8-.31-1.02-1.33-1.25-2.03-1.8"/>
    <path class="st3" d="M51.44,110.04v.08c.55.94,1.41,1.41,2.19,1.87.08.08.16,0,.23,0,.08-.08.08-.16.08-.23-.23-.7-.86-1.09-1.48-1.41-.23-.16-.47-.23-.62-.39,0-.08-.08-.08-.16-.08-.08-.08-.23,0-.23.16h0Z"/>
    <path class="st3" d="M51.76,111.21c-.23-.16-.39-.16-.55-.08-.16.16-.08.39.08.55s.39.16.55-.08c.08-.23-.08-.31-.08-.39"/>
    <path class="st3" d="M51.83,105.67c-.08-.23-.08-.47-.39-.55,0,.31.08.47.39.55"/>
    <path class="st3" d="M51.21,105.12c0,.39.16.62.55.7.08,0,.16,0,.23-.08.08-.08.08-.16.08-.23v-.08c-.08-.23-.16-.47-.55-.55h-.16c-.08.08-.16.16-.16.23h0"/>
    <path class="st1" d="M55.5,164.55c.31-.08.31-.31.31-.55.08-.08.08-.23.16-.31.08-.08.16-.16.08-.31.23-.23.31-.47.31-.78.16-.16.31-.31.31-.62l.23-.47v-.16c.31-.23.31-.62.47-.94.16-.16.23-.23.16-.47.08-.08.08-.23.16-.31.08-.08.16-.16.08-.31.08-.08.16-.16.16-.31.16-.08.16-.23.08-.31l.23-.47v-.16c.08-3.59.16-7.18.23-10.78.16-9.61.31-19.21.47-28.82v-2.11c0-.31.08-.47.47-.47,1.56,0,3.05.39,4.45,1.17.31.16.31.39.47.62.55,1.17,1.72,1.64,3.05,1.33,1.02-.23,1.87-1.25,1.72-2.34-.23-1.33-.86-2.11-2.34-2.26-.47-.08-.78-.16-1.09-.47-1.64-1.48-3.59-2.26-5.78-2.26-.78,0-.94-.23-.94-.94.08-2.66,0-5.31-.62-7.89-.31-1.25-.62-2.5-1.64-3.51-.23-.23-.16-.31.08-.47,1.56-1.41,1.56-3.05,0-4.45-.31-.31-.16-.39,0-.62.62-.78.55-1.8-.08-2.5-.7-.78-1.72-.94-2.66-.47-.94.47-1.33,1.72-.78,2.66.23.39.23.55-.16.86-1.33,1.02-1.56,2.66-.62,3.98.23.39.23.47-.08.86-1.25,1.64-1.72,3.51-2.03,5.54-.23,2.03-.39,4.14-.23,6.17,0,.55-.23.78-.7.86-1.72.23-3.2.94-4.45,2.03-.31.31-.62.31-1.02.31-1.02.16-1.95.86-2.03,1.72-.16,1.33.39,2.34,1.56,2.81.94.39,2.34.16,2.81-.78.62-1.17,1.8-1.41,2.89-1.72,1.56-.47,1.72-.23,1.64,1.33s-.08,3.12.08,4.69c.08,1.48.08,2.89.16,4.37.08,2.42.16,4.92.16,7.34,0,.94-.08,1.8.08,2.73v.23q-.08.08,0,.16v2.03c0,2.19,0,4.37.16,6.56,0,3.75.08,7.42.23,11.17-.08.47.08.86.23,1.25,1.09,2.03,2.19,3.98,3.28,6.01.08.31.16.55.31.55M54.57,92.39c-.39.16-.39.47-.47.78-.39-.62-.23-1.17.39-1.48.62-.39,1.25-.31,1.8.23.39.39.47.94.23,1.41-.16.23-.31.62-.7.47-.55-.16-1.09-.47-1.09-1.09,0-.16,0-.31-.16-.31M51.91,116.05v-.31h0c0-.08.08-.08.08-.16h.23c.39.16.7.23,1.02.39.55.31,1.33.16,1.8.78,0,3.28-.08,6.56-.08,9.84,0,10.54,0,21.16-.08,31.71v2.89c-.08-.08-.23-.08-.31-.16-.08,0-.08-.08-.16-.08,0-.08-.08-.08-.08-.16-.16-.39-.31-.78-.62-1.09-.16-.23-.31-.47-.39-.62,0-.08-.08-.16-.08-.16-.31-.62-.94-1.17-.94-1.95v-2.89c-.08-2.73-.08-5.54-.16-8.28v-.39c.08-1.17.08-2.34-.08-3.51v-.23c.08-4.14,0-8.28-.16-12.5v-.62c.08-.47.08-.94-.08-1.41h0c.08-1.33.08-2.73-.08-4.06h0c.08-.23.08-.55,0-.86h0c.31-2.11.23-4.14.16-6.17M45.43,115.19c.78.55,1.02,1.64.47,2.34s-1.72.86-2.5.31c-.78-.55-1.02-1.56-.39-2.34.62-.7,1.64-.86,2.42-.31M51.76,111.21c.08.08.23.23.08.39-.16.16-.39.16-.55.08-.16-.16-.23-.31-.08-.55.16-.16.31-.16.55.08M53.71,111.76c-.86-.47-1.64-.94-2.03-1.8.7.62,1.72.86,2.03,1.8M51.37,108.01c1.25,1.33,2.5,2.42,3.83,3.51.16.16.62.23.31.62s-.55.08-.78-.16c-1.09-1.02-2.19-2.11-3.2-3.12-.16-.16-.31-.47-.16-.86M51.83,105.67c-.31-.08-.39-.23-.39-.55.31.08.31.31.39.55M53.71,98.56c-1.02-.7-1.25-2.03-.55-3.05.7-.94,2.26-1.25,3.2-.55s1.17,2.03.55,3.05c-.7.94-2.19,1.25-3.2.55M57.69,104.03c-1.33-1.41-2.81-2.58-3.83-4.14,1.02.7,1.87,1.72,2.97,2.34-.39-.86-1.33-1.33-1.87-2.26,1.8.78,2.97,2.42,2.73,4.06M58,107.38c-1.33-1.87-3.36-3.05-4.53-4.92,1.09.86,2.03,1.87,3.28,2.58-.86-1.8-3.2-2.58-3.67-4.61,1.09,1.17,2.34,2.19,3.44,3.44.55.62,1.17,1.33,1.48,2.11.08.39.31.86,0,1.41M57.61,109.96c-1.02-1.02-2.19-1.95-3.28-2.89-1.09-.94-2.11-1.87-2.58-3.28,1.33,1.8,3.44,2.81,5,4.45-1.25-2.19-3.98-3.28-4.69-5.86,1.41,1.72,3.44,2.89,4.84,4.61.62.78,1.09,1.72,1.33,2.66.08.16.16.39-.08.55-.31.08-.39-.16-.55-.23M57.69,111.05c.08.16.47.47.16.55-.39.16-.94.39-1.33-.08-.62-.7-1.48-1.09-2.19-1.64-1.02-.86-1.95-1.87-2.58-3.12,1.72,1.56,3.36,3.12,5.08,4.69q.08-.08.16-.16c-1.48-1.87-3.36-3.59-5-5.39,1.02.7,1.87,1.56,2.81,2.34,1.09.86,2.03,1.72,2.89,2.81M64.49,113.94c.23.16.47.31.7.47.08.08.39.16.23.39-.16.16-.31.39-.55.23-.16-.08-.39-.16-.55-.31-2.66-1.56-5.31-1.56-8.04-.47-.55.23-1.02.23-1.64,0-2.73-1.09-5.39-1.25-7.89.55-.47.31-.62,0-.86-.23-.31-.31.08-.39.23-.55,2.58-1.87,5.47-2.11,8.51-1.09.7.23,1.25.23,2.03,0,2.66-.86,5.31-.62,7.81,1.02M65.81,118.16c-.86-.55-1.02-1.56-.47-2.26.55-.7,1.64-.94,2.42-.39.78.47,1.02,1.56.47,2.34-.55.7-1.64.86-2.42.31M55.5,115.58c-.7.08-1.41.16-2.03-.08-2.03-.7-3.9-.23-5.78.47-.23.08-.47.47-.7.16-.31-.39,0-.62.31-.78,1.17-.86,2.5-1.17,3.98-1.09,1.56.08,2.89.62,4.3,1.25.47-.23.86-.47,1.41-.62,2.42-.86,4.84-.86,7.11.62.31.16.55.39.31.7-.23.47-.55.08-.7,0-1.64-.78-3.36-1.09-5.15-.86-1.09.08-2.03.39-3.05.23M55.82,161.97c-.23-1.72-.16-3.44-.16-5.15,0-10.31,0-20.54.08-30.85v-8.43c0-.31-.08-.62.08-.86.55-.23,1.17-.31,1.72-.62.78-.39.78,0,.78.55-.16,13.59-.31,27.26-.47,40.84,0,.55-.08,1.09-.39,1.56-.16.23-.39.47-.39.7l-.23.47c-.16.16-.23.23-.23.47-.23.47-.55.86-.78,1.33"/>
    <path class="st1" d="M53.16,96.68c.08-.55.31-.94,1.02-1.02-.39.55-.7,1.02-.23,1.72.47.62,1.17.47,1.87.7-.7.39-1.33.47-1.87.08-.55-.39-.86-.86-.78-1.48"/>
  </g>
</svg>