<?xml version="1.0" encoding="UTF-8"?>
<svg id="Layer_1" xmlns="http://www.w3.org/2000/svg" version="1.1" viewBox="0 0 109.6 176.97">
  <!-- Generator: Adobe Illustrator 30.2.1, SVG Export Plug-In . SVG Version: 2.1.1 Build 1)  -->
  <defs>
    <style>
      .st0 {
        fill: #0e80c3;
      }

      .st1 {
        fill: #1d1c1a;
      }

      .st2 {
        stroke: #1d1c1a;
        stroke-width: 1.26px;
      }

      .st2, .st3 {
        fill: none;
        stroke-miterlimit: 10;
      }

      .st4 {
        fill: #d81f26;
      }

      .st5 {
        fill: #fff;
      }

      .st3 {
        stroke: #d81f26;
        stroke-width: .78px;
      }

      .st6 {
        fill: #fddb00;
      }
    </style>
  </defs>
  <rect class="st5" x="-.54" y="-.07" width="110.69" height="177.1"/>
  <g>
    <path class="st1" d="M5.91,9.8v-1.64c1.17-.47,2.19-.78,3.12-.78.55,0,1.09.08,1.48.23.47.16.78.39,1.02.7s.39.7.39,1.09-.08.7-.23,1.02c-.16.31-.39.55-.62.78-.31.23-.62.47-1.09.62v.08c.39.08.78.23,1.09.39.31.23.62.47.78.78.16.31.31.7.31,1.17,0,.55-.16,1.02-.39,1.41-.23.39-.62.78-1.17,1.02s-1.17.39-1.87.39c-.55,0-1.02-.08-1.48-.16-.47-.08-.94-.23-1.33-.39v-1.72h1.25c.16.55.31.94.55,1.17s.55.39.94.39c.94,0,1.48-.62,1.48-1.8,0-.62-.16-1.09-.55-1.48-.31-.31-.86-.47-1.56-.47h-.55v-.78c.78,0,1.41-.23,1.8-.55s.62-.86.62-1.48c0-.55-.08-.86-.31-1.17-.23-.23-.47-.39-.86-.39-.23,0-.47.08-.62.16-.16.08-.39.23-.47.55-.16.23-.23.55-.31.94h-1.41v-.08Z"/>
    <path class="st1" d="M103.85,167.32v1.64c-1.17.47-2.19.78-3.12.78-.55,0-1.09-.08-1.48-.23-.47-.16-.78-.39-1.02-.7s-.39-.7-.39-1.09.08-.7.23-1.02.39-.55.62-.78c.31-.23.62-.47,1.09-.62v-.08c-.39-.08-.78-.23-1.09-.39-.31-.23-.62-.47-.78-.78s-.31-.7-.31-1.17c0-.55.16-1.02.39-1.41s.62-.78,1.17-1.02,1.17-.39,1.87-.39c.55,0,1.02.08,1.48.16.47.08.94.23,1.33.39v1.72h-1.25c-.16-.55-.31-.94-.55-1.17s-.55-.39-.94-.39c-.94,0-1.48.62-1.48,1.8,0,.62.16,1.09.55,1.48.31.31.86.47,1.56.47h.55v.78c-.78,0-1.41.23-1.8.55s-.62.86-.62,1.48c0,.55.08.86.31,1.17.23.23.47.39.86.39.23,0,.47-.08.62-.16.16-.08.39-.23.47-.55.16-.23.23-.55.31-.94h1.41v.08Z"/>
    <polyline class="st2" points="29.65 171.54 3.73 171.54 3.73 5.43 29.11 5.43"/>
    <polyline class="st2" points="79.48 5.43 105.88 5.43 105.88 171.54 79.25 171.54"/>
    <line class="st2" x1="68.55" y1="171.54" x2="40.43" y2="171.54"/>
    <line class="st2" x1="68.55" y1="5.43" x2="40.43" y2="5.43"/>
    <path class="st4" d="M78,36.2h0Z"/>
    <path class="st3" d="M78,36.2h0Z"/>
    <polygon class="st4" points="78.31 35.96 77.76 36.51 77.68 36.43 78.23 35.89 78.31 35.96"/>
    <polygon class="st3" points="78.31 35.96 77.76 36.51 77.68 36.43 78.23 35.89 78.31 35.96"/>
    <path class="st6" d="M98.54,61.66c.39.78.08,1.48-.78,1.64-.23.08-.55-.08-.78.16.86.62,2.03.47,2.58-.31.47-.62.31-1.41-.39-1.95-.23-.16-.55-.47-.78-.31-.23.23.08.55.16.78"/>
    <path class="st6" d="M83.78,16.75c.7.39.94.86.55,1.41-.31.47-.78.62-1.33.23q.94-.31.78-1.64"/>
    <path class="st0" d="M80.26,154.98c-.47-1.09-.86-2.19-1.48-3.12-1.48-2.42-1.56-5.08-1.48-7.81.08-4.22.08-8.43.16-12.65.08-5.94.16-11.95.16-17.88.08-8.12.16-16.24.23-24.37.08-7.65.16-15.38.23-23.12,0-1.33.08-2.66.08-3.98h.16c.16,0,.23,0,.39.08,1.17.7,2.34,1.33,3.51,2.03.31.23.39.55.39.86-.08,6.01-.16,12.03-.23,18.04-.08,5.78-.16,11.56-.23,17.26-.08,7.58-.16,15.07-.23,22.65-.08,7.97-.23,15.93-.31,23.9-.08,3.2-.08,6.4-.08,9.61,0,.16.08.31-.16.55-.39-.7-.78-1.33-1.09-2.03"/>
    <path class="st0" d="M82.99,64.94h0c-.08,3.51-.08,6.95-.16,10.31l-.08,7.81c0,2.81-.08,5.7-.08,8.51-.08,2.89-.08,5.86-.08,8.75-.08,3.2-.08,6.4-.08,9.61-.08,4.37-.08,8.67-.16,13.04-.08,4.61-.16,9.29-.16,13.9l-.16,10c0,1.8-.08,3.51-.08,5.31,0,1.41,0,2.89-.08,4.3v.16c0,.23-.08.47-.31.62l-.39.31-1.17-2.5c-.16-.31-.31-.7-.47-1.02-.31-.7-.62-1.48-1.02-2.11-1.33-2.26-1.56-4.61-1.56-6.79v-1.25c.08-2.89.08-5.78.08-8.67v-4.06l.08-7.97c0-3.28.08-6.64.08-9.92l.23-24.37c.08-7.73.16-15.38.23-23.12,0-.94,0-1.8.08-2.73v-1.56l.47-.08c.31-.08.55.08.7.16l3.44,1.95c.55.55.62,1.02.62,1.41M81.04,155.69v-3.44c0-1.8,0-3.51.08-5.31l.16-10c.08-4.61.16-9.29.16-13.9.08-4.37.08-8.67.16-13.04,0-3.2.08-6.4.08-9.61,0-2.89.08-5.86.08-8.75s.08-5.7.08-8.51l.08-7.81c.08-3.44.08-6.87.16-10.31l.39-.08h-.23c0-.31-.08-.47-.16-.55l-3.44-1.95v.78c0,.94-.08,1.8-.08,2.73-.08,7.73-.16,15.38-.23,23.12l-.23,24.37c0,3.28-.08,6.64-.08,9.92l-.08,7.97v4.06c0,2.81,0,5.78-.08,8.67v1.17c0,2.11.16,4.3,1.41,6.4.39.7.78,1.48,1.09,2.19.16.31.31.7.47,1.02l.23.86Z"/>
    <path class="st0" d="M88.85,62.52c-.08,1.33-.16,2.66-.16,3.98-.16,8.12-.31,16.24-.47,24.37-.16,5.94-.23,11.79-.39,17.73-.08,4.92-.23,9.84-.31,14.84-.16,7.03-.31,14.14-.47,21.24,0,1.17-.08,2.34-.08,3.59,0,.47-.08.94-.31,1.41-1.33,2.34-2.73,4.76-4.06,7.11-.08.08-.16.23-.16.23-.08-2.26-.16-4.61-.16-6.87,0-2.42.08-4.84.16-7.26.16-7.5.23-15.07.39-22.57.08-4.69.16-9.37.23-14.06.08-6.72.23-13.43.31-20.07.08-5.15.16-10.31.31-15.38,0-1.95.08-3.83.08-5.78,0-.39.16-.7.47-.94,1.33-1.09,2.81-1.64,4.53-1.87.16-.08.08.16.08.31"/>
    <path class="st0" d="M89.24,62.44l-.08,1.33c0,.94-.08,1.8-.08,2.73-.08,3.75-.16,7.5-.23,11.25-.08,4.37-.16,8.75-.23,13.04-.08,3.44-.16,6.79-.23,10.23-.08,2.5-.08,5-.16,7.5-.08,2.58-.08,5.15-.16,7.73-.08,2.34-.08,4.76-.16,7.11l-.08,3.28c-.16,6.01-.23,11.95-.39,17.96v.94c0,.78-.08,1.56-.08,2.42v.23h0c0,.62-.16,1.17-.39,1.56-.78,1.41-1.64,2.89-2.42,4.3l-1.64,2.81c-.23.47-.47.39-.62.39l-.31-.08v-.31c0-.7-.08-1.41-.08-2.11-.08-1.56-.08-3.2-.08-4.84v-.39c0-1.56,0-3.12.08-4.61,0-.78,0-1.48.08-2.26l.08-6.33c.08-5.39.16-10.86.31-16.24.08-2.5.08-4.92.08-7.42,0-2.19.08-4.45.08-6.64.08-6.72.23-13.43.31-20.07.08-4.14.16-8.2.23-12.34l.08-5.08c0-1.25.08-2.5.08-3.83,0-.47.16-.86.62-1.25,1.25-1.09,2.81-1.72,4.69-2.03h.16l.16.08c.31.16.31.55.31.62l.08.31h0ZM86.66,147.95c0-.78,0-1.64.08-2.42v-.94c.16-6.01.31-11.95.39-17.96l.08-3.28c.08-2.34.08-4.76.16-7.11.08-2.58.08-5.15.16-7.73.08-2.5.08-5,.16-7.5.08-3.44.16-6.79.23-10.23.08-4.37.16-8.75.23-13.04.08-3.75.16-7.5.23-11.25,0-.94.08-1.8.08-2.73l.08-1.25v-.16c-1.64.31-2.97.86-3.98,1.8-.23.23-.31.39-.31.7,0,1.25-.08,2.58-.08,3.83l-.08,5.08c-.08,4.14-.16,8.2-.23,12.34-.16,6.72-.23,13.43-.31,20.07,0,2.19-.08,4.45-.08,6.64,0,2.5-.08,4.92-.08,7.42-.08,5.39-.16,10.86-.31,16.24l-.08,6.33c0,.78,0,1.48-.08,2.26,0,1.48-.08,3.05-.08,4.61v.39c0,1.64.08,3.2.08,4.84v.78l1.09-1.87c.78-1.41,1.64-2.89,2.42-4.3.16-.31.31-.7.31-1.17l-.08-.39Z"/>
    <path class="st6" d="M100.49,62.13c0,1.33-1.09,2.5-2.34,2.58-1.25.08-2.42-1.09-2.5-2.42,0-1.33,1.02-2.58,2.34-2.58,1.33-.16,2.5,1.02,2.5,2.42"/>
    <path class="st6" d="M81.98,22.45c.16,0,.31.08.39.31,0,.23-.16.16-.31.23-.47.16-.78.47-.7,1.02,0,.23.39.47-.08.62-.31.08-.55-.16-.7-.39-.08-.08-.08-.23-.08-.31-.08-.86.78-1.56,1.48-1.48"/>
    <path class="st6" d="M83.85,24.41c.16-.08.39,0,.55.16.39.31.39.7.23,1.09-.08.47-.7.86-1.25.86-.23,0-.47,0-.55-.23-.08-.31.23-.23.39-.31.47-.23.78-.55.55-1.09,0-.16-.08-.39.08-.47"/>
    <path class="st6" d="M82.6,27.76c-.23-.08-.55-.16-.55-.47,0-.39.39-.23.62-.23.94.08,1.8-.08,2.34-.86.62-.78.62-1.64.31-2.58-.08-.31-.31-.62-.23-1.09,1.02.62,1.25,1.56,1.17,2.58-.08,1.09-.47,1.95-1.56,2.42-.62.31-1.41.39-2.11.23"/>
    <path class="st4" d="M78.23,33.39c.16-.62.31-1.25.94-1.64.7-.39,1.33-.86,2.03-1.41-.47-.31-.86-.08-1.17.08-.39.16-.47,0-.39-.31.16-.62.7-.86,1.33-.62.7.31,1.48.39,2.26.55.47.08.62.23.16.55-1.48,1.17-3.2,2.03-4.84,3.12-.39.23-.39-.08-.31-.31"/>
    <path class="st3" d="M78.23,33.39c.16-.62.31-1.25.94-1.64.7-.39,1.33-.86,2.03-1.41-.47-.31-.86-.08-1.17.08-.39.16-.47,0-.39-.31.16-.62.7-.86,1.33-.62.7.31,1.48.39,2.26.55.47.08.62.23.16.55-1.48,1.17-3.2,2.03-4.84,3.12-.39.23-.39-.08-.31-.31Z"/>
    <path class="st4" d="M83.93,30.26c0,.31-.23.47-.39.62-.94.78-1.95,1.33-2.97,1.95-.62.39-1.25.78-1.87,1.17-.31.23-.55.16-.62.08-.23-.16-.39-.47-.23-.86l.08-.16c.16-.62.31-1.25,1.09-1.72.23-.16.55-.31.78-.55-.08,0-.23,0-.31-.08s-.31-.31-.23-.78c.08-.39.31-.7.7-.94.31-.16.78-.16,1.17,0,.55.23,1.09.31,1.72.47l.39.08c.47.23.7.39.7.7M78.7,33.15c.55-.31,1.02-.62,1.56-.94.94-.55,1.87-1.17,2.81-1.8l-.31-.08c-.39-.08-.78-.16-1.17-.23l.39.23-.47.31c-.23.16-.47.31-.62.47-.47.31-.94.62-1.41.94-.55.23-.7.62-.78,1.09M80.1,29.95c.16-.08.39-.16.62-.16-.16-.08-.31-.08-.47,0-.08.08-.16.08-.16.16"/>
    <path class="st3" d="M83.93,30.26c0,.31-.23.47-.39.62-.94.78-1.95,1.33-2.97,1.95-.62.39-1.25.78-1.87,1.17-.31.23-.55.16-.62.08-.23-.16-.39-.47-.23-.86l.08-.16c.16-.62.31-1.25,1.09-1.72.23-.16.55-.31.78-.55-.08,0-.23,0-.31-.08s-.31-.31-.23-.78c.08-.39.31-.7.7-.94.31-.16.78-.16,1.17,0,.55.23,1.09.31,1.72.47l.39.08c.47.23.7.39.7.7ZM78.7,33.15c.55-.31,1.02-.62,1.56-.94.94-.55,1.87-1.17,2.81-1.8l-.31-.08c-.39-.08-.78-.16-1.17-.23l.39.23-.47.31c-.23.16-.47.31-.62.47-.47.31-.94.62-1.41.94-.55.23-.7.62-.78,1.09ZM80.1,29.95c.16-.08.39-.16.62-.16-.16-.08-.31-.08-.47,0-.08.08-.16.08-.16.16Z"/>
    <path class="st4" d="M79.4,35.42c-.47.23-.86.55-1.33.78l-.08.08q0-.08.08-.16h0c.08-.7.7-1.02,1.17-1.41,1.56-1.41,3.44-2.34,5-3.75.7-.62,1.41-1.25,2.03-1.95.55-.55.7-.47,1.09.16.7,1.09.47,1.8-.39,2.73-1.95,2.11-4.14,3.83-6.48,5.39-.86.55-1.72,1.25-2.58,1.87-.23.16-.47.47-.94.55.78-2.03,2.42-3.28,3.83-4.76q-.62,0-1.41.47"/>
    <path class="st3" d="M79.4,35.42c-.47.23-.86.55-1.33.78l-.08.08q0-.08.08-.16h0c.08-.7.7-1.02,1.17-1.41,1.56-1.41,3.44-2.34,5-3.75.7-.62,1.41-1.25,2.03-1.95.55-.55.7-.47,1.09.16.7,1.09.47,1.8-.39,2.73-1.95,2.11-4.14,3.83-6.48,5.39-.86.55-1.72,1.25-2.58,1.87-.23.16-.47.47-.94.55.78-2.03,2.42-3.28,3.83-4.76q-.62,0-1.41.47Z"/>
    <path class="st4" d="M88.07,30.42c0,.78-.47,1.41-.86,1.87-1.8,1.95-3.98,3.75-6.56,5.47-.55.39-1.17.78-1.72,1.25-.31.23-.55.39-.86.62q-.08.08-.16.16c-.23.16-.47.39-.94.55l-.7.16.23-.62c.62-1.64,1.72-2.73,2.81-3.83l.08-.08-2.19,1.33.31-1.09c.08-.62.55-1.02.94-1.33.08-.08.23-.16.31-.23.86-.78,1.8-1.41,2.66-2.03.78-.55,1.56-1.09,2.34-1.72.55-.47,1.02-.94,1.48-1.41l.47-.47c.31-.31.55-.55.94-.47.39,0,.62.39.78.7.55.23.62.7.62,1.17M77.92,38.7c.16-.16.31-.23.55-.39.55-.47,1.17-.86,1.72-1.25,2.58-1.64,4.69-3.36,6.4-5.31.86-.94.94-1.41.39-2.26-.08-.08-.16-.23-.23-.31-.08,0-.16.08-.31.23l-.47.47c-.47.47-1.02,1.02-1.56,1.48-.78.62-1.56,1.25-2.42,1.8-.78.55-1.64,1.09-2.34,1.72.47-.23.7-.23,1.17-.08l.62.16-.39.47c-.31.39-.7.7-1.09,1.09-.78.62-1.48,1.33-2.03,2.19"/>
    <path class="st3" d="M88.07,30.42c0,.78-.47,1.41-.86,1.87-1.8,1.95-3.98,3.75-6.56,5.47-.55.39-1.17.78-1.72,1.25-.31.23-.55.39-.86.62q-.08.08-.16.16c-.23.16-.47.39-.94.55l-.7.16.23-.62c.62-1.64,1.72-2.73,2.81-3.83l.08-.08-2.19,1.33.31-1.09c.08-.62.55-1.02.94-1.33.08-.08.23-.16.31-.23.86-.78,1.8-1.41,2.66-2.03.78-.55,1.56-1.09,2.34-1.72.55-.47,1.02-.94,1.48-1.41l.47-.47c.31-.31.55-.55.94-.47.39,0,.62.39.78.7.55.23.62.7.62,1.17ZM77.92,38.7c.16-.16.31-.23.55-.39.55-.47,1.17-.86,1.72-1.25,2.58-1.64,4.69-3.36,6.4-5.31.86-.94.94-1.41.39-2.26-.08-.08-.16-.23-.23-.31-.08,0-.16.08-.31.23l-.47.47c-.47.47-1.02,1.02-1.56,1.48-.78.62-1.56,1.25-2.42,1.8-.78.55-1.64,1.09-2.34,1.72.47-.23.7-.23,1.17-.08l.62.16-.39.47c-.31.39-.7.7-1.09,1.09-.78.62-1.48,1.33-2.03,2.19Z"/>
    <path class="st4" d="M77.45,43.7c.78-1.87,2.42-3.05,3.75-4.45-1.48.39-2.58,1.56-3.83,2.34q-.08-.08-.16-.16c.47-1.02,1.41-1.56,2.26-2.19,2.19-1.72,4.69-3.05,6.64-5,.7-.7,1.33-1.33,1.87-2.11.39-.55.55-.39.86.16.86,1.33.55,2.26-.55,3.36-1.8,1.72-3.75,3.2-5.86,4.45-1.64,1.02-3.2,2.11-4.69,3.36,0,.16-.08.31-.31.23"/>
    <path class="st3" d="M77.45,43.7c.78-1.87,2.42-3.05,3.75-4.45-1.48.39-2.58,1.56-3.83,2.34q-.08-.08-.16-.16c.47-1.02,1.41-1.56,2.26-2.19,2.19-1.72,4.69-3.05,6.64-5,.7-.7,1.33-1.33,1.87-2.11.39-.55.55-.39.86.16.86,1.33.55,2.26-.55,3.36-1.8,1.72-3.75,3.2-5.86,4.45-1.64,1.02-3.2,2.11-4.69,3.36,0,.16-.08.31-.31.23Z"/>
    <path class="st4" d="M89.71,33.78c0,.7-.39,1.41-1.09,2.19-1.64,1.56-3.51,3.05-5.86,4.53-1.72,1.09-3.2,2.11-4.61,3.28-.16.16-.39.31-.78.23l-.39-.16.16-.39c.39-1.02,1.09-1.87,1.8-2.66-.08,0-.08.08-.16.08-.39.31-.78.62-1.25.86l-.23.16-.55-.39.08-.23c.39-.94,1.09-1.41,1.8-1.95.16-.16.39-.23.55-.39.78-.62,1.64-1.17,2.42-1.72,1.41-.94,2.89-1.95,4.14-3.2.78-.78,1.41-1.41,1.87-2.03.23-.23.47-.47.78-.47.39,0,.55.31.78.62.39.62.55,1.17.55,1.64M78.54,42.52c1.17-.94,2.42-1.8,3.75-2.66,2.26-1.41,4.14-2.89,5.78-4.45,1.02-1.02,1.17-1.8.47-2.89,0-.08-.08-.16-.16-.23l-.08.08c-.55.62-1.17,1.33-1.95,2.11-1.33,1.25-2.81,2.34-4.3,3.28-.62.39-1.25.86-1.8,1.25.23-.08.47-.23.78-.31l1.25-.31-.86.94c-.39.47-.78.86-1.25,1.25-.55.7-1.17,1.25-1.64,1.95"/>
    <path class="st3" d="M89.71,33.78c0,.7-.39,1.41-1.09,2.19-1.64,1.56-3.51,3.05-5.86,4.53-1.72,1.09-3.2,2.11-4.61,3.28-.16.16-.39.31-.78.23l-.39-.16.16-.39c.39-1.02,1.09-1.87,1.8-2.66-.08,0-.08.08-.16.08-.39.31-.78.62-1.25.86l-.23.16-.55-.39.08-.23c.39-.94,1.09-1.41,1.8-1.95.16-.16.39-.23.55-.39.78-.62,1.64-1.17,2.42-1.72,1.41-.94,2.89-1.95,4.14-3.2.78-.78,1.41-1.41,1.87-2.03.23-.23.47-.47.78-.47.39,0,.55.31.78.62.39.62.55,1.17.55,1.64ZM78.54,42.52c1.17-.94,2.42-1.8,3.75-2.66,2.26-1.41,4.14-2.89,5.78-4.45,1.02-1.02,1.17-1.8.47-2.89,0-.08-.08-.16-.16-.23l-.08.08c-.55.62-1.17,1.33-1.95,2.11-1.33,1.25-2.81,2.34-4.3,3.28-.62.39-1.25.86-1.8,1.25.23-.08.47-.23.78-.31l1.25-.31-.86.94c-.39.47-.78.86-1.25,1.25-.55.7-1.17,1.25-1.64,1.95Z"/>
    <path class="st4" d="M81.35,43.7c-1.25.7-2.34,1.64-3.51,2.5-.16.08-.31.39-.47.23-.23-.16-.16-.47-.08-.7.08-.16.23-.31.39-.47,1.33-1.17,2.66-2.42,4.22-3.36,2.66-1.64,5.15-3.36,7.42-5.54.16-.16.31-.55.7-.39.31.16.23.47.31.78.16.62.16,1.25.31,1.87.08.55-.08,1.02-.55,1.48-2.19,2.42-5,3.98-7.73,5.62-1.64,1.02-3.12,2.11-4.45,3.44-.08.08-.16.08-.39.16,1.09-2.5,3.28-3.83,5-5.54-.55-.47-.86-.23-1.17-.08"/>
    <path class="st3" d="M81.35,43.7c-1.25.7-2.34,1.64-3.51,2.5-.16.08-.31.39-.47.23-.23-.16-.16-.47-.08-.7.08-.16.23-.31.39-.47,1.33-1.17,2.66-2.42,4.22-3.36,2.66-1.64,5.15-3.36,7.42-5.54.16-.16.31-.55.7-.39.31.16.23.47.31.78.16.62.16,1.25.31,1.87.08.55-.08,1.02-.55,1.48-2.19,2.42-5,3.98-7.73,5.62-1.64,1.02-3.12,2.11-4.45,3.44-.08.08-.16.08-.39.16,1.09-2.5,3.28-3.83,5-5.54-.55-.47-.86-.23-1.17-.08Z"/>
    <path class="st4" d="M90.96,38.85c0,.62-.31,1.09-.62,1.41-1.87,2.11-4.3,3.59-6.64,5-.39.23-.78.47-1.17.7-1.87,1.17-3.2,2.19-4.37,3.36-.08.08-.23.16-.31.16s-.16,0-.23.08l-.86.31.39-.78c.86-1.87,2.26-3.05,3.59-4.3.23-.16.47-.39.7-.62-.78.47-1.48,1.02-2.19,1.56-.31.23-.62.55-1.02.78l-.08.08c-.31.31-.62.39-.94.16-.16-.16-.31-.39-.31-.62s.08-.39.16-.55c.16-.23.31-.47.47-.55.23-.23.47-.39.7-.62,1.09-.94,2.26-1.95,3.51-2.73,3.12-1.95,5.39-3.59,7.34-5.47l.08-.08c.16-.16.47-.62,1.02-.39.47.16.47.62.47.86v.16c.08.39.16.78.16,1.09,0,.23.08.47.08.78,0,0,.08.08.08.23M79.01,47.44c.86-.7,1.87-1.41,3.12-2.19.39-.23.78-.47,1.17-.7,2.26-1.41,4.69-2.81,6.48-4.84.39-.39.47-.7.39-1.17-.08-.23-.08-.55-.08-.78-.08-.39-.08-.7-.16-1.09v-.47s-.08.08-.08.16c-.08.08-.08.16-.16.16-1.95,1.87-4.22,3.67-7.42,5.62-1.25.78-2.34,1.72-3.44,2.66-.23.23-.47.39-.7.62-.08.08-.23.23-.23.31.31-.23.62-.47.94-.7.78-.62,1.64-1.25,2.58-1.8.39-.23.86-.47,1.48-.08l.39.23-.31.31c-.47.47-1.02.94-1.56,1.41-1.09.94-1.8,1.56-2.42,2.34"/>
    <path class="st3" d="M90.96,38.85c0,.62-.31,1.09-.62,1.41-1.87,2.11-4.3,3.59-6.64,5-.39.23-.78.47-1.17.7-1.87,1.17-3.2,2.19-4.37,3.36-.08.08-.23.16-.31.16s-.16,0-.23.08l-.86.31.39-.78c.86-1.87,2.26-3.05,3.59-4.3.23-.16.47-.39.7-.62-.78.47-1.48,1.02-2.19,1.56-.31.23-.62.55-1.02.78l-.08.08c-.31.31-.62.39-.94.16-.16-.16-.31-.39-.31-.62s.08-.39.16-.55c.16-.23.31-.47.47-.55.23-.23.47-.39.7-.62,1.09-.94,2.26-1.95,3.51-2.73,3.12-1.95,5.39-3.59,7.34-5.47l.08-.08c.16-.16.47-.62,1.02-.39.47.16.47.62.47.86v.16c.08.39.16.78.16,1.09,0,.23.08.47.08.78,0,0,.08.08.08.23ZM79.01,47.44c.86-.7,1.87-1.41,3.12-2.19.39-.23.78-.47,1.17-.7,2.26-1.41,4.69-2.81,6.48-4.84.39-.39.47-.7.39-1.17-.08-.23-.08-.55-.08-.78-.08-.39-.08-.7-.16-1.09v-.47s-.08.08-.08.16c-.08.08-.08.16-.16.16-1.95,1.87-4.22,3.67-7.42,5.62-1.25.78-2.34,1.72-3.44,2.66-.23.23-.47.39-.7.62-.08.08-.23.23-.23.31.31-.23.62-.47.94-.7.78-.62,1.64-1.25,2.58-1.8.39-.23.86-.47,1.48-.08l.39.23-.31.31c-.47.47-1.02.94-1.56,1.41-1.09.94-1.8,1.56-2.42,2.34Z"/>
    <path class="st4" d="M78.39,52.91c.16-.47.47-.86.78-1.17,1.02-.94,2.03-1.87,3.05-2.73.23-.16.47-.31.55-.62-.47-.23-.86,0-1.17.23-1.09.55-2.03,1.41-2.97,2.19-.16.16-.31.31-.55.39l-.08.08q-.08-.08,0-.16l.08.08-.08-.08c.23-1.25,1.41-1.8,2.26-2.5,3.2-2.58,6.79-4.61,9.92-7.26.39-.31.55-.23.55.23,0,.7.08,1.48.08,2.19,0,.62-.31,1.02-.78,1.41-2.11,1.72-4.3,3.2-6.56,4.69-1.25.86-2.42,1.8-3.67,2.66-.31.23-.7.55-1.09.7-.23.16-.39,0-.31-.31"/>
    <path class="st3" d="M78.39,52.91c.16-.47.47-.86.78-1.17,1.02-.94,2.03-1.87,3.05-2.73.23-.16.47-.31.55-.62-.47-.23-.86,0-1.17.23-1.09.55-2.03,1.41-2.97,2.19-.16.16-.31.31-.55.39l-.08.08q-.08-.08,0-.16l.08.08-.08-.08c.23-1.25,1.41-1.8,2.26-2.5,3.2-2.58,6.79-4.61,9.92-7.26.39-.31.55-.23.55.23,0,.7.08,1.48.08,2.19,0,.62-.31,1.02-.78,1.41-2.11,1.72-4.3,3.2-6.56,4.69-1.25.86-2.42,1.8-3.67,2.66-.31.23-.7.55-1.09.7-.23.16-.39,0-.31-.31Z"/>
    <path class="st4" d="M91.19,43.54v.16c0,.86-.55,1.41-.94,1.72-2.03,1.64-4.14,3.12-6.56,4.69-.86.55-1.72,1.17-2.5,1.8-.39.31-.78.55-1.09.86l-.16.08c-.31.23-.62.47-.94.62-.31.16-.55.08-.7,0-.23-.16-.31-.47-.23-.78.16-.47.47-.94.94-1.33.78-.7,1.64-1.48,2.42-2.26l.39-.39h0c-.94.47-1.64,1.09-2.5,1.8l-.39.31-.08.08c-.16.08-.31.23-.55.31-.23.23-.39.16-.55.08-.23-.16-.23-.31-.23-.39s0-.23.08-.31c.23-1.09,1.09-1.64,1.8-2.19.23-.16.39-.31.55-.47,1.48-1.17,3.05-2.26,4.61-3.36,1.8-1.25,3.59-2.5,5.31-3.9.16-.08.47-.39.86-.23s.39.62.39.78v.62c.08.78.08,1.25.08,1.72M78.93,52.6c.16-.08.31-.23.47-.31l.16-.16c.39-.31.78-.55,1.09-.86.86-.62,1.72-1.25,2.58-1.87,2.34-1.56,4.53-3.05,6.48-4.69.47-.39.7-.7.7-1.17v-2.03c-1.64,1.41-3.51,2.66-5.23,3.9-1.25.86-2.58,1.8-3.9,2.73.08,0,.08-.08.16-.08l.08-.08c.39-.23.86-.47,1.48-.16l.23.16-.08.31c-.08.39-.31.62-.55.78-.08,0-.08.08-.16.08l-.62.55c-.78.78-1.64,1.48-2.42,2.26-.16.23-.31.39-.47.62"/>
    <path class="st3" d="M91.19,43.54v.16c0,.86-.55,1.41-.94,1.72-2.03,1.64-4.14,3.12-6.56,4.69-.86.55-1.72,1.17-2.5,1.8-.39.31-.78.55-1.09.86l-.16.08c-.31.23-.62.47-.94.62-.31.16-.55.08-.7,0-.23-.16-.31-.47-.23-.78.16-.47.47-.94.94-1.33.78-.7,1.64-1.48,2.42-2.26l.39-.39h0c-.94.47-1.64,1.09-2.5,1.8l-.39.31-.08.08c-.16.08-.31.23-.55.31-.23.23-.39.16-.55.08-.23-.16-.23-.31-.23-.39s0-.23.08-.31c.23-1.09,1.09-1.64,1.8-2.19.23-.16.39-.31.55-.47,1.48-1.17,3.05-2.26,4.61-3.36,1.8-1.25,3.59-2.5,5.31-3.9.16-.08.47-.39.86-.23s.39.62.39.78v.62c.08.78.08,1.25.08,1.72ZM78.93,52.6c.16-.08.31-.23.47-.31l.16-.16c.39-.31.78-.55,1.09-.86.86-.62,1.72-1.25,2.58-1.87,2.34-1.56,4.53-3.05,6.48-4.69.47-.39.7-.7.7-1.17v-2.03c-1.64,1.41-3.51,2.66-5.23,3.9-1.25.86-2.58,1.8-3.9,2.73.08,0,.08-.08.16-.08l.08-.08c.39-.23.86-.47,1.48-.16l.23.16-.08.31c-.08.39-.31.62-.55.78-.08,0-.08.08-.16.08l-.62.55c-.78.78-1.64,1.48-2.42,2.26-.16.23-.31.39-.47.62Z"/>
    <path class="st4" d="M81.82,55.57c-.39-.31-.08-.7.08-1.02.62-1.02,1.48-1.72,2.42-2.42.16-.08.23-.23.39-.31-.31-.31-.55-.08-.78,0-1.33.78-2.73,1.56-3.75,2.81-.16.16-.23.39-.47.23-.31-.16-.16-.39-.08-.62.16-.39.47-.62.78-.86,2.89-2.11,5.78-4.22,8.67-6.25.47-.31.86-.86,1.41-1.09l.08-.08s0,.08-.08.08l-.08-.08.08.08v.16c.08,1.95-.39,3.59-2.19,4.69-1.09.7-2.11,1.64-3.28,2.26-.94.47-1.64,1.17-2.42,1.87-.23.31-.47.78-.78.55"/>
    <path class="st3" d="M81.82,55.57c-.39-.31-.08-.7.08-1.02.62-1.02,1.48-1.72,2.42-2.42.16-.08.23-.23.39-.31-.31-.31-.55-.08-.78,0-1.33.78-2.73,1.56-3.75,2.81-.16.16-.23.39-.47.23-.31-.16-.16-.39-.08-.62.16-.39.47-.62.78-.86,2.89-2.11,5.78-4.22,8.67-6.25.47-.31.86-.86,1.41-1.09l.08-.08s0,.08-.08.08l-.08-.08.08.08v.16c.08,1.95-.39,3.59-2.19,4.69-1.09.7-2.11,1.64-3.28,2.26-.94.47-1.64,1.17-2.42,1.87-.23.31-.47.78-.78.55Z"/>
    <path class="st4" d="M91.66,44.95l-.7,1.33v.47c0,2.11-.78,3.59-2.42,4.61-.47.31-.86.62-1.25.94-.62.47-1.33,1.02-2.03,1.41-.78.39-1.41.94-2.03,1.56l-.31.31-.08.08c-.16.16-.62.62-1.17.23-.23-.16-.31-.39-.31-.62,0-.31.16-.55.31-.78.23-.39.55-.78.86-1.09-.7.47-1.33,1.02-1.87,1.64-.16.16-.47.55-.94.31-.23-.16-.39-.31-.39-.62,0-.16.08-.31.08-.39.16-.55.55-.86.86-1.09l1.8-1.33c2.34-1.64,4.61-3.36,6.95-5,.16-.16.31-.23.47-.39.31-.31.62-.55,1.02-.7h0l1.17-.86ZM82.06,55.18c.08,0,.08-.08.16-.16s.08-.16.16-.16l.31-.23c.7-.62,1.41-1.25,2.19-1.64.7-.31,1.33-.86,1.95-1.33.39-.31.86-.62,1.33-.94,1.41-.86,2.03-2.11,2.03-3.98-.08.08-.23.16-.31.31-.16.16-.31.31-.55.47-1.95,1.41-3.98,2.81-5.94,4.3h.08l.39-.23c.16-.16.7-.47,1.17.08l.31.31-.47.31-.23.23-.16.08c-.86.7-1.64,1.33-2.19,2.19-.16.16-.23.31-.23.39h0"/>
    <path class="st3" d="M91.66,44.95l-.7,1.33v.47c0,2.11-.78,3.59-2.42,4.61-.47.31-.86.62-1.25.94-.62.47-1.33,1.02-2.03,1.41-.78.39-1.41.94-2.03,1.56l-.31.31-.08.08c-.16.16-.62.62-1.17.23-.23-.16-.31-.39-.31-.62,0-.31.16-.55.31-.78.23-.39.55-.78.86-1.09-.7.47-1.33,1.02-1.87,1.64-.16.16-.47.55-.94.31-.23-.16-.39-.31-.39-.62,0-.16.08-.31.08-.39.16-.55.55-.86.86-1.09l1.8-1.33c2.34-1.64,4.61-3.36,6.95-5,.16-.16.31-.23.47-.39.31-.31.62-.55,1.02-.7h0l1.17-.86ZM82.06,55.18c.08,0,.08-.08.16-.16s.08-.16.16-.16l.31-.23c.7-.62,1.41-1.25,2.19-1.64.7-.31,1.33-.86,1.95-1.33.39-.31.86-.62,1.33-.94,1.41-.86,2.03-2.11,2.03-3.98-.08.08-.23.16-.31.31-.16.16-.31.31-.55.47-1.95,1.41-3.98,2.81-5.94,4.3h.08l.39-.23c.16-.16.7-.47,1.17.08l.31.31-.47.31-.23.23-.16.08c-.86.7-1.64,1.33-2.19,2.19-.16.16-.23.31-.23.39h0Z"/>
    <path class="st4" d="M83.54,55.49c1.95-1.33,3.98-2.58,5.94-3.9l.16.16c-.31.94-.62,1.95-.94,2.89-.08.31-.39.39-.62.47-1.41.31-2.73.62-3.98,1.33-.39.23-.78.23-1.02-.16-.23-.39.23-.55.47-.78"/>
    <path class="st3" d="M83.54,55.49c1.95-1.33,3.98-2.58,5.94-3.9l.16.16c-.31.94-.62,1.95-.94,2.89-.08.31-.39.39-.62.47-1.41.31-2.73.62-3.98,1.33-.39.23-.78.23-1.02-.16-.23-.39.23-.55.47-.78Z"/>
    <path class="st4" d="M90.02,51.58v.31l-.23.78c-.23.7-.47,1.41-.7,2.11-.16.55-.62.62-.94.7-1.25.31-2.66.62-3.83,1.33-.62.31-1.25.23-1.56-.31-.08-.16-.16-.31-.16-.47,0-.39.39-.62.62-.78l.08-.08c1.48-1.02,3.05-1.95,4.53-2.97l1.64-1.09.55.47ZM83.38,56.11c.16.16.39.08.55,0,1.33-.7,2.81-1.09,4.06-1.41q.31-.08.39-.16c.23-.7.47-1.41.7-2.11v-.08l-.78.47c-1.48,1.02-3.05,1.95-4.53,2.97-.08,0-.08.08-.16.08-.08.08-.23.16-.23.23"/>
    <path class="st3" d="M90.02,51.58v.31l-.23.78c-.23.7-.47,1.41-.7,2.11-.16.55-.62.62-.94.7-1.25.31-2.66.62-3.83,1.33-.62.31-1.25.23-1.56-.31-.08-.16-.16-.31-.16-.47,0-.39.39-.62.62-.78l.08-.08c1.48-1.02,3.05-1.95,4.53-2.97l1.64-1.09.55.47ZM83.38,56.11c.16.16.39.08.55,0,1.33-.7,2.81-1.09,4.06-1.41q.31-.08.39-.16c.23-.7.47-1.41.7-2.11v-.08l-.78.47c-1.48,1.02-3.05,1.95-4.53,2.97-.08,0-.08.08-.16.08-.08.08-.23.16-.23.23Z"/>
    <path class="st6" d="M70.11,59.24c1.87-2.03,4.22-3.05,6.95-3.12,2.03,0,3.9.39,5.78,1.25.62.31,1.02.23,1.64,0,2.5-1.02,5.15-1.48,7.81-.78,1.64.47,3.05,1.25,4.22,2.5.16.16.62.39.23.7-.31.23-.55.7-1.17.39-1.33-.86-2.89-1.33-4.37-1.64-2.66-.47-5.15-.08-7.5,1.17-.47.31-.86.23-1.33,0-3.05-1.48-6.17-2.03-9.53-.94-.7.23-1.48.55-2.11,1.02-.23.16-.47.31-.7,0-.39-.23-.08-.39.08-.55"/>
    <path class="st6" d="M70.81,62.2c0,1.41-1.02,2.5-2.34,2.58-1.33.08-2.5-1.09-2.5-2.5,0-1.33,1.09-2.5,2.42-2.5,1.33,0,2.42,1.02,2.42,2.42"/>
    <path class="st6" d="M71.67,61.11c-.23.08-.39.39-.62,0s0-.47.31-.62c1.41-.86,2.97-1.25,4.69-1.33,2.26,0,4.45.55,6.4,1.64.39.23.7.23,1.09,0,3.51-2.19,7.11-1.95,10.78-.31.31.16.62.23.86.47.16.08.62-.31.39.31-.16.39-.23.47-.7.31-1.02-.47-2.19-.7-3.28-.86-2.89-.31-5.54.47-7.81,2.19-.55.39-.78.39-1.33,0-2.26-1.48-4.69-2.5-7.5-2.42-1.17-.08-2.26.16-3.28.62"/>
    <path class="st6" d="M68.78,61.66c.47.86.16,1.56-.86,1.72-.23,0-.47-.08-.7.23.86.62,2.03.47,2.58-.31.47-.7.31-1.48-.47-2.03-.23-.16-.47-.39-.7-.16-.23.08,0,.31.16.55"/>
    <path class="st6" d="M82.92,29.4c-2.5,0-4.61-1.95-4.61-4.37s2.03-4.37,4.61-4.37,4.61,1.95,4.61,4.37-2.11,4.37-4.61,4.37"/>
    <path class="st6" d="M82.76,20.35c-1.41,0-2.58-1.09-2.58-2.5s1.17-2.5,2.58-2.5,2.58,1.09,2.58,2.5c.08,1.33-1.09,2.5-2.58,2.5"/>
    <path class="st1" d="M77.68,36.2s.08,0,0,0c.08,0,0,0,0,0ZM98.22,61.66c.39.78.08,1.48-.78,1.64-.23.08-.55-.08-.78.16.86.62,2.03.47,2.58-.31.47-.62.31-1.41-.39-1.95-.23-.16-.55-.47-.78-.31-.23.23.08.55.16.78M76.59,61.66s-2.97-.7-4.92.7c-.08.86-1.17,4.69-4.61,3.36-2.5-1.17-3.2-4.22-.55-6.4,1.64-.47,2.5-.16,2.5-.16,0,0,1.8-3.83,8.67-3.75-2.5-5.62-2.89-14.53-1.48-19.76,1.41-5.15,2.97-7.11,2.97-7.11,0,0-2.26-2.03-.86-5.78,0,0,.7-1.33,2.58-2.26v-.16s-2.34-2.11-.47-4.37c1.87-2.34,5.23-.39,5.39,1.56.16,1.95-1.25,2.73-1.33,2.73s0,.39,0,.39c0,0,3.12.78,3.28,3.83.16,3.05-.94,3.12-.94,3.12,0,0,4.37,4.3,4.76,14.99-.23,9.37-1.95,12.73-1.95,12.73,0,0,4.76,0,7.5,3.44,3.51,0,4.61,2.73,3.83,4.69-.7,1.95-3.12,2.81-4.37,2.19-1.25-.62-2.19-1.64-2.34-3.12-2.11-.86-4.22-1.09-5.08-.86,0,7.58-1.56,88.17-1.56,88.17l-6.01,10.62-5.47-10.78.47-88.01ZM82.68,18.39c.55.39,1.02.23,1.33-.23.39-.55.16-1.09-.55-1.41q.16,1.33-.78,1.64M80.96,157.01c.23-.16.16-.39.16-.55.08-3.2.08-6.4.08-9.61.08-7.97.23-15.93.31-23.9.08-7.58.16-15.07.23-22.65.08-5.78.16-11.56.23-17.26.08-6.01.16-12.03.23-18.04,0-.39,0-.7-.39-.86-1.17-.7-2.34-1.33-3.51-2.03-.08-.16-.23-.16-.39-.08h-.16c0,1.33-.08,2.66-.08,3.98-.08,7.73-.16,15.38-.23,23.12-.08,8.12-.16,16.24-.23,24.37-.08,5.94-.16,11.95-.16,17.88-.08,4.22,0,8.43-.16,12.65-.08,2.73,0,5.39,1.48,7.81.62,1.02,1.02,2.11,1.48,3.12.47.7.78,1.33,1.09,2.03M88.46,61.97c-1.64.23-3.2.78-4.53,1.87-.31.23-.47.55-.47.94,0,1.95-.08,3.83-.08,5.78-.08,5.15-.23,10.31-.31,15.38-.16,6.72-.23,13.43-.31,20.07-.08,4.69-.16,9.37-.23,14.06-.16,7.5-.23,15.07-.39,22.57-.08,2.42-.16,4.84-.16,7.26s.08,4.61.16,6.87c0,0,.08-.08.16-.23,1.33-2.34,2.73-4.76,4.06-7.11.23-.47.31-.94.31-1.41,0-1.17.08-2.42.08-3.59.16-7.11.31-14.14.47-21.24.08-4.92.16-9.84.31-14.84.16-5.94.23-11.79.39-17.73.16-8.12.31-16.24.47-24.37,0-1.33.08-2.66.16-3.98,0,.08.08-.16-.08-.31M97.68,59.63c-1.25.08-2.34,1.25-2.34,2.58s1.17,2.5,2.5,2.42,2.42-1.25,2.34-2.58c0-1.33-1.17-2.5-2.5-2.42M80.18,23.86c0,.08,0,.23.08.31.16.23.39.47.7.39.47-.08.08-.39.08-.62-.08-.55.23-.86.7-1.02.16-.08.31,0,.31-.23,0-.16-.16-.23-.39-.31-.7,0-1.56.7-1.48,1.48M83.54,24.88c.23.62-.16.86-.55,1.09-.16.08-.47,0-.39.31.08.23.31.23.55.23.55,0,1.09-.39,1.25-.86.08-.39.08-.78-.23-1.09-.16-.16-.39-.23-.55-.16-.23.08-.16.31-.08.47M84.48,27.53c1.09-.47,1.48-1.33,1.56-2.42.08-1.02-.16-1.87-1.17-2.58-.08.47.08.78.23,1.09.31.94.31,1.8-.31,2.58s-1.41.94-2.34.86c-.23,0-.55-.16-.62.23,0,.31.23.39.55.47.7.16,1.41.08,2.11-.23M78.23,33.7c1.56-1.09,3.28-1.95,4.84-3.12.39-.31.23-.47-.16-.55-.78-.16-1.48-.23-2.26-.55-.55-.23-1.17.08-1.33.62-.08.31,0,.47.39.31.31-.16.7-.39,1.17-.08-.7.47-1.41,1.02-2.03,1.41-.62.39-.78,1.02-.94,1.64-.08.23-.08.55.31.31M80.42,35.11c-1.33,1.48-3.05,2.66-3.83,4.76.47-.08.7-.39.94-.55.86-.62,1.64-1.33,2.58-1.87,2.42-1.56,4.61-3.28,6.48-5.39.86-.94,1.09-1.64.39-2.73-.39-.62-.55-.7-1.09-.16-.7.62-1.33,1.33-2.03,1.95-1.56,1.33-3.44,2.34-5,3.75-.47.39-1.09.7-1.17,1.41h0q0,.08-.08.16l.08-.08c.47-.23.86-.55,1.33-.78q.86-.62,1.41-.47M77.61,43.54c1.48-1.25,3.05-2.34,4.69-3.36,2.11-1.33,4.06-2.73,5.86-4.45,1.09-1.02,1.33-2.03.55-3.36-.31-.55-.47-.62-.86-.16-.62.7-1.25,1.41-1.87,2.11-1.95,1.95-4.45,3.28-6.64,5-.86.62-1.8,1.09-2.26,2.19q.08.08.16.16c1.25-.78,2.26-1.87,3.83-2.34-1.33,1.41-2.97,2.58-3.75,4.45.08,0,.16-.16.31-.23M82.14,43.62c-1.72,1.72-3.9,3.12-5,5.54.23-.08.39-.08.39-.16,1.33-1.33,2.81-2.42,4.45-3.44,2.73-1.64,5.54-3.2,7.73-5.62.39-.47.62-.86.55-1.48-.08-.62-.16-1.25-.31-1.87-.08-.23,0-.62-.31-.78s-.47.23-.7.39c-2.19,2.19-4.76,3.9-7.42,5.54-1.56.94-2.89,2.19-4.22,3.36-.16.16-.31.31-.39.47-.16.23-.16.55.08.7.16.16.31-.08.47-.23,1.17-.86,2.26-1.8,3.51-2.5.39,0,.7-.23,1.17.08M78.46,53.22c.39-.23.7-.47,1.09-.7,1.25-.86,2.42-1.8,3.67-2.66,2.26-1.48,4.45-2.97,6.56-4.69.47-.39.78-.86.78-1.41,0-.7,0-1.48-.08-2.19,0-.47-.16-.55-.55-.23-3.12,2.66-6.72,4.69-9.92,7.26-.86.7-2.03,1.25-2.26,2.5l.08.08-.08-.08c-.08.08-.16.08,0,.16l.08-.08c.23,0,.39-.23.55-.39.94-.78,1.87-1.64,2.97-2.19.39-.16.7-.47,1.17-.23-.08.31-.31.47-.55.62-1.02.94-2.03,1.87-3.05,2.73-.39.31-.62.7-.78,1.17-.16.31,0,.47.31.31M82.29,55.18c.78-.7,1.48-1.41,2.42-1.87,1.25-.62,2.19-1.56,3.28-2.26,1.8-1.17,2.26-2.73,2.19-4.69v-.16l-.08-.08.08.08s0-.08.08-.08l-.08.08c-.55.23-.94.78-1.41,1.09-2.89,2.11-5.78,4.14-8.67,6.25-.31.23-.7.47-.78.86-.08.23-.16.47.08.62.23.08.39-.08.47-.23,1.02-1.25,2.42-1.95,3.75-2.81.23-.16.47-.39.78,0-.16.08-.31.23-.39.31-.94.7-1.8,1.41-2.42,2.42-.16.31-.47.7-.08,1.02.31.08.55-.39.78-.55M82.76,56.27c.23.31.62.31,1.02.16,1.25-.7,2.58-1.02,3.98-1.33.31-.08.55-.16.62-.47.31-.94.62-1.95.94-2.89l-.16-.16c-1.95,1.33-3.98,2.58-5.94,3.9-.23.23-.7.39-.47.78M69.64,59.86c.23.31.47.16.7,0,.62-.47,1.33-.78,2.11-1.02,3.28-1.09,6.48-.55,9.53.94.47.23.86.23,1.33,0,2.34-1.33,4.84-1.72,7.5-1.17,1.56.31,3.05.78,4.37,1.64.62.39.86-.16,1.17-.39.39-.31-.08-.55-.23-.7-1.09-1.25-2.58-2.11-4.22-2.5-2.73-.7-5.31-.23-7.81.78-.55.23-1.02.23-1.64,0-1.8-.86-3.75-1.25-5.78-1.25-2.73.16-5.08,1.09-6.95,3.12-.08.08-.39.23-.08.55M68.08,59.78c-1.33,0-2.42,1.17-2.42,2.5,0,1.41,1.17,2.5,2.5,2.5,1.33-.08,2.34-1.17,2.34-2.58s-1.02-2.42-2.42-2.42M74.56,60.33c2.81-.08,5.23.94,7.5,2.42.47.31.78.39,1.33,0,2.26-1.72,4.92-2.5,7.81-2.19,1.17.16,2.26.39,3.28.86.39.16.55.08.7-.31.23-.62-.31-.16-.39-.31-.23-.16-.55-.31-.86-.47-3.67-1.64-7.26-1.8-10.78.31-.39.23-.7.23-1.09,0-2.03-1.09-4.14-1.64-6.4-1.64-1.64,0-3.2.47-4.69,1.33-.23.16-.47.31-.31.62.23.39.47.16.62,0,1.09-.31,2.19-.55,3.28-.62M68.47,61.66c.47.86.16,1.56-.86,1.72-.23,0-.47-.08-.7.23.86.62,2.03.47,2.58-.31.47-.7.31-1.48-.47-2.03-.23-.16-.47-.39-.7-.16-.23.08.08.31.16.55M85.02,17.85c0-1.17-1.02-2.11-2.19-2.11s-2.19.94-2.19,2.11,1.02,2.11,2.19,2.11,2.19-.94,2.19-2.11M86.98,24.88c0-2.26-1.87-4.06-4.14-4.06s-4.14,1.8-4.14,4.06,1.87,4.06,4.14,4.06,4.14-1.8,4.14-4.06"/>
    <path class="st4" d="M20.13,36.2h0Z"/>
    <path class="st3" d="M20.13,36.2h0Z"/>
    <polygon class="st4" points="20.44 35.96 19.89 36.51 19.81 36.43 20.36 35.89 20.44 35.96"/>
    <polygon class="st3" points="20.44 35.96 19.89 36.51 19.81 36.43 20.36 35.89 20.44 35.96"/>
    <path class="st6" d="M40.67,61.66c.39.78.08,1.48-.78,1.64-.23.08-.55-.08-.78.16.86.62,2.03.47,2.58-.31.47-.62.31-1.41-.39-1.95-.23-.16-.55-.47-.78-.31-.23.23.08.55.16.78"/>
    <path class="st6" d="M25.91,16.75c.7.39.94.86.55,1.41-.31.47-.78.62-1.33.23q.94-.31.78-1.64"/>
    <path class="st0" d="M22.47,154.98c-.47-1.09-.86-2.19-1.48-3.12-1.48-2.42-1.56-5.08-1.48-7.81.08-4.22.08-8.43.16-12.65.08-5.94.16-11.95.16-17.88.08-8.12.16-16.24.23-24.37.08-7.65.16-15.38.23-23.12,0-1.33.08-2.66.08-3.98h.16c.16,0,.23,0,.39.08,1.17.7,2.34,1.33,3.51,2.03.31.23.39.55.39.86-.08,6.01-.16,12.03-.23,18.04-.08,5.78-.16,11.56-.23,17.26-.08,7.58-.16,15.07-.23,22.65-.08,7.97-.23,15.93-.31,23.9-.08,3.2-.08,6.4-.08,9.61,0,.16.08.31-.16.55-.47-.7-.78-1.33-1.09-2.03"/>
    <path class="st0" d="M25.12,64.94h0c-.08,3.51-.08,6.95-.16,10.31l-.08,7.81c0,2.81-.08,5.7-.08,8.51-.08,2.89-.08,5.86-.08,8.75-.08,3.2-.08,6.4-.08,9.61-.08,4.37-.08,8.67-.16,13.04-.08,4.61-.16,9.29-.16,13.9l-.16,10c0,1.8-.08,3.51-.08,5.31,0,1.41,0,2.89-.08,4.3v.16c0,.23-.08.47-.31.62l-.39.31-1.17-2.5c-.16-.31-.31-.7-.47-1.02-.31-.7-.62-1.48-1.02-2.11-1.33-2.26-1.56-4.61-1.56-6.79v-1.25c.08-2.89.08-5.78.08-8.67v-4.06l.08-7.97c0-3.28.08-6.64.08-9.92l.23-24.37c.08-7.73.16-15.38.23-23.12,0-.94,0-1.8.08-2.73v-1.56l.47-.08c.31-.08.55.08.7.16l3.44,1.95c.55.55.62,1.02.62,1.41M23.17,155.69v-3.44c0-1.8,0-3.51.08-5.31l.16-10c.08-4.61.16-9.29.16-13.9.08-4.37.08-8.67.16-13.04,0-3.2.08-6.4.08-9.61,0-2.89.08-5.86.08-8.75s.08-5.7.08-8.51l.08-7.81c.08-3.44.08-6.87.16-10.31l.39-.08h-.39c0-.31-.08-.47-.16-.55l-3.28-1.95v.78c0,.94-.08,1.8-.08,2.73-.08,7.73-.16,15.38-.23,23.12l-.23,24.37c0,3.28-.08,6.64-.08,9.92l-.08,7.97v4.06c0,2.81,0,5.78-.08,8.67v1.17c0,2.11.16,4.3,1.41,6.4.39.7.78,1.48,1.09,2.19.16.31.31.7.47,1.02l.23.86Z"/>
    <path class="st0" d="M30.98,62.52c-.08,1.33-.16,2.66-.16,3.98-.16,8.12-.31,16.24-.47,24.37-.16,5.94-.23,11.79-.39,17.73-.08,4.92-.23,9.84-.31,14.84-.16,7.03-.31,14.14-.47,21.24,0,1.17-.08,2.34-.08,3.59,0,.47-.08.94-.31,1.41-1.33,2.34-2.73,4.76-4.06,7.11-.08.08-.16.23-.16.23-.08-2.26-.16-4.61-.16-6.87,0-2.42.08-4.84.16-7.26.16-7.5.23-15.07.39-22.57.08-4.69.16-9.37.23-14.06.08-6.72.23-13.43.31-20.07.08-5.15.16-10.31.31-15.38,0-1.95.08-3.83.08-5.78,0-.39.16-.7.47-.94,1.33-1.09,2.81-1.64,4.53-1.87.16-.08.08.16.08.31"/>
    <path class="st0" d="M31.37,62.44l-.08,1.33c0,.94-.08,1.8-.08,2.73-.08,3.75-.16,7.5-.23,11.25-.08,4.37-.16,8.75-.23,13.04-.08,3.44-.16,6.79-.23,10.23-.08,2.5-.08,5-.16,7.5-.08,2.58-.08,5.15-.16,7.73-.08,2.34-.08,4.76-.16,7.11l-.08,3.28c-.16,6.01-.23,11.95-.39,17.96v.94c0,.78-.08,1.56-.08,2.42v.23h0c0,.62-.16,1.17-.39,1.56-.78,1.41-1.64,2.89-2.42,4.3l-1.64,2.81c-.23.47-.47.39-.62.39l-.31-.08v-.31c0-.7-.08-1.41-.08-2.11-.08-1.56-.08-3.2-.08-4.84v-.39c0-1.56,0-3.12.08-4.61,0-.78,0-1.48.08-2.26l.08-6.33c.08-5.39.16-10.86.31-16.24.08-2.5.08-4.92.08-7.42,0-2.19.08-4.45.08-6.64.08-6.72.23-13.43.31-20.07.08-4.14.16-8.2.23-12.34l.08-5.08c0-1.25.08-2.5.08-3.83,0-.47.16-.86.62-1.25,1.25-1.09,2.81-1.72,4.69-2.03h.16l.16.08c.31.16.31.55.31.62l.08.31h0ZM28.8,147.95c0-.78,0-1.64.08-2.42v-.94c.16-6.01.31-11.95.39-17.96l.08-3.28c.08-2.34.08-4.76.16-7.11.08-2.58.08-5.15.16-7.73.08-2.5.08-5,.16-7.5.08-3.44.16-6.79.23-10.23.08-4.37.16-8.75.23-13.04.08-3.75.16-7.5.23-11.25,0-.94.08-1.8.08-2.73l.08-1.25v-.16c-1.64.31-2.97.86-3.98,1.8-.23.23-.31.39-.31.7,0,1.25-.08,2.58-.08,3.83l-.08,5.08c-.08,4.14-.16,8.2-.23,12.34-.16,6.72-.23,13.43-.31,20.07,0,2.19-.08,4.45-.08,6.64,0,2.5-.08,4.92-.08,7.42-.08,5.39-.16,10.86-.31,16.24l-.08,6.33c0,.78,0,1.48-.08,2.26,0,1.48-.08,3.05-.08,4.61v.39c0,1.64.08,3.2.08,4.84v.78l1.09-1.87c.78-1.41,1.64-2.89,2.42-4.3.16-.31.31-.7.31-1.17l-.08-.39Z"/>
    <path class="st6" d="M42.62,62.13c0,1.33-1.09,2.5-2.34,2.58-1.25.08-2.42-1.09-2.5-2.42,0-1.33,1.02-2.58,2.34-2.58,1.33-.16,2.5,1.02,2.5,2.42"/>
    <path class="st6" d="M24.11,22.45c.16,0,.31.08.39.31,0,.23-.16.16-.31.23-.47.16-.78.47-.7,1.02,0,.23.39.47-.08.62-.31.08-.55-.16-.7-.39-.08-.08-.08-.23-.08-.31-.08-.86.78-1.56,1.48-1.48"/>
    <path class="st6" d="M25.98,24.41c.16-.08.39,0,.55.16.39.31.39.7.23,1.09-.08.47-.7.86-1.25.86-.23,0-.47,0-.55-.23-.08-.31.23-.23.39-.31.47-.23.78-.55.55-1.09,0-.16-.08-.39.08-.47"/>
    <path class="st6" d="M24.73,27.76c-.23-.08-.55-.16-.55-.47,0-.39.39-.23.62-.23.94.08,1.8-.08,2.34-.86.62-.78.62-1.64.31-2.58-.08-.31-.31-.62-.23-1.09,1.02.62,1.25,1.56,1.17,2.58-.08,1.09-.47,1.95-1.56,2.42-.62.31-1.41.39-2.11.23"/>
    <path class="st4" d="M20.36,33.39c.16-.62.31-1.25.94-1.64.7-.39,1.33-.86,2.03-1.41-.47-.31-.86-.08-1.17.08-.39.16-.47,0-.39-.31.16-.62.7-.86,1.33-.62.7.31,1.48.39,2.26.55.47.08.62.23.16.55-1.48,1.17-3.2,2.03-4.84,3.12-.39.23-.39-.08-.31-.31"/>
    <path class="st3" d="M20.36,33.39c.16-.62.31-1.25.94-1.64.7-.39,1.33-.86,2.03-1.41-.47-.31-.86-.08-1.17.08-.39.16-.47,0-.39-.31.16-.62.7-.86,1.33-.62.7.31,1.48.39,2.26.55.47.08.62.23.16.55-1.48,1.17-3.2,2.03-4.84,3.12-.39.23-.39-.08-.31-.31Z"/>
    <path class="st4" d="M26.06,30.26c0,.31-.23.47-.39.62-.94.78-1.95,1.33-2.97,1.95-.62.39-1.25.78-1.87,1.17-.31.23-.55.16-.62.08-.23-.16-.39-.47-.23-.86l.08-.16c.16-.62.31-1.25,1.09-1.72.23-.16.55-.31.78-.55-.08,0-.23,0-.31-.08s-.31-.31-.23-.78c.08-.39.31-.7.7-.94.31-.16.78-.16,1.17,0,.55.23,1.09.31,1.72.47l.39.08c.47.23.7.39.7.7M20.83,33.15c.55-.31,1.02-.62,1.56-.94.94-.55,1.87-1.17,2.81-1.8l-.31-.08c-.39-.08-.78-.16-1.17-.23l.39.23-.47.31c-.23.16-.47.31-.62.47-.47.31-.94.62-1.41.94-.55.23-.7.62-.78,1.09M22.24,29.95c.16-.08.39-.16.62-.16-.16-.08-.31-.08-.47,0-.08.08-.16.08-.16.16"/>
    <path class="st3" d="M26.06,30.26c0,.31-.23.47-.39.62-.94.78-1.95,1.33-2.97,1.95-.62.39-1.25.78-1.87,1.17-.31.23-.55.16-.62.08-.23-.16-.39-.47-.23-.86l.08-.16c.16-.62.31-1.25,1.09-1.72.23-.16.55-.31.78-.55-.08,0-.23,0-.31-.08s-.31-.31-.23-.78c.08-.39.31-.7.7-.94.31-.16.78-.16,1.17,0,.55.23,1.09.31,1.72.47l.39.08c.47.23.7.39.7.7ZM20.83,33.15c.55-.31,1.02-.62,1.56-.94.94-.55,1.87-1.17,2.81-1.8l-.31-.08c-.39-.08-.78-.16-1.17-.23l.39.23-.47.31c-.23.16-.47.31-.62.47-.47.31-.94.62-1.41.94-.55.23-.7.62-.78,1.09ZM22.24,29.95c.16-.08.39-.16.62-.16-.16-.08-.31-.08-.47,0-.08.08-.16.08-.16.16Z"/>
    <path class="st4" d="M21.53,35.42c-.47.23-.86.55-1.33.78l-.08.08q0-.08.08-.16h0c.08-.7.7-1.02,1.17-1.41,1.56-1.41,3.44-2.34,5-3.75.7-.62,1.41-1.25,2.03-1.95.55-.55.7-.47,1.09.16.7,1.09.47,1.8-.39,2.73-1.95,2.11-4.14,3.83-6.48,5.39-.86.55-1.72,1.25-2.58,1.87-.23.16-.47.47-.94.55.78-2.03,2.42-3.28,3.83-4.76q-.62,0-1.41.47"/>
    <path class="st3" d="M21.53,35.42c-.47.23-.86.55-1.33.78l-.08.08q0-.08.08-.16h0c.08-.7.7-1.02,1.17-1.41,1.56-1.41,3.44-2.34,5-3.75.7-.62,1.41-1.25,2.03-1.95.55-.55.7-.47,1.09.16.7,1.09.47,1.8-.39,2.73-1.95,2.11-4.14,3.83-6.48,5.39-.86.55-1.72,1.25-2.58,1.87-.23.16-.47.47-.94.55.78-2.03,2.42-3.28,3.83-4.76q-.62,0-1.41.47Z"/>
    <path class="st4" d="M30.2,30.42c0,.78-.47,1.41-.86,1.87-1.8,1.95-3.98,3.75-6.56,5.47-.55.39-1.17.78-1.72,1.25-.31.23-.55.39-.86.62q-.08.08-.16.16c-.23.16-.47.39-.94.55l-.7.16.23-.62c.62-1.64,1.72-2.73,2.81-3.83l.08-.08-2.19,1.33.31-1.09c.08-.62.55-1.02.94-1.33.08-.08.23-.16.31-.23.86-.78,1.8-1.41,2.66-2.03.78-.55,1.56-1.09,2.34-1.72.55-.47,1.02-.94,1.48-1.41l.47-.47c.31-.31.55-.55.94-.47.39,0,.62.39.78.7.55.23.62.7.62,1.17M20.05,38.7c.16-.16.31-.23.55-.39.55-.47,1.17-.86,1.72-1.25,2.58-1.64,4.69-3.36,6.4-5.31.86-.94.94-1.41.39-2.26-.08-.08-.16-.23-.23-.31-.08,0-.16.08-.31.23l-.47.47c-.47.47-1.02,1.02-1.56,1.48-.78.62-1.56,1.25-2.42,1.8-.78.55-1.64,1.09-2.34,1.72.47-.23.7-.23,1.17-.08l.62.16-.39.47c-.31.39-.7.7-1.09,1.09-.7.62-1.48,1.33-2.03,2.19"/>
    <path class="st3" d="M30.2,30.42c0,.78-.47,1.41-.86,1.87-1.8,1.95-3.98,3.75-6.56,5.47-.55.39-1.17.78-1.72,1.25-.31.23-.55.39-.86.62q-.08.08-.16.16c-.23.16-.47.39-.94.55l-.7.16.23-.62c.62-1.64,1.72-2.73,2.81-3.83l.08-.08-2.19,1.33.31-1.09c.08-.62.55-1.02.94-1.33.08-.08.23-.16.31-.23.86-.78,1.8-1.41,2.66-2.03.78-.55,1.56-1.09,2.34-1.72.55-.47,1.02-.94,1.48-1.41l.47-.47c.31-.31.55-.55.94-.47.39,0,.62.39.78.7.55.23.62.7.62,1.17ZM20.05,38.7c.16-.16.31-.23.55-.39.55-.47,1.17-.86,1.72-1.25,2.58-1.64,4.69-3.36,6.4-5.31.86-.94.94-1.41.39-2.26-.08-.08-.16-.23-.23-.31-.08,0-.16.08-.31.23l-.47.47c-.47.47-1.02,1.02-1.56,1.48-.78.62-1.56,1.25-2.42,1.8-.78.55-1.64,1.09-2.34,1.72.47-.23.7-.23,1.17-.08l.62.16-.39.47c-.31.39-.7.7-1.09,1.09-.7.62-1.48,1.33-2.03,2.19Z"/>
    <path class="st4" d="M19.58,43.7c.78-1.87,2.42-3.05,3.75-4.45-1.48.39-2.58,1.56-3.83,2.34q-.08-.08-.16-.16c.47-1.02,1.41-1.56,2.26-2.19,2.19-1.72,4.69-3.05,6.64-5,.7-.7,1.33-1.33,1.87-2.11.39-.55.55-.39.86.16.86,1.33.55,2.26-.55,3.36-1.8,1.72-3.75,3.2-5.86,4.45-1.64,1.02-3.2,2.11-4.69,3.36,0,.16-.08.31-.31.23"/>
    <path class="st3" d="M19.58,43.7c.78-1.87,2.42-3.05,3.75-4.45-1.48.39-2.58,1.56-3.83,2.34q-.08-.08-.16-.16c.47-1.02,1.41-1.56,2.26-2.19,2.19-1.72,4.69-3.05,6.64-5,.7-.7,1.33-1.33,1.87-2.11.39-.55.55-.39.86.16.86,1.33.55,2.26-.55,3.36-1.8,1.72-3.75,3.2-5.86,4.45-1.64,1.02-3.2,2.11-4.69,3.36,0,.16-.08.31-.31.23Z"/>
    <path class="st4" d="M31.84,33.78c0,.7-.39,1.41-1.09,2.19-1.64,1.56-3.51,3.05-5.86,4.53-1.72,1.09-3.2,2.11-4.61,3.28-.16.16-.39.31-.78.23l-.39-.16.16-.39c.39-1.02,1.09-1.87,1.8-2.66-.08,0-.08.08-.16.08-.39.31-.78.62-1.25.86l-.23.16-.55-.47.08-.23c.39-.94,1.09-1.41,1.8-1.95.16-.16.39-.23.55-.39.78-.62,1.64-1.17,2.42-1.72,1.41-.94,2.89-1.95,4.14-3.2.78-.78,1.41-1.41,1.87-2.03.23-.23.47-.47.78-.47.39,0,.55.31.78.62.39.7.55,1.25.55,1.72M20.67,42.52c1.17-.94,2.42-1.8,3.75-2.66,2.26-1.41,4.14-2.89,5.78-4.45,1.02-1.02,1.17-1.8.47-2.89,0-.08-.08-.16-.16-.23l-.08.08c-.55.62-1.17,1.33-1.95,2.11-1.33,1.25-2.81,2.34-4.3,3.28-.62.39-1.25.86-1.8,1.25.23-.08.47-.23.78-.31l1.25-.31-.86.94c-.39.47-.78.86-1.25,1.25-.55.7-1.17,1.25-1.64,1.95"/>
    <path class="st3" d="M31.84,33.78c0,.7-.39,1.41-1.09,2.19-1.64,1.56-3.51,3.05-5.86,4.53-1.72,1.09-3.2,2.11-4.61,3.28-.16.16-.39.31-.78.23l-.39-.16.16-.39c.39-1.02,1.09-1.87,1.8-2.66-.08,0-.08.08-.16.08-.39.31-.78.62-1.25.86l-.23.16-.55-.47.08-.23c.39-.94,1.09-1.41,1.8-1.95.16-.16.39-.23.55-.39.78-.62,1.64-1.17,2.42-1.72,1.41-.94,2.89-1.95,4.14-3.2.78-.78,1.41-1.41,1.87-2.03.23-.23.47-.47.78-.47.39,0,.55.31.78.62.39.7.55,1.25.55,1.72ZM20.67,42.52c1.17-.94,2.42-1.8,3.75-2.66,2.26-1.41,4.14-2.89,5.78-4.45,1.02-1.02,1.17-1.8.47-2.89,0-.08-.08-.16-.16-.23l-.08.08c-.55.62-1.17,1.33-1.95,2.11-1.33,1.25-2.81,2.34-4.3,3.28-.62.39-1.25.86-1.8,1.25.23-.08.47-.23.78-.31l1.25-.31-.86.94c-.39.47-.78.86-1.25,1.25-.55.7-1.17,1.25-1.64,1.95Z"/>
    <path class="st4" d="M23.48,43.7c-1.25.7-2.34,1.64-3.51,2.5-.16.08-.31.39-.47.23-.23-.16-.16-.47-.08-.7.08-.16.23-.31.39-.47,1.33-1.17,2.66-2.42,4.22-3.36,2.66-1.64,5.15-3.36,7.42-5.54.16-.16.31-.55.7-.39.31.16.23.47.31.78.16.62.16,1.25.31,1.87.08.55-.08,1.02-.55,1.48-2.19,2.42-5,3.98-7.73,5.62-1.64,1.02-3.12,2.11-4.45,3.44-.08.08-.16.08-.39.16,1.09-2.5,3.28-3.83,5-5.54-.55-.47-.86-.23-1.17-.08"/>
    <path class="st3" d="M23.48,43.7c-1.25.7-2.34,1.64-3.51,2.5-.16.08-.31.39-.47.23-.23-.16-.16-.47-.08-.7.08-.16.23-.31.39-.47,1.33-1.17,2.66-2.42,4.22-3.36,2.66-1.64,5.15-3.36,7.42-5.54.16-.16.31-.55.7-.39.31.16.23.47.31.78.16.62.16,1.25.31,1.87.08.55-.08,1.02-.55,1.48-2.19,2.42-5,3.98-7.73,5.62-1.64,1.02-3.12,2.11-4.45,3.44-.08.08-.16.08-.39.16,1.09-2.5,3.28-3.83,5-5.54-.55-.47-.86-.23-1.17-.08Z"/>
    <path class="st4" d="M33.09,38.85c0,.62-.31,1.09-.62,1.41-1.87,2.11-4.3,3.59-6.64,5-.39.23-.78.47-1.17.7-1.87,1.17-3.2,2.19-4.37,3.36-.08.08-.23.16-.31.16s-.16,0-.23.08l-.86.31.39-.78c.86-1.87,2.26-3.05,3.59-4.3.23-.16.47-.39.7-.62-.78.47-1.48,1.02-2.19,1.56-.31.23-.62.55-1.02.78l-.08.08c-.31.31-.62.39-.94.16-.16-.16-.31-.39-.31-.62s.08-.39.16-.55c.16-.23.31-.47.47-.55.23-.23.47-.39.7-.62,1.09-.94,2.26-1.95,3.51-2.73,3.12-1.95,5.39-3.59,7.34-5.47l.08-.08c.16-.16.47-.62,1.02-.39.47.16.47.62.47.86v.16c.08.39.16.78.16,1.09,0,.23.08.47.08.78,0,0,.08.08.08.23M21.14,47.44c.86-.7,1.87-1.41,3.12-2.19.39-.23.78-.47,1.17-.7,2.26-1.41,4.69-2.81,6.48-4.84.39-.39.47-.7.39-1.17-.08-.23-.08-.55-.08-.78-.08-.39-.08-.7-.16-1.09v-.47s-.08.08-.08.16c-.08.08-.08.16-.16.16-1.95,1.87-4.22,3.67-7.42,5.62-1.25.78-2.34,1.72-3.44,2.66-.23.23-.47.39-.7.62-.08.08-.23.23-.23.31.31-.23.62-.47.94-.7.78-.62,1.64-1.25,2.58-1.8.39-.23.86-.47,1.48-.08l.39.23-.31.31c-.47.47-1.02.94-1.56,1.41-1.02.94-1.8,1.56-2.42,2.34"/>
    <path class="st3" d="M33.09,38.85c0,.62-.31,1.09-.62,1.41-1.87,2.11-4.3,3.59-6.64,5-.39.23-.78.47-1.17.7-1.87,1.17-3.2,2.19-4.37,3.36-.08.08-.23.16-.31.16s-.16,0-.23.08l-.86.31.39-.78c.86-1.87,2.26-3.05,3.59-4.3.23-.16.47-.39.7-.62-.78.47-1.48,1.02-2.19,1.56-.31.23-.62.55-1.02.78l-.08.08c-.31.31-.62.39-.94.16-.16-.16-.31-.39-.31-.62s.08-.39.16-.55c.16-.23.31-.47.47-.55.23-.23.47-.39.7-.62,1.09-.94,2.26-1.95,3.51-2.73,3.12-1.95,5.39-3.59,7.34-5.47l.08-.08c.16-.16.47-.62,1.02-.39.47.16.47.62.47.86v.16c.08.39.16.78.16,1.09,0,.23.08.47.08.78,0,0,.08.08.08.23ZM21.14,47.44c.86-.7,1.87-1.41,3.12-2.19.39-.23.78-.47,1.17-.7,2.26-1.41,4.69-2.81,6.48-4.84.39-.39.47-.7.39-1.17-.08-.23-.08-.55-.08-.78-.08-.39-.08-.7-.16-1.09v-.47s-.08.08-.08.16c-.08.08-.08.16-.16.16-1.95,1.87-4.22,3.67-7.42,5.62-1.25.78-2.34,1.72-3.44,2.66-.23.23-.47.39-.7.62-.08.08-.23.23-.23.31.31-.23.62-.47.94-.7.78-.62,1.64-1.25,2.58-1.8.39-.23.86-.47,1.48-.08l.39.23-.31.31c-.47.47-1.02.94-1.56,1.41-1.02.94-1.8,1.56-2.42,2.34Z"/>
    <path class="st4" d="M20.52,52.91c.16-.47.47-.86.78-1.17,1.02-.94,2.03-1.87,3.05-2.73.23-.16.47-.31.55-.62-.47-.23-.86,0-1.17.23-1.09.55-2.03,1.41-2.97,2.19-.16.16-.31.31-.55.39l-.08.08q-.08-.08,0-.16l.08.08-.08-.08c.23-1.25,1.41-1.8,2.26-2.5,3.2-2.58,6.79-4.61,9.92-7.26.39-.31.55-.23.55.23,0,.7.08,1.48.08,2.19,0,.62-.31,1.02-.78,1.41-2.11,1.72-4.3,3.2-6.56,4.69-1.25.86-2.42,1.8-3.67,2.66-.31.23-.7.55-1.09.7-.23.16-.39,0-.31-.31"/>
    <path class="st3" d="M20.52,52.91c.16-.47.47-.86.78-1.17,1.02-.94,2.03-1.87,3.05-2.73.23-.16.47-.31.55-.62-.47-.23-.86,0-1.17.23-1.09.55-2.03,1.41-2.97,2.19-.16.16-.31.31-.55.39l-.08.08q-.08-.08,0-.16l.08.08-.08-.08c.23-1.25,1.41-1.8,2.26-2.5,3.2-2.58,6.79-4.61,9.92-7.26.39-.31.55-.23.55.23,0,.7.08,1.48.08,2.19,0,.62-.31,1.02-.78,1.41-2.11,1.72-4.3,3.2-6.56,4.69-1.25.86-2.42,1.8-3.67,2.66-.31.23-.7.55-1.09.7-.23.16-.39,0-.31-.31Z"/>
    <path class="st4" d="M33.33,43.54v.16c0,.86-.55,1.41-.94,1.72-2.03,1.64-4.14,3.12-6.56,4.69-.86.55-1.72,1.17-2.5,1.8-.39.31-.78.55-1.09.86l-.16.08c-.31.23-.62.47-.94.62-.31.16-.55.08-.7,0-.23-.16-.31-.47-.23-.78.16-.47.47-.94.94-1.33.78-.7,1.64-1.48,2.42-2.26l.39-.39h0c-.94.47-1.64,1.09-2.5,1.8l-.39.31-.08.08c-.16.08-.31.23-.55.31-.23.23-.39.16-.55.08-.16.08-.16-.08-.16-.16s0-.23.08-.31c.23-1.09,1.09-1.64,1.8-2.19.23-.16.39-.31.55-.47,1.48-1.17,3.05-2.26,4.61-3.36,1.8-1.25,3.59-2.5,5.31-3.9.16-.08.47-.39.86-.23s.39.62.39.78v.62c0,.55,0,1.02,0,1.48M21.06,52.6c.16-.08.31-.23.47-.31l.16-.16c.39-.31.78-.55,1.09-.86.86-.62,1.72-1.25,2.58-1.87,2.34-1.56,4.53-3.05,6.48-4.69.47-.39.7-.7.7-1.17v-2.03c-1.64,1.41-3.51,2.66-5.23,3.9-1.25.86-2.58,1.8-3.9,2.73.08,0,.08-.08.16-.08l.08-.08c.39-.23.86-.47,1.48-.16l.23.16-.08.39c-.08.39-.31.62-.55.78-.08,0-.08.08-.16.08l-.55.55c-.78.78-1.64,1.48-2.42,2.26-.23.16-.39.31-.55.55"/>
    <path class="st3" d="M33.33,43.54v.16c0,.86-.55,1.41-.94,1.72-2.03,1.64-4.14,3.12-6.56,4.69-.86.55-1.72,1.17-2.5,1.8-.39.31-.78.55-1.09.86l-.16.08c-.31.23-.62.47-.94.62-.31.16-.55.08-.7,0-.23-.16-.31-.47-.23-.78.16-.47.47-.94.94-1.33.78-.7,1.64-1.48,2.42-2.26l.39-.39h0c-.94.47-1.64,1.09-2.5,1.8l-.39.31-.08.08c-.16.08-.31.23-.55.31-.23.23-.39.16-.55.08-.16.08-.16-.08-.16-.16s0-.23.08-.31c.23-1.09,1.09-1.64,1.8-2.19.23-.16.39-.31.55-.47,1.48-1.17,3.05-2.26,4.61-3.36,1.8-1.25,3.59-2.5,5.31-3.9.16-.08.47-.39.86-.23s.39.62.39.78v.62c0,.55,0,1.02,0,1.48ZM21.06,52.6c.16-.08.31-.23.47-.31l.16-.16c.39-.31.78-.55,1.09-.86.86-.62,1.72-1.25,2.58-1.87,2.34-1.56,4.53-3.05,6.48-4.69.47-.39.7-.7.7-1.17v-2.03c-1.64,1.41-3.51,2.66-5.23,3.9-1.25.86-2.58,1.8-3.9,2.73.08,0,.08-.08.16-.08l.08-.08c.39-.23.86-.47,1.48-.16l.23.16-.08.39c-.08.39-.31.62-.55.78-.08,0-.08.08-.16.08l-.55.55c-.78.78-1.64,1.48-2.42,2.26-.23.16-.39.31-.55.55Z"/>
    <path class="st4" d="M23.95,55.57c-.39-.31-.08-.7.08-1.02.62-1.02,1.48-1.72,2.42-2.42.16-.08.23-.23.39-.31-.31-.31-.55-.08-.78,0-1.33.78-2.73,1.56-3.75,2.81-.16.16-.23.39-.47.23-.31-.16-.16-.39-.08-.62.16-.39.47-.62.78-.86,2.89-2.11,5.78-4.22,8.67-6.25.47-.31.86-.86,1.41-1.09l.08-.08s0,.08-.08.08l-.08-.08.08.08v.16c.08,1.95-.39,3.59-2.19,4.69-1.09.7-2.11,1.64-3.28,2.26-.94.47-1.64,1.17-2.42,1.87-.23.31-.47.78-.78.55"/>
    <path class="st3" d="M23.95,55.57c-.39-.31-.08-.7.08-1.02.62-1.02,1.48-1.72,2.42-2.42.16-.08.23-.23.39-.31-.31-.31-.55-.08-.78,0-1.33.78-2.73,1.56-3.75,2.81-.16.16-.23.39-.47.23-.31-.16-.16-.39-.08-.62.16-.39.47-.62.78-.86,2.89-2.11,5.78-4.22,8.67-6.25.47-.31.86-.86,1.41-1.09l.08-.08s0,.08-.08.08l-.08-.08.08.08v.16c.08,1.95-.39,3.59-2.19,4.69-1.09.7-2.11,1.64-3.28,2.26-.94.47-1.64,1.17-2.42,1.87-.23.31-.47.78-.78.55Z"/>
    <path class="st4" d="M33.79,44.95l-.7,1.33v.47c0,2.11-.78,3.59-2.42,4.61-.47.31-.86.62-1.25.94-.62.47-1.33,1.02-2.03,1.41-.78.39-1.41.94-2.03,1.56l-.31.31-.08.08c-.16.16-.62.62-1.17.23-.23-.16-.31-.39-.31-.62,0-.31.16-.55.31-.78.23-.39.55-.78.86-1.09-.7.47-1.33,1.02-1.87,1.64-.16.16-.47.55-.94.31-.39-.23-.55-.39-.55-.7,0-.16.08-.31.08-.39.16-.55.55-.86.86-1.09l1.8-1.33c2.34-1.64,4.61-3.36,6.95-5,.16-.16.31-.23.47-.39.31-.31.62-.55,1.02-.7h0l1.33-.78ZM24.19,55.18c.08,0,.08-.08.16-.16.08-.08.08-.16.16-.16l.31-.23c.7-.62,1.41-1.25,2.19-1.64.7-.31,1.33-.86,1.95-1.33.39-.31.86-.62,1.33-.94,1.41-.86,2.03-2.11,2.03-3.98-.08.08-.23.16-.31.31-.16.16-.31.31-.55.47-1.95,1.41-3.98,2.81-5.94,4.3h.08l.39-.31c.16-.16.7-.47,1.17.08l.31.31-.47.39c-.08.08-.16.16-.23.23l-.16.08c-.86.7-1.64,1.33-2.19,2.19-.16.16-.23.31-.23.39h0"/>
    <path class="st3" d="M33.79,44.95l-.7,1.33v.47c0,2.11-.78,3.59-2.42,4.61-.47.31-.86.62-1.25.94-.62.47-1.33,1.02-2.03,1.41-.78.39-1.41.94-2.03,1.56l-.31.31-.08.08c-.16.16-.62.62-1.17.23-.23-.16-.31-.39-.31-.62,0-.31.16-.55.31-.78.23-.39.55-.78.86-1.09-.7.47-1.33,1.02-1.87,1.64-.16.16-.47.55-.94.31-.39-.23-.55-.39-.55-.7,0-.16.08-.31.08-.39.16-.55.55-.86.86-1.09l1.8-1.33c2.34-1.64,4.61-3.36,6.95-5,.16-.16.31-.23.47-.39.31-.31.62-.55,1.02-.7h0l1.33-.78ZM24.19,55.18c.08,0,.08-.08.16-.16.08-.08.08-.16.16-.16l.31-.23c.7-.62,1.41-1.25,2.19-1.64.7-.31,1.33-.86,1.95-1.33.39-.31.86-.62,1.33-.94,1.41-.86,2.03-2.11,2.03-3.98-.08.08-.23.16-.31.31-.16.16-.31.31-.55.47-1.95,1.41-3.98,2.81-5.94,4.3h.08l.39-.31c.16-.16.7-.47,1.17.08l.31.31-.47.39c-.08.08-.16.16-.23.23l-.16.08c-.86.7-1.64,1.33-2.19,2.19-.16.16-.23.31-.23.39h0Z"/>
    <path class="st4" d="M25.67,55.49c1.95-1.33,3.98-2.58,5.94-3.9q.08.08.16.16c-.31.94-.62,1.95-.94,2.89-.08.31-.39.39-.62.47-1.41.31-2.73.62-3.98,1.33-.39.23-.78.23-1.02-.16-.23-.39.23-.55.47-.78"/>
    <path class="st3" d="M25.67,55.49c1.95-1.33,3.98-2.58,5.94-3.9q.08.08.16.16c-.31.94-.62,1.95-.94,2.89-.08.31-.39.39-.62.47-1.41.31-2.73.62-3.98,1.33-.39.23-.78.23-1.02-.16-.23-.39.23-.55.47-.78Z"/>
    <path class="st4" d="M32.15,51.58v.31l-.23.78c-.23.7-.47,1.41-.7,2.11-.16.55-.62.62-.94.7-1.25.31-2.66.62-3.83,1.33-.62.31-1.25.23-1.56-.31-.08-.16-.16-.31-.16-.47,0-.39.39-.62.62-.78l.08-.08c1.48-1.02,3.05-1.95,4.53-2.97l1.64-1.09.55.47ZM25.52,56.11c.16.16.39.08.55,0,1.33-.7,2.81-1.09,4.06-1.41q.31-.08.39-.16c.23-.7.47-1.41.7-2.11v-.08l-.78.47c-1.48,1.02-3.05,1.95-4.53,2.97-.08,0-.08.08-.16.08-.08.08-.23.16-.23.23"/>
    <path class="st3" d="M32.15,51.58v.31l-.23.78c-.23.7-.47,1.41-.7,2.11-.16.55-.62.62-.94.7-1.25.31-2.66.62-3.83,1.33-.62.31-1.25.23-1.56-.31-.08-.16-.16-.31-.16-.47,0-.39.39-.62.62-.78l.08-.08c1.48-1.02,3.05-1.95,4.53-2.97l1.64-1.09.55.47ZM25.52,56.11c.16.16.39.08.55,0,1.33-.7,2.81-1.09,4.06-1.41q.31-.08.39-.16c.23-.7.47-1.41.7-2.11v-.08l-.78.47c-1.48,1.02-3.05,1.95-4.53,2.97-.08,0-.08.08-.16.08-.08.08-.23.16-.23.23Z"/>
    <path class="st6" d="M12.24,59.24c1.87-2.03,4.22-3.05,6.95-3.12,2.03,0,3.9.39,5.78,1.25.62.31,1.02.23,1.64,0,2.5-1.02,5.15-1.48,7.81-.78,1.64.47,3.05,1.25,4.22,2.5.16.16.62.39.23.7-.31.23-.55.7-1.17.39-1.33-.86-2.89-1.33-4.37-1.64-2.66-.47-5.15-.08-7.5,1.17-.47.31-.86.23-1.33,0-3.2-1.41-6.33-1.95-9.61-.86-.7.23-1.48.55-2.11,1.02-.23.16-.47.31-.7,0-.31-.31,0-.47.16-.62"/>
    <path class="st6" d="M12.94,62.2c0,1.41-1.02,2.5-2.34,2.58-1.33.08-2.5-1.09-2.5-2.5,0-1.33,1.09-2.5,2.42-2.5,1.33,0,2.42,1.02,2.42,2.42"/>
    <path class="st6" d="M13.8,61.11c-.23.08-.39.39-.62,0s0-.47.31-.62c1.41-.86,2.97-1.25,4.69-1.33,2.26,0,4.45.55,6.4,1.64.39.23.7.23,1.09,0,3.51-2.19,7.11-1.95,10.78-.31.31.16.62.23.86.47.16.08.62-.31.39.31-.16.39-.23.47-.7.31-1.02-.47-2.19-.7-3.28-.86-2.89-.31-5.54.47-7.81,2.19-.55.39-.78.39-1.33,0-2.26-1.48-4.69-2.5-7.5-2.42-1.17-.08-2.26.16-3.28.62"/>
    <path class="st6" d="M10.91,61.66c.47.86.16,1.56-.86,1.72-.23,0-.47-.08-.7.23.86.62,2.03.47,2.58-.31.47-.7.31-1.48-.47-2.03-.23-.16-.47-.39-.7-.16-.23.08.08.31.16.55"/>
    <path class="st6" d="M25.05,29.4c-2.5,0-4.61-1.95-4.61-4.37s2.03-4.37,4.61-4.37,4.61,1.95,4.61,4.37-2.03,4.37-4.61,4.37"/>
    <path class="st6" d="M24.89,20.35c-1.41,0-2.58-1.09-2.58-2.5s1.17-2.5,2.58-2.5,2.58,1.09,2.58,2.5c.08,1.33-1.09,2.5-2.58,2.5"/>
    <path class="st1" d="M19.81,36.2s.08,0,0,0c.08,0,0,0,0,0ZM40.35,61.66c.39.78.08,1.48-.78,1.64-.23.08-.55-.08-.78.16.86.62,2.03.47,2.58-.31.47-.62.31-1.41-.39-1.95-.23-.16-.55-.47-.78-.31-.23.23.08.55.16.78M18.72,61.66s-2.97-.7-4.92.7c-.08.86-1.17,4.69-4.61,3.36-2.5-1.17-3.2-4.22-.55-6.4,1.64-.47,2.5-.16,2.5-.16,0,0,1.8-3.83,8.67-3.75-2.5-5.62-2.89-14.53-1.48-19.76,1.41-5.23,2.97-7.18,2.97-7.18,0,0-2.26-2.03-.86-5.78,0,0,.7-1.33,2.58-2.26v-.16s-2.34-2.11-.47-4.37c1.87-2.34,5.23-.39,5.39,1.56.16,1.95-1.25,2.73-1.33,2.73s0,.39,0,.39c0,0,3.12.78,3.28,3.83.16,3.05-.94,3.12-.94,3.12,0,0,4.45,4.45,4.84,15.07-.23,9.37-1.95,12.73-1.95,12.73,0,0,4.76,0,7.5,3.44,3.51,0,4.61,2.73,3.83,4.69-.7,1.95-3.12,2.81-4.37,2.19-1.25-.62-2.19-1.64-2.34-3.12-2.11-.86-4.22-1.09-5.08-.86,0,7.58-1.56,88.17-1.56,88.17l-6.01,10.62-5.47-10.78.39-88.01ZM24.81,18.39c.55.39,1.02.23,1.33-.23.39-.55.16-1.09-.55-1.41q.16,1.33-.78,1.64M23.09,157.01c.23-.16.16-.39.16-.55.08-3.2.08-6.4.08-9.61.08-7.97.23-15.93.31-23.9.08-7.58.16-15.07.23-22.65.08-5.78.16-11.56.23-17.26.08-6.01.16-12.03.23-18.04,0-.39,0-.7-.39-.86-1.17-.7-2.34-1.33-3.51-2.03-.08-.16-.23-.16-.39-.08h-.16c0,1.33-.08,2.66-.08,3.98-.08,7.73-.16,15.38-.23,23.12-.08,8.12-.16,16.24-.23,24.37-.08,5.94-.16,11.95-.16,17.88-.08,4.22,0,8.43-.16,12.65-.08,2.73,0,5.39,1.48,7.81.62,1.02,1.02,2.11,1.48,3.12.47.7.78,1.33,1.09,2.03M30.59,61.97c-1.64.23-3.2.78-4.53,1.87-.31.23-.47.55-.47.94,0,1.95-.08,3.83-.08,5.78-.08,5.15-.23,10.31-.31,15.38-.16,6.72-.23,13.43-.31,20.07-.08,4.69-.16,9.37-.23,14.06-.16,7.5-.23,15.07-.39,22.57-.08,2.42-.16,4.84-.08,7.26,0,2.34.08,4.61.16,6.87,0,0,.08-.08.16-.23,1.33-2.34,2.73-4.76,4.06-7.11.23-.47.31-.94.31-1.41,0-1.17.08-2.42.08-3.59.16-7.11.31-14.14.47-21.24.08-4.92.16-9.84.31-14.84.16-5.94.23-11.79.39-17.73.16-8.12.31-16.24.47-24.37,0-1.33.08-2.66.16-3.98-.08.08,0-.16-.16-.31M39.81,59.63c-1.25.08-2.34,1.25-2.34,2.58s1.17,2.5,2.5,2.42,2.42-1.25,2.34-2.58c0-1.33-1.17-2.5-2.5-2.42M22.31,23.86c0,.08,0,.23.08.31.16.23.39.47.7.39.47-.08.08-.39.08-.62-.08-.55.23-.86.7-1.02.16-.08.31,0,.31-.23,0-.16-.16-.23-.39-.31-.7,0-1.48.7-1.48,1.48M25.67,24.88c.23.62-.16.86-.55,1.09-.16.08-.47,0-.39.31.08.23.31.23.55.23.55,0,1.09-.39,1.25-.86.08-.39.08-.78-.23-1.09-.16-.16-.39-.23-.55-.16-.23.08-.16.31-.08.47M26.61,27.53c1.09-.47,1.48-1.33,1.56-2.42.08-1.02-.16-1.87-1.17-2.58-.08.47.08.78.23,1.09.31.94.31,1.8-.31,2.58-.62.78-1.41.94-2.34.86-.23,0-.55-.16-.62.23,0,.31.23.39.55.47.7.16,1.41.08,2.11-.23M20.36,33.7c1.56-1.09,3.28-1.95,4.84-3.12.39-.31.23-.47-.16-.55-.78-.16-1.48-.23-2.26-.55-.55-.23-1.17.08-1.33.62-.08.31,0,.47.39.31.31-.16.7-.39,1.17-.08-.7.47-1.41,1.02-2.03,1.41-.62.39-.78,1.02-.94,1.64-.08.23-.08.55.31.31M22.55,35.11c-1.33,1.48-3.05,2.66-3.83,4.76.47-.08.7-.39.94-.55.86-.62,1.64-1.33,2.58-1.87,2.42-1.56,4.61-3.28,6.48-5.39.86-.94,1.09-1.64.39-2.73-.39-.62-.55-.7-1.09-.16-.7.62-1.33,1.33-2.03,1.95-1.56,1.33-3.44,2.34-5,3.75-.47.39-1.09.7-1.17,1.41h0q0,.08-.08.16l.08-.08c.47-.23.86-.55,1.33-.78q.86-.62,1.41-.47M19.74,43.54c1.48-1.25,3.05-2.34,4.69-3.36,2.11-1.33,4.06-2.73,5.86-4.45,1.09-1.02,1.33-2.03.55-3.36-.31-.55-.47-.62-.86-.16-.62.7-1.25,1.41-1.87,2.11-1.95,1.95-4.45,3.28-6.64,5-.86.62-1.8,1.09-2.26,2.19q.08.08.16.16c1.25-.78,2.26-1.87,3.83-2.34-1.33,1.41-2.97,2.58-3.75,4.45.08,0,.16-.16.31-.23M24.27,43.62c-1.72,1.72-3.9,3.12-5,5.54.23-.08.39-.08.39-.16,1.33-1.33,2.81-2.42,4.45-3.44,2.73-1.64,5.54-3.2,7.73-5.62.39-.47.62-.86.55-1.48-.08-.62-.16-1.25-.31-1.87-.08-.23,0-.62-.31-.78s-.47.23-.7.39c-2.19,2.19-4.76,3.9-7.42,5.54-1.56.94-2.89,2.19-4.22,3.36-.16.16-.31.31-.39.47-.16.23-.16.55.08.7.16.16.31-.08.47-.23,1.17-.86,2.26-1.8,3.51-2.5.39,0,.7-.23,1.17.08M20.6,53.22c.39-.23.7-.47,1.09-.7,1.25-.86,2.42-1.8,3.67-2.66,2.26-1.48,4.45-2.97,6.56-4.69.47-.39.78-.86.78-1.41,0-.7,0-1.48-.08-2.19,0-.47-.16-.55-.55-.23-3.12,2.66-6.72,4.69-9.92,7.26-.86.7-2.03,1.25-2.26,2.5l.08.08-.08-.08c-.08.08-.16.08,0,.16l.08-.08c.23,0,.39-.23.55-.39.94-.78,1.87-1.64,2.97-2.19.39-.16.7-.47,1.17-.23-.08.31-.31.47-.55.62-1.02.94-2.03,1.87-3.05,2.73-.39.31-.62.7-.78,1.17-.16.31,0,.47.31.31M24.42,55.18c.78-.7,1.48-1.41,2.42-1.87,1.25-.62,2.19-1.56,3.28-2.26,1.8-1.17,2.26-2.73,2.19-4.69v-.16l-.08-.08.08.08s0-.08.08-.08l-.08.08c-.55.23-.94.78-1.41,1.09-2.89,2.11-5.78,4.14-8.67,6.25-.31.23-.7.47-.78.86-.08.23-.16.47.08.62.23.08.39-.08.47-.23,1.02-1.25,2.42-1.95,3.75-2.81.23-.16.47-.39.78,0-.16.08-.31.23-.39.31-.94.7-1.8,1.41-2.42,2.42-.16.31-.47.7-.08,1.02.31.08.55-.39.78-.55M24.89,56.27c.23.31.62.31,1.02.16,1.25-.7,2.58-1.02,3.98-1.33.31-.08.55-.16.62-.47.31-.94.62-1.95.94-2.89q-.08-.08-.16-.16c-1.95,1.33-3.98,2.58-5.94,3.9-.23.23-.7.39-.47.78M11.77,59.86c.23.31.47.16.7,0,.62-.47,1.33-.78,2.11-1.02,3.28-1.09,6.48-.55,9.53.94.47.23.86.23,1.33,0,2.34-1.33,4.84-1.72,7.5-1.17,1.56.31,3.05.78,4.37,1.64.62.39.86-.16,1.17-.39.39-.31-.08-.55-.23-.7-1.09-1.25-2.58-2.11-4.22-2.5-2.73-.7-5.31-.23-7.81.78-.55.23-1.02.23-1.64,0-1.8-.86-3.75-1.25-5.78-1.25-2.73.16-5.08,1.09-6.95,3.12-.08.08-.39.23-.08.55M10.21,59.78c-1.33,0-2.42,1.17-2.42,2.5,0,1.41,1.17,2.5,2.5,2.5,1.33-.08,2.34-1.17,2.34-2.58,0-1.41-1.02-2.42-2.42-2.42M16.69,60.33c2.81-.08,5.23.94,7.5,2.42.47.31.78.39,1.33,0,2.26-1.72,4.92-2.5,7.81-2.19,1.17.16,2.26.39,3.28.86.39.16.55.08.7-.31.23-.62-.31-.16-.39-.31-.23-.16-.55-.31-.86-.47-3.67-1.64-7.26-1.8-10.78.31-.39.23-.7.23-1.09,0-2.03-1.09-4.14-1.64-6.4-1.64-1.64,0-3.2.47-4.69,1.33-.23.16-.47.31-.31.62.23.39.47.16.62,0,1.09-.31,2.19-.55,3.28-.62M10.6,61.66c.47.86.16,1.56-.86,1.72-.23,0-.47-.08-.7.23.86.62,2.03.47,2.58-.31.47-.7.31-1.48-.47-2.03-.23-.16-.47-.39-.7-.16-.23.08.08.31.16.55M27.16,17.85c0-1.17-1.02-2.11-2.19-2.11s-2.19.94-2.19,2.11,1.02,2.11,2.19,2.11,2.19-.94,2.19-2.11M29.11,24.88c0-2.26-1.87-4.06-4.14-4.06s-4.14,1.8-4.14,4.06,1.87,4.06,4.14,4.06c2.26,0,4.14-1.8,4.14-4.06"/>
    <path class="st4" d="M60.5,141c0-.08-.08-.08,0,0-.08-.08,0-.08,0,0"/>
    <path class="st3" d="M60.5,141c0-.08-.08-.08,0,0-.08-.08,0-.08,0,0Z"/>
    <polygon class="st4" points="60.11 141.16 60.66 140.61 60.74 140.69 60.27 141.24 60.11 141.16"/>
    <polygon class="st3" points="60.11 141.16 60.66 140.61 60.74 140.69 60.27 141.24 60.11 141.16"/>
    <path class="st6" d="M39.57,115.78c-.39-.78-.08-1.48.78-1.64.23-.08.55.08.78-.16-.94-.62-2.03-.47-2.58.39-.47.62-.23,1.41.39,1.95.23.16.55.39.78.31.23-.31-.08-.62-.16-.86"/>
    <path class="st6" d="M54.96,160.45c-.7-.31-.94-.86-.55-1.41.31-.47.78-.62,1.33-.23q-.94.39-.78,1.64"/>
    <path class="st0" d="M56.44,22.22c.47,1.02.94,2.19,1.56,3.12,1.48,2.42,1.64,5.08,1.56,7.81-.08,4.22,0,8.43.08,12.65,0,5.94.08,11.95.08,17.88,0,8.12.08,16.24.08,24.37s.08,15.38.08,23.12v3.98q-.08,0-.16.08c-.16,0-.23,0-.39-.08-1.17-.62-2.34-1.33-3.51-1.95-.31-.23-.39-.55-.39-.86,0-6.01,0-12.03-.08-18.04v-17.26c0-7.58-.08-15.07-.08-22.65V20.89c0-.16-.08-.31.16-.55.39.55.7,1.17,1.02,1.87"/>
    <path class="st0" d="M55.11,112.34h0V20.66c0-.23.08-.47.31-.62l.39-.31,1.17,2.5c.16.31.31.7.47,1.02.31.7.62,1.41,1.02,2.11,1.41,2.19,1.64,4.53,1.64,6.79v31.86l.08,24.37c0,7.73.08,15.38.08,23.12v4.3l-.47.08c-.31.08-.55-.08-.7-.16l-3.51-1.87c-.39-.7-.47-1.09-.47-1.48M55.74,21.52v90.67l-.39.08h.39c0,.31.08.47.16.55l3.44,1.87v-3.51c0-7.73-.08-15.38-.08-23.12l-.08-24.37v-21.94c0-2.81-.08-5.78,0-8.67v-1.17c0-2.11-.23-4.3-1.56-6.4-.47-.7-.78-1.48-1.09-2.19-.16-.31-.31-.7-.47-1.02l-.31-.78Z"/>
    <path class="st0" d="M49.18,114.76c0-1.33.08-2.66.08-3.98.08-8.12.08-16.24.16-24.37,0-5.94.08-11.79.16-17.73,0-4.92.08-9.84.08-14.84.08-7.11.08-14.14.16-21.24,0-1.17.08-2.42,0-3.59,0-.47.08-.94.31-1.41,1.33-2.42,2.66-4.76,3.98-7.18.08-.08.16-.23.16-.23.08,2.26.23,4.61.23,6.87.08,2.42,0,4.84,0,7.26,0,7.5-.08,15.07-.08,22.57v14.06c0,6.72,0,13.43-.08,20.07,0,5.15-.08,10.31-.08,15.38v5.78c0,.39-.16.7-.47.94-1.25,1.17-2.81,1.72-4.53,1.95-.08.08,0-.16-.08-.31"/>
    <path class="st0" d="M48.79,114.84v-1.33c0-.94.08-1.8.08-2.73,0-3.75,0-7.5.08-11.25,0-4.37.08-8.75.08-13.04,0-3.44.08-6.79.08-10.23,0-2.5.08-5,.08-7.5s0-5.15.08-7.73c0-2.34,0-4.76.08-7.11v-3.28c.08-6.01.08-11.95.16-17.96v-3.59h0c0-.62.08-1.17.39-1.56.78-1.41,1.56-2.89,2.42-4.3l1.56-2.81c.23-.47.47-.39.62-.39l.31.08v.31c0,.7.08,1.41.08,2.11.08,1.56.16,3.2.16,4.84v13.59c0,5.39,0,10.86-.08,16.24v14.06c0,6.72,0,13.43-.08,20.07,0,4.14,0,8.2-.08,12.34v8.9c0,.47-.16.86-.55,1.25-1.25,1.09-2.73,1.8-4.69,2.03h-.16l-.16-.08c-.31-.16-.31-.55-.31-.62l-.16-.31h0ZM50.27,29.33v3.36c-.08,6.01-.08,11.95-.16,17.96v3.28c0,2.34,0,4.76-.08,7.11,0,2.58,0,5.15-.08,7.73,0,2.5,0,5-.08,7.5,0,3.44-.08,6.79-.08,10.23,0,4.37-.08,8.75-.08,13.04,0,3.75,0,7.5-.08,11.32,0,.94,0,1.8-.08,2.73v1.41c1.64-.31,2.97-.86,3.98-1.8.23-.23.31-.39.31-.7v-8.9c0-4.14.08-8.2.08-12.34,0-6.72,0-13.43.08-20.07v-14.06c0-5.39,0-10.86.08-16.24v-13.59c0-1.64-.08-3.2-.16-4.84v-.78l-1.02,1.87c-.78,1.41-1.56,2.89-2.42,4.3-.16.31-.23.7-.23,1.17v.31Z"/>
    <path class="st6" d="M37.62,115.39c0-1.33,1.02-2.5,2.34-2.58,1.25-.08,2.42,1.09,2.5,2.42.08,1.33-1.02,2.58-2.26,2.66-1.33,0-2.5-1.17-2.58-2.5"/>
    <path class="st6" d="M56.68,154.75c-.16,0-.31-.08-.39-.31,0-.23.16-.16.31-.23.47-.16.78-.47.7-1.02,0-.23-.39-.47.08-.62.31-.08.55.16.7.39.08.08.08.23.08.31.08.86-.78,1.56-1.48,1.48"/>
    <path class="st6" d="M54.8,152.8c-.16.08-.39,0-.55-.16-.39-.31-.39-.7-.31-1.09.08-.47.7-.86,1.25-.94.23,0,.47,0,.55.23.08.31-.23.23-.39.31-.47.23-.78.55-.55,1.09.08.23.16.47,0,.55"/>
    <path class="st6" d="M55.97,149.44c.23.08.55.08.55.39,0,.39-.39.23-.62.23-.94-.08-1.8.08-2.34.86-.62.78-.62,1.64-.31,2.58.08.31.31.62.23,1.09-1.02-.62-1.25-1.56-1.25-2.5.08-1.09.47-1.95,1.56-2.5.7-.16,1.48-.23,2.19-.16"/>
    <path class="st4" d="M60.27,143.74c-.16.62-.31,1.25-.94,1.64-.7.39-1.33.94-2.03,1.41.47.31.86,0,1.17-.08.39-.16.47,0,.39.31-.16.62-.7.94-1.25.62-.7-.31-1.48-.39-2.26-.55-.47-.08-.62-.23-.16-.55,1.48-1.17,3.2-2.11,4.76-3.2.39-.16.39.23.31.39"/>
    <path class="st3" d="M60.27,143.74c-.16.62-.31,1.25-.94,1.64-.7.39-1.33.94-2.03,1.41.47.31.86,0,1.17-.08.39-.16.47,0,.39.31-.16.62-.7.94-1.25.62-.7-.31-1.48-.39-2.26-.55-.47-.08-.62-.23-.16-.55,1.48-1.17,3.2-2.11,4.76-3.2.39-.16.39.23.31.39Z"/>
    <path class="st4" d="M54.65,146.94c0-.31.23-.47.39-.62.94-.78,1.95-1.41,2.97-2.03.62-.39,1.25-.78,1.87-1.17.31-.23.55-.16.62-.08.23.16.39.47.23.86l-.08.16c-.16.62-.31,1.33-1.02,1.72-.23.16-.55.31-.78.55.08,0,.23,0,.31.08s.31.23.23.78c-.08.39-.31.7-.7.94-.31.16-.78.16-1.17,0-.55-.23-1.17-.31-1.72-.47l-.39-.08c-.55-.08-.78-.31-.78-.62M59.88,143.97c-.55.31-1.02.62-1.48.94-.94.55-1.87,1.17-2.73,1.87l.31.08c.39.08.78.16,1.17.23l-.39-.23.47-.31c.23-.16.47-.31.62-.47.47-.31.94-.7,1.41-.94.31-.31.47-.7.62-1.17M58.47,147.17c-.16.08-.39.16-.62.16.16.08.31.08.47,0,.08,0,.16-.08.16-.16"/>
    <path class="st3" d="M54.65,146.94c0-.31.23-.47.39-.62.94-.78,1.95-1.41,2.97-2.03.62-.39,1.25-.78,1.87-1.17.31-.23.55-.16.62-.08.23.16.39.47.23.86l-.08.16c-.16.62-.31,1.33-1.02,1.72-.23.16-.55.31-.78.55.08,0,.23,0,.31.08s.31.23.23.78c-.08.39-.31.7-.7.94-.31.16-.78.16-1.17,0-.55-.23-1.17-.31-1.72-.47l-.39-.08c-.55-.08-.78-.31-.78-.62ZM59.88,143.97c-.55.31-1.02.62-1.48.94-.94.55-1.87,1.17-2.73,1.87l.31.08c.39.08.78.16,1.17.23l-.39-.23.47-.31c.23-.16.47-.31.62-.47.47-.31.94-.7,1.41-.94.31-.31.47-.7.62-1.17ZM58.47,147.17c-.16.08-.39.16-.62.16.16.08.31.08.47,0,.08,0,.16-.08.16-.16Z"/>
    <path class="st4" d="M59.1,141.71c.47-.23.86-.55,1.33-.78l.08-.08q0,.08-.08.16h0c-.08.7-.7,1.02-1.17,1.41-1.48,1.41-3.36,2.42-4.92,3.83-.7.62-1.33,1.33-2.03,1.95-.55.55-.7.47-1.09-.16-.7-1.09-.47-1.8.39-2.73,1.87-2.11,4.06-3.9,6.4-5.47.86-.55,1.72-1.25,2.5-1.95.23-.23.47-.47.94-.62-.7,2.11-2.42,3.28-3.75,4.76q.62.23,1.41-.31"/>
    <path class="st3" d="M59.1,141.71c.47-.23.86-.55,1.33-.78l.08-.08q0,.08-.08.16h0c-.08.7-.7,1.02-1.17,1.41-1.48,1.41-3.36,2.42-4.92,3.83-.7.62-1.33,1.33-2.03,1.95-.55.55-.7.47-1.09-.16-.7-1.09-.47-1.8.39-2.73,1.87-2.11,4.06-3.9,6.4-5.47.86-.55,1.72-1.25,2.5-1.95.23-.23.47-.47.94-.62-.7,2.11-2.42,3.28-3.75,4.76q.62.23,1.41-.31Z"/>
    <path class="st4" d="M50.43,146.86c0-.78.47-1.41.86-1.87,1.8-2.03,3.9-3.83,6.48-5.54.55-.39,1.17-.86,1.64-1.25.31-.23.55-.47.86-.62q.08-.08.16-.16c.23-.16.47-.39.94-.55l.7-.16-.23.62c-.55,1.64-1.72,2.73-2.81,3.83l-.08.08,2.19-1.33-.31,1.09c-.08.62-.55,1.02-.94,1.33-.08.08-.23.16-.31.23-.86.78-1.72,1.41-2.66,2.03-.78.55-1.56,1.09-2.26,1.72-.55.47-1.02.94-1.48,1.48l-.47.47c-.31.31-.55.55-.94.47-.39,0-.62-.39-.86-.7-.31-.23-.47-.7-.47-1.17M60.5,138.43c-.16.16-.31.23-.55.39-.55.47-1.09.86-1.72,1.33-2.5,1.72-4.61,3.44-6.33,5.39-.86.94-.86,1.48-.31,2.26.08.08.16.23.23.31.08,0,.16-.08.31-.23l.47-.47c.47-.47,1.02-1.02,1.56-1.48.78-.7,1.56-1.25,2.34-1.8s1.64-1.17,2.34-1.8c-.47.23-.62.23-1.17.16l-.62-.16.39-.47c.31-.39.7-.78,1.09-1.09.7-.78,1.41-1.48,1.95-2.34"/>
    <path class="st3" d="M50.43,146.86c0-.78.47-1.41.86-1.87,1.8-2.03,3.9-3.83,6.48-5.54.55-.39,1.17-.86,1.64-1.25.31-.23.55-.47.86-.62q.08-.08.16-.16c.23-.16.47-.39.94-.55l.7-.16-.23.62c-.55,1.64-1.72,2.73-2.81,3.83l-.08.08,2.19-1.33-.31,1.09c-.08.62-.55,1.02-.94,1.33-.08.08-.23.16-.31.23-.86.78-1.72,1.41-2.66,2.03-.78.55-1.56,1.09-2.26,1.72-.55.47-1.02.94-1.48,1.48l-.47.47c-.31.31-.55.55-.94.47-.39,0-.62-.39-.86-.7-.31-.23-.47-.7-.47-1.17ZM60.5,138.43c-.16.16-.31.23-.55.39-.55.47-1.09.86-1.72,1.33-2.5,1.72-4.61,3.44-6.33,5.39-.86.94-.86,1.48-.31,2.26.08.08.16.23.23.31.08,0,.16-.08.31-.23l.47-.47c.47-.47,1.02-1.02,1.56-1.48.78-.7,1.56-1.25,2.34-1.8s1.64-1.17,2.34-1.8c-.47.23-.62.23-1.17.16l-.62-.16.39-.47c.31-.39.7-.78,1.09-1.09.7-.78,1.41-1.48,1.95-2.34Z"/>
    <path class="st4" d="M60.89,133.43c-.7,1.87-2.34,3.05-3.67,4.53,1.48-.47,2.5-1.56,3.75-2.34q.08.08.16.16c-.39,1.02-1.41,1.56-2.19,2.19-2.19,1.72-4.61,3.05-6.56,5.08-.62.7-1.33,1.33-1.87,2.11-.39.55-.55.39-.86-.16-.86-1.33-.55-2.26.47-3.36,1.72-1.72,3.67-3.2,5.78-4.53,1.64-1.02,3.12-2.19,4.61-3.44.08-.16.16-.23.39-.23"/>
    <path class="st3" d="M60.89,133.43c-.7,1.87-2.34,3.05-3.67,4.53,1.48-.47,2.5-1.56,3.75-2.34q.08.08.16.16c-.39,1.02-1.41,1.56-2.19,2.19-2.19,1.72-4.61,3.05-6.56,5.08-.62.7-1.33,1.33-1.87,2.11-.39.55-.55.39-.86-.16-.86-1.33-.55-2.26.47-3.36,1.72-1.72,3.67-3.2,5.78-4.53,1.64-1.02,3.12-2.19,4.61-3.44.08-.16.16-.23.39-.23Z"/>
    <path class="st4" d="M48.79,143.5c0-.7.31-1.41,1.09-2.19,1.64-1.64,3.51-3.12,5.86-4.61,1.72-1.09,3.2-2.19,4.53-3.36.16-.16.39-.31.78-.23l.39.08-.16.39c-.39,1.09-1.09,1.87-1.8,2.66.08,0,.08-.08.16-.08.39-.31.78-.62,1.25-.86l.23-.16.55.47-.08.23c-.39.94-1.09,1.41-1.8,1.95-.16.16-.39.23-.55.39-.78.62-1.64,1.17-2.42,1.8-1.41,1.02-2.89,2.03-4.14,3.28-.78.78-1.33,1.41-1.87,2.03-.23.23-.47.47-.78.47-.39,0-.55-.31-.78-.62-.31-.55-.47-1.09-.47-1.64M59.8,134.68c-1.17.94-2.34,1.8-3.75,2.66-2.26,1.48-4.14,2.97-5.7,4.53-1.02,1.02-1.09,1.8-.39,2.89,0,.08.08.16.16.23l.08-.08c.55-.62,1.09-1.33,1.87-2.11,1.25-1.33,2.81-2.34,4.22-3.36.62-.39,1.17-.86,1.8-1.25-.23.08-.47.23-.78.31l-1.25.39.86-1.02c.39-.47.78-.86,1.17-1.25.7-.78,1.25-1.33,1.72-1.95"/>
    <path class="st3" d="M48.79,143.5c0-.7.31-1.41,1.09-2.19,1.64-1.64,3.51-3.12,5.86-4.61,1.72-1.09,3.2-2.19,4.53-3.36.16-.16.39-.31.78-.23l.39.08-.16.39c-.39,1.09-1.09,1.87-1.8,2.66.08,0,.08-.08.16-.08.39-.31.78-.62,1.25-.86l.23-.16.55.47-.08.23c-.39.94-1.09,1.41-1.8,1.95-.16.16-.39.23-.55.39-.78.62-1.64,1.17-2.42,1.8-1.41,1.02-2.89,2.03-4.14,3.28-.78.78-1.33,1.41-1.87,2.03-.23.23-.47.47-.78.47-.39,0-.55-.31-.78-.62-.31-.55-.47-1.09-.47-1.64ZM59.8,134.68c-1.17.94-2.34,1.8-3.75,2.66-2.26,1.48-4.14,2.97-5.7,4.53-1.02,1.02-1.09,1.8-.39,2.89,0,.08.08.16.16.23l.08-.08c.55-.62,1.09-1.33,1.87-2.11,1.25-1.33,2.81-2.34,4.22-3.36.62-.39,1.17-.86,1.8-1.25-.23.08-.47.23-.78.31l-1.25.39.86-1.02c.39-.47.78-.86,1.17-1.25.7-.78,1.25-1.33,1.72-1.95Z"/>
    <path class="st4" d="M56.99,133.51c1.25-.7,2.34-1.64,3.44-2.5.16-.08.31-.39.47-.23.23.16.16.47.08.7-.08.16-.23.31-.39.47-1.33,1.17-2.58,2.42-4.14,3.44-2.58,1.64-5.15,3.44-7.34,5.62-.16.16-.31.55-.7.47-.31-.08-.23-.47-.31-.78-.16-.62-.16-1.25-.31-1.87-.08-.55.08-1.02.47-1.48,2.11-2.42,4.92-3.98,7.65-5.7,1.56-1.02,3.12-2.11,4.37-3.51.08-.08.16-.08.39-.16-1.09,2.5-3.2,3.83-4.92,5.62.62.31.94.08,1.25-.08"/>
    <path class="st3" d="M56.99,133.51c1.25-.7,2.34-1.64,3.44-2.5.16-.08.31-.39.47-.23.23.16.16.47.08.7-.08.16-.23.31-.39.47-1.33,1.17-2.58,2.42-4.14,3.44-2.58,1.64-5.15,3.44-7.34,5.62-.16.16-.31.55-.7.47-.31-.08-.23-.47-.31-.78-.16-.62-.16-1.25-.31-1.87-.08-.55.08-1.02.47-1.48,2.11-2.42,4.92-3.98,7.65-5.7,1.56-1.02,3.12-2.11,4.37-3.51.08-.08.16-.08.39-.16-1.09,2.5-3.2,3.83-4.92,5.62.62.31.94.08,1.25-.08Z"/>
    <path class="st4" d="M47.54,138.5c0-.62.31-1.09.62-1.41,1.87-2.19,4.3-3.67,6.56-5.08.39-.23.78-.47,1.17-.7,1.8-1.17,3.2-2.26,4.3-3.44.08-.08.23-.16.31-.16s.16,0,.23-.08l.86-.31-.39.78c-.78,1.87-2.19,3.12-3.51,4.3-.23.23-.47.39-.62.62.78-.47,1.48-1.02,2.19-1.56.31-.23.62-.55,1.02-.78l.08-.08c.31-.31.62-.39.94-.16.16.16.31.39.31.62s-.08.39-.16.55c-.16.23-.31.47-.47.55-.23.23-.47.39-.7.62-1.09,1.02-2.19,2.03-3.51,2.81-3.12,1.95-5.39,3.67-7.26,5.54,0,0-.08.08-.08.16-.16.16-.47.62-1.02.39-.47-.16-.47-.62-.55-.86v-.16c-.08-.39-.16-.7-.16-1.09,0-.23-.08-.47-.16-.78v-.31M59.33,129.68c-.86.7-1.87,1.48-3.05,2.19-.39.23-.78.47-1.17.7-2.26,1.41-4.61,2.89-6.4,4.92-.39.39-.47.7-.39,1.17.08.23.08.55.16.78.08.39.08.7.16,1.09v.47s.08-.08.08-.16c.08-.08.08-.16.16-.16,1.95-1.95,4.22-3.67,7.34-5.7,1.25-.78,2.34-1.8,3.36-2.73.23-.23.47-.39.7-.62.08-.08.23-.23.23-.31-.31.23-.62.47-.94.7-.78.62-1.64,1.25-2.5,1.8-.39.23-.86.47-1.48.08l-.39-.23.31-.31c.47-.55,1.02-1.02,1.56-1.48.86-.7,1.64-1.41,2.26-2.19"/>
    <path class="st3" d="M47.54,138.5c0-.62.31-1.09.62-1.41,1.87-2.19,4.3-3.67,6.56-5.08.39-.23.78-.47,1.17-.7,1.8-1.17,3.2-2.26,4.3-3.44.08-.08.23-.16.31-.16s.16,0,.23-.08l.86-.31-.39.78c-.78,1.87-2.19,3.12-3.51,4.3-.23.23-.47.39-.62.62.78-.47,1.48-1.02,2.19-1.56.31-.23.62-.55,1.02-.78l.08-.08c.31-.31.62-.39.94-.16.16.16.31.39.31.62s-.08.39-.16.55c-.16.23-.31.47-.47.55-.23.23-.47.39-.7.62-1.09,1.02-2.19,2.03-3.51,2.81-3.12,1.95-5.39,3.67-7.26,5.54,0,0-.08.08-.08.16-.16.16-.47.62-1.02.39-.47-.16-.47-.62-.55-.86v-.16c-.08-.39-.16-.7-.16-1.09,0-.23-.08-.47-.16-.78v-.31ZM59.33,129.68c-.86.7-1.87,1.48-3.05,2.19-.39.23-.78.47-1.17.7-2.26,1.41-4.61,2.89-6.4,4.92-.39.39-.47.7-.39,1.17.08.23.08.55.16.78.08.39.08.7.16,1.09v.47s.08-.08.08-.16c.08-.08.08-.16.16-.16,1.95-1.95,4.22-3.67,7.34-5.7,1.25-.78,2.34-1.8,3.36-2.73.23-.23.47-.39.7-.62.08-.08.23-.23.23-.31-.31.23-.62.47-.94.7-.78.62-1.64,1.25-2.5,1.8-.39.23-.86.47-1.48.08l-.39-.23.31-.31c.47-.55,1.02-1.02,1.56-1.48.86-.7,1.64-1.41,2.26-2.19Z"/>
    <path class="st4" d="M59.8,124.29c-.16.47-.47.86-.78,1.17-1.02.94-2.03,1.87-2.97,2.81-.23.16-.47.31-.55.7.47.23.86,0,1.17-.23,1.09-.62,1.95-1.41,2.89-2.26.16-.16.31-.39.55-.39l.08-.08q.08.08,0,.16l-.08-.08.08.08c-.23,1.33-1.41,1.8-2.26,2.58-3.12,2.58-6.72,4.69-9.76,7.34-.39.31-.55.23-.55-.23,0-.7-.08-1.48-.08-2.19,0-.62.31-1.02.78-1.41,2.03-1.72,4.3-3.28,6.48-4.76,1.25-.86,2.42-1.8,3.67-2.73.31-.23.7-.55,1.02-.7.23-.23.47-.16.31.23"/>
    <path class="st3" d="M59.8,124.29c-.16.47-.47.86-.78,1.17-1.02.94-2.03,1.87-2.97,2.81-.23.16-.47.31-.55.7.47.23.86,0,1.17-.23,1.09-.62,1.95-1.41,2.89-2.26.16-.16.31-.39.55-.39l.08-.08q.08.08,0,.16l-.08-.08.08.08c-.23,1.33-1.41,1.8-2.26,2.58-3.12,2.58-6.72,4.69-9.76,7.34-.39.31-.55.23-.55-.23,0-.7-.08-1.48-.08-2.19,0-.62.31-1.02.78-1.41,2.03-1.72,4.3-3.28,6.48-4.76,1.25-.86,2.42-1.8,3.67-2.73.31-.23.7-.55,1.02-.7.23-.23.47-.16.31.23Z"/>
    <path class="st4" d="M47.15,133.82v-.16c0-.86.55-1.41.94-1.72,2.03-1.72,4.14-3.2,6.48-4.84.86-.62,1.72-1.25,2.5-1.87.39-.31.78-.55,1.09-.86l.16-.16c.31-.23.62-.47.94-.62.31-.16.55-.08.7,0,.23.16.31.47.23.78-.16.55-.47.94-.86,1.33-.78.78-1.64,1.48-2.42,2.26l-.39.39h0c.86-.47,1.64-1.17,2.42-1.87l.39-.31.08-.08c.08-.16.23-.31.47-.31.23-.23.39-.16.55-.08.23.16.23.31.23.39s0,.23-.08.31c-.23,1.09-1.09,1.72-1.8,2.19-.23.16-.39.31-.55.47-1.48,1.17-3.05,2.34-4.53,3.36-1.8,1.25-3.59,2.5-5.23,3.98-.16.08-.47.39-.86.23s-.39-.55-.39-.78v-.62c-.08-.47-.08-.94-.08-1.41M59.25,124.53c-.16.08-.31.23-.47.31l-.16.16c-.39.31-.78.55-1.09.86-.78.62-1.64,1.25-2.5,1.87-2.34,1.64-4.45,3.12-6.4,4.76-.47.39-.62.7-.62,1.17v.16c0,.47,0,.94.08,1.41v.47c1.64-1.41,3.44-2.73,5.23-3.98,1.25-.94,2.58-1.8,3.83-2.81-.08,0-.08.08-.16.08l-.08.08c-.39.23-.86.47-1.48.23l-.31-.16.08-.31c.08-.39.31-.62.55-.78.08,0,.08-.08.16-.08l.55-.55c.78-.78,1.64-1.48,2.42-2.26.08-.16.31-.39.39-.62"/>
    <path class="st3" d="M47.15,133.82v-.16c0-.86.55-1.41.94-1.72,2.03-1.72,4.14-3.2,6.48-4.84.86-.62,1.72-1.25,2.5-1.87.39-.31.78-.55,1.09-.86l.16-.16c.31-.23.62-.47.94-.62.31-.16.55-.08.7,0,.23.16.31.47.23.78-.16.55-.47.94-.86,1.33-.78.78-1.64,1.48-2.42,2.26l-.39.39h0c.86-.47,1.64-1.17,2.42-1.87l.39-.31.08-.08c.08-.16.23-.31.47-.31.23-.23.39-.16.55-.08.23.16.23.31.23.39s0,.23-.08.31c-.23,1.09-1.09,1.72-1.8,2.19-.23.16-.39.31-.55.47-1.48,1.17-3.05,2.34-4.53,3.36-1.8,1.25-3.59,2.5-5.23,3.98-.16.08-.47.39-.86.23s-.39-.55-.39-.78v-.62c-.08-.47-.08-.94-.08-1.41ZM59.25,124.53c-.16.08-.31.23-.47.31l-.16.16c-.39.31-.78.55-1.09.86-.78.62-1.64,1.25-2.5,1.87-2.34,1.64-4.45,3.12-6.4,4.76-.47.39-.62.7-.62,1.17v.16c0,.47,0,.94.08,1.41v.47c1.64-1.41,3.44-2.73,5.23-3.98,1.25-.94,2.58-1.8,3.83-2.81-.08,0-.08.08-.16.08l-.08.08c-.39.23-.86.47-1.48.23l-.31-.16.08-.31c.08-.39.31-.62.55-.78.08,0,.08-.08.16-.08l.55-.55c.78-.78,1.64-1.48,2.42-2.26.08-.16.31-.39.39-.62Z"/>
    <path class="st4" d="M56.36,121.64c.39.23.08.7-.08,1.02-.55,1.02-1.48,1.72-2.42,2.42-.16.08-.23.23-.39.31.31.31.55.08.78-.08,1.33-.86,2.73-1.64,3.75-2.81.16-.16.23-.39.47-.23.31.16.16.39.08.62-.16.39-.47.62-.78.86-2.89,2.11-5.7,4.3-8.59,6.4-.47.39-.78.86-1.41,1.09l-.08.08s0-.08.08-.08h.08-.08v-.16c-.08-1.95.31-3.59,2.11-4.76,1.09-.7,2.11-1.72,3.28-2.34.94-.47,1.64-1.25,2.42-1.87.23-.23.47-.62.78-.47"/>
    <path class="st3" d="M56.36,121.64c.39.23.08.7-.08,1.02-.55,1.02-1.48,1.72-2.42,2.42-.16.08-.23.23-.39.31.31.31.55.08.78-.08,1.33-.86,2.73-1.64,3.75-2.81.16-.16.23-.39.47-.23.31.16.16.39.08.62-.16.39-.47.62-.78.86-2.89,2.11-5.7,4.3-8.59,6.4-.47.39-.78.86-1.41,1.09l-.08.08s0-.08.08-.08h.08-.08v-.16c-.08-1.95.31-3.59,2.11-4.76,1.09-.7,2.11-1.72,3.28-2.34.94-.47,1.64-1.25,2.42-1.87.23-.23.47-.62.78-.47Z"/>
    <path class="st4" d="M46.68,132.41l.7-1.33v-.47c0-2.11.7-3.59,2.34-4.69.47-.31.86-.62,1.25-.94.62-.47,1.33-1.02,2.03-1.41.78-.39,1.41-.94,2.03-1.56l.31-.31s.08-.08.08-.16c.16-.16.62-.7,1.17-.31.23.16.31.39.39.62,0,.31-.16.55-.31.78-.23.39-.55.78-.86,1.09.7-.47,1.33-1.02,1.87-1.64.16-.16.47-.55.94-.39.23.16.39.31.39.62,0,.16-.08.31-.08.39-.16.55-.55.86-.86,1.09l-1.8,1.33c-2.26,1.72-4.61,3.44-6.87,5.08-.16.16-.31.23-.47.39-.31.31-.55.55-1.02.78h0l-1.25,1.02ZM56.13,122.03q-.08.08-.16.16c-.08.08-.08.16-.16.16l-.31.31c-.7.62-1.33,1.25-2.19,1.72-.7.39-1.33.86-1.95,1.33-.39.31-.86.7-1.33.94-1.41.94-2.03,2.11-1.95,3.98.08-.08.23-.16.31-.31.16-.16.31-.31.55-.47,1.95-1.48,3.9-2.89,5.86-4.37h-.08l-.39.23c-.16.16-.7.47-1.17-.08l-.31-.31.47-.39c.08-.08.16-.16.23-.23l.16-.08c.86-.7,1.64-1.33,2.19-2.19.16-.16.23-.31.23-.39h0"/>
    <path class="st3" d="M46.68,132.41l.7-1.33v-.47c0-2.11.7-3.59,2.34-4.69.47-.31.86-.62,1.25-.94.62-.47,1.33-1.02,2.03-1.41.78-.39,1.41-.94,2.03-1.56l.31-.31s.08-.08.08-.16c.16-.16.62-.7,1.17-.31.23.16.31.39.39.62,0,.31-.16.55-.31.78-.23.39-.55.78-.86,1.09.7-.47,1.33-1.02,1.87-1.64.16-.16.47-.55.94-.39.23.16.39.31.39.62,0,.16-.08.31-.08.39-.16.55-.55.86-.86,1.09l-1.8,1.33c-2.26,1.72-4.61,3.44-6.87,5.08-.16.16-.31.23-.47.39-.31.31-.55.55-1.02.78h0l-1.25,1.02ZM56.13,122.03q-.08.08-.16.16c-.08.08-.08.16-.16.16l-.31.31c-.7.62-1.33,1.25-2.19,1.72-.7.39-1.33.86-1.95,1.33-.39.31-.86.7-1.33.94-1.41.94-2.03,2.11-1.95,3.98.08-.08.23-.16.31-.31.16-.16.31-.31.55-.47,1.95-1.48,3.9-2.89,5.86-4.37h-.08l-.39.23c-.16.16-.7.47-1.17-.08l-.31-.31.47-.39c.08-.08.16-.16.23-.23l.16-.08c.86-.7,1.64-1.33,2.19-2.19.16-.16.23-.31.23-.39h0Z"/>
    <path class="st4" d="M54.65,121.71c-1.95,1.33-3.9,2.66-5.86,3.98q-.08-.08-.16-.16c.31-.94.62-1.95.86-2.89.08-.31.39-.39.62-.47,1.41-.31,2.73-.7,3.98-1.41.39-.23.78-.23,1.02.16.23.39-.23.62-.47.78"/>
    <path class="st3" d="M54.65,121.71c-1.95,1.33-3.9,2.66-5.86,3.98q-.08-.08-.16-.16c.31-.94.62-1.95.86-2.89.08-.31.39-.39.62-.47,1.41-.31,2.73-.7,3.98-1.41.39-.23.78-.23,1.02.16.23.39-.23.62-.47.78Z"/>
    <path class="st4" d="M48.24,125.78v-.31l.23-.78c.23-.7.39-1.41.62-2.11.16-.55.62-.62.94-.7,1.25-.31,2.66-.62,3.83-1.33.62-.31,1.17-.23,1.56.23.08.16.16.31.16.47,0,.39-.39.62-.55.78l-.08.08c-1.48,1.02-2.97,2.03-4.53,3.05l-1.64,1.09-.55-.47ZM54.8,121.17c-.16-.16-.39-.08-.55,0-1.33.78-2.81,1.17-4.06,1.41q-.31.08-.39.16c-.23.7-.47,1.41-.62,2.11v.08l.7-.47c1.48-1.02,2.97-2.03,4.53-3.05.08,0,.08-.08.16-.08.08-.08.23-.16.23-.16"/>
    <path class="st3" d="M48.24,125.78v-.31l.23-.78c.23-.7.39-1.41.62-2.11.16-.55.62-.62.94-.7,1.25-.31,2.66-.62,3.83-1.33.62-.31,1.17-.23,1.56.23.08.16.16.31.16.47,0,.39-.39.62-.55.78l-.08.08c-1.48,1.02-2.97,2.03-4.53,3.05l-1.64,1.09-.55-.47ZM54.8,121.17c-.16-.16-.39-.08-.55,0-1.33.78-2.81,1.17-4.06,1.41q-.31.08-.39.16c-.23.7-.47,1.41-.62,2.11v.08l.7-.47c1.48-1.02,2.97-2.03,4.53-3.05.08,0,.08-.08.16-.08.08-.08.23-.16.23-.16Z"/>
    <path class="st6" d="M68.08,117.81c-1.8,2.03-4.14,3.05-6.87,3.28-2.03,0-3.98-.31-5.78-1.17-.62-.23-1.02-.23-1.64,0-2.5,1.02-5.08,1.56-7.81.94-1.64-.39-3.12-1.17-4.22-2.5-.16-.16-.62-.39-.23-.7.31-.23.55-.7,1.17-.39,1.33.78,2.89,1.25,4.45,1.56,2.66.47,5.15,0,7.5-1.33.47-.31.86-.31,1.33-.08,3.05,1.41,6.25,1.95,9.53.78.7-.23,1.41-.55,2.11-1.02.23-.16.47-.31.7,0,.16.31-.08.47-.23.62"/>
    <path class="st6" d="M67.22,114.84c-.08-1.41.94-2.58,2.26-2.58,1.33-.08,2.5,1.02,2.58,2.42.08,1.33-1.02,2.5-2.34,2.58-1.33,0-2.42-1.02-2.5-2.42"/>
    <path class="st6" d="M66.44,115.94c.23-.08.39-.39.62,0s0,.47-.31.62c-1.41.86-2.97,1.33-4.61,1.41-2.26.08-4.45-.47-6.4-1.56-.39-.23-.7-.23-1.09,0-3.51,2.19-7.11,2.11-10.78.47-.31-.16-.62-.23-.86-.39-.16-.08-.62.39-.39-.23.16-.39.23-.47.62-.31,1.09.47,2.19.7,3.28.86,2.89.31,5.54-.55,7.81-2.34.47-.39.78-.39,1.33-.08,2.26,1.48,4.76,2.42,7.5,2.34,1.25,0,2.26-.23,3.28-.78"/>
    <path class="st6" d="M69.33,115.39c-.47-.86-.16-1.56.86-1.72.23,0,.47.08.7-.23-.86-.62-2.03-.39-2.58.39-.47.7-.31,1.48.47,2.03.23.16.47.39.7.16.23-.16,0-.39-.16-.62"/>
    <path class="st6" d="M55.66,147.88c2.5,0,4.61,1.87,4.61,4.3s-1.95,4.45-4.53,4.45-4.61-1.87-4.61-4.3,1.95-4.45,4.53-4.45"/>
    <path class="st6" d="M55.89,156.86c1.41,0,2.58,1.09,2.66,2.5,0,1.41-1.09,2.5-2.58,2.58-1.41,0-2.58-1.09-2.66-2.5,0-1.41,1.17-2.5,2.58-2.58"/>
    <path class="st1" d="M60.81,141q-.08-.08,0,0-.08-.08,0,0ZM39.89,115.78c-.39-.78-.08-1.48.78-1.64.23-.08.55.08.78-.16-.94-.62-2.03-.47-2.58.39-.47.62-.23,1.41.39,1.95.23.16.55.39.78.31.23-.31-.08-.62-.16-.86M61.52,115.47s3.05.62,4.92-.78c.08-.86,1.09-4.69,4.53-3.44,2.5,1.17,3.28,4.14.62,6.4-1.56.47-2.5.23-2.5.23,0,0-1.72,3.9-8.67,3.9,2.58,5.62,3.12,14.53,1.8,19.68-1.33,5.15-2.89,7.18-2.89,7.18,0,0,2.34,1.95.94,5.78,0,0-.7,1.33-2.58,2.26v.16s2.34,2.03.55,4.37c-1.8,2.34-5.23.47-5.39-1.48-.16-1.95,1.17-2.73,1.33-2.73.08,0,0-.39,0-.39,0,0-3.12-.7-3.36-3.83-.16-3.05.86-3.2.86-3.2,0,0-4.45-4.3-5-14.92.08-9.37,1.8-12.73,1.8-12.73,0,0-4.76.08-7.58-3.36-3.51,0-4.61-2.73-3.9-4.61.7-1.95,3.05-2.89,4.3-2.26,1.25.62,2.19,1.56,2.42,3.12,2.11.78,4.22,1.02,5.08.78-.08-7.58.31-88.25.31-88.25l5.86-10.7,5.62,10.7.94,88.09ZM56.05,158.81c-.55-.39-1.02-.23-1.33.23-.39.55-.16,1.09.55,1.41q-.16-1.25.78-1.64M55.82,20.19c-.23.16-.16.39-.16.55v33.5c0,7.58,0,15.07.08,22.65v17.26c0,6.01,0,12.03.08,18.04,0,.39.08.7.39.86,1.17.62,2.34,1.33,3.51,1.95.08.16.23.16.39.08q.08,0,.16-.08v-3.98c0-7.73-.08-15.38-.08-23.12,0-8.12-.08-16.24-.08-24.37,0-5.94-.08-11.95-.08-17.88,0-4.22-.08-8.43-.08-12.65,0-2.73-.08-5.39-1.56-7.81-.62-1.02-1.02-2.11-1.56-3.12-.39-.55-.7-1.17-1.02-1.87M49.65,115.31c1.64-.23,3.2-.86,4.53-1.95.31-.23.47-.55.47-.94v-5.78c0-5.15.08-10.31.08-15.38,0-6.72,0-13.43.08-20.07v-14.06c0-7.5.08-15.07.08-22.57,0-2.42.08-4.84,0-7.26-.08-2.34-.16-4.61-.23-6.87,0,0-.08.08-.16.23-1.33,2.42-2.66,4.76-3.98,7.18-.23.47-.31.94-.31,1.41v3.59c-.16,6.87-.16,13.98-.23,21.01,0,4.92-.08,9.84-.08,14.84-.08,5.94-.08,11.79-.16,17.73-.08,8.12-.08,16.24-.16,24.37,0,1.33-.08,2.66-.08,3.98.08.16,0,.39.16.55M40.51,117.81c1.25-.08,2.34-1.25,2.26-2.66-.08-1.33-1.25-2.5-2.5-2.42-1.33.08-2.34,1.25-2.34,2.58.08,1.41,1.25,2.58,2.58,2.5M58.47,153.34c0-.08,0-.23-.08-.31-.16-.23-.39-.47-.7-.39-.47.08-.08.39-.08.62.08.55-.23.86-.7,1.02-.16.08-.31,0-.31.23,0,.16.16.23.39.31.7,0,1.56-.7,1.48-1.48M55.11,152.33c-.23-.55.16-.86.55-1.09.16-.08.47,0,.39-.31-.08-.23-.31-.23-.55-.23-.55.08-1.09.47-1.25.94-.08.39-.08.78.31,1.09.16.16.39.23.55.16.16-.16.08-.39,0-.55M54.1,149.75c-1.09.47-1.48,1.41-1.56,2.5,0,1.02.23,1.87,1.25,2.5.08-.47-.08-.78-.23-1.09-.31-.94-.31-1.8.31-2.58s1.41-.94,2.34-.86c.23,0,.55.16.62-.23,0-.31-.23-.39-.55-.39-.7-.23-1.48-.16-2.19.16M60.27,143.42c-1.56,1.09-3.28,1.95-4.76,3.2-.39.31-.23.47.16.55.78.16,1.56.23,2.26.55.55.23,1.17-.08,1.25-.62.08-.31,0-.47-.39-.31-.31.16-.7.47-1.17.08.7-.55,1.33-1.02,2.03-1.41.62-.39.78-1.02.94-1.64.08-.23.08-.62-.31-.39M58.08,142.1c1.33-1.48,2.97-2.73,3.75-4.76-.47.08-.7.39-.94.62-.86.62-1.64,1.33-2.5,1.95-2.34,1.56-4.53,3.36-6.4,5.47-.78.94-1.09,1.64-.39,2.73.47.62.55.7,1.09.16.7-.62,1.33-1.33,2.03-1.95,1.56-1.41,3.44-2.34,4.92-3.83.47-.39,1.09-.7,1.17-1.41h0q0-.08.08-.16l-.08.08c-.47.23-.86.55-1.33.78q-.86.47-1.41.31M60.81,133.58c-1.48,1.25-2.97,2.34-4.61,3.44-2.03,1.33-3.98,2.81-5.78,4.53-1.02,1.02-1.33,2.03-.47,3.36.31.55.47.62.86.16.55-.7,1.25-1.41,1.87-2.11,1.95-2.03,4.37-3.36,6.56-5.08.78-.62,1.8-1.17,2.19-2.19q-.08-.08-.16-.16c-1.25.78-2.26,1.95-3.75,2.34,1.25-1.48,2.89-2.58,3.67-4.53-.23,0-.31.16-.39.23M56.21,133.58c1.72-1.8,3.83-3.12,4.92-5.62-.23.08-.39.08-.39.16-1.33,1.41-2.81,2.5-4.37,3.51-2.73,1.72-5.54,3.28-7.65,5.7-.39.47-.62.86-.47,1.48.08.62.16,1.25.31,1.87.08.23,0,.62.31.78s.47-.23.7-.47c2.19-2.19,4.69-3.98,7.34-5.62,1.56-.94,2.81-2.19,4.14-3.44.16-.16.31-.31.39-.47.08-.23.16-.55-.08-.7-.16-.16-.31.16-.47.23-1.17.86-2.19,1.8-3.44,2.5-.47.16-.78.39-1.25.08M59.8,123.98c-.39.23-.7.47-1.02.7-1.17.94-2.34,1.87-3.67,2.73-2.19,1.48-4.45,3.05-6.48,4.76-.47.39-.78.86-.78,1.41,0,.7.08,1.48.08,2.19,0,.47.16.55.55.23,3.05-2.73,6.64-4.76,9.76-7.34.86-.7,2.03-1.25,2.26-2.58l-.08-.08.08.08c.08-.08.16-.08,0-.16l-.08.08c-.23,0-.39.23-.55.39-.94.78-1.8,1.64-2.89,2.26-.39.23-.7.47-1.17.23.08-.31.31-.47.55-.7,1.02-.94,2.03-1.87,2.97-2.81.39-.31.62-.7.78-1.17.16-.31-.08-.39-.31-.23M55.89,122.03c-.78.7-1.48,1.41-2.42,1.87-1.17.62-2.19,1.56-3.28,2.34-1.8,1.17-2.26,2.81-2.11,4.76v.16h.08-.08s0,.08-.08.08l.08-.08c.55-.23.94-.78,1.41-1.09,2.89-2.11,5.78-4.22,8.59-6.4.31-.23.7-.47.78-.86.08-.23.16-.47-.08-.62-.23-.08-.39.08-.47.23-1.02,1.25-2.42,2.03-3.75,2.81-.23.16-.47.39-.78.08.16-.08.31-.23.39-.31.86-.7,1.8-1.41,2.42-2.42.16-.31.47-.7.08-1.02-.31-.16-.55.31-.78.47M55.43,120.93c-.23-.31-.62-.31-1.02-.16-1.25.7-2.58,1.09-3.98,1.41-.31.08-.55.16-.62.47-.31.94-.62,1.95-.86,2.89q.08.08.16.16c1.95-1.33,3.9-2.66,5.86-3.98.23-.16.7-.39.47-.78M68.47,117.18c-.23-.23-.47-.16-.7,0-.62.47-1.33.78-2.11,1.02-3.28,1.17-6.4.62-9.53-.78-.47-.23-.86-.23-1.33.08-2.34,1.33-4.84,1.8-7.5,1.33-1.56-.31-3.05-.7-4.45-1.56-.62-.39-.86.16-1.17.39-.39.31.08.55.23.7,1.17,1.25,2.58,2.03,4.22,2.5,2.73.7,5.31.16,7.81-.94.55-.23,1.02-.31,1.64,0,1.8.78,3.75,1.17,5.78,1.17,2.73-.16,5.08-1.17,6.87-3.28.23-.16.55-.31.23-.62M70.03,117.26c1.33-.08,2.42-1.25,2.34-2.58-.08-1.41-1.25-2.5-2.58-2.42-1.33.08-2.34,1.25-2.26,2.58.08,1.41,1.17,2.42,2.5,2.42M63.55,116.72c-2.73.08-5.23-.86-7.5-2.34-.55-.31-.78-.31-1.33.08-2.26,1.8-4.84,2.58-7.81,2.34-1.17-.08-2.26-.39-3.28-.86-.39-.16-.55-.08-.62.31-.23.62.31.16.39.23.23.16.55.31.86.39,3.67,1.56,7.26,1.72,10.78-.47.39-.23.7-.23,1.09,0,2.03,1.09,4.14,1.64,6.4,1.56,1.64-.08,3.2-.55,4.61-1.41.23-.16.47-.31.31-.62-.23-.39-.47-.08-.62,0-1.09.55-2.19.78-3.28.78M69.64,115.39c-.47-.86-.16-1.56.86-1.72.23,0,.47.08.7-.23-.86-.62-2.03-.39-2.58.39-.47.7-.31,1.48.47,2.03.23.16.47.39.7.16s-.08-.39-.16-.62M53.71,159.43c0,1.17,1.02,2.11,2.19,2.11s2.19-1.02,2.19-2.19-1.02-2.11-2.19-2.11c-1.25.08-2.19,1.02-2.19,2.19M51.68,152.33c0,2.26,1.95,3.98,4.22,3.98s4.14-1.87,4.06-4.14c0-2.26-1.95-3.98-4.22-3.98-2.26.08-4.14,1.95-4.06,4.14"/>
  </g>
</svg>