<?xml version="1.0" encoding="UTF-8"?>
<svg id="Layer_1" xmlns="http://www.w3.org/2000/svg" version="1.1" viewBox="0 0 109.6 176.97">
  <!-- Generator: Adobe Illustrator 30.2.1, SVG Export Plug-In . SVG Version: 2.1.1 Build 1)  -->
  <defs>
    <style>
      .st0, .st1 {
        stroke: #fddb00;
      }

      .st0, .st1, .st2, .st3, .st4, .st5, .st6, .st7 {
        fill: none;
      }

      .st0, .st2, .st5, .st6 {
        stroke-linecap: round;
        stroke-linejoin: round;
      }

      .st0, .st6 {
        stroke-width: .78px;
      }

      .st8 {
        fill: #0e80c3;
      }

      .st1, .st2, .st4, .st5 {
        stroke-width: .39px;
      }

      .st1, .st3, .st4, .st7 {
        stroke-miterlimit: 10;
      }

      .st2, .st6, .st7 {
        stroke: #0e80c3;
      }

      .st9 {
        fill: #1d1c1a;
      }

      .st3 {
        stroke: #1d1c1a;
        stroke-width: 1.26px;
      }

      .st10 {
        fill: #d81f26;
      }

      .st11 {
        fill: #fff;
      }

      .st4, .st5 {
        stroke: #d81f26;
      }

      .st12 {
        fill: #fddb00;
      }

      .st7 {
        stroke-width: .47px;
      }
    </style>
  </defs>
  <rect class="st11" x="-1.38" y="-1.12" width="110.69" height="177.1"/>
  <g>
    <path class="st9" d="M8.01,15.03c.16-.08.31-.08.39-.16s.16-.16.23-.23c.08-.08.08-.23.08-.31v-1.56h-3.59v-.78l4.14-6.01h1.56v5.86h.23c.23,0,.39,0,.47-.08.08,0,.16-.08.23-.16.08-.08.16-.23.16-.47h.7l-.08,1.56h-1.72v1.56c0,.16.08.23.08.31.08.08.16.16.23.16.08.08.23.08.39.16v.47h-3.51v-.31ZM6.45,11.91h2.34v-1.56c0-.62,0-1.33.08-2.11h-.08l-2.34,3.51v.16Z"/>
    <path class="st9" d="M99.85,160.29c-.16.08-.31.08-.39.16l-.23.23c-.08.08-.08.23-.08.31v1.56h3.67v.78l-4.14,6.01h-1.56v-5.86h-.23c-.23,0-.39,0-.47.08-.08,0-.16.08-.23.16-.08.08-.16.23-.16.47h-.7l.08-1.56h1.72v-1.56c0-.16-.08-.23-.08-.31-.08-.08-.16-.16-.23-.16-.08-.08-.23-.08-.39-.16v-.47h3.51v.31h-.08ZM101.49,163.49h-2.34v1.56c0,.62,0,1.33-.08,2.11h.08l2.34-3.51v-.16Z"/>
    <polyline class="st3" points="28.86 170.44 2.85 170.44 2.85 4.41 28.31 4.41"/>
    <polyline class="st3" points="78.68 4.41 105.08 4.41 105.08 170.44 78.45 170.44"/>
    <line class="st3" x1="67.75" y1="170.44" x2="39.64" y2="170.44"/>
    <line class="st3" x1="67.75" y1="4.41" x2="39.64" y2="4.41"/>
    <path class="st10" d="M90.87,74.46c-.31.08-.16.55-.55.7-.08-.08-.16-.16-.16-.23,0-1.64,1.87-4.22,3.44-4.76,1.09-.31,2.19.08,2.81,1.02.55.86.47,2.11-.23,2.81-.08.16-.31.31-.39.31-.94-.23-1.87.16-2.81-.16.62-.47,1.33-1.02,1.95-1.48-1.09.08-1.8.78-2.5,1.48-.23.23-.39.55-.62.78-.08.16-.23.31-.39.23-.23-.08-.08-.31-.08-.55.86-1.17,1.64-2.42,3.12-3.12-1.17-.08-2.73,1.17-3.59,2.97"/>
    <path class="st4" d="M90.87,74.46c-.31.08-.16.55-.55.7-.08-.08-.16-.16-.16-.23,0-1.64,1.87-4.22,3.44-4.76,1.09-.31,2.19.08,2.81,1.02.55.86.47,2.11-.23,2.81-.08.16-.31.31-.39.31-.94-.23-1.87.16-2.81-.16.62-.47,1.33-1.02,1.95-1.48-1.09.08-1.8.78-2.5,1.48-.23.23-.39.55-.62.78-.08.16-.23.31-.39.23-.23-.08-.08-.31-.08-.55.86-1.17,1.64-2.42,3.12-3.12-1.17-.08-2.73,1.17-3.59,2.97Z"/>
    <path class="st10" d="M84.93,73.37c-.08.23-.23.23-.39.16-1.41-.55-2.58-1.33-2.97-2.81-.47-1.8.94-3.44,2.81-3.28,1.02.08,1.33.47,1.09,1.41-.08.39-.08.86-.31,1.25-.39-.23-.39-.7-.7-1.09-.16.78,0,1.41.31,1.95.08.16.16.31.31.39.23.23.31.7.08.86-.31.23-.47-.23-.7-.39-.7-.78-.86-1.87-1.25-2.81-.16,1.17,0,2.26.78,3.2,0,.08.08.08.08.08.08.55.47.86.86,1.09"/>
    <path class="st4" d="M84.93,73.37c-.08.23-.23.23-.39.16-1.41-.55-2.58-1.33-2.97-2.81-.47-1.8.94-3.44,2.81-3.28,1.02.08,1.33.47,1.09,1.41-.08.39-.08.86-.31,1.25-.39-.23-.39-.7-.7-1.09-.16.78,0,1.41.31,1.95.08.16.16.31.31.39.23.23.31.7.08.86-.31.23-.47-.23-.7-.39-.7-.78-.86-1.87-1.25-2.81-.16,1.17,0,2.26.78,3.2,0,.08.08.08.08.08.08.55.47.86.86,1.09Z"/>
    <path class="st12" d="M85.79,83.45c-2.19-.7-3.83-2.66-3.9-4.61,0-.23-.23-.7.23-.78.47-.08.39.39.47.7.16.86.31,1.64.78,2.42.78,1.25,2.11,1.87,3.67,1.56-1.17-.08-2.03-.78-2.73-1.56-.7-.78-.94-1.8-.7-2.89.7,1.64,1.56,3.2,3.9,3.36-.7-.39-1.17-.86-1.72-1.25-.78-.55-.86-1.41-1.02-2.19,0-.23-.08-.55.31-.62.31,0,.39.23.39.55.23,1.25.94,2.11,2.11,2.58.16.08.31.08.47.16.08,0,.16,0,.39-.08-.94-.47-1.48-1.09-1.87-1.87-.23-.47-.31-.62.23-.78.31-.08.55-.31.39-.62-.16-.39-.39-.23-.7,0-.62.39-.62-.39-1.02-.55-.31-.08-.08-.55.16-.7.62-.55,1.25-.62,1.95-.16.62.39,1.17.62,1.87.16.62-.39,1.33.23,1.48,1.09.31,2.42-.94,4.69-3.2,5.94-.31.16-.62.31-.86.55-.39.08-.62-.39-1.09-.39"/>
    <path class="st1" d="M85.79,83.45c-2.19-.7-3.83-2.66-3.9-4.61,0-.23-.23-.7.23-.78.47-.08.39.39.47.7.16.86.31,1.64.78,2.42.78,1.25,2.11,1.87,3.67,1.56-1.17-.08-2.03-.78-2.73-1.56-.7-.78-.94-1.8-.7-2.89.7,1.64,1.56,3.2,3.9,3.36-.7-.39-1.17-.86-1.72-1.25-.78-.55-.86-1.41-1.02-2.19,0-.23-.08-.55.31-.62.31,0,.39.23.39.55.23,1.25.94,2.11,2.11,2.58.16.08.31.08.47.16.08,0,.16,0,.39-.08-.94-.47-1.48-1.09-1.87-1.87-.23-.47-.31-.62.23-.78.31-.08.55-.31.39-.62-.16-.39-.39-.23-.7,0-.62.39-.62-.39-1.02-.55-.31-.08-.08-.55.16-.7.62-.55,1.25-.62,1.95-.16.62.39,1.17.62,1.87.16.62-.39,1.33.23,1.48,1.09.31,2.42-.94,4.69-3.2,5.94-.31.16-.62.31-.86.55-.39.08-.62-.39-1.09-.39Z"/>
    <path class="st12" d="M77.59,88.13c-.39-.31-.78-.7-1.17-1.02.23-.39-.23-.47-.39-.62-1.41-1.17-1.87-2.81-2.42-4.37,4.14.78,7.73,4.22,8.2,7.97-1.48-1.64-2.73-3.28-4.45-4.45.55,1.02,1.41,1.87,2.26,2.66l.16.16h0c.08.23.16.39.39.47.23.31.47.7.86,1.17-1.25-.31-1.95-1.02-2.81-1.56-.08-.23-.16-.55-.62-.39"/>
    <path class="st1" d="M77.59,88.13c-.39-.31-.78-.7-1.17-1.02.23-.39-.23-.47-.39-.62-1.41-1.17-1.87-2.81-2.42-4.37,4.14.78,7.73,4.22,8.2,7.97-1.48-1.64-2.73-3.28-4.45-4.45.55,1.02,1.41,1.87,2.26,2.66l.16.16h0c.08.23.16.39.39.47.23.31.47.7.86,1.17-1.25-.31-1.95-1.02-2.81-1.56-.08-.23-.16-.55-.62-.39Z"/>
    <path class="st12" d="M91.57,96.88c-.94.55-1.8,1.17-2.66,1.87-.78.7-1.48,1.48-2.26,2.26.31-1.56,1.17-2.89,2.26-3.98,1.17-1.09,2.5-1.8,4.14-2.03.23,0,.47-.16.7-.16.39,0,.86-.47,1.09-.16.31.39-.23.78-.47,1.17-1.48,2.11-3.28,3.83-5.86,4.76-.31.08-.55.31-1.02.08,1.25-1.41,2.81-2.42,4.14-3.75.08-.08.16-.08.16-.16.16,0,.23-.08.31-.23l.08-.08h-.16v.16c-.16-.08-.31,0-.39.16.08,0,0,.08-.08.08"/>
    <path class="st1" d="M91.57,96.88c-.94.55-1.8,1.17-2.66,1.87-.78.7-1.48,1.48-2.26,2.26.31-1.56,1.17-2.89,2.26-3.98,1.17-1.09,2.5-1.8,4.14-2.03.23,0,.47-.16.7-.16.39,0,.86-.47,1.09-.16.31.39-.23.78-.47,1.17-1.48,2.11-3.28,3.83-5.86,4.76-.31.08-.55.31-1.02.08,1.25-1.41,2.81-2.42,4.14-3.75.08-.08.16-.08.16-.16.16,0,.23-.08.31-.23l.08-.08h-.16v.16c-.16-.08-.31,0-.39.16.08,0,0,.08-.08.08Z"/>
    <path class="st8" d="M85.79,83.45c.47,0,.7.47,1.17.47-.39,1.56-1.09,3.12-1.41,4.69-1.02,4.3-1.17,8.67-.7,13.12.23,2.34.62,4.69,1.17,6.95.08.16.08.39,0,.47-.16.16-.39,0-.55-.08-.47-.23-.7-.62-.86-1.09-.94-4.61-1.25-9.29-1.09-13.98.08-3.12.55-6.17,1.64-9.06.08-.55.39-1.02.62-1.48"/>
    <path class="st7" d="M85.79,83.45c.47,0,.7.47,1.17.47-.39,1.56-1.09,3.12-1.41,4.69-1.02,4.3-1.17,8.67-.7,13.12.23,2.34.62,4.69,1.17,6.95.08.16.08.39,0,.47-.16.16-.39,0-.55-.08-.47-.23-.7-.62-.86-1.09-.94-4.61-1.25-9.29-1.09-13.98.08-3.12.55-6.17,1.64-9.06.08-.55.39-1.02.62-1.48Z"/>
    <path class="st8" d="M87.2,74.7c-1.17-1.95-1.48-3.98-.7-6.09.55-1.41,2.03-1.95,3.67-1.64,1.33.23,2.19,1.17,2.26,2.42,0,.23,0,.47-.23.7-1.64,1.33-2.66,2.97-2.81,5.08,0,.08-.08.16-.16.23-.55-.78-.47-1.09.78-5.15-.94.47-1.17,1.17-1.8,4.92-.78-2.26-.16-4.06.62-5.86-.86.31-1.56,2.66-1.64,5.39"/>
    <path class="st7" d="M87.2,74.7c-1.17-1.95-1.48-3.98-.7-6.09.55-1.41,2.03-1.95,3.67-1.64,1.33.23,2.19,1.17,2.26,2.42,0,.23,0,.47-.23.7-1.64,1.33-2.66,2.97-2.81,5.08,0,.08-.08.16-.16.23-.55-.78-.47-1.09.78-5.15-.94.47-1.17,1.17-1.8,4.92-.78-2.26-.16-4.06.62-5.86-.86.31-1.56,2.66-1.64,5.39Z"/>
    <path class="st8" d="M76.18,96.88c1.09,1.17,2.42,1.95,3.9,2.66.47.23,1.09.47,1.02.94-.16.47-.78.16-1.25.16-2.03-.23-3.51-1.33-4.69-2.89-.55-.7-1.02-1.48-1.56-2.26,3.51-1.09,6.56.39,7.42,3.59-1.64-.62-3.12-1.56-4.69-2.34-.08-.16-.23-.16-.39-.16,0,0-.08,0-.08-.08l.08.08c0,.16.08.23.23.31"/>
    <path class="st7" d="M76.18,96.88c1.09,1.17,2.42,1.95,3.9,2.66.47.23,1.09.47,1.02.94-.16.47-.78.16-1.25.16-2.03-.23-3.51-1.33-4.69-2.89-.55-.7-1.02-1.48-1.56-2.26,3.51-1.09,6.56.39,7.42,3.59-1.64-.62-3.12-1.56-4.69-2.34-.08-.16-.23-.16-.39-.16,0,0-.08,0-.08-.08l.08.08c0,.16.08.23.23.31Z"/>
    <path class="st8" d="M82.67,74.23c-.31.47.55.7.16,1.02-.31.23-.7-.16-1.09-.31-.16-.08-.31-.23-.47-.08-.16.23.08.31.23.39.62.47,1.33.7,2.11.7.39,0,.78.08,1.02.39s.23.7-.23.78c-1.8.47-4.53,0-5.39-2.5-.31-.86-.16-1.64.39-2.42.7-.94,1.17-.94,1.87,0,1.02,1.25,2.34,2.03,3.9,2.26.47.08,1.02.08.78.7-.16.55-.62.55-1.09.31-.78-.16-1.56-.55-2.19-1.25"/>
    <path class="st7" d="M82.67,74.23c-.31.47.55.7.16,1.02-.31.23-.7-.16-1.09-.31-.16-.08-.31-.23-.47-.08-.16.23.08.31.23.39.62.47,1.33.7,2.11.7.39,0,.78.08,1.02.39s.23.7-.23.78c-1.8.47-4.53,0-5.39-2.5-.31-.86-.16-1.64.39-2.42.7-.94,1.17-.94,1.87,0,1.02,1.25,2.34,2.03,3.9,2.26.47.08,1.02.08.78.7-.16.55-.62.55-1.09.31-.78-.16-1.56-.55-2.19-1.25Z"/>
    <path class="st8" d="M86.26,93.21c1.64-2.34,4.22-3.51,5.47-5.94-1.56,1.48-3.28,2.81-5.08,4.22.16-1.87,1.87-3.83,6.64-6.09.55,2.58-2.89,6.48-7.03,7.81"/>
    <path class="st7" d="M86.26,93.21c1.64-2.34,4.22-3.51,5.47-5.94-1.56,1.48-3.28,2.81-5.08,4.22.16-1.87,1.87-3.83,6.64-6.09.55,2.58-2.89,6.48-7.03,7.81Z"/>
    <path class="st8" d="M96.02,77.98c-.78-.47-1.64,0-2.5-.47,1.02-.39,1.95-.7,2.97-1.33-1.17-.16-1.95.39-2.89.47-.39.08-.86.23-1.25.31-.23.08-.47,0-.55-.23s-.08-.39.08-.62c1.02-1.17,3.83-1.33,5-.31.86.7,1.09,1.8.55,2.81-.47.86-1.25,1.09-2.34.94-.94-.16-1.72-.78-2.73-.86-.16,0-.31-.16-.31-.39,0-.16.16-.23.31-.31.31-.16.62-.08.94,0,.86.23,1.8.08,2.73,0"/>
    <path class="st7" d="M96.02,77.98c-.78-.47-1.64,0-2.5-.47,1.02-.39,1.95-.7,2.97-1.33-1.17-.16-1.95.39-2.89.47-.39.08-.86.23-1.25.31-.23.08-.47,0-.55-.23s-.08-.39.08-.62c1.02-1.17,3.83-1.33,5-.31.86.7,1.09,1.8.55,2.81-.47.86-1.25,1.09-2.34.94-.94-.16-1.72-.78-2.73-.86-.16,0-.31-.16-.31-.39,0-.16.16-.23.31-.31.31-.16.62-.08.94,0,.86.23,1.8.08,2.73,0Z"/>
    <path class="st9" d="M86.1,89.85c0-.16-.08-.39,0-.55.31-1.56.78-3.12,1.41-4.61.23-.47.55-.86,1.09-1.17,1.41-.86,2.5-1.95,2.97-3.51.16-.62.47-.62,1.02-.39.78.39,1.56.62,2.34.86.47.16,1.02.31,1.56,0,2.03-1.02,2.89-3.05,1.17-4.92-.62-.7-.62-1.09-.31-1.87.94-2.34-.7-4.37-3.36-4.06-.55.08-.55-.16-.62-.55-.78-3.51-4.37-3.59-6.25-2.11-.55.39-.86.39-1.33.08-1.56-.86-3.28-.55-4.3.78-.47.62-.62,1.48-.7,2.26-.08.55-.31.78-.78.94-1.17.47-1.8,1.25-1.95,2.5-.23,1.8.7,2.89,2.11,3.67.78.47,1.02,1.02,1.17,1.8.23,1.95,1.17,3.44,2.89,4.45.55.31.62.62.39,1.17-.55,1.41-1.02,2.89-1.48,4.3-.08.16,0,.39-.23.39-.16,0-.23-.16-.31-.31-.31-.7-.62-1.33-.94-1.95-1.02-1.95-2.34-3.51-4.53-4.3-1.41-.47-2.81-1.09-3.98-1.95-.08-.08-.23-.08-.31,0,.86,4.45,3.36,7.81,7.34,10.07,2.81,1.64,2.42,1.25,2.5,4.37.08,1.33,0,2.58,0,3.98-.39-.16-.47-.39-.62-.62-.31-.78-.86-1.41-1.41-2.03-1.33-1.48-2.97-2.66-5.15-2.26-1.33.23-2.58.39-3.9-.08-.08.39.23.55.47.7,1.02.86,1.8,1.8,2.5,2.89,1.48,2.34,3.67,3.67,6.56,3.67.94,0,1.56.55,1.72,1.41.31,1.41.55,2.89.86,4.3.16.7.08,1.48.86,1.95.62.39,1.25.78,1.87,1.17.16.08.39.31.62.16s.16-.39.08-.7c-.39-1.95-1.02-3.83-1.25-5.78-.08-.31-.08-.62.16-.86.7-.7,1.33-1.33,2.26-1.64,1.72-.62,3.2-1.56,4.53-2.73,1.48-1.33,2.5-2.97,3.36-4.84-1.48.31-2.73.55-4.06.78-2.03.23-3.44,1.33-4.45,3.05-.55.86-1.02,1.8-1.41,2.73-.16.31-.23.7-.7.86-.39-1.17-.16-2.42-.39-3.59-.47-2.26.47-3.59,2.58-4.37,1.33-.47,2.58-1.17,3.59-2.19,1.48-1.48,2.19-3.36,2.58-5.39.16-.7.39-1.41.23-2.26-.39.47-.86.78-1.25,1.02-.94.7-1.95,1.17-2.97,1.72-1.56.78-2.81,2.03-3.83,3.59M85.79,83.45c-2.19-.7-3.83-2.66-3.9-4.61,0-.23-.23-.7.23-.78.47-.08.39.39.47.7.16.86.31,1.64.78,2.42.78,1.25,2.11,1.87,3.67,1.56-1.17-.08-2.03-.78-2.73-1.56-.7-.78-.94-1.8-.7-2.89.7,1.64,1.56,3.2,3.9,3.36-.7-.39-1.17-.86-1.72-1.25-.78-.55-.86-1.41-1.02-2.19,0-.23-.08-.55.31-.62.31,0,.39.23.39.55.23,1.25.94,2.11,2.11,2.58.16.08.31.08.47.16.08,0,.16,0,.39-.08-.94-.47-1.48-1.09-1.87-1.87-.23-.47-.31-.62.23-.78.31-.08.55-.31.39-.62-.16-.39-.39-.23-.7,0-.62.39-.62-.39-1.02-.55-.31-.08-.08-.55.16-.7.62-.55,1.25-.62,1.95-.16.62.39,1.17.62,1.87.16.62-.39,1.33.23,1.48,1.09.31,2.42-.94,4.69-3.2,5.94-.31.16-.62.31-.86.55-.39.08-.62-.39-1.09-.39M85.79,83.45c.47,0,.7.47,1.17.47-.39,1.56-1.09,3.12-1.41,4.69-1.02,4.3-1.17,8.67-.7,13.12.23,2.34.62,4.69,1.17,6.95.08.16.08.39,0,.47-.16.16-.39,0-.55-.08-.47-.23-.7-.62-.86-1.09-.94-4.61-1.25-9.29-1.09-13.98.08-3.12.55-6.17,1.64-9.06.08-.55.39-1.02.62-1.48M87.2,74.7c-1.17-1.95-1.48-3.98-.7-6.09.55-1.41,2.03-1.95,3.67-1.64,1.33.31,2.19,1.17,2.26,2.42,0,.23,0,.47-.23.7-1.64,1.33-2.66,2.97-2.81,5.08,0,.08-.08.16-.16.23-.55-.78-.47-1.09.78-5.15-.94.47-1.17,1.17-1.8,4.92-.78-2.26-.16-4.06.62-5.86-.86.31-1.56,2.66-1.64,5.39M77.59,88.13c-.39-.31-.78-.7-1.17-1.02.23-.39-.23-.47-.39-.62-1.41-1.17-1.87-2.81-2.42-4.37,4.14.78,7.73,4.22,8.2,7.97-1.48-1.64-2.73-3.28-4.45-4.45.55,1.02,1.41,1.87,2.26,2.66l.16.16h0c.08.23.16.39.39.47.23.31.47.7.86,1.17-1.25-.31-1.95-1.02-2.81-1.56-.08-.23-.16-.55-.62-.39M76.65,84.85c-.08.31.08.39.31.47,0,0,.16-.08.16-.16-.08-.16-.16-.23-.47-.31M76.18,96.88c1.09,1.17,2.42,1.95,3.9,2.66.47.23,1.09.47,1.02.94-.16.47-.78.16-1.25.16-2.03-.23-3.51-1.33-4.69-2.89-.55-.7-1.02-1.48-1.56-2.26,3.51-1.09,6.56.39,7.42,3.59-1.64-.62-3.12-1.56-4.69-2.34-.08-.16-.23-.16-.39-.16,0,0-.08,0-.08-.08l.08.08c0,.16.08.23.23.31M82.67,74.23c-.31.47.55.7.16,1.02-.31.23-.7-.16-1.09-.31-.16-.08-.31-.23-.47-.08-.16.23.08.31.23.39.62.47,1.33.7,2.11.7.39,0,.78.08,1.02.39s.23.7-.23.78c-1.8.47-4.53,0-5.39-2.5-.31-.86-.16-1.64.39-2.42.7-.94,1.17-.94,1.87,0,1.02,1.25,2.34,2.03,3.9,2.26.47.08,1.02.08.78.7-.16.55-.62.55-1.09.31-.78-.16-1.56-.55-2.19-1.25M91.57,96.88c-.94.55-1.8,1.17-2.66,1.87-.78.7-1.48,1.48-2.26,2.26.31-1.56,1.17-2.89,2.26-3.98,1.17-1.09,2.5-1.8,4.14-2.03.23,0,.47-.16.7-.16.39,0,.86-.47,1.09-.16.31.39-.23.78-.47,1.17-1.48,2.11-3.28,3.83-5.86,4.76-.31.08-.55.31-1.02.08,1.25-1.41,2.81-2.42,4.14-3.75.08-.08.16-.08.16-.16.16,0,.23-.08.31-.23l.08-.08h-.16v.16c-.16-.08-.31,0-.39.16.08,0,0,.08-.08.08M86.26,93.21c1.64-2.34,4.22-3.51,5.47-5.94-1.56,1.48-3.28,2.81-5.08,4.22.16-1.87,1.87-3.83,6.64-6.09.55,2.58-2.89,6.56-7.03,7.81M90.87,74.46c-.31.08-.16.55-.55.7-.08-.08-.16-.16-.16-.23,0-1.64,1.87-4.22,3.44-4.76,1.09-.31,2.19.08,2.81,1.02.55.86.47,2.11-.23,2.81-.08.16-.31.31-.39.31-.94-.23-1.87.16-2.81-.16.62-.47,1.33-1.02,1.95-1.48-1.09.08-1.8.78-2.5,1.48-.23.23-.39.55-.62.78-.08.16-.23.31-.47.23-.23-.08-.08-.31-.08-.55.86-1.17,1.64-2.42,3.12-3.12-1.09-.08-2.66,1.17-3.51,2.97M96.02,77.98c-.78-.47-1.64,0-2.5-.47,1.02-.39,1.95-.7,2.97-1.33-1.17-.16-1.95.39-2.89.47-.39.08-.86.23-1.25.31-.23.08-.47,0-.55-.23s-.08-.39.08-.62c1.02-1.17,3.83-1.33,5-.31.86.7,1.09,1.8.55,2.81-.47.86-1.25,1.09-2.34.94-.94-.16-1.72-.78-2.73-.86-.16,0-.31-.16-.31-.39,0-.16.16-.23.31-.31.31-.16.62-.08.94,0,.86.23,1.8.08,2.73,0M84.93,73.37c-.08.23-.23.23-.39.16-1.41-.55-2.58-1.33-2.97-2.81-.47-1.8.94-3.44,2.81-3.28,1.02.08,1.33.47,1.09,1.41-.08.39-.08.86-.31,1.25-.39-.23-.39-.7-.7-1.09-.16.78,0,1.41.31,1.95.08.16.16.31.31.39.23.23.31.7.08.86-.31.23-.47-.23-.7-.39-.7-.78-.86-1.87-1.25-2.81-.16,1.17,0,2.26.78,3.2,0,.08.08.08.08.08.08.55.47.86.86,1.09"/>
    <path class="st10" d="M15.11,74.46c.31.08.16.55.55.7.08-.08.16-.16.16-.23,0-1.64-1.87-4.22-3.44-4.76-1.09-.31-2.19.08-2.81,1.02-.55.86-.47,2.11.23,2.81.08.16.31.31.39.31.94-.23,1.87.16,2.81-.16-.62-.47-1.33-1.02-1.95-1.48,1.09.08,1.8.78,2.5,1.48.23.23.39.55.62.78.08.16.23.31.39.23.23-.08.08-.31.08-.55-.86-1.17-1.64-2.42-3.12-3.12,1.17-.08,2.73,1.17,3.59,2.97"/>
    <path class="st4" d="M15.11,74.46c.31.08.16.55.55.7.08-.08.16-.16.16-.23,0-1.64-1.87-4.22-3.44-4.76-1.09-.31-2.19.08-2.81,1.02-.55.86-.47,2.11.23,2.81.08.16.31.31.39.31.94-.23,1.87.16,2.81-.16-.62-.47-1.33-1.02-1.95-1.48,1.09.08,1.8.78,2.5,1.48.23.23.39.55.62.78.08.16.23.31.39.23.23-.08.08-.31.08-.55-.86-1.17-1.64-2.42-3.12-3.12,1.17-.08,2.73,1.17,3.59,2.97Z"/>
    <path class="st10" d="M21.05,73.37c.08.23.23.23.39.16,1.41-.55,2.58-1.25,2.97-2.81.47-1.8-.94-3.44-2.81-3.28-1.02.08-1.33.47-1.09,1.41.08.39.08.86.31,1.25.39-.23.39-.7.7-1.09.16.78,0,1.41-.31,1.95-.08.16-.16.31-.31.39-.23.23-.31.7-.08.86.31.23.47-.23.7-.39.7-.78.86-1.87,1.25-2.81.16,1.17,0,2.26-.78,3.2,0,.08-.08.08-.08.08-.08.55-.47.86-.86,1.09"/>
    <path class="st4" d="M21.05,73.37c.08.23.23.23.39.16,1.41-.55,2.58-1.25,2.97-2.81.47-1.8-.94-3.44-2.81-3.28-1.02.08-1.33.47-1.09,1.41.08.39.08.86.31,1.25.39-.23.39-.7.7-1.09.16.78,0,1.41-.31,1.95-.08.16-.16.31-.31.39-.23.23-.31.7-.08.86.31.23.47-.23.7-.39.7-.78.86-1.87,1.25-2.81.16,1.17,0,2.26-.78,3.2,0,.08-.08.08-.08.08-.08.55-.47.86-.86,1.09Z"/>
    <path class="st12" d="M20.27,83.45c2.19-.7,3.83-2.66,3.9-4.61,0-.23.23-.7-.23-.78-.47-.08-.39.39-.47.7-.16.86-.31,1.64-.78,2.42-.78,1.25-2.11,1.87-3.67,1.56,1.17-.08,2.03-.78,2.73-1.56s.94-1.8.7-2.89c-.7,1.64-1.56,3.2-3.9,3.36.7-.39,1.17-.86,1.72-1.25.78-.55.86-1.41,1.02-2.19,0-.23.08-.55-.31-.62-.31,0-.39.23-.39.55-.23,1.25-.94,2.11-2.11,2.58-.16.08-.31.08-.47.16-.08,0-.16,0-.39-.08.94-.47,1.48-1.09,1.87-1.87.23-.47.31-.62-.23-.78-.31-.08-.55-.31-.39-.62.16-.39.39-.23.7,0,.62.39.62-.39,1.02-.55.31-.08.08-.55-.16-.7-.62-.55-1.25-.62-1.95-.16-.62.39-1.17.62-1.87.16-.62-.39-1.33.23-1.48,1.09-.31,2.42.94,4.69,3.2,5.94.31.16.62.31.86.55.31.08.62-.39,1.09-.39"/>
    <path class="st1" d="M20.27,83.45c2.19-.7,3.83-2.66,3.9-4.61,0-.23.23-.7-.23-.78-.47-.08-.39.39-.47.7-.16.86-.31,1.64-.78,2.42-.78,1.25-2.11,1.87-3.67,1.56,1.17-.08,2.03-.78,2.73-1.56s.94-1.8.7-2.89c-.7,1.64-1.56,3.2-3.9,3.36.7-.39,1.17-.86,1.72-1.25.78-.55.86-1.41,1.02-2.19,0-.23.08-.55-.31-.62-.31,0-.39.23-.39.55-.23,1.25-.94,2.11-2.11,2.58-.16.08-.31.08-.47.16-.08,0-.16,0-.39-.08.94-.47,1.48-1.09,1.87-1.87.23-.47.31-.62-.23-.78-.31-.08-.55-.31-.39-.62.16-.39.39-.23.7,0,.62.39.62-.39,1.02-.55.31-.08.08-.55-.16-.7-.62-.55-1.25-.62-1.95-.16-.62.39-1.17.62-1.87.16-.62-.39-1.33.23-1.48,1.09-.31,2.42.94,4.69,3.2,5.94.31.16.62.31.86.55.31.08.62-.39,1.09-.39Z"/>
    <path class="st12" d="M27.77,88.6c-.86.55-1.56,1.25-2.81,1.56.39-.55.62-.86.86-1.17.16-.16.31-.31.39-.47h0q.08-.08.16-.16c.78-.86,1.64-1.64,2.26-2.66-1.72,1.17-2.97,2.81-4.45,4.45.47-3.75,4.06-7.18,8.2-7.97-.62,1.64-1.02,3.28-2.42,4.37-.16.16-.55.23-.39.62-.39.31-.78.7-1.17,1.02-.47-.23-.55.08-.62.39"/>
    <path class="st1" d="M27.77,88.6c-.86.55-1.56,1.25-2.81,1.56.39-.55.62-.86.86-1.17.16-.16.31-.31.39-.47h0q.08-.08.16-.16c.78-.86,1.64-1.64,2.26-2.66-1.72,1.17-2.97,2.81-4.45,4.45.47-3.75,4.06-7.18,8.2-7.97-.62,1.64-1.02,3.28-2.42,4.37-.16.16-.55.23-.39.62-.39.31-.78.7-1.17,1.02-.47-.23-.55.08-.62.39Z"/>
    <path class="st12" d="M14.41,96.88c.94.55,1.8,1.17,2.66,1.87.78.7,1.48,1.48,2.26,2.26-.31-1.56-1.17-2.89-2.26-3.98-1.17-1.09-2.5-1.8-4.14-2.03-.23,0-.47-.16-.7-.16-.39,0-.86-.47-1.09-.16-.31.39.23.78.47,1.17,1.48,2.11,3.28,3.83,5.86,4.76.31.08.55.31,1.02.08-1.25-1.41-2.81-2.42-4.14-3.75-.08-.08-.16-.08-.16-.16-.16,0-.23-.08-.31-.23l-.08-.08h.16v.16c.16-.08.31,0,.39.16-.08,0,0,.08.08.08"/>
    <path class="st1" d="M14.41,96.88c.94.55,1.8,1.17,2.66,1.87.78.7,1.48,1.48,2.26,2.26-.31-1.56-1.17-2.89-2.26-3.98-1.17-1.09-2.5-1.8-4.14-2.03-.23,0-.47-.16-.7-.16-.39,0-.86-.47-1.09-.16-.31.39.23.78.47,1.17,1.48,2.11,3.28,3.83,5.86,4.76.31.08.55.31,1.02.08-1.25-1.41-2.81-2.42-4.14-3.75-.08-.08-.16-.08-.16-.16-.16,0-.23-.08-.31-.23l-.08-.08h.16v.16c.16-.08.31,0,.39.16-.08,0,0,.08.08.08Z"/>
    <path class="st8" d="M20.27,83.45c-.47,0-.7.47-1.17.47.39,1.56,1.09,3.12,1.41,4.69,1.02,4.3,1.17,8.67.7,13.12-.23,2.34-.62,4.69-1.17,6.95-.08.16-.08.39,0,.47.16.16.39,0,.55-.08.47-.23.7-.62.86-1.09.94-4.61,1.25-9.29,1.09-13.98-.08-3.12-.55-6.17-1.64-9.06-.16-.55-.47-1.02-.62-1.48"/>
    <path class="st7" d="M20.27,83.45c-.47,0-.7.47-1.17.47.39,1.56,1.09,3.12,1.41,4.69,1.02,4.3,1.17,8.67.7,13.12-.23,2.34-.62,4.69-1.17,6.95-.08.16-.08.39,0,.47.16.16.39,0,.55-.08.47-.23.7-.62.86-1.09.94-4.61,1.25-9.29,1.09-13.98-.08-3.12-.55-6.17-1.64-9.06-.16-.55-.47-1.02-.62-1.48Z"/>
    <path class="st8" d="M18.78,74.7c1.17-1.95,1.48-3.98.7-6.09-.55-1.41-2.03-1.95-3.67-1.64-1.33.23-2.19,1.17-2.26,2.42,0,.23,0,.47.23.7,1.64,1.33,2.66,2.97,2.81,5.08,0,.08.08.16.16.23.55-.78.47-1.09-.78-5.15.94.47,1.17,1.17,1.8,4.92.78-2.26.16-4.06-.62-5.86.86.31,1.64,2.66,1.64,5.39"/>
    <path class="st7" d="M18.78,74.7c1.17-1.95,1.48-3.98.7-6.09-.55-1.41-2.03-1.95-3.67-1.64-1.33.23-2.19,1.17-2.26,2.42,0,.23,0,.47.23.7,1.64,1.33,2.66,2.97,2.81,5.08,0,.08.08.16.16.23.55-.78.47-1.09-.78-5.15.94.47,1.17,1.17,1.8,4.92.78-2.26.16-4.06-.62-5.86.86.31,1.64,2.66,1.64,5.39Z"/>
    <path class="st8" d="M29.87,96.88c-1.09,1.17-2.42,1.95-3.9,2.66-.47.23-1.09.47-1.02.94.16.47.78.16,1.25.16,2.03-.23,3.51-1.33,4.69-2.89.55-.7,1.02-1.48,1.56-2.26-3.51-1.09-6.56.39-7.42,3.59,1.64-.62,3.12-1.56,4.69-2.34.08-.16.23-.16.39-.16,0,0,.08,0,.08-.08l-.08.08c-.08.16-.16.23-.23.31"/>
    <path class="st7" d="M29.87,96.88c-1.09,1.17-2.42,1.95-3.9,2.66-.47.23-1.09.47-1.02.94.16.47.78.16,1.25.16,2.03-.23,3.51-1.33,4.69-2.89.55-.7,1.02-1.48,1.56-2.26-3.51-1.09-6.56.39-7.42,3.59,1.64-.62,3.12-1.56,4.69-2.34.08-.16.23-.16.39-.16,0,0,.08,0,.08-.08l-.08.08c-.08.16-.16.23-.23.31Z"/>
    <path class="st8" d="M23.31,74.23c.31.47-.55.7-.16,1.02.31.23.7-.16,1.09-.31.16-.08.31-.23.47-.08.16.23-.08.31-.23.39-.62.47-1.33.7-2.11.7-.39,0-.78.08-1.02.39s-.23.7.23.78c1.8.47,4.53,0,5.39-2.5.31-.86.16-1.64-.39-2.42-.7-.94-1.17-.94-1.87,0-1.02,1.25-2.34,2.03-3.9,2.26-.47.08-1.02.08-.78.7.16.55.62.55,1.09.31.78-.16,1.56-.55,2.19-1.25"/>
    <path class="st7" d="M23.31,74.23c.31.47-.55.7-.16,1.02.31.23.7-.16,1.09-.31.16-.08.31-.23.47-.08.16.23-.08.31-.23.39-.62.47-1.33.7-2.11.7-.39,0-.78.08-1.02.39s-.23.7.23.78c1.8.47,4.53,0,5.39-2.5.31-.86.16-1.64-.39-2.42-.7-.94-1.17-.94-1.87,0-1.02,1.25-2.34,2.03-3.9,2.26-.47.08-1.02.08-.78.7.16.55.62.55,1.09.31.78-.16,1.56-.55,2.19-1.25Z"/>
    <path class="st8" d="M19.8,93.21c-1.64-2.34-4.22-3.51-5.47-5.94,1.56,1.48,3.28,2.81,5.08,4.22-.16-1.87-1.87-3.83-6.64-6.09-.55,2.58,2.81,6.48,7.03,7.81"/>
    <path class="st7" d="M19.8,93.21c-1.64-2.34-4.22-3.51-5.47-5.94,1.56,1.48,3.28,2.81,5.08,4.22-.16-1.87-1.87-3.83-6.64-6.09-.55,2.58,2.81,6.48,7.03,7.81Z"/>
    <path class="st8" d="M9.96,77.98c.78-.47,1.64,0,2.5-.47-1.02-.39-1.95-.7-2.97-1.33,1.17-.16,1.95.39,2.89.47.39.08.86.23,1.25.31.23.08.47,0,.55-.23s.08-.39-.08-.62c-1.02-1.17-3.83-1.33-5-.31-.86.7-1.09,1.8-.55,2.81.47.86,1.25,1.09,2.34.94.94-.16,1.72-.78,2.73-.86.16,0,.31-.16.31-.39,0-.16-.16-.23-.31-.31-.31-.16-.62-.08-.94,0-.78.23-1.8.08-2.73,0"/>
    <path class="st7" d="M9.96,77.98c.78-.47,1.64,0,2.5-.47-1.02-.39-1.95-.7-2.97-1.33,1.17-.16,1.95.39,2.89.47.39.08.86.23,1.25.31.23.08.47,0,.55-.23s.08-.39-.08-.62c-1.02-1.17-3.83-1.33-5-.31-.86.7-1.09,1.8-.55,2.81.47.86,1.25,1.09,2.34.94.94-.16,1.72-.78,2.73-.86.16,0,.31-.16.31-.39,0-.16-.16-.23-.31-.31-.31-.16-.62-.08-.94,0-.78.23-1.8.08-2.73,0Z"/>
    <path class="st9" d="M15.97,86.26c-1.02-.47-2.03-1.02-2.97-1.72-.39-.31-.86-.55-1.25-1.02-.16.86.08,1.56.23,2.26.47,1.95,1.09,3.83,2.58,5.39,1.02,1.02,2.26,1.64,3.59,2.19,2.11.86,3.05,2.19,2.58,4.37-.23,1.17,0,2.34-.39,3.59-.47-.16-.55-.55-.7-.86-.39-.94-.86-1.8-1.41-2.73-1.02-1.64-2.42-2.73-4.45-3.05-1.33-.16-2.58-.47-4.06-.78.86,1.95,1.87,3.51,3.36,4.84,1.33,1.17,2.81,2.11,4.53,2.73.94.31,1.64,1.02,2.26,1.64.23.23.23.47.16.86-.23,1.95-.86,3.9-1.25,5.78-.08.23-.16.47.08.7.23.16.47,0,.62-.16.62-.39,1.25-.78,1.87-1.17.7-.47.7-1.25.86-1.95.31-1.41.55-2.89.86-4.3.16-.86.86-1.41,1.72-1.41,2.89,0,5-1.33,6.56-3.67.7-1.09,1.48-2.03,2.5-2.89.23-.16.55-.31.47-.7-1.25.47-2.58.31-3.9.08-2.19-.31-3.75.78-5.15,2.26-.55.62-1.09,1.25-1.41,2.03-.08.23-.23.47-.62.62,0-1.33-.08-2.66,0-3.98.08-3.05-.31-2.73,2.5-4.37,3.98-2.34,6.48-5.62,7.34-10.07-.08-.08-.23-.08-.31,0-1.25.86-2.58,1.48-3.98,1.95-2.19.78-3.51,2.34-4.53,4.3-.31.62-.62,1.33-.94,1.95-.08.16-.16.31-.31.31-.23,0-.16-.23-.23-.39-.47-1.41-1.02-2.89-1.48-4.3-.16-.55-.16-.86.39-1.17,1.72-1.02,2.73-2.5,2.89-4.45.08-.86.39-1.41,1.17-1.8,1.41-.78,2.34-1.87,2.11-3.67-.16-1.25-.78-2.03-1.95-2.5-.47-.16-.7-.39-.78-.94-.08-.78-.23-1.56-.7-2.26-1.02-1.41-2.73-1.72-4.3-.78-.47.31-.78.31-1.33-.08-1.95-1.48-5.54-1.41-6.25,2.11-.08.39-.08.62-.62.55-2.58-.31-4.22,1.64-3.36,4.06.31.78.31,1.17-.31,1.87-1.64,1.87-.86,3.98,1.17,4.92.47.23,1.02.08,1.56,0,.78-.23,1.56-.47,2.34-.86.47-.23.78-.23,1.02.39.47,1.56,1.56,2.66,2.97,3.51.47.31.86.7,1.09,1.17.62,1.48,1.09,3.05,1.41,4.61v.55c-.94-1.56-2.19-2.81-3.83-3.59M19.02,83.91c-.23-.31-.55-.39-.86-.55-2.26-1.17-3.51-3.44-3.2-5.94.08-.86.86-1.48,1.48-1.09.78.47,1.25.23,1.87-.16.7-.47,1.33-.39,1.95.16.23.16.47.62.16.7-.39.16-.39.94-1.02.55-.31-.16-.55-.31-.7,0-.16.31.08.55.39.62.55.16.47.31.23.78-.39.78-.94,1.41-1.87,1.87.23,0,.31.08.39.08.16,0,.31-.08.47-.16,1.17-.55,1.87-1.33,2.11-2.58.08-.31.08-.55.39-.55.39,0,.31.39.31.62-.08.86-.23,1.64-1.02,2.19-.47.39-.94.78-1.72,1.25,2.34-.16,3.2-1.72,3.9-3.36.23,1.09,0,2.11-.7,2.89s-1.56,1.41-2.73,1.56c1.56.31,2.89-.31,3.67-1.56.47-.78.62-1.56.78-2.42.08-.31,0-.7.47-.7.47.08.23.47.23.78-.08,1.95-1.72,3.9-3.9,4.61-.31-.08-.62.39-1.09.39M20.97,84.85c1.09,2.97,1.48,6.01,1.64,9.06.16,4.69-.23,9.37-1.09,13.98-.08.55-.39.86-.86,1.09-.16.08-.39.23-.55.08-.16-.08-.08-.31,0-.47.62-2.26.94-4.61,1.17-6.95.47-4.37.31-8.75-.7-13.12-.39-1.64-1.02-3.12-1.41-4.69.47,0,.7-.47,1.17-.47.08.55.39,1.02.62,1.48M16.99,69.39c.78,1.8,1.41,3.59.62,5.86-.62-3.75-.86-4.37-1.8-4.92,1.33,4.06,1.33,4.37.78,5.15-.08-.08-.16-.16-.16-.23-.08-2.11-1.17-3.75-2.81-5.08-.23-.16-.23-.39-.23-.7.08-1.25.86-2.19,2.26-2.42,1.72-.31,3.2.23,3.67,1.64.86,2.11.47,4.14-.7,6.09.16-2.81-.62-5.15-1.64-5.39M27.77,88.6c-.86.55-1.56,1.25-2.81,1.56.39-.55.62-.86.86-1.17.16-.16.31-.31.39-.47h0q.08-.08.16-.16c.78-.86,1.64-1.64,2.26-2.66-1.72,1.17-2.97,2.81-4.45,4.45.47-3.75,4.06-7.18,8.2-7.97-.62,1.64-1.02,3.28-2.42,4.37-.16.16-.62.23-.39.62-.39.31-.78.7-1.17,1.02-.47-.23-.55.08-.62.39M28.86,85.24s.08.16.16.16c.16-.08.31-.16.31-.47-.23,0-.39.08-.47.31M30.11,96.57l.08-.08c-.08,0-.16.08-.08.08-.23-.08-.31,0-.39.08-1.56.78-3.05,1.72-4.69,2.34.86-3.2,3.9-4.69,7.42-3.59-.55.78-.94,1.56-1.56,2.26-1.17,1.48-2.66,2.66-4.69,2.89-.47.08-1.09.31-1.25-.16-.16-.47.55-.7,1.02-.94,1.48-.7,2.81-1.48,3.9-2.66.08,0,.16-.08.23-.23M21.13,75.64c-.55.16-.94.23-1.09-.31-.16-.62.39-.62.78-.7,1.64-.23,2.97-1.02,3.9-2.26.7-.94,1.17-.94,1.87,0,.55.7.7,1.48.39,2.42-.86,2.5-3.59,2.89-5.39,2.5-.47-.16-.47-.47-.23-.78.23-.39.62-.39,1.02-.39.78,0,1.48-.23,2.11-.7.16-.08.39-.16.23-.39-.16-.16-.31,0-.47.08-.31.16-.7.62-1.09.31s.47-.55.16-1.02c-.62.55-1.41.94-2.19,1.25M14.18,96.8c-.08-.16-.16-.23-.39-.16v-.16h-.16l.08.08c.08.16.16.16.31.23.08.08.16.08.16.16,1.33,1.33,2.89,2.34,4.14,3.75-.47.16-.7,0-1.02-.08-2.5-.94-4.37-2.66-5.86-4.76-.23-.31-.78-.7-.47-1.17.23-.31.7.16,1.09.16.23,0,.47.16.7.16,1.64.23,2.97.94,4.14,2.03,1.17,1.09,1.95,2.42,2.26,3.98-.78-.78-1.41-1.56-2.26-2.26s-1.72-1.33-2.66-1.87c.08,0,0-.08-.08-.08M12.77,85.4c4.76,2.26,6.48,4.22,6.64,6.09-1.8-1.41-3.51-2.66-5.08-4.22,1.25,2.42,3.83,3.59,5.47,5.94-4.22-1.25-7.58-5.23-7.03-7.81M11.52,71.57c1.48.7,2.26,2.03,3.12,3.12,0,.16.16.39-.08.55-.16.08-.31-.08-.47-.23-.23-.23-.39-.55-.62-.78-.7-.7-1.33-1.48-2.5-1.48.62.47,1.33,1.02,1.95,1.48-.94.31-1.87-.08-2.81.16-.08,0-.31-.16-.39-.31-.7-.78-.78-1.95-.23-2.81.62-.94,1.72-1.33,2.81-1.02,1.56.47,3.44,3.05,3.44,4.76,0,.08-.08.16-.16.23-.31-.16-.16-.62-.55-.7-.78-1.87-2.34-3.12-3.51-2.97M12.85,78.06c.31-.08.62-.16.94,0,.16.08.23.16.31.31,0,.23-.08.31-.31.39-.94.08-1.8.7-2.73.86-1.17.16-1.95-.08-2.34-.94-.55-1.09-.39-2.11.55-2.89,1.17-1.02,3.98-.78,5,.31.16.23.16.39.08.62s-.31.31-.55.23c-.39-.08-.86-.23-1.25-.31-.94-.08-1.72-.62-2.89-.47,1.02.62,1.95.94,2.97,1.33-.86.47-1.8,0-2.5.47.78.08,1.8.23,2.73.08M21.99,72.36c.08,0,.08-.08.08-.08.78-.94.94-2.03.78-3.2-.39.94-.55,2.03-1.25,2.81-.23.16-.39.62-.7.39-.23-.16-.08-.55.08-.86.08-.16.23-.31.31-.39.31-.62.47-1.17.31-1.95-.31.39-.31.78-.7,1.09-.23-.39-.23-.78-.31-1.25-.23-.94.08-1.33,1.09-1.41,1.8-.16,3.2,1.48,2.81,3.28-.39,1.56-1.56,2.26-2.97,2.81-.16.08-.31.08-.39-.16.31-.31.7-.62.86-1.09"/>
    <path class="st10" d="M55.72,45.96c.55-1.25,1.02-2.5,1.09-3.9-.7,1.41-1.41,2.89-2.19,4.53-.39-.94,0-1.72.16-2.42.55-1.8,1.17-3.51,2.19-5.15.7-1.17,1.8-2.03,2.66-3.12.39-.55.47,0,.55.23.94,3.2.31,6.01-1.8,8.59-.31.39-.7.7-1.17,1.02.7-2.42,1.56-4.84,2.11-7.26-1.02,2.5-1.87,5.23-3.59,7.5"/>
    <path class="st5" d="M55.72,45.96c.55-1.25,1.02-2.5,1.09-3.9-.7,1.41-1.41,2.89-2.19,4.53-.39-.94,0-1.72.16-2.42.55-1.8,1.17-3.51,2.19-5.15.7-1.17,1.8-2.03,2.66-3.12.39-.55.47,0,.55.23.94,3.2.31,6.01-1.8,8.59-.31.39-.7.7-1.17,1.02.7-2.42,1.56-4.84,2.11-7.26-1.02,2.5-1.87,5.23-3.59,7.5Z"/>
    <path class="st8" d="M51.66,50.1c0-.31.08-.55.08-.86.16-.16.23-.39.39-.55,1.17,0,1.25.08,1.09,1.17-.47,2.89,0,5.7.47,8.51.62,3.83,1.56,7.5,2.81,11.17.08.16.16.39-.08.7-.78-.62-1.56-1.09-1.87-2.11-.94-3.12-1.64-6.25-2.19-9.45-.47-2.81-.55-5.7-.7-8.51t0-.08"/>
    <path class="st2" d="M51.66,50.1c0-.31.08-.55.08-.86.16-.16.23-.39.39-.55,1.17,0,1.25.08,1.09,1.17-.47,2.89,0,5.7.47,8.51.62,3.83,1.56,7.5,2.81,11.17.08.16.16.39-.08.7-.78-.62-1.56-1.09-1.87-2.11-.94-3.12-1.64-6.25-2.19-9.45-.47-2.81-.55-5.7-.7-8.51t0-.08Z"/>
    <path class="st10" d="M55.1,35.88c-1.72,2.11-2.89,4.45-3.59,7.03-.16-.62.16-1.25.23-1.87.23-1.72,1.33-2.97,2.11-4.45.39-.7.78-1.41,1.17-2.19.23-.39.47-.47.7-.08.78,1.33,1.17,2.73.39,4.22-1.25,2.34-2.11,4.84-2.81,7.42,0,.08-.08.16-.08.23-.47-.62-.39-1.72-.08-2.58.86-2.19,1.64-4.45,2.66-6.64,0-.08,0-.16-.08-.23-1.8,2.19-2.5,4.84-3.36,7.58-.47-1.72.31-3.05.86-4.45.55-1.25,1.25-2.58,1.87-3.98"/>
    <path class="st5" d="M55.1,35.88c-1.72,2.11-2.89,4.45-3.59,7.03-.16-.62.16-1.25.23-1.87.23-1.72,1.33-2.97,2.11-4.45.39-.7.78-1.41,1.17-2.19.23-.39.47-.47.7-.08.78,1.33,1.17,2.73.39,4.22-1.25,2.34-2.11,4.84-2.81,7.42,0,.08-.08.16-.08.23-.47-.62-.39-1.72-.08-2.58.86-2.19,1.64-4.45,2.66-6.64,0-.08,0-.16-.08-.23-1.8,2.19-2.5,4.84-3.36,7.58-.47-1.72.31-3.05.86-4.45.55-1.25,1.25-2.58,1.87-3.98Z"/>
    <path class="st10" d="M50.18,35.18c-.31,0-.39.16-.39.31-.62,3.12-.78,6.17.39,9.22.23.62.62,1.17,1.02,1.8.08.16.31.39,0,.47-.23.16-.39-.08-.47-.23-.86-1.64-1.56-3.36-1.87-5.15-.39-2.11,0-4.22.23-6.33.08-.78.16-1.48.16-2.26.08-.55.31-.62.78-.39,1.25.78,2.26,1.8,2.73,3.28.08.31.16.7.08,1.02-.08.31-.23.62-.55.7-.31.08-.16-.47-.62-.47-.16.86.39,2.03-.86,2.66.08-.86.47-1.48.47-2.26,0-.62.08-1.25.08-1.87,0-.16,0-.47-.23-.47-.39,0-.31.31-.31.47.08,1.25-.31,2.5-.47,3.67,0,.16,0,.31-.23.47-.23-1.56,0-3.05.08-4.61"/>
    <path class="st5" d="M50.18,35.18c-.31,0-.39.16-.39.31-.62,3.12-.78,6.17.39,9.22.23.62.62,1.17,1.02,1.8.08.16.31.39,0,.47-.23.16-.39-.08-.47-.23-.86-1.64-1.56-3.36-1.87-5.15-.39-2.11,0-4.22.23-6.33.08-.78.16-1.48.16-2.26.08-.55.31-.62.78-.39,1.25.78,2.26,1.8,2.73,3.28.08.31.16.7.08,1.02-.08.31-.23.62-.55.7-.31.08-.16-.47-.62-.47-.16.86.39,2.03-.86,2.66.08-.86.47-1.48.47-2.26,0-.62.08-1.25.08-1.87,0-.16,0-.47-.23-.47-.39,0-.31.31-.31.47.08,1.25-.31,2.5-.47,3.67,0,.16,0,.31-.23.47-.23-1.56,0-3.05.08-4.61Z"/>
    <path class="st10" d="M60.25,44.94c.31-.55.55-1.17.94-1.95-.62.31-.78.78-.94,1.09-1.09,1.8-2.5,3.28-4.53,3.98-.16.08-.31.16-.47.16s-.39.08-.47-.08c-.08-.23.16-.31.31-.39,1.25-.55,2.42-1.17,3.36-2.19,1.72-1.72,2.58-3.75,2.97-6.09.23-1.25.55-1.56,1.8-1.8.7-.08,1.41-.16,2.03.08.39.16.55.23.16.55-1.95,1.56-3.12,3.59-4.22,5.7-.16.39-.31.78-.7,1.02-.08,0-.16-.08-.23-.08"/>
    <path class="st5" d="M60.25,44.94c.31-.55.55-1.17.94-1.95-.62.31-.78.78-.94,1.09-1.09,1.8-2.5,3.28-4.53,3.98-.16.08-.31.16-.47.16s-.39.08-.47-.08c-.08-.23.16-.31.31-.39,1.25-.55,2.42-1.17,3.36-2.19,1.72-1.72,2.58-3.75,2.97-6.09.23-1.25.55-1.56,1.8-1.8.7-.08,1.41-.16,2.03.08.39.16.55.23.16.55-1.95,1.56-3.12,3.59-4.22,5.7-.16.39-.31.78-.7,1.02-.08,0-.16-.08-.23-.08Z"/>
    <path class="st10" d="M59,46.74c.39-.62.86-1.17,1.33-1.8q.08.08.16.16c-.31.7-.7,1.33-1.33,1.72-.08-.08-.16-.08-.16-.08"/>
    <path class="st8" d="M62.13,51.11c-.31-.31-.7.7-.94-.16-.55.55-.16,1.48-1.02,1.8-.16-.31.08-.7-.16-1.02-.39.86-.23,1.87-1.02,2.73,0-.78-.08-1.33-.08-1.95h-.16c-.16.86-.31,1.72-.47,2.58-.08.31.08.86-.39.78-.39-.08-.16-.55-.16-.86,0-.16,0-.31-.08-.55-.62.94.23,2.26-.78,3.12-1.02-2.42.47-4.14,1.87-5.78,1.48-1.72,3.44-2.73,5.54-3.59.39-.16.62,0,.47.39-1.09,3.98-2.5,7.73-6.48,9.92-.31.16-.62.39-1.09.16,1.33-2.58,3.12-5.08,4.92-7.58"/>
    <path class="st2" d="M62.13,51.11c-.31-.31-.7.7-.94-.16-.55.55-.16,1.48-1.02,1.8-.16-.31.08-.7-.16-1.02-.39.86-.23,1.87-1.02,2.73,0-.78-.08-1.33-.08-1.95h-.16c-.16.86-.31,1.72-.47,2.58-.08.31.08.86-.39.78-.39-.08-.16-.55-.16-.86,0-.16,0-.31-.08-.55-.62.94.23,2.26-.78,3.12-1.02-2.42.47-4.14,1.87-5.78,1.48-1.72,3.44-2.73,5.54-3.59.39-.16.62,0,.47.39-1.09,3.98-2.5,7.73-6.48,9.92-.31.16-.62.39-1.09.16,1.33-2.58,3.12-5.08,4.92-7.58Z"/>
    <path class="st8" d="M50.57,55.64c-2.19-2.19-3.9-4.69-5.39-7.5-.23.55-.39.94.08,1.25.47.39-.08.47-.23.7.31.31,1.02.31,1.02.86,0,.47-.47,0-.7.31.47.31,1.09.39,1.41.86-1.17.62-1.56.47-1.87-.7-.39-1.41-.78-2.81-1.09-4.3-.08-.23-.16-.47.08-.62.16-.08.39.08.55.16,2.42,1.17,3.9,3.2,5,5.47.62,1.17,1.02,2.34,1.17,3.51"/>
    <path class="st2" d="M50.57,55.64c-2.19-2.19-3.9-4.69-5.39-7.5-.23.55-.39.94.08,1.25.47.39-.08.47-.23.7.31.31,1.02.31,1.02.86,0,.47-.47,0-.7.31.47.31,1.09.39,1.41.86-1.17.62-1.56.47-1.87-.7-.39-1.41-.78-2.81-1.09-4.3-.08-.23-.16-.47.08-.62.16-.08.39.08.55.16,2.42,1.17,3.9,3.2,5,5.47.62,1.17,1.02,2.34,1.17,3.51Z"/>
    <path class="st8" d="M47.37,55.33c-.39,0-.39-.39-.55-.62-.08-.08-.23-.31-.08-.47.16-.23.47-.08.62,0,.39.08.86.23,1.25.31.16.08.39.08.31.31,0,.16-.16.23-.31.23-.47,0-.86,0-1.25.23"/>
    <path class="st2" d="M47.37,55.33c-.39,0-.39-.39-.55-.62-.08-.08-.23-.31-.08-.47.16-.23.47-.08.62,0,.39.08.86.23,1.25.31.16.08.39.08.31.31,0,.16-.16.23-.31.23-.47,0-.86,0-1.25.23Z"/>
    <path class="st8" d="M45.73,52.91c.78-.23,1.33,0,1.87.47.16.16.31.31,0,.47-.62.16-1.56-.31-1.87-.94"/>
    <path class="st2" d="M45.73,52.91c.78-.23,1.33,0,1.87.47.16.16.31.31,0,.47-.62.16-1.56-.31-1.87-.94Z"/>
    <path class="st8" d="M49.87,56.19c-.08.08-.08.16-.16.16-.55-.08-1.25.08-1.72-.39-.08-.08-.16-.23,0-.31.23-.16.47-.16.7,0,.39.16.86.23,1.17.55"/>
    <path class="st2" d="M49.87,56.19c-.08.08-.08.16-.16.16-.55-.08-1.25.08-1.72-.39-.08-.08-.16-.23,0-.31.23-.16.47-.16.7,0,.39.16.86.23,1.17.55Z"/>
    <path class="st8" d="M56.11,56.89c.08.94.08,1.72-.16,2.66-.16-.94-.23-1.72.16-2.66"/>
    <path class="st2" d="M56.11,56.89c.08.94.08,1.72-.16,2.66-.16-.94-.23-1.72.16-2.66Z"/>
    <path class="st9" d="M51.27,49.24c-.31,1.48-.08,2.97-.39,4.45-.31-.55-.55-1.09-.78-1.56-1.02-2.11-2.26-3.98-4.3-5.31-1.17-.78-2.58-1.17-3.75-2.11,0,0-.16,0-.23.08.62,1.09,1.09,2.19,1.33,3.44.7,3.36,1.95,6.4,4.61,8.75.86.78,1.95,1.17,2.89,1.87.47.31,1.02.55,1.09,1.17.39,1.64.78,3.36,1.25,5,.55,1.95.62,4.14,2.42,5.54.39.23.62.94,1.02.78.47-.23.47-.94.47-1.41,0-.08-.08-.23-.08-.31-.23-1.72-.78-3.44-1.41-5.08-1.09-2.81.31-4.14,2.19-5.15.55-.31,1.25-.47,1.72-.86,1.64-1.17,2.89-2.73,3.83-4.45,1.09-2.03,1.87-4.22,1.95-6.64-7.03,2.26-10.46,6.48-10.54,11.95-.39-.47-.47-.62-.55-1.17-.47-2.58-.47-5.15-.47-7.73,0-.39,0-.86.31-1.17.7.16,1.33.31,2.03.16,2.11-.47,3.59-1.8,4.76-3.36,1.02-1.33,1.56-2.89,2.5-4.22.94-1.25,1.8-2.58,3.2-3.44.47-.23.23-.39-.08-.55-1.41-.78-2.89-1.02-4.3-.23-.78.47-.94.16-1.09-.55-.16-1.09-.47-2.11-.7-3.2-.78,1.09-1.64,1.95-2.42,2.81-.16.16-.23.47-.62.39-.31-.08-.16-.39-.23-.55-.47-1.41-.94-2.73-1.87-3.98-.7,1.17-.94,2.42-1.95,3.44-.94-1.87-2.11-3.51-4.06-4.45-.23-.08-.47-.39-.7-.23-.31.16-.16.47-.16.7-.08,1.95-.16,3.9-.39,5.94-.47,3.75.31,7.34,2.73,10.39.62,0,.78.39.78.86M55.72,45.96c.55-1.25,1.02-2.5,1.09-3.9-.7,1.41-1.41,2.89-2.19,4.45-.39-.94,0-1.72.16-2.42.55-1.8,1.17-3.51,2.19-5.15.7-1.17,1.8-2.03,2.66-3.12.39-.55.47,0,.55.23.94,3.2.31,6.01-1.8,8.59-.31.39-.7.7-1.17,1.02.7-2.42,1.56-4.84,2.11-7.34-1.02,2.66-1.87,5.39-3.59,7.65M51.66,50.1c0-.31.08-.55.08-.86.16-.16.23-.39.39-.55,1.17,0,1.25.08,1.09,1.17-.47,2.89,0,5.7.47,8.51.62,3.83,1.56,7.5,2.81,11.17.08.16.16.39-.08.7-.78-.62-1.56-1.09-1.87-2.11-.94-3.12-1.64-6.25-2.19-9.45-.47-2.81-.55-5.7-.7-8.51t0-.08M55.1,35.88c-1.72,2.11-2.89,4.45-3.59,7.03-.16-.62.16-1.25.23-1.87.23-1.72,1.33-2.97,2.11-4.45.39-.7.78-1.41,1.17-2.19.23-.39.47-.47.7-.08.78,1.33,1.17,2.73.39,4.22-1.25,2.34-2.11,4.84-2.81,7.42,0,.08-.08.16-.08.23-.47-.62-.39-1.72-.08-2.58.86-2.19,1.64-4.45,2.66-6.64,0-.08,0-.16-.08-.23-1.8,2.19-2.5,4.84-3.36,7.58-.47-1.72.31-3.05.86-4.45.55-1.25,1.25-2.58,1.87-3.98M50.18,35.18c-.31,0-.39.16-.39.31-.62,3.12-.78,6.17.39,9.22.23.62.62,1.17,1.02,1.8.08.16.31.39,0,.47-.23.16-.39-.08-.47-.23-.86-1.64-1.56-3.36-1.87-5.15-.39-2.11,0-4.22.23-6.33.08-.78.16-1.48.16-2.26.08-.55.31-.62.78-.39,1.25.78,2.34,1.8,2.73,3.28.08.31.16.7.08,1.02-.08.31-.23.62-.55.7-.31.08-.16-.47-.62-.47-.16.86.39,2.03-.86,2.66.08-.86.47-1.48.47-2.26,0-.62.08-1.25.08-1.87,0-.16,0-.47-.23-.47-.39,0-.31.31-.31.47.08,1.25-.31,2.5-.47,3.67,0,.16,0,.31-.23.47-.23-1.56,0-3.05.08-4.61M60.25,44.94c.31-.55.55-1.17.94-1.95-.62.31-.78.78-.94,1.09-1.09,1.8-2.5,3.28-4.53,3.98-.16.08-.31.16-.47.16s-.39.08-.47-.08c-.08-.23.16-.31.31-.39,1.25-.55,2.42-1.17,3.44-2.19,1.72-1.72,2.58-3.75,2.97-6.09.23-1.25.55-1.56,1.8-1.8.7-.08,1.41-.16,2.03.08.39.16.55.23.16.55-1.95,1.56-3.12,3.59-4.22,5.7-.16.39-.31.78-.7,1.02-.16,0-.23-.08-.31-.08M59,46.74c.47-.62.86-1.17,1.33-1.8.08.08.16.08.16.16-.31.7-.7,1.33-1.33,1.72-.08-.08-.16-.08-.16-.08M62.13,51.11c-.31-.31-.7.7-.94-.16-.55.55-.16,1.48-1.02,1.8-.16-.31.08-.7-.16-1.02-.39.86-.23,1.87-1.02,2.73,0-.78-.08-1.33-.08-1.95h-.16c-.16.86-.31,1.72-.47,2.58-.08.31.08.86-.39.78-.39-.08-.16-.55-.16-.86,0-.16,0-.31-.08-.55-.62.94.23,2.26-.78,3.12-1.02-2.42.47-4.14,1.87-5.78,1.48-1.72,3.44-2.73,5.54-3.59.39-.16.62,0,.47.39-1.09,3.98-2.5,7.73-6.48,9.92-.31.16-.62.39-1.09.16,1.33-2.58,3.12-5.08,4.92-7.58M50.57,55.64c-2.19-2.19-3.9-4.69-5.39-7.5-.23.55-.39.94.08,1.25.47.39-.08.47-.23.7.31.31,1.02.31,1.02.86,0,.47-.47,0-.7.31.47.31,1.09.39,1.41.86-1.17.62-1.56.47-1.87-.7-.39-1.41-.78-2.81-1.09-4.3-.08-.23-.16-.47.08-.62.16-.08.39.08.55.16,2.42,1.17,3.9,3.2,5,5.47.62,1.17,1.02,2.34,1.17,3.51M47.37,55.33c-.39,0-.39-.39-.55-.62-.08-.08-.23-.31-.08-.47.16-.23.47-.08.62,0,.39.08.86.23,1.25.31.16.08.39.08.31.31,0,.16-.16.23-.31.23-.47,0-.86,0-1.25.23M45.73,52.91c.78-.23,1.33,0,1.87.47.16.16.31.31,0,.47-.62.16-1.56-.31-1.87-.94M49.87,56.19c-.08.08-.08.16-.16.16-.55-.08-1.25.08-1.72-.39-.08-.08-.16-.23,0-.31.23-.16.47-.16.7,0,.39.16.86.23,1.17.55M56.11,56.89c.08.94.08,1.72-.16,2.66-.16-.94-.23-1.72.16-2.66"/>
    <path class="st10" d="M52.99,137.18c-.55,1.25-1.02,2.5-1.09,3.9.7-1.41,1.41-2.89,2.19-4.53.39.94,0,1.72-.16,2.42-.55,1.8-1.17,3.51-2.19,5.15-.7,1.17-1.8,2.03-2.66,3.12-.39.55-.47,0-.55-.23-.94-3.2-.31-6.01,1.8-8.59.31-.39.7-.7,1.17-1.02-.7,2.42-1.56,4.84-2.11,7.26,1.02-2.58,1.87-5.31,3.59-7.5"/>
    <path class="st5" d="M52.99,137.18c-.55,1.25-1.02,2.5-1.09,3.9.7-1.41,1.41-2.89,2.19-4.53.39.94,0,1.72-.16,2.42-.55,1.8-1.17,3.51-2.19,5.15-.7,1.17-1.8,2.03-2.66,3.12-.39.55-.47,0-.55-.23-.94-3.2-.31-6.01,1.8-8.59.31-.39.7-.7,1.17-1.02-.7,2.42-1.56,4.84-2.11,7.26,1.02-2.58,1.87-5.31,3.59-7.5Z"/>
    <path class="st8" d="M57.13,132.96c0,.31-.08.55-.08.86-.16.16-.23.39-.39.55-1.17,0-1.25-.08-1.09-1.17.47-2.89,0-5.7-.47-8.51-.62-3.83-1.56-7.5-2.81-11.17-.08-.16-.16-.39.08-.7.78.62,1.56,1.09,1.87,2.11.94,3.12,1.64,6.25,2.19,9.45.47,2.81.55,5.7.7,8.51-.08,0-.08.08,0,.08"/>
    <path class="st2" d="M57.13,132.96c0,.31-.08.55-.08.86-.16.16-.23.39-.39.55-1.17,0-1.25-.08-1.09-1.17.47-2.89,0-5.7-.47-8.51-.62-3.83-1.56-7.5-2.81-11.17-.08-.16-.16-.39.08-.7.78.62,1.56,1.09,1.87,2.11.94,3.12,1.64,6.25,2.19,9.45.47,2.81.55,5.7.7,8.51-.08,0-.08.08,0,.08Z"/>
    <path class="st10" d="M53.62,147.17c1.72-2.11,2.89-4.45,3.59-7.03.16.62-.16,1.25-.23,1.87-.23,1.72-1.33,2.97-2.11,4.45-.39.7-.78,1.41-1.17,2.19-.23.39-.47.47-.7.08-.78-1.33-1.17-2.73-.39-4.22,1.25-2.34,2.11-4.84,2.81-7.42,0-.08.08-.16.08-.23.47.62.39,1.72.08,2.58-.86,2.19-1.64,4.45-2.66,6.64,0,.08,0,.16.08.23,1.8-2.19,2.5-4.84,3.36-7.58.47,1.72-.31,3.05-.86,4.45-.55,1.33-1.25,2.58-1.87,3.98"/>
    <path class="st5" d="M53.62,147.17c1.72-2.11,2.89-4.45,3.59-7.03.16.62-.16,1.25-.23,1.87-.23,1.72-1.33,2.97-2.11,4.45-.39.7-.78,1.41-1.17,2.19-.23.39-.47.47-.7.08-.78-1.33-1.17-2.73-.39-4.22,1.25-2.34,2.11-4.84,2.81-7.42,0-.08.08-.16.08-.23.47.62.39,1.72.08,2.58-.86,2.19-1.64,4.45-2.66,6.64,0,.08,0,.16.08.23,1.8-2.19,2.5-4.84,3.36-7.58.47,1.72-.31,3.05-.86,4.45-.55,1.33-1.25,2.58-1.87,3.98Z"/>
    <path class="st10" d="M58.54,147.87c.31,0,.39-.16.39-.31.62-3.12.78-6.17-.39-9.22-.23-.62-.62-1.17-1.02-1.8-.08-.16-.31-.39,0-.47.23-.16.39.08.47.23.86,1.64,1.56,3.36,1.87,5.15.39,2.11,0,4.22-.23,6.33-.08.78-.08,1.56-.16,2.26-.08.55-.31.62-.78.39-1.25-.78-2.26-1.8-2.73-3.28-.08-.31-.16-.7-.08-1.02.08-.31.23-.62.55-.7.31-.08.16.47.62.47.16-.86-.39-2.03.86-2.66-.08.86-.47,1.48-.47,2.26,0,.62-.08,1.25-.08,1.87,0,.16,0,.47.23.47.39,0,.31-.31.31-.47-.08-1.25.31-2.5.47-3.67,0-.16,0-.31.23-.47.23,1.56,0,3.05-.08,4.61"/>
    <path class="st5" d="M58.54,147.87c.31,0,.39-.16.39-.31.62-3.12.78-6.17-.39-9.22-.23-.62-.62-1.17-1.02-1.8-.08-.16-.31-.39,0-.47.23-.16.39.08.47.23.86,1.64,1.56,3.36,1.87,5.15.39,2.11,0,4.22-.23,6.33-.08.78-.08,1.56-.16,2.26-.08.55-.31.62-.78.39-1.25-.78-2.26-1.8-2.73-3.28-.08-.31-.16-.7-.08-1.02.08-.31.23-.62.55-.7.31-.08.16.47.62.47.16-.86-.39-2.03.86-2.66-.08.86-.47,1.48-.47,2.26,0,.62-.08,1.25-.08,1.87,0,.16,0,.47.23.47.39,0,.31-.31.31-.47-.08-1.25.31-2.5.47-3.67,0-.16,0-.31.23-.47.23,1.56,0,3.05-.08,4.61Z"/>
    <path class="st10" d="M48.46,138.19c-.31.55-.55,1.17-.94,1.95.62-.31.78-.78.94-1.09,1.09-1.8,2.5-3.28,4.53-3.98.16-.08.31-.16.47-.16s.39-.08.47.08c.08.23-.16.31-.31.39-1.25.55-2.42,1.17-3.36,2.19-1.72,1.72-2.58,3.75-2.97,6.09-.23,1.25-.55,1.56-1.8,1.8-.7.08-1.41.16-2.03-.08-.39-.16-.55-.23-.16-.55,1.95-1.56,3.12-3.59,4.22-5.7.16-.39.31-.78.7-1.02.16-.08.16,0,.23.08"/>
    <path class="st5" d="M48.46,138.19c-.31.55-.55,1.17-.94,1.95.62-.31.78-.78.94-1.09,1.09-1.8,2.5-3.28,4.53-3.98.16-.08.31-.16.47-.16s.39-.08.47.08c.08.23-.16.31-.31.39-1.25.55-2.42,1.17-3.36,2.19-1.72,1.72-2.58,3.75-2.97,6.09-.23,1.25-.55,1.56-1.8,1.8-.7.08-1.41.16-2.03-.08-.39-.16-.55-.23-.16-.55,1.95-1.56,3.12-3.59,4.22-5.7.16-.39.31-.78.7-1.02.16-.08.16,0,.23.08Z"/>
    <path class="st10" d="M49.79,136.39c-.47.62-.86,1.17-1.33,1.8-.08-.08-.16-.08-.16-.16.31-.7.7-1.33,1.33-1.72q.08,0,.16.08"/>
    <path class="st8" d="M46.66,131.94c.31.31.7-.7.94.16.55-.55.16-1.48,1.02-1.8.16.31-.08.7.16,1.02.39-.86.23-1.87,1.02-2.73,0,.78.08,1.33.08,1.95h.16c.16-.86.31-1.72.47-2.58.08-.31-.08-.86.39-.78.39.08.16.55.16.86,0,.16,0,.31.08.55.62-.94-.23-2.26.78-3.12,1.02,2.42-.47,4.14-1.87,5.78-1.48,1.72-3.44,2.73-5.54,3.59-.39.16-.62,0-.47-.39,1.09-3.98,2.5-7.73,6.48-9.92.31-.16.62-.39,1.09-.16-1.41,2.66-3.2,5.08-4.92,7.58"/>
    <path class="st2" d="M46.66,131.94c.31.31.7-.7.94.16.55-.55.16-1.48,1.02-1.8.16.31-.08.7.16,1.02.39-.86.23-1.87,1.02-2.73,0,.78.08,1.33.08,1.95h.16c.16-.86.31-1.72.47-2.58.08-.31-.08-.86.39-.78.39.08.16.55.16.86,0,.16,0,.31.08.55.62-.94-.23-2.26.78-3.12,1.02,2.42-.47,4.14-1.87,5.78-1.48,1.72-3.44,2.73-5.54,3.59-.39.16-.62,0-.47-.39,1.09-3.98,2.5-7.73,6.48-9.92.31-.16.62-.39,1.09-.16-1.41,2.66-3.2,5.08-4.92,7.58Z"/>
    <path class="st8" d="M58.14,127.41c2.19,2.19,3.9,4.69,5.39,7.5.23-.55.39-.94-.08-1.25-.47-.39.08-.47.23-.7-.31-.31-1.02-.31-1.02-.86,0-.47.47,0,.7-.31-.47-.31-1.09-.39-1.41-.86,1.17-.62,1.56-.47,1.87.7.39,1.41.78,2.81,1.09,4.3.08.23.16.47-.08.62-.16.08-.39-.08-.55-.16-2.42-1.17-3.9-3.2-5-5.47-.55-1.17-1.02-2.26-1.17-3.51"/>
    <path class="st2" d="M58.14,127.41c2.19,2.19,3.9,4.69,5.39,7.5.23-.55.39-.94-.08-1.25-.47-.39.08-.47.23-.7-.31-.31-1.02-.31-1.02-.86,0-.47.47,0,.7-.31-.47-.31-1.09-.39-1.41-.86,1.17-.62,1.56-.47,1.87.7.39,1.41.78,2.81,1.09,4.3.08.23.16.47-.08.62-.16.08-.39-.08-.55-.16-2.42-1.17-3.9-3.2-5-5.47-.55-1.17-1.02-2.26-1.17-3.51Z"/>
    <path class="st8" d="M61.35,127.8c.39,0,.39.39.55.62.08.08.23.31.08.47-.16.23-.47.08-.62,0-.39-.08-.86-.23-1.25-.31-.16-.08-.39-.08-.31-.31,0-.16.16-.23.31-.23.47,0,.86-.08,1.25-.23"/>
    <path class="st2" d="M61.35,127.8c.39,0,.39.39.55.62.08.08.23.31.08.47-.16.23-.47.08-.62,0-.39-.08-.86-.23-1.25-.31-.16-.08-.39-.08-.31-.31,0-.16.16-.23.31-.23.47,0,.86-.08,1.25-.23Z"/>
    <path class="st8" d="M62.99,130.15c-.78.23-1.33,0-1.87-.47-.16-.16-.31-.31,0-.47.62-.16,1.64.31,1.87.94"/>
    <path class="st2" d="M62.99,130.15c-.78.23-1.33,0-1.87-.47-.16-.16-.31-.31,0-.47.62-.16,1.64.31,1.87.94Z"/>
    <path class="st8" d="M58.93,126.87c.08-.08.08-.16.16-.16.55.08,1.25-.08,1.72.39.08.08.16.23,0,.31-.23.16-.47.16-.7,0-.47-.16-.94-.16-1.17-.55"/>
    <path class="st2" d="M58.93,126.87c.08-.08.08-.16.16-.16.55.08,1.25-.08,1.72.39.08.08.16.23,0,.31-.23.16-.47.16-.7,0-.47-.16-.94-.16-1.17-.55Z"/>
    <path class="st8" d="M52.68,126.24c-.08-.94-.08-1.72.16-2.66.08.94.16,1.64-.16,2.66"/>
    <path class="st2" d="M52.68,126.24c-.08-.94-.08-1.72.16-2.66.08.94.16,1.64-.16,2.66Z"/>
    <path class="st9" d="M57.44,133.82c.31-1.48.16-2.97.39-4.45.31.55.55,1.09.78,1.56,1.02,2.11,2.26,3.98,4.3,5.31,1.17.78,2.58,1.17,3.75,2.11,0,0,.16,0,.23-.08-.62-1.09-1.09-2.19-1.33-3.44-.7-3.36-1.95-6.4-4.61-8.75-.86-.78-1.95-1.17-2.89-1.87-.47-.31-1.02-.55-1.09-1.17-.39-1.64-.78-3.36-1.25-5-.55-1.95-.62-4.14-2.42-5.54-.39-.23-.62-.94-1.02-.78-.47.23-.47.94-.47,1.41,0,.08.08.23.08.31.23,1.72.78,3.44,1.41,5.08,1.09,2.81-.31,4.14-2.19,5.15-.55.31-1.25.47-1.72.86-1.64,1.17-2.89,2.73-3.83,4.45-1.09,2.03-1.87,4.22-1.95,6.64,7.03-2.26,10.46-6.48,10.54-11.95.39.47.47.62.55,1.17.47,2.58.47,5.15.47,7.73,0,.39,0,.86-.31,1.17-.7-.16-1.33-.31-2.03-.16-2.11.47-3.59,1.8-4.76,3.36-1.02,1.33-1.56,2.89-2.5,4.22-.94,1.25-1.8,2.58-3.2,3.44-.47.23-.23.39.08.55,1.41.78,2.89,1.02,4.3.23.78-.47.94-.16,1.09.55.16,1.09.47,2.11.7,3.2.78-1.09,1.64-1.95,2.42-2.81.16-.16.23-.47.62-.39.31.08.16.39.23.55.47,1.41.94,2.73,1.87,3.98.7-1.17.94-2.5,1.95-3.44.94,1.87,2.11,3.51,4.06,4.45.23.08.47.39.7.23.31-.16.16-.47.16-.7.08-1.95.16-3.9.39-5.94.47-3.75-.31-7.34-2.73-10.39-.62,0-.78-.39-.78-.86M52.99,137.18c-.55,1.25-1.02,2.5-1.09,3.9.7-1.41,1.41-2.89,2.19-4.45.39.94,0,1.72-.16,2.42-.55,1.8-1.17,3.51-2.19,5.15-.7,1.17-1.8,2.03-2.66,3.12-.39.55-.47,0-.55-.23-.94-3.2-.31-6.01,1.8-8.59.31-.39.7-.7,1.17-1.02-.7,2.42-1.56,4.84-2.11,7.34,1.02-2.73,1.87-5.47,3.59-7.65M57.13,132.96c0,.31-.08.55-.08.86-.16.16-.23.39-.39.55-1.17,0-1.25-.08-1.09-1.17.47-2.89,0-5.7-.47-8.51-.62-3.83-1.56-7.5-2.81-11.17-.08-.16-.16-.39.08-.7.78.62,1.56,1.09,1.87,2.11.94,3.12,1.64,6.25,2.19,9.45.47,2.81.55,5.7.7,8.51-.08,0-.08.08,0,.08M53.62,147.17c1.72-2.11,2.89-4.45,3.59-7.03.16.62-.16,1.25-.23,1.87-.23,1.72-1.33,2.97-2.11,4.45-.39.7-.78,1.41-1.17,2.19-.23.39-.47.47-.7.08-.78-1.33-1.17-2.73-.39-4.22,1.25-2.34,2.11-4.84,2.81-7.42,0-.08.08-.16.08-.23.47.62.39,1.72.08,2.58-.86,2.19-1.64,4.45-2.66,6.64,0,.08,0,.16.08.23,1.8-2.19,2.5-4.84,3.36-7.58.47,1.72-.31,3.05-.86,4.45-.55,1.33-1.25,2.58-1.87,3.98M58.54,147.87c.31,0,.39-.16.39-.31.62-3.12.78-6.17-.39-9.22-.23-.62-.62-1.17-1.02-1.8-.08-.16-.31-.39,0-.47.23-.16.39.08.47.23.86,1.64,1.56,3.36,1.87,5.15.39,2.11,0,4.22-.23,6.33-.08.78-.16,1.48-.16,2.26-.08.55-.31.62-.78.39-1.25-.78-2.34-1.8-2.73-3.28-.08-.31-.16-.7-.08-1.02.08-.31.23-.62.55-.7.31-.08.16.47.62.47.16-.86-.39-2.03.86-2.66-.08.86-.47,1.48-.47,2.26,0,.62-.08,1.25-.08,1.87,0,.16,0,.47.23.47.39,0,.31-.31.31-.47-.08-1.25.31-2.5.47-3.67,0-.16,0-.31.23-.47.23,1.56,0,3.05-.08,4.61M48.46,138.19c-.31.55-.55,1.17-.94,1.95.62-.31.78-.78.94-1.09,1.09-1.8,2.5-3.28,4.53-3.98.16-.08.31-.16.47-.16s.39-.08.47.08c.08.23-.16.31-.31.39-1.25.55-2.42,1.17-3.44,2.19-1.72,1.72-2.58,3.75-2.97,6.09-.23,1.25-.55,1.56-1.8,1.8-.7.08-1.41.16-2.03-.08-.39-.16-.55-.23-.16-.55,1.95-1.56,3.12-3.59,4.22-5.7.16-.39.31-.78.7-1.02.23-.08.23,0,.31.08M49.79,136.39c-.39.62-.86,1.17-1.25,1.8-.08-.08-.16-.08-.16-.16.31-.7.7-1.33,1.33-1.72t.08.08M46.66,131.94c.31.31.7-.7.94.16.55-.55.16-1.48,1.02-1.8.16.31-.08.7.16,1.02.39-.86.23-1.87,1.02-2.73,0,.78.08,1.33.08,1.95h.16c.16-.86.31-1.72.47-2.58.08-.31-.08-.86.39-.78.39.08.16.55.16.86,0,.16,0,.31.08.55.62-.94-.23-2.26.78-3.12,1.02,2.42-.47,4.14-1.87,5.78-1.48,1.72-3.44,2.73-5.54,3.59-.39.16-.62,0-.47-.39,1.09-3.98,2.5-7.73,6.48-9.92.31-.16.62-.39,1.09-.16-1.41,2.66-3.2,5.08-4.92,7.58M58.14,127.41c2.19,2.19,3.9,4.69,5.39,7.5.23-.55.39-.94-.08-1.25-.47-.39.08-.47.23-.7-.31-.31-1.02-.31-1.02-.86,0-.47.47,0,.7-.31-.47-.31-1.09-.39-1.41-.86,1.17-.62,1.56-.47,1.87.7.39,1.41.78,2.81,1.09,4.3.08.23.16.47-.08.62-.16.08-.39-.08-.55-.16-2.42-1.17-3.9-3.2-5-5.47-.55-1.17-1.02-2.26-1.17-3.51M61.35,127.8c.39,0,.39.39.55.62.08.08.23.31.08.47-.16.23-.47.08-.62,0-.39-.08-.86-.23-1.25-.31-.16-.08-.39-.08-.31-.31,0-.16.16-.23.31-.23.47,0,.86-.08,1.25-.23M62.99,130.15c-.78.23-1.33,0-1.87-.47-.16-.16-.31-.31,0-.47.62-.16,1.64.31,1.87.94M58.93,126.87c.08-.08.08-.16.16-.16.55.08,1.25-.08,1.72.39.08.08.16.23,0,.31-.23.16-.47.16-.7,0-.47-.16-.94-.16-1.17-.55M52.68,126.24c-.08-.94-.08-1.72.16-2.66.08.94.16,1.64-.16,2.66"/>
    <path class="st12" d="M85.79,39.79c.55.39,1.02.94,1.72,1.09,2.11.55,3.36,1.95,4.45,3.59.16.16.16.62.55.55.47-.16.31-.55.23-.86-.47-1.41-1.41-2.42-2.58-3.2-1.33-.86-2.81-1.09-4.3-1.33-.23-.47-.47-.94-.78-1.33-1.48-2.11-3.51-3.44-6.25-3.44-.31,0-.62,0-.7.47-.08.55.39.31.62.39,1.8.23,3.44.94,4.69,2.19.78.62,1.41,1.48,2.34,1.87"/>
    <path class="st0" d="M85.79,39.79c.55.39,1.02.94,1.72,1.09,2.11.55,3.36,1.95,4.45,3.59.16.16.16.62.55.55.47-.16.31-.55.23-.86-.47-1.41-1.41-2.42-2.58-3.2-1.33-.86-2.81-1.09-4.3-1.33-.23-.47-.47-.94-.78-1.33-1.48-2.11-3.51-3.44-6.25-3.44-.31,0-.62,0-.7.47-.08.55.39.31.62.39,1.8.23,3.44.94,4.69,2.19.78.62,1.41,1.48,2.34,1.87Z"/>
    <path class="st8" d="M73.3,64.16c-.08.08-.08.16-.16.16-.78.94-1.48,1.95-2.11,2.97-.08.08-.16.23-.23.31-1.64,2.34-3.36,4.76-5,7.11-.55.86-1.17,1.72-1.72,2.58-.47.62-1.25.78-1.95,1.17-.08,0-.08.08-.16.08-.23.08-.47.23-.7.31-.47.08-.86.31-1.17.55q-.08,0-.16.08h-.16c-.08,0-.23,0-.31-.08.55-.86,1.09-1.64,1.64-2.5,6.25-9.06,12.5-18.2,18.66-27.41,1.95-2.81,3.83-5.7,5.7-8.51.7-.23,1.25.23,1.87.31.39,0,.7.16,1.09.23.08.08.16.08.23.16h0v.16h0c0,.08-.08.08-.08.16-.08,0-.08.08-.08.16-1.33,1.72-2.5,3.44-3.67,5.23h0c-.23.16-.39.39-.47.7h0c-.94,1.09-1.72,2.26-2.42,3.51h0c-.39.31-.62.78-.86,1.17-.08.08-.08.16-.16.16l-.16.16c-.08,0-.08.08-.08.16-2.5,3.67-5,7.26-7.42,10.93"/>
    <path class="st6" d="M73.3,64.16c-.08.08-.08.16-.16.16-.78.94-1.48,1.95-2.11,2.97-.08.08-.16.23-.23.31-1.64,2.34-3.36,4.76-5,7.11-.55.86-1.17,1.72-1.72,2.58-.47.62-1.25.78-1.95,1.17-.08,0-.08.08-.16.08-.23.08-.47.23-.7.31-.47.08-.86.31-1.17.55q-.08,0-.16.08h-.16c-.08,0-.23,0-.31-.08.55-.86,1.09-1.64,1.64-2.5,6.25-9.06,12.5-18.2,18.66-27.41,1.95-2.81,3.83-5.7,5.7-8.51.7-.23,1.25.23,1.87.31.39,0,.7.16,1.09.23.08.08.16.08.23.16h0v.16h0c0,.08-.08.08-.08.16-.08,0-.08.08-.08.16-1.33,1.72-2.5,3.44-3.67,5.23h0c-.23.16-.39.39-.47.7h0c-.94,1.09-1.72,2.26-2.42,3.51h0c-.39.31-.62.78-.86,1.17-.08.08-.08.16-.16.16l-.16.16c-.08,0-.08.08-.08.16-2.5,3.67-5,7.26-7.42,10.93Z"/>
    <path class="st8" d="M58.46,77.67c0-.16,0-.39.08-.55.16-.23.16-.55.08-.86,0-.55.23-1.09.55-1.56,7.89-11.87,15.78-23.74,23.59-35.69.31-.47.55-.86.94,0,.23.55.7,1.02,1.02,1.48,0,.31-.23.55-.47.78-1.64,2.42-3.28,4.84-4.92,7.34-5.86,8.9-11.87,17.88-17.88,26.79-1.02,1.48-1.95,3.05-3.12,4.37.08-.55.08-1.02.16-1.56.08-.16.08-.31,0-.55"/>
    <path class="st6" d="M58.46,77.67c0-.16,0-.39.08-.55.16-.23.16-.55.08-.86,0-.55.23-1.09.55-1.56,7.89-11.87,15.78-23.74,23.59-35.69.31-.47.55-.86.94,0,.23.55.7,1.02,1.02,1.48,0,.31-.23.55-.47.78-1.64,2.42-3.28,4.84-4.92,7.34-5.86,8.9-11.87,17.88-17.88,26.79-1.02,1.48-1.95,3.05-3.12,4.37.08-.55.08-1.02.16-1.56.08-.16.08-.31,0-.55Z"/>
    <path class="st12" d="M79.47,33.39c2.97,0,5.31,1.33,7.03,3.59.47.62.94.86,1.64,1.09,3.05.86,5.31,2.66,6.33,5.7.08.23.31.55-.16.62-.31.08-.62.23-.86-.31-1.02-2.89-3.28-4.3-6.17-4.84-.62-.16-1.02-.39-1.33-.94-1.56-2.5-3.83-3.98-6.87-4.06-.23,0-.39,0-.62-.08-.31-.08-.31-.31-.31-.55s.23-.16.39-.23c.31,0,.62,0,.94,0"/>
    <path class="st0" d="M79.47,33.39c2.97,0,5.31,1.33,7.03,3.59.47.62.94.86,1.64,1.09,3.05.86,5.31,2.66,6.33,5.7.08.23.31.55-.16.62-.31.08-.62.23-.86-.31-1.02-2.89-3.28-4.3-6.17-4.84-.62-.16-1.02-.39-1.33-.94-1.56-2.5-3.83-3.98-6.87-4.06-.23,0-.39,0-.62-.08-.31-.08-.31-.31-.31-.55s.23-.16.39-.23c.31,0,.62,0,.94,0Z"/>
    <path class="st12" d="M99.46,23.7c0,1.25-.94,2.34-2.19,2.34-1.25.08-2.26-1.02-2.34-2.26,0-1.17,1.02-2.26,2.19-2.34,1.25,0,2.34,1.02,2.34,2.26"/>
    <path class="st1" d="M99.46,23.7c0,1.25-.94,2.34-2.19,2.34-1.25.08-2.26-1.02-2.34-2.26,0-1.17,1.02-2.26,2.19-2.34,1.25,0,2.34,1.02,2.34,2.26Z"/>
    <path class="st10" d="M95.79,31.59c-1.25.94-2.66,1.25-4.06,1.41-1.48.23-2.89.39-4.37.7-.16.08-.39.16-.55-.08s.08-.39.23-.47c.78-.7,1.64-1.25,2.66-1.56,2.19-.7,4.53-.62,6.72-1.33-2.11,1.8-5,1.25-7.26,2.42,2.19-.55,4.53-.31,6.64-1.09"/>
    <path class="st5" d="M95.79,31.59c-1.25.94-2.66,1.25-4.06,1.41-1.48.23-2.89.39-4.37.7-.16.08-.39.16-.55-.08s.08-.39.23-.47c.78-.7,1.64-1.25,2.66-1.56,2.19-.7,4.53-.62,6.72-1.33-2.11,1.8-5,1.25-7.26,2.42,2.19-.55,4.53-.31,6.64-1.09Z"/>
    <path class="st12" d="M96.1,46.74c0,.94-.7,1.72-1.72,1.8-.94,0-1.8-.78-1.8-1.64,0-.94.78-1.72,1.72-1.8.94-.08,1.72.62,1.8,1.64"/>
    <path class="st0" d="M96.1,46.74c0,.94-.7,1.72-1.72,1.8-.94,0-1.8-.78-1.8-1.64,0-.94.78-1.72,1.72-1.8.94-.08,1.72.62,1.8,1.64Z"/>
    <path class="st12" d="M75.79,36.35c-1.02,0-1.8-.7-1.8-1.72,0-.94.78-1.72,1.72-1.72s1.8.78,1.8,1.72c.08.94-.7,1.64-1.72,1.72"/>
    <path class="st0" d="M75.79,36.35c-1.02,0-1.8-.7-1.8-1.72,0-.94.78-1.72,1.72-1.72s1.8.78,1.8,1.72c.08.94-.7,1.64-1.72,1.72Z"/>
    <path class="st10" d="M94.38,33.39c-2.42.7-4.92,1.09-7.26,1.87,0,.08,0,.16.08.23,2.26-.39,4.61-.86,6.87-1.25-1.25.7-2.58,1.09-3.9,1.25-.94.16-1.87,0-2.73.23-.55.16-.86-.39-1.09-.7s.23-.39.47-.47c1.25-.47,2.66-.7,3.98-.78,1.09-.08,2.34-.39,3.59-.39"/>
    <path class="st5" d="M94.38,33.39c-2.42.7-4.92,1.09-7.26,1.87,0,.08,0,.16.08.23,2.26-.39,4.61-.86,6.87-1.25-1.25.7-2.58,1.09-3.9,1.25-.94.16-1.87,0-2.73.23-.55.16-.86-.39-1.09-.7s.23-.39.47-.47c1.25-.47,2.66-.7,3.98-.78,1.09-.08,2.34-.39,3.59-.39Z"/>
    <path class="st10" d="M96.8,28.08c-1.64,1.48-3.98.86-5.78,1.95,1.41.08,2.81-.23,4.22-.39-2.11.94-4.45.86-6.64,1.72.08-.62.47-.94.86-1.25.78-.47,1.64-.78,2.5-1.02,1.56-.47,3.2-.62,4.84-1.02"/>
    <path class="st5" d="M96.8,28.08c-1.64,1.48-3.98.86-5.78,1.95,1.41.08,2.81-.23,4.22-.39-2.11.94-4.45.86-6.64,1.72.08-.62.47-.94.86-1.25.78-.47,1.64-.78,2.5-1.02,1.56-.47,3.2-.62,4.84-1.02Z"/>
    <path class="st10" d="M92.59,27.45c1.33.08,2.5-.31,3.83-.31-1.72.78-3.67.94-5.62,1.41.78-1.56,2.66-2.34,4.69-1.95-1.02.55-2.03.39-2.89.86"/>
    <path class="st5" d="M92.59,27.45c1.33.08,2.5-.31,3.83-.31-1.72.78-3.67.94-5.62,1.41.78-1.56,2.66-2.34,4.69-1.95-1.02.55-2.03.39-2.89.86Z"/>
    <path class="st12" d="M100.16,21.12c.08-.31.23-.62,0-.94-.16-.08-.23.08-.23.16-.39.55-1.02.55-1.56.31-.39-.16-.31-.55-.23-.78.08-.55.47-1.02,1.02-1.09.78-.16,1.33.16,1.64.78.23.7.08,1.25-.62,1.56"/>
    <path class="st1" d="M100.16,21.12c.08-.31.23-.62,0-.94-.16-.08-.23.08-.23.16-.39.55-1.02.55-1.56.31-.39-.16-.31-.55-.23-.78.08-.55.47-1.02,1.02-1.09.78-.16,1.33.16,1.64.78.23.7.08,1.25-.62,1.56Z"/>
    <path class="st10" d="M93.6,35.49c-.08.47-.31.62-.62.7-1.48.31-2.97.62-4.53.94-.31.08-.7.16-.7-.31s.39-.31.62-.39c1.8-.16,3.51-.47,5.23-.94"/>
    <path class="st5" d="M93.6,35.49c-.08.47-.31.62-.62.7-1.48.31-2.97.62-4.53.94-.31.08-.7.16-.7-.31s.39-.31.62-.39c1.8-.16,3.51-.47,5.23-.94Z"/>
    <path class="st10" d="M92.19,37.13c-.86.47-1.8.47-2.73.39.86-.62,1.87-.31,2.73-.39"/>
    <path class="st5" d="M92.19,37.13c-.86.47-1.8.47-2.73.39.86-.62,1.87-.31,2.73-.39Z"/>
    <path class="st10" d="M91.49,38.07c.23,0,.47.08.47.23,0,.23-.16.39-.31.39-.23,0-.39-.16-.39-.31-.08-.23.16-.23.23-.31"/>
    <path class="st10" d="M94.62,33.23c.16-.16.31-.31.62-.23-.16.23-.31.31-.62.23"/>
    <path class="st5" d="M94.62,33.23c.16-.16.31-.31.62-.23-.16.23-.31.31-.62.23Z"/>
    <path class="st9" d="M57.52,81.96c2.11-1.09,4.14-2.26,6.25-3.36.39-.23.78-.47.94-.94,2.26-3.12,4.53-6.33,6.72-9.53,1.41-1.8,2.73-3.67,3.98-5.62.08-.08.08-.16.16-.23,0-.08.08-.08.08-.16l1.02-1.41c.08,0,.08-.08.08-.16.08-.08.08-.16.16-.23.62-.7,1.09-1.56,1.64-2.34,1.48-2.11,2.89-4.22,4.45-6.25.94-1.25,1.72-2.5,2.66-3.75,1.02-1.25,1.95-2.66,2.81-4.06s1.09-1.48,2.11-.23c.7.94,1.56,1.8,1.41,3.12-.08,1.09.86,2.03,1.87,2.26,1.17.23,2.26-.39,2.89-1.56.39-.78.08-1.95-.7-2.66-.23-.23-.55-.39-.62-.86-.39-1.64-1.17-3.12-2.5-4.3-.39-.31-.47-.7-.08-1.09,1.33-1.72,2.42-3.59,3.44-5.47.94-1.87,1.72-3.75,1.56-5.86,0-.47,0-.62.47-.78,1.64-.62,2.34-2.19,1.8-3.83-.16-.55-.08-.62.39-.86,1.02-.55,1.41-1.8.94-2.73-.55-.94-1.41-1.33-2.5-1.09-.94.23-1.56,1.02-1.48,2.11,0,.31.08.47-.39.55-2.11.31-3.05,1.72-2.66,3.83.08.31.08.39-.23.47-1.41.31-2.42,1.17-3.36,2.11-2.03,1.95-3.67,4.14-5.15,6.48-.39.62-.7.7-1.33.31-1.87-1.17-3.9-1.64-6.09-1.25-.39.08-.78,0-1.17-.23-1.33-.7-2.26-.39-3.2.62-.7.78-.62,2.19.08,2.97.94,1.02,2.19,1.17,3.28.55.23-.16.47-.31.78-.31,1.56.16,3.05.55,4.37,1.48.31.23.31.39.16.7-.39.62-.86,1.25-1.25,1.8-5.54,8.43-11.01,16.79-16.56,25.23-2.03,3.12-4.06,6.25-6.17,9.45l-.08.16c0,.16-.08.31-.08.55-.16.08-.16.23-.16.31v.31c-.16.08-.16.23-.08.31v.39c-.16.16-.16.31-.08.47-.08.31-.23.7-.16,1.02q0,.08-.08.16c0,.16-.08.39-.08.55-.16.23-.16.47-.16.7-.16.31-.23.55-.16.86-.16.08-.16.23-.08.31v.39c-.16.23-.23.47-.08.7-.08.23.08.08.23-.08M99.93,20.34c-.39.55-1.02.55-1.56.31-.39-.16-.31-.55-.23-.78.08-.55.47-1.02,1.02-1.09.78-.16,1.33.16,1.64.78.23.62.08,1.17-.55,1.48.08-.31.23-.62,0-.94-.23.08-.23.16-.31.23M84.85,47.44h0c-.23.16-.39.39-.47.7h0c-.94,1.09-1.72,2.26-2.42,3.51h0c-.39.31-.62.78-.86,1.17-.08.08-.08.16-.16.16l-.16.16c-.08,0-.08.08-.08.16-2.58,3.51-5.08,7.11-7.42,10.7-.08.08-.08.16-.16.16-.78.94-1.48,1.95-2.11,2.97-.08.08-.16.23-.23.31-1.64,2.34-3.36,4.76-5,7.11-.55.86-1.17,1.72-1.72,2.58-.47.62-1.25.78-1.95,1.17-.08,0-.08.08-.16.08-.23.08-.47.23-.7.31-.47.08-.86.31-1.17.55q-.08,0-.16.08h-.16c-.08,0-.23,0-.31-.08.55-.86,1.09-1.64,1.64-2.5,6.25-8.9,12.5-18.04,18.66-27.26,1.95-2.81,3.83-5.7,5.7-8.51.7-.23,1.25.23,1.87.31.39,0,.7.16,1.09.23.08.08.16.08.23.16h0v.16h0c0,.08-.08.08-.08.16-.08,0-.08.08-.08.16-1.33,1.8-2.5,3.51-3.67,5.31M96.1,46.74c0,.94-.7,1.72-1.72,1.8-.94,0-1.8-.78-1.8-1.64,0-.94.78-1.72,1.72-1.8.94-.08,1.72.62,1.8,1.64M91.96,38.31c0,.23-.16.39-.31.39-.23,0-.39-.16-.39-.31,0-.23.23-.23.31-.31.16,0,.39.08.39.23M92.19,37.13c-.86.47-1.8.47-2.73.39.86-.62,1.87-.31,2.73-.39M92.98,36.2c-1.48.31-2.97.62-4.53.94-.31.08-.7.16-.7-.31s.39-.31.62-.39c1.72-.16,3.44-.47,5.23-.94-.08.55-.31.62-.62.7M95.24,33c-.16.23-.31.39-.62.23.23-.16.39-.31.62-.23M94.93,23.78c0-1.17,1.02-2.26,2.19-2.34s2.26,1.02,2.34,2.26c0,1.25-.94,2.34-2.19,2.34-1.25.08-2.26-1.02-2.34-2.26M95.47,26.59c-1.02.55-2.11.39-2.89.86,1.33.08,2.5-.31,3.83-.31-1.72.78-3.67.94-5.62,1.41.78-1.48,2.66-2.26,4.69-1.95M89.46,30.11c.78-.47,1.64-.78,2.5-1.02,1.56-.47,3.2-.62,4.84-1.02-1.64,1.48-3.98.86-5.78,1.95,1.41.08,2.81-.23,4.22-.39-2.11.94-4.45.86-6.64,1.72,0-.7.47-1.02.86-1.25M86.81,33.7c-.16-.23.08-.39.23-.47.78-.7,1.64-1.25,2.66-1.56,2.19-.7,4.53-.62,6.72-1.33-2.11,1.8-5,1.25-7.26,2.42,2.19-.55,4.53-.31,6.72-1.09-1.25.94-2.66,1.25-4.06,1.41-1.48.23-2.89.39-4.37.7-.23,0-.47.08-.62-.08M90.63,33.85c1.25-.08,2.42-.47,3.67-.47-2.42.7-4.92,1.09-7.26,1.87,0,.08,0,.16.08.23,2.26-.39,4.61-.86,6.87-1.25-1.25.7-2.58,1.09-3.9,1.25-.94.16-1.87,0-2.73.23-.55.16-.86-.39-1.09-.7s.23-.39.47-.47c1.25-.39,2.58-.62,3.9-.7M86.49,36.9c.47.62.94.86,1.64,1.09,3.05.86,5.31,2.66,6.33,5.7.08.23.31.55-.16.62-.31.08-.62.23-.86-.31-1.02-2.89-3.28-4.3-6.17-4.84-.62-.16-1.02-.39-1.33-.94-1.56-2.5-3.83-3.98-6.87-4.06-.23,0-.39,0-.62-.08-.31-.08-.31-.31-.31-.55s.23-.16.39-.23c.31,0,.55,0,.86-.08,3.05.08,5.31,1.41,7.11,3.67M74.08,34.64c0-.94.78-1.72,1.72-1.72s1.8.78,1.8,1.72-.7,1.72-1.72,1.72-1.8-.78-1.8-1.72M83.53,37.92c-1.33-1.17-2.89-1.95-4.76-2.19-.16,0-.62.16-.62-.39.08-.39.39-.47.7-.47,2.73,0,4.69,1.33,6.25,3.44.31.39.47.86.78,1.33,1.48.23,2.97.47,4.3,1.33,1.25.78,2.11,1.8,2.58,3.2.08.31.23.7-.23.86-.39.16-.39-.31-.55-.55-1.09-1.64-2.34-3.12-4.45-3.59-.7-.16-1.17-.7-1.72-1.09-.94-.39-1.56-1.25-2.26-1.87M58.46,78.21c.16-.16.16-.31.08-.55l.08-.55c.16-.23.16-.55.08-.86,0-.55.23-1.09.55-1.56,7.89-11.87,15.78-23.74,23.58-35.69.31-.47.55-.86.94,0,.23.55.7,1.02,1.02,1.48,0,.31-.23.55-.47.78-1.64,2.42-3.28,4.84-4.92,7.34-5.94,8.9-11.95,17.88-17.96,26.79-1.02,1.48-1.95,3.05-3.12,4.37.08-.55.08-1.02.16-1.56"/>
    <path class="st9" d="M98.83,24.72c.23-.47.23-1.02-.23-1.41,0,.7,0,1.33-.86,1.56-.7.31-1.25-.23-1.95-.47.31.78.78,1.09,1.48,1.09.7.08,1.25-.23,1.56-.78"/>
    <path class="st12" d="M85.71,135.22c-.62.31-1.25.62-1.64,1.17-1.25,1.72-3.05,2.34-5,2.81-.23.08-.62-.16-.7.31,0,.47.39.55.7.55,1.48.08,2.73-.39,3.9-1.25,1.25-.86,2.03-2.19,2.81-3.44.47-.08,1.02-.08,1.48-.16,2.5-.62,4.53-1.95,5.47-4.53.16-.31.23-.62-.16-.78-.47-.23-.47.23-.55.39-.86,1.56-2.19,2.81-3.75,3.59-.86.39-1.8.62-2.58,1.33"/>
    <path class="st0" d="M85.71,135.22c-.62.31-1.25.62-1.64,1.17-1.25,1.72-3.05,2.34-5,2.81-.23.08-.62-.16-.7.31,0,.47.39.55.7.55,1.48.08,2.73-.39,3.9-1.25,1.25-.86,2.03-2.19,2.81-3.44.47-.08,1.02-.08,1.48-.16,2.5-.62,4.53-1.95,5.47-4.53.16-.31.23-.62-.16-.78-.47-.23-.47.23-.55.39-.86,1.56-2.19,2.81-3.75,3.59-.86.39-1.8.62-2.58,1.33Z"/>
    <path class="st8" d="M67.75,114.61c-.08-.08-.08-.16-.16-.16-.55-1.09-1.25-2.11-2.03-3.05-.08-.08-.16-.23-.23-.31-1.56-2.42-3.12-4.84-4.76-7.26-.55-.86-1.17-1.72-1.72-2.5-.39-.7-.23-1.48-.39-2.19,0-.08,0-.16-.08-.23,0-.23,0-.55-.08-.78.08-.47,0-.86-.08-1.33v-.16q0-.08.08-.16c.08-.08.08-.23.16-.31.55.78,1.17,1.64,1.72,2.5,6.17,9.14,12.42,18.35,18.59,27.49,1.95,2.81,3.83,5.62,5.78,8.51,0,.78-.7,1.09-1.02,1.64-.16.31-.47.62-.62.94-.08.08-.16.08-.16.16h0c-.08,0-.08-.08-.16-.08h0c0-.08-.08-.08-.08-.16s-.08-.08-.08-.16c-1.09-1.8-2.26-3.59-3.51-5.31h0c-.08-.31-.23-.55-.47-.7h0c-.7-1.25-1.48-2.42-2.34-3.59h0c-.16-.47-.47-.86-.78-1.25-.08-.08-.08-.16-.16-.16,0-.08-.08-.16-.08-.16,0-.08-.08-.08-.08-.08-2.34-3.98-4.76-7.58-7.26-11.17"/>
    <path class="st6" d="M67.75,114.61c-.08-.08-.08-.16-.16-.16-.55-1.09-1.25-2.11-2.03-3.05-.08-.08-.16-.23-.23-.31-1.56-2.42-3.12-4.84-4.76-7.26-.55-.86-1.17-1.72-1.72-2.5-.39-.7-.23-1.48-.39-2.19,0-.08,0-.16-.08-.23,0-.23,0-.55-.08-.78.08-.47,0-.86-.08-1.33v-.16q0-.08.08-.16c.08-.08.08-.23.16-.31.55.78,1.17,1.64,1.72,2.5,6.17,9.14,12.42,18.35,18.59,27.49,1.95,2.81,3.83,5.62,5.78,8.51,0,.78-.7,1.09-1.02,1.64-.16.31-.47.62-.62.94-.08.08-.16.08-.16.16h0c-.08,0-.08-.08-.16-.08h0c0-.08-.08-.08-.08-.16s-.08-.08-.08-.16c-1.09-1.8-2.26-3.59-3.51-5.31h0c-.08-.31-.23-.55-.47-.7h0c-.7-1.25-1.48-2.42-2.34-3.59h0c-.16-.47-.47-.86-.78-1.25-.08-.08-.08-.16-.16-.16,0-.08-.08-.16-.08-.16,0-.08-.08-.08-.08-.08-2.34-3.98-4.76-7.58-7.26-11.17Z"/>
    <path class="st8" d="M60.72,95.78c.16.08.31.16.47.23.16.23.47.31.78.39.55.23.94.62,1.25,1.09,8.12,11.71,16.17,23.51,24.29,35.22.31.47.55.86-.31.94-.62.08-1.17.23-1.72.39-.31-.16-.39-.47-.62-.7-1.64-2.42-3.28-4.84-4.92-7.26-6.01-8.9-12.1-17.81-18.04-26.71-1.02-1.48-2.11-2.89-2.89-4.53.47.23.94.47,1.41.7-.08.16.16.23.31.23"/>
    <path class="st6" d="M60.72,95.78c.16.08.31.16.47.23.16.23.47.31.78.39.55.23.94.62,1.25,1.09,8.12,11.71,16.17,23.51,24.29,35.22.31.47.55.86-.31.94-.62.08-1.17.23-1.72.39-.31-.16-.39-.47-.62-.7-1.64-2.42-3.28-4.84-4.92-7.26-6.01-8.9-12.1-17.81-18.04-26.71-1.02-1.48-2.11-2.89-2.89-4.53.47.23.94.47,1.41.7-.08.16.16.23.31.23Z"/>
    <path class="st12" d="M94.07,131.71c-1.09,2.81-3.2,4.45-5.94,5.23-.7.23-1.17.55-1.64,1.09-1.95,2.5-4.45,3.98-7.65,3.75-.23,0-.62.08-.47-.39.08-.31,0-.7.55-.7,3.05.16,5.15-1.48,6.79-3.9.31-.55.7-.78,1.33-.86,2.89-.55,5.15-2.03,6.33-4.84.08-.16.16-.39.31-.55.16-.23.39-.16.62-.08.23.08.08.31.08.47-.16.23-.23.55-.31.78"/>
    <path class="st0" d="M94.07,131.71c-1.09,2.81-3.2,4.45-5.94,5.23-.7.23-1.17.55-1.64,1.09-1.95,2.5-4.45,3.98-7.65,3.75-.23,0-.62.08-.47-.39.08-.31,0-.7.55-.7,3.05.16,5.15-1.48,6.79-3.9.31-.55.7-.78,1.33-.86,2.89-.55,5.15-2.03,6.33-4.84.08-.16.16-.39.31-.55.16-.23.39-.16.62-.08.23.08.08.31.08.47-.16.23-.23.55-.31.78Z"/>
    <path class="st12" d="M95.55,153.97c-1.17-.47-1.8-1.72-1.33-2.97.39-1.17,1.8-1.72,2.97-1.25,1.09.47,1.72,1.8,1.33,2.89-.39,1.09-1.8,1.72-2.97,1.33"/>
    <path class="st1" d="M95.55,153.97c-1.17-.47-1.8-1.72-1.33-2.97.39-1.17,1.8-1.72,2.97-1.25,1.09.47,1.72,1.8,1.33,2.89-.39,1.09-1.8,1.72-2.97,1.33Z"/>
    <path class="st10" d="M89.54,147.64c-.47-1.48-.16-2.89.16-4.3.31-1.41.7-2.89,1.02-4.3,0-.16,0-.47.23-.47s.31.23.39.39c.39,1.02.55,2.03.47,3.05-.16,2.26-1.09,4.37-1.25,6.72-.94-2.58.7-5.08.47-7.65-.31,2.11-1.41,4.22-1.48,6.56"/>
    <path class="st5" d="M89.54,147.64c-.47-1.48-.16-2.89.16-4.3.31-1.41.7-2.89,1.02-4.3,0-.16,0-.47.23-.47s.31.23.39.39c.39,1.02.55,2.03.47,3.05-.16,2.26-1.09,4.37-1.25,6.72-.94-2.58.7-5.08.47-7.65-.31,2.11-1.41,4.22-1.48,6.56Z"/>
    <path class="st12" d="M75.4,142.17c-.94-.31-1.33-1.33-1.02-2.26.31-.86,1.41-1.41,2.26-1.09.86.31,1.33,1.41,1.02,2.26-.39,1.02-1.33,1.48-2.26,1.09"/>
    <path class="st0" d="M75.4,142.17c-.94-.31-1.33-1.33-1.02-2.26.31-.86,1.41-1.41,2.26-1.09.86.31,1.33,1.41,1.02,2.26-.39,1.02-1.33,1.48-2.26,1.09Z"/>
    <path class="st12" d="M92.66,127.26c.31-.94,1.33-1.41,2.19-1.02.86.31,1.33,1.41.94,2.26-.39.94-1.41,1.33-2.26,1.02-.78-.31-1.25-1.25-.86-2.26"/>
    <path class="st0" d="M92.66,127.26c.31-.94,1.33-1.41,2.19-1.02.86.31,1.33,1.41.94,2.26-.39.94-1.41,1.33-2.26,1.02-.78-.31-1.25-1.25-.86-2.26Z"/>
    <path class="st10" d="M88.45,145.61c.31-2.5.86-4.92.94-7.42h-.23c-.47,2.26-.94,4.53-1.41,6.87-.23-1.41-.08-2.81.31-4.14.23-.86.7-1.72.86-2.66.08-.55.62-.7,1.02-.78s.23.39.23.55c-.08,1.33-.31,2.73-.7,3.98-.39,1.17-.55,2.42-1.02,3.59"/>
    <path class="st5" d="M88.45,145.61c.31-2.5.86-4.92.94-7.42h-.23c-.47,2.26-.94,4.53-1.41,6.87-.23-1.41-.08-2.81.31-4.14.23-.86.7-1.72.86-2.66.08-.55.62-.7,1.02-.78s.23.39.23.55c-.08,1.33-.31,2.73-.7,3.98-.39,1.17-.55,2.42-1.02,3.59Z"/>
    <path class="st10" d="M92.51,149.83c-.78-2.03.7-3.98.31-6.01-.62,1.33-.86,2.66-1.17,4.06-.08-2.26.86-4.45.86-6.79.62.31.7.78.78,1.25.16.86.08,1.8,0,2.66-.16,1.56-.55,3.2-.78,4.84"/>
    <path class="st5" d="M92.51,149.83c-.78-2.03.7-3.98.31-6.01-.62,1.33-.86,2.66-1.17,4.06-.08-2.26.86-4.45.86-6.79.62.31.7.78.78,1.25.16.86.08,1.8,0,2.66-.16,1.56-.55,3.2-.78,4.84Z"/>
    <path class="st10" d="M94.62,146.16c-.55,1.17-.62,2.42-1.09,3.67-.08-1.95.47-3.75.78-5.7,1.17,1.33,1.17,3.36.08,5.08-.16-1.17.39-2.11.23-3.05"/>
    <path class="st5" d="M94.62,146.16c-.55,1.17-.62,2.42-1.09,3.67-.08-1.95.47-3.75.78-5.7,1.17,1.33,1.17,3.36.08,5.08-.16-1.17.39-2.11.23-3.05Z"/>
    <path class="st12" d="M97.66,155.53c.31.16.47.47.86.39.08-.16,0-.23-.08-.31-.39-.62-.08-1.09.23-1.56.23-.31.62-.08.86.08.47.31.78.78.62,1.41-.16.78-.62,1.17-1.33,1.17-.7,0-1.17-.39-1.17-1.17"/>
    <path class="st1" d="M97.66,155.53c.31.16.47.47.86.39.08-.16,0-.23-.08-.31-.39-.62-.08-1.09.23-1.56.23-.31.62-.08.86.08.47.31.78.78.62,1.41-.16.78-.62,1.17-1.33,1.17-.7,0-1.17-.39-1.17-1.17Z"/>
    <path class="st10" d="M86.73,144.13c-.39-.23-.47-.55-.39-.86.23-1.48.55-3.05.86-4.53.08-.31.16-.7.55-.55.47.16.16.47.08.7-.47,1.72-.86,3.36-1.09,5.23"/>
    <path class="st5" d="M86.73,144.13c-.39-.23-.47-.55-.39-.86.23-1.48.55-3.05.86-4.53.08-.31.16-.7.55-.55.47.16.16.47.08.7-.47,1.72-.86,3.36-1.09,5.23Z"/>
    <path class="st10" d="M85.79,142.17c-.08-1.02.23-1.87.62-2.66.31,1.02-.31,1.8-.62,2.66"/>
    <path class="st5" d="M85.79,142.17c-.08-1.02.23-1.87.62-2.66.31,1.02-.31,1.8-.62,2.66Z"/>
    <path class="st10" d="M85.17,141.16c-.08.23-.23.39-.39.31-.23-.08-.31-.23-.23-.47s.23-.31.47-.23c.16.08.16.31.16.39"/>
    <path class="st10" d="M88.52,145.92c.08.23.16.47,0,.7-.23-.31-.23-.47,0-.7"/>
    <path class="st5" d="M88.52,145.92c.08.23.16.47,0,.7-.23-.31-.23-.47,0-.7Z"/>
    <path class="st9" d="M57.13,93.29c.23,2.34.55,4.69.78,7.03.08.47.16.86.47,1.17,2.03,3.28,4.14,6.56,6.33,9.84,1.17,1.95,2.42,3.9,3.75,5.78.08.08.08.16.16.23,0,.08.08.08.08.16.31.47.62.94.94,1.48,0,.08.08.08.08.08.08.08.08.16.16.23.47.86,1.02,1.64,1.56,2.42,1.41,2.11,2.81,4.3,4.14,6.4.78,1.33,1.72,2.58,2.42,3.9.78,1.41,1.72,2.81,2.73,4.06.94,1.33,1.02,1.56-.55,2.03-1.09.31-2.19.78-3.44.16-.94-.47-2.19,0-2.81.94-.62,1.02-.55,2.26.39,3.28.55.62,1.72.78,2.66.31.31-.16.62-.39,1.02-.31,1.72.23,3.36.08,4.92-.7.47-.23.78-.16,1.09.31,1.09,1.87,2.42,3.59,3.83,5.23,1.41,1.56,2.89,2.97,4.84,3.67.47.16.55.23.55.7,0,1.72,1.17,3.05,2.81,3.12.55,0,.62.16.62.7.08,1.17,1.09,2.03,2.19,1.87,1.09-.16,1.8-.86,1.95-1.87.16-.94-.39-1.8-1.41-2.19-.31-.08-.47-.08-.39-.55.47-2.11-.47-3.51-2.58-3.9-.31-.08-.39-.08-.39-.39.23-1.41-.16-2.66-.7-3.9-1.02-2.58-2.5-4.92-4.06-7.18-.39-.55-.39-.86.23-1.33,1.8-1.25,2.97-3.05,3.44-5.23.08-.39.31-.7.62-.94,1.09-.94,1.17-2.03.62-3.2-.47-1.02-1.8-1.41-2.81-1.02-1.25.47-1.95,1.56-1.72,2.89.08.31.16.55,0,.86-.7,1.41-1.64,2.58-2.97,3.51-.31.23-.47.16-.7-.16-.39-.62-.78-1.25-1.25-1.87-5.7-8.28-11.48-16.48-17.26-24.76-2.11-3.05-4.3-6.17-6.48-9.22,0-.08-.08-.08-.08-.16-.16-.08-.31-.16-.47-.23,0-.16-.16-.23-.23-.23-.08-.08-.23-.08-.31-.16,0-.16-.16-.23-.31-.23-.08-.08-.23-.08-.31-.16-.08-.16-.23-.23-.39-.31-.31-.16-.55-.47-.94-.55l-.08-.08c-.16-.08-.31-.16-.47-.31-.16-.23-.31-.31-.55-.39-.23-.23-.47-.39-.7-.47,0-.16-.16-.23-.31-.23-.08-.08-.23-.08-.31-.16-.16-.23-.31-.39-.62-.31.08-.08.16.16.23.31M98.44,155.61c-.39-.62-.08-1.09.23-1.56.23-.31.62-.08.86.08.47.31.78.78.62,1.41-.16.78-.62,1.17-1.33,1.17s-1.17-.31-1.17-1.09c.31.16.47.47.86.39.08-.23,0-.31-.08-.39M78.92,131.55h0c-.08-.31-.23-.55-.47-.7h0c-.7-1.25-1.48-2.42-2.34-3.59h0c-.16-.47-.47-.86-.78-1.25-.08-.08-.08-.16-.16-.16,0-.08-.08-.16-.08-.16,0-.08-.08-.08-.08-.08-2.26-3.67-4.69-7.34-7.18-10.93-.08-.08-.08-.16-.16-.16-.55-1.09-1.25-2.11-2.03-3.05-.08-.08-.16-.23-.23-.31-1.56-2.42-3.12-4.84-4.76-7.26-.55-.86-1.17-1.72-1.72-2.5-.39-.7-.23-1.48-.39-2.19,0-.08,0-.16-.08-.23,0-.23,0-.55-.08-.78.08-.47,0-.86-.08-1.33v-.16q0-.08.08-.16c.08-.08.08-.23.16-.31.55.78,1.17,1.64,1.72,2.42,6.17,9.14,12.42,18.35,18.59,27.49,1.95,2.81,3.83,5.62,5.78,8.51,0,.78-.7,1.09-1.02,1.64-.16.31-.47.62-.62.94-.08.08-.16.08-.16.16h0c-.08,0-.08-.08-.16-.08h0c0-.08-.08-.08-.08-.16s-.08-.08-.08-.16c-1.17-1.95-2.34-3.75-3.59-5.47M75.4,142.17c-.94-.31-1.33-1.33-1.02-2.26.31-.86,1.41-1.41,2.26-1.09.86.31,1.33,1.41,1.02,2.26-.31,1.02-1.33,1.48-2.26,1.09M84.78,141.55c-.23-.08-.31-.23-.23-.47s.23-.31.47-.23c.16.08.16.31.16.39-.08.23-.23.31-.39.31M85.79,142.17c-.08-1.02.23-1.87.62-2.66.31,1.02-.31,1.8-.62,2.66M86.34,143.27c.23-1.48.55-3.05.86-4.53.08-.31.16-.7.55-.55.47.16.16.47.08.7-.47,1.64-.86,3.36-1.09,5.15-.39-.23-.47-.47-.39-.78M88.45,146.55c-.16-.23-.23-.47,0-.7.16.31.23.47,0,.7M97.19,149.75c1.09.47,1.72,1.8,1.33,2.89s-1.8,1.72-2.97,1.33c-1.17-.47-1.8-1.72-1.33-2.97.39-1.09,1.8-1.72,2.97-1.25M94.3,149.2c-.08-1.17.47-2.03.23-3.05-.55,1.17-.62,2.42-1.09,3.67-.08-1.95.47-3.75.78-5.7,1.17,1.25,1.17,3.28.08,5.08M93.37,142.25c.16.86.08,1.8,0,2.66-.16,1.64-.62,3.2-.86,4.84-.78-2.03.7-3.98.31-6.01-.62,1.33-.86,2.66-1.17,4.06-.08-2.26.86-4.45.86-6.79.62.31.7.78.86,1.25M91.02,138.5c.23,0,.31.23.39.39.39,1.02.55,2.03.47,3.05-.16,2.26-1.09,4.37-1.25,6.72-.94-2.58.7-5.08.47-7.65-.31,2.26-1.41,4.37-1.48,6.64-.47-1.48-.16-2.89.16-4.3.31-1.41.7-2.89,1.02-4.3,0-.23,0-.55.23-.55M89.38,142.02c-.39,1.17-.55,2.42-.94,3.59.31-2.5.86-4.92.94-7.42h-.23c-.47,2.26-.94,4.53-1.41,6.87-.23-1.41-.08-2.73.31-4.14.23-.86.7-1.72.86-2.66.08-.55.62-.7,1.02-.78s.23.39.23.55c-.08,1.33-.39,2.66-.78,3.98M88.13,136.94c-.7.23-1.17.55-1.64,1.09-1.95,2.5-4.45,3.98-7.65,3.75-.23,0-.62.08-.47-.39.08-.31,0-.7.55-.7,3.05.16,5.15-1.48,6.79-3.9.31-.55.7-.78,1.33-.86,2.89-.55,5.15-2.03,6.33-4.84.08-.16.16-.39.31-.55.16-.23.39-.16.62-.08.23.08.08.31.08.47-.08.31-.16.55-.31.86-1.09,2.73-3.2,4.37-5.94,5.15M94.85,126.24c.86.31,1.33,1.41.94,2.26-.39.94-1.41,1.33-2.26,1.02-.94-.39-1.33-1.33-.94-2.26.39-.86,1.41-1.33,2.26-1.02M88.29,133.82c1.64-.78,2.89-1.95,3.75-3.59.08-.16.08-.7.55-.39.39.23.31.47.16.78-1.02,2.58-2.97,3.9-5.47,4.53-.47.16-1.02.16-1.48.16-.78,1.25-1.56,2.58-2.81,3.44-1.17.86-2.5,1.33-3.9,1.25-.39,0-.78-.08-.7-.55,0-.39.47-.23.7-.31,1.95-.39,3.75-1.02,5-2.81.39-.55,1.09-.86,1.64-1.17.78-.62,1.72-.86,2.58-1.33M60.25,95.55c.08.16.23.23.47.23.16.08.31.16.47.23.16.23.47.31.78.39.55.23.94.62,1.25,1.09,8.12,11.71,16.17,23.51,24.29,35.22.31.47.55.86-.31.94-.62.08-1.17.23-1.72.39-.31-.16-.39-.47-.62-.7-1.64-2.42-3.28-4.84-4.92-7.26-6.01-8.9-12.1-17.81-18.04-26.71-1.02-1.48-2.11-2.89-2.89-4.53.31.23.78.47,1.25.7"/>
    <path class="st9" d="M94.85,152.95c.39.39.86.62,1.41.31-.62-.23-1.17-.47-1.17-1.41,0-.78.7-1.02,1.17-1.64-.86,0-1.33.31-1.64.94-.23.7-.16,1.33.23,1.8"/>
    <path class="st12" d="M21.6,135.46c-.55-.39-1.02-.94-1.72-1.09-2.11-.55-3.36-1.95-4.45-3.59-.16-.16-.16-.62-.55-.55-.47.16-.31.55-.23.86.47,1.41,1.41,2.42,2.58,3.2,1.33.86,2.81,1.09,4.3,1.33.23.47.47.94.78,1.33,1.48,2.11,3.44,3.44,6.25,3.44.31,0,.62,0,.7-.47.08-.55-.39-.31-.62-.39-1.8-.23-3.36-.94-4.69-2.19-.78-.7-1.41-1.48-2.34-1.87"/>
    <path class="st0" d="M21.6,135.46c-.55-.39-1.02-.94-1.72-1.09-2.11-.55-3.36-1.95-4.45-3.59-.16-.16-.16-.62-.55-.55-.47.16-.31.55-.23.86.47,1.41,1.41,2.42,2.58,3.2,1.33.86,2.81,1.09,4.3,1.33.23.47.47.94.78,1.33,1.48,2.11,3.44,3.44,6.25,3.44.31,0,.62,0,.7-.47.08-.55-.39-.31-.62-.39-1.8-.23-3.36-.94-4.69-2.19-.78-.7-1.41-1.48-2.34-1.87Z"/>
    <path class="st8" d="M34.09,111.09c.08-.08.08-.16.16-.16.78-.94,1.48-1.95,2.11-2.97.08-.08.16-.23.23-.31,1.64-2.34,3.36-4.76,5-7.11.55-.86,1.17-1.72,1.72-2.58.47-.62,1.25-.78,1.95-1.17.08,0,.08-.08.16-.08.23-.08.47-.23.7-.31.47-.08.86-.31,1.17-.55q.08,0,.16-.08h.16c.08,0,.23,0,.31.08-.55.86-1.09,1.64-1.64,2.5-6.17,9.14-12.42,18.35-18.59,27.49-1.95,2.81-3.83,5.7-5.7,8.51-.7.23-1.25-.23-1.87-.31-.39,0-.7-.16-1.09-.23-.08-.08-.16-.08-.23-.16h0v-.16h0c0-.08.08-.08.08-.16.08,0,.08-.08.08-.16,1.33-1.72,2.5-3.44,3.67-5.23h0c.23-.16.39-.39.47-.7h0c.94-1.09,1.72-2.26,2.42-3.51h0c.39-.31.62-.78.86-1.17.08-.08.08-.16.16-.16q.08-.08.16-.16c.08,0,.08-.08.08-.16,2.5-3.83,4.92-7.42,7.34-11.01"/>
    <path class="st6" d="M34.09,111.09c.08-.08.08-.16.16-.16.78-.94,1.48-1.95,2.11-2.97.08-.08.16-.23.23-.31,1.64-2.34,3.36-4.76,5-7.11.55-.86,1.17-1.72,1.72-2.58.47-.62,1.25-.78,1.95-1.17.08,0,.08-.08.16-.08.23-.08.47-.23.7-.31.47-.08.86-.31,1.17-.55q.08,0,.16-.08h.16c.08,0,.23,0,.31.08-.55.86-1.09,1.64-1.64,2.5-6.17,9.14-12.42,18.35-18.59,27.49-1.95,2.81-3.83,5.7-5.7,8.51-.7.23-1.25-.23-1.87-.31-.39,0-.7-.16-1.09-.23-.08-.08-.16-.08-.23-.16h0v-.16h0c0-.08.08-.08.08-.16.08,0,.08-.08.08-.16,1.33-1.72,2.5-3.44,3.67-5.23h0c.23-.16.39-.39.47-.7h0c.94-1.09,1.72-2.26,2.42-3.51h0c.39-.31.62-.78.86-1.17.08-.08.08-.16.16-.16q.08-.08.16-.16c.08,0,.08-.08.08-.16,2.5-3.83,4.92-7.42,7.34-11.01Z"/>
    <path class="st8" d="M48.93,97.5c0,.16,0,.39-.08.55-.16.23-.16.55-.08.86,0,.55-.23,1.09-.55,1.56-7.89,11.87-15.78,23.74-23.58,35.69-.31.47-.55.86-.94,0-.23-.55-.7-1.02-1.02-1.48,0-.31.23-.55.47-.78,1.64-2.42,3.28-4.84,4.92-7.34,6.01-8.9,12.03-17.81,18.04-26.71,1.02-1.48,1.95-3.05,3.12-4.37-.08.55-.08,1.02-.16,1.56-.23.16-.23.31-.16.47"/>
    <path class="st6" d="M48.93,97.5c0,.16,0,.39-.08.55-.16.23-.16.55-.08.86,0,.55-.23,1.09-.55,1.56-7.89,11.87-15.78,23.74-23.58,35.69-.31.47-.55.86-.94,0-.23-.55-.7-1.02-1.02-1.48,0-.31.23-.55.47-.78,1.64-2.42,3.28-4.84,4.92-7.34,6.01-8.9,12.03-17.81,18.04-26.71,1.02-1.48,1.95-3.05,3.12-4.37-.08.55-.08,1.02-.16,1.56-.23.16-.23.31-.16.47Z"/>
    <path class="st12" d="M28,141.86c-2.97,0-5.31-1.33-7.03-3.59-.47-.62-.94-.86-1.64-1.09-3.05-.86-5.31-2.66-6.33-5.7-.08-.23-.31-.55.16-.62.31-.08.62-.23.86.31,1.02,2.89,3.28,4.3,6.17,4.84.62.16,1.02.39,1.33.94,1.56,2.5,3.83,3.98,6.87,4.06.23,0,.39,0,.62.08.31.08.31.31.31.55s-.23.16-.39.23c-.39,0-.62,0-.94,0"/>
    <path class="st0" d="M28,141.86c-2.97,0-5.31-1.33-7.03-3.59-.47-.62-.94-.86-1.64-1.09-3.05-.86-5.31-2.66-6.33-5.7-.08-.23-.31-.55.16-.62.31-.08.62-.23.86.31,1.02,2.89,3.28,4.3,6.17,4.84.62.16,1.02.39,1.33.94,1.56,2.5,3.83,3.98,6.87,4.06.23,0,.39,0,.62.08.31.08.31.31.31.55s-.23.16-.39.23c-.39,0-.62,0-.94,0Z"/>
    <path class="st12" d="M7.93,151.47c0-1.25.94-2.34,2.19-2.34,1.25-.08,2.26,1.02,2.34,2.26,0,1.17-1.02,2.26-2.19,2.34-1.17.08-2.26-.94-2.34-2.26"/>
    <path class="st1" d="M7.93,151.47c0-1.25.94-2.34,2.19-2.34,1.25-.08,2.26,1.02,2.34,2.26,0,1.17-1.02,2.26-2.19,2.34-1.17.08-2.26-.94-2.34-2.26Z"/>
    <path class="st10" d="M11.6,143.58c1.25-.94,2.66-1.25,4.06-1.41,1.48-.23,2.89-.39,4.37-.7.16-.08.39-.16.55.08s-.08.39-.23.47c-.78.7-1.64,1.25-2.66,1.56-2.19.7-4.53.62-6.72,1.33,2.11-1.8,5-1.25,7.26-2.42-2.11.62-4.45.31-6.64,1.09"/>
    <path class="st5" d="M11.6,143.58c1.25-.94,2.66-1.25,4.06-1.41,1.48-.23,2.89-.39,4.37-.7.16-.08.39-.16.55.08s-.08.39-.23.47c-.78.7-1.64,1.25-2.66,1.56-2.19.7-4.53.62-6.72,1.33,2.11-1.8,5-1.25,7.26-2.42-2.11.62-4.45.31-6.64,1.09Z"/>
    <path class="st12" d="M11.37,128.51c0-.94.7-1.72,1.72-1.8.94,0,1.8.78,1.8,1.64,0,.94-.78,1.72-1.72,1.8-1.02,0-1.8-.7-1.8-1.64"/>
    <path class="st0" d="M11.37,128.51c0-.94.7-1.72,1.72-1.8.94,0,1.8.78,1.8,1.64,0,.94-.78,1.72-1.72,1.8-1.02,0-1.8-.7-1.8-1.64Z"/>
    <path class="st12" d="M31.59,138.89c1.02,0,1.8.7,1.8,1.72,0,.94-.78,1.72-1.72,1.72s-1.8-.78-1.8-1.72.7-1.72,1.72-1.72"/>
    <path class="st0" d="M31.59,138.89c1.02,0,1.8.7,1.8,1.72,0,.94-.78,1.72-1.72,1.72s-1.8-.78-1.8-1.72.7-1.72,1.72-1.72Z"/>
    <path class="st10" d="M13.08,141.78c2.42-.7,4.92-1.09,7.26-1.87,0-.08,0-.16-.08-.23-2.26.39-4.61.86-6.87,1.25,1.25-.7,2.58-1.09,3.9-1.25.94-.16,1.87,0,2.73-.23.55-.16.86.39,1.09.7s-.23.39-.47.47c-1.25.47-2.66.7-3.98.78-1.17.08-2.34.39-3.59.39"/>
    <path class="st5" d="M13.08,141.78c2.42-.7,4.92-1.09,7.26-1.87,0-.08,0-.16-.08-.23-2.26.39-4.61.86-6.87,1.25,1.25-.7,2.58-1.09,3.9-1.25.94-.16,1.87,0,2.73-.23.55-.16.86.39,1.09.7s-.23.39-.47.47c-1.25.47-2.66.7-3.98.78-1.17.08-2.34.39-3.59.39Z"/>
    <path class="st10" d="M10.66,147.17c1.64-1.48,3.98-.86,5.78-1.95-1.41-.08-2.81.23-4.22.39,2.11-.94,4.45-.86,6.64-1.72-.08.62-.47.94-.86,1.25-.78.47-1.64.78-2.5,1.02-1.64.39-3.28.55-4.84,1.02"/>
    <path class="st5" d="M10.66,147.17c1.64-1.48,3.98-.86,5.78-1.95-1.41-.08-2.81.23-4.22.39,2.11-.94,4.45-.86,6.64-1.72-.08.62-.47.94-.86,1.25-.78.47-1.64.78-2.5,1.02-1.64.39-3.28.55-4.84,1.02Z"/>
    <path class="st10" d="M14.8,147.72c-1.33-.08-2.5.31-3.83.31,1.72-.78,3.67-.94,5.62-1.41-.78,1.56-2.66,2.34-4.69,1.95,1.02-.47,2.11-.31,2.89-.86"/>
    <path class="st5" d="M14.8,147.72c-1.33-.08-2.5.31-3.83.31,1.72-.78,3.67-.94,5.62-1.41-.78,1.56-2.66,2.34-4.69,1.95,1.02-.47,2.11-.31,2.89-.86Z"/>
    <path class="st12" d="M7.23,154.12c-.08.31-.23.62,0,.94.16.08.23-.08.23-.16.39-.55,1.02-.55,1.56-.31.39.16.31.55.23.78-.08.55-.47,1.02-1.02,1.09-.78.16-1.33-.16-1.64-.78-.23-.7-.08-1.25.62-1.56"/>
    <path class="st1" d="M7.23,154.12c-.08.31-.23.62,0,.94.16.08.23-.08.23-.16.39-.55,1.02-.55,1.56-.31.39.16.31.55.23.78-.08.55-.47,1.02-1.02,1.09-.78.16-1.33-.16-1.64-.78-.23-.7-.08-1.25.62-1.56Z"/>
    <path class="st10" d="M13.79,139.67c.08-.47.31-.62.62-.7,1.48-.31,2.97-.62,4.53-.94.31-.08.7-.16.7.31s-.39.31-.62.39c-1.72.23-3.44.47-5.23.94"/>
    <path class="st5" d="M13.79,139.67c.08-.47.31-.62.62-.7,1.48-.31,2.97-.62,4.53-.94.31-.08.7-.16.7.31s-.39.31-.62.39c-1.72.23-3.44.47-5.23.94Z"/>
    <path class="st10" d="M15.19,138.11c.86-.47,1.8-.47,2.73-.39-.86.62-1.8.31-2.73.39"/>
    <path class="st5" d="M15.19,138.11c.86-.47,1.8-.47,2.73-.39-.86.62-1.8.31-2.73.39Z"/>
    <path class="st10" d="M15.89,137.1c-.23,0-.47-.08-.47-.23,0-.23.16-.39.31-.39.23,0,.39.16.39.31.08.23-.16.31-.23.31"/>
    <path class="st10" d="M12.77,142.02c-.16.16-.31.31-.62.23.16-.31.31-.39.62-.23"/>
    <path class="st5" d="M12.77,142.02c-.16.16-.31.31-.62.23.16-.31.31-.39.62-.23Z"/>
    <path class="st9" d="M49.87,93.29c-2.11,1.09-4.14,2.26-6.25,3.36-.39.23-.78.47-.94.94-2.26,3.12-4.53,6.33-6.72,9.53-1.41,1.8-2.73,3.67-3.98,5.62-.08.08-.08.16-.16.23,0,.08-.08.08-.08.16l-1.02,1.41c-.08,0-.08.08-.08.16-.08.08-.08.16-.16.23-.62.7-1.09,1.56-1.64,2.34-1.48,2.11-2.89,4.22-4.45,6.25-.94,1.25-1.72,2.5-2.66,3.75-1.02,1.25-1.95,2.66-2.81,4.06s-1.09,1.48-2.11.23c-.7-.94-1.56-1.8-1.41-3.12.08-1.09-.86-2.03-1.87-2.26-1.17-.23-2.26.39-2.89,1.56-.39.78-.08,1.95.7,2.66.31.23.55.39.62.86.39,1.64,1.17,3.12,2.5,4.3.39.31.47.7.08,1.09-1.33,1.72-2.42,3.59-3.44,5.47-.94,1.87-1.72,3.75-1.56,5.86,0,.47,0,.62-.47.78-1.64.62-2.34,2.19-1.8,3.83.16.55.08.62-.39.86-1.02.55-1.41,1.8-.94,2.73.55.94,1.41,1.33,2.5,1.09.94-.23,1.56-1.02,1.48-2.11,0-.31-.08-.47.39-.55,2.11-.31,3.05-1.72,2.66-3.83-.08-.31-.08-.39.23-.47,1.41-.31,2.42-1.17,3.36-2.11,2.03-1.95,3.67-4.14,5.15-6.48.39-.62.7-.7,1.33-.31,1.87,1.17,3.9,1.64,6.09,1.25.39-.08.78,0,1.17.23,1.33.7,2.26.39,3.2-.62.7-.78.62-2.19-.08-2.97-.94-1.02-2.19-1.17-3.28-.55-.23.16-.47.31-.78.31-1.56-.16-3.05-.55-4.37-1.48-.31-.23-.31-.39-.16-.7.39-.62.86-1.25,1.25-1.8,5.54-8.43,11.01-16.79,16.56-25.23,2.03-3.12,4.06-6.25,6.17-9.45l.08-.16c0-.16,0-.31.08-.55.16-.08.16-.23.16-.31v-.31c.16-.08.16-.23.08-.31v-.39c.16-.16.16-.31.16-.47.08-.31.23-.7.16-1.02q0-.08.08-.16c0-.16.08-.39.08-.55.16-.23.16-.47.16-.7.16-.31.23-.55.16-.86.16-.08.16-.23.08-.31v-.39c.16-.23.23-.47.08-.7.08-.23-.16-.08-.31.08M7.46,154.82c.39-.55,1.02-.55,1.56-.31.39.16.31.55.23.78-.08.55-.47,1.02-1.02,1.09-.78.16-1.33-.16-1.64-.78-.23-.62-.08-1.17.55-1.48-.08.31-.23.62,0,.94.23,0,.23-.16.31-.23M22.53,127.73h0c.23-.16.39-.39.47-.7h0c.94-1.09,1.72-2.26,2.42-3.51h0c.39-.31.62-.78.86-1.17.08-.08.08-.16.16-.16q.08-.08.16-.16c.08,0,.08-.08.08-.16,2.58-3.51,5.08-7.11,7.42-10.7.08-.08.08-.16.16-.16.78-.94,1.48-1.95,2.11-2.97.08-.08.16-.23.23-.31,1.64-2.34,3.36-4.76,5-7.11.55-.86,1.17-1.72,1.72-2.58.47-.62,1.25-.78,1.95-1.17.08,0,.08-.08.16-.08.23-.08.47-.23.7-.31.47-.08.86-.31,1.17-.55q.08,0,.16-.08h.16c.08,0,.23,0,.31.08-.55.86-1.09,1.64-1.64,2.5-6.17,9.14-12.42,18.35-18.59,27.49-1.95,2.81-3.83,5.7-5.7,8.51-.7.23-1.25-.23-1.87-.31-.39,0-.7-.16-1.09-.23-.08-.08-.16-.08-.23-.16h0v-.16h0c0-.08.08-.08.08-.16.08,0,.08-.08.08-.16,1.25-1.95,2.5-3.75,3.59-5.54M11.37,128.51c0-.94.7-1.72,1.72-1.8.94,0,1.8.78,1.8,1.64,0,.94-.78,1.72-1.72,1.8-1.02,0-1.8-.7-1.8-1.64M15.43,136.86c0-.23.16-.39.31-.39.23,0,.39.16.39.31,0,.23-.23.23-.31.31-.16.08-.31,0-.39-.23M15.19,138.11c.86-.47,1.8-.47,2.73-.39-.86.62-1.8.31-2.73.39M14.41,138.97c1.48-.31,2.97-.62,4.53-.94.31-.08.7-.16.7.31s-.39.31-.62.39c-1.72.16-3.44.47-5.23.94.08-.47.31-.62.62-.7M12.15,142.25c.16-.23.31-.39.62-.23-.16.08-.31.31-.62.23M12.46,151.47c0,1.17-1.02,2.26-2.19,2.34-1.17.08-2.26-1.02-2.34-2.26,0-1.25.94-2.34,2.19-2.34,1.25-.08,2.34,1.02,2.34,2.26M11.91,148.66c1.02-.55,2.11-.39,2.89-.86-1.33-.08-2.5.31-3.83.31,1.72-.78,3.67-.94,5.62-1.41-.78,1.48-2.66,2.26-4.69,1.95M17.93,145.14c-.78.47-1.64.78-2.5,1.02-1.56.47-3.2.62-4.84,1.02,1.64-1.48,3.98-.86,5.78-1.95-1.41-.08-2.81.23-4.22.39,2.11-.94,4.45-.86,6.64-1.72,0,.7-.47.94-.86,1.25M20.58,141.55c.16.23-.08.39-.23.47-.78.7-1.64,1.25-2.66,1.56-2.19.7-4.53.62-6.72,1.33,2.11-1.8,5-1.25,7.26-2.42-2.19.55-4.53.31-6.72,1.09,1.25-.94,2.66-1.25,4.06-1.41,1.48-.23,2.89-.39,4.37-.7.23,0,.47-.16.62.08M16.75,141.39c-1.25.08-2.42.47-3.67.47,2.42-.7,4.92-1.09,7.26-1.87,0-.08,0-.16-.08-.23-2.26.39-4.61.86-6.87,1.25,1.25-.7,2.58-1.09,3.9-1.25.94-.16,1.87,0,2.73-.23.55-.16.86.39,1.09.7s-.23.39-.47.47c-1.25.31-2.58.55-3.9.7M20.97,138.27c-.47-.62-.94-.86-1.64-1.09-3.05-.86-5.31-2.66-6.33-5.7-.08-.23-.31-.55.16-.62.31-.08.62-.23.86.31,1.02,2.89,3.28,4.3,6.17,4.84.62.16,1.02.39,1.33.94,1.56,2.5,3.83,3.98,6.87,4.06.23,0,.39,0,.62.08.31.08.31.31.31.55s-.23.16-.39.23c-.31,0-.55,0-.86.08-3.05-.08-5.39-1.41-7.11-3.67M33.39,140.61c0,.94-.78,1.72-1.72,1.72s-1.8-.78-1.8-1.72.7-1.72,1.72-1.72,1.8.7,1.8,1.72M23.86,137.33c1.33,1.17,2.89,1.95,4.76,2.19.16,0,.62-.16.62.39-.08.39-.39.47-.7.47-2.73,0-4.69-1.33-6.25-3.44-.31-.39-.47-.86-.78-1.33-1.48-.23-2.97-.47-4.3-1.33-1.25-.78-2.11-1.8-2.58-3.2-.08-.31-.23-.7.23-.86.39-.16.39.31.55.55,1.09,1.64,2.34,3.12,4.45,3.59.7.16,1.17.7,1.72,1.09.94.39,1.56,1.17,2.26,1.87M49.01,97.03c-.16.16-.16.31-.08.55l-.08.55c-.16.23-.16.55-.08.86,0,.55-.23,1.09-.55,1.56-7.89,11.87-15.78,23.74-23.58,35.69-.31.47-.55.86-.94,0-.23-.55-.7-1.02-1.02-1.48,0-.31.23-.55.47-.78,1.64-2.42,3.28-4.84,4.92-7.34,6.01-8.9,12.03-17.81,18.04-26.71,1.02-1.48,1.95-3.05,3.12-4.37-.16.39-.23.94-.23,1.48"/>
    <path class="st9" d="M8.63,150.53c-.23.47-.23,1.02.23,1.41,0-.7,0-1.33.86-1.56.7-.31,1.25.23,1.95.47-.31-.78-.78-1.09-1.48-1.09-.78-.08-1.33.16-1.56.78"/>
    <path class="st12" d="M21.36,39.79c.62-.31,1.25-.62,1.64-1.17,1.25-1.72,3.05-2.34,5-2.81.23-.08.62.16.7-.31,0-.47-.39-.55-.7-.55-1.48-.08-2.73.39-3.9,1.25-1.25.94-2.03,2.19-2.81,3.51-.47.08-1.02.08-1.48.16-2.5.62-4.53,1.95-5.47,4.53-.16.31-.23.62.16.78.47.23.47-.23.55-.39.86-1.56,2.19-2.81,3.75-3.59.86-.39,1.87-.7,2.58-1.41"/>
    <path class="st0" d="M21.36,39.79c.62-.31,1.25-.62,1.64-1.17,1.25-1.72,3.05-2.34,5-2.81.23-.08.62.16.7-.31,0-.47-.39-.55-.7-.55-1.48-.08-2.73.39-3.9,1.25-1.25.94-2.03,2.19-2.81,3.51-.47.08-1.02.08-1.48.16-2.5.62-4.53,1.95-5.47,4.53-.16.31-.23.62.16.78.47.23.47-.23.55-.39.86-1.56,2.19-2.81,3.75-3.59.86-.39,1.87-.7,2.58-1.41Z"/>
    <path class="st8" d="M39.32,60.48c.08.08.08.16.16.16.55,1.09,1.25,2.11,2.03,3.05.08.08.16.23.23.31,1.56,2.42,3.12,4.84,4.76,7.26.55.86,1.17,1.72,1.72,2.5.39.7.23,1.48.39,2.19,0,.08,0,.16.08.23,0,.23,0,.55.08.78-.08.47,0,.86.08,1.33v.16q0,.08-.08.16c-.08.08-.08.23-.16.31-.55-.78-1.17-1.64-1.72-2.42-6.33-9.14-12.57-18.27-18.74-27.49-1.95-2.81-3.83-5.62-5.78-8.51,0-.78.7-1.09,1.02-1.64.16-.31.47-.62.62-.94.08-.08.16-.08.16-.16h0c.08,0,.08.08.16.08h0c0,.08.08.08.08.16s.08.08.08.16c1.09,1.8,2.26,3.59,3.51,5.31h0c.08.31.23.55.47.7h0c.7,1.25,1.48,2.42,2.34,3.59h0c.16.47.47.86.78,1.25.08.08.08.16.16.16,0,.08.08.16.08.16,0,.08.08.08.08.08,2.58,3.83,4.92,7.5,7.42,11.09"/>
    <path class="st6" d="M39.32,60.48c.08.08.08.16.16.16.55,1.09,1.25,2.11,2.03,3.05.08.08.16.23.23.31,1.56,2.42,3.12,4.84,4.76,7.26.55.86,1.17,1.72,1.72,2.5.39.7.23,1.48.39,2.19,0,.08,0,.16.08.23,0,.23,0,.55.08.78-.08.47,0,.86.08,1.33v.16q0,.08-.08.16c-.08.08-.08.23-.16.31-.55-.78-1.17-1.64-1.72-2.42-6.33-9.14-12.57-18.27-18.74-27.49-1.95-2.81-3.83-5.62-5.78-8.51,0-.78.7-1.09,1.02-1.64.16-.31.47-.62.62-.94.08-.08.16-.08.16-.16h0c.08,0,.08.08.16.08h0c0,.08.08.08.08.16s.08.08.08.16c1.09,1.8,2.26,3.59,3.51,5.31h0c.08.31.23.55.47.7h0c.7,1.25,1.48,2.42,2.34,3.59h0c.16.47.47.86.78,1.25.08.08.08.16.16.16,0,.08.08.16.08.16,0,.08.08.08.08.08,2.58,3.83,4.92,7.5,7.42,11.09Z"/>
    <path class="st8" d="M46.35,79.31c-.16-.08-.31-.16-.47-.23-.16-.23-.47-.31-.78-.39-.55-.23-.94-.62-1.25-1.09-8.12-11.71-16.17-23.51-24.29-35.22-.31-.47-.55-.86.31-.94.62-.08,1.17-.23,1.72-.39.31.16.39.47.62.7,1.64,2.42,3.28,4.84,4.92,7.26,6.17,8.9,12.18,17.81,18.2,26.71,1.02,1.48,2.11,2.89,2.89,4.53-.47-.23-.94-.47-1.41-.7-.08-.16-.23-.23-.47-.23"/>
    <path class="st6" d="M46.35,79.31c-.16-.08-.31-.16-.47-.23-.16-.23-.47-.31-.78-.39-.55-.23-.94-.62-1.25-1.09-8.12-11.71-16.17-23.51-24.29-35.22-.31-.47-.55-.86.31-.94.62-.08,1.17-.23,1.72-.39.31.16.39.47.62.7,1.64,2.42,3.28,4.84,4.92,7.26,6.17,8.9,12.18,17.81,18.2,26.71,1.02,1.48,2.11,2.89,2.89,4.53-.47-.23-.94-.47-1.41-.7-.08-.16-.23-.23-.47-.23Z"/>
    <path class="st12" d="M13.08,43.3c1.09-2.81,3.2-4.45,5.94-5.23.7-.23,1.17-.55,1.64-1.09,1.95-2.5,4.45-3.98,7.65-3.75.23,0,.62-.08.47.39-.08.31,0,.7-.55.7-3.05-.16-5.15,1.48-6.79,3.9-.31.55-.7.78-1.33.86-2.89.55-5.15,2.03-6.33,4.84-.08.16-.16.39-.31.55-.16.23-.39.16-.62.08-.23-.08-.08-.31-.08-.47.08-.23.16-.47.31-.78"/>
    <path class="st0" d="M13.08,43.3c1.09-2.81,3.2-4.45,5.94-5.23.7-.23,1.17-.55,1.64-1.09,1.95-2.5,4.45-3.98,7.65-3.75.23,0,.62-.08.47.39-.08.31,0,.7-.55.7-3.05-.16-5.15,1.48-6.79,3.9-.31.55-.7.78-1.33.86-2.89.55-5.15,2.03-6.33,4.84-.08.16-.16.39-.31.55-.16.23-.39.16-.62.08-.23-.08-.08-.31-.08-.47.08-.23.16-.47.31-.78Z"/>
    <path class="st12" d="M11.6,21.12c1.17.47,1.8,1.72,1.33,2.89-.39,1.17-1.8,1.72-2.97,1.25-1.09-.47-1.72-1.8-1.33-2.89.39-1.09,1.8-1.72,2.97-1.25"/>
    <path class="st1" d="M11.6,21.12c1.17.47,1.8,1.72,1.33,2.89-.39,1.17-1.8,1.72-2.97,1.25-1.09-.47-1.72-1.8-1.33-2.89.39-1.09,1.8-1.72,2.97-1.25Z"/>
    <path class="st10" d="M17.53,27.45c.47,1.48.16,2.89-.16,4.3-.31,1.41-.7,2.89-1.02,4.3,0,.16,0,.47-.23.47s-.31-.23-.39-.39c-.39-1.02-.55-2.03-.47-3.05.16-2.26,1.09-4.37,1.25-6.72.94,2.58-.7,5.08-.47,7.65.31-2.19,1.41-4.22,1.48-6.56"/>
    <path class="st5" d="M17.53,27.45c.47,1.48.16,2.89-.16,4.3-.31,1.41-.7,2.89-1.02,4.3,0,.16,0,.47-.23.47s-.31-.23-.39-.39c-.39-1.02-.55-2.03-.47-3.05.16-2.26,1.09-4.37,1.25-6.72.94,2.58-.7,5.08-.47,7.65.31-2.19,1.41-4.22,1.48-6.56Z"/>
    <path class="st12" d="M31.67,32.84c.94.31,1.33,1.33,1.02,2.26-.31.86-1.41,1.41-2.26,1.09-.86-.31-1.33-1.41-1.02-2.26.39-.94,1.33-1.41,2.26-1.09"/>
    <path class="st0" d="M31.67,32.84c.94.31,1.33,1.33,1.02,2.26-.31.86-1.41,1.41-2.26,1.09-.86-.31-1.33-1.41-1.02-2.26.39-.94,1.33-1.41,2.26-1.09Z"/>
    <path class="st12" d="M14.49,47.76c-.31.94-1.33,1.41-2.26,1.02-.86-.31-1.33-1.41-.94-2.26.39-.94,1.41-1.33,2.26-1.02.86.39,1.25,1.33.94,2.26"/>
    <path class="st0" d="M14.49,47.76c-.31.94-1.33,1.41-2.26,1.02-.86-.31-1.33-1.41-.94-2.26.39-.94,1.41-1.33,2.26-1.02.86.39,1.25,1.33.94,2.26Z"/>
    <path class="st10" d="M18.63,29.48c-.31,2.5-.86,4.92-.94,7.42h.23c.47-2.26.94-4.53,1.41-6.87.23,1.41.08,2.81-.31,4.14-.23.86-.7,1.72-.86,2.66-.08.55-.62.7-1.02.78s-.23-.39-.23-.55c.08-1.33.31-2.73.7-3.98.47-1.17.62-2.42,1.02-3.59"/>
    <path class="st5" d="M18.63,29.48c-.31,2.5-.86,4.92-.94,7.42h.23c.47-2.26.94-4.53,1.41-6.87.23,1.41.08,2.81-.31,4.14-.23.86-.7,1.72-.86,2.66-.08.55-.62.7-1.02.78s-.23-.39-.23-.55c.08-1.33.31-2.73.7-3.98.47-1.17.62-2.42,1.02-3.59Z"/>
    <path class="st10" d="M14.57,25.26c.78,2.03-.7,3.98-.31,6.01.62-1.33.86-2.66,1.17-4.06.08,2.26-.86,4.45-.86,6.79-.62-.31-.7-.78-.78-1.25-.16-.86-.08-1.8,0-2.66.16-1.64.62-3.2.78-4.84"/>
    <path class="st5" d="M14.57,25.26c.78,2.03-.7,3.98-.31,6.01.62-1.33.86-2.66,1.17-4.06.08,2.26-.86,4.45-.86,6.79-.62-.31-.7-.78-.78-1.25-.16-.86-.08-1.8,0-2.66.16-1.64.62-3.2.78-4.84Z"/>
    <path class="st10" d="M12.54,28.93c.55-1.17.62-2.42,1.09-3.67.08,1.95-.47,3.75-.78,5.7-1.17-1.33-1.17-3.36-.08-5.08.08,1.17-.47,2.03-.23,3.05"/>
    <path class="st5" d="M12.54,28.93c.55-1.17.62-2.42,1.09-3.67.08,1.95-.47,3.75-.78,5.7-1.17-1.33-1.17-3.36-.08-5.08.08,1.17-.47,2.03-.23,3.05Z"/>
    <path class="st12" d="M9.41,19.48c-.31-.16-.47-.47-.86-.39-.08.16,0,.23.08.31.39.62.08,1.09-.23,1.56-.23.31-.62.08-.86-.08-.47-.31-.78-.78-.62-1.41.16-.78.62-1.17,1.33-1.17.7.08,1.17.47,1.17,1.17"/>
    <path class="st1" d="M9.41,19.48c-.31-.16-.47-.47-.86-.39-.08.16,0,.23.08.31.39.62.08,1.09-.23,1.56-.23.31-.62.08-.86-.08-.47-.31-.78-.78-.62-1.41.16-.78.62-1.17,1.33-1.17.7.08,1.17.47,1.17,1.17Z"/>
    <path class="st10" d="M20.35,30.96c.39.23.47.55.39.86-.23,1.48-.55,3.05-.86,4.53-.08.31-.16.7-.55.55-.47-.16-.16-.47-.08-.7.47-1.72.86-3.44,1.09-5.23"/>
    <path class="st5" d="M20.35,30.96c.39.23.47.55.39.86-.23,1.48-.55,3.05-.86,4.53-.08.31-.16.7-.55.55-.47-.16-.16-.47-.08-.7.47-1.72.86-3.44,1.09-5.23Z"/>
    <path class="st10" d="M21.28,32.84c.08,1.02-.23,1.87-.62,2.66-.31-.94.39-1.8.62-2.66"/>
    <path class="st5" d="M21.28,32.84c.08,1.02-.23,1.87-.62,2.66-.31-.94.39-1.8.62-2.66Z"/>
    <path class="st10" d="M21.91,33.85c.08-.23.23-.39.39-.31.23.08.31.23.23.47s-.23.31-.47.23c-.16-.08-.16-.23-.16-.39"/>
    <path class="st10" d="M18.63,29.17c-.08-.23-.16-.47,0-.7.16.23.16.47,0,.7"/>
    <path class="st5" d="M18.63,29.17c-.08-.23-.16-.47,0-.7.16.23.16.47,0,.7Z"/>
    <path class="st9" d="M49.94,81.81c-.23-2.34-.55-4.69-.78-7.03-.08-.47-.16-.86-.47-1.17-2.03-3.28-4.14-6.56-6.33-9.84-1.17-1.95-2.42-3.9-3.75-5.78-.08-.08-.08-.16-.16-.23,0-.08-.08-.08-.08-.16-.31-.47-.62-.94-.94-1.48,0-.08-.08-.08-.08-.08-.08-.08-.08-.16-.16-.23-.47-.86-1.02-1.64-1.56-2.42-1.41-2.11-2.81-4.3-4.14-6.4-.78-1.33-1.72-2.58-2.42-3.9-.78-1.41-1.72-2.81-2.73-4.06-.94-1.33-1.02-1.56.55-2.03,1.09-.31,2.19-.78,3.44-.16.94.47,2.19,0,2.81-.94.62-1.02.47-2.26-.39-3.28-.55-.62-1.72-.78-2.66-.31-.31.16-.62.39-1.02.31-1.72-.23-3.36-.08-4.92.7-.47.23-.78.16-1.09-.31-1.09-1.87-2.42-3.59-3.83-5.23-1.41-1.56-2.89-2.97-4.84-3.67-.47-.16-.55-.23-.55-.7,0-1.72-1.17-3.05-2.81-3.12-.55,0-.62-.16-.62-.7-.08-1.17-1.09-2.03-2.19-1.87-1.09.16-1.8.86-1.95,1.87-.16.94.39,1.87,1.41,2.19.31.08.47.08.39.55-.47,2.11.47,3.51,2.58,3.9.31.08.39.08.39.39-.23,1.41.16,2.66.7,3.9,1.02,2.58,2.5,4.92,4.06,7.18.39.55.39.86-.23,1.33-1.8,1.25-2.97,3.05-3.44,5.23-.08.39-.31.7-.62.94-1.09.94-1.17,2.03-.62,3.2.47,1.02,1.8,1.41,2.81,1.02,1.25-.47,1.95-1.56,1.72-2.89-.08-.31-.16-.55,0-.86.7-1.41,1.64-2.58,2.97-3.51.31-.23.47-.16.7.16.39.62.78,1.25,1.25,1.87,5.78,8.28,11.48,16.48,17.26,24.76,2.11,3.05,4.3,6.17,6.48,9.22,0,.08.08.08.08.16.16.08.31.16.47.23,0,.16.16.23.23.23.08.08.23.08.31.16,0,.16.16.23.31.23.08.08.23.08.31.16.08.16.23.23.39.31.31.16.55.47.94.55l.08.08c.16.08.31.16.47.31.16.23.31.31.55.39.23.23.47.39.7.47,0,.16.16.23.31.23.08.08.23.08.31.16.16.23.31.39.62.31-.08.08-.08-.16-.23-.31M8.63,19.48c.39.62.08,1.09-.23,1.56-.23.31-.62.08-.86-.08-.47-.31-.78-.78-.62-1.41.16-.78.62-1.17,1.33-1.17s1.17.31,1.17,1.09c-.31-.16-.47-.47-.86-.39-.08.16.08.23.08.39M28.16,43.54h0c.08.31.23.55.47.7h0c.7,1.25,1.48,2.42,2.34,3.59h0c.16.47.47.86.78,1.25.08.08.08.16.16.16,0,.08.08.16.08.16,0,.08.08.08.08.08,2.26,3.67,4.69,7.34,7.18,10.93.08.08.08.16.16.16.55,1.09,1.25,2.11,2.03,3.05.08.08.16.23.23.31,1.56,2.42,3.12,4.84,4.76,7.26.55.86,1.17,1.72,1.72,2.5.39.7.23,1.48.39,2.19,0,.08,0,.16.08.23,0,.23,0,.55.08.78-.08.47,0,.86.08,1.33v.16q0,.08-.08.16c-.08.08-.08.23-.16.31-.55-.86-1.17-1.64-1.72-2.5-6.25-8.98-12.5-18.12-18.66-27.33-1.95-2.81-3.83-5.62-5.78-8.51,0-.78.7-1.09,1.02-1.64.16-.31.47-.62.62-.94.08-.08.16-.08.16-.16h0c.08,0,.08.08.16.08h0c0,.08.08.08.08.16s.08.08.08.16c1.25,1.87,2.42,3.67,3.67,5.39M31.67,32.84c.94.31,1.33,1.33,1.02,2.26-.31.86-1.41,1.41-2.26,1.09-.86-.31-1.33-1.41-1.02-2.26.39-.94,1.33-1.41,2.26-1.09M22.3,33.54c.23.08.31.23.23.47s-.23.31-.47.23c-.16-.08-.16-.31-.16-.39.08-.23.23-.39.39-.31M21.28,32.84c.08,1.02-.23,1.87-.62,2.66-.31-.94.39-1.72.62-2.66M20.74,31.82c-.23,1.48-.55,3.05-.86,4.53-.08.31-.16.7-.55.55-.47-.16-.16-.47-.08-.7.47-1.64.86-3.36,1.09-5.15.39.16.47.47.39.78M18.63,28.47c.16.23.23.47,0,.7-.08-.23-.23-.47,0-.7M9.96,25.34c-1.09-.47-1.72-1.8-1.33-2.89.39-1.09,1.8-1.72,2.97-1.33,1.17.47,1.8,1.72,1.33,2.97-.39,1.09-1.8,1.72-2.97,1.25M12.77,25.89c.08,1.17-.47,2.03-.23,3.05.55-1.17.62-2.42,1.09-3.67.08,1.95-.47,3.75-.78,5.7-1.17-1.25-1.17-3.28-.08-5.08M13.79,32.76c-.16-.86-.08-1.8,0-2.66.16-1.64.62-3.2.86-4.84.78,2.03-.7,3.98-.31,6.01.62-1.33.86-2.66,1.17-4.06.08,2.26-.86,4.45-.86,6.79-.7-.23-.78-.7-.86-1.25M16.13,36.59c-.23,0-.31-.23-.39-.39-.39-1.02-.55-2.03-.47-3.05.16-2.26,1.09-4.37,1.25-6.72.94,2.58-.7,5.08-.47,7.65.31-2.26,1.41-4.37,1.48-6.64.47,1.48.16,2.89-.16,4.3-.31,1.41-.7,2.89-1.02,4.3,0,.23,0,.47-.23.55M17.69,33.07c.39-1.17.55-2.42.94-3.59-.31,2.5-.86,4.92-.94,7.42h.23c.47-2.26.94-4.53,1.41-6.87.23,1.41.08,2.73-.31,4.14-.23.86-.7,1.72-.86,2.66-.08.55-.62.7-1.02.78s-.23-.39-.23-.55c.08-1.33.39-2.66.78-3.98M18.94,38.15c.7-.23,1.17-.55,1.64-1.09,1.95-2.5,4.45-3.98,7.65-3.75.23,0,.62-.08.47.39-.08.31,0,.7-.55.7-3.05-.16-5.15,1.48-6.79,3.9-.31.55-.7.78-1.33.86-2.89.55-5.15,2.03-6.33,4.84-.08.16-.16.39-.31.55-.16.23-.39.16-.62.08-.23-.08-.08-.31-.08-.47.08-.31.16-.55.31-.86,1.09-2.73,3.2-4.37,5.94-5.15M12.22,48.77c-.86-.31-1.33-1.41-.94-2.26.39-.94,1.41-1.33,2.26-1.02.94.39,1.33,1.33.94,2.26-.39.94-1.41,1.41-2.26,1.02M18.78,41.2c-1.64.78-2.89,1.95-3.75,3.59-.08.16-.08.7-.55.39-.39-.23-.31-.47-.16-.78,1.02-2.58,2.97-3.9,5.47-4.53.47-.16,1.02-.16,1.48-.16.78-1.25,1.56-2.58,2.81-3.44,1.17-.86,2.5-1.33,3.9-1.25.39,0,.78.08.7.55,0,.39-.47.23-.7.31-1.95.39-3.75,1.02-5,2.81-.39.55-1.09.86-1.64,1.17-.7.62-1.72.94-2.58,1.33M46.82,79.54c-.08-.16-.23-.23-.47-.23-.16-.08-.31-.16-.47-.23-.16-.23-.47-.31-.78-.39-.55-.23-.94-.62-1.25-1.09-8.12-11.71-16.17-23.51-24.29-35.22-.31-.47-.55-.86.31-.94.62-.08,1.17-.23,1.72-.39.31.16.39.47.62.7,1.64,2.42,3.28,4.84,4.92,7.26,6.17,8.9,12.18,17.81,18.2,26.71,1.02,1.48,2.11,2.89,2.89,4.53-.47-.23-.94-.47-1.41-.7"/>
    <path class="st9" d="M12.22,22.14c-.39-.39-.86-.62-1.41-.31.62.23,1.17.47,1.17,1.41,0,.78-.7,1.02-1.17,1.64.86,0,1.33-.31,1.64-.94.31-.7.23-1.33-.23-1.8"/>
  </g>
</svg>