<?xml version="1.0" encoding="UTF-8"?>
<svg id="Layer_1" xmlns="http://www.w3.org/2000/svg" version="1.1" viewBox="0 0 109.6 176.97">
  <!-- Generator: Adobe Illustrator 30.2.1, SVG Export Plug-In . SVG Version: 2.1.1 Build 1)  -->
  <defs>
    <style>
      .st0, .st1 {
        stroke: #fddb00;
      }

      .st0, .st1, .st2, .st3, .st4, .st5, .st6, .st7 {
        fill: none;
      }

      .st0, .st5, .st6 {
        stroke-linecap: round;
        stroke-linejoin: round;
      }

      .st0, .st6 {
        stroke-width: .78px;
      }

      .st8 {
        fill: #0e80c3;
      }

      .st1, .st2, .st3, .st4, .st7 {
        stroke-miterlimit: 10;
      }

      .st1, .st4, .st5 {
        stroke-width: .39px;
      }

      .st9 {
        fill: #1d1c1a;
      }

      .st2 {
        stroke: #1d1c1a;
        stroke-width: 1.26px;
      }

      .st10 {
        fill: #d81f26;
      }

      .st11 {
        fill: #fff;
      }

      .st3, .st4, .st5 {
        stroke: #d81f26;
      }

      .st3, .st7 {
        stroke-width: .47px;
      }

      .st12 {
        fill: #fddb00;
      }

      .st6, .st7 {
        stroke: #0e80c3;
      }
    </style>
  </defs>
  <rect class="st11" x="-.54" y="-.41" width="110.69" height="177.1"/>
  <g>
    <path class="st9" d="M6.26,16.17v-1.72h1.25c.08.47.31.86.55,1.09s.55.39.94.39c.47,0,.86-.16,1.09-.47.23-.31.39-.78.39-1.41s-.16-1.09-.47-1.48c-.31-.31-.78-.47-1.33-.47-.23,0-.47,0-.7.08-.23.08-.47.08-.7.16l-.62-.39v-4.69h4.45c.08,0,.16-.08.16-.08.08-.08.08-.16.16-.31h.78l-.16,2.11h-4.22v2.5c.31-.08.55-.16.86-.16s.62-.08,1.02-.08c.55,0,1.09.08,1.48.31.39.23.78.55,1.02.94.23.39.39.86.39,1.41,0,.62-.16,1.17-.39,1.56-.31.47-.7.78-1.25.94-.55.23-1.17.31-1.95.31-.47,0-.94-.08-1.48-.16-.47-.08-.94-.16-1.25-.39"/>
    <path class="st9" d="M103.96,160.26v1.72h-1.25c-.08-.47-.31-.86-.55-1.09-.23-.23-.55-.39-.94-.39-.47,0-.86.16-1.09.47-.23.31-.39.78-.39,1.41s.16,1.09.47,1.48c.31.31.78.47,1.33.47.23,0,.47,0,.7-.08.23-.08.47-.08.7-.16l.62.39v4.69h-4.45c-.08,0-.16.08-.16.08-.08.08-.08.16-.16.31h-.78l.16-2.19h4.22v-2.5c-.31.08-.55.16-.86.16-.31.08-.62.08-1.02.08-.55,0-1.09-.08-1.48-.31-.39-.23-.78-.55-1.02-.94s-.39-.86-.39-1.41c0-.62.16-1.17.39-1.56.31-.47.7-.78,1.25-.94.55-.23,1.17-.31,1.95-.31.47,0,.94.08,1.48.16.47.16.94.31,1.25.47"/>
    <polyline class="st2" points="29.69 171.19 3.77 171.19 3.77 5.08 29.15 5.08"/>
    <polyline class="st2" points="79.44 5.08 105.84 5.08 105.84 171.19 79.28 171.19"/>
    <line class="st2" x1="68.59" y1="171.19" x2="40.55" y2="171.19"/>
    <line class="st2" x1="68.59" y1="5.08" x2="40.55" y2="5.08"/>
    <path class="st12" d="M59.6,38.59c-.31.16-.16.62-.47.86-.08-.08-.16-.16-.16-.23-.23-1.72,1.41-4.76,3.05-5.47,1.09-.47,2.26-.23,3.05.7.7.86.78,2.11.08,3.05-.08.16-.23.39-.31.39-1.02-.16-1.95.47-2.97.23.62-.62,1.25-1.25,1.87-1.87-1.17.23-1.8,1.09-2.42,1.95-.16.31-.39.62-.55.94-.08.16-.23.31-.39.31-.23-.08-.16-.31-.16-.55.78-1.33,1.41-2.81,2.89-3.75-1.41-.16-2.81,1.41-3.51,3.44"/>
    <path class="st1" d="M59.6,38.59c-.31.16-.16.62-.47.86-.08-.08-.16-.16-.16-.23-.23-1.72,1.41-4.76,3.05-5.47,1.09-.47,2.26-.23,3.05.7.7.86.78,2.11.08,3.05-.08.16-.23.39-.31.39-1.02-.16-1.95.47-2.97.23.62-.62,1.25-1.25,1.87-1.87-1.17.23-1.8,1.09-2.42,1.95-.16.31-.39.62-.55.94-.08.16-.23.31-.39.31-.23-.08-.16-.31-.16-.55.78-1.33,1.41-2.81,2.89-3.75-1.41-.16-2.81,1.41-3.51,3.44Z"/>
    <path class="st12" d="M53.2,38.2c0,.23-.23.31-.39.23-1.56-.39-2.89-1.02-3.51-2.58-.7-1.8.55-3.75,2.5-3.83,1.09-.08,1.48.31,1.33,1.33-.08.47,0,.86-.16,1.33-.39-.23-.55-.62-.86-1.02-.08.86.16,1.48.55,2.03.08.16.23.31.39.39.23.23.47.7.23.86-.31.23-.55-.16-.78-.31-.86-.7-1.09-1.87-1.64-2.81-.08,1.25.23,2.42,1.25,3.28,0,.08.08.08.16.08.08.55.55.78.94,1.02"/>
    <path class="st1" d="M53.2,38.2c0,.23-.23.31-.39.23-1.56-.39-2.89-1.02-3.51-2.58-.7-1.8.55-3.75,2.5-3.83,1.09-.08,1.48.31,1.33,1.33-.08.47,0,.86-.16,1.33-.39-.23-.55-.62-.86-1.02-.08.86.16,1.48.55,2.03.08.16.23.31.39.39.23.23.47.7.23.86-.31.23-.55-.16-.78-.31-.86-.7-1.09-1.87-1.64-2.81-.08,1.25.23,2.42,1.25,3.28,0,.08.08.08.16.08.08.55.55.78.94,1.02Z"/>
    <path class="st10" d="M55.39,48.66c-2.42-.47-4.37-2.26-4.76-4.37-.08-.23-.39-.7.16-.86.47-.08.47.31.55.62.23.86.55,1.72,1.09,2.42,1.02,1.25,2.5,1.72,4.06,1.17-1.25,0-2.19-.55-3.05-1.25-.86-.78-1.25-1.72-1.09-2.97,1.02,1.64,2.03,3.2,4.53,3.05-.86-.31-1.41-.7-1.95-1.09-.86-.55-1.09-1.33-1.33-2.19-.08-.23-.16-.62.23-.7.31-.08.47.23.55.47.39,1.25,1.25,2.11,2.58,2.5.16.08.39.08.55.08.08,0,.16,0,.39-.08-1.02-.39-1.64-1.02-2.26-1.72-.31-.47-.39-.62.16-.86.31-.08.55-.39.31-.7-.23-.39-.47-.16-.7.08-.55.47-.7-.31-1.17-.47-.31-.08-.08-.55.08-.78.55-.62,1.25-.86,2.03-.47.7.39,1.33.47,2.03-.08.62-.47,1.48.08,1.72.94.62,2.58-.39,5.08-2.66,6.64-.31.23-.62.39-.78.7-.39.39-.7-.08-1.25-.08"/>
    <path class="st4" d="M55.39,48.66c-2.42-.47-4.37-2.26-4.76-4.37-.08-.23-.39-.7.16-.86.47-.08.47.31.55.62.23.86.55,1.72,1.09,2.42,1.02,1.25,2.5,1.72,4.06,1.17-1.25,0-2.19-.55-3.05-1.25-.86-.78-1.25-1.72-1.09-2.97,1.02,1.64,2.03,3.2,4.53,3.05-.86-.31-1.41-.7-1.95-1.09-.86-.55-1.09-1.33-1.33-2.19-.08-.23-.16-.62.23-.7.31-.08.47.23.55.47.39,1.25,1.25,2.11,2.58,2.5.16.08.39.08.55.08.08,0,.16,0,.39-.08-1.02-.39-1.64-1.02-2.26-1.72-.31-.47-.39-.62.16-.86.31-.08.55-.39.31-.7-.23-.39-.47-.16-.7.08-.55.47-.7-.31-1.17-.47-.31-.08-.08-.55.08-.78.55-.62,1.25-.86,2.03-.47.7.39,1.33.47,2.03-.08.62-.47,1.48.08,1.72.94.62,2.58-.39,5.08-2.66,6.64-.31.23-.62.39-.78.7-.39.39-.7-.08-1.25-.08Z"/>
    <path class="st12" d="M47.42,54.75c-.47-.31-.94-.62-1.33-.94.16-.47-.31-.47-.47-.62-1.64-1.02-2.34-2.73-3.2-4.3,4.45.23,8.67,3.36,9.68,7.34-1.8-1.56-3.28-3.05-5.23-4.14.78,1.02,1.72,1.8,2.73,2.58.08.08.16.08.23.16h0c.08.23.23.39.47.47.31.31.62.62,1.09,1.17-1.33-.16-2.19-.86-3.2-1.25-.23-.39-.31-.7-.78-.47"/>
    <path class="st1" d="M47.42,54.75c-.47-.31-.94-.62-1.33-.94.16-.47-.31-.47-.47-.62-1.64-1.02-2.34-2.73-3.2-4.3,4.45.23,8.67,3.36,9.68,7.34-1.8-1.56-3.28-3.05-5.23-4.14.78,1.02,1.72,1.8,2.73,2.58.08.08.16.08.23.16h0c.08.23.23.39.47.47.31.31.62.62,1.09,1.17-1.33-.16-2.19-.86-3.2-1.25-.23-.39-.31-.7-.78-.47Z"/>
    <path class="st12" d="M63.35,62.17c-.94.7-1.8,1.48-2.58,2.34s-1.33,1.8-2.03,2.66c.16-1.72.86-3.2,1.87-4.45,1.09-1.33,2.42-2.26,4.06-2.73.23-.08.47-.23.7-.23.39-.08.86-.62,1.17-.31.39.39-.16.86-.31,1.25-1.33,2.42-2.97,4.53-5.54,5.86-.31.16-.62.39-1.09.23,1.17-1.64,2.66-2.97,3.9-4.53.08-.08.16-.16.16-.23.16-.08.23-.16.31-.31l.08-.08h-.16v.16c-.23-.08-.31.08-.39.23,0,0-.08.08-.16.16"/>
    <path class="st1" d="M63.35,62.17c-.94.7-1.8,1.48-2.58,2.34s-1.33,1.8-2.03,2.66c.16-1.72.86-3.2,1.87-4.45,1.09-1.33,2.42-2.26,4.06-2.73.23-.08.47-.23.7-.23.39-.08.86-.62,1.17-.31.39.39-.16.86-.31,1.25-1.33,2.42-2.97,4.53-5.54,5.86-.31.16-.62.39-1.09.23,1.17-1.64,2.66-2.97,3.9-4.53.08-.08.16-.16.16-.23.16-.08.23-.16.31-.31l.08-.08h-.16v.16c-.23-.08-.31.08-.39.23,0,0-.08.08-.16.16Z"/>
    <path class="st8" d="M55.39,48.66c.47-.08.86.39,1.33.31-.16,1.72-.7,3.44-.86,5.15-.47,4.69-.08,9.29,1.02,13.9.55,2.42,1.25,4.84,2.19,7.18.08.16.16.39,0,.55s-.39.08-.62,0c-.55-.23-.86-.55-1.02-1.09-1.56-4.76-2.58-9.61-3.05-14.6-.31-3.28-.23-6.56.47-9.84.16-.47.47-1.02.55-1.56"/>
    <path class="st7" d="M55.39,48.66c.47-.08.86.39,1.33.31-.16,1.72-.7,3.44-.86,5.15-.47,4.69-.08,9.29,1.02,13.9.55,2.42,1.25,4.84,2.19,7.18.08.16.16.39,0,.55s-.39.08-.62,0c-.55-.23-.86-.55-1.02-1.09-1.56-4.76-2.58-9.61-3.05-14.6-.31-3.28-.23-6.56.47-9.84.16-.47.47-1.02.55-1.56Z"/>
    <path class="st10" d="M55.78,39.29c-1.48-1.87-2.11-3.98-1.48-6.33.39-1.48,1.87-2.34,3.67-2.19,1.48.08,2.5.94,2.66,2.26.08.31.08.55-.16.78-1.56,1.64-2.42,3.51-2.26,5.78,0,.08-.08.16-.08.23-.62-.78-.62-1.09.16-5.54-.94.62-1.09,1.41-1.25,5.39-1.17-2.26-.7-4.3-.16-6.25-.94.31-1.41,2.89-1.09,5.86"/>
    <path class="st3" d="M55.78,39.29c-1.48-1.87-2.11-3.98-1.48-6.33.39-1.48,1.87-2.34,3.67-2.19,1.48.08,2.5.94,2.66,2.26.08.31.08.55-.16.78-1.56,1.64-2.42,3.51-2.26,5.78,0,.08-.08.16-.08.23-.62-.78-.62-1.09.16-5.54-.94.62-1.09,1.41-1.25,5.39-1.17-2.26-.7-4.3-.16-6.25-.94.31-1.41,2.89-1.09,5.86Z"/>
    <path class="st10" d="M47.03,64.12c1.33,1.09,2.89,1.8,4.45,2.26.47.16,1.25.31,1.17.86-.08.55-.78.31-1.33.31-2.19,0-3.83-.94-5.31-2.42-.7-.7-1.25-1.48-1.95-2.19,3.59-1.64,6.95-.47,8.28,2.81-1.87-.47-3.51-1.25-5.31-1.87-.08-.16-.23-.16-.39-.08q-.08,0-.16-.08l.08.08c.23.23.39.31.47.31"/>
    <path class="st3" d="M47.03,64.12c1.33,1.09,2.89,1.8,4.45,2.26.47.16,1.25.31,1.17.86-.08.55-.78.31-1.33.31-2.19,0-3.83-.94-5.31-2.42-.7-.7-1.25-1.48-1.95-2.19,3.59-1.64,6.95-.47,8.28,2.81-1.87-.47-3.51-1.25-5.31-1.87-.08-.16-.23-.16-.39-.08q-.08,0-.16-.08l.08.08c.23.23.39.31.47.31Z"/>
    <path class="st8" d="M50.94,39.37c-.23.55.7.7.31,1.09-.31.31-.78-.08-1.17-.23-.16-.08-.39-.23-.47,0-.16.23.16.31.23.39.7.47,1.48.55,2.34.47.39-.08.78-.08,1.09.31.31.31.31.7-.16.86-1.8.7-4.76.62-6.01-1.87-.47-.86-.39-1.72.16-2.58.62-1.09,1.09-1.17,2.03-.23,1.25,1.25,2.73,1.8,4.45,1.87.47,0,1.02,0,.94.62-.08.62-.55.62-1.17.55-.94-.31-1.87-.55-2.58-1.25"/>
    <path class="st7" d="M50.94,39.37c-.23.55.7.7.31,1.09-.31.31-.78-.08-1.17-.23-.16-.08-.39-.23-.47,0-.16.23.16.31.23.39.7.47,1.48.55,2.34.47.39-.08.78-.08,1.09.31.31.31.31.7-.16.86-1.8.7-4.76.62-6.01-1.87-.47-.86-.39-1.72.16-2.58.62-1.09,1.09-1.17,2.03-.23,1.25,1.25,2.73,1.8,4.45,1.87.47,0,1.02,0,.94.62-.08.62-.55.62-1.17.55-.94-.31-1.87-.55-2.58-1.25Z"/>
    <path class="st10" d="M57.18,58.97c1.41-2.66,3.98-4.3,5-6.95-1.48,1.8-3.12,3.44-4.84,5.08-.08-2.03,1.48-4.3,6.25-7.34.94,2.73-2.19,7.26-6.4,9.22"/>
    <path class="st3" d="M57.18,58.97c1.41-2.66,3.98-4.3,5-6.95-1.48,1.8-3.12,3.44-4.84,5.08-.08-2.03,1.48-4.3,6.25-7.34.94,2.73-2.19,7.26-6.4,9.22Z"/>
    <path class="st8" d="M65.54,41.56c-.86-.39-1.72.16-2.73-.16,1.02-.55,1.95-.94,2.97-1.8-1.25,0-2.03.62-2.97.86-.47.08-.86.31-1.33.47-.23.08-.47.08-.62-.16-.08-.23-.16-.47,0-.7.94-1.33,3.83-1.87,5.23-1.02,1.02.62,1.33,1.72.94,2.97-.39,1.02-1.17,1.33-2.42,1.33-1.02,0-1.95-.55-2.97-.55-.23,0-.39-.08-.39-.31,0-.16.08-.23.23-.31.31-.16.7-.16,1.02-.16,1.09.08,2.03-.23,3.05-.47"/>
    <path class="st7" d="M65.54,41.56c-.86-.39-1.72.16-2.73-.16,1.02-.55,1.95-.94,2.97-1.8-1.25,0-2.03.62-2.97.86-.47.08-.86.31-1.33.47-.23.08-.47.08-.62-.16-.08-.23-.16-.47,0-.7.94-1.33,3.83-1.87,5.23-1.02,1.02.62,1.33,1.72.94,2.97-.39,1.02-1.17,1.33-2.42,1.33-1.02,0-1.95-.55-2.97-.55-.23,0-.39-.08-.39-.31,0-.16.08-.23.23-.31.31-.16.7-.16,1.02-.16,1.09.08,2.03-.23,3.05-.47Z"/>
    <path class="st9" d="M56.64,55.38c0-.23-.08-.39-.08-.62.08-1.72.39-3.44.86-5.08.16-.55.47-1.02.94-1.41,1.33-1.09,2.34-2.42,2.66-4.14.08-.7.47-.78,1.02-.55.86.31,1.72.47,2.58.55.55.08,1.17.16,1.64-.16,2.03-1.33,2.58-3.59.62-5.39-.7-.62-.78-1.09-.55-1.87.62-2.66-1.33-4.53-4.06-3.83-.55.16-.62-.08-.78-.47-1.25-3.59-5.08-3.2-6.95-1.33-.47.47-.86.55-1.41.23-1.72-.7-3.51-.16-4.45,1.41-.47.78-.47,1.64-.47,2.42,0,.62-.16.86-.7,1.09-1.17.62-1.72,1.56-1.72,2.89-.08,1.87,1.09,2.97,2.66,3.59.86.31,1.25.94,1.48,1.8.47,2.03,1.72,3.51,3.67,4.3.62.23.7.62.62,1.17-.39,1.56-.7,3.2-1.02,4.76,0,.16.08.39-.16.47-.23,0-.31-.16-.39-.31-.39-.62-.86-1.33-1.25-1.95-1.33-1.95-2.97-3.44-5.39-3.9-1.56-.31-3.12-.78-4.53-1.56-.08-.08-.23-.08-.31.08,1.48,4.61,4.61,7.81,9.14,9.68,3.2,1.33,2.73,1.02,3.28,4.3.23,1.41.31,2.73.55,4.22-.39-.08-.55-.31-.7-.55-.47-.78-1.09-1.41-1.72-1.95-1.64-1.41-3.44-2.34-5.7-1.72-1.33.39-2.66.7-4.14.39,0,.47.31.55.55.7,1.17.78,2.11,1.72,3.05,2.73,1.95,2.26,4.3,3.36,7.42,2.97.94-.16,1.72.39,2.03,1.25.47,1.48.94,2.97,1.48,4.45.23.7.31,1.56,1.17,1.95.7.31,1.41.7,2.19,1.02.23.08.47.31.7.08s.08-.47,0-.7c-.7-2.03-1.56-3.9-2.03-5.94-.39-.31-.39-.55-.16-.86.62-.78,1.25-1.56,2.19-2.03,1.72-.86,3.2-2.11,4.45-3.51,1.41-1.56,2.26-3.44,2.89-5.62-1.48.47-2.81,1.02-4.22,1.33-2.11.55-3.44,1.87-4.3,3.75-.47,1.02-.78,2.03-1.17,3.05-.08.39-.16.78-.62,1.02-.55-1.17-.47-2.5-.86-3.67-.78-2.26.08-3.83,2.19-5,1.33-.7,2.58-1.56,3.51-2.73,1.33-1.8,1.8-3.83,2.03-6.01.08-.78.23-1.56,0-2.42-.39.55-.78.94-1.25,1.25-.86.86-1.87,1.56-2.89,2.19-1.56,1.02-2.73,2.5-3.59,4.22M55.39,48.66c-2.42-.47-4.37-2.26-4.76-4.37-.08-.23-.39-.7.16-.86.47-.08.47.31.55.62.23.86.55,1.72,1.09,2.42,1.02,1.25,2.5,1.72,4.06,1.17-1.25,0-2.19-.55-3.05-1.25-.86-.78-1.25-1.72-1.09-2.97,1.02,1.64,2.03,3.2,4.53,3.05-.86-.31-1.41-.7-1.95-1.09-.86-.55-1.09-1.33-1.33-2.19-.08-.23-.16-.62.23-.7.31-.08.47.23.55.47.39,1.25,1.25,2.11,2.58,2.5.16.08.39.08.55.08.08,0,.16,0,.39-.08-1.02-.39-1.64-1.02-2.26-1.72-.31-.47-.39-.62.16-.86.31-.08.55-.39.31-.7-.23-.39-.47-.16-.7.08-.55.47-.7-.31-1.17-.47-.31-.08-.16-.55.08-.78.55-.62,1.25-.86,2.03-.47.7.39,1.33.47,2.03-.08.62-.47,1.48.08,1.72.94.62,2.58-.39,5.08-2.66,6.64-.31.23-.62.39-.78.7-.39.39-.7-.08-1.25-.08M55.39,48.66c.47-.08.86.39,1.33.31-.16,1.72-.7,3.44-.86,5.15-.47,4.69-.08,9.29,1.02,13.9.55,2.42,1.25,4.84,2.19,7.18.08.16.16.39,0,.55s-.39.08-.62,0c-.55-.23-.86-.55-1.02-1.09-1.56-4.76-2.58-9.61-3.05-14.6-.31-3.28-.23-6.56.47-9.84.16-.47.47-1.02.55-1.56M55.78,39.29c-1.48-1.87-2.11-3.98-1.48-6.33.39-1.48,1.87-2.34,3.67-2.19,1.48.08,2.5.94,2.66,2.26.08.31.08.55-.16.78-1.48,1.64-2.42,3.51-2.26,5.78,0,.08-.08.16-.08.23-.62-.78-.62-1.09.16-5.54-.94.62-1.09,1.41-1.25,5.39-1.17-2.26-.7-4.3-.16-6.25-.94.31-1.41,2.89-1.09,5.86M47.42,54.75c-.47-.31-.94-.62-1.33-.94.16-.47-.31-.47-.47-.62-1.64-1.02-2.34-2.73-3.2-4.3,4.45.23,8.67,3.36,9.68,7.34-1.8-1.56-3.28-3.05-5.23-4.14.78,1.02,1.72,1.8,2.73,2.58.08.08.16.08.23.16h0c.08.23.23.39.47.47.31.31.62.62,1.09,1.17-1.33-.16-2.19-.86-3.2-1.25-.23-.39-.31-.7-.78-.47M46.02,51.4c0,.31.16.47.39.47,0,0,.16-.08.16-.16-.08-.23-.31-.31-.55-.31M47.03,64.12c1.33,1.09,2.89,1.8,4.45,2.26.47.16,1.25.31,1.17.86-.08.55-.78.31-1.33.31-2.19,0-3.83-.94-5.31-2.42-.7-.7-1.25-1.48-1.95-2.19,3.59-1.64,6.95-.47,8.28,2.81-1.87-.47-3.51-1.25-5.31-1.87-.08-.16-.23-.16-.39-.08q-.08,0-.16-.08l.08.08c.23.23.39.31.47.31M50.94,39.37c-.23.55.7.7.31,1.09-.31.31-.78-.08-1.17-.23-.16-.08-.39-.23-.47,0-.16.23.16.31.23.39.7.47,1.48.55,2.34.47.39-.08.78-.08,1.09.31.31.31.31.7-.16.86-1.8.7-4.76.62-6.01-1.87-.47-.86-.39-1.72.16-2.58.62-1.09,1.09-1.17,2.03-.23,1.25,1.25,2.73,1.8,4.45,1.87.47,0,1.02,0,.94.62-.08.62-.55.62-1.17.55-.94-.31-1.87-.55-2.58-1.25M63.35,62.17c-.94.7-1.8,1.48-2.58,2.34s-1.33,1.8-2.03,2.66c.16-1.72.86-3.2,1.87-4.45,1.09-1.33,2.42-2.26,4.06-2.73.23-.08.47-.23.7-.23.39-.08.86-.62,1.17-.31.39.39-.16.86-.31,1.25-1.33,2.42-2.97,4.53-5.54,5.86-.31.16-.62.39-1.09.23,1.17-1.64,2.66-2.97,3.9-4.53.08-.08.08-.16.16-.23.16-.08.23-.16.31-.31l.08-.08h-.16v.16c-.23-.08-.31.08-.39.23,0,0-.08.08-.16.16M57.18,58.97c1.41-2.66,3.98-4.3,5-6.95-1.48,1.8-3.12,3.44-4.84,5.08-.08-2.03,1.48-4.3,6.25-7.34.94,2.73-2.19,7.26-6.4,9.22M59.6,38.59c-.31.16-.16.62-.47.86-.08-.08-.16-.16-.16-.23-.23-1.72,1.41-4.76,3.05-5.47,1.09-.47,2.26-.23,3.05.7.7.86.78,2.11.08,3.05-.08.16-.23.39-.31.39-1.02-.16-1.95.47-2.97.23.62-.62,1.25-1.25,1.87-1.87-1.17.23-1.8,1.09-2.42,1.95-.16.31-.39.62-.55.94-.08.16-.23.31-.39.23-.23-.08-.16-.31-.16-.55.78-1.33,1.41-2.81,2.89-3.75-1.41-.08-2.81,1.48-3.51,3.51M65.54,41.56c-.86-.39-1.72.16-2.73-.16,1.02-.55,1.95-.94,2.97-1.8-1.25,0-2.03.62-2.97.86-.47.08-.86.31-1.33.47-.23.08-.47.08-.62-.16-.08-.23-.16-.47,0-.7.94-1.33,3.83-1.87,5.23-1.02,1.02.62,1.33,1.72.94,2.97-.39,1.02-1.17,1.33-2.42,1.33-1.02,0-1.95-.55-2.97-.55-.23,0-.39-.08-.39-.31,0-.16.08-.23.23-.31.31-.16.7-.16,1.02-.16,1.09.08,2.03-.23,3.05-.47M53.2,38.2c0,.23-.23.31-.39.23-1.56-.39-2.89-1.02-3.51-2.58-.7-1.8.55-3.75,2.5-3.83,1.09-.08,1.48.31,1.33,1.33-.08.47,0,.86-.16,1.33-.39-.23-.55-.62-.86-1.02-.08.86.16,1.48.55,2.03.08.16.23.31.39.39.23.23.47.7.23.86-.31.23-.55-.16-.78-.31-.86-.7-1.09-1.87-1.64-2.81-.08,1.25.23,2.42,1.25,3.28,0,.08.08.08.16.08.08.55.55.78.94,1.02"/>
    <path class="st12" d="M50.86,140.5c.31-.16.16-.62.47-.86.08.08.16.16.16.23.23,1.72-1.41,4.76-3.05,5.47-1.09.47-2.26.23-3.05-.7-.7-.86-.78-2.11-.08-3.05.08-.16.23-.39.39-.39,1.02.16,1.95-.47,2.97-.23-.62.62-1.25,1.25-1.87,1.87,1.17-.23,1.8-1.09,2.42-1.95.16-.31.39-.62.55-.94.08-.16.23-.31.39-.31.23.08.16.31.16.55-.78,1.33-1.41,2.81-2.89,3.75,1.33.16,2.73-1.41,3.44-3.44"/>
    <path class="st1" d="M50.86,140.5c.31-.16.16-.62.47-.86.08.08.16.16.16.23.23,1.72-1.41,4.76-3.05,5.47-1.09.47-2.26.23-3.05-.7-.7-.86-.78-2.11-.08-3.05.08-.16.23-.39.39-.39,1.02.16,1.95-.47,2.97-.23-.62.62-1.25,1.25-1.87,1.87,1.17-.23,1.8-1.09,2.42-1.95.16-.31.39-.62.55-.94.08-.16.23-.31.39-.31.23.08.16.31.16.55-.78,1.33-1.41,2.81-2.89,3.75,1.33.16,2.73-1.41,3.44-3.44Z"/>
    <path class="st12" d="M57.26,140.89c0-.23.23-.31.39-.23,1.56.39,2.89,1.02,3.51,2.58.7,1.8-.55,3.75-2.5,3.83-1.09.08-1.48-.31-1.33-1.33.08-.47,0-.86.16-1.33.39.23.55.62.86,1.02.08-.86-.16-1.48-.55-2.03-.08-.16-.23-.31-.39-.39-.23-.23-.47-.7-.23-.86.31-.23.55.16.78.31.86.7,1.09,1.87,1.64,2.81.08-1.25-.23-2.42-1.25-3.28,0-.08-.08-.08-.16-.08-.08-.55-.47-.78-.94-1.02"/>
    <path class="st1" d="M57.26,140.89c0-.23.23-.31.39-.23,1.56.39,2.89,1.02,3.51,2.58.7,1.8-.55,3.75-2.5,3.83-1.09.08-1.48-.31-1.33-1.33.08-.47,0-.86.16-1.33.39.23.55.62.86,1.02.08-.86-.16-1.48-.55-2.03-.08-.16-.23-.31-.39-.39-.23-.23-.47-.7-.23-.86.31-.23.55.16.78.31.86.7,1.09,1.87,1.64,2.81.08-1.25-.23-2.42-1.25-3.28,0-.08-.08-.08-.16-.08-.08-.55-.47-.78-.94-1.02Z"/>
    <path class="st10" d="M55.07,130.35c2.42.47,4.37,2.26,4.76,4.37.08.23.39.7-.16.86-.47.08-.47-.31-.55-.62-.23-.86-.55-1.72-1.09-2.42-1.02-1.25-2.5-1.72-4.06-1.17,1.25,0,2.19.55,3.05,1.25.86.78,1.25,1.72,1.09,2.97-1.02-1.64-2.03-3.2-4.53-3.05.86.31,1.41.7,1.95,1.09.86.55,1.09,1.33,1.33,2.19.08.23.16.62-.23.7-.31.08-.47-.23-.55-.47-.39-1.25-1.25-2.11-2.58-2.5-.16-.08-.39-.08-.55-.08-.08,0-.16,0-.39.08,1.02.39,1.64,1.02,2.19,1.72.31.47.39.62-.16.86-.31.08-.55.39-.31.7.23.39.47.16.7-.08.55-.47.7.31,1.17.47.31.08.16.55-.08.78-.55.62-1.25.86-2.03.47-.7-.39-1.33-.47-2.03.08-.62.47-1.48-.08-1.72-.94-.62-2.58.39-5.08,2.66-6.64.31-.23.62-.39.78-.7.47-.31.86.16,1.33.08"/>
    <path class="st4" d="M55.07,130.35c2.42.47,4.37,2.26,4.76,4.37.08.23.39.7-.16.86-.47.08-.47-.31-.55-.62-.23-.86-.55-1.72-1.09-2.42-1.02-1.25-2.5-1.72-4.06-1.17,1.25,0,2.19.55,3.05,1.25.86.78,1.25,1.72,1.09,2.97-1.02-1.64-2.03-3.2-4.53-3.05.86.31,1.41.7,1.95,1.09.86.55,1.09,1.33,1.33,2.19.08.23.16.62-.23.7-.31.08-.47-.23-.55-.47-.39-1.25-1.25-2.11-2.58-2.5-.16-.08-.39-.08-.55-.08-.08,0-.16,0-.39.08,1.02.39,1.64,1.02,2.19,1.72.31.47.39.62-.16.86-.31.08-.55.39-.31.7.23.39.47.16.7-.08.55-.47.7.31,1.17.47.31.08.16.55-.08.78-.55.62-1.25.86-2.03.47-.7-.39-1.33-.47-2.03.08-.62.47-1.48-.08-1.72-.94-.62-2.58.39-5.08,2.66-6.64.31-.23.62-.39.78-.7.47-.31.86.16,1.33.08Z"/>
    <path class="st12" d="M63.04,124.34c.47.31.94.62,1.33.94-.16.47.31.47.47.62,1.64,1.02,2.34,2.73,3.2,4.3-4.45-.23-8.67-3.36-9.68-7.34,1.8,1.56,3.28,3.05,5.23,4.14-.78-1.02-1.72-1.8-2.73-2.58-.08-.08-.16-.08-.23-.16h0c-.08-.23-.23-.39-.47-.47-.31-.31-.62-.62-1.09-1.17,1.33.16,2.19.86,3.2,1.25.23.39.39.7.78.47"/>
    <path class="st1" d="M63.04,124.34c.47.31.94.62,1.33.94-.16.47.31.47.47.62,1.64,1.02,2.34,2.73,3.2,4.3-4.45-.23-8.67-3.36-9.68-7.34,1.8,1.56,3.28,3.05,5.23,4.14-.78-1.02-1.72-1.8-2.73-2.58-.08-.08-.16-.08-.23-.16h0c-.08-.23-.23-.39-.47-.47-.31-.31-.62-.62-1.09-1.17,1.33.16,2.19.86,3.2,1.25.23.39.39.7.78.47Z"/>
    <path class="st12" d="M47.11,116.92c.94-.7,1.8-1.48,2.58-2.34.78-.86,1.33-1.8,2.03-2.66-.16,1.72-.86,3.2-1.87,4.45-1.09,1.33-2.42,2.26-4.06,2.73-.23.08-.47.23-.7.23-.39.08-.86.62-1.17.31-.39-.39.16-.86.31-1.25,1.33-2.42,2.97-4.53,5.54-5.86.31-.16.55-.39,1.09-.23-1.17,1.64-2.66,2.97-3.9,4.53-.08.08-.16.16-.16.23-.16.08-.23.16-.31.31l-.08.08h.16v-.16c.23.08.31-.08.39-.23.08-.08.16-.08.16-.16"/>
    <path class="st1" d="M47.11,116.92c.94-.7,1.8-1.48,2.58-2.34.78-.86,1.33-1.8,2.03-2.66-.16,1.72-.86,3.2-1.87,4.45-1.09,1.33-2.42,2.26-4.06,2.73-.23.08-.47.23-.7.23-.39.08-.86.62-1.17.31-.39-.39.16-.86.31-1.25,1.33-2.42,2.97-4.53,5.54-5.86.31-.16.55-.39,1.09-.23-1.17,1.64-2.66,2.97-3.9,4.53-.08.08-.16.16-.16.23-.16.08-.23.16-.31.31l-.08.08h.16v-.16c.23.08.31-.08.39-.23.08-.08.16-.08.16-.16Z"/>
    <path class="st8" d="M55.07,130.35c-.47.08-.86-.39-1.33-.31.16-1.72.7-3.44.86-5.15.47-4.69.08-9.29-1.02-13.9-.55-2.42-1.25-4.84-2.19-7.18-.08-.16-.16-.39,0-.55s.39-.08.62,0c.55.23.86.55,1.02,1.09,1.56,4.76,2.58,9.61,3.05,14.6.31,3.28.23,6.56-.47,9.84-.16.55-.39,1.02-.55,1.56"/>
    <path class="st7" d="M55.07,130.35c-.47.08-.86-.39-1.33-.31.16-1.72.7-3.44.86-5.15.47-4.69.08-9.29-1.02-13.9-.55-2.42-1.25-4.84-2.19-7.18-.08-.16-.16-.39,0-.55s.39-.08.62,0c.55.23.86.55,1.02,1.09,1.56,4.76,2.58,9.61,3.05,14.6.31,3.28.23,6.56-.47,9.84-.16.55-.39,1.02-.55,1.56Z"/>
    <path class="st10" d="M54.68,139.72c1.48,1.87,2.11,3.98,1.48,6.33-.39,1.48-1.87,2.34-3.67,2.19-1.48-.08-2.5-.94-2.66-2.26-.08-.31-.08-.55.16-.78,1.56-1.64,2.42-3.51,2.26-5.78,0-.08.08-.16.08-.23.62.78.62,1.09-.16,5.54.94-.62,1.09-1.41,1.25-5.39,1.17,2.26.7,4.3.16,6.25.94-.31,1.41-2.89,1.09-5.86"/>
    <path class="st3" d="M54.68,139.72c1.48,1.87,2.11,3.98,1.48,6.33-.39,1.48-1.87,2.34-3.67,2.19-1.48-.08-2.5-.94-2.66-2.26-.08-.31-.08-.55.16-.78,1.56-1.64,2.42-3.51,2.26-5.78,0-.08.08-.16.08-.23.62.78.62,1.09-.16,5.54.94-.62,1.09-1.41,1.25-5.39,1.17,2.26.7,4.3.16,6.25.94-.31,1.41-2.89,1.09-5.86Z"/>
    <path class="st10" d="M63.43,114.97c-1.33-1.09-2.89-1.8-4.45-2.26-.47-.16-1.25-.31-1.17-.86.08-.55.78-.31,1.33-.31,2.19,0,3.83.94,5.31,2.42.7.7,1.25,1.48,1.95,2.19-3.59,1.64-6.95.47-8.28-2.81,1.87.47,3.51,1.25,5.31,1.87.08.16.23.16.39.08q.08,0,.16.08l-.08-.08c-.23-.23-.31-.31-.47-.31"/>
    <path class="st3" d="M63.43,114.97c-1.33-1.09-2.89-1.8-4.45-2.26-.47-.16-1.25-.31-1.17-.86.08-.55.78-.31,1.33-.31,2.19,0,3.83.94,5.31,2.42.7.7,1.25,1.48,1.95,2.19-3.59,1.64-6.95.47-8.28-2.81,1.87.47,3.51,1.25,5.31,1.87.08.16.23.16.39.08q.08,0,.16.08l-.08-.08c-.23-.23-.31-.31-.47-.31Z"/>
    <path class="st8" d="M59.53,139.64c.23-.55-.7-.7-.31-1.09.31-.31.78.08,1.17.23.16.08.39.23.47,0,.16-.23-.16-.31-.23-.39-.7-.47-1.48-.55-2.34-.47-.39.08-.78.08-1.09-.31-.31-.31-.31-.7.16-.86,1.8-.7,4.76-.62,6.01,1.87.47.86.39,1.72-.16,2.58-.62,1.09-1.09,1.17-2.03.23-1.25-1.25-2.73-1.8-4.45-1.87-.47,0-1.02,0-.94-.62.08-.62.55-.62,1.17-.55,1.02.31,1.87.62,2.58,1.25"/>
    <path class="st7" d="M59.53,139.64c.23-.55-.7-.7-.31-1.09.31-.31.78.08,1.17.23.16.08.39.23.47,0,.16-.23-.16-.31-.23-.39-.7-.47-1.48-.55-2.34-.47-.39.08-.78.08-1.09-.31-.31-.31-.31-.7.16-.86,1.8-.7,4.76-.62,6.01,1.87.47.86.39,1.72-.16,2.58-.62,1.09-1.09,1.17-2.03.23-1.25-1.25-2.73-1.8-4.45-1.87-.47,0-1.02,0-.94-.62.08-.62.55-.62,1.17-.55,1.02.31,1.87.62,2.58,1.25Z"/>
    <path class="st10" d="M53.28,120.12c-1.41,2.66-3.98,4.3-5,6.95,1.48-1.8,3.12-3.44,4.84-5.08.08,2.03-1.48,4.3-6.25,7.34-.94-2.73,2.19-7.34,6.4-9.22"/>
    <path class="st3" d="M53.28,120.12c-1.41,2.66-3.98,4.3-5,6.95,1.48-1.8,3.12-3.44,4.84-5.08.08,2.03-1.48,4.3-6.25,7.34-.94-2.73,2.19-7.34,6.4-9.22Z"/>
    <path class="st8" d="M45,137.46c.86.39,1.72-.16,2.73.16-1.02.55-1.95.94-2.97,1.8,1.25,0,2.03-.62,2.97-.86.47-.08.86-.31,1.33-.47.23-.08.47-.08.62.16.08.23.16.47,0,.7-.94,1.33-3.83,1.87-5.23,1.02-1.02-.62-1.33-1.72-.94-2.97.31-.94,1.17-1.33,2.42-1.25,1.02,0,1.95.55,2.97.55.23,0,.39.08.39.31,0,.16-.08.23-.23.31-.31.16-.7.16-1.02.16-1.09-.08-2.11.16-3.05.39"/>
    <path class="st7" d="M45,137.46c.86.39,1.72-.16,2.73.16-1.02.55-1.95.94-2.97,1.8,1.25,0,2.03-.62,2.97-.86.47-.08.86-.31,1.33-.47.23-.08.47-.08.62.16.08.23.16.47,0,.7-.94,1.33-3.83,1.87-5.23,1.02-1.02-.62-1.33-1.72-.94-2.97.31-.94,1.17-1.33,2.42-1.25,1.02,0,1.95.55,2.97.55.23,0,.39.08.39.31,0,.16-.08.23-.23.31-.31.16-.7.16-1.02.16-1.09-.08-2.11.16-3.05.39Z"/>
    <path class="st9" d="M53.83,123.63c0,.23.08.39.08.62-.08,1.72-.39,3.44-.86,5.08-.16.55-.47,1.02-.94,1.41-1.33,1.09-2.34,2.42-2.66,4.14-.08.7-.47.78-1.02.55-.86-.31-1.72-.47-2.58-.55-.55-.08-1.17-.16-1.64.16-2.03,1.33-2.58,3.59-.62,5.39.7.62.78,1.09.55,1.87-.62,2.66,1.33,4.53,4.06,3.83.55-.16.62.08.78.47,1.25,3.59,5.08,3.2,6.95,1.33.47-.47.86-.55,1.41-.23,1.72.7,3.51.16,4.45-1.41.47-.78.47-1.64.47-2.42,0-.62.16-.86.7-1.09,1.17-.62,1.72-1.56,1.72-2.89.08-1.87-1.09-2.97-2.66-3.59-.86-.31-1.25-.94-1.48-1.8-.47-2.03-1.72-3.51-3.67-4.3-.62-.23-.7-.62-.62-1.17.39-1.56.7-3.2,1.02-4.76,0-.16-.08-.39.16-.47.23,0,.31.16.39.31.39.62.86,1.33,1.25,1.95,1.33,1.95,2.97,3.44,5.39,3.9,1.56.31,3.12.78,4.53,1.56.08.08.23.08.31-.08-1.48-4.61-4.61-7.81-9.14-9.68-3.2-1.33-2.73-1.02-3.28-4.3-.23-1.41-.31-2.73-.55-4.22.39.08.55.31.7.55.47.78,1.09,1.41,1.72,1.95,1.64,1.41,3.44,2.34,5.7,1.72,1.33-.39,2.66-.7,4.14-.39,0-.47-.31-.55-.55-.7-1.17-.78-2.11-1.72-3.05-2.73-1.87-2.26-4.3-3.36-7.42-2.97-.94.16-1.72-.39-2.03-1.25-.47-1.48-.94-2.97-1.48-4.45-.23-.7-.31-1.56-1.17-1.95-.7-.31-1.41-.7-2.19-1.02-.23-.08-.47-.31-.7-.08-.23.23-.08.47,0,.7.7,2.03,1.56,3.9,2.03,5.94.08.39.16.62-.08.94-.62.78-1.25,1.56-2.19,2.03-1.72.86-3.2,2.11-4.45,3.51-1.41,1.56-2.26,3.44-2.89,5.62,1.48-.47,2.81-1.02,4.22-1.33,2.11-.55,3.44-1.87,4.3-3.75.47-1.02.78-2.03,1.17-3.05.08-.39.16-.78.62-1.02.55,1.17.47,2.5.86,3.67.78,2.26-.08,3.83-2.19,5-1.33.7-2.58,1.56-3.51,2.73-1.33,1.8-1.8,3.83-2.03,6.01-.08.78-.23,1.56,0,2.42.39-.55.78-.94,1.25-1.25.86-.86,1.87-1.56,2.89-2.19,1.87-1.09,2.97-2.5,3.83-4.3M55.07,130.35c2.42.47,4.37,2.26,4.76,4.37.08.23.39.7-.16.86-.47.08-.47-.31-.55-.62-.23-.86-.55-1.72-1.09-2.42-1.02-1.25-2.5-1.72-4.06-1.17,1.25,0,2.19.55,3.05,1.25.86.78,1.25,1.72,1.09,2.97-1.02-1.64-2.03-3.2-4.53-3.05.86.31,1.41.7,1.95,1.09.86.55,1.09,1.33,1.33,2.19.08.23.16.62-.23.7-.31.08-.47-.23-.55-.47-.39-1.25-1.25-2.11-2.58-2.5-.16-.08-.39-.08-.55-.08-.08,0-.16,0-.39.08,1.02.39,1.64,1.02,2.19,1.72.31.47.39.62-.16.86-.31.08-.55.39-.31.7.23.39.47.16.7-.08.55-.47.7.31,1.17.47.31.08.08.55-.08.78-.55.62-1.25.86-2.03.47-.7-.39-1.33-.47-2.03.08-.62.47-1.48-.08-1.72-.94-.62-2.58.39-5.08,2.66-6.64.31-.23.62-.39.78-.7.47-.31.86.16,1.33.08M55.07,130.35c-.47.08-.86-.39-1.33-.31.16-1.72.7-3.44.86-5.15.47-4.69.08-9.29-1.02-13.9-.55-2.42-1.25-4.84-2.19-7.18-.08-.16-.16-.39,0-.55s.39-.08.62,0c.55.23.86.55,1.02,1.09,1.56,4.76,2.58,9.61,3.05,14.6.31,3.28.23,6.56-.47,9.84-.16.55-.39,1.02-.55,1.56M54.68,139.72c1.48,1.87,2.11,3.98,1.48,6.33-.39,1.48-1.87,2.34-3.67,2.19-1.48-.08-2.5-.94-2.66-2.26-.08-.31-.08-.55.16-.78,1.48-1.64,2.42-3.51,2.26-5.78,0-.08.08-.16.08-.23.62.78.62,1.09-.16,5.54.94-.62,1.09-1.41,1.25-5.39,1.17,2.26.7,4.3.16,6.25.94-.31,1.41-2.89,1.09-5.86M63.04,124.34c.47.31.94.62,1.33.94-.16.47.31.47.47.62,1.64,1.02,2.34,2.73,3.2,4.3-4.45-.23-8.67-3.36-9.68-7.34,1.8,1.56,3.28,3.05,5.23,4.14-.78-1.02-1.72-1.8-2.73-2.58-.08-.08-.16-.08-.23-.16h0c-.08-.23-.23-.39-.47-.47-.31-.31-.62-.62-1.09-1.17,1.33.16,2.19.86,3.2,1.25.23.39.39.7.78.47M64.45,127.7c0-.31-.16-.47-.39-.47,0,0-.16.08-.16.16.16.16.31.31.55.31M63.43,114.97c-1.33-1.09-2.89-1.8-4.45-2.26-.47-.16-1.25-.31-1.17-.86.08-.55.78-.31,1.25-.31,2.19,0,3.83.94,5.31,2.42.7.7,1.25,1.48,1.95,2.19-3.59,1.64-6.95.47-8.28-2.81,1.87.47,3.51,1.25,5.31,1.87.08.16.23.16.39.08q.08,0,.16.08l-.08-.08c-.16-.23-.23-.31-.39-.31M59.53,139.64c.23-.55-.7-.7-.31-1.09.31-.31.78.08,1.17.23.16.08.39.23.47,0,.16-.23-.16-.31-.23-.39-.7-.47-1.48-.55-2.34-.47-.39.08-.78.08-1.09-.31-.31-.31-.31-.7.16-.86,1.8-.7,4.76-.62,6.01,1.87.47.86.39,1.72-.16,2.58-.62,1.09-1.09,1.17-2.03.23-1.25-1.25-2.73-1.8-4.45-1.87-.47,0-1.02,0-.94-.62.08-.62.55-.62,1.17-.55,1.02.31,1.87.62,2.58,1.25M47.11,116.92c.94-.7,1.8-1.48,2.58-2.34.78-.86,1.33-1.8,2.03-2.66-.16,1.72-.86,3.2-1.87,4.45-1.09,1.33-2.42,2.26-4.06,2.73-.23.08-.47.23-.7.23-.39.08-.86.62-1.17.31-.39-.39.16-.86.31-1.25,1.33-2.42,2.97-4.53,5.54-5.86.31-.16.55-.39,1.09-.23-1.17,1.64-2.66,2.97-3.9,4.53-.08.08-.16.16-.16.23-.16.08-.23.16-.31.31l-.08.08h.16v-.16c.23.08.31-.08.39-.23q.08-.08.16-.16M53.28,120.12c-1.41,2.66-3.98,4.3-5,6.95,1.48-1.8,3.12-3.44,4.84-5.08.08,2.03-1.48,4.3-6.25,7.34-.94-2.73,2.19-7.34,6.4-9.22M50.86,140.5c.31-.16.16-.62.47-.86.08.08.16.16.16.23.23,1.72-1.41,4.76-3.05,5.47-1.09.47-2.26.23-3.05-.7-.7-.86-.78-2.11-.08-3.05.08-.16.23-.39.39-.39,1.02.16,1.95-.47,2.97-.23-.62.62-1.25,1.25-1.87,1.87,1.17-.23,1.8-1.09,2.42-1.95.16-.31.39-.62.55-.94.08-.16.23-.31.39-.23.23.08.16.31.16.55-.78,1.33-1.41,2.81-2.89,3.75,1.33.08,2.73-1.48,3.44-3.51M45,137.46c.86.39,1.72-.16,2.73.16-1.02.55-1.95.94-2.97,1.8,1.25,0,2.03-.62,2.97-.86.47-.08.86-.31,1.33-.47.23-.08.47-.08.62.16.08.23.16.47,0,.7-.94,1.33-3.83,1.87-5.23,1.02-1.02-.62-1.33-1.72-.94-2.97.39-.94,1.17-1.33,2.42-1.25,1.02,0,1.95.55,2.97.55.23,0,.39.08.39.31,0,.16-.08.23-.23.31-.31.16-.7.16-1.02.16-1.09-.08-2.11.16-3.05.39M57.26,140.89c0-.23.23-.31.39-.23,1.56.39,2.89,1.02,3.51,2.58.7,1.8-.55,3.75-2.5,3.83-1.09.08-1.48-.31-1.33-1.33.08-.47,0-.86.16-1.33.39.23.55.62.86,1.02.08-.86-.16-1.48-.55-2.03-.08-.16-.23-.31-.39-.39-.23-.23-.47-.7-.23-.86.31-.23.55.16.78.31.86.7,1.09,1.87,1.64,2.81.08-1.25-.23-2.42-1.25-3.28,0-.08-.08-.08-.16-.08-.08-.55-.47-.78-.94-1.02"/>
    <path class="st12" d="M86.63,42.26c.7.08,1.48.16,2.19-.08,2.11-.78,4.14-.23,6.09.55.23.08.47.47.78.16.31-.39,0-.7-.31-.86-1.25-.94-2.66-1.25-4.14-1.25-1.64.08-3.05.7-4.53,1.41-.47-.23-.94-.55-1.48-.7-2.58-.94-5.08-.94-7.5.7-.31.23-.55.39-.31.78.23.47.55.08.7,0,1.72-.86,3.51-1.17,5.39-.94,1.02.08,2.03.47,3.12.23"/>
    <path class="st0" d="M86.63,42.26c.7.08,1.48.16,2.19-.08,2.11-.78,4.14-.23,6.09.55.23.08.47.47.78.16.31-.39,0-.7-.31-.86-1.25-.94-2.66-1.25-4.14-1.25-1.64.08-3.05.7-4.53,1.41-.47-.23-.94-.55-1.48-.7-2.58-.94-5.08-.94-7.5.7-.31.23-.55.39-.31.78.23.47.55.08.7,0,1.72-.86,3.51-1.17,5.39-.94,1.02.08,2.03.47,3.12.23Z"/>
    <path class="st8" d="M90.22,71v.23c-.16,1.33.16-10.07.16-8.75v.39c-.08,3.05-.08,6.17-.16,9.22v3.28c0,.86-.62,1.41-1.02,2.19,0,.08-.08.16-.08.23-.16.23-.31.47-.47.7-.31.31-.55.78-.7,1.17-.08,0-.08.08-.08.16q-.08.08-.16.08c-.08.08-.23.08-.31.16,0-1.09,0-2.11-.08-3.12-.08-11.71-.31-10.78-.39-22.49,0-3.59-.08-7.26-.08-10.86.47-.62,1.25-.55,1.87-.86.31-.16.7-.31,1.09-.39h.23c0,.08.08.08.08.16h0v.31c-.08,2.26-.16,4.53,0,6.79h0c-.16.31-.08.62,0,.94h0c-.16,1.48-.16,3.05,0,4.53h0c-.16.55-.08,1.02,0,1.56v.62c0,4.53,0,9.14.08,13.74"/>
    <path class="st6" d="M90.22,71v.23c-.16,1.33.16-10.07.16-8.75v.39c-.08,3.05-.08,6.17-.16,9.22v3.28c0,.86-.62,1.41-1.02,2.19,0,.08-.08.16-.08.23-.16.23-.31.47-.47.7-.31.31-.55.78-.7,1.17-.08,0-.08.08-.08.16q-.08.08-.16.08c-.08.08-.23.08-.31.16,0-1.09,0-2.11-.08-3.12-.08-11.71-.31-10.78-.39-22.49,0-3.59-.08-7.26-.08-10.86.47-.62,1.25-.55,1.87-.86.31-.16.7-.31,1.09-.39h.23c0,.08.08.08.08.16h0v.31c-.08,2.26-.16,4.53,0,6.79h0c-.16.31-.08.62,0,.94h0c-.16,1.48-.16,3.05,0,4.53h0c-.16.55-.08,1.02,0,1.56v.62c0,4.53,0,9.14.08,13.74Z"/>
    <path class="st8" d="M85.61,79.12c-.08-.16-.16-.31-.31-.47,0-.31-.23-.55-.39-.78-.31-.55-.39-1.09-.47-1.72-.23-15.07-.62-17.57-.86-32.64,0-.62,0-1.02.78-.62.55.31,1.17.47,1.8.62.23.31.08.62.08.94,0,3.12.08,6.25.08,9.37.08,11.4.39,10.15.39,21.55,0,1.87.16,3.83-.08,5.7-.23-.47-.55-.94-.78-1.41,0-.31-.08-.47-.23-.55"/>
    <path class="st6" d="M85.61,79.12c-.08-.16-.16-.31-.31-.47,0-.31-.23-.55-.39-.78-.31-.55-.39-1.09-.47-1.72-.23-15.07-.62-17.57-.86-32.64,0-.62,0-1.02.78-.62.55.31,1.17.47,1.8.62.23.31.08.62.08.94,0,3.12.08,6.25.08,9.37.08,11.4.39,10.15.39,21.55,0,1.87.16,3.83-.08,5.7-.23-.47-.55-.94-.78-1.41,0-.31-.08-.47-.23-.55Z"/>
    <path class="st12" d="M77.18,40.46c2.58-1.8,5.39-2.03,8.28-1.09.78.23,1.41.23,2.11,0,3.2-1.09,6.25-.86,8.98,1.25.16.16.55.31.23.62-.23.23-.47.62-.94.23-2.58-1.95-5.39-1.8-8.28-.55-.62.23-1.09.23-1.72,0-2.89-1.25-5.7-1.25-8.43.55-.16.08-.39.23-.55.31-.31.16-.47-.16-.62-.31-.16-.23.08-.31.23-.39.23-.31.47-.47.7-.62"/>
    <path class="st0" d="M77.18,40.46c2.58-1.8,5.39-2.03,8.28-1.09.78.23,1.41.23,2.11,0,3.2-1.09,6.25-.86,8.98,1.25.16.16.55.31.23.62-.23.23-.47.62-.94.23-2.58-1.95-5.39-1.8-8.28-.55-.62.23-1.09.23-1.72,0-2.89-1.25-5.7-1.25-8.43.55-.16.08-.39.23-.55.31-.31.16-.47-.16-.62-.31-.16-.23.08-.31.23-.39.23-.31.47-.47.7-.62Z"/>
    <path class="st12" d="M88.97,20.08c.78,1.09.55,2.58-.55,3.36-1.02.78-2.66.47-3.36-.62-.7-1.02-.47-2.58.55-3.36.94-.78,2.58-.47,3.36.62"/>
    <path class="st1" d="M88.97,20.08c.78,1.09.55,2.58-.55,3.36-1.02.78-2.66.47-3.36-.62-.7-1.02-.47-2.58.55-3.36.94-.78,2.58-.47,3.36.62Z"/>
    <path class="st10" d="M90.45,29.14c-.47,1.56-1.56,2.66-2.73,3.67-1.17,1.09-2.34,2.11-3.44,3.2-.16.16-.31.39-.55.31-.23-.08-.16-.39-.08-.55.23-1.09.7-2.11,1.41-2.97,1.48-1.87,3.59-3.2,5.08-5.15-.78,2.81-3.59,4.06-4.92,6.48,1.64-1.87,3.83-3.05,5.23-5"/>
    <path class="st5" d="M90.45,29.14c-.47,1.56-1.56,2.66-2.73,3.67-1.17,1.09-2.34,2.11-3.44,3.2-.16.16-.31.39-.55.31-.23-.08-.16-.39-.08-.55.23-1.09.7-2.11,1.41-2.97,1.48-1.87,3.59-3.2,5.08-5.15-.78,2.81-3.59,4.06-4.92,6.48,1.64-1.87,3.83-3.05,5.23-5Z"/>
    <path class="st12" d="M99.75,42.18c.62.86.39,1.95-.39,2.58s-2.03.39-2.58-.39c-.55-.78-.39-1.95.47-2.58.78-.62,1.87-.39,2.5.39"/>
    <path class="st0" d="M99.75,42.18c.62.86.39,1.95-.39,2.58s-2.03.39-2.58-.39c-.55-.78-.39-1.95.47-2.58.78-.62,1.87-.39,2.5.39Z"/>
    <path class="st12" d="M75.77,45.15c-.86.62-1.95.39-2.58-.39-.55-.86-.31-2.03.47-2.58.86-.55,2.03-.39,2.58.39.62.94.39,2.03-.47,2.58"/>
    <path class="st0" d="M75.77,45.15c-.86.62-1.95.39-2.58-.39-.55-.86-.31-2.03.47-2.58.86-.55,2.03-.39,2.58.39.62.94.39,2.03-.47,2.58Z"/>
    <path class="st10" d="M90.3,31.56c-1.72,2.03-3.67,3.83-5.23,6.01q.08.08.16.16c1.8-1.72,3.51-3.44,5.31-5.15-.62,1.41-1.56,2.5-2.66,3.44-.7.62-1.64,1.09-2.26,1.87-.39.47-.94.23-1.41.08-.39-.16,0-.47.16-.62.86-1.17,1.87-2.19,2.97-3.12,1.02-.86,1.87-1.87,2.97-2.66"/>
    <path class="st5" d="M90.3,31.56c-1.72,2.03-3.67,3.83-5.23,6.01q.08.08.16.16c1.8-1.72,3.51-3.44,5.31-5.15-.62,1.41-1.56,2.5-2.66,3.44-.7.62-1.64,1.09-2.26,1.87-.39.47-.94.23-1.41.08-.39-.16,0-.47.16-.62.86-1.17,1.87-2.19,2.97-3.12,1.02-.86,1.87-1.87,2.97-2.66Z"/>
    <path class="st10" d="M89.2,25.47c-.47,2.26-2.97,3.12-3.83,5.15,1.25-.78,2.34-1.87,3.44-2.89-1.25,2.03-3.36,3.36-4.76,5.47-.39-.62-.16-1.09.08-1.56.39-.86.94-1.64,1.56-2.34,1.02-1.41,2.34-2.5,3.51-3.83"/>
    <path class="st5" d="M89.2,25.47c-.47,2.26-2.97,3.12-3.83,5.15,1.25-.78,2.34-1.87,3.44-2.89-1.25,2.03-3.36,3.36-4.76,5.47-.39-.62-.16-1.09.08-1.56.39-.86.94-1.64,1.56-2.34,1.02-1.41,2.34-2.5,3.51-3.83Z"/>
    <path class="st10" d="M85.22,27.42c1.17-.7,2.03-1.8,3.12-2.58-1.09,1.72-2.66,2.97-4.06,4.61-.23-1.8.94-3.59,2.97-4.53-.62,1.09-1.64,1.56-2.03,2.5"/>
    <path class="st5" d="M85.22,27.42c1.17-.7,2.03-1.8,3.12-2.58-1.09,1.72-2.66,2.97-4.06,4.61-.23-1.8.94-3.59,2.97-4.53-.62,1.09-1.64,1.56-2.03,2.5Z"/>
    <path class="st12" d="M88.03,17.35c-.16-.31-.16-.7-.55-.86-.16.08-.16.23-.16.31,0,.7-.55,1.02-1.17,1.25-.39.16-.55-.23-.7-.55-.23-.55-.23-1.09.23-1.56.55-.55,1.25-.7,1.87-.23.7.39.86,1.02.47,1.64"/>
    <path class="st1" d="M88.03,17.35c-.16-.31-.16-.7-.55-.86-.16.08-.16.23-.16.31,0,.7-.55,1.02-1.17,1.25-.39.16-.55-.23-.7-.55-.23-.55-.23-1.09.23-1.56.55-.55,1.25-.7,1.87-.23.7.39.86,1.02.47,1.64Z"/>
    <path class="st10" d="M90.92,33.9c.23.47.08.78-.16.94-1.09,1.17-2.26,2.34-3.36,3.51-.23.23-.55.55-.86.16s.16-.55.31-.7c1.41-1.25,2.73-2.5,4.06-3.9"/>
    <path class="st5" d="M90.92,33.9c.23.47.08.78-.16.94-1.09,1.17-2.26,2.34-3.36,3.51-.23.23-.55.55-.86.16s.16-.55.31-.7c1.41-1.25,2.73-2.5,4.06-3.9Z"/>
    <path class="st10" d="M90.61,36.09c-.47.94-1.33,1.48-2.19,1.95.39-1.02,1.41-1.33,2.19-1.95"/>
    <path class="st5" d="M90.61,36.09c-.47.94-1.33,1.48-2.19,1.95.39-1.02,1.41-1.33,2.19-1.95Z"/>
    <path class="st10" d="M90.53,37.34c.23-.16.39-.23.55-.08s.16.39-.08.55c-.16.16-.39.16-.55-.08-.08-.08.08-.23.08-.39"/>
    <path class="st10" d="M90.37,31.25c.08-.23.08-.47.39-.62.08.39,0,.55-.39.62"/>
    <path class="st5" d="M90.37,31.25c.08-.23.08-.47.39-.62.08.39,0,.55-.39.62Z"/>
    <path class="st9" d="M87.25,83.41c1.17-2.19,2.26-4.45,3.44-6.64.23-.39.39-.86.23-1.33.16-4.14.23-8.28.16-12.34.16-2.42-.08,7.81-.16,5.39v-2.73c.08-1.02.08-2.03.08-3.05,0-2.73,0-5.39.16-8.12.08-1.64,0-3.2.08-4.84.16-1.72.16-3.44,0-5.15-.08-1.72.08-1.95,1.72-1.48,1.17.39,2.42.62,3.05,1.87.55,1.02,1.95,1.25,2.97.86,1.17-.55,1.8-1.64,1.56-3.12-.08-.94-1.09-1.72-2.19-1.87-.39-.08-.7-.08-1.09-.39-1.33-1.25-2.89-2.03-4.69-2.26-.55-.08-.78-.31-.78-.94.16-2.26,0-4.61-.23-6.87-.31-2.19-.78-4.3-2.11-6.09-.31-.39-.31-.55-.08-.94,1.02-1.48.78-3.36-.7-4.45-.47-.31-.47-.55-.16-.94.62-1.09.16-2.42-.86-2.97-1.02-.55-2.03-.31-2.81.55-.7.78-.7,1.87-.08,2.73.23.23.31.39,0,.7-1.64,1.56-1.64,3.36,0,4.92.23.23.31.31.08.55-1.02,1.09-1.41,2.42-1.72,3.83-.62,2.89-.7,5.78-.62,8.75,0,.78-.16,1.02-.94,1.02-2.34.08-4.37.94-6.09,2.58-.31.31-.62.47-1.09.47-1.56.16-2.26,1.09-2.42,2.5-.16,1.17.7,2.26,1.87,2.58,1.41.31,2.58-.23,3.2-1.48.16-.31.16-.55.47-.7,1.48-.86,2.97-1.33,4.69-1.33.39,0,.55.16.55.55v2.34c.16,10.62.62,8.67.78,19.29.08,3.98.16,7.97.23,11.95v.16c.08.16.16.31.23.47-.08.16,0,.31.08.39s.16.23.16.31c-.08.16,0,.23.08.39.08.08.16.23.16.31,0,.23.08.39.16.47.16.31.16.78.47,1.02v.16c.08.16.16.39.23.55,0,.31.08.47.31.62.08.31.16.62.39.86-.08.16,0,.23.08.39.08.08.16.23.16.31,0,.31.08.55.31.62.62.08.7-.23.7-.39M87.33,16.88c0,.7-.55,1.02-1.17,1.25-.39.16-.55-.23-.7-.55-.23-.55-.23-1.09.23-1.56.55-.55,1.25-.7,1.87-.23.62.39.78,1.02.39,1.64-.16-.31-.16-.7-.55-.86-.08.08,0,.16-.08.31M90.37,49.52h0c-.16.31-.08.62,0,.94h0c-.16,1.48-.16,3.05,0,4.53h0c-.16.55-.08,1.02,0,1.56v.62c-.16,4.61-.16,9.22-.08,13.82v.23c-.16,1.33.16-10.07.16-8.75v.39c-.08,3.05-.08,6.17-.16,9.22v3.28c0,.86-.62,1.41-1.02,2.19,0,.08-.08.16-.08.23-.16.23-.31.47-.47.7-.31.31-.55.78-.7,1.17-.08,0-.08.08-.08.16-.08,0-.08.08-.16.08-.08.08-.23.08-.31.16,0-1.02,0-2.11-.08-3.12-.08-11.71-.31-10.78-.39-22.49,0-3.59-.08-7.26-.08-10.86.47-.62,1.25-.55,1.87-.86.31-.16.7-.31,1.09-.39h.23c0,.08.08.08.08.16h0v.31c.08,2.19.08,4.45.16,6.72M99.75,42.18c.62.86.39,1.95-.39,2.58s-2.03.39-2.58-.39c-.55-.78-.39-1.95.47-2.58.78-.62,1.87-.39,2.5.39M91.08,37.26c.16.16.16.39-.08.55-.16.16-.39.16-.55-.08-.16-.16,0-.31.08-.39.23-.16.47-.16.55-.08M90.61,36.09c-.47.94-1.33,1.48-2.19,1.95.39-1.02,1.41-1.33,2.19-1.95M90.76,34.84c-1.09,1.17-2.26,2.34-3.36,3.51-.23.23-.55.55-.86.16s.16-.55.31-.7c1.41-1.17,2.73-2.42,3.98-3.9.23.47.16.7-.08.94M90.84,30.7c0,.31-.08.55-.39.62,0-.31.08-.55.39-.62M85.06,22.81c-.7-1.02-.47-2.58.55-3.36,1.02-.78,2.58-.47,3.36.62s.55,2.58-.55,3.36c-1.02.7-2.66.47-3.36-.62M87.17,24.92c-.55,1.09-1.56,1.56-2.03,2.5,1.17-.7,2.03-1.8,3.12-2.58-1.09,1.72-2.66,2.97-4.06,4.61-.16-1.8,1.02-3.59,2.97-4.53M84.05,31.64c.39-.86.94-1.64,1.56-2.34,1.09-1.33,2.42-2.5,3.59-3.83-.47,2.26-2.97,3.12-3.83,5.15,1.33-.78,2.34-1.87,3.44-2.89-1.25,2.03-3.36,3.36-4.76,5.47-.47-.62-.23-1.09,0-1.56M83.81,36.32c-.23-.08-.16-.39-.08-.55.23-1.09.7-2.11,1.41-2.97,1.48-1.87,3.59-3.2,5.08-5.15-.78,2.81-3.59,4.06-4.92,6.48,1.64-1.8,3.83-2.97,5.23-5-.47,1.56-1.56,2.66-2.73,3.67-1.17,1.09-2.34,2.11-3.44,3.2-.16.16-.31.39-.55.31M87.33,34.14c1.02-.86,1.87-1.8,2.97-2.58-1.72,2.03-3.67,3.83-5.23,6.01q.08.08.16.16c1.8-1.72,3.51-3.44,5.31-5.15-.62,1.41-1.56,2.5-2.66,3.44-.7.62-1.64,1.09-2.26,1.87-.39.47-.94.23-1.41.08-.39-.16,0-.47.16-.62.78-1.25,1.8-2.26,2.97-3.2M85.45,39.37c.78.23,1.41.23,2.11,0,3.2-1.09,6.25-.86,8.98,1.25.16.16.55.31.23.62-.23.23-.47.62-.94.23-2.58-1.95-5.39-1.8-8.28-.55-.62.23-1.09.23-1.72,0-2.89-1.25-5.7-1.25-8.43.55-.16.08-.39.23-.55.31-.31.16-.47-.16-.62-.31-.16-.23.08-.31.23-.39.23-.23.47-.39.7-.55,2.58-1.87,5.39-2.11,8.28-1.17M73.27,44.76c-.55-.86-.31-2.03.47-2.58.86-.55,2.03-.39,2.58.39.62.86.39,1.95-.47,2.58-.94.62-2.03.47-2.58-.39M83.5,41.95c-1.87-.23-3.67.08-5.39.94-.16.08-.47.55-.7,0-.23-.39.08-.62.31-.78,2.42-1.64,4.92-1.64,7.5-.7.47.16.94.47,1.48.7,1.48-.62,2.89-1.33,4.53-1.41,1.56-.08,2.97.31,4.14,1.25.31.23.62.47.31.86-.23.39-.55-.08-.78-.16-1.95-.78-3.9-1.33-6.09-.55-.7.23-1.41.16-2.19.08-1.09.31-2.11-.08-3.12-.23M85.84,79.59c0-.23-.08-.39-.23-.47-.08-.16-.16-.31-.31-.47,0-.31-.23-.55-.39-.78-.31-.55-.39-1.09-.47-1.72-.23-15.07-.62-17.57-.86-32.64,0-.62,0-1.02.78-.62.55.31,1.17.47,1.8.62.23.31.08.62.08.94,0,3.12.08,6.25.08,9.37.08,11.4.39,10.15.39,21.55,0,1.87.16,3.83-.08,5.7-.23-.55-.55-1.02-.78-1.48"/>
    <path class="st9" d="M88.97,21.33c-.08-.55-.39-1.02-1.02-1.09.47.62.78,1.17.23,1.87-.47.7-1.25.47-1.95.78.78.47,1.33.47,1.95.08.55-.39.86-.94.78-1.64"/>
    <path class="st12" d="M86.63,121.76c.7.08,1.48.16,2.19-.08,2.11-.78,4.14-.23,6.09.55.23.08.47.47.78.16.31-.39,0-.7-.31-.86-1.25-.94-2.66-1.25-4.14-1.25-1.64.08-3.05.7-4.53,1.41-.47-.23-.94-.55-1.48-.7-2.58-.94-5.08-.94-7.5.7-.31.23-.55.39-.31.78.23.47.55.08.7,0,1.72-.86,3.51-1.17,5.39-.94,1.02.08,2.03.47,3.12.23"/>
    <path class="st0" d="M86.63,121.76c.7.08,1.48.16,2.19-.08,2.11-.78,4.14-.23,6.09.55.23.08.47.47.78.16.31-.39,0-.7-.31-.86-1.25-.94-2.66-1.25-4.14-1.25-1.64.08-3.05.7-4.53,1.41-.47-.23-.94-.55-1.48-.7-2.58-.94-5.08-.94-7.5.7-.31.23-.55.39-.31.78.23.47.55.08.7,0,1.72-.86,3.51-1.17,5.39-.94,1.02.08,2.03.47,3.12.23Z"/>
    <path class="st8" d="M90.22,150.5v.23c-.16,1.33.16-10.07.16-8.75v.39c-.08,3.05-.08,6.17-.16,9.22v3.28c0,.86-.62,1.41-1.02,2.19,0,.08-.08.16-.08.23-.16.23-.31.47-.47.7-.31.31-.55.78-.7,1.17-.08,0-.08.08-.08.16-.08,0-.08.08-.16.08-.08.08-.23.08-.31.16,0-1.02,0-2.11-.08-3.12-.08-11.71-.31-10.78-.39-22.49,0-3.59-.08-7.26-.08-10.86.47-.62,1.25-.55,1.87-.86.31-.16.7-.31,1.09-.39h.23c0,.08.08.08.08.16h0v.31c-.08,2.26-.16,4.53,0,6.79h0c-.16.31-.08.62,0,.94h0c-.16,1.48-.16,3.05,0,4.53h0c-.16.55-.08,1.02,0,1.56v.62c0,4.53,0,9.14.08,13.74"/>
    <path class="st6" d="M90.22,150.5v.23c-.16,1.33.16-10.07.16-8.75v.39c-.08,3.05-.08,6.17-.16,9.22v3.28c0,.86-.62,1.41-1.02,2.19,0,.08-.08.16-.08.23-.16.23-.31.47-.47.7-.31.31-.55.78-.7,1.17-.08,0-.08.08-.08.16-.08,0-.08.08-.16.08-.08.08-.23.08-.31.16,0-1.02,0-2.11-.08-3.12-.08-11.71-.31-10.78-.39-22.49,0-3.59-.08-7.26-.08-10.86.47-.62,1.25-.55,1.87-.86.31-.16.7-.31,1.09-.39h.23c0,.08.08.08.08.16h0v.31c-.08,2.26-.16,4.53,0,6.79h0c-.16.31-.08.62,0,.94h0c-.16,1.48-.16,3.05,0,4.53h0c-.16.55-.08,1.02,0,1.56v.62c0,4.53,0,9.14.08,13.74Z"/>
    <path class="st8" d="M85.61,158.62c-.08-.16-.16-.31-.31-.47,0-.31-.23-.55-.39-.78-.31-.55-.39-1.09-.47-1.72-.23-15.07-.62-17.57-.86-32.64,0-.62,0-1.02.78-.62.55.31,1.17.47,1.8.62.23.31.08.62.08.94,0,3.12.08,6.25.08,9.37.08,11.4.39,10.15.39,21.55,0,1.87.16,3.83-.08,5.7-.23-.47-.55-.94-.78-1.41,0-.31-.08-.47-.23-.55"/>
    <path class="st6" d="M85.61,158.62c-.08-.16-.16-.31-.31-.47,0-.31-.23-.55-.39-.78-.31-.55-.39-1.09-.47-1.72-.23-15.07-.62-17.57-.86-32.64,0-.62,0-1.02.78-.62.55.31,1.17.47,1.8.62.23.31.08.62.08.94,0,3.12.08,6.25.08,9.37.08,11.4.39,10.15.39,21.55,0,1.87.16,3.83-.08,5.7-.23-.47-.55-.94-.78-1.41,0-.31-.08-.47-.23-.55Z"/>
    <path class="st12" d="M77.18,119.96c2.58-1.8,5.39-2.03,8.28-1.09.78.23,1.41.23,2.11,0,3.2-1.09,6.25-.86,8.98,1.25.16.16.55.31.23.62-.23.23-.47.62-.94.23-2.58-1.95-5.39-1.8-8.28-.55-.62.23-1.09.23-1.72,0-2.89-1.25-5.7-1.25-8.43.55-.16.08-.39.23-.55.31-.31.16-.47-.16-.62-.31-.16-.23.08-.31.23-.39.23-.31.47-.47.7-.62"/>
    <path class="st0" d="M77.18,119.96c2.58-1.8,5.39-2.03,8.28-1.09.78.23,1.41.23,2.11,0,3.2-1.09,6.25-.86,8.98,1.25.16.16.55.31.23.62-.23.23-.47.62-.94.23-2.58-1.95-5.39-1.8-8.28-.55-.62.23-1.09.23-1.72,0-2.89-1.25-5.7-1.25-8.43.55-.16.08-.39.23-.55.31-.31.16-.47-.16-.62-.31-.16-.23.08-.31.23-.39.23-.31.47-.47.7-.62Z"/>
    <path class="st12" d="M88.97,99.58c.78,1.09.55,2.58-.55,3.36-1.02.78-2.66.47-3.36-.62-.7-1.02-.47-2.58.55-3.36.94-.78,2.58-.47,3.36.62"/>
    <path class="st1" d="M88.97,99.58c.78,1.09.55,2.58-.55,3.36-1.02.78-2.66.47-3.36-.62-.7-1.02-.47-2.58.55-3.36.94-.78,2.58-.47,3.36.62Z"/>
    <path class="st10" d="M90.45,108.64c-.47,1.56-1.56,2.66-2.73,3.67-1.17,1.09-2.34,2.11-3.44,3.2-.16.16-.31.39-.55.31-.23-.08-.16-.39-.08-.55.23-1.09.7-2.11,1.41-2.97,1.48-1.87,3.59-3.2,5.08-5.15-.78,2.81-3.59,4.06-4.92,6.48,1.64-1.87,3.83-3.05,5.23-5"/>
    <path class="st5" d="M90.45,108.64c-.47,1.56-1.56,2.66-2.73,3.67-1.17,1.09-2.34,2.11-3.44,3.2-.16.16-.31.39-.55.31-.23-.08-.16-.39-.08-.55.23-1.09.7-2.11,1.41-2.97,1.48-1.87,3.59-3.2,5.08-5.15-.78,2.81-3.59,4.06-4.92,6.48,1.64-1.87,3.83-3.05,5.23-5Z"/>
    <path class="st12" d="M99.75,121.68c.62.86.39,1.95-.39,2.58s-2.03.39-2.58-.39c-.55-.78-.39-1.95.47-2.58.78-.62,1.87-.39,2.5.39"/>
    <path class="st0" d="M99.75,121.68c.62.86.39,1.95-.39,2.58s-2.03.39-2.58-.39c-.55-.78-.39-1.95.47-2.58.78-.62,1.87-.39,2.5.39Z"/>
    <path class="st12" d="M75.77,124.65c-.86.62-1.95.39-2.58-.39-.55-.86-.31-2.03.47-2.58.86-.55,2.03-.39,2.58.39.62.94.39,2.03-.47,2.58"/>
    <path class="st0" d="M75.77,124.65c-.86.62-1.95.39-2.58-.39-.55-.86-.31-2.03.47-2.58.86-.55,2.03-.39,2.58.39.62.94.39,2.03-.47,2.58Z"/>
    <path class="st10" d="M90.3,111.06c-1.72,2.03-3.67,3.83-5.23,6.01q.08.08.16.16c1.8-1.72,3.51-3.44,5.31-5.15-.62,1.41-1.56,2.5-2.66,3.44-.7.62-1.64,1.09-2.26,1.87-.39.47-.94.23-1.41.08-.39-.16,0-.47.16-.62.86-1.17,1.87-2.19,2.97-3.12,1.02-.86,1.87-1.87,2.97-2.66"/>
    <path class="st5" d="M90.3,111.06c-1.72,2.03-3.67,3.83-5.23,6.01q.08.08.16.16c1.8-1.72,3.51-3.44,5.31-5.15-.62,1.41-1.56,2.5-2.66,3.44-.7.62-1.64,1.09-2.26,1.87-.39.47-.94.23-1.41.08-.39-.16,0-.47.16-.62.86-1.17,1.87-2.19,2.97-3.12,1.02-.86,1.87-1.87,2.97-2.66Z"/>
    <path class="st10" d="M89.2,104.97c-.47,2.26-2.97,3.12-3.83,5.15,1.25-.78,2.34-1.87,3.44-2.89-1.25,2.03-3.36,3.36-4.76,5.47-.39-.62-.16-1.09.08-1.56.39-.86.94-1.64,1.56-2.34,1.02-1.41,2.34-2.5,3.51-3.83"/>
    <path class="st5" d="M89.2,104.97c-.47,2.26-2.97,3.12-3.83,5.15,1.25-.78,2.34-1.87,3.44-2.89-1.25,2.03-3.36,3.36-4.76,5.47-.39-.62-.16-1.09.08-1.56.39-.86.94-1.64,1.56-2.34,1.02-1.41,2.34-2.5,3.51-3.83Z"/>
    <path class="st10" d="M85.22,106.92c1.17-.7,2.03-1.8,3.12-2.58-1.09,1.72-2.66,2.97-4.06,4.61-.23-1.8.94-3.59,2.97-4.53-.62,1.09-1.64,1.56-2.03,2.5"/>
    <path class="st5" d="M85.22,106.92c1.17-.7,2.03-1.8,3.12-2.58-1.09,1.72-2.66,2.97-4.06,4.61-.23-1.8.94-3.59,2.97-4.53-.62,1.09-1.64,1.56-2.03,2.5Z"/>
    <path class="st12" d="M88.03,96.85c-.16-.31-.16-.7-.55-.86-.16.08-.16.23-.16.31,0,.7-.55,1.02-1.17,1.25-.39.16-.55-.23-.7-.55-.23-.55-.23-1.09.23-1.56.55-.55,1.25-.7,1.87-.23.7.39.86.94.47,1.64"/>
    <path class="st1" d="M88.03,96.85c-.16-.31-.16-.7-.55-.86-.16.08-.16.23-.16.31,0,.7-.55,1.02-1.17,1.25-.39.16-.55-.23-.7-.55-.23-.55-.23-1.09.23-1.56.55-.55,1.25-.7,1.87-.23.7.39.86.94.47,1.64Z"/>
    <path class="st10" d="M90.92,113.4c.23.47.08.78-.16.94-1.09,1.17-2.26,2.34-3.36,3.51-.23.23-.55.55-.86.16s.16-.55.31-.7c1.41-1.25,2.73-2.5,4.06-3.9"/>
    <path class="st5" d="M90.92,113.4c.23.47.08.78-.16.94-1.09,1.17-2.26,2.34-3.36,3.51-.23.23-.55.55-.86.16s.16-.55.31-.7c1.41-1.25,2.73-2.5,4.06-3.9Z"/>
    <path class="st10" d="M90.61,115.59c-.47.94-1.33,1.48-2.19,1.95.39-1.02,1.41-1.33,2.19-1.95"/>
    <path class="st5" d="M90.61,115.59c-.47.94-1.33,1.48-2.19,1.95.39-1.02,1.41-1.33,2.19-1.95Z"/>
    <path class="st10" d="M90.53,116.84c.23-.16.39-.23.55-.08s.16.39-.08.55c-.16.16-.39.16-.55-.08-.08-.08.08-.23.08-.39"/>
    <path class="st10" d="M90.37,110.75c.08-.23.08-.47.39-.62.08.39,0,.55-.39.62"/>
    <path class="st5" d="M90.37,110.75c.08-.23.08-.47.39-.62.08.39,0,.55-.39.62Z"/>
    <path class="st9" d="M87.25,162.92c1.17-2.19,2.26-4.45,3.44-6.64.23-.39.39-.86.23-1.33.16-4.14.23-8.28.16-12.34.16-2.42-.08,7.81-.16,5.39v-2.66c.08-1.02.08-2.03.08-3.05,0-2.73,0-5.39.16-8.12.08-1.64,0-3.2.08-4.84.16-1.72.16-3.44,0-5.15-.08-1.72.08-1.95,1.72-1.48,1.17.39,2.42.62,3.05,1.87.55,1.02,1.95,1.25,2.97.86,1.17-.55,1.8-1.64,1.56-3.12-.08-.94-1.09-1.72-2.19-1.87-.39-.08-.7-.08-1.09-.39-1.33-1.25-2.89-2.03-4.69-2.26-.55-.08-.78-.31-.78-.94.16-2.26,0-4.61-.23-6.87-.31-2.19-.78-4.3-2.11-6.09-.31-.39-.31-.55-.08-.94,1.02-1.48.78-3.36-.7-4.45-.47-.31-.47-.55-.16-.94.62-1.09.16-2.42-.86-2.97-1.02-.55-2.03-.31-2.81.55-.7.78-.7,1.87-.08,2.73.23.23.31.39,0,.7-1.64,1.56-1.64,3.36,0,4.92.23.23.31.31.08.55-1.02,1.09-1.41,2.42-1.72,3.83-.62,2.89-.7,5.78-.62,8.75,0,.78-.16,1.02-.94,1.02-2.34.08-4.37.94-6.09,2.58-.31.31-.62.47-1.09.47-1.56.16-2.26,1.09-2.42,2.5-.16,1.17.7,2.26,1.87,2.58,1.41.31,2.58-.23,3.2-1.48.16-.31.16-.55.47-.7,1.48-.86,2.97-1.33,4.69-1.33.39,0,.55.16.55.55v2.34c.16,10.62.62,8.67.78,19.29.08,3.98.16,7.97.23,11.95v.16l.23.47c-.08.16,0,.31.08.39s.16.23.16.31c-.08.16,0,.23.08.39.08.08.16.23.16.31,0,.23.08.39.16.47.16.31.16.78.47,1.02v.16c.08.16.16.39.23.55,0,.31.08.47.31.62.08.31.16.62.39.86-.08.16,0,.23.08.39.08.08.16.23.16.31,0,.31.08.55.31.62.62,0,.7-.31.7-.47M87.33,96.38c0,.7-.55,1.02-1.17,1.25-.39.16-.55-.23-.7-.55-.23-.55-.23-1.09.23-1.56.55-.55,1.25-.7,1.87-.23.62.39.78,1.02.39,1.64-.16-.31-.16-.7-.55-.86-.08.08,0,.16-.08.31M90.37,129.02h0c-.16.31-.08.62,0,.94h0c-.16,1.48-.16,3.05,0,4.53h0c-.16.55-.08,1.02,0,1.56v.62c-.16,4.61-.16,9.22-.08,13.82v.23c-.16,1.33.16-10.07.16-8.75v.39c-.08,3.05-.08,6.17-.16,9.22v3.28c0,.86-.62,1.41-1.02,2.19,0,.08-.08.16-.08.23-.16.23-.31.47-.47.7-.31.31-.55.78-.7,1.17-.08,0-.08.08-.08.16-.08,0-.08.08-.16.08-.08.08-.23.08-.31.16,0-1.02,0-2.11-.08-3.12-.08-11.71-.31-10.78-.39-22.49,0-3.59-.08-7.26-.08-10.86.47-.62,1.25-.55,1.87-.86.31-.16.7-.31,1.09-.39h.23c0,.08.08.08.08.16h0v.31c.08,2.19.08,4.45.16,6.72M99.75,121.68c.62.86.39,1.95-.39,2.58s-2.03.39-2.58-.39c-.55-.78-.39-1.95.47-2.58.78-.62,1.87-.39,2.5.39M91.08,116.76c.16.16.16.39-.08.55-.16.16-.39.16-.55-.08-.16-.16,0-.31.08-.39.23-.16.47-.16.55-.08M90.61,115.59c-.47.94-1.33,1.48-2.19,1.95.39-1.02,1.41-1.33,2.19-1.95M90.76,114.34c-1.09,1.17-2.26,2.34-3.36,3.51-.23.23-.55.55-.86.16s.16-.55.31-.7c1.41-1.17,2.73-2.42,3.98-3.9.23.47.16.7-.08.94M90.84,110.2c0,.31-.08.55-.39.62,0-.31.08-.55.39-.62M85.06,102.31c-.7-1.02-.47-2.58.55-3.36,1.02-.78,2.58-.47,3.36.62.78,1.09.55,2.58-.55,3.36-1.02.7-2.66.47-3.36-.62M87.17,104.42c-.55,1.09-1.56,1.56-2.03,2.5,1.17-.7,2.03-1.8,3.12-2.58-1.09,1.72-2.66,2.97-4.06,4.61-.16-1.8,1.02-3.59,2.97-4.53M84.05,111.14c.39-.86.94-1.64,1.56-2.34,1.09-1.33,2.42-2.5,3.59-3.83-.47,2.26-2.97,3.12-3.83,5.15,1.33-.78,2.34-1.87,3.44-2.89-1.25,2.03-3.36,3.36-4.76,5.47-.47-.62-.23-1.09,0-1.56M83.81,115.82c-.23-.08-.16-.39-.08-.55.23-1.09.7-2.11,1.41-2.97,1.48-1.87,3.59-3.2,5.08-5.15-.78,2.81-3.59,4.06-4.92,6.48,1.64-1.8,3.83-2.97,5.23-5-.47,1.56-1.56,2.66-2.73,3.67-1.17,1.09-2.34,2.11-3.44,3.2-.16.16-.31.39-.55.31M87.33,113.64c1.02-.86,1.87-1.8,2.97-2.58-1.72,2.03-3.67,3.83-5.23,6.01q.08.08.16.16c1.8-1.72,3.51-3.44,5.31-5.15-.62,1.41-1.56,2.5-2.66,3.44-.7.62-1.64,1.09-2.26,1.87-.39.47-.94.23-1.41.08-.39-.16,0-.47.16-.62.78-1.25,1.8-2.26,2.97-3.2M85.45,118.87c.78.23,1.41.23,2.11,0,3.2-1.09,6.25-.86,8.98,1.25.16.16.55.31.23.62-.23.23-.47.62-.94.23-2.58-1.95-5.39-1.8-8.28-.55-.62.23-1.09.23-1.72,0-2.89-1.25-5.7-1.25-8.43.55-.16.08-.39.23-.55.31-.31.16-.47-.16-.62-.31-.16-.23.08-.31.23-.39.23-.23.47-.39.7-.55,2.58-1.87,5.39-2.11,8.28-1.17M73.27,124.26c-.55-.86-.31-2.03.47-2.58.86-.55,2.03-.39,2.58.39.62.86.39,1.95-.47,2.58-.94.62-2.03.47-2.58-.39M83.5,121.45c-1.87-.23-3.67.08-5.39.94-.16.08-.47.55-.7,0-.23-.39.08-.62.31-.78,2.42-1.64,4.92-1.64,7.5-.7.47.16.94.47,1.48.7,1.48-.62,2.89-1.33,4.53-1.41,1.56-.08,2.97.31,4.14,1.25.31.23.62.47.31.86-.23.39-.55-.08-.78-.16-1.95-.78-3.9-1.33-6.09-.55-.7.23-1.41.16-2.19.08-1.09.31-2.11-.08-3.12-.23M85.84,159.09c0-.23-.08-.39-.23-.47-.08-.16-.16-.31-.31-.47,0-.31-.23-.55-.39-.78-.31-.55-.39-1.09-.47-1.72-.23-15.07-.62-17.57-.86-32.64,0-.62,0-1.02.78-.62.55.31,1.17.47,1.8.62.23.31.08.62.08.94,0,3.12.08,6.25.08,9.37.08,11.4.39,10.15.39,21.55,0,1.87.16,3.83-.08,5.7-.23-.55-.55-1.02-.78-1.48"/>
    <path class="st9" d="M88.97,100.83c-.08-.55-.39-1.02-1.02-1.09.47.62.78,1.17.23,1.87-.47.7-1.25.47-1.95.78.78.47,1.33.47,1.95.08.55-.39.86-.94.78-1.64"/>
    <path class="st12" d="M23.06,137.46c-.7-.08-1.48-.16-2.19.08-2.11.78-4.14.23-6.09-.55-.23-.08-.47-.47-.78-.16-.31.39,0,.7.31.86,1.25.94,2.66,1.25,4.14,1.25,1.64-.08,3.05-.7,4.53-1.41.47.23.94.55,1.48.7,2.58.94,5.08.94,7.5-.7.31-.23.55-.39.31-.78-.23-.47-.55-.08-.7,0-1.72.86-3.51,1.17-5.39.94-1.02-.08-2.03-.47-3.12-.23"/>
    <path class="st0" d="M23.06,137.46c-.7-.08-1.48-.16-2.19.08-2.11.78-4.14.23-6.09-.55-.23-.08-.47-.47-.78-.16-.31.39,0,.7.31.86,1.25.94,2.66,1.25,4.14,1.25,1.64-.08,3.05-.7,4.53-1.41.47.23.94.55,1.48.7,2.58.94,5.08.94,7.5-.7.31-.23.55-.39.31-.78-.23-.47-.55-.08-.7,0-1.72.86-3.51,1.17-5.39.94-1.02-.08-2.03-.47-3.12-.23Z"/>
    <path class="st8" d="M19.46,108.72v-.23c.16-1.33-.16,10.07-.16,8.75v-.39c.08-3.05.08-6.17.16-9.22v-3.28c0-.86.62-1.41,1.02-2.19,0-.08.08-.16.08-.23.16-.23.31-.47.47-.7.31-.31.55-.78.7-1.17.08,0,.08-.08.08-.16.08,0,.08-.08.16-.08.08-.08.23-.08.31-.16,0,1.09,0,2.11.08,3.12.08,11.71.31,10.78.39,22.49,0,3.59.08,7.26.08,10.86-.47.62-1.25.55-1.87.86-.31.16-.7.31-1.09.39h-.23c0-.08-.08-.08-.08-.16h0v-.31c.08-2.26.16-4.53,0-6.79h0c.16-.31.08-.62,0-.94h0c.16-1.48.16-3.05,0-4.53h0c.16-.55.08-1.02,0-1.56v-.62c-.08-4.53,0-9.14-.08-13.74"/>
    <path class="st6" d="M19.46,108.72v-.23c.16-1.33-.16,10.07-.16,8.75v-.39c.08-3.05.08-6.17.16-9.22v-3.28c0-.86.62-1.41,1.02-2.19,0-.08.08-.16.08-.23.16-.23.31-.47.47-.7.31-.31.55-.78.7-1.17.08,0,.08-.08.08-.16.08,0,.08-.08.16-.08.08-.08.23-.08.31-.16,0,1.09,0,2.11.08,3.12.08,11.71.31,10.78.39,22.49,0,3.59.08,7.26.08,10.86-.47.62-1.25.55-1.87.86-.31.16-.7.31-1.09.39h-.23c0-.08-.08-.08-.08-.16h0v-.31c.08-2.26.16-4.53,0-6.79h0c.16-.31.08-.62,0-.94h0c.16-1.48.16-3.05,0-4.53h0c.16-.55.08-1.02,0-1.56v-.62c-.08-4.53,0-9.14-.08-13.74Z"/>
    <path class="st8" d="M24.07,100.6c.08.16.16.31.31.47,0,.31.23.55.39.78.31.55.39,1.09.47,1.72.23,15.07.62,17.57.86,32.64,0,.62,0,1.02-.78.62-.55-.31-1.17-.47-1.8-.62-.23-.31-.08-.62-.08-.94,0-3.12-.08-6.25-.08-9.37-.08-11.4-.39-10.15-.39-21.55,0-1.87-.16-3.83.08-5.7.23.47.55.94.78,1.41-.08.31.08.47.23.55"/>
    <path class="st6" d="M24.07,100.6c.08.16.16.31.31.47,0,.31.23.55.39.78.31.55.39,1.09.47,1.72.23,15.07.62,17.57.86,32.64,0,.62,0,1.02-.78.62-.55-.31-1.17-.47-1.8-.62-.23-.31-.08-.62-.08-.94,0-3.12-.08-6.25-.08-9.37-.08-11.4-.39-10.15-.39-21.55,0-1.87-.16-3.83.08-5.7.23.47.55.94.78,1.41-.08.31.08.47.23.55Z"/>
    <path class="st12" d="M32.43,139.25c-2.58,1.8-5.39,2.03-8.28,1.09-.78-.23-1.41-.23-2.11,0-3.2,1.09-6.25.86-8.98-1.25-.16-.16-.55-.31-.23-.62.23-.23.47-.62.94-.23,2.58,1.95,5.39,1.8,8.28.55.62-.23,1.09-.23,1.72,0,2.89,1.25,5.7,1.25,8.43-.55.16-.08.39-.23.55-.31.31-.16.47.16.62.31.16.23-.08.31-.23.39-.16.31-.39.47-.7.62"/>
    <path class="st0" d="M32.43,139.25c-2.58,1.8-5.39,2.03-8.28,1.09-.78-.23-1.41-.23-2.11,0-3.2,1.09-6.25.86-8.98-1.25-.16-.16-.55-.31-.23-.62.23-.23.47-.62.94-.23,2.58,1.95,5.39,1.8,8.28.55.62-.23,1.09-.23,1.72,0,2.89,1.25,5.7,1.25,8.43-.55.16-.08.39-.23.55-.31.31-.16.47.16.62.31.16.23-.08.31-.23.39-.16.31-.39.47-.7.62Z"/>
    <path class="st12" d="M20.71,159.64c-.78-1.09-.55-2.58.55-3.36,1.02-.78,2.66-.47,3.36.62.7,1.02.47,2.58-.55,3.36s-2.58.47-3.36-.62"/>
    <path class="st1" d="M20.71,159.64c-.78-1.09-.55-2.58.55-3.36,1.02-.78,2.66-.47,3.36.62.7,1.02.47,2.58-.55,3.36s-2.58.47-3.36-.62Z"/>
    <path class="st10" d="M19.15,150.58c.47-1.56,1.56-2.66,2.73-3.67,1.17-1.09,2.34-2.11,3.44-3.2.16-.16.31-.39.55-.31s.16.39.08.55c-.23,1.09-.7,2.11-1.41,2.97-1.48,1.87-3.59,3.2-5.08,5.15.78-2.81,3.59-4.06,4.92-6.48-1.56,1.87-3.83,3.05-5.23,5"/>
    <path class="st5" d="M19.15,150.58c.47-1.56,1.56-2.66,2.73-3.67,1.17-1.09,2.34-2.11,3.44-3.2.16-.16.31-.39.55-.31s.16.39.08.55c-.23,1.09-.7,2.11-1.41,2.97-1.48,1.87-3.59,3.2-5.08,5.15.78-2.81,3.59-4.06,4.92-6.48-1.56,1.87-3.83,3.05-5.23,5Z"/>
    <path class="st12" d="M9.94,137.54c-.62-.86-.39-1.95.39-2.58s2.03-.39,2.58.39c.55.78.39,1.95-.47,2.58-.78.55-1.87.39-2.5-.39"/>
    <path class="st0" d="M9.94,137.54c-.62-.86-.39-1.95.39-2.58s2.03-.39,2.58.39c.55.78.39,1.95-.47,2.58-.78.55-1.87.39-2.5-.39Z"/>
    <path class="st12" d="M33.83,134.49c.86-.62,1.95-.39,2.58.39.55.86.31,2.03-.47,2.58-.86.55-2.03.39-2.58-.39-.62-.86-.39-1.95.47-2.58"/>
    <path class="st0" d="M33.83,134.49c.86-.62,1.95-.39,2.58.39.55.86.31,2.03-.47,2.58-.86.55-2.03.39-2.58-.39-.62-.86-.39-1.95.47-2.58Z"/>
    <path class="st10" d="M19.38,148.16c1.72-2.03,3.67-3.83,5.23-6.01q-.08-.08-.16-.16c-1.8,1.72-3.51,3.44-5.31,5.15.62-1.41,1.56-2.5,2.66-3.44.7-.62,1.64-1.09,2.26-1.87.39-.47.94-.23,1.41-.08.39.16,0,.47-.16.62-.86,1.17-1.87,2.19-2.97,3.12-1.02.86-1.87,1.87-2.97,2.66"/>
    <path class="st5" d="M19.38,148.16c1.72-2.03,3.67-3.83,5.23-6.01q-.08-.08-.16-.16c-1.8,1.72-3.51,3.44-5.31,5.15.62-1.41,1.56-2.5,2.66-3.44.7-.62,1.64-1.09,2.26-1.87.39-.47.94-.23,1.41-.08.39.16,0,.47-.16.62-.86,1.17-1.87,2.19-2.97,3.12-1.02.86-1.87,1.87-2.97,2.66Z"/>
    <path class="st10" d="M20.48,154.25c.47-2.26,2.97-3.12,3.83-5.15-1.25.78-2.34,1.87-3.44,2.89,1.25-2.03,3.36-3.36,4.76-5.47.39.62.16,1.09-.08,1.56-.39.86-.94,1.64-1.56,2.34-1.02,1.41-2.34,2.5-3.51,3.83"/>
    <path class="st5" d="M20.48,154.25c.47-2.26,2.97-3.12,3.83-5.15-1.25.78-2.34,1.87-3.44,2.89,1.25-2.03,3.36-3.36,4.76-5.47.39.62.16,1.09-.08,1.56-.39.86-.94,1.64-1.56,2.34-1.02,1.41-2.34,2.5-3.51,3.83Z"/>
    <path class="st10" d="M24.46,152.22c-1.17.7-2.03,1.8-3.12,2.58,1.09-1.72,2.66-2.97,4.06-4.61.23,1.8-.94,3.59-2.97,4.53.62-1.02,1.64-1.48,2.03-2.5"/>
    <path class="st5" d="M24.46,152.22c-1.17.7-2.03,1.8-3.12,2.58,1.09-1.72,2.66-2.97,4.06-4.61.23,1.8-.94,3.59-2.97,4.53.62-1.02,1.64-1.48,2.03-2.5Z"/>
    <path class="st12" d="M21.65,162.37c.16.31.16.7.55.86.16-.08.16-.23.16-.31,0-.7.55-1.02,1.17-1.25.39-.16.55.23.7.55.23.55.23,1.09-.23,1.56-.55.55-1.25.7-1.87.23-.7-.39-.94-1.02-.47-1.64"/>
    <path class="st1" d="M21.65,162.37c.16.31.16.7.55.86.16-.08.16-.23.16-.31,0-.7.55-1.02,1.17-1.25.39-.16.55.23.7.55.23.55.23,1.09-.23,1.56-.55.55-1.25.7-1.87.23-.7-.39-.94-1.02-.47-1.64Z"/>
    <path class="st10" d="M18.76,145.81c-.23-.47-.08-.78.16-.94,1.09-1.17,2.26-2.34,3.36-3.51.23-.23.55-.55.86-.16s-.16.55-.31.7c-1.48,1.17-2.81,2.5-4.06,3.9"/>
    <path class="st5" d="M18.76,145.81c-.23-.47-.08-.78.16-.94,1.09-1.17,2.26-2.34,3.36-3.51.23-.23.55-.55.86-.16s-.16.55-.31.7c-1.48,1.17-2.81,2.5-4.06,3.9Z"/>
    <path class="st10" d="M19.07,143.63c.47-.94,1.33-1.48,2.19-1.95-.39,1.02-1.48,1.33-2.19,1.95"/>
    <path class="st5" d="M19.07,143.63c.47-.94,1.33-1.48,2.19-1.95-.39,1.02-1.48,1.33-2.19,1.95Z"/>
    <path class="st10" d="M19.07,142.3c-.23.16-.39.23-.55.08s-.16-.39.08-.55c.16-.16.39-.16.55.08.16.16,0,.31-.08.39"/>
    <path class="st10" d="M19.23,148.47c-.08.23-.08.47-.39.62,0-.39.08-.55.39-.62"/>
    <path class="st5" d="M19.23,148.47c-.08.23-.08.47-.39.62,0-.39.08-.55.39-.62Z"/>
    <path class="st9" d="M22.35,96.3c-1.17,2.19-2.26,4.45-3.44,6.64-.23.39-.39.86-.23,1.33-.16,4.14-.23,8.28-.16,12.34-.16,2.42.08-7.81.16-5.39v2.73c-.08,1.02-.08,2.03-.08,3.05,0,2.73,0,5.39-.16,8.12-.08,1.64,0,3.2-.08,4.84-.16,1.72-.16,3.44,0,5.15.08,1.72-.08,1.95-1.72,1.48-1.17-.39-2.42-.62-3.05-1.87-.55-1.02-1.95-1.25-2.97-.86-1.17.55-1.8,1.64-1.56,3.12.08.94,1.09,1.72,2.19,1.87.39.08.7.08,1.09.39,1.33,1.25,2.89,2.03,4.69,2.26.55.08.78.31.78.94-.16,2.26,0,4.61.23,6.87.31,2.19.78,4.3,2.11,6.09.31.39.31.55.08.94-1.02,1.48-.78,3.36.7,4.45.47.31.47.55.16.94-.62,1.09-.16,2.42.86,2.97,1.02.55,2.03.31,2.81-.55.7-.78.7-1.87.08-2.73-.23-.23-.31-.39,0-.7,1.64-1.56,1.64-3.36,0-4.92-.23-.23-.31-.31-.08-.55,1.02-1.09,1.41-2.42,1.72-3.83.62-2.89.7-5.78.62-8.75,0-.78.16-1.02,1.02-1.02,2.34-.08,4.37-.94,6.09-2.58.31-.31.62-.47,1.09-.47,1.56-.16,2.26-1.09,2.42-2.5.16-1.17-.7-2.26-1.87-2.58-1.41-.31-2.58.23-3.2,1.48-.16.31-.16.55-.47.7-1.48.86-2.97,1.33-4.69,1.33-.39,0-.55-.16-.55-.55v-2.34c-.16-10.62-.62-8.67-.78-19.29-.08-3.98-.16-7.97-.23-11.95v-.16c-.08-.16-.16-.31-.23-.47.08-.16,0-.31-.08-.39s-.16-.23-.16-.31c.08-.16,0-.23-.08-.39-.08-.08-.16-.23-.16-.31,0-.23-.08-.39-.16-.47-.16-.31-.16-.78-.47-1.02v-.16c-.08-.16-.16-.39-.23-.55,0-.31-.08-.47-.31-.62-.08-.31-.16-.62-.39-.86.08-.16,0-.23-.08-.39-.08-.08-.16-.23-.16-.31,0-.31-.08-.55-.31-.62-.62-.08-.78.23-.78.39M22.27,162.84c0-.7.55-1.02,1.17-1.25.39-.16.55.23.7.55.23.55.23,1.09-.23,1.56-.55.55-1.25.7-1.87.23-.62-.39-.78-1.02-.39-1.64.16.31.16.7.55.86.16-.08.08-.16.08-.31M19.31,130.19h0c.16-.31.08-.62,0-.94h0c.16-1.48.16-3.05,0-4.53h0c.16-.55.08-1.02,0-1.56v-.62c.16-4.61.16-9.22.08-13.82v-.23c.16-1.33-.16,10.07-.16,8.75v-.39c.08-3.05.08-6.17.16-9.22v-3.28c0-.86.62-1.41,1.02-2.19,0-.08.08-.16.08-.23.16-.23.31-.47.47-.7.31-.31.55-.78.7-1.17.08,0,.08-.08.08-.16.08,0,.08-.08.16-.08.08-.08.23-.08.31-.16,0,1.02,0,2.11.08,3.12.08,11.71.31,10.78.39,22.49,0,3.59.08,7.26.08,10.86-.47.62-1.25.55-1.87.86-.31.16-.7.31-1.09.39h-.23c0-.08-.08-.08-.08-.16h0v-.31c-.08-2.26-.08-4.45-.16-6.72M9.94,137.54c-.62-.86-.39-1.95.39-2.58s2.03-.39,2.58.39c.55.78.39,1.95-.47,2.58-.78.55-1.87.39-2.5-.39M18.53,142.38c-.16-.16-.16-.39.08-.55.16-.16.39-.16.55.08.16.16,0,.31-.08.39-.23.23-.39.23-.55.08M19.07,143.63c.47-.94,1.33-1.48,2.19-1.95-.39,1.02-1.48,1.33-2.19,1.95M18.92,144.88c1.09-1.17,2.26-2.34,3.36-3.51.23-.23.55-.55.86-.16s-.16.55-.31.7c-1.41,1.17-2.73,2.42-3.98,3.9-.31-.47-.16-.7.08-.94M18.84,149.02c0-.31.08-.55.39-.62-.08.31-.08.55-.39.62M24.62,156.9c.7,1.02.47,2.58-.55,3.36s-2.58.47-3.36-.62c-.78-1.09-.55-2.58.55-3.36,1.02-.78,2.58-.47,3.36.62M22.43,154.79c.55-1.09,1.56-1.56,2.03-2.5-1.17.7-2.03,1.8-3.12,2.58,1.09-1.72,2.66-2.97,4.06-4.61.23,1.8-.94,3.59-2.97,4.53M25.63,148.08c-.39.86-.94,1.64-1.56,2.34-1.09,1.33-2.42,2.5-3.59,3.83.47-2.26,2.97-3.12,3.83-5.15-1.33.78-2.34,1.87-3.44,2.89,1.25-2.03,3.36-3.36,4.76-5.47.39.62.16,1.09,0,1.56M25.79,143.39c.23.08.16.39.08.55-.23,1.09-.7,2.11-1.41,2.97-1.48,1.87-3.51,3.2-5.08,5.15.78-2.81,3.59-4.06,4.92-6.48-1.64,1.8-3.83,2.97-5.23,5,.47-1.56,1.56-2.66,2.73-3.67,1.17-1.09,2.34-2.11,3.44-3.2.16-.16.31-.39.55-.31M22.35,145.58c-1.02.86-1.87,1.8-2.97,2.58,1.72-2.03,3.67-3.83,5.23-6.01q-.08-.08-.16-.16c-1.8,1.72-3.51,3.44-5.31,5.15.62-1.41,1.56-2.5,2.66-3.44.7-.62,1.64-1.09,2.26-1.87.39-.47.94-.23,1.41-.08.39.16,0,.47-.16.62-.86,1.25-1.87,2.26-2.97,3.2M24.23,140.35c-.78-.23-1.41-.23-2.11,0-3.2,1.09-6.25.86-8.98-1.25-.16-.16-.55-.31-.23-.62.23-.23.47-.62.94-.23,2.58,1.95,5.39,1.8,8.28.55.62-.23,1.09-.23,1.72,0,2.89,1.25,5.7,1.25,8.43-.55.16-.08.39-.23.55-.31.31-.16.47.16.62.31.16.23-.08.31-.23.39-.23.23-.47.39-.7.55-2.66,1.87-5.47,2.11-8.28,1.17M36.41,134.96c.55.86.31,2.03-.47,2.58-.86.55-2.03.39-2.58-.39-.62-.86-.39-1.95.47-2.58s2.03-.47,2.58.39M26.18,137.77c1.87.23,3.67-.08,5.39-.94.16-.08.47-.55.7,0,.23.39-.08.62-.31.78-2.42,1.64-4.92,1.64-7.5.7-.47-.16-.94-.47-1.48-.7-1.48.62-2.89,1.33-4.53,1.41-1.56.08-2.97-.31-4.14-1.25-.31-.23-.62-.47-.31-.86.23-.39.55.08.78.16,1.95.78,3.9,1.33,6.09.55.7-.23,1.41-.16,2.19-.08,1.09-.31,2.11.08,3.12.23M23.84,100.13c0,.23.08.39.23.47.08.16.16.31.31.47,0,.31.23.55.39.78.31.55.39,1.09.47,1.72.23,15.07.62,17.57.86,32.64,0,.62,0,1.02-.78.62-.55-.31-1.17-.47-1.8-.62-.23-.31-.08-.62-.08-.94,0-3.12-.08-6.25-.08-9.37-.08-11.4-.39-10.15-.39-21.55,0-1.87-.16-3.83.08-5.7.23.55.47,1.02.78,1.48"/>
    <path class="st9" d="M20.71,158.39c.08.55.39,1.02,1.02,1.09-.47-.62-.78-1.17-.23-1.87.47-.7,1.25-.47,1.95-.78-.78-.47-1.33-.47-1.95-.08-.62.39-.86.94-.78,1.64"/>
    <path class="st12" d="M33.99,88.8c.08-.78.16-1.56-.08-2.26-.78-2.26-.31-4.3.55-6.33.08-.23.55-.55.16-.78-.39-.31-.7,0-.94.31-.94,1.25-1.33,2.73-1.25,4.37.08,1.72.78,3.2,1.48,4.76-.23.47-.55,1.02-.78,1.48-1.02,2.73-1.02,5.31.78,7.81.23.31.39.55.86.39.55-.23.08-.62,0-.78-.94-1.8-1.25-3.75-1.02-5.7.08-1.09.47-2.19.23-3.28"/>
    <path class="st0" d="M33.99,88.8c.08-.78.16-1.56-.08-2.26-.78-2.26-.31-4.3.55-6.33.08-.23.55-.55.16-.78-.39-.31-.7,0-.94.31-.94,1.25-1.33,2.73-1.25,4.37.08,1.72.78,3.2,1.48,4.76-.23.47-.55,1.02-.78,1.48-1.02,2.73-1.02,5.31.78,7.81.23.31.39.55.86.39.55-.23.08-.62,0-.78-.94-1.8-1.25-3.75-1.02-5.7.08-1.09.47-2.19.23-3.28Z"/>
    <path class="st8" d="M64.06,85.05h.23c1.33.16-10.46-.16-9.14-.23h.47c3.2.08,6.4.08,9.61.16,1.09,0,23.12.08,24.21,0,.86,0,1.48.7,2.26,1.02.08,0,.16.08.23.08.23.16.55.31.78.47.39.31.78.55,1.25.7,0,.08.08.08.16.16l.16.16c.08.08.08.23.16.31h-3.28c-12.26,0-32.1.23-44.36.31-3.75,0-7.58.08-11.32.08-.7-.47-.55-1.33-.94-1.95-.16-.39-.31-.78-.47-1.17v-.23h0c.08,0,.08-.08.16-.08h.31c2.34.16,4.69.16,7.11.08h0c.31.16.62.08.94,0h0c1.56.16,3.2.16,4.76.08h0c.55.16,1.09.16,1.64.08h.62c4.84.08,9.61.08,14.45,0"/>
    <path class="st6" d="M64.06,85.05h.23c1.33.16-10.46-.16-9.14-.23h.47c3.2.08,6.4.08,9.61.16,1.09,0,23.12.08,24.21,0,.86,0,1.48.7,2.26,1.02.08,0,.16.08.23.08.23.16.55.31.78.47.39.31.78.55,1.25.7,0,.08.08.08.16.16l.16.16c.08.08.08.23.16.31h-3.28c-12.26,0-32.1.23-44.36.31-3.75,0-7.58.08-11.32.08-.7-.47-.55-1.33-.94-1.95-.16-.39-.31-.78-.47-1.17v-.23h0c.08,0,.08-.08.16-.08h.31c2.34.16,4.69.16,7.11.08h0c.31.16.62.08.94,0h0c1.56.16,3.2.16,4.76.08h0c.55.16,1.09.16,1.64.08h.62c4.84.08,9.61.08,14.45,0Z"/>
    <path class="st8" d="M93.34,89.97c-.16.08-.31.16-.55.31-.31,0-.62.23-.86.47-.55.31-1.17.47-1.8.47-15.78.16-39.2.62-54.98.78-.62,0-1.09,0-.62-.86.31-.55.47-1.25.7-1.87.31-.23.7-.08,1.02-.08,3.28,0,6.48,0,9.76-.08,11.87,0,31.39-.31,43.34-.31,1.95,0,3.98-.16,5.94.16-.47.31-1.02.55-1.48.86-.16-.08-.31,0-.47.16"/>
    <path class="st6" d="M93.34,89.97c-.16.08-.31.16-.55.31-.31,0-.62.23-.86.47-.55.31-1.17.47-1.8.47-15.78.16-39.2.62-54.98.78-.62,0-1.09,0-.62-.86.31-.55.47-1.25.7-1.87.31-.23.7-.08,1.02-.08,3.28,0,6.48,0,9.76-.08,11.87,0,31.39-.31,43.34-.31,1.95,0,3.98-.16,5.94.16-.47.31-1.02.55-1.48.86-.16-.08-.31,0-.47.16Z"/>
    <path class="st12" d="M32.11,98.64c-1.87-2.73-2.11-5.62-1.17-8.67.23-.78.23-1.41-.08-2.19-1.09-3.36-.94-6.56,1.25-9.37.16-.16.31-.62.62-.23.23.23.62.47.23.94-2.03,2.73-1.8,5.7-.55,8.67.31.62.31,1.17,0,1.8-1.33,2.97-1.25,5.94.55,8.82.16.16.23.39.31.62.16.31-.16.47-.31.62-.23.16-.31-.08-.39-.23-.08-.23-.23-.55-.47-.78"/>
    <path class="st0" d="M32.11,98.64c-1.87-2.73-2.11-5.62-1.17-8.67.23-.78.23-1.41-.08-2.19-1.09-3.36-.94-6.56,1.25-9.37.16-.16.31-.62.62-.23.23.23.62.47.23.94-2.03,2.73-1.8,5.7-.55,8.67.31.62.31,1.17,0,1.8-1.33,2.97-1.25,5.94.55,8.82.16.16.23.39.31.62.16.31-.16.47-.31.62-.23.16-.31-.08-.39-.23-.08-.23-.23-.55-.47-.78Z"/>
    <path class="st12" d="M10.79,86.3c1.17-.86,2.66-.62,3.51.55.78,1.09.47,2.73-.62,3.51s-2.73.47-3.51-.55c-.78-1.09-.47-2.73.62-3.51"/>
    <path class="st1" d="M10.79,86.3c1.17-.86,2.66-.62,3.51.55.78,1.09.47,2.73-.62,3.51s-2.73.47-3.51-.55c-.78-1.09-.47-2.73.62-3.51Z"/>
    <path class="st10" d="M20.24,84.66c1.64.55,2.73,1.64,3.83,2.81,1.09,1.17,2.19,2.42,3.36,3.59.16.16.39.31.31.55-.08.23-.39.16-.62.08-1.17-.23-2.19-.7-3.12-1.48-1.95-1.56-3.36-3.75-5.39-5.31,2.97.78,4.3,3.75,6.79,5.15-1.8-1.56-3.05-3.9-5.15-5.39"/>
    <path class="st5" d="M20.24,84.66c1.64.55,2.73,1.64,3.83,2.81,1.09,1.17,2.19,2.42,3.36,3.59.16.16.39.31.31.55-.08.23-.39.16-.62.08-1.17-.23-2.19-.7-3.12-1.48-1.95-1.56-3.36-3.75-5.39-5.31,2.97.78,4.3,3.75,6.79,5.15-1.8-1.56-3.05-3.9-5.15-5.39Z"/>
    <path class="st12" d="M33.91,75.06c.86-.62,2.03-.47,2.66.47.62.86.47,2.11-.39,2.73-.86.62-2.11.39-2.73-.47-.55-.94-.39-2.11.47-2.73"/>
    <path class="st0" d="M33.91,75.06c.86-.62,2.03-.47,2.66.47.62.86.47,2.11-.39,2.73-.86.62-2.11.39-2.73-.47-.55-.94-.39-2.11.47-2.73Z"/>
    <path class="st12" d="M37.11,100.13c.62.86.47,2.11-.39,2.66-.86.62-2.11.39-2.66-.47-.62-.86-.39-2.11.47-2.73.78-.62,1.87-.39,2.58.55"/>
    <path class="st0" d="M37.11,100.13c.62.86.47,2.11-.39,2.66-.86.62-2.11.39-2.66-.47-.62-.86-.39-2.11.47-2.73.78-.62,1.87-.39,2.58.55Z"/>
    <path class="st10" d="M22.82,84.9c2.11,1.8,4.06,3.83,6.25,5.47q.08-.08.16-.16l-5.47-5.54c1.41.62,2.58,1.64,3.67,2.81.7.78,1.17,1.72,1.95,2.42.47.39.23,1.02.08,1.41-.16.39-.47,0-.7-.16-1.25-.86-2.26-1.95-3.28-3.12-.78-1.09-1.87-1.95-2.66-3.12"/>
    <path class="st5" d="M22.82,84.9c2.11,1.8,4.06,3.83,6.25,5.47q.08-.08.16-.16l-5.47-5.54c1.41.62,2.58,1.64,3.67,2.81.7.78,1.17,1.72,1.95,2.42.47.39.23,1.02.08,1.41-.16.39-.47,0-.7-.16-1.25-.86-2.26-1.95-3.28-3.12-.78-1.09-1.87-1.95-2.66-3.12Z"/>
    <path class="st10" d="M16.42,86.07c2.34.55,3.28,3.12,5.39,4.06-.86-1.33-1.95-2.42-2.97-3.59,2.19,1.33,3.51,3.51,5.7,5-.62.39-1.17.16-1.64-.08-.94-.39-1.72-1.02-2.5-1.64-1.41-1.17-2.58-2.58-3.98-3.75"/>
    <path class="st5" d="M16.42,86.07c2.34.55,3.28,3.12,5.39,4.06-.86-1.33-1.95-2.42-2.97-3.59,2.19,1.33,3.51,3.51,5.7,5-.62.39-1.17.16-1.64-.08-.94-.39-1.72-1.02-2.5-1.64-1.41-1.17-2.58-2.58-3.98-3.75Z"/>
    <path class="st10" d="M18.53,90.21c-.7-1.25-1.87-2.11-2.66-3.28,1.8,1.09,3.12,2.73,4.76,4.22-1.87.23-3.75-1.02-4.76-3.05,1.17.62,1.64,1.72,2.66,2.11"/>
    <path class="st5" d="M18.53,90.21c-.7-1.25-1.87-2.11-2.66-3.28,1.8,1.09,3.12,2.73,4.76,4.22-1.87.23-3.75-1.02-4.76-3.05,1.17.62,1.64,1.72,2.66,2.11Z"/>
    <path class="st12" d="M7.98,87.24c-.31.16-.7.16-.86.55.08.16.23.16.31.16.78,0,1.09.62,1.33,1.25.16.47-.31.62-.55.78-.55.31-1.17.23-1.64-.23-.62-.62-.7-1.33-.23-2.03.31-.7.94-.94,1.64-.47"/>
    <path class="st1" d="M7.98,87.24c-.31.16-.7.16-.86.55.08.16.23.16.31.16.78,0,1.09.62,1.33,1.25.16.47-.31.62-.55.78-.55.31-1.17.23-1.64-.23-.62-.62-.7-1.33-.23-2.03.31-.7.94-.94,1.64-.47Z"/>
    <path class="st10" d="M25.24,84.27c.47-.23.78-.08,1.02.16,1.25,1.17,2.42,2.34,3.67,3.59.23.23.55.55.16.86s-.55-.16-.7-.39c-1.33-1.48-2.66-2.89-4.14-4.22"/>
    <path class="st5" d="M25.24,84.27c.47-.23.78-.08,1.02.16,1.25,1.17,2.42,2.34,3.67,3.59.23.23.55.55.16.86s-.55-.16-.7-.39c-1.33-1.48-2.66-2.89-4.14-4.22Z"/>
    <path class="st10" d="M27.59,84.59c.94.47,1.56,1.33,2.11,2.26-1.17-.39-1.48-1.48-2.11-2.26"/>
    <path class="st5" d="M27.59,84.59c.94.47,1.56,1.33,2.11,2.26-1.17-.39-1.48-1.48-2.11-2.26Z"/>
    <path class="st10" d="M28.91,84.66c-.16-.23-.23-.47-.08-.55.16-.16.47-.16.62.08.16.16.16.47-.08.62-.23,0-.39-.16-.47-.16"/>
    <path class="st10" d="M22.51,84.74c-.23-.08-.55-.08-.62-.47.31.08.55.16.62.47"/>
    <path class="st5" d="M22.51,84.74c-.23-.08-.55-.08-.62-.47.31.08.55.16.62.47Z"/>
    <path class="st9" d="M97.87,88.26c-2.34-1.17-4.69-2.42-6.95-3.59-.47-.23-.94-.39-1.41-.31-4.3-.16-29.44-.31-33.74-.31-2.5-.16,8.12.08,5.62.16h-2.89c-1.09-.16-2.11-.08-3.2-.08-2.81,0-5.62-.08-8.51-.16-1.72-.08-3.36,0-5.08-.16-1.8-.16-3.59-.16-5.39-.08-1.8.08-2.03-.08-1.56-1.8.39-1.25.62-2.5,1.95-3.2,1.02-.55,1.33-2.03.86-3.12-.55-1.25-1.72-1.87-3.28-1.72-.94.08-1.8,1.09-1.95,2.26-.08.39-.08.78-.39,1.09-1.25,1.41-2.11,3.05-2.34,4.92-.08.55-.31.86-.94.78-2.42-.16-4.76,0-7.18.23-2.26.31-4.53.78-6.4,2.19-.39.31-.55.31-1.02.08-1.56-1.09-3.51-.78-4.61.7-.39.47-.55.47-1.02.16-1.09-.62-2.5-.23-3.05.86-.55,1.09-.31,2.11.55,2.97.78.7,1.95.78,2.89.08.31-.23.39-.39.7,0,1.64,1.72,3.51,1.72,5.15,0,.23-.23.31-.31.62-.08,1.17,1.09,2.58,1.48,4.06,1.8,3.05.62,6.09.78,9.14.7.78,0,1.02.16,1.09,1.02.08,2.42,1.02,4.61,2.73,6.4.31.31.47.7.55,1.17.16,1.64,1.09,2.34,2.58,2.58,1.17.16,2.42-.78,2.66-1.95.31-1.41-.31-2.73-1.56-3.36-.31-.16-.62-.23-.78-.55-.86-1.56-1.41-3.12-1.41-4.92,0-.39.16-.55.55-.55h2.42c11.09-.16,9.06-.62,20.15-.78,4.14-.08,29.13-.08,33.27-.16h.16c.16-.08.31-.16.55-.23.16.08.31,0,.39-.08s.23-.16.31-.23c.16.08.23,0,.39-.08s.23-.16.39-.16c.23,0,.39-.08.55-.23.31-.16.78-.16,1.09-.47q.08,0,.16-.08c.16-.08.39-.16.55-.23.31,0,.47-.16.7-.31.31-.08.62-.16.86-.39.16.08.31,0,.39-.08s.23-.16.31-.16c.31,0,.62-.08.62-.39.16-.08-.16-.16-.31-.16M7.44,87.94c.78,0,1.09.62,1.33,1.25.16.47-.31.62-.55.78-.55.31-1.17.23-1.64-.23-.62-.62-.7-1.33-.23-1.95.39-.62,1.02-.86,1.72-.39-.31.16-.7.16-.86.55,0,0,.16,0,.23,0M41.64,84.82h0c.31.16.62.08.94,0h0c1.56.16,3.2.16,4.76.08h0c.55.16,1.09.16,1.64.08h.62c4.84.16,9.61.23,14.45.16h.23c1.33.16-10.46-.16-9.14-.23h.47c3.2.08,6.4.08,9.61.16,1.09,0,23.12.08,24.21.08.86,0,1.48.7,2.26,1.02.08,0,.16.08.23.08.23.16.55.31.78.47.39.31.78.55,1.25.7,0,.08.08.08.16.16l.16.16c.08.08.08.23.16.31h-3.28c-12.26,0-32.1.23-44.36.31-3.75,0-7.58.08-11.32.08-.7-.47-.55-1.33-.94-1.95-.16-.39-.31-.78-.47-1.17v-.23h0c.08,0,.08-.08.16-.08h.31c2.34-.08,4.69,0,7.11-.16M33.91,75.06c.86-.62,2.03-.47,2.66.47.62.86.47,2.11-.39,2.73-.86.62-2.11.39-2.73-.47-.55-.94-.39-2.11.47-2.73M28.83,84.04c.16-.16.47-.16.62.08.16.16.16.47-.08.62-.16.16-.31,0-.47-.08-.23-.23-.23-.47-.08-.62M27.59,84.59c.94.47,1.56,1.33,2.11,2.26-1.17-.39-1.48-1.48-2.11-2.26M26.26,84.43c1.25,1.17,2.42,2.34,3.67,3.59.23.23.55.55.16.86s-.55-.16-.7-.39c-1.25-1.48-2.58-2.89-4.06-4.22.39-.23.7-.08.94.16M21.88,84.35c.31,0,.55.08.62.47-.23-.16-.55-.16-.62-.47M13.68,90.37c-1.09.78-2.73.47-3.51-.55-.78-1.09-.55-2.73.62-3.51,1.17-.86,2.66-.62,3.51.55.78,1.09.47,2.73-.62,3.51M15.95,88.1c1.09.62,1.64,1.64,2.66,2.11-.7-1.25-1.87-2.11-2.66-3.28,1.8,1.09,3.12,2.73,4.76,4.22-1.95.31-3.83-.94-4.76-3.05M22.9,91.46c-.94-.39-1.72-1.02-2.5-1.64-1.41-1.17-2.58-2.58-3.98-3.75,2.34.55,3.28,3.12,5.39,4.06-.86-1.33-1.95-2.42-2.97-3.59,2.19,1.33,3.51,3.51,5.7,5-.62.31-1.17.16-1.64-.08M27.82,91.69c-.08.23-.39.16-.62.16-1.09-.23-2.19-.78-3.12-1.48-1.95-1.56-3.36-3.75-5.39-5.31,2.97.78,4.3,3.75,6.79,5.15-1.87-1.72-3.12-3.98-5.23-5.47,1.64.55,2.73,1.64,3.83,2.81,1.09,1.17,2.19,2.42,3.36,3.59.23.08.47.23.39.55M25.55,88.02c-.86-1.09-1.95-1.95-2.73-3.12,2.11,1.8,4.06,3.83,6.25,5.47q.08-.08.16-.16c-1.8-1.87-3.59-3.67-5.47-5.54,1.41.62,2.58,1.64,3.67,2.81.7.78,1.17,1.72,1.95,2.42.47.39.23,1.02.08,1.41-.16.39-.47,0-.7-.16-1.17-.86-2.26-1.95-3.2-3.12M31.02,89.97c.23-.78.23-1.41-.08-2.19-1.09-3.36-.94-6.56,1.25-9.37.16-.16.31-.62.62-.23.23.23.62.47.23.94-2.03,2.73-1.8,5.7-.55,8.67.31.62.31,1.17,0,1.8-1.25,2.97-1.25,5.94.55,8.82.16.16.23.39.31.62.16.31-.16.47-.31.62-.23.16-.31-.08-.39-.23-.23-.23-.39-.55-.55-.78-1.87-2.73-2.11-5.62-1.09-8.67M36.64,102.78c-.86.62-2.11.39-2.66-.47-.62-.86-.39-2.11.47-2.73s2.03-.39,2.66.55c.62.86.47,2.03-.47,2.66M33.68,92.08c-.23,1.95.08,3.9,1.02,5.7.08.16.55.55,0,.78-.39.23-.62-.08-.86-.39-1.72-2.5-1.8-5.15-.78-7.81.16-.55.47-1.02.78-1.48-.7-1.48-1.41-3.05-1.48-4.76-.08-1.64.31-3.05,1.25-4.37.23-.31.55-.62.94-.31s-.08.55-.16.78c-.78,2.03-1.33,4.14-.55,6.33.23.7.16,1.48.08,2.26.31,1.09-.08,2.19-.23,3.28M93.89,89.74c-.23,0-.39.08-.55.23-.16.08-.31.16-.55.31-.31,0-.62.23-.86.47-.55.31-1.17.47-1.8.47-15.78.16-39.2.62-54.98.78-.62,0-1.09,0-.62-.86.31-.55.47-1.25.7-1.87.31-.23.7-.08,1.02-.08,3.28,0,6.48,0,9.76-.08,11.87,0,31.39-.31,43.34-.31,1.95,0,3.98-.16,5.94.16-.47.23-.94.47-1.41.78"/>
    <path class="st9" d="M12.12,86.23c-.62.08-1.09.39-1.17,1.09.62-.47,1.17-.78,1.95-.23.7.47.55,1.25.78,2.03.47-.78.47-1.41.08-2.11-.31-.55-.94-.86-1.64-.78"/>
    <path class="st12" d="M23.06,53.5c-.7-.08-1.48-.16-2.19.08-2.11.78-4.14.23-6.09-.55-.23-.08-.47-.47-.78-.16-.31.39,0,.7.31.86,1.25.94,2.66,1.25,4.14,1.25,1.64-.08,3.05-.7,4.53-1.41.47.23.94.55,1.48.7,2.58.94,5.08.94,7.5-.7.31-.23.55-.39.31-.78-.23-.47-.55-.08-.7,0-1.72.86-3.51,1.17-5.39.94-1.02-.08-2.03-.47-3.12-.23"/>
    <path class="st0" d="M23.06,53.5c-.7-.08-1.48-.16-2.19.08-2.11.78-4.14.23-6.09-.55-.23-.08-.47-.47-.78-.16-.31.39,0,.7.31.86,1.25.94,2.66,1.25,4.14,1.25,1.64-.08,3.05-.7,4.53-1.41.47.23.94.55,1.48.7,2.58.94,5.08.94,7.5-.7.31-.23.55-.39.31-.78-.23-.47-.55-.08-.7,0-1.72.86-3.51,1.17-5.39.94-1.02-.08-2.03-.47-3.12-.23Z"/>
    <path class="st8" d="M19.46,24.76v-.23c.16-1.33-.16,10.07-.16,8.75v-.39c.08-3.05.08-6.17.16-9.22v-3.28c0-.86.62-1.41,1.02-2.19,0-.08.08-.16.08-.23.16-.23.31-.47.47-.7.31-.31.55-.78.7-1.17.08,0,.08-.08.08-.16q.08-.08.16-.08c.08-.08.23-.08.31-.16,0,1.09,0,2.11.08,3.12.08,11.71.31,10.78.39,22.49,0,3.59.08,7.26.08,10.86-.47.62-1.25.55-1.87.86-.31.16-.7.31-1.09.39h-.23c0-.08-.08-.08-.08-.16h0v-.31c.08-2.26.16-4.53,0-6.79h0c.16-.31.08-.62,0-.94h0c.16-1.48.16-3.05,0-4.53h0c.16-.55.08-1.02,0-1.56v-.62c-.08-4.53,0-9.14-.08-13.74"/>
    <path class="st6" d="M19.46,24.76v-.23c.16-1.33-.16,10.07-.16,8.75v-.39c.08-3.05.08-6.17.16-9.22v-3.28c0-.86.62-1.41,1.02-2.19,0-.08.08-.16.08-.23.16-.23.31-.47.47-.7.31-.31.55-.78.7-1.17.08,0,.08-.08.08-.16q.08-.08.16-.08c.08-.08.23-.08.31-.16,0,1.09,0,2.11.08,3.12.08,11.71.31,10.78.39,22.49,0,3.59.08,7.26.08,10.86-.47.62-1.25.55-1.87.86-.31.16-.7.31-1.09.39h-.23c0-.08-.08-.08-.08-.16h0v-.31c.08-2.26.16-4.53,0-6.79h0c.16-.31.08-.62,0-.94h0c.16-1.48.16-3.05,0-4.53h0c.16-.55.08-1.02,0-1.56v-.62c-.08-4.53,0-9.14-.08-13.74Z"/>
    <path class="st8" d="M24.07,16.64c.08.16.16.31.31.47,0,.31.23.55.39.78.31.55.39,1.09.47,1.72.16,15.15.62,17.65.78,32.72,0,.62,0,1.02-.78.62-.55-.31-1.17-.47-1.8-.62-.23-.31-.08-.62-.08-.94,0-3.12-.08-6.25-.08-9.37-.08-11.4-.39-10.15-.39-21.55,0-1.87-.16-3.83.08-5.7.23.47.55.94.78,1.41,0,.23.16.39.31.47"/>
    <path class="st6" d="M24.07,16.64c.08.16.16.31.31.47,0,.31.23.55.39.78.31.55.39,1.09.47,1.72.16,15.15.62,17.65.78,32.72,0,.62,0,1.02-.78.62-.55-.31-1.17-.47-1.8-.62-.23-.31-.08-.62-.08-.94,0-3.12-.08-6.25-.08-9.37-.08-11.4-.39-10.15-.39-21.55,0-1.87-.16-3.83.08-5.7.23.47.55.94.78,1.41,0,.23.16.39.31.47Z"/>
    <path class="st12" d="M32.43,55.3c-2.58,1.8-5.39,2.03-8.28,1.09-.78-.23-1.41-.23-2.11,0-3.2,1.09-6.25.86-8.98-1.25-.16-.16-.55-.31-.23-.62.23-.23.47-.62.94-.23,2.58,1.95,5.39,1.8,8.28.55.62-.23,1.09-.23,1.72,0,2.89,1.25,5.7,1.25,8.43-.55.16-.08.39-.23.55-.31.31-.16.47.16.62.31.16.23-.08.31-.23.39-.16.31-.39.47-.7.62"/>
    <path class="st0" d="M32.43,55.3c-2.58,1.8-5.39,2.03-8.28,1.09-.78-.23-1.41-.23-2.11,0-3.2,1.09-6.25.86-8.98-1.25-.16-.16-.55-.31-.23-.62.23-.23.47-.62.94-.23,2.58,1.95,5.39,1.8,8.28.55.62-.23,1.09-.23,1.72,0,2.89,1.25,5.7,1.25,8.43-.55.16-.08.39-.23.55-.31.31-.16.47.16.62.31.16.23-.08.31-.23.39-.16.31-.39.47-.7.62Z"/>
    <path class="st12" d="M20.71,75.68c-.78-1.09-.55-2.58.55-3.36,1.02-.78,2.66-.47,3.36.62.7,1.02.47,2.58-.55,3.36-1.02.78-2.58.47-3.36-.62"/>
    <path class="st1" d="M20.71,75.68c-.78-1.09-.55-2.58.55-3.36,1.02-.78,2.66-.47,3.36.62.7,1.02.47,2.58-.55,3.36-1.02.78-2.58.47-3.36-.62Z"/>
    <path class="st10" d="M19.15,66.62c.47-1.56,1.56-2.66,2.73-3.67,1.17-1.09,2.34-2.11,3.44-3.2.16-.16.31-.39.55-.31s.16.39.08.55c-.23,1.09-.7,2.11-1.41,2.97-1.48,1.87-3.59,3.2-5.08,5.15.78-2.81,3.59-4.06,4.92-6.48-1.56,1.87-3.83,3.05-5.23,5"/>
    <path class="st5" d="M19.15,66.62c.47-1.56,1.56-2.66,2.73-3.67,1.17-1.09,2.34-2.11,3.44-3.2.16-.16.31-.39.55-.31s.16.39.08.55c-.23,1.09-.7,2.11-1.41,2.97-1.48,1.87-3.59,3.2-5.08,5.15.78-2.81,3.59-4.06,4.92-6.48-1.56,1.87-3.83,3.05-5.23,5Z"/>
    <path class="st12" d="M9.94,53.58c-.62-.86-.39-1.95.39-2.58s2.03-.39,2.58.39c.55.78.39,1.95-.47,2.58-.78.55-1.87.39-2.5-.39"/>
    <path class="st0" d="M9.94,53.58c-.62-.86-.39-1.95.39-2.58s2.03-.39,2.58.39c.55.78.39,1.95-.47,2.58-.78.55-1.87.39-2.5-.39Z"/>
    <path class="st12" d="M33.83,50.54c.86-.62,1.95-.39,2.58.39.55.86.31,2.03-.47,2.58-.86.55-2.03.39-2.58-.39-.62-.86-.39-1.95.47-2.58"/>
    <path class="st0" d="M33.83,50.54c.86-.62,1.95-.39,2.58.39.55.86.31,2.03-.47,2.58-.86.55-2.03.39-2.58-.39-.62-.86-.39-1.95.47-2.58Z"/>
    <path class="st10" d="M19.38,64.2c1.72-2.03,3.67-3.83,5.23-6.01-.08,0-.16-.08-.16-.16-1.8,1.72-3.51,3.44-5.31,5.15.62-1.41,1.56-2.5,2.66-3.44.7-.62,1.64-1.09,2.26-1.87.39-.47.94-.23,1.41-.08.39.16,0,.47-.16.62-.86,1.17-1.87,2.19-2.97,3.12-1.02.86-1.87,1.87-2.97,2.66"/>
    <path class="st5" d="M19.38,64.2c1.72-2.03,3.67-3.83,5.23-6.01-.08,0-.16-.08-.16-.16-1.8,1.72-3.51,3.44-5.31,5.15.62-1.41,1.56-2.5,2.66-3.44.7-.62,1.64-1.09,2.26-1.87.39-.47.94-.23,1.41-.08.39.16,0,.47-.16.62-.86,1.17-1.87,2.19-2.97,3.12-1.02.86-1.87,1.87-2.97,2.66Z"/>
    <path class="st10" d="M20.48,70.29c.47-2.26,2.97-3.12,3.83-5.15-1.25.78-2.34,1.87-3.44,2.89,1.25-2.03,3.36-3.36,4.76-5.47.39.62.16,1.09-.08,1.56-.39.86-.94,1.64-1.56,2.34-1.02,1.41-2.34,2.5-3.51,3.83"/>
    <path class="st5" d="M20.48,70.29c.47-2.26,2.97-3.12,3.83-5.15-1.25.78-2.34,1.87-3.44,2.89,1.25-2.03,3.36-3.36,4.76-5.47.39.62.16,1.09-.08,1.56-.39.86-.94,1.64-1.56,2.34-1.02,1.41-2.34,2.5-3.51,3.83Z"/>
    <path class="st10" d="M24.46,68.26c-1.17.7-2.03,1.8-3.12,2.58,1.09-1.72,2.66-2.97,4.06-4.61.23,1.8-.94,3.59-2.97,4.53.62-1.02,1.64-1.48,2.03-2.5"/>
    <path class="st5" d="M24.46,68.26c-1.17.7-2.03,1.8-3.12,2.58,1.09-1.72,2.66-2.97,4.06-4.61.23,1.8-.94,3.59-2.97,4.53.62-1.02,1.64-1.48,2.03-2.5Z"/>
    <path class="st12" d="M21.65,78.42c.16.31.16.7.55.86.16-.08.16-.23.16-.31,0-.7.55-1.02,1.17-1.25.39-.16.55.23.7.55.23.55.23,1.09-.23,1.56-.55.55-1.25.7-1.87.23-.7-.39-.94-1.02-.47-1.64"/>
    <path class="st1" d="M21.65,78.42c.16.31.16.7.55.86.16-.08.16-.23.16-.31,0-.7.55-1.02,1.17-1.25.39-.16.55.23.7.55.23.55.23,1.09-.23,1.56-.55.55-1.25.7-1.87.23-.7-.39-.94-1.02-.47-1.64Z"/>
    <path class="st10" d="M18.76,61.86c-.23-.47-.08-.78.16-.94,1.09-1.17,2.26-2.34,3.36-3.51.23-.23.55-.55.86-.16s-.16.55-.31.7c-1.48,1.17-2.81,2.5-4.06,3.9"/>
    <path class="st5" d="M18.76,61.86c-.23-.47-.08-.78.16-.94,1.09-1.17,2.26-2.34,3.36-3.51.23-.23.55-.55.86-.16s-.16.55-.31.7c-1.48,1.17-2.81,2.5-4.06,3.9Z"/>
    <path class="st10" d="M19.07,59.67c.47-.94,1.33-1.48,2.19-1.95-.39,1.02-1.48,1.33-2.19,1.95"/>
    <path class="st5" d="M19.07,59.67c.47-.94,1.33-1.48,2.19-1.95-.39,1.02-1.48,1.33-2.19,1.95Z"/>
    <path class="st10" d="M19.07,58.42c-.23.16-.39.23-.55.08-.16-.16-.16-.39.08-.55.16-.16.39-.16.55.08.16.08,0,.23-.08.39"/>
    <path class="st10" d="M19.23,64.52c-.08.23-.08.47-.39.62,0-.39.08-.55.39-.62"/>
    <path class="st5" d="M19.23,64.52c-.08.23-.08.47-.39.62,0-.39.08-.55.39-.62Z"/>
    <path class="st9" d="M22.35,12.35c-1.17,2.19-2.26,4.45-3.44,6.64-.23.39-.39.86-.23,1.33-.16,4.14-.23,8.28-.16,12.34-.16,2.42.08-7.81.16-5.39v2.73c-.08,1.02-.08,2.03-.08,3.05,0,2.73,0,5.39-.16,8.12-.08,1.64,0,3.2-.08,4.84-.16,1.72-.16,3.44,0,5.15.08,1.72-.08,1.95-1.72,1.48-1.17-.39-2.42-.62-3.05-1.87-.55-1.02-1.95-1.25-2.97-.86-1.17.55-1.8,1.64-1.56,3.12.08.94,1.09,1.72,2.19,1.87.39.08.7.08,1.09.39,1.33,1.25,2.89,2.03,4.69,2.26.55.08.78.31.78.94-.16,2.26,0,4.61.23,6.87.31,2.19.78,4.3,2.11,6.09.31.39.31.55.08.94-1.02,1.48-.78,3.36.7,4.45.47.31.47.55.16.94-.62,1.09-.16,2.42.86,2.97,1.02.55,2.03.31,2.81-.55.7-.78.7-1.87.08-2.73-.23-.23-.31-.39,0-.7,1.64-1.56,1.64-3.36,0-4.92-.23-.23-.31-.31-.08-.55,1.02-1.09,1.41-2.42,1.72-3.83.62-2.89.7-5.78.62-8.75,0-.78.16-1.02,1.02-1.02,2.34-.08,4.37-.94,6.09-2.58.31-.31.62-.47,1.09-.47,1.56-.16,2.26-1.09,2.42-2.5.16-1.17-.7-2.26-1.87-2.58-1.41-.31-2.58.23-3.2,1.48-.16.31-.16.55-.47.7-1.48.86-2.97,1.33-4.69,1.33-.39,0-.55-.16-.55-.55v-2.34c-.16-10.62-.62-8.67-.78-19.29-.08-3.98-.16-7.97-.23-11.95v-.16c-.08-.16-.16-.31-.23-.47.08-.16,0-.31-.08-.39s-.16-.23-.16-.31c.08-.16,0-.23-.08-.39-.08-.08-.16-.23-.16-.31,0-.23-.08-.39-.16-.47-.16-.31-.16-.78-.47-1.02v-.16c-.08-.16-.16-.39-.23-.55,0-.31-.08-.47-.31-.62-.08-.31-.16-.62-.39-.86.08-.16,0-.23-.08-.39-.08-.08-.16-.23-.16-.31,0-.31-.08-.55-.31-.62-.62-.08-.78.23-.78.39M22.27,78.89c0-.7.55-1.02,1.17-1.25.39-.16.55.23.7.55.23.55.23,1.09-.23,1.56-.55.55-1.25.7-1.87.23-.62-.39-.78-1.02-.39-1.64.16.31.16.7.55.86.16-.08.08-.16.08-.31M19.31,46.24h0c.16-.31.08-.62,0-.94h0c.16-1.48.16-3.05,0-4.53h0c.16-.55.08-1.02,0-1.56v-.62c.16-4.61.16-9.22.08-13.82v-.23c.16-1.33-.16,10.07-.16,8.75v-.39c.08-3.05.08-6.17.16-9.22v-3.28c0-.86.62-1.41,1.02-2.19,0-.08.08-.16.08-.23.16-.23.31-.47.47-.7.31-.31.55-.78.7-1.17.08,0,.08-.08.08-.16.08,0,.08-.08.16-.08.08-.08.23-.08.31-.16,0,1.02,0,2.11.08,3.12.08,11.71.31,10.78.39,22.49,0,3.59.08,7.26.08,10.86-.47.62-1.25.55-1.87.86-.31.16-.7.31-1.09.39h-.23c0-.08-.08-.08-.08-.16h0v-.31c-.08-2.19-.08-4.45-.16-6.72M9.94,53.58c-.62-.86-.39-1.95.39-2.58s2.03-.39,2.58.39c.55.78.39,1.95-.47,2.58-.78.55-1.87.39-2.5-.39M18.53,58.42c-.16-.16-.16-.39.08-.55.16-.16.39-.16.55.08.16.16,0,.31-.08.39-.23.23-.39.23-.55.08M19.07,59.67c.47-.94,1.33-1.48,2.19-1.95-.39,1.02-1.48,1.33-2.19,1.95M18.92,60.92c1.09-1.17,2.26-2.34,3.36-3.51.23-.23.55-.55.86-.16s-.16.55-.31.7c-1.41,1.17-2.73,2.42-3.98,3.9-.31-.47-.16-.7.08-.94M18.84,65.06c0-.31.08-.55.39-.62-.08.31-.08.55-.39.62M24.62,72.95c.7,1.02.47,2.58-.55,3.36s-2.58.47-3.36-.62-.55-2.58.55-3.36c1.02-.7,2.58-.47,3.36.62M22.43,70.84c.55-1.09,1.56-1.56,2.03-2.5-1.17.7-2.03,1.8-3.12,2.58,1.09-1.72,2.66-2.97,4.06-4.61.23,1.8-.94,3.59-2.97,4.53M25.63,64.12c-.39.86-.94,1.64-1.56,2.34-1.09,1.33-2.42,2.5-3.59,3.83.47-2.26,2.97-3.12,3.83-5.15-1.33.78-2.34,1.87-3.44,2.89,1.25-2.03,3.36-3.36,4.76-5.47.39.62.16,1.09,0,1.56M25.79,59.44c.23.08.16.39.08.55-.23,1.09-.7,2.11-1.41,2.97-1.48,1.87-3.51,3.2-5.08,5.15.78-2.81,3.59-4.06,4.92-6.48-1.64,1.8-3.83,2.97-5.23,5,.47-1.56,1.56-2.66,2.73-3.67,1.17-1.09,2.34-2.11,3.44-3.2.16-.16.31-.39.55-.31M22.35,61.63c-1.02.86-1.87,1.8-2.97,2.58,1.72-2.03,3.67-3.83,5.23-6.01-.08,0-.16-.08-.16-.16-1.8,1.72-3.51,3.44-5.31,5.15.62-1.41,1.56-2.5,2.66-3.44.7-.62,1.64-1.09,2.26-1.87.39-.47.94-.23,1.41-.08.39.16,0,.47-.16.62-.86,1.25-1.87,2.26-2.97,3.2M24.23,56.39c-.78-.23-1.41-.23-2.11,0-3.2,1.09-6.25.86-8.98-1.25-.16-.16-.55-.31-.23-.62.23-.23.47-.62.94-.23,2.58,1.95,5.39,1.8,8.28.55.62-.23,1.09-.23,1.72,0,2.89,1.25,5.7,1.25,8.43-.55.16-.08.39-.23.55-.31.31-.16.47.16.62.31.16.23-.08.31-.23.39-.23.23-.47.39-.7.55-2.66,1.87-5.47,2.11-8.28,1.17M36.41,51c.55.86.31,2.03-.47,2.58-.86.55-2.03.39-2.58-.39-.62-.86-.39-1.95.47-2.58s2.03-.47,2.58.39M26.18,53.82c1.87.23,3.67-.08,5.39-.94.16-.08.47-.55.7,0,.23.39-.08.62-.31.78-2.42,1.64-4.92,1.64-7.5.7-.47-.16-.94-.47-1.48-.7-1.48.62-2.89,1.33-4.53,1.41-1.56.08-2.97-.31-4.14-1.25-.31-.23-.62-.47-.31-.86.23-.39.55.08.78.16,1.95.78,3.9,1.33,6.09.55.7-.23,1.41-.16,2.19-.08,1.09-.31,2.11.08,3.12.23M23.84,16.17c0,.23.08.39.23.47.08.16.16.31.31.47,0,.31.23.55.39.78.31.55.39,1.09.47,1.72.16,15.15.62,17.65.78,32.72,0,.62,0,1.02-.78.62-.55-.31-1.17-.47-1.8-.62-.23-.31-.08-.62-.08-.94,0-3.12-.08-6.25-.08-9.37-.08-11.4-.39-10.15-.39-21.55,0-1.87-.16-3.83.08-5.7.31.47.55.94.86,1.41"/>
    <path class="st9" d="M20.71,74.43c.08.55.39,1.02,1.02,1.09-.47-.62-.78-1.17-.23-1.87.47-.7,1.25-.47,1.95-.78-.78-.47-1.33-.47-1.95-.08-.62.39-.86.94-.78,1.64"/>
  </g>
</svg>