<?xml version="1.0" encoding="UTF-8"?>
<svg id="Layer_1" xmlns="http://www.w3.org/2000/svg" version="1.1" viewBox="0 0 109.6 176.97">
  <!-- Generator: Adobe Illustrator 30.2.1, SVG Export Plug-In . SVG Version: 2.1.1 Build 1)  -->
  <defs>
    <style>
      .st0 {
        stroke: #fddb00;
      }

      .st0, .st1, .st2, .st3, .st4, .st5 {
        fill: none;
      }

      .st0, .st1, .st5 {
        stroke-linecap: round;
        stroke-linejoin: round;
        stroke-width: .62px;
      }

      .st6 {
        fill: #0e80c3;
      }

      .st1 {
        stroke: #0e80c3;
      }

      .st7 {
        fill: #1d1c1a;
      }

      .st2 {
        stroke-width: .78px;
      }

      .st2, .st3, .st4 {
        stroke: #1d1c1a;
        stroke-miterlimit: 10;
      }

      .st3 {
        stroke-width: 1.17px;
      }

      .st4 {
        stroke-width: 1.26px;
      }

      .st8 {
        fill: #d81f26;
      }

      .st9 {
        fill: #fff;
      }

      .st5 {
        stroke: #d81f26;
      }

      .st10 {
        fill: #fddb00;
      }
    </style>
  </defs>
  <rect class="st9" x="-.36" y="-.18" width="110.69" height="177.1"/>
  <g>
    <path class="st7" d="M9.26,15.89c.16-.08.31-.08.39-.16s.16-.16.23-.23c.08-.08.08-.23.08-.31v-1.56h-3.59v-.78l4.14-6.01h1.56v5.86h.23c.23,0,.39,0,.47-.08.08,0,.16-.08.23-.16.08-.08.16-.23.16-.47h.7l-.08,1.56h-1.72v1.64c0,.16.08.23.08.31.08.08.16.16.23.16.08.08.23.08.39.16v.47h-3.51v-.39ZM7.69,12.69h2.34v-1.56c0-.62,0-1.33.08-2.11h-.08l-2.34,3.59v.08Z"/>
    <path class="st7" d="M100.71,161.38c-.16.08-.31.08-.39.16l-.23.23c-.08.08-.08.23-.08.31v1.56h3.67v.78l-4.14,6.01h-1.56v-5.86h-.23c-.23,0-.39,0-.47.08-.08,0-.16.08-.23.16-.08.08-.16.23-.16.47h-.7l.08-1.56h1.72v-1.56c0-.16-.08-.23-.08-.31-.08-.08-.16-.16-.23-.16-.08-.08-.23-.08-.39-.16v-.47h3.51v.31h-.08ZM102.35,164.51h-2.34v1.56c0,.7,0,1.33-.08,2.11h.08l2.34-3.59v-.08Z"/>
    <polygon class="st4" points="81.57 171.46 63.77 171.46 48.7 171.46 30.89 171.46 19.41 171.46 3.87 171.46 3.87 5.27 18.86 5.27 30.89 5.27 48.7 5.27 63.77 5.27 81.57 5.27 92.19 5.27 106.1 5.27 106.1 171.46 91.96 171.46 81.57 171.46"/>
    <path class="st10" d="M82.67,159.51c-10.31,0-18.66-8.36-18.66-18.66s8.36-18.66,18.66-18.66,18.66,8.36,18.66,18.66-8.36,18.66-18.66,18.66"/>
    <path class="st3" d="M82.67,159.51c-10.31,0-18.66-8.36-18.66-18.66s8.36-18.66,18.66-18.66,18.66,8.36,18.66,18.66-8.36,18.66-18.66,18.66Z"/>
    <path class="st2" d="M82.67,155.84c-8.28,0-14.99-6.72-14.99-14.99s6.72-14.99,14.99-14.99,14.99,6.72,14.99,14.99-6.72,14.99-14.99,14.99Z"/>
    <path class="st7" d="M82.59,148.97c-4.45,0-8.12-3.59-8.12-8.12s3.59-8.12,8.12-8.12,8.12,3.59,8.12,8.12-3.59,8.12-8.12,8.12M97.19,140.69l-5.7-1.72,4.53-3.9-5.94.62,2.73-5.31-5.23,2.81.47-5.94-3.75,4.61-1.8-5.7-1.72,5.7-3.83-4.53.55,5.94-5.31-2.73,2.81,5.23-5.94-.47,4.61,3.75-5.62,1.87,5.7,1.72-4.53,3.9,5.94-.62-2.73,5.31,5.23-2.81-.47,5.94,3.75-4.61,1.8,5.7,1.72-5.7,3.83,4.53-.55-5.94,5.31,2.73-2.81-5.23,5.94.47-4.61-3.75,5.62-1.87Z"/>
    <path class="st7" d="M81.34,139.52s-.86-3.9-3.28-5.54c-1.72,1.48-2.11,1.95-2.11,1.95,0,0,1.95,2.42,5.39,3.59"/>
    <path class="st7" d="M83.76,142.33s.86,3.98,3.28,5.54c1.72-1.48,2.11-1.95,2.11-1.95,0,0-1.95-2.42-5.39-3.59"/>
    <path class="st7" d="M81.42,142.33s-3.9.86-5.54,3.28c1.48,1.72,1.95,2.11,1.95,2.11,0,0,2.42-1.95,3.59-5.39"/>
    <path class="st7" d="M84.07,139.67s3.9-.86,5.54-3.28c-1.48-1.72-1.95-2.11-1.95-2.11,0,0-2.42,1.95-3.59,5.39"/>
    <path class="st7" d="M90.24,143.58s-2.34-1.87-3.36-2.19c2.19-1.17,2.97-1.87,3.51-2.42.47,2.5.08,3.83-.16,4.61M90.32,137.8l-.39.23c-.55.7-1.17,1.02-4.92,3.2,1.87.31,4.92,3.36,4.92,3.36,2.19-3.05.39-6.79.39-6.79"/>
    <path class="st7" d="M75.09,138.58s2.26,1.87,3.2,2.26c-2.11,1.17-2.89,1.95-3.36,2.42-.47-2.5-.08-3.83.16-4.69M75.01,144.44l.39-.23c.55-.7,1.09-1.02,4.69-3.2-1.8-.31-4.92-3.75-4.92-3.75-2.11,3.12-.16,7.18-.16,7.18"/>
    <path class="st7" d="M85.17,133.19s-1.87,2.26-2.26,3.2c-1.17-2.11-1.95-2.89-2.42-3.36,2.58-.47,3.9-.08,4.69.16M79.31,133.11l.23.39c.7.55,1.02,1.09,3.2,4.69.31-1.8,3.44-4.69,3.44-4.69-3.05-2.11-6.87-.39-6.87-.39"/>
    <path class="st7" d="M80.4,148.97s1.87-2.03,2.26-2.89c1.17,1.87,1.95,2.58,2.42,3.05-2.58.39-3.83.08-4.69-.16M86.26,149.05l-.23-.31c-.7-.47-1.02-1.02-3.2-4.22-.31,1.56-3.44,4.22-3.44,4.22,3.12,1.87,6.87.31,6.87.31"/>
    <path class="st10" d="M82.67,52.68c-10.31,0-18.66-8.36-18.66-18.66s8.36-18.66,18.66-18.66,18.66,8.36,18.66,18.66-8.36,18.66-18.66,18.66"/>
    <path class="st3" d="M82.67,52.68c-10.31,0-18.66-8.36-18.66-18.66s8.36-18.66,18.66-18.66,18.66,8.36,18.66,18.66-8.36,18.66-18.66,18.66Z"/>
    <path class="st2" d="M82.67,49c-8.28,0-14.99-6.72-14.99-14.99s6.72-14.99,14.99-14.99,14.99,6.72,14.99,14.99-6.72,14.99-14.99,14.99Z"/>
    <path class="st7" d="M82.59,42.13c-4.45,0-8.12-3.59-8.12-8.12s3.59-8.12,8.12-8.12,8.12,3.59,8.12,8.12-3.59,8.12-8.12,8.12M97.19,33.85l-5.7-1.72,4.53-3.9-5.94.62,2.73-5.31-5.23,2.81.47-5.94-3.75,4.61-1.8-5.7-1.72,5.7-3.83-4.53.55,5.94-5.31-2.73,2.81,5.23-5.94-.47,4.61,3.75-5.62,1.95,5.7,1.72-4.53,3.9,5.94-.62-2.73,5.31,5.23-2.81-.47,5.94,3.75-4.61,1.8,5.7,1.72-5.7,3.83,4.53-.55-5.94,5.31,2.73-2.81-5.23,5.94.47-4.61-3.75,5.62-1.95Z"/>
    <path class="st7" d="M81.34,32.68s-.86-3.9-3.28-5.54c-1.72,1.48-2.11,1.95-2.11,1.95,0,0,1.95,2.42,5.39,3.59"/>
    <path class="st7" d="M83.76,35.49s.86,3.98,3.28,5.54c1.72-1.48,2.11-1.95,2.11-1.95,0,0-1.95-2.42-5.39-3.59"/>
    <path class="st7" d="M81.42,35.49s-3.9.86-5.54,3.28c1.48,1.72,1.95,2.11,1.95,2.11,0,0,2.42-1.95,3.59-5.39"/>
    <path class="st7" d="M84.07,32.84s3.9-.86,5.54-3.28c-1.48-1.72-1.95-2.11-1.95-2.11,0,0-2.42,1.95-3.59,5.39"/>
    <path class="st7" d="M90.24,36.74s-2.34-1.87-3.36-2.19c2.19-1.17,2.97-1.87,3.51-2.42.47,2.5.08,3.75-.16,4.61M90.32,30.96l-.39.23c-.55.7-1.17,1.02-4.92,3.2,1.87.31,4.92,3.36,4.92,3.36,2.19-3.05.39-6.79.39-6.79"/>
    <path class="st7" d="M75.09,31.75s2.26,1.87,3.2,2.26c-2.11,1.17-2.89,1.95-3.36,2.42-.47-2.58-.08-3.83.16-4.69M75.01,37.6l.39-.23c.55-.7,1.09-1.02,4.69-3.2-1.8-.31-4.92-3.75-4.92-3.75-2.11,3.12-.16,7.18-.16,7.18"/>
    <path class="st7" d="M85.17,26.36s-1.87,2.26-2.26,3.2c-1.17-2.11-1.95-2.89-2.42-3.36,2.58-.47,3.9-.08,4.69.16M79.31,26.28l.23.39c.7.55,1.02,1.09,3.2,4.69.31-1.8,3.44-4.69,3.44-4.69-3.05-2.11-6.87-.39-6.87-.39"/>
    <path class="st7" d="M80.4,42.13s1.87-2.03,2.26-2.89c1.17,1.87,1.95,2.58,2.42,3.05-2.58.39-3.83.08-4.69-.16M86.26,42.21l-.23-.31c-.7-.47-1.02-1.02-3.2-4.22-.31,1.56-3.44,4.22-3.44,4.22,3.12,1.8,6.87.31,6.87.31"/>
    <path class="st10" d="M28.55,159.51c-10.31,0-18.66-8.36-18.66-18.66s8.36-18.66,18.66-18.66,18.66,8.36,18.66,18.66-8.36,18.66-18.66,18.66"/>
    <path class="st3" d="M28.55,159.51c-10.31,0-18.66-8.36-18.66-18.66s8.36-18.66,18.66-18.66,18.66,8.36,18.66,18.66-8.36,18.66-18.66,18.66Z"/>
    <path class="st2" d="M28.55,155.84c-8.28,0-14.99-6.72-14.99-14.99s6.72-14.99,14.99-14.99,14.99,6.72,14.99,14.99-6.72,14.99-14.99,14.99Z"/>
    <path class="st7" d="M28.47,148.97c-4.45,0-8.12-3.59-8.12-8.12s3.59-8.12,8.12-8.12,8.12,3.59,8.12,8.12-3.59,8.12-8.12,8.12M43.07,140.69l-5.7-1.72,4.53-3.9-5.94.62,2.73-5.31-5.23,2.81.47-5.94-3.75,4.61-1.8-5.7-1.72,5.7-3.83-4.53.55,5.94-5.31-2.73,2.81,5.23-5.94-.47,4.61,3.75-5.62,1.87,5.7,1.72-4.53,3.9,5.94-.62-2.73,5.31,5.23-2.81-.47,5.94,3.75-4.61,1.8,5.7,1.72-5.7,3.83,4.53-.55-5.94,5.31,2.73-2.81-5.23,5.94.47-4.61-3.75,5.62-1.87Z"/>
    <path class="st7" d="M27.22,139.52s-.86-3.9-3.28-5.54c-1.72,1.48-2.11,1.95-2.11,1.95,0,0,1.95,2.42,5.39,3.59"/>
    <path class="st7" d="M29.64,142.33s.86,3.98,3.28,5.54c1.72-1.48,2.11-1.95,2.11-1.95,0,0-1.95-2.42-5.39-3.59"/>
    <path class="st7" d="M27.3,142.33s-3.9.86-5.54,3.28c1.48,1.72,1.95,2.11,1.95,2.11,0,0,2.42-1.95,3.59-5.39"/>
    <path class="st7" d="M29.95,139.67s3.9-.86,5.54-3.28c-1.48-1.72-1.95-2.11-1.95-2.11,0,0-2.42,1.95-3.59,5.39"/>
    <path class="st7" d="M36.12,143.58s-2.34-1.87-3.36-2.19c2.19-1.17,2.97-1.87,3.51-2.42.47,2.5.08,3.83-.16,4.61M36.2,137.8l-.39.23c-.55.7-1.17,1.02-4.92,3.2,1.87.31,4.92,3.36,4.92,3.36,2.11-3.05.39-6.79.39-6.79"/>
    <path class="st7" d="M20.97,138.58s2.26,1.87,3.2,2.26c-2.11,1.17-2.89,1.95-3.36,2.42-.47-2.5-.16-3.83.16-4.69M20.89,144.44l.39-.23c.55-.7,1.09-1.02,4.69-3.2-1.8-.31-4.92-3.75-4.92-3.75-2.11,3.12-.16,7.18-.16,7.18"/>
    <path class="st7" d="M31.05,133.19s-1.87,2.26-2.26,3.2c-1.17-2.11-1.95-2.89-2.42-3.36,2.58-.47,3.83-.08,4.69.16M25.19,133.11l.23.39c.7.55,1.02,1.09,3.2,4.69.31-1.8,3.44-4.69,3.44-4.69-3.05-2.11-6.87-.39-6.87-.39"/>
    <path class="st7" d="M26.28,148.97s1.87-2.03,2.26-2.89c1.17,1.87,1.95,2.58,2.42,3.05-2.58.39-3.83.08-4.69-.16M32.14,149.05l-.23-.31c-.7-.47-1.02-1.02-3.2-4.22-.31,1.56-3.44,4.22-3.44,4.22,3.05,1.87,6.87.31,6.87.31"/>
    <path class="st10" d="M28.55,52.68c-10.31,0-18.66-8.36-18.66-18.66S18.24,15.35,28.55,15.35s18.66,8.36,18.66,18.66-8.36,18.66-18.66,18.66"/>
    <path class="st3" d="M28.55,52.68c-10.31,0-18.66-8.36-18.66-18.66S18.24,15.35,28.55,15.35s18.66,8.36,18.66,18.66-8.36,18.66-18.66,18.66Z"/>
    <path class="st2" d="M28.55,49c-8.28,0-14.99-6.72-14.99-14.99s6.72-14.99,14.99-14.99,14.99,6.72,14.99,14.99-6.72,14.99-14.99,14.99Z"/>
    <path class="st7" d="M28.47,42.13c-4.45,0-8.12-3.59-8.12-8.12s3.59-8.12,8.12-8.12,8.12,3.59,8.12,8.12-3.59,8.12-8.12,8.12M43.07,33.85l-5.7-1.72,4.53-3.9-5.94.62,2.73-5.31-5.23,2.81.47-5.94-3.75,4.61-1.8-5.7-1.72,5.7-3.83-4.53.55,5.94-5.31-2.73,2.81,5.23-5.94-.47,4.61,3.75-5.62,1.95,5.7,1.72-4.53,3.9,5.94-.62-2.73,5.31,5.23-2.81-.47,5.94,3.75-4.61,1.8,5.7,1.72-5.7,3.83,4.53-.55-5.94,5.31,2.73-2.81-5.23,5.94.47-4.61-3.83,5.62-1.87Z"/>
    <path class="st7" d="M27.22,32.68s-.86-3.9-3.28-5.54c-1.72,1.48-2.11,1.95-2.11,1.95,0,0,1.95,2.42,5.39,3.59"/>
    <path class="st7" d="M29.64,35.49s.86,3.98,3.28,5.54c1.72-1.48,2.11-1.95,2.11-1.95,0,0-1.95-2.42-5.39-3.59"/>
    <path class="st7" d="M27.3,35.49s-3.9.86-5.54,3.28c1.48,1.72,1.95,2.11,1.95,2.11,0,0,2.42-1.95,3.59-5.39"/>
    <path class="st7" d="M29.95,32.84s3.9-.86,5.54-3.28c-1.48-1.72-1.95-2.11-1.95-2.11,0,0-2.42,1.95-3.59,5.39"/>
    <path class="st7" d="M36.12,36.74s-2.34-1.87-3.36-2.19c2.19-1.17,2.97-1.87,3.51-2.42.47,2.5.08,3.75-.16,4.61M36.2,30.96l-.39.23c-.55.7-1.17,1.02-4.92,3.2,1.87.31,4.92,3.36,4.92,3.36,2.11-3.05.39-6.79.39-6.79"/>
    <path class="st7" d="M20.97,31.75s2.26,1.87,3.2,2.26c-2.11,1.17-2.89,1.95-3.36,2.42-.47-2.58-.16-3.83.16-4.69M20.89,37.6l.39-.23c.55-.7,1.09-1.02,4.69-3.2-1.8-.31-4.92-3.75-4.92-3.75-2.11,3.12-.16,7.18-.16,7.18"/>
    <path class="st7" d="M31.05,26.36s-1.87,2.26-2.26,3.2c-1.17-2.11-1.95-2.89-2.42-3.36,2.58-.47,3.83-.08,4.69.16M25.19,26.28l.23.39c.7.55,1.02,1.09,3.2,4.69.31-1.8,3.44-4.69,3.44-4.69-3.05-2.11-6.87-.39-6.87-.39"/>
    <path class="st7" d="M26.28,42.13s1.87-2.03,2.26-2.89c1.17,1.87,1.95,2.58,2.42,3.05-2.58.39-3.83.08-4.69-.16M32.14,42.21l-.23-.31c-.7-.47-1.02-1.02-3.2-4.22-.31,1.56-3.44,4.22-3.44,4.22,3.05,1.8,6.87.31,6.87.31"/>
    <path class="st8" d="M25.42,108.59v-.31c2.26-2.73,4.61-5.47,6.87-8.2.23-.31.39-.78.86-.7.31.08.7,1.48.47,1.8-1.48,2.03-3.05,4.06-4.53,6.09-.16.23-.39.23-.62.23-.86.16-1.48.55-1.87,1.41q-.08,0-.16.08c-.31-.16-.62-.23-1.02-.39"/>
    <path class="st5" d="M25.42,108.59v-.31c2.26-2.73,4.61-5.47,6.87-8.2.23-.31.39-.78.86-.7.31.08.7,1.48.47,1.8-1.48,2.03-3.05,4.06-4.53,6.09-.16.23-.39.23-.62.23-.86.16-1.48.55-1.87,1.41q-.08,0-.16.08c-.31-.16-.62-.23-1.02-.39Z"/>
    <path class="st8" d="M84.07,109.14s0,.08,0,0c-.16.16-.31.23-.47.39h-.08c-.23-.55-.7-.94-1.25-1.09-2.89-1.17-5.47-2.97-8.2-4.45-.7-.39-.23-.86-.16-1.25.16-.55.47-.31.78-.16,2.97,1.56,5.94,3.12,8.82,4.69.31.16.47.39.47.78,0,.31,0,.7.08,1.09"/>
    <path class="st5" d="M84.07,109.14s0,.08,0,0c-.16.16-.31.23-.47.39h-.08c-.23-.55-.7-.94-1.25-1.09-2.89-1.17-5.47-2.97-8.2-4.45-.7-.39-.23-.86-.16-1.25.16-.55.47-.31.78-.16,2.97,1.56,5.94,3.12,8.82,4.69.31.16.47.39.47.78,0,.31,0,.7.08,1.09Z"/>
    <path class="st6" d="M52.91,99.77c.23.31.39.47.62.7h-.62c-2.73-.47-4.84-2.11-6.64-4.14-.86-.94-1.56-1.87-2.11-3.05-.94-2.03-.62-4.06-.23-6.17.55-2.66,1.95-4.61,3.83-6.33,3.36-3.05,7.11-3.05,11.01-1.41,2.19.94,4.14,2.19,5.31,4.37q.23.39.31,1.02c-.7-.23-.78-1.17-1.48-1.41-.16.39.16.62.23.86.23.47.78.94.08,1.48-.16.16,0,.39,0,.55.94,3.05.78,6.01-1.02,8.75-.16.23-.39.47,0,.78.31.23,0,.47-.16.62-1.33,1.72-3.2,2.58-5.31,3.05-1.02.23-2.26.47-3.83.31M61.58,86.02c-.31-.47-.78-.55-1.17-.55-1.09-.08-2.11,0-3.12.31-.55.16-.94.55-1.17,1.09-.39.86-.16,1.95-.7,2.73-.08.16,0,.39.16.55.23.39.39.78.62,1.17.31.47.16.7-.23.94-1.09.62-1.56.55-2.66-.47-.16-.16-.23-.47-.55-.23-.16.16-.16.47-.08.62.16.23.23.47.47.62,1.17.94,2.19,1.02,3.51.16.7-.39.78-.94.55-1.64-.16-.39-.31-.78-.47-1.25-.31-1.17.08-2.81.78-3.12.78-.39,1.56-.78,2.42-.7.39.08,1.02,0,1.64-.23M50.57,86.96c-.55.08-1.02,0-1.48.23-.23.08-.47.23-.47.47,0,.31.31.31.47.39.55.16.86.55.86,1.02.08.7.55,1.09,1.02,1.41.39.23.7-.47,1.02-.78.16-.08.23-.23.31-.39.62-.86.23-2.03-.78-2.26-.31-.08-.62-.08-.94-.08M58.77,89.69c.23-.16.78.16.7-.23-.31-1.17.47-.94,1.09-.94.23,0,.55-.08.62-.39.08-.31-.23-.39-.39-.55-.94-.7-2.66-.86-3.51-.16-.47.39-.55.94-.16,1.41.47.55.94.94,1.64.86M53.85,94.69c-.62-.16-1.48.23-2.42.23-.16,0-.39.08-.39.23-.08.16.08.39.23.39.94.31,1.87.78,2.89.47.62-.23,1.25-.31,1.87-.08.7.23,1.41-.08,2.11-.16.23-.08.55-.23.47-.55-.08-.31-.39-.31-.62-.16-.31.16-.7.16-1.02.08-.94-.31-1.87-.39-3.12-.47M50.34,85.24c-.31,0-.47-.08-.62,0-.16,0-.39,0-.39.23-.08.31.23.31.39.31.86.08,1.48.78,2.34,1.02.62.16,1.02.55.94,1.25,0,.31.08.55.47.31.55-.47.39-2.11-.31-2.34-1.02-.39-1.87-.94-2.81-.78M53.62,96.88c.86.94,1.48,1.09,2.19.55.23-.16.47-.39.39-.7s-.39-.31-.62-.23c-.62.08-1.25.23-1.95.39"/>
    <path class="st1" d="M52.91,99.77c.23.31.39.47.62.7h-.62c-2.73-.47-4.84-2.11-6.64-4.14-.86-.94-1.56-1.87-2.11-3.05-.94-2.03-.62-4.06-.23-6.17.55-2.66,1.95-4.61,3.83-6.33,3.36-3.05,7.11-3.05,11.01-1.41,2.19.94,4.14,2.19,5.31,4.37q.23.39.31,1.02c-.7-.23-.78-1.17-1.48-1.41-.16.39.16.62.23.86.23.47.78.94.08,1.48-.16.16,0,.39,0,.55.94,3.05.78,6.01-1.02,8.75-.16.23-.39.47,0,.78.31.23,0,.47-.16.62-1.33,1.72-3.2,2.58-5.31,3.05-1.02.23-2.26.47-3.83.31ZM61.58,86.02c-.31-.47-.78-.55-1.17-.55-1.09-.08-2.11,0-3.12.31-.55.16-.94.55-1.17,1.09-.39.86-.16,1.95-.7,2.73-.08.16,0,.39.16.55.23.39.39.78.62,1.17.31.47.16.7-.23.94-1.09.62-1.56.55-2.66-.47-.16-.16-.23-.47-.55-.23-.16.16-.16.47-.08.62.16.23.23.47.47.62,1.17.94,2.19,1.02,3.51.16.7-.39.78-.94.55-1.64-.16-.39-.31-.78-.47-1.25-.31-1.17.08-2.81.78-3.12.78-.39,1.56-.78,2.42-.7.39.08,1.02,0,1.64-.23ZM50.57,86.96c-.55.08-1.02,0-1.48.23-.23.08-.47.23-.47.47,0,.31.31.31.47.39.55.16.86.55.86,1.02.08.7.55,1.09,1.02,1.41.39.23.7-.47,1.02-.78.16-.08.23-.23.31-.39.62-.86.23-2.03-.78-2.26-.31-.08-.62-.08-.94-.08ZM58.77,89.69c.23-.16.78.16.7-.23-.31-1.17.47-.94,1.09-.94.23,0,.55-.08.62-.39.08-.31-.23-.39-.39-.55-.94-.7-2.66-.86-3.51-.16-.47.39-.55.94-.16,1.41.47.55.94.94,1.64.86ZM53.85,94.69c-.62-.16-1.48.23-2.42.23-.16,0-.39.08-.39.23-.08.16.08.39.23.39.94.31,1.87.78,2.89.47.62-.23,1.25-.31,1.87-.08.7.23,1.41-.08,2.11-.16.23-.08.55-.23.47-.55-.08-.31-.39-.31-.62-.16-.31.16-.7.16-1.02.08-.94-.31-1.87-.39-3.12-.47ZM50.34,85.24c-.31,0-.47-.08-.62,0-.16,0-.39,0-.39.23-.08.31.23.31.39.31.86.08,1.48.78,2.34,1.02.62.16,1.02.55.94,1.25,0,.31.08.55.47.31.55-.47.39-2.11-.31-2.34-1.02-.39-1.87-.94-2.81-.78ZM53.62,96.88c.86.94,1.48,1.09,2.19.55.23-.16.47-.39.39-.7s-.39-.31-.62-.23c-.62.08-1.25.23-1.95.39Z"/>
    <path class="st10" d="M22.77,84.38c-.39-1.02.16-1.87.47-2.73,1.17-3.12,3.51-5.23,6.17-7.03,4.69-3.2,9.92-4.61,15.46-4.53,4.84.08,9.68.47,14.6.55,4.76,0,9.37.47,13.98,1.72,4.53,1.25,8.43,3.28,10.93,7.58,1.02,1.72,1.72,3.51,2.19,5.39-.62-.16-1.33-.47-2.03-.23-.31.08-.31-.23-.39-.47-1.09-2.66-2.5-5.23-4.61-7.26-2.03-1.95-4.61-3.05-7.26-3.83s-5.39-1.09-8.12-1.25c-5-.31-9.92-.47-14.92-.62-4.06-.08-8.2,0-12.1,1.17-5,1.48-9.06,4.3-11.71,8.9-.08.16-.23.31-.23.47-.39,1.33-1.02,2.26-2.42,2.19"/>
    <path class="st0" d="M22.77,84.38c-.39-1.02.16-1.87.47-2.73,1.17-3.12,3.51-5.23,6.17-7.03,4.69-3.2,9.92-4.61,15.46-4.53,4.84.08,9.68.47,14.6.55,4.76,0,9.37.47,13.98,1.72,4.53,1.25,8.43,3.28,10.93,7.58,1.02,1.72,1.72,3.51,2.19,5.39-.62-.16-1.33-.47-2.03-.23-.31.08-.31-.23-.39-.47-1.09-2.66-2.5-5.23-4.61-7.26-2.03-1.95-4.61-3.05-7.26-3.83s-5.39-1.09-8.12-1.25c-5-.31-9.92-.47-14.92-.62-4.06-.08-8.2,0-12.1,1.17-5,1.48-9.06,4.3-11.71,8.9-.08.16-.23.31-.23.47-.39,1.33-1.02,2.26-2.42,2.19Z"/>
    <path class="st10" d="M51.12,110.23c.78-.39,1.09,0,1.25.78.31,1.25.78,2.5,1.25,3.9.47-1.64.94-3.12,1.41-4.53.08-.23,0-.86.47-.62.47.16,1.25.08,1.33.86.08.47.16,1.02.31,1.41.47,2.11,1.72,3.75,3.36,5.08.39.31.78.62,1.33,1.02-1.41.7-2.81.55-4.14.16-.7-.23-1.02-.16-1.33.62-.62,2.03-1.33,3.98-2.26,5.86-.08.23-.23.39-.39.7-.7-1.09-1.02-2.26-1.33-3.44-.31-1.02-.7-1.95-.86-3.05-.08-.31-.31-.31-.62-.31-.94-.08-1.8.23-2.73.23-.55,0-1.02-.16-1.56-.23-.39-.08-.7-.31-.31-.78,2.11-2.26,3.75-4.84,4.84-7.65"/>
    <path class="st0" d="M51.12,110.23c.78-.39,1.09,0,1.25.78.31,1.25.78,2.5,1.25,3.9.47-1.64.94-3.12,1.41-4.53.08-.23,0-.86.47-.62.47.16,1.25.08,1.33.86.08.47.16,1.02.31,1.41.47,2.11,1.72,3.75,3.36,5.08.39.31.78.62,1.33,1.02-1.41.7-2.81.55-4.14.16-.7-.23-1.02-.16-1.33.62-.62,2.03-1.33,3.98-2.26,5.86-.08.23-.23.39-.39.7-.7-1.09-1.02-2.26-1.33-3.44-.31-1.02-.7-1.95-.86-3.05-.08-.31-.31-.31-.62-.31-.94-.08-1.8.23-2.73.23-.55,0-1.02-.16-1.56-.23-.39-.08-.7-.31-.31-.78,2.11-2.26,3.75-4.84,4.84-7.65Z"/>
    <path class="st10" d="M85.56,90.32c-.31,1.17-1.02,2.11-1.95,2.81-2.5,1.95-4.92,3.98-7.42,5.78-1.8,1.33-3.2,2.81-3.59,5.15-.47,2.97.86,5.15,3.67,5.94.62.16,1.25.23,1.87.39.23.08.47.08.47.39v.16c0,.08.08.23.08.31.23.7,0,1.02-.78,1.09-1.33.23-2.66.39-3.9-.39-1.8-1.17-3.12-2.66-3.9-4.69-1.41-3.51.16-6.09,2.42-8.43,1.72-1.72,3.75-3.05,5.62-4.61,1.72-1.48,3.59-2.89,5-4.69.78.55,1.56.78,2.42.78"/>
    <path class="st0" d="M85.56,90.32c-.31,1.17-1.02,2.11-1.95,2.81-2.5,1.95-4.92,3.98-7.42,5.78-1.8,1.33-3.2,2.81-3.59,5.15-.47,2.97.86,5.15,3.67,5.94.62.16,1.25.23,1.87.39.23.08.47.08.47.39v.16c0,.08.08.23.08.31.23.7,0,1.02-.78,1.09-1.33.23-2.66.39-3.9-.39-1.8-1.17-3.12-2.66-3.9-4.69-1.41-3.51.16-6.09,2.42-8.43,1.72-1.72,3.75-3.05,5.62-4.61,1.72-1.48,3.59-2.89,5-4.69.78.55,1.56.78,2.42.78Z"/>
    <path class="st6" d="M32.22,111.79c1.8-.78,3.36-1.72,4.61-3.12.23-.23.47-.16.7-.08,5,.62,9.92.47,14.68-1.25,1.41-.47,2.5-.47,3.83,0,3.98,1.33,7.97,2.58,12.18,2.26,1.48-.08,2.58.08,3.36,1.41.23.39.62.55,1.02.86.31.23.62.47,1.09.78-1.87.16-3.59-.08-5.31-.31-4.53-.7-8.82-2.03-13.04-3.75-.62-.23-1.17-.23-1.8-.08-3.28.86-6.48,2.11-9.92,2.81-3.36.7-6.79,1.17-10.31.78-.31-.16-.7-.23-1.09-.31"/>
    <path class="st1" d="M32.22,111.79c1.8-.78,3.36-1.72,4.61-3.12.23-.23.47-.16.7-.08,5,.62,9.92.47,14.68-1.25,1.41-.47,2.5-.47,3.83,0,3.98,1.33,7.97,2.58,12.18,2.26,1.48-.08,2.58.08,3.36,1.41.23.39.62.55,1.02.86.31.23.62.47,1.09.78-1.87.16-3.59-.08-5.31-.31-4.53-.7-8.82-2.03-13.04-3.75-.62-.23-1.17-.23-1.8-.08-3.28.86-6.48,2.11-9.92,2.81-3.36.7-6.79,1.17-10.31.78-.31-.16-.7-.23-1.09-.31Z"/>
    <path class="st10" d="M31.59,108.98c4.22-2.89,4.53-8.43.86-11.95-2.03-1.95-4.3-3.44-6.48-5.08-.94-.7-1.95-1.48-2.58-2.5.39,0,.86.08,1.17-.16.7-.39,1.09-.08,1.56.39,1.48,1.41,3.2,2.58,5,3.59,1.95,1.09,3.67,2.5,5.08,4.37,1.72,2.34,2.19,5.08,1.64,7.81-.47,2.42-2.26,3.9-4.45,4.92q-1.72.78-1.64-1.09c-.16-.08-.16-.23-.16-.31"/>
    <path class="st0" d="M31.59,108.98c4.22-2.89,4.53-8.43.86-11.95-2.03-1.95-4.3-3.44-6.48-5.08-.94-.7-1.95-1.48-2.58-2.5.39,0,.86.08,1.17-.16.7-.39,1.09-.08,1.56.39,1.48,1.41,3.2,2.58,5,3.59,1.95,1.09,3.67,2.5,5.08,4.37,1.72,2.34,2.19,5.08,1.64,7.81-.47,2.42-2.26,3.9-4.45,4.92q-1.72.78-1.64-1.09c-.16-.08-.16-.23-.16-.31Z"/>
    <path class="st6" d="M41.28,107.03c4.3-.08,8.43-.23,12.34-1.64.39-.16.7-.08,1.09.08,3.28,1.09,6.64,1.87,10.07,2.34,1.33.16,2.66.31,3.98.31.23,0,.47,0,.7.08s.39.16.39.39-.23.16-.39.23c-1.17.23-2.42.16-3.59.08-3.59-.39-7.11-1.41-10.54-2.58-.86-.31-1.64-.23-2.5.08-4.76,1.87-9.68,2.19-14.68,1.56-.16,0-.47,0-.39-.31s.08-.78.62-.7c1.02,0,2.03.08,2.89.08"/>
    <path class="st1" d="M41.28,107.03c4.3-.08,8.43-.23,12.34-1.64.39-.16.7-.08,1.09.08,3.28,1.09,6.64,1.87,10.07,2.34,1.33.16,2.66.31,3.98.31.23,0,.47,0,.7.08s.39.16.39.39-.23.16-.39.23c-1.17.23-2.42.16-3.59.08-3.59-.39-7.11-1.41-10.54-2.58-.86-.31-1.64-.23-2.5.08-4.76,1.87-9.68,2.19-14.68,1.56-.16,0-.47,0-.39-.31s.08-.78.62-.7c1.02,0,2.03.08,2.89.08Z"/>
    <path class="st6" d="M67.67,107.42c-4.06-.31-8.2-1.09-12.18-2.42-.94-.31-1.8-.39-2.73,0-3.12,1.09-6.4,1.25-9.68,1.41-1.33.08-2.73,0-4.06-.08-.23,0-.55.08-.55-.39.08-.31.16-.55.55-.47.86.08,1.64.08,2.5.08,3.75,0,7.5-.08,11.01-1.56,1.56-.62,2.73-.08,3.98.39,3.83,1.33,7.73,2.34,11.79,2.11.7-.08.78.39.86.86,0,.62-.55.16-.78.23-.16-.16-.31-.16-.7-.16"/>
    <path class="st1" d="M67.67,107.42c-4.06-.31-8.2-1.09-12.18-2.42-.94-.31-1.8-.39-2.73,0-3.12,1.09-6.4,1.25-9.68,1.41-1.33.08-2.73,0-4.06-.08-.23,0-.55.08-.55-.39.08-.31.16-.55.55-.47.86.08,1.64.08,2.5.08,3.75,0,7.5-.08,11.01-1.56,1.56-.62,2.73-.08,3.98.39,3.83,1.33,7.73,2.34,11.79,2.11.7-.08.78.39.86.86,0,.62-.55.16-.78.23-.16-.16-.31-.16-.7-.16Z"/>
    <path class="st10" d="M22.61,88.37c-.7-.78-.86-1.56-.55-2.58.08-.08.08-.16.16-.23h0c0-.08.08-.08.08-.16.08-.08.16-.23.23-.31.62-.08,1.25-.39,1.95,0,.94.47,1.41,1.72.86,2.66-.47,1.02-1.72,1.25-2.73.62"/>
    <path class="st0" d="M22.61,88.37c-.7-.78-.86-1.56-.55-2.58.08-.08.08-.16.16-.23h0c0-.08.08-.08.08-.16.08-.08.16-.23.23-.31.62-.08,1.25-.39,1.95,0,.94.47,1.41,1.72.86,2.66-.47,1.02-1.72,1.25-2.73.62Z"/>
    <path class="st10" d="M86.73,86.65c.47,1.33.31,1.87-.7,2.73-1.17.31-1.87.08-2.42-.62-.47-.7-.47-1.41-.08-2.11.62-.94,2.11-1.41,3.2,0"/>
    <path class="st0" d="M86.73,86.65c.47,1.33.31,1.87-.7,2.73-1.17.31-1.87.08-2.42-.62-.47-.7-.47-1.41-.08-2.11.62-.94,2.11-1.41,3.2,0Z"/>
    <path class="st10" d="M79.39,110.23c.94-1.56,2.11-1.8,3.36-.55.94,1.64-.47,3.12-1.64,3.05-1.09-.16-1.87-1.25-1.72-2.5M80.48,110.15c-.47.31-.47.7-.39,1.09.08.31.31.62.86.62-.31-.47-.47-1.02-.47-1.72"/>
    <path class="st0" d="M79.39,110.23c.94-1.56,2.11-1.8,3.36-.55.94,1.64-.47,3.12-1.64,3.05-1.09-.16-1.87-1.25-1.72-2.5ZM80.48,110.15c-.47.31-.47.7-.39,1.09.08.31.31.62.86.62-.31-.47-.47-1.02-.47-1.72Z"/>
    <path class="st10" d="M27.3,109.14c1.17-1.17,1.87-1.17,3.12-.16.08.08.08.16.16.16h0c.47,1.72-.39,3.05-1.95,2.81-1.33-.16-1.8-1.25-1.33-2.81M28.47,111.33c-.39-.7-.08-1.41.31-2.26-1.33.86-1.41,1.48-.31,2.26"/>
    <path class="st0" d="M27.3,109.14c1.17-1.17,1.87-1.17,3.12-.16.08.08.08.16.16.16h0c.47,1.72-.39,3.05-1.95,2.81-1.33-.16-1.8-1.25-1.33-2.81ZM28.47,111.33c-.39-.7-.08-1.41.31-2.26-1.33.86-1.41,1.48-.31,2.26Z"/>
    <path class="st10" d="M46.98,58.92q-.08-.08-.16-.16c0-.31-.08-.55-.47-.47-.16-.16-.31-.31-.39-.39.16-.39-.08-.47-.39-.47h0c0-.16-.08-.23-.16-.16h0c0-.16-.08-.23-.23-.23-.55-.39-.86-.94-1.41-1.25-.16-.08-.31-.23-.23-.39.08-.16.31-.23.47-.23,1.02-.23,2.03-.23,2.97-.08.39.08.7.08,1.25.08-1.25-1.33-1.41-2.73-1.09-4.37.23-1.17.23-2.34.39-3.75.86.62,1.64,1.25,2.5,1.95.23-2.03,1.25-3.59,2.42-5.15.47-.62.7-.47,1.09,0,1.56,1.8,2.5,3.9,2.73,6.4.94-.47,1.8-.94,2.73-1.25.62-.16.78-.08.7.62-.23,1.87-.55,3.75-.94,5.62-.16.7.08.7.62.7,1.17-.08,2.34,0,3.51.39.23.08.55.16.62.39.08.31-.31.39-.47.55-2.26,1.64-4.3,3.44-5.7,5.94-.31.55-.39.7-.39,1.56,2.19-1.41,4.45-2.26,7.03-2.5-.55.78-1.09,1.56-1.56,2.26-1.09,1.48-1.95,3.05-2.66,4.76-.23.55-.47.7-1.02.7-1.17-.08-2.34-.08-3.51-.16-.7,0-.86-.31-.47-1.02s.86-1.41,1.33-2.19c.08-.16.16-.23.08-.39,0,0,.08,0,.08-.08h-.08s0,.08-.08.08-.16.08-.23.08c-.47.23-.94,1.02-1.33.7-.39-.23-.16-1.02-.16-1.56,0-1.09-.31-2.11.08-3.2.31-.94.94-1.64,1.41-2.5.16-.31.39-.7.47-1.09-.47.39-.94.86-1.41,1.25-.16.16-.23.39-.47.31-.23-.08-.23-.39-.23-.62-.23-2.19.16-4.14,1.87-5.62.23-.16.39-.47.55-.7v-.23c-.7.23-1.33.7-1.87,1.17-.47.39-.55.16-.55-.23-.08-.94-.08-1.87-.16-2.81-.08-1.09-.16-2.19-.16-3.28h-.23c-.08.62-.16,1.25-.16,1.87v4.37c0,.23.08.55-.16.62-.23.16-.39-.23-.55-.31-.39-.23-.55-.94-1.25-.78.23.39.39.86.62,1.17,1.09,1.48,1.48,3.12,1.25,4.92,0,.16.08.39-.16.47-.23.08-.31-.08-.39-.23-.55-.62-1.02-1.25-1.64-1.8,1.41,2.73,2.89,5.47,1.95,8.9-1.25-2.34-2.89-4.14-4.69-5.78-.23-.86-.78-1.48-1.17-2.11-.16-.16-.23-.31-.39-.31"/>
    <path class="st0" d="M46.98,58.92q-.08-.08-.16-.16c0-.31-.08-.55-.47-.47-.16-.16-.31-.31-.39-.39.16-.39-.08-.47-.39-.47h0c0-.16-.08-.23-.16-.16h0c0-.16-.08-.23-.23-.23-.55-.39-.86-.94-1.41-1.25-.16-.08-.31-.23-.23-.39.08-.16.31-.23.47-.23,1.02-.23,2.03-.23,2.97-.08.39.08.7.08,1.25.08-1.25-1.33-1.41-2.73-1.09-4.37.23-1.17.23-2.34.39-3.75.86.62,1.64,1.25,2.5,1.95.23-2.03,1.25-3.59,2.42-5.15.47-.62.7-.47,1.09,0,1.56,1.8,2.5,3.9,2.73,6.4.94-.47,1.8-.94,2.73-1.25.62-.16.78-.08.7.62-.23,1.87-.55,3.75-.94,5.62-.16.7.08.7.62.7,1.17-.08,2.34,0,3.51.39.23.08.55.16.62.39.08.31-.31.39-.47.55-2.26,1.64-4.3,3.44-5.7,5.94-.31.55-.39.7-.39,1.56,2.19-1.41,4.45-2.26,7.03-2.5-.55.78-1.09,1.56-1.56,2.26-1.09,1.48-1.95,3.05-2.66,4.76-.23.55-.47.7-1.02.7-1.17-.08-2.34-.08-3.51-.16-.7,0-.86-.31-.47-1.02s.86-1.41,1.33-2.19c.08-.16.16-.23.08-.39,0,0,.08,0,.08-.08h-.08s0,.08-.08.08-.16.08-.23.08c-.47.23-.94,1.02-1.33.7-.39-.23-.16-1.02-.16-1.56,0-1.09-.31-2.11.08-3.2.31-.94.94-1.64,1.41-2.5.16-.31.39-.7.47-1.09-.47.39-.94.86-1.41,1.25-.16.16-.23.39-.47.31-.23-.08-.23-.39-.23-.62-.23-2.19.16-4.14,1.87-5.62.23-.16.39-.47.55-.7v-.23c-.7.23-1.33.7-1.87,1.17-.47.39-.55.16-.55-.23-.08-.94-.08-1.87-.16-2.81-.08-1.09-.16-2.19-.16-3.28h-.23c-.08.62-.16,1.25-.16,1.87v4.37c0,.23.08.55-.16.62-.23.16-.39-.23-.55-.31-.39-.23-.55-.94-1.25-.78.23.39.39.86.62,1.17,1.09,1.48,1.48,3.12,1.25,4.92,0,.16.08.39-.16.47-.23.08-.31-.08-.39-.23-.55-.62-1.02-1.25-1.64-1.8,1.41,2.73,2.89,5.47,1.95,8.9-1.25-2.34-2.89-4.14-4.69-5.78-.23-.86-.78-1.48-1.17-2.11-.16-.16-.23-.31-.39-.31Z"/>
    <path class="st10" d="M11.37,80.87c-.16-.39.16-.55.31-.78,3.36-4.22,6.56-8.59,10.23-12.57,2.03-2.19,4.14-4.22,7.18-4.92,3.28-.78,6.56-1.02,9.92-.7,1.41.16,2.89.16,4.3.31.16,0,.31.08.47.08,1.72.16,2.42.7,3.12,2.5-1.56-.16-3.12-.39-4.61-.55-3.2-.39-6.4,0-9.61.39-3.51.47-6.17,2.34-8.82,4.53-3.44,2.89-6.17,6.48-9.06,9.84-.55.62-1.17,1.33-1.64,2.03-.39.47-.62.7-1.09.16-.23-.16-.47-.23-.7-.31"/>
    <path class="st0" d="M11.37,80.87c-.16-.39.16-.55.31-.78,3.36-4.22,6.56-8.59,10.23-12.57,2.03-2.19,4.14-4.22,7.18-4.92,3.28-.78,6.56-1.02,9.92-.7,1.41.16,2.89.16,4.3.31.16,0,.31.08.47.08,1.72.16,2.42.7,3.12,2.5-1.56-.16-3.12-.39-4.61-.55-3.2-.39-6.4,0-9.61.39-3.51.47-6.17,2.34-8.82,4.53-3.44,2.89-6.17,6.48-9.06,9.84-.55.62-1.17,1.33-1.64,2.03-.39.47-.62.7-1.09.16-.23-.16-.47-.23-.7-.31Z"/>
    <path class="st10" d="M63.06,64.47c.62-1.25,1.64-1.33,2.89-1.25,2.58.16,5.08.23,7.65.31,6.48.31,11.64,3.12,15.62,8.36,1.95,2.58,3.67,5.39,5.7,7.89.86,1.09,1.72,2.19,2.66,3.12.31.31.47.55.08.94-.31.31-.55.78-.78,1.17-1.87-2.03-3.36-4.37-5-6.56-1.48-2.11-2.89-4.3-4.69-6.09-1.72-1.8-3.67-3.28-5.94-4.3-2.66-1.17-5.39-1.87-8.28-2.34-3.2-.55-6.4-.94-9.68-1.02-.08,0-.16-.08-.23-.23"/>
    <path class="st0" d="M63.06,64.47c.62-1.25,1.64-1.33,2.89-1.25,2.58.16,5.08.23,7.65.31,6.48.31,11.64,3.12,15.62,8.36,1.95,2.58,3.67,5.39,5.7,7.89.86,1.09,1.72,2.19,2.66,3.12.31.31.47.55.08.94-.31.31-.55.78-.78,1.17-1.87-2.03-3.36-4.37-5-6.56-1.48-2.11-2.89-4.3-4.69-6.09-1.72-1.8-3.67-3.28-5.94-4.3-2.66-1.17-5.39-1.87-8.28-2.34-3.2-.55-6.4-.94-9.68-1.02-.08,0-.16-.08-.23-.23Z"/>
    <path class="st10" d="M22.22,105.23c-.55,0-.86.86-1.41.62-.47-.23-.7-.7-1.09-1.09-2.19-2.19-4.76-3.98-7.34-5.78-1.64-1.17-3.36-2.34-4.45-4.14-1.09-1.72-1.48-3.51-.86-5.54.7-2.11,2.34-2.5,4.22-2.58.31.08.7.16,1.09.23-.7.86-1.25,1.72-1.64,2.73-.78,2.11-.47,4.06,1.09,5.78,1.48,1.64,3.28,2.89,5.08,4.14,2.19,1.48,3.98,3.36,5.31,5.62"/>
    <path class="st0" d="M22.22,105.23c-.55,0-.86.86-1.41.62-.47-.23-.7-.7-1.09-1.09-2.19-2.19-4.76-3.98-7.34-5.78-1.64-1.17-3.36-2.34-4.45-4.14-1.09-1.72-1.48-3.51-.86-5.54.7-2.11,2.34-2.5,4.22-2.58.31.08.7.16,1.09.23-.7.86-1.25,1.72-1.64,2.73-.78,2.11-.47,4.06,1.09,5.78,1.48,1.64,3.28,2.89,5.08,4.14,2.19,1.48,3.98,3.36,5.31,5.62Z"/>
    <path class="st10" d="M99.15,88.99c3.12,1.17,3.05,3.75,1.87,5.94-.7,1.25-1.56,2.34-2.81,3.2-2.73,1.95-5.47,3.83-7.89,6.25-.23.23-.47.47-.7.7-.39.47-.7,1.09-1.17,1.25-.39.16-.94-.39-1.41-.55-.16-.55.23-.86.47-1.25.86-1.33,2.11-2.34,3.36-3.2,2.11-1.48,4.22-2.97,5.94-4.92.55-.62,1.02-1.25,1.41-2.03.94-1.87.47-3.44-1.41-4.45.62-.7,1.17-.86,2.34-.94"/>
    <path class="st0" d="M99.15,88.99c3.12,1.17,3.05,3.75,1.87,5.94-.7,1.25-1.56,2.34-2.81,3.2-2.73,1.95-5.47,3.83-7.89,6.25-.23.23-.47.47-.7.7-.39.47-.7,1.09-1.17,1.25-.39.16-.94-.39-1.41-.55-.16-.55.23-.86.47-1.25.86-1.33,2.11-2.34,3.36-3.2,2.11-1.48,4.22-2.97,5.94-4.92.55-.62,1.02-1.25,1.41-2.03.94-1.87.47-3.44-1.41-4.45.62-.7,1.17-.86,2.34-.94Z"/>
    <path class="st8" d="M14.33,96.64c2.81-2.03,5.54-3.98,8.2-5.94.31-.23.55-.23.78.08.16.23.39.47.62.62.47.39.39.62,0,1.02-2.19,1.95-4.3,3.98-6.4,6.01-.31.31-.55.39-.86.08-.78-.55-1.56-1.09-2.34-1.87"/>
    <path class="st5" d="M14.33,96.64c2.81-2.03,5.54-3.98,8.2-5.94.31-.23.55-.23.78.08.16.23.39.47.62.62.47.39.39.62,0,1.02-2.19,1.95-4.3,3.98-6.4,6.01-.31.31-.55.39-.86.08-.78-.55-1.56-1.09-2.34-1.87Z"/>
    <path class="st8" d="M22.45,89.93c0,.23-.16.31-.31.47-2.58,1.87-5.15,3.67-7.73,5.54-.39.31-.62.23-.94-.08-.47-.55-.94-1.02-1.41-1.56-.31-.31-.31-.55.16-.78,3.05-1.56,6.01-3.2,9.06-4.76.16-.16,1.17.78,1.17,1.17"/>
    <path class="st5" d="M22.45,89.93c0,.23-.16.31-.31.47-2.58,1.87-5.15,3.67-7.73,5.54-.39.31-.62.23-.94-.08-.47-.55-.94-1.02-1.41-1.56-.31-.31-.31-.55.16-.78,3.05-1.56,6.01-3.2,9.06-4.76.16-.16,1.17.78,1.17,1.17Z"/>
    <path class="st8" d="M76.11,100c.23.16.39.16.55.23,2.97,1.48,5.86,2.89,8.82,4.37.23.16.7.16.62.55,0,.39-.23.62-.62.7-.16.08-.39.16-.55.31-.55.86-1.09.55-1.8.16-2.66-1.48-5.39-2.89-8.12-4.3-.62-.31-.55-.55-.16-.94.55-.39.94-.78,1.25-1.09"/>
    <path class="st5" d="M76.11,100c.23.16.39.16.55.23,2.97,1.48,5.86,2.89,8.82,4.37.23.16.7.16.62.55,0,.39-.23.62-.62.7-.16.08-.39.16-.55.31-.55.86-1.09.55-1.8.16-2.66-1.48-5.39-2.89-8.12-4.3-.62-.31-.55-.55-.16-.94.55-.39.94-.78,1.25-1.09Z"/>
    <path class="st8" d="M28.94,95.08c-.16.16-.23.31-.39.47-2.11,2.34-4.22,4.69-6.33,7.03-.47.47-.7.47-1.02-.08-.31-.55-1.17-.94-1.09-1.48.08-.47.78-.86,1.17-1.33,1.8-1.8,3.59-3.59,5.39-5.47.23-.23.47-.55.86-.23.55.47,1.09.62,1.41,1.09"/>
    <path class="st5" d="M28.94,95.08c-.16.16-.23.31-.39.47-2.11,2.34-4.22,4.69-6.33,7.03-.47.47-.7.47-1.02-.08-.31-.55-1.17-.94-1.09-1.48.08-.47.78-.86,1.17-1.33,1.8-1.8,3.59-3.59,5.39-5.47.23-.23.47-.55.86-.23.55.47,1.09.62,1.41,1.09Z"/>
    <path class="st10" d="M45.57,61.81c.08-.31-.31-.47-.47-.86h1.33c1.25.39,2.03,1.41,2.89,2.34,1.41,1.56,2.42,3.28,3.51,5.08.08.08.08.16.08.23.47,1.09.39,1.17-.78,1.17-1.09,0-2.26-.16-3.36-.16-.78,0-.7-.7-.94-1.17.7-.16,1.25.23,1.95.47-.39-1.64-1.25-2.89-2.11-4.22,0-.23-.16-.31-.31-.39h0c0-.23-.08-.47-.31-.55h0q-.08-.08-.16-.16c-.08-.16-.16-.23-.23-.39q0-.08-.08-.16h0c0-.23-.08-.39-.31-.55-.08-.08-.16-.08-.16-.16q-.08-.08-.16-.16h0q-.08-.08-.16-.16h0c-.08-.08-.16-.16-.23-.23h0Z"/>
    <path class="st0" d="M45.57,61.81c.08-.31-.31-.47-.47-.86h1.33c1.25.39,2.03,1.41,2.89,2.34,1.41,1.56,2.42,3.28,3.51,5.08.08.08.08.16.08.23.47,1.09.39,1.17-.78,1.17-1.09,0-2.26-.16-3.36-.16-.78,0-.7-.7-.94-1.17.7-.16,1.25.23,1.95.47-.39-1.64-1.25-2.89-2.11-4.22,0-.23-.16-.31-.31-.39h0c0-.23-.08-.47-.31-.55h0q-.08-.08-.16-.16c-.08-.16-.16-.23-.23-.39q0-.08-.08-.16h0c0-.23-.08-.39-.31-.55-.08-.08-.16-.08-.16-.16q-.08-.08-.16-.16h0q-.08-.08-.16-.16h0c-.08-.08-.16-.16-.23-.23h0Z"/>
    <path class="st8" d="M21.28,84.54c-2.5-.39-5-.86-7.58-1.25-.7-.16-.86-.62-.39-1.17.47-.62,1.02-1.17,1.48-1.8.23-.31.47-.39.86-.23,2.03.78,4.06,1.56,6.09,2.26.31.08.39.23.31.55-.16.47-.16.94-.23,1.41-.08.31-.23.31-.55.23"/>
    <path class="st5" d="M21.28,84.54c-2.5-.39-5-.86-7.58-1.25-.7-.16-.86-.62-.39-1.17.47-.62,1.02-1.17,1.48-1.8.23-.31.47-.39.86-.23,2.03.78,4.06,1.56,6.09,2.26.31.08.39.23.31.55-.16.47-.16.94-.23,1.41-.08.31-.23.31-.55.23Z"/>
    <path class="st8" d="M25.81,107.03c-.31,0-.39-.08-.47-.23-.08-.23-.16-.47-.39-.62-.94-.62-.62-1.17,0-1.87,2.03-2.19,3.98-4.45,5.94-6.72.31-.39.62-.55.94-.08s1.17.7.55,1.48c-2.11,2.58-4.22,5.08-6.4,7.58,0,.23-.16.39-.16.47"/>
    <path class="st5" d="M25.81,107.03c-.31,0-.39-.08-.47-.23-.08-.23-.16-.47-.39-.62-.94-.62-.62-1.17,0-1.87,2.03-2.19,3.98-4.45,5.94-6.72.31-.39.62-.55.94-.08s1.17.7.55,1.48c-2.11,2.58-4.22,5.08-6.4,7.58,0,.23-.16.39-.16.47Z"/>
    <path class="st8" d="M83.76,94.14c.47-.47.86-.78,1.25-1.17.16-.16.39-.16.62-.08,3.2,1.09,6.33,2.26,9.53,3.36.47.16.39.39.08.62-1.48,1.48-1.48,1.41-3.44.62-2.34-1.02-4.69-1.87-7.03-2.89-.31-.16-.62-.31-1.02-.47"/>
    <path class="st5" d="M83.76,94.14c.47-.47.86-.78,1.25-1.17.16-.16.39-.16.62-.08,3.2,1.09,6.33,2.26,9.53,3.36.47.16.39.39.08.62-1.48,1.48-1.48,1.41-3.44.62-2.34-1.02-4.69-1.87-7.03-2.89-.31-.16-.62-.31-1.02-.47Z"/>
    <path class="st8" d="M90.55,100.47c-.7.55-1.33,1.09-1.95,1.56-.23.23-.47.08-.7-.08-2.81-1.25-5.54-2.5-8.36-3.75-.47-.23-.47-.39-.08-.7.78-.78,1.48-.94,2.58-.47,2.42,1.09,5,2.03,7.42,2.97.39.16.7.31,1.09.47"/>
    <path class="st5" d="M90.55,100.47c-.7.55-1.33,1.09-1.95,1.56-.23.23-.47.08-.7-.08-2.81-1.25-5.54-2.5-8.36-3.75-.47-.23-.47-.39-.08-.7.78-.78,1.48-.94,2.58-.47,2.42,1.09,5,2.03,7.42,2.97.39.16.7.31,1.09.47Z"/>
    <path class="st8" d="M30.89,96.8c-.08.16-.16.31-.31.39-2.19,2.5-4.45,5-6.64,7.5-.47.55-.7.55-1.09-.08-.55-.7-.7-1.25.08-1.95,2.03-2.11,3.98-4.37,5.94-6.64.47-.55.86-.7,1.33-.08.23.31.55.47.7.86"/>
    <path class="st5" d="M30.89,96.8c-.08.16-.16.31-.31.39-2.19,2.5-4.45,5-6.64,7.5-.47.55-.7.55-1.09-.08-.55-.7-.7-1.25.08-1.95,2.03-2.11,3.98-4.37,5.94-6.64.47-.55.86-.7,1.33-.08.23.31.55.47.7.86Z"/>
    <path class="st8" d="M81.42,96.17q.08-.16.08-.23c.94-1.17,1.95-1.41,3.44-.7,2.42,1.17,5,2.11,7.5,3.05.62.23.55.39.16.78-.86.78-1.64.94-2.73.47-2.81-1.25-5.62-2.26-8.43-3.36"/>
    <path class="st5" d="M81.42,96.17q.08-.16.08-.23c.94-1.17,1.95-1.41,3.44-.7,2.42,1.17,5,2.11,7.5,3.05.62.23.55.39.16.78-.86.78-1.64.94-2.73.47-2.81-1.25-5.62-2.26-8.43-3.36Z"/>
    <path class="st8" d="M76.73,99.61c.47-.39.86-.62,1.25-1.02.31-.23.55-.23.86-.08,2.81,1.33,5.62,2.58,8.51,3.83.47.16.39.31.16.7q-1.02,1.41-2.5.62c-2.5-1.25-5-2.5-7.5-3.75-.23-.08-.47-.16-.78-.31"/>
    <path class="st5" d="M76.73,99.61c.47-.39.86-.62,1.25-1.02.31-.23.55-.23.86-.08,2.81,1.33,5.62,2.58,8.51,3.83.47.16.39.31.16.7q-1.02,1.41-2.5.62c-2.5-1.25-5-2.5-7.5-3.75-.23-.08-.47-.16-.78-.31Z"/>
    <path class="st8" d="M26.67,93.52c-.16.16-.23.31-.39.47-2.03,2.03-4.06,3.98-6.01,6.01-.47.55-.86.55-1.41,0-1.09-1.02-1.09-.94,0-1.95,1.95-1.8,3.83-3.59,5.78-5.39.23-.23.47-.39.78-.23.39.39.78.78,1.25,1.09"/>
    <path class="st5" d="M26.67,93.52c-.16.16-.23.31-.39.47-2.03,2.03-4.06,3.98-6.01,6.01-.47.55-.86.55-1.41,0-1.09-1.02-1.09-.94,0-1.95,1.95-1.8,3.83-3.59,5.78-5.39.23-.23.47-.39.78-.23.39.39.78.78,1.25,1.09Z"/>
    <path class="st8" d="M96.72,95c-.23.7-.62.94-1.41.62-3.05-1.09-6.09-2.19-9.14-3.2-.55-.16-.55-.39-.31-.86q.62-1.25,1.95-.86c1.64.47,3.28.94,5,1.41.31.08.55.16.62.55.39,1.72,1.25,2.34,3.05,2.26.08,0,.16.08.23.08"/>
    <path class="st5" d="M96.72,95c-.23.7-.62.94-1.41.62-3.05-1.09-6.09-2.19-9.14-3.2-.55-.16-.55-.39-.31-.86q.62-1.25,1.95-.86c1.64.47,3.28.94,5,1.41.31.08.55.16.62.55.39,1.72,1.25,2.34,3.05,2.26.08,0,.16.08.23.08Z"/>
    <path class="st8" d="M98.13,88.29c-.62.31-1.17.16-1.72.16-2.66-.23-5.31-.62-7.97-.78-.94-.08-.7-.7-.78-1.17-.08-.62.55-.31.78-.31,2.34-.16,4.69-.31,7.03-.47.7-.08,1.25.31,1.48.78.39.55.7,1.17,1.17,1.8"/>
    <path class="st5" d="M98.13,88.29c-.62.31-1.17.16-1.72.16-2.66-.23-5.31-.62-7.97-.78-.94-.08-.7-.7-.78-1.17-.08-.62.55-.31.78-.31,2.34-.16,4.69-.31,7.03-.47.7-.08,1.25.31,1.48.78.39.55.7,1.17,1.17,1.8Z"/>
    <path class="st8" d="M11.68,86.1c.62-.62,1.17-1.17,1.33-1.87.08-.39.39-.39.62-.39,2.42.39,4.92.86,7.34,1.25.16,0,.31,0,.31.23.16.62-.47,1.48-1.17,1.48-1.72,0-3.44,0-5.15.08-1.09.08-2.03-.7-3.28-.78"/>
    <path class="st5" d="M11.68,86.1c.62-.62,1.17-1.17,1.33-1.87.08-.39.39-.39.62-.39,2.42.39,4.92.86,7.34,1.25.16,0,.31,0,.31.23.16.62-.47,1.48-1.17,1.48-1.72,0-3.44,0-5.15.08-1.09.08-2.03-.7-3.28-.78Z"/>
    <path class="st8" d="M17.93,76.65c.16.08.31.16.39.23,1.48.86,2.89,1.72,4.37,2.58.47.23.47.47.23.94-.78,1.56-.7,1.56-2.34.94-1.48-.55-2.89-1.09-4.37-1.64-.55-.23-.7-.39-.23-.86.55-.55.94-1.17,1.48-1.72.16-.23.31-.31.47-.47"/>
    <path class="st5" d="M17.93,76.65c.16.08.31.16.39.23,1.48.86,2.89,1.72,4.37,2.58.47.23.47.47.23.94-.78,1.56-.7,1.56-2.34.94-1.48-.55-2.89-1.09-4.37-1.64-.55-.23-.7-.39-.23-.86.55-.55.94-1.17,1.48-1.72.16-.23.31-.31.47-.47Z"/>
    <path class="st8" d="M31.44,65.72c.31-.08.47.16.62.39.78,1.48,1.64,2.89,2.42,4.3.31.55.16.7-.39.94-1.72.62-1.72.7-2.81-.86-.78-1.09-1.56-2.19-2.34-3.2-.39-.47-.08-.78.23-.86.78-.31,1.56-.55,2.26-.7"/>
    <path class="st5" d="M31.44,65.72c.31-.08.47.16.62.39.78,1.48,1.64,2.89,2.42,4.3.31.55.16.7-.39.94-1.72.62-1.72.7-2.81-.86-.78-1.09-1.56-2.19-2.34-3.2-.39-.47-.08-.78.23-.86.78-.31,1.56-.55,2.26-.7Z"/>
    <path class="st8" d="M25.11,69.23c.23,0,.39.16.47.23,1.17,1.25,2.34,2.58,3.51,3.9.23.31.23.39-.08.62q-1.64,1.33-3.28-.08c-.86-.7-1.64-1.41-2.58-2.11-.47-.39-.55-.7-.08-1.09.55-.47,1.09-.94,1.64-1.33.23-.08.31-.16.39-.16"/>
    <path class="st5" d="M25.11,69.23c.23,0,.39.16.47.23,1.17,1.25,2.34,2.58,3.51,3.9.23.31.23.39-.08.62q-1.64,1.33-3.28-.08c-.86-.7-1.64-1.41-2.58-2.11-.47-.39-.55-.7-.08-1.09.55-.47,1.09-.94,1.64-1.33.23-.08.31-.16.39-.16Z"/>
    <path class="st8" d="M96.41,88.99c-.62.39-1.09.78-1.56,1.02-.39.23-.78.47-.86.78-.31.94-.94.78-1.64.55-1.56-.47-3.12-.94-4.69-1.33-.47-.16-.62-.16-.39-.78.39-.86.78-1.17,1.8-1.02,2.34.31,4.76.55,7.34.78"/>
    <path class="st5" d="M96.41,88.99c-.62.39-1.09.78-1.56,1.02-.39.23-.78.47-.86.78-.31.94-.94.78-1.64.55-1.56-.47-3.12-.94-4.69-1.33-.47-.16-.62-.16-.39-.78.39-.86.78-1.17,1.8-1.02,2.34.31,4.76.55,7.34.78Z"/>
    <path class="st8" d="M32.53,65.56c1.09-.39,2.26-.39,3.28-.55.39-.08.55.08.7.47.39,1.41.78,2.73,1.25,4.14.16.39.08.55-.31.7-1.95.55-1.87.55-2.89-1.17-.7-1.17-1.33-2.34-2.03-3.59"/>
    <path class="st5" d="M32.53,65.56c1.09-.39,2.26-.39,3.28-.55.39-.08.55.08.7.47.39,1.41.78,2.73,1.25,4.14.16.39.08.55-.31.7-1.95.55-1.87.55-2.89-1.17-.7-1.17-1.33-2.34-2.03-3.59Z"/>
    <path class="st8" d="M27.92,67.2c.31,0,.39.23.55.39,1.02,1.41,2.03,2.81,3.12,4.22.31.39.23.62-.23.86q-1.41.78-2.5-.39c-.86-1.02-1.8-2.03-2.66-2.97-.39-.39-.39-.62.08-.94.62-.47,1.17-.86,1.64-1.17"/>
    <path class="st5" d="M27.92,67.2c.31,0,.39.23.55.39,1.02,1.41,2.03,2.81,3.12,4.22.31.39.23.62-.23.86q-1.41.78-2.5-.39c-.86-1.02-1.8-2.03-2.66-2.97-.39-.39-.39-.62.08-.94.62-.47,1.17-.86,1.64-1.17Z"/>
    <path class="st8" d="M87.59,74.07c0,.23-.16.31-.31.47-1.17.86-2.42,1.72-3.59,2.58-.31.23-.39.16-.62-.08-.23-.31-.47-.55-.7-.7-.86-.47-.62-.94-.08-1.48l2.58-2.58c.31-.31.47-.31.86,0,.55.55,1.17,1.09,1.64,1.72.08-.16.16,0,.23.08"/>
    <path class="st5" d="M87.59,74.07c0,.23-.16.31-.31.47-1.17.86-2.42,1.72-3.59,2.58-.31.23-.39.16-.62-.08-.23-.31-.47-.55-.7-.7-.86-.47-.62-.94-.08-1.48l2.58-2.58c.31-.31.47-.31.86,0,.55.55,1.17,1.09,1.64,1.72.08-.16.16,0,.23.08Z"/>
    <path class="st8" d="M38.86,64.86c1.87,0,1.56-.16,1.87,1.33.16.94.39,1.87.55,2.81.08.55-.08.78-.62.78-.7-.08-1.48.47-2.11.08-.55-.39-.47-1.25-.7-1.95-.23-.78-.47-1.64-.78-2.42-.16-.39,0-.55.39-.55.55,0,1.09-.08,1.41-.08"/>
    <path class="st5" d="M38.86,64.86c1.87,0,1.56-.16,1.87,1.33.16.94.39,1.87.55,2.81.08.55-.08.78-.62.78-.7-.08-1.48.47-2.11.08-.55-.39-.47-1.25-.7-1.95-.23-.78-.47-1.64-.78-2.42-.16-.39,0-.55.39-.55.55,0,1.09-.08,1.41-.08Z"/>
    <path class="st8" d="M81.81,69.39c-.08.08-.16.23-.23.31-.86,1.09-1.72,2.11-2.58,3.2-.31.47-.62.55-1.17.31q-1.56-.7-.78-2.19c.47-.86.86-1.72,1.33-2.58.16-.23.23-.62.62-.47.86.31,1.64.7,2.5,1.02.16.16.31.16.31.39"/>
    <path class="st5" d="M81.81,69.39c-.08.08-.16.23-.23.31-.86,1.09-1.72,2.11-2.58,3.2-.31.47-.62.55-1.17.31q-1.56-.7-.78-2.19c.47-.86.86-1.72,1.33-2.58.16-.23.23-.62.62-.47.86.31,1.64.7,2.5,1.02.16.16.31.16.31.39Z"/>
    <path class="st8" d="M24.8,77.59c-.39.55-.7,1.09-1.09,1.48-.31.31-.62-.16-.86-.31-1.33-.7-2.58-1.56-3.9-2.26-.55-.23-.55-.47-.23-.94,1.25-1.56,1.17-1.56,2.81-.39.94.7,1.87,1.33,2.81,2.03.16.16.31.23.47.39"/>
    <path class="st5" d="M24.8,77.59c-.39.55-.7,1.09-1.09,1.48-.31.31-.62-.16-.86-.31-1.33-.7-2.58-1.56-3.9-2.26-.55-.23-.55-.47-.23-.94,1.25-1.56,1.17-1.56,2.81-.39.94.7,1.87,1.33,2.81,2.03.16.16.31.23.47.39Z"/>
    <path class="st8" d="M84.7,71.26c0,.23-.16.39-.31.55-.94,1.02-1.95,1.95-2.89,2.97-.23.31-.47.23-.7.08-.47-.31-.94-.62-1.41-.86-.31-.16-.23-.39-.08-.55.94-1.17,1.87-2.34,2.81-3.51.16-.16.23-.31.47-.16.62.47,1.25.86,1.87,1.33.16,0,.23.08.23.16"/>
    <path class="st5" d="M84.7,71.26c0,.23-.16.39-.31.55-.94,1.02-1.95,1.95-2.89,2.97-.23.31-.47.23-.7.08-.47-.31-.94-.62-1.41-.86-.31-.16-.23-.39-.08-.55.94-1.17,1.87-2.34,2.81-3.51.16-.16.23-.31.47-.16.62.47,1.25.86,1.87,1.33.16,0,.23.08.23.16Z"/>
    <path class="st8" d="M26.83,75.71c-.31.23-.62.39-.78.7-.55.78-1.02.7-1.72.16-1.09-.94-2.26-1.72-3.44-2.5-.39-.23-.39-.47-.08-.78q1.25-1.48,2.73-.31c.94.78,1.87,1.56,2.81,2.34.16,0,.23.16.47.39"/>
    <path class="st5" d="M26.83,75.71c-.31.23-.62.39-.78.7-.55.78-1.02.7-1.72.16-1.09-.94-2.26-1.72-3.44-2.5-.39-.23-.39-.47-.08-.78q1.25-1.48,2.73-.31c.94.78,1.87,1.56,2.81,2.34.16,0,.23.16.47.39Z"/>
    <path class="st8" d="M80.4,108.2c-.62.39-1.09.62-1.41,1.17-.23.47-.47.16-.7,0-1.41-.86-2.81-1.72-4.14-2.66-1.02-.62-1.09-1.09-.62-2.42,2.26,1.25,4.53,2.58,6.87,3.9"/>
    <path class="st5" d="M80.4,108.2c-.62.39-1.09.62-1.41,1.17-.23.47-.47.16-.7,0-1.41-.86-2.81-1.72-4.14-2.66-1.02-.62-1.09-1.09-.62-2.42,2.26,1.25,4.53,2.58,6.87,3.9Z"/>
    <path class="st8" d="M95.71,85.01c-2.73.16-5.31.31-7.89.39-.23,0-.47.08-.55-.23-.08-.39.16-.47.47-.55,1.87-.7,3.75-1.33,5.62-2.03.31-.16.55,0,.7.23.47.78,1.02,1.41,1.64,2.19"/>
    <path class="st5" d="M95.71,85.01c-2.73.16-5.31.31-7.89.39-.23,0-.47.08-.55-.23-.08-.39.16-.47.47-.55,1.87-.7,3.75-1.33,5.62-2.03.31-.16.55,0,.7.23.47.78,1.02,1.41,1.64,2.19Z"/>
    <path class="st8" d="M89.46,76.65c0,.39-.23.55-.47.62-1.09.7-2.26,1.33-3.36,1.95-.47.31-.7.23-1.02-.23-.78-1.33-.78-1.25.39-2.19.86-.62,1.72-1.25,2.58-1.87.31-.23.55-.23.78.08.47.55.94,1.02,1.09,1.64"/>
    <path class="st5" d="M89.46,76.65c0,.39-.23.55-.47.62-1.09.7-2.26,1.33-3.36,1.95-.47.31-.7.23-1.02-.23-.78-1.33-.78-1.25.39-2.19.86-.62,1.72-1.25,2.58-1.87.31-.23.55-.23.78.08.47.55.94,1.02,1.09,1.64Z"/>
    <path class="st8" d="M91.49,79.46c-.08.23-.23.23-.39.31-1.48.62-2.97,1.25-4.45,1.87-.31.16-.55.08-.7-.23-.08-.31-.23-.62-.39-.86-.23-.31-.16-.55.16-.7,1.25-.7,2.5-1.48,3.75-2.26.31-.16.55-.23.7.08.31.47.7,1.02,1.09,1.48.16.16.23.23.23.31"/>
    <path class="st5" d="M91.49,79.46c-.08.23-.23.23-.39.31-1.48.62-2.97,1.25-4.45,1.87-.31.16-.55.08-.7-.23-.08-.31-.23-.62-.39-.86-.23-.31-.16-.55.16-.7,1.25-.7,2.5-1.48,3.75-2.26.31-.16.55-.23.7.08.31.47.7,1.02,1.09,1.48.16.16.23.23.23.31Z"/>
    <path class="st8" d="M87.2,84.15c-.39-.16-.39-.62-.47-1.02-.08-.31-.39-.7.08-.86,1.64-.7,3.2-1.41,4.84-2.03.47-.23.55.23.78.47q.94,1.25-.55,1.8c-1.33.47-2.73.94-4.06,1.48-.16,0-.31.08-.62.16"/>
    <path class="st5" d="M87.2,84.15c-.39-.16-.39-.62-.47-1.02-.08-.31-.39-.7.08-.86,1.64-.7,3.2-1.41,4.84-2.03.47-.23.55.23.78.47q.94,1.25-.55,1.8c-1.33.47-2.73.94-4.06,1.48-.16,0-.31.08-.62.16Z"/>
    <path class="st8" d="M76.03,67.12c2.11.23,2.26.55,1.25,2.26-.39.78-.86,1.48-1.25,2.26-.23.47-.47.55-1.02.39-1.64-.55-1.64-.47-.94-2.03.39-.86.78-1.64,1.25-2.5.16-.23.31-.55.7-.39"/>
    <path class="st5" d="M76.03,67.12c2.11.23,2.26.55,1.25,2.26-.39.78-.86,1.48-1.25,2.26-.23.47-.47.55-1.02.39-1.64-.55-1.64-.47-.94-2.03.39-.86.78-1.64,1.25-2.5.16-.23.31-.55.7-.39Z"/>
    <path class="st8" d="M43.38,69.54q-1.56,0-1.8-1.25c-.16-.94-.31-1.87-.47-2.73-.08-.47,0-.62.47-.55.55.08,1.09.16,1.64.16.62,0,.78.39.86.86.08.78.23,1.64.39,2.42.23,1.09.23,1.17-.86,1.17-.16-.08-.31-.08-.23-.08"/>
    <path class="st5" d="M43.38,69.54q-1.56,0-1.8-1.25c-.16-.94-.31-1.87-.47-2.73-.08-.47,0-.62.47-.55.55.08,1.09.16,1.64.16.62,0,.78.39.86.86.08.78.23,1.64.39,2.42.23,1.09.23,1.17-.86,1.17-.16-.08-.31-.08-.23-.08Z"/>
    <path class="st10" d="M10.66,85.55c-1.33.16-2.19-.31-2.66-1.33-.31-.7-.08-1.72.47-2.34.55-.55,1.25-.7,1.95-.7,1.56.62,2.19,1.64,1.8,2.97-.23.78-.86,1.09-1.56,1.41M10.19,82.27c-1.09,0-1.56.39-1.64,1.33-.08.78.39,1.09,1.09,1.33-.16-1.02-.16-1.87.55-2.66M11.6,84.38c-.08-.23-.23-.39-.39-.31-.23,0-.39.16-.31.39,0,.16.16.31.39.31.16-.08.23-.16.31-.39"/>
    <path class="st0" d="M10.66,85.55c-1.33.16-2.19-.31-2.66-1.33-.31-.7-.08-1.72.47-2.34.55-.55,1.25-.7,1.95-.7,1.56.62,2.19,1.64,1.8,2.97-.23.78-.86,1.09-1.56,1.41ZM10.19,82.27c-1.09,0-1.56.39-1.64,1.33-.08.78.39,1.09,1.09,1.33-.16-1.02-.16-1.87.55-2.66ZM11.6,84.38c-.08-.23-.23-.39-.39-.31-.23,0-.39.16-.31.39,0,.16.16.31.39.31.16-.08.23-.16.31-.39Z"/>
    <path class="st8" d="M33.94,101.8c.62,1.95-.23,4.45-1.87,5.86-.7.55-1.17.86-1.95.16-.31-.31-.39-.39-.16-.7,1.33-1.72,2.66-3.44,3.98-5.31"/>
    <path class="st5" d="M33.94,101.8c.62,1.95-.23,4.45-1.87,5.86-.7.55-1.17.86-1.95.16-.31-.31-.39-.39-.16-.7,1.33-1.72,2.66-3.44,3.98-5.31Z"/>
    <path class="st8" d="M75.01,66.81c-.7,1.41-1.33,2.73-1.95,4.14-.23.55-.62.47-1.02.39q-1.56-.31-.94-1.8c.39-.86.78-1.72,1.09-2.58.16-.39.39-.62.86-.47.62.16,1.25.23,1.95.31"/>
    <path class="st5" d="M75.01,66.81c-.7,1.41-1.33,2.73-1.95,4.14-.23.55-.62.47-1.02.39q-1.56-.31-.94-1.8c.39-.86.78-1.72,1.09-2.58.16-.39.39-.62.86-.47.62.16,1.25.23,1.95.31Z"/>
    <path class="st10" d="M97.74,86.1c0-1.48.78-2.5,2.03-2.5s2.19,1.02,2.11,2.26c0,1.25-1.09,2.19-2.26,2.03-.16,0-.31-.08-.47,0-.62-.47-1.09-1.09-1.41-1.8M99.54,84.69c-1.33,1.09-1.48,1.48-.7,2.26.08.08.16.23.31.23.16-.08.16-.23.16-.39-.23-.62-.08-1.25.23-2.11M100.63,86.57c.08.23.16.47.39.39s.31-.31.23-.47c0-.16-.08-.31-.31-.31-.31-.08-.31.16-.31.39"/>
    <path class="st0" d="M97.74,86.1c0-1.48.78-2.5,2.03-2.5s2.19,1.02,2.11,2.26c0,1.25-1.09,2.19-2.26,2.03-.16,0-.31-.08-.47,0-.62-.47-1.09-1.09-1.41-1.8ZM99.54,84.69c-1.33,1.09-1.48,1.48-.7,2.26.08.08.16.23.31.23.16-.08.16-.23.16-.39-.23-.62-.08-1.25.23-2.11ZM100.63,86.57c.08.23.16.47.39.39s.31-.31.23-.47c0-.16-.08-.31-.31-.31-.31-.08-.31.16-.31.39Z"/>
    <path class="st8" d="M71.81,66.26c-.62,1.41-1.17,2.81-1.8,4.14-.23.47-.55.31-.86.31q-1.56-.31-1.02-1.8c.31-.86.62-1.72.86-2.58.08-.31.23-.55.62-.47.7.16,1.41.31,2.19.39"/>
    <path class="st5" d="M71.81,66.26c-.62,1.41-1.17,2.81-1.8,4.14-.23.47-.55.31-.86.31q-1.56-.31-1.02-1.8c.31-.86.62-1.72.86-2.58.08-.31.23-.55.62-.47.7.16,1.41.31,2.19.39Z"/>
    <path class="st8" d="M64.47,65.56h.55c.78-.08.86.23.62.86-.31.94-.55,1.8-.78,2.73-.16.7-.47,1.02-1.25.94-1.48-.08-1.48,0-1.09-1.48.16-.7.47-1.33.55-2.03.16-.86.62-1.33,1.41-1.02"/>
    <path class="st5" d="M64.47,65.56h.55c.78-.08.86.23.62.86-.31.94-.55,1.8-.78,2.73-.16.7-.47,1.02-1.25.94-1.48-.08-1.48,0-1.09-1.48.16-.7.47-1.33.55-2.03.16-.86.62-1.33,1.41-1.02Z"/>
    <path class="st8" d="M46.43,69.54c-.86.23-1.17-.23-1.33-1.02-.08-.86-.23-1.8-.47-2.66-.08-.39,0-.55.39-.47.7.08,1.48.23,2.19.31.39.08,1.33,1.41,1.25,1.8-.08.39-.39.16-.55.16q-1.17.08-.78,1.17c.47,1.09-.31.62-.7.7"/>
    <path class="st5" d="M46.43,69.54c-.86.23-1.17-.23-1.33-1.02-.08-.86-.23-1.8-.47-2.66-.08-.39,0-.55.39-.47.7.08,1.48.23,2.19.31.39.08,1.33,1.41,1.25,1.8-.08.39-.39.16-.55.16q-1.17.08-.78,1.17c.47,1.09-.31.62-.7.7Z"/>
    <path class="st10" d="M15.74,89.38c0,1.02-.78,1.8-1.8,1.8-.94,0-1.8-.86-1.8-1.87,0-.94.78-1.8,1.72-1.8,1.02,0,1.87.86,1.87,1.87"/>
    <path class="st0" d="M15.74,89.38c0,1.02-.78,1.8-1.8,1.8-.94,0-1.8-.86-1.8-1.87,0-.94.78-1.8,1.72-1.8,1.02,0,1.87.86,1.87,1.87Z"/>
    <path class="st10" d="M86.03,106.48c1.48-.08,2.34.55,2.26,1.87,0,.94-.62,1.64-1.64,1.87-.7.16-1.48-.39-1.8-1.17-.08-.16-.08-.23-.16-.39.08-1.02.31-1.87,1.33-2.19"/>
    <path class="st0" d="M86.03,106.48c1.48-.08,2.34.55,2.26,1.87,0,.94-.62,1.64-1.64,1.87-.7.16-1.48-.39-1.8-1.17-.08-.16-.08-.23-.16-.39.08-1.02.31-1.87,1.33-2.19Z"/>
    <path class="st10" d="M94.3,92.27c0-1.02.78-1.8,1.72-1.8,1.02,0,1.8.86,1.8,1.87s-.78,1.87-1.8,1.8c-1.02,0-1.72-.86-1.72-1.87"/>
    <path class="st0" d="M94.3,92.27c0-1.02.78-1.8,1.72-1.8,1.02,0,1.8.86,1.8,1.87s-.78,1.87-1.8,1.8c-1.02,0-1.72-.86-1.72-1.87Z"/>
    <path class="st8" d="M16.29,90.63c.47-1.25.16-2.19-.39-3.05,1.64-.23,3.2-.16,4.76-.23.31,0,.47.16.55.39s-.08.39-.23.47c-1.48.78-2.97,1.56-4.69,2.42"/>
    <path class="st5" d="M16.29,90.63c.47-1.25.16-2.19-.39-3.05,1.64-.23,3.2-.16,4.76-.23.31,0,.47.16.55.39s-.08.39-.23.47c-1.48.78-2.97,1.56-4.69,2.42Z"/>
    <path class="st8" d="M66.58,70.32c-1.33-.08-1.41-.16-1.02-1.33.23-.94.55-1.87.78-2.73.16-.55,1.02-.78,1.8-.47.62.23.23.7.08,1.02-.31,1.02-.62,2.03-1.02,2.97-.08.39-.23.7-.62.55"/>
    <path class="st5" d="M66.58,70.32c-1.33-.08-1.41-.16-1.02-1.33.23-.94.55-1.87.78-2.73.16-.55,1.02-.78,1.8-.47.62.23.23.7.08,1.02-.31,1.02-.62,2.03-1.02,2.97-.08.39-.23.7-.62.55Z"/>
    <path class="st10" d="M24.72,108.12c-.47,1.25-1.41,1.72-2.42,1.41-.86-.31-1.33-1.41-1.09-2.34.16-.62.62-.94,1.17-1.17,1.72-.08,2.34.47,2.34,2.11M22.53,108.98c-.31-.86-.31-1.48.23-2.26-.7.31-1.02.62-1.09,1.17-.16.47.23.86.86,1.09"/>
    <path class="st0" d="M24.72,108.12c-.47,1.25-1.41,1.72-2.42,1.41-.86-.31-1.33-1.41-1.09-2.34.16-.62.62-.94,1.17-1.17,1.72-.08,2.34.47,2.34,2.11ZM22.53,108.98c-.31-.86-.31-1.48.23-2.26-.7.31-1.02.62-1.09,1.17-.16.47.23.86.86,1.09Z"/>
    <path class="st8" d="M62.75,65.56c-.39,1.41-.78,2.81-1.17,4.14-.16.55-.78.39-1.09.23-.39-.16-.08-.47,0-.7.47-1.02,1.02-1.95,1.56-2.89.16-.31.23-.7.7-.78"/>
    <path class="st5" d="M62.75,65.56c-.39,1.41-.78,2.81-1.17,4.14-.16.55-.78.39-1.09.23-.39-.16-.08-.47,0-.7.47-1.02,1.02-1.95,1.56-2.89.16-.31.23-.7.7-.78Z"/>
    <path class="st8" d="M11.44,90.47c.55.7,1.09,1.41,2.26,1.56-.78.39-1.33.7-1.95,1.02-.39.23-.55-.08-.55-.39,0-.7-.08-1.48.23-2.19"/>
    <path class="st5" d="M11.44,90.47c.55.7,1.09,1.41,2.26,1.56-.78.39-1.33.7-1.95,1.02-.39.23-.55-.08-.55-.39,0-.7-.08-1.48.23-2.19Z"/>
    <path class="st8" d="M74,107.34c1.25.47,2.19,1.41,3.28,2.03-1.33-.23-2.66-.55-3.28-2.03h0Z"/>
    <path class="st5" d="M74,107.34c1.25.47,2.19,1.41,3.28,2.03-1.33-.23-2.66-.55-3.28-2.03h0Z"/>
    <path class="st8" d="M73.92,107.42l-.08-.08q.08-.08.08.08h0"/>
    <path class="st5" d="M73.92,107.42l-.08-.08q.08-.08.08.08h0Z"/>
    <path class="st7" d="M83.53,109.53c.08.23.08.47.16.7.23,1.02-.08,1.95-.86,2.58s-1.72.86-2.66.39c-.55-.31-1.09-.39-1.72-.16-2.89,1.02-5.78.55-8.67.31-4.06-.39-8.04-1.33-11.87-2.73-.16-.08-.31,0-.39,0-.94-1.25-2.5-2.03-4.14-1.25-.47.23-.94.31-1.48.39-.31,0-.7,0-.78.47-1.17,2.81-2.73,5.39-4.84,7.58-.39.47-.16.7.31.78.47.08,1.02.23,1.56.23.94.08,1.8-.23,2.73-.23.23,0,.55,0,.62.31.16,1.02.55,2.03.86,3.05.31,1.17.62,2.34,1.33,3.44.16-.31.31-.55.39-.7.94-1.87,1.64-3.83,2.26-5.86.23-.86.55-.86,1.33-.62,1.33.39,2.73.55,4.14-.16-.47-.39-.94-.7-1.33-1.02-1.64-1.33-2.89-2.97-3.36-5.08.55-.31.31-.78.39-1.25.39,1.72,1.02,3.2,2.19,4.53.94,1.02,2.03,1.87,3.28,2.5-.39.7-1.25,1.25-2.03,1.33-.86.08-1.8.16-2.66,0q-1.17-.23-1.56.94c-.62,1.95-1.41,3.83-2.34,5.7-.16.31-.31.78-.62.78-.39,0-.55-.39-.7-.78-.94-1.72-1.56-3.59-2.03-5.54-.16-.7-.39-.94-1.17-.78-1.33.23-2.66.23-3.98-.31-1.02-.47-1.09-.7-.31-1.48,1.72-1.8,3.2-3.83,4.22-6.09.16-.23.23-.55.31-.78v-.31c-1.87.62-3.83,1.25-5.7,1.64-3.59.7-7.26,1.17-11.01.94-1.48-.08-2.89-.47-4.37-.16-1.48.31-2.89-1.48-2.58-3.05.08-.23.08-.47.16-.7q.08,0,.16-.08c.23.08.47.16.62.16-.47,1.56.08,2.66,1.33,2.81,1.56.23,2.5-1.09,1.95-2.81.39.08.78.16,1.02-.23v.31c-.08,1.87,0,1.87,1.64,1.09,2.19-1.02,3.98-2.5,4.45-4.92.55-2.73.08-5.54-1.64-7.81-1.33-1.8-3.12-3.2-5.08-4.37-1.8-1.02-3.51-2.19-5-3.59-.47-.47-.86-.86-1.56-.39-.31.23-.78.16-1.17.16-.31-.23-.78-.47-.7-1.02.94.62,2.26.31,2.81-.62.55-.94.08-2.19-.86-2.66-.62-.31-1.25-.08-1.95,0,0-.23,0-.47.16-.7,1.41.08,2.03-.86,2.34-2.11l.23-.47c2.73-4.61,6.72-7.42,11.71-8.9,3.98-1.17,8.04-1.33,12.1-1.17,5,.16,9.92.31,14.92.62,2.73.16,5.47.47,8.12,1.25s5.23,1.87,7.26,3.83c2.11,2.03,3.51,4.53,4.61,7.26.08.23.08.55.39.47.7-.23,1.33.08,2.03.23.16.23.31.47.47.7s.16.47-.23.55c-1.09-1.41-2.66-.94-3.2,0-.39.7-.39,1.48.08,2.11.47.7,1.25.94,2.42.62.08.39-.16.7-.39.94-.86,0-1.72-.23-2.42-.86-1.41,1.87-3.28,3.2-5,4.69-1.87,1.56-3.9,2.89-5.62,4.61-2.26,2.34-3.83,4.92-2.42,8.43.78,2.03,2.19,3.51,3.9,4.69,1.25.86,2.5.62,3.9.39.78-.16,1.02-.39.78-1.09.08-.16.08-.23-.08-.31v-.16c.16-.31.31-.62.78-.55-.16,1.25.62,2.34,1.72,2.5,1.17.16,2.58-1.33,1.64-3.05.23,0,.47-.08.62-.23,0,.08.08.16.08.16M52.91,99.77c1.48.16,2.73-.08,3.98-.31,2.11-.47,3.9-1.25,5.31-3.05.16-.16.47-.39.16-.62-.39-.31-.16-.55,0-.78,1.8-2.73,1.87-5.7,1.02-8.75-.08-.23-.16-.47,0-.55.7-.55.16-1.02-.08-1.48-.16-.23-.47-.47-.23-.86.7.23.78,1.17,1.48,1.41-.08-.62-.16-.62-.31-1.02-1.17-2.19-3.12-3.51-5.31-4.37-3.9-1.64-7.73-1.64-11.01,1.41-1.87,1.72-3.36,3.75-3.83,6.33-.39,2.11-.78,4.14.23,6.17.55,1.17,1.33,2.11,2.11,3.05,1.8,2.03,3.9,3.67,6.64,4.14h.62c-.31-.23-.47-.39-.78-.7M32.22,111.79c.39.08.78.16,1.17.16,3.51.39,6.87-.16,10.31-.78,3.36-.7,6.56-1.95,9.92-2.81.62-.16,1.17-.16,1.8.08,4.22,1.72,8.51,3.12,13.04,3.75,1.72.23,3.44.55,5.31.31-.47-.31-.78-.55-1.09-.78s-.78-.47-1.02-.86c-.78-1.33-1.87-1.48-3.36-1.41-4.22.31-8.28-.94-12.18-2.26-1.33-.47-2.5-.55-3.83,0-4.76,1.72-9.68,1.87-14.68,1.25-.23,0-.47-.16-.7.08-1.33,1.56-2.89,2.5-4.69,3.28M41.59,87.9c.47-.08,1.09.23,1.25-.55.16-.78-.39-1.17-1.09-1.33-.16,0-.23-.08-.39-.16-4.37-1.33-8.75-2.73-13.12-4.06q-1.72-.55-2.5,1.09c-.39.78-.62,1.48.23,2.11.23.16.39.47.47.7.16.55.47.55.94.62,2.66.23,5.39.55,8.04.78,2.03.39,4.14.55,6.17.78M67.13,87.9h.23c3.2-.39,6.4-.78,9.61-1.17,1.8-.23,3.51-.39,5.23-.7.94-.16,1.09-.62.7-1.48-.39-.78-.86-1.48-1.17-2.34-.23-.7-.7-.7-1.25-.55-2.81.86-5.62,1.8-8.43,2.73-1.72.55-3.44,1.09-5.15,1.64-.62.23-.78.62-.62,1.33.08.39.39.55.86.55M66.66,85.63c.62-.16,1.41-.47,2.26-.7,3.75-1.17,7.42-2.34,11.17-3.51,1.09-.31,1.09-.55.39-1.41-.47-.55-.94-1.09-1.41-1.64-1.02-1.02-1.25-1.09-2.5-.39-3.12,1.64-6.25,3.36-9.37,5-.39.23-.78.39-1.09.62-.47.31-.62.78-.39,1.41.08.31.16.62.94.62M79.86,90.86c1.17,0,2.42-1.33,2.42-3.28,0-.86-.39-1.17-1.17-1.02-.7.08-1.48.23-2.19.31-3.83.39-7.65.86-11.56,1.25-.94.08-.78.78-.86,1.41-.08.62.39.78.86.86,3.9.08,7.73.23,12.5.47M42.76,85.79c.62,0,.78-.31.62-.94-.16-.39-.47-.55-.78-.7-3.44-1.8-6.87-3.59-10.31-5.31q-2.66-1.41-4.61,1.02c-.7.86-.62,1.09.39,1.41,4.14,1.33,8.36,2.58,12.5,3.9.7.31,1.41.62,2.19.62M34.72,90.47s0,.08,0,0c.94,0,1.8-.08,2.73-.16,1.48-.16,2.97-.23,4.45-.39.39-.08.86-.16.86-.78,0-.55-.31-.7-.78-.86-.31-.08-.55-.08-.86-.16-2.26-.16-4.45-.39-6.72-.62-2.34-.23-4.61-.47-6.95-.62-.86-.08-1.41.7-1.17,1.56s2.34,2.42,3.2,2.34c1.72,0,3.44-.16,5.23-.31M69.39,90.86h-2.26c-.39,0-.7.08-.86.55-.39,1.09-.23,1.48.94,1.87,1.95.62,3.98.94,5.94,1.56.62.23,1.41.7,2.19.08,1.09-.78,2.26-1.48,3.28-2.42.31-.31.94-.55.78-1.09-.16-.47-.86-.39-1.33-.39-2.89.08-5.78-.08-8.67-.16M33.15,75.4c.08,0-.08,0-.16,0-.47.31-.94.62-1.41.94-1.09.7-1.02,1.09.08,1.64,2.19,1.17,4.45,2.42,6.64,3.51,1.64.86,3.2,1.8,4.84,2.5.62.23.94-.08,1.17-.47.23-.47,0-.78-.39-1.09-3.36-2.26-6.72-4.61-10.07-6.87-.16-.08-.39-.23-.7-.16M64.39,82.35c0,.94.62,1.25,1.64.7,2.97-1.56,5.86-3.2,8.82-4.76.55-.31,1.17-.62,1.72-1.02.62-.47.62-.86-.08-1.17-.55-.31-1.09-.55-1.64-.86s-1.02-.31-1.48.08c-.62.47-1.17.86-1.8,1.33-2.19,1.64-4.37,3.28-6.56,4.92-.47.23-.7.47-.62.78M52.91,72.43h-2.03c-.31,0-.86.23-.47.62,1.02,1.17,1.33,2.58,1.64,4.06.08.47.31.62.78.62,1.02-.08,2.03-.16,2.97-.16.39,0,.55-.23.7-.55.47-1.33,1.25-2.5,1.95-3.67.31-.55.23-.62-.31-.7-1.8-.16-3.51-.23-5.23-.23M37.37,73.76c-.7,0-1.25.31-1.8.55-.31.08-.86.08-.86.55s.31.7.7.94c2.34,1.64,4.61,3.28,6.95,5,.7.47,1.25,1.09,2.11,1.41.47.16.94.23,1.25-.31.23-.47.16-.86-.23-1.25-2.34-2.03-4.61-4.14-6.95-6.17-.39-.31-.62-.78-1.17-.7M41.28,107.03c-.86-.08-1.87-.08-2.89-.16-.55-.08-.55.47-.62.7-.08.31.23.31.39.31,5,.62,9.92.31,14.68-1.56.86-.31,1.56-.39,2.5-.08,3.44,1.17,6.87,2.26,10.54,2.58,1.17.08,2.42.16,3.59-.08.16,0,.39,0,.39-.23s-.16-.39-.39-.39c-.23-.08-.47-.08-.7-.08-1.33,0-2.66-.16-3.98-.31-3.44-.47-6.79-1.25-10.07-2.34-.31-.08-.7-.23-1.09-.08-3.98,1.48-8.04,1.72-12.34,1.72M67.67,107.42c.39,0,.55.08.7,0,.23-.08.78.39.78-.23,0-.47-.08-.86-.86-.86-4.06.23-7.97-.78-11.79-2.11-1.33-.47-2.42-1.02-3.98-.39-3.51,1.48-7.26,1.56-11.01,1.56-.86,0-1.64-.08-2.5-.08-.39,0-.47.16-.55.47-.08.47.31.31.55.39,1.33.16,2.73.16,4.06.08,3.28-.08,6.56-.31,9.68-1.41.94-.31,1.8-.31,2.73,0,3.98,1.48,8.12,2.26,12.18,2.58M40.96,90.32c-.62,0-1.33.08-1.95.16-1.87.16-3.75.23-5.62.39-.94.08-1.87.16-2.81.31-.16,0-.47-.08-.55.16-.08.31.16.39.39.55.86.55,1.72,1.17,2.58,1.72.23.16.47.08.7.08,2.81-.47,5.62-.94,8.36-1.33.78-.08.86-.47.78-1.09-.08-.7-.39-.94-1.02-.94-.23,0-.55,0-.86,0M67.52,104.92c.78.23,1.17-.08,1.09-.94,0-.7.39-1.41-.31-2.03-1.48-1.17-2.97-2.42-4.45-3.67-.55-.47-1.17-.23-1.87.47-.47.47-.16.86.16,1.33,1.02,1.33,2.26,2.34,3.28,3.67.47.47,1.02,1.48,2.11,1.17M71.19,98.13h.47c1.02-.39,1.64-1.25,2.26-2.03.16-.23-.08-.47-.39-.55-.86-.23-1.72-.47-2.5-.7-1.33-.39-2.73-.78-4.06-1.17-.86-.23-1.25,0-1.64,1.02-.31.7.08,1.02.55,1.25,1.56.7,3.2,1.41,4.76,2.11.16,0,.39.08.55.08M47.21,79.7c.08-.31-.16-.55-.39-.78-1.25-1.56-2.66-3.05-3.83-4.61-.86-1.17-1.72-1.95-3.28-1.25-.31.16-.7.08-.86.47-.08.39.23.62.47.86,1.48,1.41,3.05,2.89,4.61,4.3.7.62,1.25,1.33,2.11,1.8.7.39,1.17.16,1.17-.78M40.89,104.06c.94-.08,1.8.23,2.26-.39,1.17-1.41,2.19-2.97,3.28-4.45.31-.47.23-.86-.16-1.25-.31-.31-.7-.47-1.09-.16-2.11,1.8-4.22,3.67-6.4,5.47-.16.16-.23.31-.16.47.08.23.23.39.47.31.78-.23,1.41.16,1.8,0M63.22,80.79c0,.31.08.55.31.7.31.16.55-.08.78-.23,1.09-.78,2.19-1.64,3.28-2.42,1.56-1.17,3.12-2.34,4.69-3.51.16-.16.39-.31.31-.55-.08-.31-.31-.31-.55-.31-.39-.08-.78-.08-1.17-.23-.78-.31-1.25-.08-1.8.47-1.72,1.72-3.51,3.44-5.31,5.15-.31.16-.55.47-.55.94M66.5,73.37c-.55,0-.86.39-1.25.78-1.17,1.41-2.26,2.81-3.44,4.14-.31.39-.7.86-.31,1.41.39.55,1.17.62,1.72.08,1.72-1.72,3.44-3.44,5.23-5.08.23-.23.47-.47.31-.78s-.39-.39-.7-.39c-.55-.08-1.09-.16-1.56-.16M38.31,100.16c.08.47.16.94.31,1.48.23,1.02.55,1.09,1.33.47,1.64-1.41,3.2-2.73,4.84-4.06.47-.39.78-.78.39-1.41-.39-.62-.94-.62-1.48-.23-1.64,1.02-3.28,2.03-4.84,3.05-.47.16-.62.39-.55.7M64.78,95.94c-.62,0-.78.55-1.02.94-.23.31-.08.7.23,1.02,1.48,1.17,2.97,2.26,4.53,3.44.39.23.78.31,1.02-.23.23-.47.55-.94.86-1.41.39-.55.31-.86-.31-1.17-1.64-.78-3.28-1.56-4.92-2.34,0-.16-.23-.23-.39-.23M49.09,78.37c.08-.23-.08-.47-.23-.7-1.02-1.56-2.11-3.2-3.2-4.76-.16-.23-.39-.55-.78-.47-.55.16-1.17.08-1.72.16-.55,0-.7.31-.39.78,1.56,1.95,3.12,3.83,4.69,5.7.23.31.62.47,1.02.23.39-.08.7-.39.62-.94M38.23,99.22c.16-.08.39-.16.55-.23.62-.39,1.25-.78,1.87-1.17.94-.55,1.87-1.09,2.81-1.72.47-.31.7-.62.39-1.25-.23-.55-.62-.62-1.17-.47-1.33.47-2.73.94-4.14,1.41-2.66.86-2.19.39-1.02,2.89.08.16.16.23.23.31.23.08.39.16.47.23M36.36,96.02h.08c2.19-.55,4.3-1.41,6.48-2.19.39-.16.31-.55.31-.86-.08-.39-.31-.47-.62-.39-.86.08-1.72.23-2.66.39-1.8.31-3.51.55-5.31.86-.31.08-.7,0-.55.55.16.47,1.8,1.64,2.26,1.64M62.67,73.06c-.31.08-.78-.16-1.02.31-.78,1.41-1.56,2.81-2.26,4.3-.31.55-.08.86.55,1.09.62.23,1.02.08,1.41-.39.55-.62,1.17-1.33,1.72-1.95.62-.78,1.25-1.48,1.87-2.26.16-.23.39-.47.23-.78-.16-.23-.39-.16-.62-.16-.7,0-1.25-.08-1.87-.16M47.13,72.59c-.23.08-.62-.23-.78.16-.23.39.08.62.31.94.94,1.41,1.87,2.73,2.81,4.14.39.55.78.7,1.41.39.55-.31.62-.7.47-1.25-.08-.39-.16-.78-.31-1.17-.55-1.41-.86-3.2-2.97-3.2h-.94M64.47,104.77c.31-.08.62.16.78-.16.08-.16,0-.31-.16-.47-1.25-1.41-2.5-2.89-3.83-4.22-.62-.7-1.17.08-1.72.39-.47.31-.31.7-.08,1.17.47.78,1.02,1.64,1.48,2.42.08.16.31.23.39.23,1.09.23,2.19.47,3.12.62M45.02,103.91c.55-.08,1.17.16,1.72-.39.78-.94,1.33-1.95,1.72-3.05.23-.7-.31-1.25-1.02-1.09-.39.08-.7.31-.94.7-.7,1.02-1.48,2.03-2.19,3.05-.16.23-.55.47-.31.86.16.23.55.08.78.08,0-.16.08-.16.23-.16M60.33,72.9c-.7-.08-1.17.16-1.48.78-.47.94-1.02,1.87-1.56,2.81-.23.39-.55.86-.08,1.25.47.47,1.48.23,1.8-.31.62-1.17,1.33-2.42,1.87-3.67.31-.47.16-.94-.55-.86M50.96,101.41c.16-.62-.31-.94-.86-1.02-.47-.16-1.02-.08-1.33.55-.31.7-.78,1.33-1.17,2.03-.08.16-.23.23-.16.47s.31.16.47.16c.47-.08,1.02-.16,1.48-.23,1.33-.31,1.56-.62,1.56-1.95M57.83,100.86c-.31.16-1.02.08-1.02.7s.23,1.33.78,1.56,1.17.39,1.8.55c.23.08.47.23.62,0,.08-.16,0-.39-.08-.55-.39-.7-.86-1.33-1.33-1.87-.16-.31-.39-.39-.78-.39M51.43,102.03c-.08.16-.08.39.08.55.23.16.39,0,.55-.08.39-.16.7-.39,1.02-.55.23-.16.39-.47.16-.55-.39-.16-.86-.23-1.33-.23-.23,0-.47.39-.47.86M55.49,101.25c-.16.31-.86,0-.78.47.08.7.86.62,1.33.86.23.16.39-.08.39-.39.08-.7-.47-.7-.94-.94"/>
    <path class="st7" d="M22.77,84.38c-.16.23-.23.47-.16.7-.08.08-.16.23-.23.31,0,.08-.08.08-.08.16h0c-.08.08-.08.16-.16.23-.39.94-.16,1.8.55,2.58-.08.55.31.78.7,1.02.7,1.09,1.64,1.8,2.58,2.5,2.19,1.64,4.45,3.12,6.48,5.08,3.67,3.59,3.36,9.06-.86,11.95-.31.39-.62.31-1.02.23h0c-.08-.08-.08-.16-.16-.16-1.25-1.02-1.95-1.02-3.12.16-.23-.08-.47-.16-.62-.16.31-.86,1.02-1.25,1.87-1.41.23-.08.47,0,.62-.23,1.48-2.03,3.05-4.06,4.53-6.09.23-.31-.08-1.72-.47-1.8-.47-.16-.62.39-.86.7-2.34,2.73-4.61,5.47-6.87,8.2-.23-.08-.47-.16-.7-.16,0-1.64-.62-2.19-2.26-2.11.23-.31.16-.55-.23-.7-1.33-2.26-3.12-4.14-5.23-5.62-1.8-1.25-3.59-2.58-5.08-4.14-1.56-1.72-1.87-3.59-1.09-5.78.39-1.02.94-1.8,1.64-2.73-.39-.08-.78-.16-1.09-.23-.78-.08-1.02-.47-.7-1.17.62-.31,1.33-.62,1.56-1.41.47-1.33-.16-2.34-1.8-2.97.31,0,.7-.08.94-.39.23.08.47.16.62.31.47.55.78.31,1.09-.16.55-.7,1.09-1.33,1.72-2.03,2.97-3.36,5.62-6.95,9.06-9.84,2.58-2.19,5.31-4.06,8.82-4.53,3.2-.39,6.4-.78,9.61-.39,1.56.16,3.05.39,4.61.55-.7-1.8-1.41-2.34-3.12-2.5-.16,0-.31-.08-.47-.08.08-.16.16-.39.16-.55h.55q.08.08.16,0h.39c.31.31.7.08,1.02.16h0q.08.08.16.16h0q.08.08.16.16h0q.08.08.16.16c.08.08.16.08.16.16,0,.23,0,.47.31.55l.08.08q0,.08.08.16c.08.16.16.23.23.39q.08.08.16.16h0c0,.23,0,.47.31.55h0c0,.23.08.31.31.39.78,1.33,1.72,2.5,2.11,4.22-.7-.31-1.25-.62-1.95-.47.23.47.08,1.17.94,1.17,1.09.08,2.26.16,3.36.16s1.17-.08.78-1.17c0-.08-.08-.16-.08-.23-1.02-1.8-2.11-3.51-3.51-5.08-.86-.94-1.64-1.95-2.89-2.34.08-.16.08-.31.16-.47h.16c.55.23,1.25.31,1.64.86,1.8,1.64,3.44,3.44,4.69,5.78.86-3.51-.55-6.17-1.95-8.9.62.55,1.17,1.17,1.64,1.8.08.16.23.31.39.23.23-.08.16-.31.16-.47.23-1.8-.16-3.44-1.25-4.92-.23-.31-.39-.78-.62-1.17.62-.16.78.55,1.25.78.16.08.23.47.55.31.23-.08.16-.39.16-.62v-4.37c0-.62.08-1.25.16-1.87h.23c.08,1.09.16,2.19.16,3.28.08.94.08,1.87.16,2.81,0,.39.16.62.55.23.55-.47,1.17-.94,1.87-1.17v.23c-.16.23-.31.47-.55.7-1.72,1.56-2.11,3.51-1.87,5.62,0,.23,0,.55.23.62.23.08.31-.16.47-.31.47-.39.94-.86,1.41-1.25-.08.47-.31.78-.47,1.09-.47.86-1.09,1.56-1.41,2.5-.39,1.09-.08,2.19-.08,3.2,0,.55-.23,1.33.16,1.56s.86-.47,1.33-.7c.08,0,.16-.08.23-.08h0c.08.16,0,.31-.08.39-.47.7-.94,1.41-1.33,2.19-.39.7-.23.94.47,1.02,1.17.08,2.34.08,3.51.16.55,0,.78-.16,1.02-.7.7-1.72,1.56-3.28,2.66-4.76h.7c0,.16.16.16.23.16,3.28.08,6.48.47,9.68,1.02,2.89.47,5.62,1.17,8.28,2.34,2.26,1.02,4.22,2.5,5.94,4.3,1.8,1.87,3.2,4.06,4.69,6.09,1.64,2.26,3.12,4.53,5,6.56,0,.62.78.62.86,1.09.31.7.78,1.33,1.41,1.8.16.39.78.7,0,1.02-1.17.08-1.72.31-2.26.78,1.8,1.02,2.34,2.58,1.41,4.45-.39.7-.78,1.41-1.41,2.03-1.8,1.87-3.83,3.44-5.94,4.92-1.25.94-2.5,1.87-3.36,3.2-.23.39-.62.7-.47,1.25-.47.16-.55.7-1.02.86-1.02.39-1.33,1.17-1.33,2.19-.23.16-.47.31-.7.55,0-.39-.08-.78-.08-1.25,0-.39-.16-.55-.47-.7-2.97-1.56-5.94-3.12-8.82-4.69-.31-.16-.62-.39-.78.16-.16.39-.55.86.16,1.25,2.73,1.48,5.31,3.28,8.2,4.45.55.23,1.02.55,1.25,1.09-.16.16-.39.23-.62.23-1.25-1.25-2.42-1.09-3.36.55-.47-.08-.62.23-.78.55,0-.31-.23-.31-.47-.39-.62-.08-1.25-.23-1.87-.39-2.81-.78-4.14-2.97-3.67-5.94.39-2.34,1.8-3.83,3.59-5.15,2.58-1.87,5-3.83,7.42-5.78.94-.7,1.64-1.64,1.95-2.81.31-.23.55-.47.39-.94,1.02-.86,1.17-1.41.7-2.73.39-.08.39-.31.23-.55-.16-.23-.31-.47-.47-.7-.47-1.87-1.17-3.75-2.19-5.39-2.5-4.22-6.4-6.33-10.93-7.58-4.61-1.25-9.22-1.72-13.98-1.72s-9.68-.39-14.6-.55c-5.62-.08-10.86,1.25-15.46,4.53-2.66,1.8-5,3.9-6.17,7.03-.23.7-.7,1.56-.39,2.58M74,107.34c0-.08-.08-.16-.16-.08,0,.08.08.08.16.08.62,1.48,1.95,1.72,3.28,2.03-1.17-.62-2.11-1.56-3.28-2.03M14.33,96.64c.78.78,1.56,1.25,2.34,1.87.39.31.55.23.86-.08,2.11-2.03,4.3-3.98,6.4-6.01.39-.39.55-.62,0-1.02-.23-.16-.47-.39-.62-.62-.23-.31-.47-.31-.78-.08-2.66,2.03-5.39,3.98-8.2,5.94M22.45,89.93c0-.47-1.02-1.33-1.33-1.17-3.05,1.56-6.01,3.2-9.06,4.76-.47.23-.39.47-.16.78.47.55.94,1.02,1.41,1.56.31.31.55.31.94.08,2.58-1.87,5.15-3.67,7.73-5.54.23-.08.47-.23.47-.47M76.11,100c-.39.39-.78.78-1.17,1.09-.47.39-.55.62.16.94,2.73,1.41,5.39,2.81,8.12,4.3.7.39,1.25.7,1.8-.16.08-.16.31-.23.55-.31.39-.08.62-.31.62-.7,0-.47-.39-.47-.62-.55-2.97-1.48-5.86-2.97-8.82-4.37-.23-.08-.39-.16-.62-.23M28.94,95.08c-.31-.47-.94-.62-1.33-1.02-.39-.31-.62,0-.86.23-1.8,1.8-3.59,3.59-5.39,5.47-.39.47-1.17.86-1.17,1.33-.08.55.78.94,1.09,1.48s.62.55,1.02.08c2.11-2.34,4.22-4.69,6.33-7.03.08-.23.23-.31.31-.55M21.28,84.54c.31.08.47.08.55-.23,0-.47.08-.94.23-1.41.08-.39,0-.47-.31-.55-2.03-.78-4.06-1.56-6.09-2.26-.31-.16-.62-.08-.86.23-.47.62-1.02,1.17-1.48,1.8s-.31,1.02.39,1.17c2.5.39,5.08.78,7.58,1.25M25.81,107.03c0-.08.16-.23.23-.39,2.11-2.5,4.22-5.08,6.4-7.58.62-.78-.23-1.02-.55-1.48-.39-.47-.62-.31-.94.08-1.95,2.26-3.9,4.53-5.94,6.72-.62.7-.94,1.17,0,1.87.16.16.23.39.39.62,0,.08.08.16.39.16M83.76,94.14c.39.16.7.31,1.02.47,2.34.94,4.69,1.87,7.03,2.89,1.95.78,1.95.86,3.44-.62.31-.31.39-.47-.08-.62-3.2-1.09-6.33-2.26-9.53-3.36-.23-.08-.47-.08-.62.08-.39.39-.78.78-1.25,1.17M90.55,100.47c-.39-.16-.7-.31-1.02-.47-2.5-1.02-5-1.87-7.42-2.97-1.09-.47-1.8-.31-2.58.47-.39.31-.39.47.08.7,2.81,1.25,5.54,2.5,8.36,3.75.23.08.47.23.7.08.55-.55,1.17-1.02,1.87-1.56M30.89,96.8c-.16-.39-.47-.55-.7-.78-.47-.55-.86-.47-1.33.08-1.95,2.26-3.9,4.45-5.94,6.64-.7.78-.62,1.25-.08,1.95.39.55.7.55,1.09.08,2.19-2.5,4.37-5,6.64-7.5.08-.16.16-.31.31-.47M81.42,96.17c2.81,1.09,5.7,2.19,8.43,3.44,1.09.47,1.87.31,2.73-.47.39-.39.47-.55-.16-.78-2.5-1.02-5.08-1.87-7.5-3.05-1.48-.7-2.5-.47-3.44.7q0-.08-.08.16M76.73,99.61c.31.16.55.31.78.47,2.5,1.25,5,2.5,7.5,3.75q1.56.78,2.5-.62c.23-.31.23-.47-.16-.7-2.81-1.25-5.7-2.58-8.51-3.83-.31-.16-.62-.16-.86.08-.39.16-.78.47-1.25.86M26.67,93.52c-.47-.31-.86-.7-1.33-1.02-.31-.23-.55,0-.78.23-1.95,1.8-3.83,3.59-5.78,5.39-1.09,1.02-1.09.94,0,1.95.55.47.94.47,1.41,0,1.95-2.03,3.98-4.06,6.01-6.01.16-.16.31-.31.47-.55M96.72,95c-.08,0-.16-.08-.23-.08-1.8.08-2.66-.47-3.05-2.26-.08-.47-.39-.47-.62-.55-1.64-.47-3.28-.94-5-1.41-1.33-.39-1.33-.31-1.95.86-.23.47-.23.7.31.86,3.05,1.02,6.09,2.11,9.14,3.2.78.31,1.17.08,1.41-.62M98.13,88.29c-.47-.62-.86-1.25-1.17-1.87-.23-.47-.78-.86-1.48-.78-2.34.23-4.69.31-7.03.47-.23,0-.86-.31-.78.31.08.47-.16,1.09.78,1.17,2.66.23,5.31.55,7.97.78.55.08,1.09.16,1.72-.08M11.68,86.1c1.25.08,2.19.86,3.36.78,1.72-.08,3.44-.08,5.15-.08.7,0,1.33-.86,1.17-1.48-.08-.16-.16-.16-.31-.23-2.42-.39-4.92-.86-7.34-1.25-.31-.08-.55,0-.62.39-.23.7-.78,1.25-1.41,1.87M17.93,76.65c-.16.16-.31.23-.47.39-.47.55-.94,1.17-1.48,1.72-.47.47-.31.7.23.86,1.48.55,2.89,1.09,4.37,1.64,1.64.62,1.56.62,2.34-.94.23-.47.16-.62-.23-.94-1.48-.86-2.89-1.72-4.37-2.58-.08,0-.23-.08-.39-.16M31.44,65.72c-.7.23-1.48.39-2.19.7-.31.16-.62.47-.23.86.78,1.09,1.56,2.19,2.34,3.2q1.09,1.48,2.81.86c.55-.23.62-.39.39-.94-.86-1.41-1.64-2.89-2.42-4.3-.23-.31-.39-.47-.7-.39M25.11,69.23c-.08.08-.23.08-.31.23-.55.47-1.09.94-1.64,1.33-.47.39-.39.7.08,1.09.86.7,1.72,1.41,2.58,2.11,1.64,1.41,1.64,1.33,3.28.08.31-.23.31-.39.08-.62-1.17-1.25-2.34-2.58-3.51-3.9-.16-.16-.23-.31-.55-.31M96.41,88.99c-2.58-.23-5-.47-7.42-.78-1.02-.16-1.41.16-1.8,1.02-.23.62-.08.62.39.78,1.56.47,3.12.86,4.69,1.33.7.23,1.33.31,1.64-.55.16-.39.55-.55.86-.78.55-.23,1.02-.62,1.64-1.02M32.53,65.56c.7,1.25,1.33,2.34,1.95,3.51,1.02,1.8,1.02,1.72,2.89,1.17.39-.16.47-.31.31-.7-.39-1.33-.86-2.73-1.25-4.14-.08-.39-.31-.55-.7-.47-1.02.31-2.11.31-3.2.62M27.92,67.2c-.55.31-1.09.78-1.64,1.09-.47.31-.47.55-.08.94.94.94,1.8,1.95,2.66,2.97q1.09,1.17,2.5.39c.47-.23.55-.47.23-.86-1.02-1.41-2.03-2.81-3.12-4.22-.08-.08-.23-.31-.55-.31M87.59,74.07c-.08-.08-.16-.23-.23-.31-.47-.62-1.02-1.17-1.64-1.72-.31-.31-.55-.31-.86,0-.86.86-1.72,1.72-2.58,2.58-.55.55-.78,1.02.08,1.48.31.16.55.47.7.7.16.23.31.31.62.08,1.17-.86,2.42-1.72,3.59-2.58.16.08.31,0,.31-.23M38.86,64.86c-.31,0-.86.08-1.41.08-.39,0-.55.08-.39.55.23.78.47,1.64.78,2.42.23.62.16,1.56.7,1.95s1.41-.16,2.11-.08c.55.08.7-.23.62-.78-.16-.94-.39-1.87-.55-2.81-.31-1.56,0-1.33-1.87-1.33M81.81,69.39c0-.23-.16-.23-.23-.31-.78-.39-1.64-.7-2.5-1.02-.39-.16-.47.23-.62.47-.47.86-.94,1.72-1.33,2.58q-.78,1.48.7,2.19c.55.23.78.16,1.17-.31.86-1.09,1.72-2.11,2.58-3.2.08-.16.16-.31.23-.39M24.8,77.59c-.16-.16-.31-.23-.47-.39-.94-.7-1.87-1.33-2.81-2.03q-1.56-1.17-2.81.39c-.31.47-.31.62.16.94,1.33.7,2.58,1.56,3.9,2.26.23.16.55.62.86.31.47-.39.78-.94,1.17-1.48M84.7,71.26c0-.08-.08-.16-.16-.23-.62-.47-1.25-.86-1.87-1.33-.23-.16-.39,0-.47.16-.94,1.17-1.87,2.34-2.81,3.51-.16.23-.23.39.08.55.47.31.94.55,1.41.86.31.16.47.23.7-.08.94-1.02,1.95-2.03,2.89-2.97.08-.08.23-.23.23-.47M26.83,75.71c-.23-.23-.31-.31-.47-.47-.94-.78-1.87-1.56-2.81-2.34-1.48-1.25-1.48-1.17-2.73.31-.31.39-.31.55.08.78,1.17.78,2.34,1.64,3.44,2.5.7.62,1.17.62,1.72-.16.23-.23.55-.39.78-.62M80.4,108.2c-2.34-1.33-4.61-2.66-6.87-3.9-.47,1.25-.31,1.72.62,2.42,1.41.86,2.73,1.8,4.14,2.66.23.16.47.47.7,0,.31-.55.78-.78,1.41-1.17M95.71,85.01c-.62-.78-1.17-1.48-1.64-2.11-.16-.23-.39-.39-.7-.23-1.87.7-3.75,1.33-5.62,2.03-.23.08-.55.16-.47.55.08.31.31.31.55.23,2.58-.16,5.15-.31,7.89-.47M89.46,76.65c-.16-.62-.7-1.09-1.09-1.56-.23-.31-.39-.39-.78-.08-.86.62-1.72,1.25-2.58,1.87-1.25.86-1.17.86-.39,2.19.31.47.55.55,1.02.23,1.09-.7,2.26-1.33,3.36-1.95.23-.23.55-.31.47-.7M91.49,79.46c-.08-.08-.08-.23-.16-.31-.39-.47-.7-1.02-1.09-1.48-.23-.31-.47-.23-.7-.08-1.25.78-2.5,1.48-3.75,2.26-.39.23-.39.39-.16.7.16.23.31.55.39.86.16.39.31.39.7.23,1.48-.62,2.97-1.25,4.45-1.87.08,0,.31-.08.31-.31M87.2,84.15c.23-.08.47-.16.62-.23,1.33-.47,2.73-.94,4.06-1.48,1.41-.55,1.48-.55.55-1.8-.16-.23-.23-.7-.78-.47-1.64.7-3.2,1.41-4.84,2.03-.55.23-.16.62-.08.86.08.47.08.94.47,1.09M76.03,67.12c-.39-.16-.55.16-.62.47-.39.86-.78,1.64-1.25,2.5-.7,1.56-.7,1.48.94,2.03.55.16.78.08,1.02-.39.39-.78.78-1.56,1.25-2.26.86-1.87.7-2.11-1.33-2.34M43.38,69.54c-.08,0,.08,0,.23,0,1.09,0,1.09-.08.86-1.17-.16-.78-.31-1.56-.39-2.42-.08-.55-.23-.86-.86-.86-.55,0-1.09-.08-1.64-.16-.47-.08-.55.16-.47.55.16.94.31,1.8.47,2.73q.31,1.41,1.8,1.33M33.94,101.8c-1.41,1.87-2.66,3.59-3.98,5.31-.23.31-.16.39.16.7.78.7,1.33.39,1.95-.16,1.72-1.41,2.58-3.83,1.87-5.86M75.01,66.81c-.7-.16-1.33-.23-1.95-.39-.47-.16-.7.08-.86.47-.31.86-.7,1.72-1.09,2.58q-.62,1.48.94,1.8c.39.08.78.16,1.02-.39.62-1.25,1.25-2.58,1.95-4.06M71.81,66.26c-.78-.16-1.48-.23-2.19-.39-.39-.08-.55.16-.62.47-.31.86-.55,1.72-.86,2.58q-.47,1.48,1.02,1.8c.31.08.62.23.86-.31.62-1.33,1.25-2.66,1.8-4.14M64.47,65.56c-.86-.23-1.25.16-1.41,1.09-.16.7-.39,1.33-.55,2.03-.39,1.41-.39,1.33,1.09,1.41.78.08,1.09-.23,1.25-.94.23-.94.47-1.87.78-2.73.23-.7.16-.94-.62-.86-.08,0-.23,0-.55,0M46.43,69.54c.39-.08,1.25.39.78-.7s-.39-1.09.78-1.17c.16,0,.47.16.55-.16.08-.39-.86-1.72-1.25-1.8-.7-.16-1.48-.23-2.19-.31-.39-.08-.47.08-.39.47.16.86.31,1.8.47,2.66,0,.78.31,1.25,1.25,1.02M15.74,89.38c0-1.02-.86-1.87-1.87-1.87-.94,0-1.72.86-1.72,1.8,0,1.02.86,1.87,1.8,1.87,1.02,0,1.8-.78,1.8-1.8M94.3,92.27c0,1.09.7,1.87,1.72,1.95,1.02,0,1.8-.78,1.8-1.8s-.78-1.87-1.8-1.87c-1.02-.08-1.72.62-1.72,1.72M16.29,90.63c1.72-.86,3.2-1.64,4.69-2.42.16-.08.31-.23.23-.47-.08-.31-.23-.39-.55-.39-1.56.08-3.12,0-4.76.23.55.86.86,1.8.39,3.05M66.58,70.32c.39.16.55-.16.7-.55.31-1.02.7-1.95,1.02-2.97.08-.31.55-.78-.08-1.02-.78-.31-1.64-.08-1.8.47-.31.94-.55,1.87-.78,2.73-.47,1.17-.39,1.25.94,1.33M62.75,65.56c-.55.08-.62.47-.78.7-.55.94-1.02,1.95-1.56,2.89-.08.23-.47.55,0,.7.31.16.94.31,1.09-.23.55-1.25.86-2.66,1.25-4.06M11.44,90.47c-.31.7-.23,1.48-.23,2.19,0,.31.08.62.55.39.62-.31,1.17-.62,1.95-1.02-1.17-.16-1.64-.86-2.26-1.56"/>
    <path class="st7" d="M84.07,109.14c.23-.16.47-.39.7-.55.08.16.16.23.16.39.31.78,1.09,1.33,1.8,1.17,1.02-.23,1.56-.86,1.64-1.87,0-1.33-.78-1.95-2.26-1.87.47-.16.55-.7,1.02-.86.47.23,1.02.7,1.41.55.47-.16.78-.78,1.17-1.25.23-.23.47-.47.7-.7,2.34-2.42,5.15-4.3,7.89-6.25,1.17-.86,2.11-1.87,2.81-3.2,1.17-2.19,1.25-4.69-1.87-5.94.78-.31.23-.7,0-1.02.16-.08.31,0,.47,0,1.25.16,2.26-.78,2.26-2.03s-.94-2.26-2.11-2.26c-1.25,0-2.11.94-2.03,2.5-.08-.55-.86-.55-.86-1.09.23-.39.47-.86.78-1.17.39-.39.23-.62-.08-.94-.94-.94-1.8-2.03-2.66-3.12-2.03-2.5-3.75-5.31-5.7-7.89-3.98-5.23-9.14-8.12-15.62-8.36-2.58-.08-5.15-.16-7.65-.31-1.25-.08-2.26,0-2.89,1.25h-.7c.47-.7,1.02-1.48,1.56-2.26-2.58.23-4.92,1.09-7.03,2.5.08-.86.08-.94.39-1.48,1.41-2.42,3.44-4.3,5.7-5.94.23-.16.55-.23.47-.55-.08-.23-.39-.31-.62-.39-1.17-.39-2.34-.47-3.51-.39-.55,0-.78,0-.62-.7.39-1.87.78-3.75.94-5.62.08-.7-.16-.78-.7-.62-.94.31-1.8.86-2.73,1.25-.31-2.5-1.25-4.61-2.73-6.4-.39-.47-.62-.62-1.09,0-1.17,1.56-2.11,3.12-2.34,5.15-.86-.7-1.64-1.25-2.5-1.95-.16,1.41-.16,2.58-.39,3.75-.31,1.64-.23,3.05,1.09,4.37-.55-.08-.94-.08-1.25-.08-1.02-.16-2.03-.16-2.97.08-.16,0-.39.08-.47.23-.08.16.08.39.23.39.62.23.94.86,1.41,1.25.08.08.16.16.23.23h0c0,.16.08.16.16.16h0c.16.16.23.31.39.47l.39.39c.16.16.31.31.47.47q.08.08.16.16c.08.08.16.23.31.31.47.7,1.02,1.33,1.17,2.11-.47-.55-1.09-.62-1.64-.86.16-.08.78.23.31-.39-1.17-1.56-2.58-2.81-4.06-3.98-.78-.62-.78-.78.16-1.25,1.17-.55,2.34-.31,3.67-.39-.94-1.56-.23-3.12-.16-4.69.08-.94.08-1.95.23-2.89,0-.23-.08-.55.23-.62.23-.08.47.08.7.31.47.39.94.7,1.33,1.09.39.31.47.31.7-.23.55-1.72,1.56-3.12,2.73-4.53.39-.47.55-.31.86,0,1.56,1.64,2.73,3.51,3.2,5.78.16.62.39.7.94.39.7-.39,1.41-.55,2.19-.78.7-.23.78.08.78.62-.08,1.87-.39,3.67-.78,5.47-.16.86,0,1.02.78,1.02,1.25,0,2.5.16,3.59.94.55.39.55.62,0,1.02-1.87,1.25-3.59,2.66-5.15,4.37-.39.39-.7.78-.86,1.56,2.34-1.09,4.69-1.72,7.18-1.72.08.39-.47.47-.39.86.39.16.78.16,1.17.16,2.89.16,5.78.16,8.67.39,5.94.47,10.78,3.12,14.53,7.81,2.34,2.89,4.22,6.17,6.64,9.06.7.86,1.33,1.64,2.03,2.5.47.55.94.86,1.72.7,1.33-.23,2.58.78,2.97,2.11.31,1.25-.31,2.58-1.48,3.2-.23.08-.47.16-.7.31,2.5,2.19,2.73,4.69.62,7.58-.94,1.33-2.19,2.26-3.51,3.2-2.81,1.95-5.62,4.06-7.89,6.72-.47.55-.78,1.02-.55,1.8.31,1.09-.31,2.11-1.33,2.66-1.02.55-2.03.39-2.89-.39-.62-.16-.78-.55-1.02-.94h0M58.14,63.22l-.16-.16-.08.08c0,.08,0,.16.08.23,0-.08.08-.08.16-.16"/>
    <path class="st7" d="M24.72,108.12c.23.08.47.16.7.16v.31c-.62,1.17-1.56,1.87-2.97,1.64-1.25-.23-2.19-1.48-1.95-2.73.16-.7-.16-1.09-.55-1.56-1.64-1.8-3.59-3.28-5.54-4.69-2.26-1.64-4.61-3.2-6.48-5.31-2.11-2.34-2.34-5.86-.7-8.28.47-.7,1.33-.94,2.03-1.41-1.09-.47-1.87-1.25-1.95-2.42-.16-1.8.86-3.05,2.58-3.28.47-.08.78-.23,1.02-.62,3.44-4.37,6.79-8.75,10.46-12.96,3.05-3.44,6.79-5.39,11.4-5.7,3.59-.23,7.18,0,10.7.39-.08.16-.16.39-.16.55-1.41-.08-2.89-.16-4.3-.31-3.36-.31-6.64,0-9.92.7-3.05.7-5.15,2.73-7.18,4.92-3.67,3.98-6.87,8.28-10.23,12.57-.16.23-.47.39-.31.78-.23.31-.55.31-.94.39-.7,0-1.41.16-1.95.7-.55.62-.78,1.64-.47,2.34.47,1.02,1.25,1.41,2.66,1.33-.31.7-.08,1.09.7,1.17-1.87,0-3.59.47-4.22,2.58-.62,1.95-.23,3.83.86,5.54,1.17,1.72,2.81,2.89,4.45,4.14,2.5,1.8,5.08,3.59,7.34,5.78.39.39.62.86,1.09,1.09.55.23.86-.55,1.41-.62.39.16.47.39.23.7-.55.23-1.02.62-1.17,1.17-.31.94.23,2.03,1.09,2.34.86.31,1.8-.23,2.26-1.41"/>
    <path class="st7" d="M57.52,110.7c-.08.39.23.94-.39,1.25-.23-.47-.23-.94-.31-1.41-.08-.78-.86-.62-1.33-.86-.47-.16-.39.39-.47.62-.47,1.41-.86,2.89-1.41,4.53-.47-1.41-.86-2.66-1.25-3.9-.23-.7-.47-1.17-1.25-.78.08-.47.47-.47.78-.47.55-.08,1.02-.16,1.48-.39,1.64-.86,3.2,0,4.14,1.25,0,.08,0,.16,0,.16"/>
    <path class="st7" d="M45.57,61.81c-.31,0-.7.16-1.02-.16-.16-.47-.55-.7-.86-1.17,1.02-.31,1.95-.31,2.89,0-.08.16-.08.31-.16.47h-1.33c.23.47.55.55.47.86"/>
    <path class="st7" d="M44.24,61.73c-.08.08-.16.08-.16,0h.16"/>
    <path class="st7" d="M78.68,111.25c0-.08-.08-.23-.08-.31.16.08.23.16.08.31"/>
    <path class="st7" d="M47.13,63.76c.23.08.31.31.31.55-.31,0-.31-.23-.31-.55"/>
    <path class="st7" d="M46.27,62.52c.23.08.39.23.31.55-.31,0-.31-.31-.31-.55"/>
    <path class="st7" d="M47.52,64.31c.16.08.31.16.31.39-.23-.08-.31-.16-.31-.39"/>
    <path class="st7" d="M45.81,62.05q.08.08.16.16c-.08-.08-.16-.08-.16-.16"/>
    <path class="st7" d="M45.96,62.2q.08.08.16.16c-.08,0-.08-.08-.16-.16"/>
    <path class="st7" d="M45.57,61.81q.08.08.16.16s-.08-.08-.16-.16"/>
    <path class="st7" d="M46.66,63.14c.08,0,.08.08.08.16q-.08-.08-.08-.16"/>
    <path class="st7" d="M46.98,63.61q.08.08.16.16s-.08-.08-.16-.16"/>
    <path class="st7" d="M22.38,85.4c0,.08-.08.08-.08.16,0,0,.08-.08.08-.16"/>
    <path class="st7" d="M22.3,85.63c-.08.08-.08.16-.16.23,0-.16.08-.16.16-.23"/>
    <path class="st7" d="M30.58,109.14c-.08-.08-.08-.16-.16-.16,0,.08.08.16.16.16"/>
    <path class="st7" d="M61.58,86.02c-.62.23-1.17.31-1.72.23-.94-.08-1.72.31-2.42.7-.7.31-1.09,1.95-.78,3.12.08.39.31.78.47,1.25.23.7.16,1.25-.55,1.64-1.25.78-2.34.78-3.51-.16-.16-.16-.31-.39-.47-.62-.08-.23-.16-.47.08-.62.23-.23.39.16.55.23,1.17,1.02,1.56,1.09,2.66.47.47-.23.55-.55.23-.94-.23-.39-.39-.78-.62-1.17-.08-.16-.23-.39-.16-.55.62-.86.39-1.87.7-2.73.23-.55.62-.86,1.17-1.09,1.02-.31,2.11-.39,3.12-.31.39,0,.86.08,1.25.55"/>
    <path class="st7" d="M50.57,86.96c.31,0,.62,0,.94.08,1.02.23,1.41,1.41.78,2.26-.08.16-.23.31-.31.39-.31.31-.62,1.02-1.02.78-.47-.23-.94-.7-1.02-1.41,0-.55-.31-.94-.86-1.02-.23-.08-.55-.08-.47-.39,0-.23.23-.39.47-.47.47-.23.94-.23,1.48-.23"/>
    <path class="st7" d="M58.77,89.69c-.7,0-1.17-.39-1.64-.86-.39-.47-.31-1.02.16-1.41.86-.7,2.66-.55,3.51.16.16.16.47.23.39.55-.08.31-.39.39-.62.39-.62,0-1.33-.23-1.09.94.08.39-.47.16-.7.23"/>
    <path class="st7" d="M53.85,94.69c1.25.08,2.11.08,3.05.39.31.08.7.08,1.02-.08s.55-.16.62.16c.08.31-.16.47-.47.55-.7.08-1.41.31-2.11.16-.62-.16-1.17-.08-1.8.08-1.02.31-1.95-.08-2.89-.47-.16-.08-.31-.23-.23-.39s.23-.23.39-.23c.94.08,1.8-.23,2.42-.16"/>
    <path class="st7" d="M50.34,85.24c.94-.08,1.8.47,2.81.7.7.23.86,1.87.31,2.34-.39.31-.47,0-.47-.31.08-.7-.31-1.09-.94-1.25-.78-.23-1.41-.94-2.34-1.02-.16,0-.47-.08-.39-.31,0-.23.23-.16.39-.23.16,0,.31,0,.62.08"/>
    <path class="st7" d="M53.62,96.88c.7-.16,1.33-.23,1.95-.39.23-.08.55-.08.62.23.08.31-.16.55-.39.7-.7.47-1.41.39-2.19-.55"/>
    <path class="st7" d="M80.48,110.15c0,.62.08,1.17.47,1.8-.55,0-.78-.31-.86-.62-.08-.39-.08-.78.39-1.17"/>
    <path class="st7" d="M28.47,111.33c-1.09-.78-1.02-1.41.31-2.26-.39.86-.62,1.48-.31,2.26"/>
    <path class="st7" d="M56.11,66.26c.08,0,.08-.08,0,0l.08-.08-.08.08h0"/>
    <path class="st7" d="M10.19,82.27c-.78.78-.7,1.64-.55,2.58-.78-.23-1.17-.55-1.09-1.33.08-.86.55-1.25,1.64-1.25"/>
    <path class="st7" d="M11.6,84.38c0,.23-.16.31-.39.39-.16,0-.31-.08-.39-.31s.08-.39.31-.39c.23-.08.39.08.47.31"/>
    <path class="st7" d="M99.54,84.69c-.23.86-.39,1.48-.23,2.19,0,.16,0,.31-.16.39-.16,0-.23-.08-.31-.23-.78-.86-.7-1.25.7-2.34"/>
    <path class="st7" d="M100.63,86.57c0-.23,0-.39.31-.47.23,0,.31.16.31.31,0,.23,0,.47-.23.47-.31.16-.39-.08-.39-.31"/>
    <path class="st7" d="M22.53,108.98c-.62-.31-1.02-.62-.86-1.17.08-.47.39-.86,1.09-1.17-.55.86-.55,1.56-.23,2.34"/>
  </g>
</svg>