<?xml version="1.0" encoding="UTF-8"?>
<svg id="Layer_1" xmlns="http://www.w3.org/2000/svg" version="1.1" viewBox="0 0 109.6 176.97">
  <!-- Generator: Adobe Illustrator 30.2.1, SVG Export Plug-In . SVG Version: 2.1.1 Build 1)  -->
  <defs>
    <style>
      .st0 {
        fill: #1d1c1a;
      }

      .st1 {
        fill: none;
        stroke: #1d1c1a;
        stroke-miterlimit: 10;
        stroke-width: 1.26px;
      }

      .st2 {
        fill: #fff;
      }

      .st3 {
        fill: #fddb00;
      }
    </style>
  </defs>
  <rect class="st2" x="-.83" y="-.4" width="110.69" height="177.1"/>
  <g>
    <path class="st0" d="M13.16,7.67l-3.83,8.98h-1.41v-.47l3.44-7.03v-.08h-3.05c-.23,0-.39,0-.47.08-.16,0-.23.08-.31.16s-.16.16-.16.31c-.08.08-.08.31-.16.55h-.78l.16-2.89h6.56v.39Z"/>
    <path class="st0" d="M96.88,169.09l3.83-8.98h1.41v.47l-3.44,7.03v.08h3.05c.23,0,.39,0,.47-.08.16,0,.23-.08.31-.16s.16-.16.16-.31c.08-.08.08-.31.16-.55h.78l-.16,2.89h-6.56v-.39Z"/>
    <polygon class="st1" points="81.03 171.2 63.3 171.2 48.23 171.2 30.5 171.2 19.02 171.2 3.48 171.2 3.48 5.09 18.47 5.09 30.5 5.09 48.23 5.09 63.3 5.09 81.03 5.09 91.65 5.09 105.55 5.09 105.55 171.2 91.49 171.2 81.03 171.2"/>
    <path class="st3" d="M83.6,53.28c-9.22,0-16.63-7.5-16.63-16.63s7.5-16.63,16.63-16.63,16.63,7.42,16.63,16.63c0,9.22-7.5,16.63-16.63,16.63"/>
    <path class="st0" d="M66.5,36.64c0-9.37,7.65-17.02,17.02-17.02s17.02,7.65,17.02,17.02-7.65,17.02-17.02,17.02-17.02-7.65-17.02-17.02M99.85,36.64c0-8.98-7.34-16.24-16.24-16.24s-16.24,7.34-16.24,16.24,7.34,16.24,16.24,16.24,16.24-7.26,16.24-16.24"/>
    <path class="st0" d="M69.94,36.64c0-7.5,6.09-13.67,13.67-13.67s13.67,6.09,13.67,13.67-6.09,13.67-13.67,13.67-13.67-6.17-13.67-13.67M96.72,36.64c0-7.26-5.86-13.12-13.12-13.12s-13.12,5.86-13.12,13.12,5.86,13.12,13.12,13.12,13.12-5.86,13.12-13.12"/>
    <path class="st0" d="M83.53,43.9c-3.98,0-7.26-3.2-7.26-7.26s3.2-7.26,7.26-7.26,7.26,3.2,7.26,7.26-3.28,7.26-7.26,7.26M96.57,36.49l-5.08-1.56,4.06-3.44-5.31.55,2.42-4.76-4.69,2.5.39-5.31-3.36,4.14-1.64-5.08-1.56,5.08-3.44-4.06.55,5.31-4.69-2.42,2.5,4.69-5.31-.39,4.06,3.36-5.08,1.64,5.08,1.56-3.9,3.51,5.31-.55-2.42,4.76,4.69-2.5-.39,5.31,3.36-4.14,1.64,5.08,1.56-5.08,3.44,4.06-.55-5.31,4.69,2.42-2.5-4.69,5.31.39-4.06-3.36,4.92-1.72Z"/>
    <path class="st0" d="M82.43,35.47s-.7-3.51-2.97-5c-1.56,1.33-1.87,1.8-1.87,1.8,0,0,1.72,2.11,4.84,3.2"/>
    <path class="st0" d="M84.54,37.97s.7,3.51,2.97,5c1.56-1.33,1.87-1.8,1.87-1.8,0,0-1.72-2.19-4.84-3.2"/>
    <path class="st0" d="M82.51,37.97s-3.51.7-5,2.97c1.33,1.56,1.8,1.87,1.8,1.87,0,0,2.11-1.8,3.2-4.84"/>
    <path class="st0" d="M84.85,35.55s3.51-.7,5-2.97c-1.33-1.56-1.8-1.87-1.8-1.87,0,0-2.11,1.8-3.2,4.84"/>
    <path class="st0" d="M90.32,39.06s-2.11-1.64-2.97-1.95c1.95-1.02,2.66-1.72,3.12-2.11.47,2.19.08,3.36-.16,4.06M90.4,33.91l-.39.23c-.47.62-1.02.86-4.37,2.81,1.64.31,4.37,3.05,4.37,3.05,2.03-2.73.39-6.09.39-6.09"/>
    <path class="st0" d="M76.81,34.61s2.03,1.64,2.89,2.03c-1.87,1.09-2.58,1.72-2.97,2.19-.47-2.34-.16-3.44.08-4.22M76.73,39.84l.31-.23c.47-.62,1.02-.94,4.22-2.89-1.56-.31-4.37-3.28-4.37-3.28-1.87,2.73-.16,6.4-.16,6.4"/>
    <path class="st0" d="M85.79,29.77s-1.64,2.03-2.03,2.89c-1.09-1.87-1.72-2.58-2.19-2.97,2.34-.47,3.51-.16,4.22.08M80.64,29.69l.23.31c.62.47.94,1.02,2.89,4.22.31-1.56,3.05-4.22,3.05-4.22-2.81-1.8-6.17-.31-6.17-.31"/>
    <path class="st0" d="M81.57,43.9s1.64-1.8,2.03-2.58c1.09,1.72,1.72,2.26,2.19,2.66-2.34.39-3.44.08-4.22-.08M86.81,43.9l-.23-.31c-.62-.39-.94-.86-2.89-3.75-.31,1.41-3.05,3.75-3.05,3.75,2.81,1.72,6.17.31,6.17.31"/>
    <path class="st3" d="M24.02,53.28c-9.22,0-16.63-7.5-16.63-16.63s7.42-16.63,16.63-16.63,16.63,7.42,16.63,16.63c.08,9.22-7.42,16.63-16.63,16.63"/>
    <path class="st0" d="M6.99,36.64c0-9.37,7.65-17.02,17.02-17.02s17.02,7.65,17.02,17.02-7.65,17.02-17.02,17.02-17.02-7.65-17.02-17.02M40.34,36.64c0-8.98-7.34-16.24-16.24-16.24S7.77,27.66,7.77,36.64s7.34,16.24,16.24,16.24,16.32-7.26,16.32-16.24"/>
    <path class="st0" d="M10.43,36.64c0-7.5,6.09-13.67,13.67-13.67s13.67,6.09,13.67,13.67-6.09,13.67-13.67,13.67-13.67-6.17-13.67-13.67M37.14,36.64c0-7.26-5.86-13.12-13.12-13.12s-13.12,5.86-13.12,13.12,5.86,13.12,13.12,13.12,13.12-5.86,13.12-13.12"/>
    <path class="st0" d="M24.02,43.9c-3.98,0-7.26-3.2-7.26-7.26s3.2-7.26,7.26-7.26,7.26,3.2,7.26,7.26-3.28,7.26-7.26,7.26M37.06,36.49l-5.08-1.56,4.06-3.44-5.31.55,2.42-4.76-4.69,2.5.39-5.31-3.36,4.14-1.64-5.08-1.56,5.08-3.36-3.98.55,5.31-4.69-2.42,2.5,4.69-5.31-.39,4.06,3.36-5.08,1.64,5.08,1.56-3.98,3.44,5.31-.55-2.42,4.76,4.69-2.5-.39,5.31,3.36-4.14,1.64,5.08,1.56-5.08,3.44,4.06-.7-5.39,4.69,2.42-2.5-4.69,5.31.39-4.06-3.36,5.08-1.64Z"/>
    <path class="st0" d="M22.85,35.47s-.7-3.51-2.97-5c-1.56,1.33-1.87,1.8-1.87,1.8,0,0,1.8,2.11,4.84,3.2"/>
    <path class="st0" d="M25.03,37.97s.7,3.51,2.97,5c1.56-1.33,1.87-1.8,1.87-1.8,0,0-1.8-2.19-4.84-3.2"/>
    <path class="st0" d="M22.92,37.97s-3.51.7-5,2.97c1.33,1.56,1.8,1.87,1.8,1.87,0,0,2.19-1.8,3.2-4.84"/>
    <path class="st0" d="M25.34,35.55s3.51-.7,5-2.97c-1.33-1.56-1.8-1.87-1.8-1.87,0,0-2.19,1.8-3.2,4.84"/>
    <path class="st0" d="M30.81,39.06s-2.11-1.64-2.97-1.95c1.95-1.02,2.66-1.72,3.12-2.11.39,2.19.08,3.36-.16,4.06M30.89,33.91l-.39.23c-.47.62-1.02.86-4.37,2.81,1.64.31,4.37,3.05,4.37,3.05,1.95-2.73.39-6.09.39-6.09"/>
    <path class="st0" d="M17.3,34.61s2.03,1.64,2.89,2.03c-1.87,1.09-2.58,1.72-2.97,2.19-.47-2.34-.16-3.44.08-4.22M17.22,39.84l.31-.23c.47-.62,1.02-.94,4.22-2.89-1.56-.31-4.37-3.28-4.37-3.28-1.87,2.73-.16,6.4-.16,6.4"/>
    <path class="st0" d="M26.28,29.77s-1.64,2.03-2.03,2.89c-1.09-1.87-1.72-2.58-2.19-2.97,2.34-.47,3.51-.16,4.22.08M21.05,29.69l.23.31c.62.47.94,1.02,2.89,4.22.31-1.56,3.05-4.22,3.05-4.22-2.73-1.8-6.17-.31-6.17-.31"/>
    <path class="st0" d="M22.06,43.9s1.64-1.8,2.03-2.58c1.09,1.72,1.72,2.26,2.19,2.66-2.34.39-3.51.08-4.22-.08M27.3,43.9l-.23-.31c-.62-.39-.94-.86-2.89-3.75-.31,1.41-3.05,3.75-3.05,3.75,2.73,1.72,6.17.31,6.17.31"/>
    <path class="st3" d="M83.6,121.84c-9.22,0-16.63-7.42-16.63-16.63s7.5-16.63,16.63-16.63,16.63,7.42,16.63,16.63c0,9.22-7.5,16.63-16.63,16.63"/>
    <path class="st0" d="M66.5,105.21c0-9.37,7.65-17.02,17.02-17.02s17.02,7.65,17.02,17.02-7.65,17.02-17.02,17.02-17.02-7.65-17.02-17.02M99.85,105.21c0-8.98-7.34-16.24-16.24-16.24s-16.24,7.34-16.24,16.24,7.34,16.24,16.24,16.24,16.24-7.26,16.24-16.24"/>
    <path class="st0" d="M69.94,105.21c0-7.5,6.09-13.67,13.67-13.67s13.67,6.09,13.67,13.67-6.09,13.67-13.67,13.67-13.67-6.17-13.67-13.67M96.72,105.21c0-7.26-5.86-13.12-13.12-13.12s-13.12,5.86-13.12,13.12,5.86,13.12,13.12,13.12,13.12-5.86,13.12-13.12"/>
    <path class="st0" d="M83.53,112.47c-3.98,0-7.26-3.2-7.26-7.26s3.2-7.26,7.26-7.26,7.26,3.2,7.26,7.26-3.28,7.26-7.26,7.26M96.57,105.05l-5.08-1.56,4.06-3.44-5.31.55,2.42-4.76-4.69,2.5.39-5.31-3.36,4.14-1.64-5.08-1.56,5.08-3.44-4.06.55,5.31-4.69-2.42,2.5,4.69-5.31-.39,4.06,3.36-5.08,1.64,5.08,1.56-4.06,3.44,5.31-.55-2.42,4.76,4.69-2.5-.39,5.31,3.36-4.14,1.64,5.08,1.56-5.08,3.44,4.06-.55-5.31,4.69,2.42-2.5-4.69,5.31.39-4.06-3.36,5.08-1.64Z"/>
    <path class="st0" d="M82.43,104.04s-.7-3.51-2.97-5c-1.56,1.33-1.87,1.8-1.87,1.8,0,0,1.72,2.11,4.84,3.2"/>
    <path class="st0" d="M84.54,106.54s.7,3.51,2.97,5c1.56-1.33,1.87-1.8,1.87-1.8,0,0-1.72-2.19-4.84-3.2"/>
    <path class="st0" d="M82.51,106.54s-3.51.7-5,2.97c1.33,1.56,1.8,1.87,1.8,1.87,0,0,2.11-1.8,3.2-4.84"/>
    <path class="st0" d="M84.85,104.12s3.51-.7,5-2.97c-1.33-1.56-1.8-1.87-1.8-1.87,0,0-2.11,1.8-3.2,4.84"/>
    <path class="st0" d="M90.32,107.63s-2.11-1.64-2.97-1.95c1.95-1.02,2.66-1.72,3.12-2.11.47,2.19.08,3.36-.16,4.06M90.4,102.48l-.39.23c-.47.62-1.02.86-4.37,2.81,1.64.31,4.37,3.05,4.37,3.05,2.03-2.73.39-6.09.39-6.09"/>
    <path class="st0" d="M76.81,103.18s2.03,1.64,2.89,2.03c-1.87,1.09-2.58,1.72-2.97,2.19-.47-2.34-.16-3.44.08-4.22M76.73,108.41l.31-.23c.47-.62,1.02-.94,4.22-2.89-1.56-.31-4.37-3.28-4.37-3.28-1.87,2.73-.16,6.4-.16,6.4"/>
    <path class="st0" d="M85.79,98.34s-1.64,2.03-2.03,2.89c-1.09-1.87-1.72-2.58-2.19-2.97,2.34-.47,3.51-.16,4.22.08M80.64,98.26l.23.31c.62.47.94,1.02,2.89,4.22.31-1.56,3.05-4.22,3.05-4.22-2.81-1.8-6.17-.31-6.17-.31"/>
    <path class="st0" d="M81.57,112.47s1.64-1.8,2.03-2.58c1.09,1.72,1.72,2.26,2.19,2.66-2.34.39-3.44.08-4.22-.08M86.81,112.47l-.23-.31c-.62-.39-.94-.86-2.89-3.75-.31,1.41-3.05,3.75-3.05,3.75,2.81,1.72,6.17.31,6.17.31"/>
    <path class="st3" d="M24.02,121.84c-9.22,0-16.63-7.42-16.63-16.63s7.42-16.63,16.63-16.63,16.63,7.42,16.63,16.63c.08,9.22-7.42,16.63-16.63,16.63"/>
    <path class="st0" d="M6.99,105.21c0-9.37,7.65-17.02,17.02-17.02s17.02,7.65,17.02,17.02-7.65,17.02-17.02,17.02-17.02-7.65-17.02-17.02M40.34,105.21c0-8.98-7.34-16.24-16.24-16.24s-16.32,7.26-16.32,16.24,7.26,16.24,16.24,16.24,16.32-7.26,16.32-16.24"/>
    <path class="st0" d="M10.43,105.21c0-7.5,6.09-13.67,13.67-13.67s13.67,6.09,13.67,13.67-6.09,13.67-13.67,13.67-13.67-6.17-13.67-13.67M37.14,105.21c0-7.26-5.86-13.12-13.12-13.12s-13.12,5.86-13.12,13.12,5.86,13.12,13.12,13.12,13.12-5.86,13.12-13.12"/>
    <path class="st0" d="M24.02,112.47c-3.98,0-7.26-3.2-7.26-7.26s3.2-7.26,7.26-7.26,7.26,3.2,7.26,7.26-3.28,7.26-7.26,7.26M37.06,105.05l-5.08-1.56,4.06-3.44-5.31.55,2.42-4.76-4.69,2.5.39-5.31-3.36,4.14-1.64-5.08-1.56,5.08-3.44-4.06.55,5.31-4.69-2.42,2.5,4.69-5.31-.39,4.06,3.36-5.08,1.64,5.08,1.56-4.06,3.44,5.31-.55-2.42,4.76,4.69-2.5-.39,5.31,3.36-4.14,1.64,5.08,1.56-5.08,3.44,4.06-.55-5.31,4.69,2.42-2.5-4.69,5.31.39-4.06-3.36,5.08-1.64Z"/>
    <path class="st0" d="M22.85,104.04s-.7-3.51-2.97-5c-1.56,1.33-1.87,1.8-1.87,1.8,0,0,1.8,2.11,4.84,3.2"/>
    <path class="st0" d="M25.03,106.54s.7,3.51,2.97,5c1.56-1.33,1.87-1.8,1.87-1.8,0,0-1.8-2.19-4.84-3.2"/>
    <path class="st0" d="M22.92,106.54s-3.51.7-5,2.97c1.33,1.56,1.8,1.87,1.8,1.87,0,0,2.19-1.8,3.2-4.84"/>
    <path class="st0" d="M25.34,104.12s3.51-.7,5-2.97c-1.33-1.56-1.8-1.87-1.8-1.87,0,0-2.19,1.8-3.2,4.84"/>
    <path class="st0" d="M30.81,107.63s-2.11-1.64-2.97-1.95c1.95-1.02,2.66-1.72,3.12-2.11.39,2.19.08,3.36-.16,4.06M30.89,102.48l-.39.23c-.47.62-1.02.86-4.37,2.81,1.64.31,4.37,3.05,4.37,3.05,1.95-2.73.39-6.09.39-6.09"/>
    <path class="st0" d="M17.3,103.18s2.03,1.64,2.89,2.03c-1.87,1.09-2.58,1.72-2.97,2.19-.47-2.34-.16-3.44.08-4.22M17.22,108.41l.31-.23c.47-.62,1.02-.94,4.22-2.89-1.56-.31-4.37-3.28-4.37-3.28-1.87,2.73-.16,6.4-.16,6.4"/>
    <path class="st0" d="M26.28,98.34s-1.64,2.03-2.03,2.89c-1.09-1.87-1.72-2.58-2.19-2.97,2.34-.47,3.51-.16,4.22.08M21.05,98.26l.23.31c.62.47.94,1.02,2.89,4.22.31-1.56,3.05-4.22,3.05-4.22-2.73-1.8-6.17-.31-6.17-.31"/>
    <path class="st0" d="M22.06,112.47s1.64-1.8,2.03-2.58c1.09,1.72,1.72,2.26,2.19,2.66-2.34.39-3.51.08-4.22-.08M27.3,112.47l-.23-.31c-.62-.39-.94-.86-2.89-3.75-.31,1.41-3.05,3.75-3.05,3.75,2.73,1.72,6.17.31,6.17.31"/>
    <path class="st3" d="M53.46,87.4c-9.22,0-16.63-7.42-16.63-16.63s7.42-16.63,16.63-16.63,16.63,7.42,16.63,16.63c.08,9.14-7.42,16.63-16.63,16.63"/>
    <path class="st0" d="M36.43,70.69c0-9.37,7.65-17.02,17.02-17.02s17.02,7.65,17.02,17.02-7.65,17.02-17.02,17.02-17.02-7.58-17.02-17.02M69.78,70.69c0-8.98-7.34-16.24-16.24-16.24s-16.32,7.26-16.32,16.24,7.34,16.24,16.24,16.24c8.98.08,16.32-7.26,16.32-16.24"/>
    <path class="st0" d="M39.87,70.69c0-7.5,6.09-13.67,13.67-13.67s13.59,6.17,13.59,13.67-6.09,13.67-13.67,13.67-13.59-6.09-13.59-13.67M66.58,70.69c0-7.26-5.86-13.12-13.12-13.12s-13.12,5.86-13.12,13.12,5.86,13.12,13.12,13.12,13.12-5.86,13.12-13.12"/>
    <path class="st0" d="M53.46,77.95c-3.98,0-7.26-3.2-7.26-7.26s3.2-7.26,7.26-7.26,7.26,3.2,7.26,7.26-3.28,7.26-7.26,7.26M66.5,70.61l-5.08-1.56,4.06-3.44-5.31.55,2.42-4.76-4.69,2.5.39-5.31-3.36,4.14-1.64-5.08-1.56,5.08-3.36-4.06.55,5.31-4.69-2.42,2.5,4.69-5.39-.39,4.06,3.36-5.08,1.64,5.08,1.56-4.06,3.44,5.31-.55-2.42,4.76,4.69-2.5-.39,5.31,3.36-4.14,1.64,5.08,1.56-5.08,3.44,4.06-.55-5.31,4.69,2.42-2.5-4.69,5.31.39-4.06-3.36,5.08-1.64Z"/>
    <path class="st0" d="M52.29,69.52s-.7-3.51-2.97-5c-1.56,1.33-1.87,1.8-1.87,1.8,0,0,1.8,2.11,4.84,3.2"/>
    <path class="st0" d="M54.47,72.02s.7,3.51,2.97,5c1.56-1.33,1.87-1.8,1.87-1.8,0,0-1.8-2.19-4.84-3.2"/>
    <path class="st0" d="M52.37,72.02s-3.51.7-5,2.97c1.33,1.56,1.8,1.87,1.8,1.87,0,0,2.19-1.8,3.2-4.84"/>
    <path class="st0" d="M54.79,69.68s3.51-.7,5-2.97c-1.33-1.56-1.8-1.87-1.8-1.87,0,0-2.19,1.72-3.2,4.84"/>
    <path class="st0" d="M60.25,73.11s-2.11-1.64-2.97-1.95c1.95-1.02,2.66-1.72,3.12-2.11.39,2.19.08,3.36-.16,4.06M60.33,67.96l-.39.23c-.47.62-1.02.86-4.37,2.81,1.64.31,4.37,3.05,4.37,3.05,1.95-2.73.39-6.09.39-6.09"/>
    <path class="st0" d="M46.74,68.66s2.03,1.64,2.89,2.03c-1.87,1.09-2.58,1.72-2.97,2.19-.47-2.26-.16-3.44.08-4.22M46.66,73.89l.31-.23c.47-.62,1.02-.94,4.22-2.89-1.56-.31-4.37-3.28-4.37-3.28-1.87,2.81-.16,6.4-.16,6.4"/>
    <path class="st0" d="M55.72,63.82s-1.64,2.03-2.03,2.89c-1.09-1.87-1.72-2.58-2.19-2.97,2.34-.39,3.51-.08,4.22.08M50.49,63.82l.23.31c.62.47.94,1.02,2.89,4.22.31-1.56,3.05-4.22,3.05-4.22-2.73-1.87-6.17-.31-6.17-.31"/>
    <path class="st0" d="M51.51,77.95s1.64-1.8,2.03-2.58c1.09,1.72,1.72,2.26,2.19,2.66-2.34.39-3.51.08-4.22-.08M56.74,78.03l-.23-.31c-.62-.39-.94-.86-2.89-3.75-.31,1.41-3.05,3.75-3.05,3.75,2.73,1.64,6.17.31,6.17.31"/>
    <path class="st3" d="M83.6,160.89c-9.22,0-16.63-7.42-16.63-16.63s7.5-16.63,16.63-16.63,16.63,7.42,16.63,16.63c0,9.14-7.5,16.63-16.63,16.63"/>
    <path class="st0" d="M66.5,144.18c0-9.37,7.65-17.02,17.02-17.02s17.02,7.65,17.02,17.02-7.65,17.02-17.02,17.02c-9.37.08-17.02-7.58-17.02-17.02M99.85,144.18c0-8.98-7.34-16.24-16.24-16.24s-16.24,7.34-16.24,16.24,7.34,16.24,16.24,16.24c8.98.08,16.24-7.26,16.24-16.24"/>
    <path class="st0" d="M69.94,144.18c0-7.5,6.09-13.67,13.67-13.67s13.67,6.09,13.67,13.67-6.09,13.67-13.67,13.67-13.67-6.09-13.67-13.67M96.72,144.18c0-7.26-5.86-13.12-13.12-13.12s-13.12,5.86-13.12,13.12,5.86,13.12,13.12,13.12,13.12-5.86,13.12-13.12"/>
    <path class="st0" d="M83.53,151.44c-3.98,0-7.26-3.2-7.26-7.26s3.2-7.26,7.26-7.26,7.26,3.2,7.26,7.26-3.28,7.26-7.26,7.26M96.57,144.1l-5.08-1.56,4.06-3.44-5.31.55,2.42-4.76-4.69,2.5.39-5.31-3.36,4.14-1.64-5.08-1.56,5.08-3.44-4.06.55,5.31-4.69-2.42,2.5,4.69-5.31-.39,4.06,3.36-5.08,1.64,5.08,1.56-4.06,3.44,5.31-.55-2.42,4.76,4.69-2.5-.39,5.31,3.36-4.14,1.64,5.08,1.56-5.08,3.44,4.06-.55-5.31,4.69,2.42-2.5-4.69,5.31.39-4.06-3.36,5.08-1.64Z"/>
    <path class="st0" d="M82.43,143.01s-.7-3.51-2.97-5c-1.56,1.33-1.87,1.8-1.87,1.8,0,0,1.72,2.19,4.84,3.2"/>
    <path class="st0" d="M84.54,145.51s.7,3.51,2.97,5c1.56-1.33,1.87-1.8,1.87-1.8,0,0-1.72-2.11-4.84-3.2"/>
    <path class="st0" d="M82.51,145.51s-3.51.7-5,2.97c1.33,1.56,1.8,1.87,1.8,1.87,0,0,2.11-1.8,3.2-4.84"/>
    <path class="st0" d="M84.85,143.16s3.51-.7,5-2.97c-1.33-1.56-1.8-1.87-1.8-1.87,0,0-2.11,1.8-3.2,4.84"/>
    <path class="st0" d="M90.32,146.6s-2.11-1.64-2.97-1.95c1.95-1.02,2.66-1.72,3.12-2.11.47,2.26.08,3.36-.16,4.06M90.4,141.52l-.39.23c-.47.62-1.02.86-4.37,2.81,1.64.31,4.37,3.05,4.37,3.05,2.03-2.81.39-6.09.39-6.09"/>
    <path class="st0" d="M76.81,142.23s2.03,1.64,2.89,2.03c-1.87,1.09-2.58,1.72-2.97,2.19-.47-2.34-.16-3.51.08-4.22M76.73,147.38l.31-.23c.47-.62,1.02-.94,4.22-2.89-1.56-.31-4.37-3.28-4.37-3.28-1.87,2.81-.16,6.4-.16,6.4"/>
    <path class="st0" d="M85.79,137.39s-1.64,2.03-2.03,2.89c-1.09-1.87-1.72-2.58-2.19-2.97,2.34-.47,3.51-.16,4.22.08M80.64,137.31l.23.31c.62.47.94,1.02,2.89,4.22.31-1.56,3.05-4.22,3.05-4.22-2.81-1.87-6.17-.31-6.17-.31"/>
    <path class="st0" d="M81.57,151.44s1.64-1.8,2.03-2.58c1.09,1.72,1.72,2.26,2.19,2.66-2.34.39-3.44.16-4.22-.08M86.81,151.52l-.23-.31c-.62-.39-.94-.86-2.89-3.75-.31,1.41-3.05,3.75-3.05,3.75,2.81,1.64,6.17.31,6.17.31"/>
    <path class="st3" d="M24.02,160.89c-9.22,0-16.63-7.42-16.63-16.63s7.42-16.63,16.63-16.63,16.63,7.42,16.63,16.63c.08,9.14-7.42,16.63-16.63,16.63"/>
    <path class="st0" d="M6.99,144.18c0-9.37,7.65-17.02,17.02-17.02s17.02,7.65,17.02,17.02-7.65,17.02-17.02,17.02c-9.37.08-17.02-7.58-17.02-17.02M40.34,144.18c0-8.98-7.34-16.24-16.24-16.24s-16.32,7.26-16.32,16.24,7.34,16.24,16.24,16.24,16.32-7.26,16.32-16.24"/>
    <path class="st0" d="M10.43,144.18c0-7.5,6.09-13.67,13.67-13.67s13.67,6.09,13.67,13.67-6.09,13.67-13.67,13.67-13.67-6.09-13.67-13.67M37.14,144.18c0-7.26-5.86-13.12-13.12-13.12s-13.12,5.94-13.12,13.12,5.86,13.12,13.12,13.12,13.12-5.86,13.12-13.12"/>
    <path class="st0" d="M24.02,151.44c-3.98,0-7.26-3.2-7.26-7.26s3.2-7.26,7.26-7.26,7.26,3.2,7.26,7.26-3.28,7.26-7.26,7.26M37.06,144.1l-5.08-1.56,4.06-3.44-5.31.55,2.42-4.76-4.69,2.5.39-5.31-3.36,4.14-1.64-5.08-1.56,5.08-3.44-4.06.55,5.31-4.69-2.42,2.5,4.69-5.31-.39,4.06,3.36-5.08,1.64,5.08,1.56-4.06,3.44,5.31-.55-2.42,4.76,4.69-2.5-.39,5.31,3.36-4.14,1.64,5.08,1.56-5.08,3.44,4.06-.55-5.31,4.69,2.42-2.5-4.69,5.31.39-4.06-3.36,5.08-1.64Z"/>
    <path class="st0" d="M22.85,143.01s-.7-3.51-2.97-5c-1.56,1.33-1.87,1.8-1.87,1.8,0,0,1.8,2.19,4.84,3.2"/>
    <path class="st0" d="M25.03,145.51s.7,3.51,2.97,5c1.56-1.33,1.87-1.8,1.87-1.8,0,0-1.8-2.11-4.84-3.2"/>
    <path class="st0" d="M22.92,145.51s-3.51.7-5,2.97c1.33,1.56,1.8,1.87,1.8,1.87,0,0,2.19-1.8,3.2-4.84"/>
    <path class="st0" d="M25.34,143.16s3.51-.7,5-2.97c-1.33-1.56-1.8-1.87-1.8-1.87,0,0-2.19,1.8-3.2,4.84"/>
    <path class="st0" d="M30.81,146.6s-2.11-1.64-2.97-1.95c1.95-1.02,2.66-1.72,3.12-2.11.39,2.26.08,3.36-.16,4.06M30.89,141.52l-.39.23c-.47.62-1.02.86-4.37,2.81,1.64.31,4.37,3.05,4.37,3.05,1.95-2.81.39-6.09.39-6.09"/>
    <path class="st0" d="M17.3,142.23s2.03,1.64,2.89,2.03c-1.87,1.09-2.58,1.72-2.97,2.19-.47-2.34-.16-3.51.08-4.22M17.22,147.38l.31-.23c.47-.62,1.02-.94,4.22-2.89-1.56-.31-4.37-3.28-4.37-3.28-1.87,2.81-.16,6.4-.16,6.4"/>
    <path class="st0" d="M26.28,137.39s-1.64,2.03-2.03,2.89c-1.09-1.87-1.72-2.58-2.19-2.97,2.34-.47,3.51-.16,4.22.08M21.05,137.31l.23.31c.62.47.94,1.02,2.89,4.22.31-1.56,3.05-4.22,3.05-4.22-2.73-1.87-6.17-.31-6.17-.31"/>
    <path class="st0" d="M22.06,151.44s1.64-1.8,2.03-2.58c1.09,1.72,1.72,2.26,2.19,2.66-2.34.39-3.51.16-4.22-.08M27.3,151.52l-.23-.31c-.62-.39-.94-.86-2.89-3.75-.31,1.41-3.05,3.75-3.05,3.75,2.73,1.64,6.17.31,6.17.31"/>
  </g>
</svg>