<?xml version="1.0" encoding="UTF-8"?>
<svg id="Layer_1" xmlns="http://www.w3.org/2000/svg" version="1.1" viewBox="0 0 109.6 176.97">
  <!-- Generator: Adobe Illustrator 30.2.1, SVG Export Plug-In . SVG Version: 2.1.1 Build 1)  -->
  <defs>
    <style>
      .st0 {
        stroke: #fddb00;
      }

      .st0, .st1 {
        stroke-width: .78px;
      }

      .st0, .st1, .st2, .st3 {
        fill: none;
        stroke-miterlimit: 10;
      }

      .st4 {
        fill: #1d1c1a;
      }

      .st1, .st2, .st3 {
        stroke: #1d1c1a;
      }

      .st2 {
        stroke-width: 1.17px;
      }

      .st3 {
        stroke-width: 1.26px;
      }

      .st5 {
        fill: #fff;
      }

      .st6 {
        fill: #fddb00;
      }
    </style>
  </defs>
  <rect class="st5" x="-.54" y="-.07" width="110.69" height="177.1"/>
  <g>
    <path class="st4" d="M10.09,15.27c.31,0,.55,0,.7-.08s.23-.16.31-.23c.08-.08.16-.23.23-.47h.78l-.16,2.5h-6.25v-.47c.16-.47.39-.94.78-1.41.39-.55.78-1.09,1.33-1.72.47-.55.86-1.09,1.09-1.41.23-.39.47-.7.55-1.09.16-.31.16-.7.16-1.02,0-.47-.08-.94-.31-1.17-.23-.31-.55-.47-.94-.47s-.7.16-.94.39-.39.7-.55,1.25h-1.09v-1.64c.55-.23,1.02-.39,1.33-.47s.62-.16.94-.23.62-.08,1.02-.08c.7,0,1.25.08,1.64.23.39.16.7.39.94.7.16.31.31.7.31,1.09s-.08.7-.23,1.02c-.16.31-.39.7-.7,1.09s-.86.94-1.64,1.72c-.39.31-.7.7-1.02,1.02-.31.39-.55.62-.7.86v.08h2.42Z"/>
    <path class="st4" d="M98.5,161.86c-.31,0-.55,0-.7.08-.16.08-.23.16-.31.23s-.16.23-.23.47h-.78l.16-2.5h6.25v.47c-.16.47-.47.94-.86,1.41-.39.55-.78,1.09-1.33,1.72-.47.55-.86,1.09-1.09,1.41-.23.39-.47.7-.55,1.09-.16.31-.16.7-.16,1.02,0,.47.08.94.31,1.17.23.31.55.47.94.47s.7-.16.94-.39.39-.7.55-1.25h1.25v1.64c-.55.23-1.02.39-1.33.47s-.62.16-.94.23-.62.08-1.02.08c-.7,0-1.25-.08-1.64-.23s-.7-.39-.94-.7c-.16-.31-.31-.7-.31-1.09s.08-.7.23-1.02.39-.7.7-1.09.86-.94,1.64-1.72c.39-.31.7-.7,1.02-1.02.31-.39.55-.62.7-.86v-.08h-2.5Z"/>
    <polygon class="st3" points="81.39 171.54 63.59 171.54 48.51 171.54 30.71 171.54 19.23 171.54 3.69 171.54 3.69 5.43 18.68 5.43 30.71 5.43 48.51 5.43 63.59 5.43 81.39 5.43 92.01 5.43 105.92 5.43 105.92 171.54 91.78 171.54 81.39 171.54"/>
    <path class="st6" d="M54.84,84.54c-20.46,0-37.02-16.56-37.02-37.02S34.38,10.51,54.84,10.51s37.02,16.56,37.02,37.02c-.08,20.46-16.63,37.02-37.02,37.02"/>
    <circle class="st2" cx="54.84" cy="47.52" r="37.02"/>
    <circle class="st1" cx="55" cy="47.52" r="31.39"/>
    <path class="st4" d="M77.02,51.27l6.33,7.11-9.45,1.09,3.12,8.98-9.14-2.58-.55,9.53-7.5-5.94-4.14,8.59-4.61-8.36-7.11,6.33-1.09-9.45-8.98,3.12,2.58-9.14-9.53-.55,5.94-7.5-8.59-4.14,8.36-4.61-6.4-7.11,9.45-1.09-3.12-8.98,9.14,2.58.55-9.53,7.5,5.94,4.14-8.59,4.61,8.36,7.11-6.33,1.09,9.45,8.98-3.12-2.58,9.14,9.53.55-5.94,7.5,8.59,4.14-8.28,4.61ZM54.68,67.59c-10.93,0-19.84-8.9-19.84-19.99s8.9-19.99,19.84-19.99,19.84,8.9,19.84,19.99-8.9,19.99-19.84,19.99"/>
    <path class="st6" d="M72.72,47.6c0-10-8.04-18.12-17.96-18.12s-17.96,8.12-17.96,18.12,8.04,18.12,17.96,18.12c9.92-.08,17.96-8.12,17.96-18.12M59.06,49.87l7.5,8.98-9.37-7.26-.55.31s2.19,8.43,4.14,10.23c-.31.7-2.97,1.87-6.33,1.56-3.28-.39-4.92-1.02-4.92-1.02,0,0,3.36-7.89,3.05-10.54l-.31-.16-8.75,7.18-.23-.16,7.42-8.67-.39-.86s-6.64,1.8-9.92,3.98c-.47.23-.94-1.02-1.17-2.19-.23-1.09-1.09-6.17.47-9.22,2.19.86,8.28,3.67,10.78,3.36.23-.23.23-.31.23-.31l-7.5-8.98,9.45,7.18s.16-3.83-3.28-10.46v-.55s7.11-2.34,11.25.23v.62s-3.9,6.4-3.59,10.15l.31.16,9.22-7.58.16.31-7.5,9.06s4.61,0,10.7-3.28c0,0,2.89,5.54,0,11.4h-.47s-7.26-3.75-10.15-3.75l-.23.23Z"/>
    <path class="st6" d="M58.98,47.44c0-2.26-1.87-4.14-4.14-4.14s-4.14,1.87-4.14,4.14,1.87,4.14,4.14,4.14,4.14-1.87,4.14-4.14"/>
    <path class="st6" d="M40.16,42.92s-2.19,5.08,0,9.37c3.59-1.87,7.81-2.89,10.07-3.12-.08-.55-9.76-1.02-10.39-1.41v-.31s9.06-.55,10.15-.94v-.31c0,.08-5.62-.7-9.84-3.28"/>
    <path class="st6" d="M59.53,32.92s-5.08-2.19-9.37,0c1.87,3.59,2.89,7.81,3.12,10.07.55-.08,1.02-9.76,1.41-10.39h.31s.55,9.06.94,10.15h.31c0,.08.78-5.62,3.28-9.84"/>
    <path class="st6" d="M50.7,62.13s4.76,2.11,8.82,0c-1.72-3.51-2.73-7.65-2.89-9.84-.55.08-.94,9.53-1.33,10.15h-.31s-.47-8.82-.94-9.92h-.31c.08-.08-.7,5.47-3.05,9.61"/>
    <path class="st6" d="M69.52,52.29s2.19-5.08,0-9.37c-3.59,1.87-7.81,2.89-10.07,3.12.08.55,9.76,1.02,10.39,1.41v.31s-9.06.55-10.15.94v.31s5.7.78,9.84,3.28"/>
    <path class="st0" d="M74.44,47.6c0-10.93-8.75-19.76-19.6-19.76s-19.6,8.82-19.6,19.76,8.75,19.76,19.6,19.76,19.6-8.82,19.6-19.76Z"/>
    <path class="st6" d="M54.84,165.99c-20.46,0-37.02-16.56-37.02-37.02s16.56-37.02,37.02-37.02,37.02,16.56,37.02,37.02c-.08,20.46-16.63,37.02-37.02,37.02"/>
    <circle class="st2" cx="54.84" cy="128.98" r="37.02"/>
    <circle class="st1" cx="55" cy="128.98" r="31.39"/>
    <path class="st4" d="M77.02,132.73l6.33,7.11-9.45,1.09,3.12,8.98-9.14-2.58-.55,9.53-7.5-5.94-4.14,8.59-4.61-8.36-7.11,6.33-1.09-9.45-8.98,3.12,2.58-9.14-9.53-.55,5.94-7.5-8.59-4.14,8.36-4.61-6.33-7.11,9.45-1.09-3.12-8.98,9.14,2.58.55-9.53,7.5,5.94,4.14-8.59,4.61,8.36,7.11-6.33,1.09,9.45,8.98-3.12-2.58,9.14,9.53.55-5.94,7.5,8.59,4.14-8.36,4.61ZM54.68,148.97c-10.93,0-19.84-8.9-19.84-19.99s8.9-19.99,19.84-19.99,19.84,8.9,19.84,19.99-8.9,19.99-19.84,19.99"/>
    <path class="st6" d="M72.72,129.06c0-10-8.04-18.12-17.96-18.12s-17.96,8.12-17.96,18.12,8.04,18.12,17.96,18.12c9.92-.08,17.96-8.12,17.96-18.12M59.06,131.24l7.5,8.98-9.37-7.26-.55.31s2.19,8.43,4.14,10.23c-.31.7-2.97,1.87-6.33,1.56-3.28-.39-4.92-1.02-4.92-1.02,0,0,3.36-7.89,3.05-10.54l-.31-.16-8.75,7.18-.23-.16,7.42-8.67-.39-.86s-6.64,1.8-9.92,3.98c-.47.23-.94-1.02-1.17-2.19-.23-1.09-1.09-6.17.47-9.22,2.19.86,8.28,3.67,10.78,3.36.23-.23.23-.31.23-.31l-7.5-8.98,9.45,7.18s.16-3.83-3.28-10.46v-.55s7.11-2.34,11.25.23v.62s-3.9,6.4-3.59,10.15l.31.16,9.22-7.5.16.31-7.5,9.06s4.61,0,10.7-3.28c0,0,2.89,5.54,0,11.4h-.47s-7.26-3.75-10.15-3.75l-.23.16Z"/>
    <path class="st6" d="M58.98,128.9c0-2.26-1.87-4.14-4.14-4.14s-4.14,1.87-4.14,4.14,1.87,4.14,4.14,4.14c2.26,0,4.14-1.87,4.14-4.14"/>
    <path class="st6" d="M40.16,124.37s-2.19,5.08,0,9.37c3.59-1.87,7.81-2.89,10.07-3.12-.08-.55-9.76-1.02-10.39-1.41v-.31s9.06-.55,10.15-.94v-.31s-5.62-.78-9.84-3.28"/>
    <path class="st6" d="M59.53,114.37s-5.08-2.19-9.37,0c1.87,3.59,2.89,7.81,3.12,10.07.55-.08,1.02-9.76,1.41-10.39h.31s.55,9.06.94,10.15h.31c0,.08.78-5.62,3.28-9.84"/>
    <path class="st6" d="M50.7,143.58s4.76,2.11,8.82,0c-1.72-3.51-2.73-7.65-2.89-9.84-.55.08-.94,9.53-1.33,10.15h-.31s-.47-8.82-.94-9.92h-.31c.08-.08-.7,5.47-3.05,9.61"/>
    <path class="st6" d="M69.52,133.74s2.19-5.08,0-9.37c-3.59,1.87-7.81,2.89-10.07,3.12.08.55,9.76,1.02,10.39,1.41v.31s-9.06.55-10.15.94v.31s5.7.78,9.84,3.28"/>
    <path class="st0" d="M74.44,129.06c0-10.93-8.75-19.76-19.6-19.76s-19.6,8.82-19.6,19.76,8.75,19.76,19.6,19.76,19.6-8.82,19.6-19.76Z"/>
  </g>
</svg>