<?xml version="1.0" encoding="UTF-8"?>
<svg id="Layer_1" xmlns="http://www.w3.org/2000/svg" version="1.1" viewBox="0 0 109.6 176.97">
  <!-- Generator: Adobe Illustrator 30.2.1, SVG Export Plug-In . SVG Version: 2.1.1 Build 1)  -->
  <defs>
    <style>
      .st0 {
        fill: #1d1c1a;
      }

      .st1 {
        fill: none;
        stroke: #1d1c1a;
        stroke-miterlimit: 10;
        stroke-width: 1.26px;
      }

      .st2 {
        fill: #fff;
      }

      .st3 {
        fill: #fddb00;
      }
    </style>
  </defs>
  <rect class="st2" x="-.54" y="-.07" width="110.69" height="177.1"/>
  <g>
    <path class="st0" d="M11.58,7.81v.39c-1.02,0-1.8.31-2.42.94s-1.02,1.48-1.25,2.58h.08c.39-.23.7-.47,1.09-.55.39-.08.78-.16,1.17-.16.55,0,.94.08,1.33.31.39.23.62.55.86,1.02.16.39.31.94.31,1.48,0,.62-.16,1.17-.39,1.64s-.62.86-1.17,1.09-1.17.39-1.95.39c-.7,0-1.33-.16-1.8-.39-.55-.31-.86-.7-1.17-1.25-.23-.55-.39-1.25-.39-2.03,0-1.09.23-2.03.7-2.89.47-.86,1.09-1.56,1.87-2.11.86-.55,1.72-.86,2.81-.94l.31.47ZM9.47,12.03c-.23,0-.47,0-.62.08-.23.08-.39.16-.55.23-.16.08-.23.23-.31.31-.08.08-.08.16-.08.31v.7c0,.86.08,1.48.31,1.87.23.39.62.62,1.09.62.23,0,.47-.08.7-.16.16-.08.31-.23.47-.47.08-.16.16-.39.23-.7.08-.23.08-.55.08-.86,0-.62-.08-1.17-.31-1.48-.31-.31-.62-.47-1.02-.47"/>
    <path class="st0" d="M98.26,169.31v-.39c1.02,0,1.8-.31,2.42-.94s1.02-1.48,1.25-2.58h-.08c-.39.23-.7.47-1.09.55-.39.08-.78.16-1.17.16-.55,0-.94-.08-1.33-.31-.39-.23-.62-.55-.86-1.02-.16-.39-.31-.94-.31-1.48,0-.62.16-1.17.39-1.64s.62-.86,1.17-1.09c.55-.23,1.17-.39,1.95-.39.7,0,1.33.16,1.8.39.47.31.86.7,1.17,1.25.23.55.39,1.25.39,2.03,0,1.09-.23,2.03-.7,2.89-.47.86-1.09,1.56-1.87,2.11-.86.55-1.72.86-2.81.94l-.31-.47ZM100.45,165.1c.23,0,.47,0,.62-.08.23-.08.39-.16.55-.23s.23-.23.31-.31.08-.16.08-.31v-.7c0-.86-.08-1.48-.31-1.87-.23-.39-.62-.62-1.09-.62-.23,0-.47.08-.7.16-.16.08-.31.23-.47.47-.08.16-.23.39-.23.7-.08.23-.08.55-.08.86,0,.62.08,1.17.31,1.48.23.31.55.47,1.02.47"/>
    <polygon class="st1" points="81.32 171.66 63.59 171.66 48.51 171.66 30.79 171.66 19.38 171.66 3.84 171.66 3.84 5.31 18.84 5.31 30.79 5.31 48.51 5.31 63.59 5.31 81.32 5.31 91.86 5.31 105.76 5.31 105.76 171.66 91.7 171.66 81.32 171.66"/>
    <path class="st3" d="M81.47,53.65c-10.46,0-18.98-8.51-18.98-18.98s8.51-18.98,18.98-18.98,18.98,8.51,18.98,18.98c-.08,10.46-8.51,18.98-18.98,18.98"/>
    <path class="st0" d="M62.1,34.75c0-10.7,8.67-19.37,19.37-19.37s19.37,8.67,19.37,19.37-8.67,19.37-19.37,19.37c-10.7,0-19.37-8.75-19.37-19.37M99.98,34.75c0-10.23-8.28-18.51-18.51-18.51s-18.51,8.28-18.51,18.51,8.28,18.51,18.51,18.51,18.51-8.36,18.51-18.51"/>
    <path class="st0" d="M65.93,34.75c0-8.51,6.95-15.46,15.46-15.46s15.46,6.95,15.46,15.46-6.95,15.46-15.46,15.46c-8.51,0-15.46-6.95-15.46-15.46M96.39,34.75c0-8.2-6.72-14.92-14.92-14.92s-14.92,6.72-14.92,14.92,6.72,14.92,14.92,14.92c8.2,0,14.92-6.72,14.92-14.92"/>
    <path class="st0" d="M81.39,42.95c-4.53,0-8.2-3.67-8.2-8.2s3.67-8.2,8.2-8.2,8.2,3.67,8.2,8.2c.08,4.53-3.59,8.2-8.2,8.2M96.23,34.6l-5.78-1.72,4.61-3.9-6.01.62,2.73-5.39-5.31,2.89.47-6.01-3.83,4.69-1.87-5.78-1.72,5.78-3.9-4.61.62,6.01-5.39-2.73,2.81,5.31-6.01-.47,4.69,3.83-5.7,1.8,5.78,1.72-4.61,3.9,6.01-.62-2.73,5.39,5.31-2.89-.47,6.01,3.83-4.69,1.87,5.78,1.72-5.78,3.9,4.61-.62-6.01,5.39,2.73-2.81-5.31,6.01.47-4.69-3.83,5.7-1.8Z"/>
    <path class="st0" d="M80.14,33.35s-.86-3.98-3.36-5.62c-1.72,1.56-2.11,2.03-2.11,2.03,0,0,1.95,2.42,5.47,3.59"/>
    <path class="st0" d="M82.56,36.16s.86,3.98,3.36,5.62c1.72-1.56,2.11-2.03,2.11-2.03,0,0-1.95-2.34-5.47-3.59"/>
    <path class="st0" d="M80.22,36.16s-3.98.86-5.62,3.36c1.56,1.72,2.03,2.11,2.03,2.11,0,0,2.42-1.95,3.59-5.47"/>
    <path class="st0" d="M82.96,33.5s3.98-.86,5.62-3.36c-1.56-1.72-2.03-2.11-2.03-2.11,0,0-2.42,2.03-3.59,5.47"/>
    <path class="st0" d="M89.12,37.49s-2.34-1.87-3.44-2.26c2.26-1.17,3.05-1.95,3.51-2.42.62,2.58.23,3.83-.08,4.69M89.2,31.63l-.39.23c-.55.7-1.17,1.02-5,3.2,1.87.31,5,3.44,5,3.44,2.19-3.05.39-6.87.39-6.87"/>
    <path class="st0" d="M73.74,32.41s2.26,1.87,3.28,2.26c-2.19,1.25-2.89,1.95-3.44,2.5-.39-2.58-.08-3.9.16-4.76M73.66,38.35l.39-.23c.55-.7,1.09-1.02,4.76-3.28-1.8-.31-5-3.75-5-3.75-2.11,3.12-.16,7.26-.16,7.26"/>
    <path class="st0" d="M84.05,26.94s-1.87,2.26-2.26,3.28c-1.25-2.19-1.95-2.89-2.5-3.44,2.58-.47,3.9-.16,4.76.16M78.11,26.87l.23.39c.7.55,1.02,1.09,3.28,4.76.31-1.8,3.51-4.76,3.51-4.76-3.2-2.11-7.03-.39-7.03-.39"/>
    <path class="st0" d="M79.21,42.95s1.87-2.03,2.26-2.97c1.25,1.95,1.95,2.66,2.5,3.05-2.66.47-3.9.16-4.76-.08M85.14,43.03l-.23-.31c-.7-.47-1.02-1.02-3.28-4.3-.31,1.64-3.51,4.3-3.51,4.3,3.12,1.87,7.03.31,7.03.31"/>
    <path class="st3" d="M27.43,54.04c-10.46,0-18.98-8.51-18.98-18.98s8.51-18.98,18.98-18.98c10.46.08,18.9,8.51,18.9,18.98s-8.43,18.98-18.9,18.98"/>
    <path class="st0" d="M8.06,35.07c0-10.7,8.67-19.37,19.37-19.37s19.37,8.67,19.37,19.37-8.67,19.37-19.37,19.37-19.37-8.67-19.37-19.37M45.94,35.07c0-10.23-8.28-18.51-18.51-18.51s-18.51,8.36-18.51,18.51,8.28,18.51,18.51,18.51,18.51-8.28,18.51-18.51"/>
    <path class="st0" d="M11.89,35.07c0-8.51,6.95-15.46,15.46-15.46s15.46,6.95,15.46,15.46-6.95,15.46-15.46,15.46c-8.51.08-15.46-6.87-15.46-15.46M42.35,35.07c0-8.2-6.72-14.92-14.92-14.92s-14.92,6.72-14.92,14.92,6.72,14.92,14.92,14.92c8.2.08,14.92-6.64,14.92-14.92"/>
    <path class="st0" d="M27.35,43.34c-4.53,0-8.2-3.67-8.2-8.2s3.67-8.2,8.2-8.2,8.2,3.67,8.2,8.2c.08,4.45-3.59,8.2-8.2,8.2M42.19,34.91l-5.78-1.72,4.61-3.9-6.01.62,2.73-5.39-5.31,2.89.47-6.01-3.83,4.69-1.8-5.86-1.72,5.78-3.9-4.61.62,6.01-5.39-2.73,2.81,5.31-6.01-.47,4.69,3.83-5.7,1.87,5.78,1.72-4.61,3.9,6.01-.62-2.73,5.39,5.31-2.89-.47,6.01,3.83-4.69,1.87,5.78,1.72-5.78,3.9,4.61-.62-6.01,5.39,2.73-2.81-5.31,6.01.47-4.69-3.83,5.62-1.8Z"/>
    <path class="st0" d="M26.1,33.74s-.86-3.98-3.36-5.62c-1.72,1.56-2.11,2.03-2.11,2.03,0,0,1.95,2.42,5.47,3.59"/>
    <path class="st0" d="M28.52,36.55s.86,3.98,3.36,5.62c1.72-1.56,2.11-2.03,2.11-2.03,0,0-1.95-2.34-5.47-3.59"/>
    <path class="st0" d="M26.18,36.55s-3.98.86-5.62,3.36c1.56,1.72,2.03,2.11,2.03,2.11,0,0,2.42-1.95,3.59-5.47"/>
    <path class="st0" d="M28.83,33.9s3.98-.86,5.62-3.36c-1.56-1.72-2.03-2.11-2.03-2.11,0,0-2.34,1.95-3.59,5.47"/>
    <path class="st0" d="M35.08,37.8s-2.34-1.87-3.44-2.26c2.26-1.17,3.05-1.95,3.51-2.42.55,2.58.23,3.9-.08,4.69M35.16,32.02l-.39.23c-.55.7-1.17,1.02-5,3.2,1.87.31,5,3.44,5,3.44,2.19-3.12.39-6.87.39-6.87"/>
    <path class="st0" d="M19.7,32.8s2.26,1.87,3.28,2.26c-2.19,1.25-2.89,1.95-3.44,2.5-.47-2.66-.08-3.9.16-4.76M19.62,38.74l.39-.23c.55-.7,1.09-1.02,4.76-3.28-1.8-.31-5-3.75-5-3.75-2.11,3.12-.16,7.26-.16,7.26"/>
    <path class="st0" d="M30.01,27.34s-1.87,2.26-2.26,3.28c-1.25-2.19-1.95-2.89-2.5-3.44,2.58-.47,3.9-.16,4.76.16M23.99,27.18l.23.39c.7.55,1.02,1.09,3.28,4.76.31-1.8,3.51-4.76,3.51-4.76-3.12-2.11-7.03-.39-7.03-.39"/>
    <path class="st0" d="M25.16,43.34s1.87-2.03,2.26-2.97c1.25,1.95,1.95,2.66,2.5,3.05-2.66.47-3.98.16-4.76-.08M31.1,43.42l-.23-.31c-.7-.47-1.02-1.02-3.28-4.3-.31,1.64-3.51,4.3-3.51,4.3,3.12,1.8,7.03.31,7.03.31"/>
    <path class="st3" d="M81.47,108.48c-10.46,0-18.98-8.51-18.98-18.98s8.51-18.98,18.98-18.98,18.98,8.51,18.98,18.98c-.08,10.46-8.51,18.98-18.98,18.98"/>
    <path class="st0" d="M62.1,89.58c0-10.7,8.67-19.37,19.37-19.37s19.37,8.67,19.37,19.37-8.67,19.37-19.37,19.37-19.37-8.75-19.37-19.37M99.98,89.58c0-10.23-8.28-18.51-18.51-18.51s-18.51,8.28-18.51,18.51,8.28,18.51,18.51,18.51,18.51-8.36,18.51-18.51"/>
    <path class="st0" d="M65.93,89.58c0-8.51,6.95-15.46,15.46-15.46s15.46,6.95,15.46,15.46-6.95,15.46-15.46,15.46-15.46-6.95-15.46-15.46M96.39,89.58c0-8.2-6.72-14.92-14.92-14.92s-14.92,6.72-14.92,14.92,6.72,14.92,14.92,14.92c8.2,0,14.92-6.72,14.92-14.92"/>
    <path class="st0" d="M81.39,97.78c-4.53,0-8.2-3.67-8.2-8.2s3.67-8.2,8.2-8.2,8.2,3.67,8.2,8.2c.08,4.53-3.59,8.2-8.2,8.2M96.23,89.34l-5.78-1.72,4.61-3.9-6.01.62,2.73-5.39-5.31,2.89.47-6.01-3.83,4.69-1.87-5.78-1.72,5.78-3.9-4.61.62,6.01-5.39-2.73,2.81,5.31-6.01-.47,4.69,3.83-5.7,1.87,5.78,1.72-4.61,3.9,6.01-.62-2.73,5.39,5.31-2.89-.47,6.01,3.83-4.69,1.87,5.78,1.72-5.78,3.9,4.61-.62-6.01,5.39,2.73-2.81-5.31,6.01.47-4.69-3.83,5.7-1.87Z"/>
    <path class="st0" d="M80.14,88.17s-.86-3.98-3.36-5.62c-1.72,1.56-2.11,2.03-2.11,2.03,0,0,1.95,2.42,5.47,3.59"/>
    <path class="st0" d="M82.56,90.98s.86,3.98,3.36,5.62c1.72-1.56,2.11-2.03,2.11-2.03,0,0-1.95-2.34-5.47-3.59"/>
    <path class="st0" d="M80.22,90.98s-3.98.86-5.62,3.36c1.56,1.72,2.03,2.11,2.03,2.11,0,0,2.42-1.95,3.59-5.47"/>
    <path class="st0" d="M82.96,88.33s3.98-.86,5.62-3.36c-1.56-1.72-2.03-2.11-2.03-2.11,0,0-2.42,1.95-3.59,5.47"/>
    <path class="st0" d="M89.12,92.31s-2.34-1.87-3.44-2.26c2.26-1.17,3.05-1.95,3.51-2.42.62,2.58.23,3.83-.08,4.69M89.2,86.45l-.39.23c-.55.7-1.17,1.02-5,3.2,1.87.31,5,3.44,5,3.44,2.19-3.12.39-6.87.39-6.87"/>
    <path class="st0" d="M73.74,87.23s2.26,1.87,3.28,2.26c-2.19,1.25-2.89,1.95-3.44,2.5-.39-2.58-.08-3.9.16-4.76M73.66,93.17l.39-.23c.55-.7,1.09-1.02,4.76-3.28-1.8-.31-5-3.75-5-3.75-2.11,3.12-.16,7.26-.16,7.26"/>
    <path class="st0" d="M84.05,81.77s-1.87,2.26-2.26,3.28c-1.25-2.19-1.95-2.89-2.5-3.44,2.58-.47,3.9-.16,4.76.16M78.11,81.69l.23.39c.7.55,1.02,1.09,3.28,4.76.31-1.8,3.51-4.76,3.51-4.76-3.2-2.11-7.03-.39-7.03-.39"/>
    <path class="st0" d="M79.21,97.78s1.87-2.03,2.26-2.97c1.25,1.95,1.95,2.66,2.5,3.05-2.66.47-3.9.16-4.76-.08M85.14,97.86l-.23-.31c-.7-.47-1.02-1.02-3.28-4.3-.31,1.64-3.51,4.3-3.51,4.3,3.12,1.87,7.03.31,7.03.31"/>
    <path class="st3" d="M27.43,108.87c-10.46,0-18.98-8.51-18.98-18.98s8.51-18.98,18.98-18.98c10.46.08,18.9,8.51,18.9,18.98s-8.43,18.98-18.9,18.98"/>
    <path class="st0" d="M8.06,89.89c0-10.7,8.67-19.37,19.37-19.37s19.37,8.67,19.37,19.37-8.67,19.37-19.37,19.37-19.37-8.67-19.37-19.37M45.94,89.89c0-10.23-8.28-18.51-18.51-18.51s-18.51,8.28-18.51,18.51,8.28,18.51,18.51,18.51,18.51-8.28,18.51-18.51"/>
    <path class="st0" d="M11.89,89.89c0-8.51,6.95-15.46,15.46-15.46s15.46,6.95,15.46,15.46-6.95,15.46-15.46,15.46c-8.51.08-15.46-6.87-15.46-15.46M42.35,89.89c0-8.2-6.72-14.92-14.92-14.92s-14.92,6.72-14.92,14.92,6.72,14.92,14.92,14.92,14.92-6.64,14.92-14.92"/>
    <path class="st0" d="M27.35,98.17c-4.53,0-8.2-3.67-8.2-8.2s3.67-8.2,8.2-8.2,8.2,3.67,8.2,8.2c.08,4.45-3.59,8.2-8.2,8.2M42.19,89.73l-5.78-1.72,4.61-3.9-6.01.62,2.73-5.39-5.31,2.89.47-6.01-3.83,4.69-1.87-5.78-1.72,5.78-3.9-4.61.62,6.01-5.39-2.73,2.81,5.31-6.01-.47,4.69,3.83-5.7,1.87,5.78,1.72-4.61,3.9,6.01-.62-2.73,5.39,5.31-2.89-.47,6.01,3.83-4.69,1.87,5.78,1.72-5.78,3.9,4.61-.62-6.01,5.39,2.73-2.81-5.31,6.01.47-4.69-3.83,5.7-1.87Z"/>
    <path class="st0" d="M26.1,88.56s-.86-3.98-3.36-5.62c-1.72,1.56-2.11,2.03-2.11,2.03,0,0,1.95,2.42,5.47,3.59"/>
    <path class="st0" d="M28.52,91.37s.86,3.98,3.36,5.62c1.72-1.56,2.11-2.03,2.11-2.03,0,0-1.95-2.34-5.47-3.59"/>
    <path class="st0" d="M26.18,91.37s-3.98.86-5.62,3.36c1.56,1.72,2.03,2.11,2.03,2.11,0,0,2.42-1.95,3.59-5.47"/>
    <path class="st0" d="M28.83,88.72s3.98-.86,5.62-3.36c-1.56-1.72-2.03-2.11-2.03-2.11,0,0-2.34,1.95-3.59,5.47"/>
    <path class="st0" d="M35.08,92.62s-2.34-1.87-3.44-2.26c2.26-1.17,3.05-1.95,3.51-2.42.55,2.58.23,3.9-.08,4.69M35.16,86.84l-.39.23c-.55.7-1.17,1.02-5,3.2,1.87.31,5,3.44,5,3.44,2.19-3.12.39-6.87.39-6.87"/>
    <path class="st0" d="M19.7,87.63s2.26,1.87,3.28,2.26c-2.19,1.25-2.89,1.95-3.44,2.5-.47-2.66-.08-3.9.16-4.76M19.62,93.56l.39-.23c.55-.7,1.09-1.02,4.76-3.28-1.8-.31-5-3.75-5-3.75-2.11,3.12-.16,7.26-.16,7.26"/>
    <path class="st0" d="M30.01,82.08s-1.87,2.26-2.26,3.28c-1.25-2.19-1.95-2.89-2.5-3.44,2.58-.39,3.9-.08,4.76.16M23.99,82l.23.39c.7.55,1.02,1.09,3.28,4.76.31-1.8,3.51-4.76,3.51-4.76-3.12-2.11-7.03-.39-7.03-.39"/>
    <path class="st0" d="M25.16,98.17s1.87-2.03,2.26-2.97c1.25,1.95,1.95,2.66,2.5,3.05-2.66.47-3.98.08-4.76-.08M31.1,98.25l-.23-.31c-.7-.47-1.02-1.02-3.28-4.3-.31,1.64-3.51,4.3-3.51,4.3,3.12,1.8,7.03.31,7.03.31"/>
    <path class="st3" d="M81.47,158.93c-10.46,0-18.98-8.51-18.98-18.98s8.51-18.98,18.98-18.98,18.98,8.51,18.98,18.98c-.08,10.54-8.51,18.98-18.98,18.98"/>
    <path class="st0" d="M62.1,140.03c0-10.7,8.67-19.37,19.37-19.37s19.37,8.67,19.37,19.37-8.67,19.37-19.37,19.37-19.37-8.75-19.37-19.37M99.98,140.03c0-10.23-8.28-18.51-18.51-18.51s-18.51,8.28-18.51,18.51,8.28,18.51,18.51,18.51c10.23,0,18.51-8.36,18.51-18.51"/>
    <path class="st0" d="M65.93,140.03c0-8.51,6.95-15.46,15.46-15.46s15.46,6.95,15.46,15.46-6.95,15.46-15.46,15.46-15.46-6.95-15.46-15.46M96.39,140.03c0-8.2-6.72-14.92-14.92-14.92s-14.92,6.72-14.92,14.92,6.72,14.92,14.92,14.92,14.92-6.72,14.92-14.92"/>
    <path class="st0" d="M81.39,148.23c-4.53,0-8.2-3.67-8.2-8.2s3.67-8.2,8.2-8.2,8.2,3.67,8.2,8.2c.08,4.53-3.59,8.2-8.2,8.2M96.23,139.87l-5.78-1.72,4.61-3.9-6.01.62,2.73-5.39-5.31,2.89.47-6.01-3.83,4.69-1.87-5.78-1.72,5.78-3.9-4.61.62,6.01-5.39-2.73,2.81,5.31-6.01-.47,4.69,3.83-5.7,1.87,5.78,1.72-4.61,3.9,6.01-.62-2.73,5.39,5.31-2.89-.47,6.01,3.83-4.69,1.87,5.78,1.72-5.78,3.9,4.61-.62-6.01,5.39,2.73-2.81-5.31,6.01.47-4.69-3.83,5.7-1.87Z"/>
    <path class="st0" d="M80.14,138.62s-.86-3.98-3.36-5.62c-1.72,1.56-2.11,2.03-2.11,2.03,0,0,1.95,2.42,5.47,3.59"/>
    <path class="st0" d="M82.56,141.43s.86,3.98,3.36,5.62c1.72-1.56,2.11-2.03,2.11-2.03,0,0-1.95-2.34-5.47-3.59"/>
    <path class="st0" d="M80.22,141.43s-3.98.86-5.62,3.36c1.56,1.72,2.03,2.11,2.03,2.11,0,0,2.42-1.95,3.59-5.47"/>
    <path class="st0" d="M82.96,138.78s3.98-.86,5.62-3.36c-1.56-1.72-2.03-2.11-2.03-2.11,0,0-2.42,2.03-3.59,5.47"/>
    <path class="st0" d="M89.12,142.76s-2.34-1.87-3.44-2.26c2.26-1.17,3.05-1.95,3.51-2.42.62,2.58.23,3.83-.08,4.69M89.2,136.9l-.39.23c-.55.7-1.17,1.02-5,3.2,1.87.31,5,3.44,5,3.44,2.19-3.05.39-6.87.39-6.87"/>
    <path class="st0" d="M73.74,137.68s2.26,1.87,3.28,2.26c-2.19,1.25-2.89,1.95-3.44,2.5-.39-2.58-.08-3.9.16-4.76M73.66,143.62l.39-.23c.55-.7,1.09-1.02,4.76-3.28-1.8-.31-5-3.75-5-3.75-2.11,3.12-.16,7.26-.16,7.26"/>
    <path class="st0" d="M84.05,132.22s-1.87,2.26-2.26,3.28c-1.25-2.19-1.95-2.89-2.5-3.44,2.58-.47,3.9-.16,4.76.16M78.11,132.14l.23.39c.7.55,1.02,1.09,3.28,4.76.31-1.8,3.51-4.76,3.51-4.76-3.2-2.11-7.03-.39-7.03-.39"/>
    <path class="st0" d="M79.21,148.23s1.87-2.03,2.26-2.97c1.25,1.95,1.95,2.66,2.5,3.05-2.66.47-3.9.16-4.76-.08M85.14,148.31l-.23-.31c-.7-.47-1.02-1.02-3.28-4.3-.31,1.64-3.51,4.3-3.51,4.3,3.12,1.87,7.03.31,7.03.31"/>
    <path class="st3" d="M27.43,159.32c-10.46,0-18.98-8.51-18.98-18.98s8.51-18.98,18.98-18.98,18.98,8.51,18.98,18.98c-.08,10.46-8.51,18.98-18.98,18.98"/>
    <path class="st0" d="M8.06,140.34c0-10.7,8.67-19.37,19.37-19.37s19.37,8.67,19.37,19.37-8.67,19.37-19.37,19.37-19.37-8.67-19.37-19.37M45.94,140.34c0-10.23-8.28-18.51-18.51-18.51s-18.51,8.28-18.51,18.51,8.28,18.51,18.51,18.51,18.51-8.28,18.51-18.51"/>
    <path class="st0" d="M11.89,140.34c0-8.51,6.95-15.46,15.46-15.46s15.46,6.95,15.46,15.46-6.95,15.46-15.46,15.46c-8.51.08-15.46-6.87-15.46-15.46M42.35,140.34c0-8.2-6.72-14.92-14.92-14.92s-14.92,6.72-14.92,14.92,6.72,14.92,14.92,14.92c8.2.08,14.92-6.64,14.92-14.92"/>
    <path class="st0" d="M27.35,148.62c-4.53,0-8.2-3.67-8.2-8.2s3.67-8.2,8.2-8.2,8.2,3.67,8.2,8.2c.08,4.53-3.59,8.2-8.2,8.2M42.19,140.18l-5.78-1.72,4.61-3.9-6.01.62,2.73-5.39-5.31,2.89.47-6.01-3.83,4.69-1.87-5.78-1.72,5.78-3.9-4.61.62,6.01-5.39-2.73,2.81,5.31-6.01-.47,4.69,3.83-5.7,1.87,5.78,1.72-4.61,3.9,6.01-.62-2.73,5.39,5.31-2.89-.47,6.01,3.83-4.69,1.87,5.78,1.72-5.78,3.9,4.61-.62-6.01,5.39,2.73-2.81-5.31,6.01.47-4.69-3.83,5.7-1.87Z"/>
    <path class="st0" d="M26.1,139.01s-.86-3.98-3.36-5.62c-1.72,1.56-2.11,2.03-2.11,2.03,0,0,1.95,2.42,5.47,3.59"/>
    <path class="st0" d="M28.52,141.82s.86,3.98,3.36,5.62c1.72-1.56,2.11-2.03,2.11-2.03,0,0-1.95-2.34-5.47-3.59"/>
    <path class="st0" d="M26.18,141.82s-3.98.86-5.62,3.36c1.56,1.72,2.03,2.11,2.03,2.11,0,0,2.42-1.95,3.59-5.47"/>
    <path class="st0" d="M28.83,139.17s3.98-.86,5.62-3.36c-1.56-1.72-2.03-2.11-2.03-2.11,0,0-2.34,1.95-3.59,5.47"/>
    <path class="st0" d="M35.08,143.07s-2.34-1.87-3.44-2.26c2.26-1.17,3.05-1.95,3.51-2.42.55,2.66.23,3.9-.08,4.69M35.16,137.29l-.39.23c-.55.7-1.17,1.02-5,3.2,1.87.31,5,3.44,5,3.44,2.19-3.12.39-6.87.39-6.87"/>
    <path class="st0" d="M19.7,138.08s2.26,1.87,3.28,2.26c-2.19,1.25-2.89,1.95-3.44,2.5-.47-2.66-.08-3.9.16-4.76M19.62,144.01l.39-.23c.55-.7,1.09-1.02,4.76-3.28-1.8-.31-5-3.75-5-3.75-2.11,3.12-.16,7.26-.16,7.26"/>
    <path class="st0" d="M30.01,132.61s-1.87,2.26-2.26,3.28c-1.25-2.19-1.95-2.89-2.5-3.44,2.58-.47,3.9-.16,4.76.16M23.99,132.45l.23.39c.7.55,1.02,1.09,3.28,4.76.31-1.8,3.51-4.76,3.51-4.76-3.12-2.11-7.03-.39-7.03-.39"/>
    <path class="st0" d="M25.16,148.62s1.87-2.03,2.26-2.97c1.25,1.95,1.95,2.66,2.5,3.05-2.66.47-3.98.16-4.76-.08M31.1,148.7l-.23-.31c-.7-.47-1.02-1.02-3.28-4.3-.31,1.64-3.51,4.3-3.51,4.3,3.12,1.8,7.03.31,7.03.31"/>
  </g>
</svg>