<?xml version="1.0" encoding="UTF-8"?>
<svg id="Layer_1" xmlns="http://www.w3.org/2000/svg" version="1.1" viewBox="0 0 109.6 176.97">
  <!-- Generator: Adobe Illustrator 30.2.1, SVG Export Plug-In . SVG Version: 2.1.1 Build 1)  -->
  <defs>
    <style>
      .st0 {
        fill: #1d1c1a;
      }

      .st1 {
        stroke-width: .78px;
      }

      .st1, .st2, .st3 {
        fill: none;
        stroke: #1d1c1a;
        stroke-miterlimit: 10;
      }

      .st2 {
        stroke-width: 1.17px;
      }

      .st3 {
        stroke-width: 1.26px;
      }

      .st4 {
        fill: #fff;
      }

      .st5 {
        fill: #fddb00;
      }
    </style>
  </defs>
  <rect class="st4" x=".04" y="-.07" width="110.69" height="177.1"/>
  <g>
    <path class="st0" d="M6.54,9.76v-1.64c1.17-.47,2.19-.78,3.12-.78.55,0,1.09.08,1.48.23.47.16.78.39,1.02.7s.39.7.39,1.09-.08.7-.23,1.02c-.16.31-.39.55-.62.78-.31.23-.62.47-1.09.62v.08c.39.08.78.23,1.09.39.31.23.62.47.78.78.16.31.31.7.31,1.17,0,.55-.16,1.02-.39,1.41-.23.39-.62.78-1.17,1.02s-1.17.39-1.87.39c-.55,0-1.02-.08-1.48-.16-.47-.08-.94-.23-1.33-.39v-1.72h1.25c.16.55.31.94.55,1.17s.55.39.94.39c.94,0,1.48-.62,1.48-1.8,0-.62-.16-1.17-.55-1.48-.31-.31-.86-.47-1.56-.47h-.55v-.78c.78,0,1.41-.23,1.8-.55s.62-.86.62-1.48c0-.55-.08-.86-.31-1.17-.23-.23-.47-.39-.86-.39-.23,0-.47.08-.62.16-.16.08-.39.23-.47.55-.16.23-.23.55-.31.94h-1.41v-.08Z"/>
    <path class="st0" d="M102.99,167.36v1.64c-1.17.47-2.19.78-3.12.78-.55,0-1.09-.08-1.48-.23-.47-.16-.78-.39-1.02-.7s-.39-.7-.39-1.09.08-.7.23-1.02.39-.55.62-.78c.31-.23.62-.47,1.09-.62v-.08c-.39-.08-.78-.23-1.09-.39-.31-.23-.62-.47-.78-.78s-.31-.7-.31-1.17c0-.55.16-1.02.39-1.41s.62-.78,1.17-1.02,1.17-.39,1.87-.39c.55,0,1.02.08,1.48.16.47.08.94.23,1.33.39v1.72h-1.25c-.16-.55-.31-.94-.55-1.17s-.55-.39-.94-.39c-.94,0-1.48.62-1.48,1.8,0,.62.16,1.17.55,1.48.31.31.86.47,1.56.47h.55v.78c-.78,0-1.41.23-1.8.55s-.62.86-.62,1.48c0,.55.08.86.31,1.17.23.23.47.39.86.39.23,0,.47-.08.62-.16.16-.08.39-.23.47-.55.16-.23.23-.55.31-.94h1.41v.08Z"/>
    <polygon class="st3" points="81.98 171.58 64.17 171.58 49.1 171.58 31.29 171.58 19.81 171.58 4.27 171.58 4.27 5.39 19.27 5.39 31.29 5.39 49.1 5.39 64.17 5.39 81.98 5.39 92.6 5.39 106.5 5.39 106.5 171.58 92.37 171.58 81.98 171.58"/>
    <path class="st5" d="M77.61,69.12c-14.29,0-25.85-11.56-25.85-25.85s11.56-25.85,25.85-25.85,25.85,11.56,25.85,25.85-11.56,25.85-25.85,25.85"/>
    <path class="st2" d="M77.61,69.12c-14.29,0-25.85-11.56-25.85-25.85s11.56-25.85,25.85-25.85,25.85,11.56,25.85,25.85-11.56,25.85-25.85,25.85Z"/>
    <path class="st1" d="M77.61,64.04c-11.48,0-20.77-9.29-20.77-20.77s9.29-20.7,20.77-20.7,20.77,9.29,20.77,20.77-9.29,20.7-20.77,20.7Z"/>
    <path class="st0" d="M77.53,54.51c-6.17,0-11.25-5-11.25-11.25s5-11.25,11.25-11.25,11.25,5,11.25,11.25-5,11.25-11.25,11.25M97.75,43.11l-7.89-2.34,6.25-5.39-8.2.86,3.75-7.34-7.26,3.9.62-8.2-5.23,6.4-2.5-7.81-2.26,7.73-5.31-6.25.78,8.2-7.34-3.75,3.9,7.26-8.2-.62,6.33,5.23-7.81,2.58,7.89,2.42-6.25,5.39,8.2-.86-3.75,7.34,7.26-3.9-.62,8.2,5.23-6.4,2.5,7.81,2.42-7.89,5.31,6.25-.78-8.2,7.34,3.75-3.9-7.26,8.2.62-6.33-5.23,7.65-2.5Z"/>
    <path class="st0" d="M75.81,41.47s-1.17-5.47-4.53-7.73c-2.34,2.11-2.89,2.73-2.89,2.73,0,0,2.66,3.36,7.42,5"/>
    <path class="st0" d="M79.17,45.3s1.17,5.47,4.53,7.73c2.34-2.11,2.89-2.73,2.89-2.73,0,0-2.73-3.36-7.42-5"/>
    <path class="st0" d="M75.89,45.3s-5.47,1.17-7.73,4.53c2.11,2.34,2.73,2.89,2.73,2.89,0,0,3.36-2.66,5-7.42"/>
    <path class="st0" d="M79.56,41.63s5.47-1.17,7.73-4.53c-2.11-2.34-2.73-2.89-2.73-2.89,0,0-3.36,2.73-5,7.42"/>
    <path class="st0" d="M88.07,47.02s-3.2-2.58-4.69-3.05c3.05-1.64,4.14-2.66,4.84-3.36.7,3.59.23,5.31-.16,6.4M88.23,39.05l-.55.39c-.78.94-1.64,1.41-6.79,4.37,2.58.47,6.79,4.69,6.79,4.69,2.97-4.22.55-9.45.55-9.45"/>
    <path class="st0" d="M67.14,40.14s3.12,2.58,4.45,3.12c-2.97,1.64-3.98,2.66-4.61,3.36-.7-3.51-.23-5.31.16-6.48M66.98,48.26l.55-.39c.7-1.02,1.56-1.41,6.56-4.45-2.5-.47-6.87-5.15-6.87-5.15-2.89,4.37-.23,10-.23,10"/>
    <path class="st0" d="M81.12,32.65s-2.58,3.12-3.12,4.45c-1.64-2.97-2.66-3.98-3.36-4.61,3.51-.7,5.31-.16,6.48.16M73,32.57l.39.55c1.02.7,1.41,1.56,4.45,6.56.47-2.5,4.76-6.56,4.76-6.56-4.37-2.89-9.61-.55-9.61-.55"/>
    <path class="st0" d="M74.48,54.51s2.58-2.81,3.12-3.98c1.64,2.66,2.66,3.59,3.36,4.14-3.51.62-5.31.16-6.48-.16M82.6,54.59l-.39-.47c-1.02-.62-1.41-1.41-4.45-5.86-.47,2.19-4.76,5.86-4.76,5.86,4.37,2.58,9.61.47,9.61.47"/>
    <path class="st5" d="M33.17,113.4c-14.29,0-25.85-11.56-25.85-25.85s11.56-25.85,25.85-25.85,25.85,11.56,25.85,25.85-11.56,25.85-25.85,25.85"/>
    <circle class="st2" cx="33.17" cy="87.55" r="25.85"/>
    <path class="st1" d="M33.17,108.32c-11.48,0-20.77-9.29-20.77-20.77s9.29-20.77,20.77-20.77,20.77,9.37,20.77,20.77-9.29,20.77-20.77,20.77Z"/>
    <path class="st0" d="M33.17,98.79c-6.17,0-11.25-5-11.25-11.25s5-11.25,11.25-11.25,11.25,5,11.25,11.25c0,6.25-5.08,11.25-11.25,11.25M53.32,87.39l-7.89-2.34,6.25-5.39-8.2.86,3.75-7.34-7.26,3.9.62-8.2-5.23,6.4-2.5-7.81-2.42,7.89-5.31-6.25.78,8.2-7.11-3.9,3.9,7.26-8.2-.62,6.33,5.23-7.81,2.58,7.89,2.34-6.25,5.39,8.2-.86-3.75,7.34,7.26-3.9-.62,8.2,5.23-6.4,2.5,7.81,2.42-7.89,5.31,6.25-.78-8.2,7.34,3.75-3.9-7.26,8.2.62-6.33-5.23,7.58-2.42Z"/>
    <path class="st0" d="M31.37,85.75s-1.17-5.47-4.53-7.73c-2.34,2.11-2.89,2.73-2.89,2.73,0,0,2.66,3.36,7.42,5"/>
    <path class="st0" d="M34.73,89.58s1.17,5.47,4.53,7.73c2.34-2.11,2.89-2.73,2.89-2.73,0,0-2.66-3.36-7.42-5"/>
    <path class="st0" d="M31.53,89.58s-5.47,1.17-7.73,4.53c2.11,2.34,2.73,2.89,2.73,2.89,0,0,3.36-2.66,5-7.42"/>
    <path class="st0" d="M35.2,85.91s5.47-1.17,7.73-4.53c-2.11-2.34-2.73-2.89-2.73-2.89,0,0-3.36,2.73-5,7.42"/>
    <path class="st0" d="M43.71,91.3s-3.2-2.58-4.69-3.05c3.05-1.64,4.14-2.66,4.84-3.36.7,3.59.16,5.31-.16,6.4M43.79,83.33l-.55.39c-.78.94-1.64,1.41-6.79,4.37,2.58.47,6.79,4.69,6.79,4.69,3.05-4.22.55-9.45.55-9.45"/>
    <path class="st0" d="M22.7,84.42s3.12,2.58,4.45,3.12c-2.97,1.64-3.98,2.66-4.61,3.36-.62-3.51-.16-5.31.16-6.48M22.63,92.55l.55-.39c.7-1.02,1.56-1.41,6.56-4.45-2.5-.47-6.87-5.15-6.87-5.15-2.89,4.37-.23,10-.23,10"/>
    <path class="st0" d="M36.68,76.93s-2.58,3.12-3.12,4.45c-1.64-2.97-2.66-3.98-3.36-4.61,3.59-.62,5.39-.16,6.48.16M28.56,76.85l.39.55c1.02.7,1.41,1.56,4.45,6.56.47-2.5,4.76-6.56,4.76-6.56-4.3-2.89-9.61-.55-9.61-.55"/>
    <path class="st0" d="M30.12,98.79s2.58-2.81,3.12-3.98c1.64,2.66,2.66,3.59,3.36,4.14-3.59.62-5.31.16-6.48-.16M38.25,98.87l-.39-.47c-1.02-.62-1.41-1.41-4.45-5.86-.47,2.19-4.76,5.86-4.76,5.86,4.3,2.58,9.61.47,9.61.47"/>
    <path class="st5" d="M76.98,159.47c-14.29,0-25.85-11.56-25.85-25.85s11.56-25.85,25.85-25.85,25.85,11.56,25.85,25.85-11.56,25.85-25.85,25.85"/>
    <path class="st2" d="M76.98,159.47c-14.29,0-25.85-11.56-25.85-25.85s11.56-25.85,25.85-25.85,25.85,11.56,25.85,25.85-11.56,25.85-25.85,25.85Z"/>
    <path class="st1" d="M76.98,154.4c-11.48,0-20.77-9.29-20.77-20.77s9.29-20.77,20.77-20.77,20.77,9.29,20.77,20.77-9.29,20.77-20.77,20.77Z"/>
    <path class="st0" d="M76.98,144.87c-6.17,0-11.25-5-11.25-11.25s5-11.25,11.25-11.25,11.25,5,11.25,11.25c-.08,6.25-5.08,11.25-11.25,11.25M97.13,133.47l-7.89-2.42,6.25-5.39-8.2.86,3.75-7.34-7.26,3.9.62-8.2-5.23,6.4-2.5-7.81-2.42,7.89-5.31-6.25.78,8.2-7.34-3.75,3.9,7.26-8.2-.62,6.33,5.23-7.81,2.58,7.89,2.34-6.25,5.39,8.2-.86-3.75,7.34,7.26-3.9-.62,8.2,5.23-6.4,2.5,7.81,2.42-7.89,5.31,6.25-.78-8.2,7.34,3.75-3.9-7.26,8.2.62-6.33-5.23,7.81-2.5Z"/>
    <path class="st0" d="M75.18,131.83s-1.17-5.47-4.53-7.73c-2.34,2.11-2.89,2.73-2.89,2.73,0,0,2.66,3.36,7.42,5"/>
    <path class="st0" d="M78.54,135.65s1.17,5.47,4.53,7.73c2.34-2.11,2.89-2.73,2.89-2.73,0,0-2.66-3.36-7.42-5"/>
    <path class="st0" d="M75.34,135.65s-5.47,1.17-7.73,4.53c2.11,2.34,2.73,2.89,2.73,2.89,0,0,3.36-2.66,5-7.42"/>
    <path class="st0" d="M79.01,132.06s5.47-1.17,7.73-4.53c-2.11-2.34-2.73-2.89-2.73-2.89,0,0-3.36,2.66-5,7.42"/>
    <path class="st0" d="M87.45,137.45s-3.2-2.58-4.69-3.05c3.05-1.64,4.14-2.66,4.84-3.36.78,3.51.23,5.23-.16,6.4M87.6,129.48l-.55.39c-.78.94-1.64,1.41-6.79,4.37,2.58.47,6.79,4.69,6.79,4.69,2.97-4.3.55-9.45.55-9.45"/>
    <path class="st0" d="M66.52,130.58s3.12,2.58,4.45,3.12c-2.97,1.64-3.98,2.66-4.61,3.36-.7-3.59-.16-5.39.16-6.48M66.44,138.62l.55-.39c.7-1.02,1.56-1.41,6.56-4.45-2.5-.47-6.87-5.15-6.87-5.15-2.97,4.37-.23,10-.23,10"/>
    <path class="st0" d="M80.5,123.08s-2.58,3.12-3.12,4.45c-1.64-2.97-2.66-3.98-3.36-4.61,3.51-.7,5.31-.23,6.48.16M72.37,122.92l.39.55c1.02.7,1.41,1.56,4.45,6.56.47-2.5,4.76-6.56,4.76-6.56-4.3-2.89-9.61-.55-9.61-.55"/>
    <path class="st0" d="M73.94,144.87s2.58-2.81,3.12-3.98c1.64,2.66,2.66,3.59,3.36,4.14-3.59.62-5.39.16-6.48-.16M81.98,144.95l-.39-.47c-1.02-.62-1.41-1.41-4.45-5.86-.47,2.19-4.76,5.86-4.76,5.86,4.37,2.66,9.61.47,9.61.47"/>
  </g>
</svg>