<?xml version="1.0" encoding="UTF-8"?>
<svg id="Layer_1" xmlns="http://www.w3.org/2000/svg" version="1.1" viewBox="0 0 109.6 176.97">
  <!-- Generator: Adobe Illustrator 30.2.1, SVG Export Plug-In . SVG Version: 2.1.1 Build 1)  -->
  <defs>
    <style>
      .st0 {
        fill: #1d1c1a;
      }

      .st1 {
        stroke-width: 1.56px;
      }

      .st1, .st2, .st3, .st4, .st5 {
        fill: none;
        stroke: #1d1c1a;
        stroke-miterlimit: 10;
      }

      .st2 {
        stroke-width: .78px;
      }

      .st3 {
        stroke-width: 1.17px;
      }

      .st4 {
        stroke-width: 1.26px;
      }

      .st6 {
        fill: #fff;
      }

      .st7 {
        fill: #fddb00;
      }

      .st5 {
        stroke-width: .08px;
      }
    </style>
  </defs>
  <rect class="st6" x="-.25" y="-.07" width="110.69" height="177.1"/>
  <g>
    <path class="st0" d="M6.33,16.48v-1.72h1.25c.08.47.31.86.55,1.09s.55.39.94.39c.47,0,.86-.16,1.09-.47.23-.31.39-.78.39-1.41s-.16-1.09-.47-1.48c-.31-.31-.78-.47-1.33-.47-.23,0-.47,0-.7.08-.23.08-.47.08-.7.16l-.62-.39v-4.69h4.45c.08,0,.16-.08.16-.16.08-.08.08-.16.16-.31h.78l-.16,2.19h-4.22v2.5c.31-.08.55-.16.86-.16.31-.08.62-.08,1.02-.08.55,0,1.09.08,1.48.31.39.23.78.55,1.02.94.23.39.39.86.39,1.41,0,.62-.16,1.17-.39,1.56-.31.47-.7.78-1.25.94-.55.23-1.17.31-1.95.31-.47,0-.94-.08-1.48-.16-.47-.08-.94-.23-1.25-.39"/>
    <path class="st0" d="M104.18,160.57v1.72h-1.25c-.08-.47-.31-.86-.55-1.09-.23-.23-.55-.39-.94-.39-.47,0-.86.16-1.09.47-.23.31-.39.78-.39,1.41s.16,1.09.47,1.48c.31.31.78.47,1.33.47.23,0,.47,0,.7-.08.23-.08.47-.08.7-.16l.62.39v4.69h-4.45c-.08,0-.16.08-.16.16-.08.08-.08.16-.16.31h-.78l.16-2.19h4.22v-2.5c-.31.08-.55.16-.86.16s-.62.08-1.02.08c-.55,0-1.09-.08-1.48-.31-.39-.23-.78-.55-1.02-.94s-.39-.86-.39-1.41c0-.62.16-1.17.39-1.56.31-.47.7-.78,1.25-.94.55-.23,1.17-.31,1.95-.31.47,0,.94.08,1.48.16.47.16.86.23,1.25.39"/>
    <polygon class="st4" points="81.69 171.58 63.88 171.58 48.81 171.58 31 171.58 19.52 171.58 3.98 171.58 3.98 5.39 18.98 5.39 31 5.39 48.81 5.39 63.88 5.39 81.69 5.39 92.31 5.39 106.21 5.39 106.21 171.58 92.08 171.58 81.69 171.58"/>
    <path class="st7" d="M81.77,159.24c-10.31,0-18.66-8.36-18.66-18.66s8.36-18.66,18.66-18.66,18.66,8.36,18.66,18.66-8.36,18.66-18.66,18.66"/>
    <path class="st3" d="M81.77,159.24c-10.31,0-18.66-8.36-18.66-18.66s8.36-18.66,18.66-18.66,18.66,8.36,18.66,18.66-8.36,18.66-18.66,18.66Z"/>
    <path class="st2" d="M81.77,155.57c-8.28,0-14.99-6.72-14.99-14.99s6.72-14.99,14.99-14.99,14.99,6.72,14.99,14.99-6.72,14.99-14.99,14.99Z"/>
    <path class="st0" d="M81.69,148.62c-4.45,0-8.12-3.59-8.12-8.12s3.59-8.12,8.12-8.12,8.12,3.59,8.12,8.12-3.59,8.12-8.12,8.12M96.29,140.42l-5.7-1.72,4.53-3.9-5.94.62,2.73-5.31-5.23,2.81.47-5.94-3.75,4.61-1.8-5.7-1.72,5.7-3.83-4.53.55,5.94-5.31-2.73,2.81,5.23-5.94-.47,4.61,3.75-5.62,1.87,5.7,1.72-4.53,3.9,5.94-.62-2.73,5.31,5.23-2.81-.47,5.94,3.75-4.61,1.8,5.7,1.72-5.7,3.83,4.53-.55-5.94,5.31,2.73-2.81-5.23,5.94.47-4.61-3.75,5.62-1.87Z"/>
    <path class="st0" d="M80.44,139.17s-.86-3.9-3.28-5.54c-1.72,1.48-2.11,1.95-2.11,1.95,0,0,1.95,2.42,5.39,3.59"/>
    <path class="st0" d="M82.86,141.98s.86,3.98,3.28,5.54c1.72-1.48,2.11-1.95,2.11-1.95,0,0-1.95-2.42-5.39-3.59"/>
    <path class="st0" d="M80.52,141.98s-3.9.86-5.54,3.28c1.48,1.72,1.95,2.11,1.95,2.11,0,0,2.42-1.95,3.59-5.39"/>
    <path class="st0" d="M83.17,139.32s3.9-.86,5.54-3.28c-1.48-1.72-1.95-2.11-1.95-2.11,0,0-2.42,2.03-3.59,5.39"/>
    <path class="st0" d="M89.34,143.23s-2.34-1.87-3.36-2.19c2.19-1.17,2.97-1.87,3.51-2.42.47,2.58.08,3.83-.16,4.61M89.42,137.53l-.39.23c-.55.7-1.17,1.02-4.92,3.2,1.87.31,4.92,3.36,4.92,3.36,2.11-3.12.39-6.79.39-6.79"/>
    <path class="st0" d="M74.19,138.31s2.26,1.87,3.2,2.26c-2.11,1.17-2.89,1.95-3.36,2.42-.47-2.58-.16-3.9.16-4.69M74.11,144.17l.39-.23c.55-.7,1.09-1.02,4.69-3.2-1.8-.31-4.92-3.75-4.92-3.75-2.11,3.05-.16,7.18-.16,7.18"/>
    <path class="st0" d="M84.27,132.84s-1.87,2.26-2.26,3.2c-1.17-2.11-1.95-2.89-2.42-3.36,2.58-.47,3.83-.08,4.69.16M78.41,132.76l.23.39c.7.55,1.02,1.09,3.2,4.69.31-1.8,3.44-4.69,3.44-4.69-3.05-2.11-6.87-.39-6.87-.39"/>
    <path class="st0" d="M79.5,148.62s1.87-2.03,2.26-2.89c1.17,1.87,1.95,2.58,2.42,3.05-2.58.39-3.83.08-4.69-.16M85.36,148.7l-.23-.31c-.7-.47-1.02-1.02-3.2-4.22-.31,1.56-3.44,4.22-3.44,4.22,3.05,1.87,6.87.31,6.87.31"/>
    <path class="st7" d="M81.77,52.33c-10.31,0-18.66-8.36-18.66-18.66s8.36-18.66,18.66-18.66,18.66,8.36,18.66,18.66-8.36,18.66-18.66,18.66"/>
    <path class="st3" d="M81.77,52.33c-10.31,0-18.66-8.36-18.66-18.66s8.36-18.66,18.66-18.66,18.66,8.36,18.66,18.66-8.36,18.66-18.66,18.66Z"/>
    <path class="st2" d="M81.77,48.66c-8.28,0-14.99-6.72-14.99-14.99s6.72-14.99,14.99-14.99,14.99,6.72,14.99,14.99-6.72,14.99-14.99,14.99Z"/>
    <path class="st0" d="M81.69,41.78c-4.45,0-8.12-3.59-8.12-8.12s3.59-8.12,8.12-8.12,8.12,3.59,8.12,8.12-3.59,8.12-8.12,8.12M96.29,33.5l-5.7-1.72,4.53-3.9-5.94.62,2.73-5.31-5.23,2.81.47-5.94-3.75,4.61-1.8-5.7-1.72,5.7-3.9-4.45.55,5.94-5.31-2.73,2.81,5.23-5.94-.47,4.61,3.75-5.62,1.87,5.7,1.72-4.53,3.9,5.94-.62-2.73,5.31,5.23-2.81-.47,5.94,3.75-4.61,1.8,5.7,1.72-5.7,3.83,4.53-.55-5.94,5.31,2.73-2.81-5.23,5.94.47-4.61-3.75,5.7-1.95Z"/>
    <path class="st0" d="M80.44,32.33s-.86-3.9-3.28-5.54c-1.72,1.48-2.11,1.95-2.11,1.95,0,0,1.95,2.42,5.39,3.59"/>
    <path class="st0" d="M82.86,35.14s.86,3.98,3.28,5.54c1.72-1.48,2.11-1.95,2.11-1.95,0,0-1.95-2.42-5.39-3.59"/>
    <path class="st0" d="M80.52,35.14s-3.9.86-5.54,3.28c1.48,1.72,1.95,2.11,1.95,2.11,0,0,2.42-1.95,3.59-5.39"/>
    <path class="st0" d="M83.17,32.49s3.9-.86,5.54-3.28c-1.48-1.72-1.95-2.11-1.95-2.11,0,0-2.42,1.95-3.59,5.39"/>
    <path class="st0" d="M89.34,36.39s-2.34-1.87-3.36-2.19c2.19-1.17,2.97-1.87,3.51-2.42.47,2.5.08,3.83-.16,4.61M89.42,30.62l-.39.23c-.55.7-1.17,1.02-4.92,3.2,1.87.31,4.92,3.36,4.92,3.36,2.11-3.05.39-6.79.39-6.79"/>
    <path class="st0" d="M74.19,31.47s2.26,1.87,3.2,2.26c-2.11,1.17-2.89,1.95-3.36,2.42-.47-2.58-.16-3.9.16-4.69M74.11,37.25l.39-.23c.55-.7,1.09-1.02,4.69-3.2-1.8-.31-4.92-3.75-4.92-3.75-2.11,3.12-.16,7.18-.16,7.18"/>
    <path class="st0" d="M84.27,26.01s-1.87,2.26-2.26,3.2c-1.17-2.11-1.95-2.89-2.42-3.36,2.58-.47,3.83-.08,4.69.16M78.41,25.93l.23.39c.7.55,1.02,1.09,3.2,4.69.31-1.8,3.44-4.69,3.44-4.69-3.05-2.11-6.87-.39-6.87-.39"/>
    <path class="st0" d="M79.5,41.78s1.87-2.03,2.26-2.89c1.17,1.87,1.95,2.58,2.42,3.05-2.58.39-3.83.08-4.69-.16M85.36,41.86l-.23-.31c-.7-.47-1.02-1.02-3.2-4.22-.31,1.56-3.44,4.22-3.44,4.22,3.05,1.87,6.87.31,6.87.31"/>
    <path class="st7" d="M28.66,159.24c-10.31,0-18.66-8.36-18.66-18.66s8.36-18.66,18.66-18.66,18.66,8.36,18.66,18.66-8.36,18.66-18.66,18.66"/>
    <path class="st3" d="M28.66,159.24c-10.31,0-18.66-8.36-18.66-18.66s8.36-18.66,18.66-18.66,18.66,8.36,18.66,18.66-8.36,18.66-18.66,18.66Z"/>
    <path class="st2" d="M28.66,155.57c-8.28,0-14.99-6.72-14.99-14.99s6.72-14.99,14.99-14.99,14.99,6.72,14.99,14.99-6.72,14.99-14.99,14.99Z"/>
    <path class="st0" d="M28.66,148.62c-4.45,0-8.12-3.59-8.12-8.12s3.59-8.12,8.12-8.12,8.12,3.59,8.12,8.12-3.67,8.12-8.12,8.12M43.27,140.42l-5.7-1.72,4.53-3.9-5.94.62,2.73-5.31-5.23,2.81.47-5.94-3.75,4.61-1.8-5.7-1.72,5.7-3.83-4.53.55,5.94-5.31-2.73,2.81,5.23-5.94-.47,4.61,3.75-5.62,1.87,5.7,1.72-4.53,3.9,5.94-.62-2.73,5.31,5.23-2.81-.47,5.94,3.75-4.61,1.8,5.7,1.72-5.7,3.83,4.53-.55-5.94,5.31,2.73-2.81-5.23,5.94.47-4.61-3.75,5.62-1.87Z"/>
    <path class="st0" d="M27.33,139.17s-.86-3.9-3.28-5.54c-1.72,1.48-2.11,1.95-2.11,1.95,0,0,1.95,2.42,5.39,3.59"/>
    <path class="st0" d="M29.75,141.98s.86,3.98,3.28,5.54c1.72-1.48,2.11-1.95,2.11-1.95,0,0-1.95-2.42-5.39-3.59"/>
    <path class="st0" d="M27.49,141.98s-3.9.86-5.54,3.28c1.48,1.72,1.95,2.11,1.95,2.11,0,0,2.34-1.95,3.59-5.39"/>
    <path class="st0" d="M30.15,139.32s3.9-.86,5.54-3.28c-1.48-1.72-1.95-2.11-1.95-2.11,0,0-2.42,2.03-3.59,5.39"/>
    <path class="st0" d="M36.24,143.23s-2.34-1.87-3.36-2.19c2.19-1.17,2.97-1.87,3.51-2.42.47,2.58.16,3.83-.16,4.61M36.31,137.53l-.39.23c-.55.7-1.17,1.02-4.92,3.2,1.87.31,4.92,3.36,4.92,3.36,2.19-3.12.39-6.79.39-6.79"/>
    <path class="st0" d="M21.09,138.31s2.26,1.87,3.2,2.26c-2.11,1.17-2.89,1.95-3.36,2.42-.47-2.58-.08-3.9.16-4.69M21.01,144.17l.39-.23c.55-.7,1.09-1.02,4.69-3.2-1.8-.31-4.92-3.75-4.92-3.75-2.03,3.05-.16,7.18-.16,7.18"/>
    <path class="st0" d="M31.16,132.84s-1.87,2.26-2.26,3.2c-1.17-2.11-1.95-2.89-2.42-3.36,2.58-.47,3.9-.08,4.69.16M25.38,132.76l.23.39c.7.55,1.02,1.09,3.2,4.69.31-1.8,3.44-4.69,3.44-4.69-3.12-2.11-6.87-.39-6.87-.39"/>
    <path class="st0" d="M26.47,148.62s1.87-2.03,2.26-2.89c1.17,1.87,1.95,2.58,2.42,3.05-2.58.39-3.9.08-4.69-.16M32.33,148.7l-.23-.31c-.7-.47-1.02-1.02-3.2-4.22-.31,1.56-3.44,4.22-3.44,4.22,3.05,1.87,6.87.31,6.87.31"/>
    <path class="st7" d="M28.66,52.33c-10.31,0-18.66-8.36-18.66-18.66S18.35,15,28.66,15s18.66,8.36,18.66,18.66-8.36,18.66-18.66,18.66"/>
    <path class="st3" d="M28.66,52.33c-10.31,0-18.66-8.36-18.66-18.66S18.35,15,28.66,15s18.66,8.36,18.66,18.66-8.36,18.66-18.66,18.66Z"/>
    <path class="st2" d="M28.66,48.66c-8.28,0-14.99-6.72-14.99-14.99s6.72-14.99,14.99-14.99,14.99,6.72,14.99,14.99-6.72,14.99-14.99,14.99Z"/>
    <path class="st0" d="M28.66,41.78c-4.45,0-8.12-3.59-8.12-8.12s3.67-8.04,8.12-8.04,8.12,3.59,8.12,8.12-3.67,8.04-8.12,8.04M43.27,33.5l-5.7-1.72,4.53-3.9-5.94.62,2.73-5.31-5.23,2.81.47-5.94-3.75,4.61-1.8-5.7-1.72,5.7-3.9-4.45.55,5.94-5.31-2.73,2.81,5.23-5.94-.47,4.61,3.75-5.62,1.87,5.7,1.72-4.53,3.9,5.94-.62-2.73,5.31,5.23-2.81-.47,5.94,3.75-4.61,1.8,5.7,1.72-5.7,3.83,4.53-.55-5.94,5.31,2.73-2.81-5.23,5.94.47-4.61-3.75,5.7-1.95Z"/>
    <path class="st0" d="M27.33,32.33s-.86-3.9-3.28-5.54c-1.72,1.48-2.11,1.95-2.11,1.95,0,0,1.95,2.42,5.39,3.59"/>
    <path class="st0" d="M29.75,35.14s.86,3.98,3.28,5.54c1.72-1.48,2.11-1.95,2.11-1.95,0,0-1.95-2.42-5.39-3.59"/>
    <path class="st0" d="M27.49,35.14s-3.9.86-5.54,3.28c1.48,1.72,1.95,2.11,1.95,2.11,0,0,2.34-1.95,3.59-5.39"/>
    <path class="st0" d="M30.15,32.49s3.9-.86,5.54-3.28c-1.48-1.72-1.95-2.11-1.95-2.11,0,0-2.42,1.95-3.59,5.39"/>
    <path class="st0" d="M36.24,36.39s-2.34-1.87-3.36-2.19c2.19-1.17,2.97-1.87,3.51-2.42.47,2.5.16,3.83-.16,4.61M36.31,30.62l-.39.23c-.55.7-1.17,1.02-4.92,3.2,1.87.31,4.92,3.36,4.92,3.36,2.19-3.05.39-6.79.39-6.79"/>
    <path class="st0" d="M21.09,31.47s2.26,1.87,3.2,2.26c-2.11,1.17-2.89,1.95-3.36,2.42-.47-2.58-.08-3.9.16-4.69M21.01,37.25l.39-.23c.55-.7,1.09-1.02,4.69-3.2-1.8-.31-4.92-3.75-4.92-3.75-2.03,3.12-.16,7.18-.16,7.18"/>
    <path class="st0" d="M31.16,26.01s-1.87,2.26-2.26,3.2c-1.17-2.11-1.95-2.89-2.42-3.36,2.58-.47,3.9-.08,4.69.16M25.38,25.93l.23.39c.7.55,1.02,1.09,3.2,4.69.31-1.8,3.44-4.69,3.44-4.69-3.12-2.11-6.87-.39-6.87-.39"/>
    <path class="st0" d="M26.47,41.78s1.87-2.03,2.26-2.89c1.17,1.87,1.95,2.58,2.42,3.05-2.58.39-3.9.08-4.69-.16M32.33,41.86l-.23-.31c-.7-.47-1.02-1.02-3.2-4.22-.31,1.56-3.44,4.22-3.44,4.22,3.05,1.87,6.87.31,6.87.31"/>
    <ellipse class="st1" cx="52.17" cy="85.67" rx="34.83" ry="35.14"/>
    <path class="st7" d="M52.17,120.82c-19.21,0-34.83-15.7-34.83-35.14s15.62-35.14,34.83-35.14,34.83,15.7,34.83,35.14-15.62,35.14-34.83,35.14"/>
    <ellipse class="st5" cx="52.17" cy="85.67" rx="34.83" ry="35.14"/>
    <path class="st0" d="M52.17,120.82c-19.21,0-34.83-15.7-34.83-35.14s15.62-35.14,34.83-35.14,34.83,15.7,34.83,35.14-15.62,35.14-34.83,35.14M52.17,119.41c18.43,0,33.43-15.15,33.43-33.74s-14.99-33.74-33.43-33.74-33.43,15.15-33.43,33.74,14.99,33.74,33.43,33.74M52.17,118.63c-18.04,0-32.64-14.76-32.64-32.96s14.68-32.96,32.64-32.96,32.64,14.76,32.64,32.96c.08,18.2-14.6,32.96-32.64,32.96M20.7,85.67c0,.16.08.23.16.31l4.61,3.2-3.59,4.37c-.08.08-.08.23-.08.39s.16.23.23.23l5.31,1.95-2.34,5.15c-.08.16-.08.23,0,.39.08.08.16.16.31.16l5.62.47-.94,5.62c0,.16,0,.23.08.31.08.08.23.16.31.08l5.54-1.02.55,5.62c0,.16.08.23.16.31.08.08.23.08.39,0l5.08-2.42,2.03,5.31c.08.16.16.23.23.23.16,0,.23,0,.31-.08l4.3-3.67,3.28,4.61c.08.08.16.16.31.16s.23-.08.31-.16l3.2-4.69,4.37,3.59c.08.08.23.08.31.08.16,0,.23-.16.23-.23l1.87-5.31,5.15,2.34c.08.08.23.08.39,0,.08-.08.16-.16.16-.31l.47-5.62,5.54.94c.16,0,.23,0,.31-.08s.16-.23.08-.31l-1.02-5.54,5.62-.55c.16,0,.23-.08.31-.23.08-.08.08-.23,0-.39l-2.42-5.15,5.31-2.03c.16-.08.23-.16.23-.23,0-.16,0-.23-.08-.39l-3.67-4.3,4.61-3.28c.08-.08.16-.16.16-.31s-.08-.23-.16-.31l-4.61-3.2,3.59-4.37c.08-.08.08-.23.08-.39s-.16-.23-.23-.23l-5.31-1.95,2.34-5.15c.08-.08.08-.23,0-.39-.08-.08-.16-.16-.31-.16l-5.62-.47.94-5.62c0-.16,0-.23-.08-.31s-.23-.16-.31-.08l-5.54,1.02-.55-5.62c0-.16-.08-.23-.16-.31s-.23-.08-.39,0l-5.08,2.42-2.03-5.31c-.08-.16-.16-.23-.23-.23-.16,0-.23,0-.31.08l-4.06,3.51-3.28-4.61c-.08-.08-.16-.16-.31-.16s-.23.08-.31.16l-3.2,4.69-4.45-3.59c-.08-.08-.23-.08-.31-.08-.16,0-.23.16-.23.23l-1.95,5.31-5.15-2.34c-.08-.08-.23-.08-.39,0-.08.08-.16.16-.16.31l-.47,5.62-5.54-.86c-.16,0-.23,0-.31.08-.08.08-.16.23-.08.31l1.02,5.54-5.7.7c-.16,0-.23.08-.31.23-.08.08-.08.23,0,.39l2.42,5.15-5.31,2.03c-.16.08-.23.16-.23.23,0,.16,0,.23.08.39l3.67,4.3-4.61,3.28c-.08,0-.16.08-.16.23h0ZM26.32,81.85l-3.59-4.22,5.15-1.95c.08-.08.16-.16.23-.23.08-.08,0-.23,0-.31l-2.34-5,5.47-.55c.08,0,.23-.08.23-.16.08-.08.08-.23.08-.31l-1.02-5.47,5.47.86c.08,0,.23,0,.31-.08.08-.08.16-.16.16-.31l.47-5.54,5,2.26c.08.08.23.08.31,0,.08-.08.16-.16.23-.23l1.87-5.23,4.3,3.51c.08.08.16.08.31.08.08,0,.23-.08.23-.16l3.12-4.53,3.2,4.53c.08.08.16.16.23.16s.23,0,.31-.08l4.22-3.59,1.95,5.15c0,.08.16.16.23.23s.23,0,.31,0l5-2.34.55,5.54c0,.08.08.23.16.31s.23.08.31.08l5.39-.94-.86,5.47c0,.08,0,.23.08.31s.16.16.31.16l5.47.47-2.26,5.08c-.08.08-.08.23,0,.31l.23.23,5.15,1.87-3.51,4.3c-.08.08-.08.23-.08.31s.08.23.16.23l4.53,3.12-4.45,3.2c-.08.08-.16.16-.16.31,0,.08,0,.23.08.31l3.59,4.22-5.15,1.95-.23.23c-.08.08,0,.23,0,.31l2.34,5-5.47.55c-.08,0-.23.08-.31.16-.08.08-.08.23-.08.31l1.02,5.47-5.47-.86c-.08,0-.23,0-.31.08s-.16.16-.16.31l-.47,5.54-5-2.26c-.08-.08-.23-.08-.31,0s-.16.16-.23.23l-1.87,5.23-4.3-3.51c-.08-.08-.16-.08-.31-.08-.08,0-.23.08-.23.16l-3.12,4.53-3.2-4.53c-.08-.08-.16-.16-.23-.16s-.23,0-.31.08l-4.22,3.59-1.95-5.15c0-.08-.16-.16-.23-.23s-.23,0-.31,0l-5,2.34-.55-5.54c0-.08-.08-.23-.16-.31-.08-.08-.23-.08-.31-.08l-5.39.94.86-5.47c0-.08,0-.23-.08-.31-.08-.08-.16-.16-.31-.16l-5.47-.47,2.26-5.08c.08-.08.08-.23,0-.31s-.16-.16-.23-.23l-5.15-1.87,3.51-4.3c.08-.08.08-.16.08-.31,0-.08-.08-.23-.16-.23l-4.53-3.12,4.45-3.2c.08-.08.16-.16.16-.31v-.08c.08-.08.08-.16,0-.23M49.98,88.87c-3.12,7.5-8.67,11.09-8.67,11.09,0,0,.55,1.02,3.05,1.95,9.14-9.53,7.65-15.85,7.65-15.85,0,0,.39-.39-4.69.94s-11.17,8.75-11.17,8.75l1.95,2.73c0-.08,3.36-6.64,11.87-9.61M55.53,81.77c3.12-7.5,8.67-11.09,8.67-11.09,0,0-.55-1.02-3.05-1.95-9.14,9.53-7.65,15.85-7.65,15.85,0,0-.39.39,4.69-.94,5.08-1.33,10.62-7.97,10.62-7.97l-1.95-2.66c0,.16-2.81,5.86-11.32,8.75M55.76,88.48c9.76,5.39,11.01,8.59,11.01,8.59,0,0,1.09-.16,2.03-2.66-9.53-9.14-15.38-8.28-15.38-8.28,0,0-.39-.39.94,4.69,1.33,5.08,6.95,11.09,6.95,11.09l3.67-2.5c-.08,0-6.25-2.5-9.22-10.93M48.97,82.55c-7.5-3.12-11.09-9.06-11.09-9.06,0,0-.55.39-1.64,2.34,9.76,10.15,15.62,8.75,15.62,8.75,0,0,.39.39-.94-4.69-1.33-5.08-7.97-10.62-7.97-10.62l-2.66,1.95c0,.08,5.7,2.89,8.67,11.32M68.88,93.79s.08,0,.86-1.33c-.47-1.02-5.15-5.31-8.67-6.95,5.47-2.11,8.98-6.4,8.98-6.4,0,0-.31-1.17-1.09-2.11-5.94,7.65-14.37,8.51-14.37,8.51,6.56-.23,14.29,8.28,14.29,8.28M36.08,76.61s-.08,0-.86,1.33c.47,1.02,5.7,6.01,9.22,7.65-5.47,2.11-10,7.26-10,7.26,0,0,.47,1.02,1.25,1.95,7.81-9.14,15.15-9.45,15.15-9.45-6.48.23-14.76-8.75-14.76-8.75M45.22,102.23s0,.08,1.33.86c1.02-.47,4.3-4.76,6.01-8.2,2.11,5.47,6.64,8.51,6.64,8.51,0,0,1.17-.31,2.11-1.09-7.65-5.94-8.75-14.37-8.75-14.37.7,4.53-7.34,14.29-7.34,14.29M60.84,68.41s0-.08-1.33-.94c-1.02.47-5.23,5.47-6.87,9.06-2.11-5.7-6.64-8.9-6.64-8.9,0,0-1.17.31-2.11,1.09,7.65,6.09,8.75,14.92,8.75,14.92.62-8.28,8.2-15.23,8.2-15.23"/>
    <path class="st7" d="M52.17,105.74c-10.93,0-19.84-8.98-19.84-19.99s8.9-19.99,19.84-19.99,19.84,8.98,19.84,19.99-8.82,19.99-19.84,19.99M77.32,85.67c0-13.98-11.25-25.3-25.07-25.3s-25.15,11.32-25.15,25.3,11.25,25.3,25.07,25.3,25.15-11.32,25.15-25.3"/>
    <ellipse class="st2" cx="52.17" cy="85.67" rx="22.8" ry="23.04"/>
    <path class="st1" d="M52.32,104.42c-10.23,0-18.59-8.36-18.59-18.74s8.28-18.74,18.59-18.74,18.59,8.36,18.59,18.74c0,10.31-8.28,18.74-18.59,18.74Z"/>
  </g>
</svg>